# VPXTOOL table OBJ file
# VPXTOOL OBJ file
# numVerts: 67 numFaces: 84
o LM_Journey_L72_PF
v 233.51522827148438 1203.505615234375 0.030000003054738045
v 343.087158203125 1236.0811767578125 0.030000003054738045
v 343.55096435546875 1236.587890625 0.030000003054738045
v 343.55096435546875 1236.587890625 0.030000003054738045
v 343.087158203125 1236.0811767578125 0.030000003054738045
v 452.8909606933594 1268.909912109375 0.030000003054738045
v 343.55096435546875 1236.587890625 0.030000003054738045
v 273.09814453125 1350.6187744140625 0.030000003054738045
v 233.51522827148438 1203.505615234375 0.030000003054738045
v 453.12286376953125 1269.163330078125 0.030000003054738045
v 343.55096435546875 1236.587890625 0.030000003054738045
v 452.8909606933594 1268.909912109375 0.030000003054738045
v 453.586669921875 1269.6700439453125 0.030000003054738045
v 453.586669921875 1269.6700439453125 0.030000003054738045
v 453.12286376953125 1269.163330078125 0.030000003054738045
v 562.6947631835938 1301.73876953125 0.030000003054738045
v 273.09814453125 1350.6187744140625 0.030000003054738045
v 218.08029174804688 1334.07763671875 0.030000003054738045
v 233.51522827148438 1203.505615234375 0.030000003054738045
v 562.6947631835938 1301.73876953125 0.030000003054738045
v 563.6223754882813 1302.752197265625 0.030000003054738045
v 453.586669921875 1269.6700439453125 0.030000003054738045
v 453.586669921875 1269.6700439453125 0.030000003054738045
v 383.1338806152344 1383.700927734375 0.030000003054738045
v 343.55096435546875 1236.587890625 0.030000003054738045
v 328.11602783203125 1367.1597900390625 0.030000003054738045
v 343.55096435546875 1236.587890625 0.030000003054738045
v 383.1338806152344 1383.700927734375 0.030000003054738045
v 563.6223754882813 1302.752197265625 0.030000003054738045
v 493.16961669921875 1416.783203125 0.030000003054738045
v 438.1517333984375 1400.2421875 0.030000003054738045
v 383.1338806152344 1383.700927734375 0.030000003054738045
v 453.586669921875 1269.6700439453125 0.030000003054738045
v 493.16961669921875 1416.783203125 0.030000003054738045
v 438.1517333984375 1400.2421875 0.030000003054738045
v 453.586669921875 1269.6700439453125 0.030000003054738045
v 273.09814453125 1350.6187744140625 0.030000003054738045
v 202.64535522460938 1464.6497802734375 0.030000003054738045
v 218.08029174804688 1334.07763671875 0.030000003054738045
v 328.11602783203125 1367.1597900390625 0.030000003054738045
v 312.68109130859375 1497.7320556640625 0.030000003054738045
v 383.1338806152344 1383.700927734375 0.030000003054738045
v 312.68109130859375 1497.7320556640625 0.030000003054738045
v 202.64535522460938 1464.6497802734375 0.030000003054738045
v 273.09814453125 1350.6187744140625 0.030000003054738045
v 438.1517333984375 1400.2421875 0.030000003054738045
v 422.716796875 1530.8140869140625 0.030000003054738045
v 493.4800720214844 1416.9947509765625 0.030000003054738045
v 422.716796875 1530.8140869140625 0.030000003054738045
v 493.16961669921875 1416.783203125 0.030000003054738045
v 422.716796875 1530.8140869140625 0.030000003054738045
v 312.68109130859375 1497.7320556640625 0.030000003054738045
v 383.1338806152344 1383.700927734375 0.030000003054738045
v 493.4800720214844 1416.9947509765625 0.030000003054738045
v 423.3377990722656 1531.2371826171875 0.030000003054738045
v 422.716796875 1530.8140869140625 0.030000003054738045
v 242.22828674316406 1611.7630615234375 0.030000003054738045
v 352.2640075683594 1644.8450927734375 0.030000003054738045
v 352.2640075683594 1644.8450927734375 0.030000003054738045
v 422.716796875 1530.8140869140625 0.030000003054738045
v 423.3377990722656 1531.2371826171875 0.030000003054738045
v 297.2461242675781 1628.30419921875 0.030000003054738045
v 242.22828674316406 1611.7630615234375 0.030000003054738045
v 312.68109130859375 1497.7320556640625 0.030000003054738045
v 352.2640075683594 1644.8450927734375 0.030000003054738045
v 297.2461242675781 1628.30419921875 0.030000003054738045
v 312.68109130859375 1497.7320556640625 0.030000003054738045
vt 0.006008779630064964 0.04812687635421753
vt 0.0342489518225193 0.03933107852935791
vt 0.034692540764808655 0.039294660091400146
vt 0.034692540764808655 0.039294660091400146
vt 0.0342489518225193 0.03933107852935791
vt 0.0632687658071518 0.03034377098083496
vt 0.034692540764808655 0.039294660091400146
vt 0.1380498856306076 0.045659661293029785
vt 0.006008779630064964 0.04812687635421753
vt 0.06349490582942963 0.030324697494506836
vt 0.034692540764808655 0.039294660091400146
vt 0.0632687658071518 0.03034377098083496
vt 0.0639474019408226 0.030286550521850586
vt 0.0639474019408226 0.030286550521850586
vt 0.06349490582942963 0.030324697494506836
vt 0.09286772459745407 0.021177053451538086
vt 0.1380498856306076 0.045659661293029785
vt 0.1226082369685173 0.050220489501953125
vt 0.006008779630064964 0.04812687635421753
vt 0.09286772459745407 0.021177053451538086
vt 0.09379088133573532 0.021097242832183838
vt 0.0639474019408226 0.030286550521850586
vt 0.0639474019408226 0.030286550521850586
vt 0.16941072046756744 0.03639698028564453
vt 0.034692540764808655 0.039294660091400146
vt 0.15364982187747955 0.04105210304260254
vt 0.034692540764808655 0.039294660091400146
vt 0.16941072046756744 0.03639698028564453
vt 0.09379088133573532 0.021097242832183838
vt 0.2014252096414566 0.026941239833831787
vt 0.18533499538898468 0.03169363737106323
vt 0.16941072046756744 0.03639698028564453
vt 0.0639474019408226 0.030286550521850586
vt 0.2014252096414566 0.026941239833831787
vt 0.18533499538898468 0.03169363737106323
vt 0.0639474019408226 0.030286550521850586
vt 0.1380498856306076 0.045659661293029785
vt 0.2489461600780487 0.05248892307281494
vt 0.1226082369685173 0.050220489501953125
vt 0.15364982187747955 0.04105210304260254
vt 0.2826486825942993 0.042957842350006104
vt 0.16941072046756744 0.03639698028564453
vt 0.2826486825942993 0.042957842350006104
vt 0.2489461600780487 0.05248892307281494
vt 0.1380498856306076 0.045659661293029785
vt 0.18533499538898468 0.03169363737106323
vt 0.3170798718929291 0.033220767974853516
vt 0.20163202285766602 0.026914238929748535
vt 0.3170798718929291 0.033220767974853516
vt 0.2014252096414566 0.026941239833831787
vt 0.3170798718929291 0.033220767974853516
vt 0.2826486825942993 0.042957842350006104
vt 0.16941072046756744 0.03639698028564453
vt 0.20163202285766602 0.026914238929748535
vt 0.3175250291824341 0.033165574073791504
vt 0.3170798718929291 0.033220767974853516
vt 0.40455392003059387 0.05002093315124512
vt 0.4416862428188324 0.039986252784729004
vt 0.4416862428188324 0.039986252784729004
vt 0.3170798718929291 0.033220767974853516
vt 0.3175250291824341 0.033165574073791504
vt 0.4230165481567383 0.045031607151031494
vt 0.40455392003059387 0.05002093315124512
vt 0.2826486825942993 0.042957842350006104
vt 0.4416862428188324 0.039986252784729004
vt 0.4230165481567383 0.045031607151031494
vt 0.2826486825942993 0.042957842350006104
vn 0 -0 -0.9999999403953552
vn 0 -0 -0.9999999403953552
vn 0 -0 -0.9999999403953552
vn 0.00000000030192257027827907 -0 -1
vn 0.00000000030192257027827907 -0 -1
vn 0.00000000030192257027827907 -0 -1
vn 0.00000000005245706299894515 -0 -1
vn 0.00000000005245706299894515 -0 -1
vn 0.00000000005245706299894515 -0 -1
vn 0 -0 -1
vn 0 -0 -1
vn 0 -0 -1
vn 0 -0 -1
vn 0.0000000005277197012709678 -0 -1
vn 0.0000000005277197012709678 -0 -1
vn 0.0000000005277197012709678 -0 -1
vn -0.00000000003934286577078616 -0 -1
vn -0.00000000003934286577078616 -0 -1
vn -0.00000000003934286577078616 -0 -1
vn -0.0000000004526968799822839 -0 -1
vn -0.0000000004526968799822839 -0 -1
vn -0.0000000004526968799822839 -0 -1
vn 0.00000000005245701789613477 -0 -1
vn 0.00000000005245701789613477 -0 -1
vn 0.00000000005245701789613477 -0 -1
vn -0.00000000003934286577078616 -0 -1
vn -0.00000000003934286577078616 -0 -1
vn -0.00000000003934286577078616 -0 -1
vn 0 -0 -1
vn 0 -0 -1
vn -0.00000000009180001897535206 -0 -1
vn -0.00000000009180001897535206 -0 -1
vn -0.00000000009180001897535206 -0 -1
vn 0.00000000006557132614659622 -0 -1
vn 0.00000000006557132614659622 -0 -1
vn 0.00000000006557132614659622 -0 -1
vn 0 -0 -1
vn 0 -0 -1
vn 0 -0 -1
vn 0 -0 -1
vn 0 -0 -1
vn 0 -0 -1
vn -0.0000000000131142431983311 -0 -1
vn -0.0000000000131142431983311 -0 -1
vn -0.0000000000131142431983311 -0 -1
vn 0 -0 -1
vn 0 -0 -1
vn -0.0000000155147823477364 -0 -0.9999999403953552
vn -0.0000000155147823477364 -0 -0.9999999403953552
vn -0.0000000155147823477364 -0 -0.9999999403953552
vn -0.000000000013114265749736287 -0 -1
vn -0.000000000013114265749736287 -0 -1
vn -0.000000000013114265749736287 -0 -1
vn 0.0000000077573911738682 -0 -0.9999999403953552
vn 0.0000000077573911738682 -0 -0.9999999403953552
vn 0.0000000077573911738682 -0 -0.9999999403953552
vn 0 -0 -1
vn 0 -0 -1
vn 0 -0 -0.9999999403953552
vn 0 -0 -0.9999999403953552
vn 0 -0 -0.9999999403953552
vn -0.00000000003934286577078616 -0 -1
vn -0.00000000003934286577078616 -0 -1
vn -0.00000000003934286577078616 -0 -1
vn 0.0000000000131142431983311 -0 -1
vn 0.0000000000131142431983311 -0 -1
vn 0.0000000000131142431983311 -0 -1
f 3/3/3 2/2/2 1/1/1
f 6/6/6 5/5/5 4/4/4
f 9/9/9 8/8/8 7/7/7
f 12/12/12 11/11/11 10/10/10
f 10/10/10 11/11/11 13/13/13
f 16/16/16 15/15/15 14/14/14
f 19/19/19 18/18/18 17/17/17
f 22/22/22 21/21/21 20/20/20
f 25/25/25 24/24/24 23/23/23
f 27/27/27 17/17/17 26/26/26
f 27/27/27 26/26/26 28/28/28
f 13/13/13 30/30/30 29/29/29
f 33/33/33 32/32/32 31/31/31
f 36/36/36 35/35/35 34/34/34
f 39/39/39 38/38/38 37/37/37
f 37/37/37 41/41/41 40/40/40
f 40/40/40 41/41/41 42/42/42
f 45/45/45 44/44/44 43/43/43
f 42/42/42 47/47/47 46/46/46
f 46/46/46 47/47/47 30/30/30
f 50/50/50 49/49/49 48/48/48
f 53/53/53 52/52/52 51/51/51
f 56/56/56 55/55/55 54/54/54
f 38/38/38 57/57/57 41/41/41
f 41/41/41 58/58/58 47/47/47
f 61/61/61 60/60/60 59/59/59
f 64/64/64 63/63/63 62/62/62
f 67/67/67 66/66/66 65/65/65
