# VPXTOOL table OBJ file
# VPXTOOL OBJ file
# numVerts: 155 numFaces: 168
o BM_sw06
v 13.599963188171387 7.999998092651367 -52.39198684692383
v 16.799896240234375 7.999998092651367 -55.591983795166016
v 16.799896240234375 7.999998092651367 -52.39198684692383
v 13.599963188171387 7.999998092651367 -52.39198684692383
v -16.80006217956543 7.999998092651367 -55.591983795166016
v 16.799896240234375 7.999998092651367 -55.591983795166016
v 13.599963188171387 7.999998092651367 -52.39198684692383
v 16.799896240234375 7.999998092651367 -52.39198684692383
v 16.799951553344727 4.800009727478027 -47.59198760986328
v 13.599963188171387 7.999998092651367 -52.39198684692383
v -13.600018501281738 7.999942779541016 -52.39198684692383
v -16.80006217956543 7.999998092651367 -55.591983795166016
v 13.599963188171387 7.999998092651367 -52.39198684692383
v 13.599963188171387 4.800009727478027 -52.39198684692383
v -13.600018501281738 7.999942779541016 -52.39198684692383
v 13.599963188171387 4.800009727478027 -52.39198684692383
v 13.599963188171387 7.999998092651367 -52.39198684692383
v 13.599963188171387 4.800009727478027 -47.59198760986328
v 13.599963188171387 4.800009727478027 -47.59198760986328
v 13.599963188171387 7.999998092651367 -52.39198684692383
v 16.799951553344727 4.800009727478027 -47.59198760986328
v -13.600018501281738 7.999942779541016 -52.39198684692383
v -16.80006217956543 7.999998092651367 -52.39198684692383
v -16.80006217956543 7.999998092651367 -55.591983795166016
v 16.799951553344727 -6.3999762535095215 -50.791988372802734
v 16.799896240234375 7.999998092651367 -52.39198684692383
v 16.799896240234375 7.999998092651367 -55.591983795166016
v 13.599963188171387 4.800009727478027 -52.39198684692383
v -13.60007381439209 4.800009727478027 -52.39198684692383
v -13.600018501281738 7.999942779541016 -52.39198684692383
v -13.60007381439209 4.800009727478027 -52.39198684692383
v 13.599963188171387 4.800009727478027 -52.39198684692383
v 13.599963188171387 4.800009727478027 -47.59198760986328
v -16.80006217956543 7.999998092651367 -52.39198684692383
v -13.600018501281738 7.999942779541016 -52.39198684692383
v -16.799951553344727 4.799954414367676 -47.59198760986328
v 16.799896240234375 7.999998092651367 -55.591983795166016
v -16.80006217956543 7.999998092651367 -55.591983795166016
v -16.800006866455078 -8.000053405761719 -55.591983795166016
v 16.799951553344727 -6.3999762535095215 -50.791988372802734
v 16.799951553344727 4.800009727478027 -47.59198760986328
v 16.799896240234375 7.999998092651367 -52.39198684692383
v -13.60007381439209 4.800009727478027 -52.39198684692383
v -13.60007381439209 4.800009727478027 -47.59198760986328
v -13.600018501281738 7.999942779541016 -52.39198684692383
v -13.60007381439209 4.800009727478027 -47.59198760986328
v -13.600018501281738 7.999942779541016 -52.39198684692383
v -13.60007381439209 4.800009727478027 -47.59198760986328
v -16.799951553344727 4.799954414367676 -47.59198760986328
v 16.799951553344727 -6.3999762535095215 -50.791988372802734
v 16.799896240234375 7.999998092651367 -55.591983795166016
v 16.800006866455078 -8.000053405761719 -55.591983795166016
v -16.800006866455078 -6.400031566619873 -50.791988372802734
v -16.80006217956543 7.999998092651367 -55.591983795166016
v -16.80006217956543 7.999998092651367 -52.39198684692383
v 16.800006866455078 -8.000053405761719 -55.591983795166016
v -16.800006866455078 -6.400031566619873 -50.791988372802734
v -16.80006217956543 7.999998092651367 -52.39198684692383
v -16.799951553344727 4.799954414367676 -47.59198760986328
v 16.799951553344727 4.800009727478027 -47.59198760986328
v 16.799951553344727 4.800009727478027 -4.391999244689941
v -16.800006866455078 -6.400031566619873 -50.791988372802734
v -16.800006866455078 -8.000053405761719 -55.591983795166016
v -16.80006217956543 7.999998092651367 -55.591983795166016
v 13.599963188171387 4.800009727478027 -47.59198760986328
v 16.799951553344727 4.800009727478027 -4.391999244689941
v -13.60007381439209 4.800009727478027 -47.59198760986328
v 16.800006866455078 -8.000053405761719 -55.591983795166016
v 16.800006866455078 -8.000053405761719 -52.39198684692383
v 16.799951553344727 -6.3999762535095215 -50.791988372802734
v 16.799951553344727 -6.3999762535095215 -50.791988372802734
v 16.799951553344727 4.800009727478027 -4.391999244689941
v 16.799951553344727 4.800009727478027 -47.59198760986328
v 16.800006866455078 -8.000053405761719 -52.39198684692383
v 16.800006866455078 -8.000053405761719 -55.591983795166016
v -16.800006866455078 -8.000053405761719 -52.39198684692383
v 16.799951553344727 -6.3999762535095215 -50.791988372802734
v 16.800006866455078 -8.000053405761719 -52.39198684692383
v -16.800006866455078 -6.400031566619873 -50.791988372802734
v -16.800006866455078 -8.000053405761719 -55.591983795166016
v -16.799951553344727 4.799954414367676 -4.391999244689941
v -16.799951553344727 4.799954414367676 -47.59198760986328
v -13.60007381439209 4.800009727478027 -47.59198760986328
v 16.800006866455078 -8.000053405761719 -52.39198684692383
v -16.800006866455078 -8.000053405761719 -52.39198684692383
v -16.800006866455078 -6.400031566619873 -50.791988372802734
v -16.800006866455078 -6.400031566619873 -50.791988372802734
v -16.800006866455078 -8.000053405761719 -52.39198684692383
v -16.800006866455078 -8.000053405761719 -55.591983795166016
v -16.800006866455078 -6.400031566619873 -50.791988372802734
v -16.799951553344727 4.799954414367676 -47.59198760986328
v -16.799951553344727 4.799954414367676 -4.391999244689941
v 16.799951553344727 4.800009727478027 -4.391999244689941
v -16.799951553344727 4.799954414367676 -4.391999244689941
v -13.60007381439209 4.800009727478027 -47.59198760986328
v 16.799951553344727 -6.3999762535095215 -50.791988372802734
v 16.800006866455078 -1.6000217199325562 3.607999086380005
v 16.799951553344727 4.800009727478027 -4.391999244689941
v -16.800006866455078 -6.400031566619873 -50.791988372802734
v -16.799951553344727 4.799954414367676 -4.391999244689941
v -16.800006866455078 -1.6000217199325562 3.607999086380005
v -16.800006866455078 -1.6000217199325562 3.607999086380005
v -16.799951553344727 4.799954414367676 -4.391999244689941
v 16.799951553344727 4.800009727478027 -4.391999244689941
v 16.799951553344727 -6.3999762535095215 -50.791988372802734
v -16.800006866455078 -6.400031566619873 -50.791988372802734
v -16.800006866455078 -6.400031566619873 52.26681900024414
v 16.800006866455078 -1.6000217199325562 3.607999086380005
v -16.800006866455078 -1.6000217199325562 3.607999086380005
v 16.799951553344727 4.800009727478027 -4.391999244689941
v 3.1998777389526367 3.9425201416015625 -4.391999244689941
v 3.1998777389526367 3.9425201416015625 50.66682434082031
v 0 4.799954414367676 -4.391999244689941
v 16.800006866455078 -1.6000217199325562 3.607999086380005
v 16.799951553344727 -6.3999762535095215 -50.791988372802734
v 16.799951553344727 -6.3999762535095215 52.26681900024414
v 0 4.799954414367676 -4.391999244689941
v 0 4.799954414367676 50.66682434082031
v -3.2000434398651123 3.942575216293335 -4.391999244689941
v 5.542486667633057 1.5999664068222046 -4.391999244689941
v 5.542486667633057 1.5999664068222046 50.66682434082031
v 3.1998777389526367 3.9425201416015625 -4.391999244689941
v -3.2000434398651123 3.942575216293335 -4.391999244689941
v -3.2000434398651123 3.942575216293335 50.66682434082031
v -5.542652130126953 1.5999664068222046 -4.391999244689941
v -16.800006866455078 -1.6000217199325562 3.607999086380005
v -16.800006866455078 -6.400031566619873 52.26681900024414
v -16.800006866455078 -6.400031566619873 -50.791988372802734
v -16.800006866455078 -1.6000217199325562 3.607999086380005
v 16.800006866455078 -1.6000217199325562 3.607999086380005
v 16.800006866455078 -1.6000217199325562 52.26681900024414
v 0 4.799954414367676 50.66682434082031
v 0 4.799954414367676 50.66682434082031
v -3.2000434398651123 3.942575216293335 50.66682434082031
v -3.2000434398651123 3.942575216293335 -4.391999244689941
v 5.542486667633057 1.5999664068222046 50.66682434082031
v 3.1998777389526367 3.9425201416015625 50.66682434082031
v 3.1998777389526367 3.9425201416015625 -4.391999244689941
v 16.799951553344727 -6.3999762535095215 52.26681900024414
v -3.2000434398651123 3.942575216293335 50.66682434082031
v -5.542652130126953 1.5999664068222046 50.66682434082031
v -5.542652130126953 1.5999664068222046 -4.391999244689941
v 5.542486667633057 1.5999664068222046 50.66682434082031
v 5.542486667633057 1.5999664068222046 -4.391999244689941
v 6.3999762535095215 -1.6000217199325562 50.66682434082031
v -5.542652130126953 1.5999664068222046 -4.391999244689941
v -5.542652130126953 1.5999664068222046 50.66682434082031
v -6.400031566619873 -1.6000217199325562 50.66682434082031
v 16.800006866455078 -1.6000217199325562 3.607999086380005
v 16.799951553344727 -6.3999762535095215 52.26681900024414
v 16.800006866455078 -1.6000217199325562 52.26681900024414
v -16.800006866455078 -1.6000217199325562 52.26681900024414
v -16.800006866455078 -1.6000217199325562 3.607999086380005
v -16.800006866455078 -1.6000217199325562 52.26681900024414
v -16.800006866455078 -6.400031566619873 52.26681900024414
vt 0.09117400646209717 0.11245352029800415
vt 0.09205237030982971 0.11211705207824707
vt 0.09220612049102783 0.11231404542922974
vt 0.09117400646209717 0.11245352029800415
vt 0.08111965656280518 0.11359298229217529
vt 0.09205237030982971 0.11211705207824707
vt 0.09117400646209717 0.11245352029800415
vt 0.09220612049102783 0.11231404542922974
vt 0.0905735045671463 0.11254686117172241
vt 0.09117400646209717 0.11245352029800415
vt 0.08233164995908737 0.11364883184432983
vt 0.08111965656280518 0.11359298229217529
vt 0.09117400646209717 0.11245352029800415
vt 0.08930796384811401 0.1123914122581482
vt 0.08233164995908737 0.11364883184432983
vt 0.08930796384811401 0.1123914122581482
vt 0.09117400646209717 0.11245352029800415
vt 0.08954159170389175 0.11268633604049683
vt 0.08954159170389175 0.11268633604049683
vt 0.09117400646209717 0.11245352029800415
vt 0.0905735045671463 0.11254686117172241
vt 0.08233164995908737 0.11364883184432983
vt 0.08128312975168228 0.11379057168960571
vt 0.08111965656280518 0.11359298229217529
vt 0.08390472084283829 0.11213350296020508
vt 0.09220612049102783 0.11231404542922974
vt 0.09205237030982971 0.11211705207824707
vt 0.08930796384811401 0.1123914122581482
vt 0.08045563846826553 0.11358577013015747
vt 0.08233164995908737 0.11364883184432983
vt 0.08045563846826553 0.11358577013015747
vt 0.08930796384811401 0.1123914122581482
vt 0.08954159170389175 0.11268633604049683
vt 0.08128312975168228 0.11379057168960571
vt 0.08233164995908737 0.11364883184432983
vt 0.07965272665023804 0.11402320861816406
vt 0.09205237030982971 0.11211705207824707
vt 0.08111965656280518 0.11359298229217529
vt 0.07174091041088104 0.11327791213989258
vt 0.08390472084283829 0.11213350296020508
vt 0.0905735045671463 0.11254686117172241
vt 0.09220612049102783 0.11231404542922974
vt 0.08045563846826553 0.11358577013015747
vt 0.08070103079080582 0.11388146877288818
vt 0.08233164995908737 0.11364883184432983
vt 0.08070103079080582 0.11388146877288818
vt 0.08233164995908737 0.11364883184432983
vt 0.08070103079080582 0.11388146877288818
vt 0.07965272665023804 0.11402320861816406
vt 0.08390472084283829 0.11213350296020508
vt 0.09205237030982971 0.11211705207824707
vt 0.08273482322692871 0.11180740594863892
vt 0.07293159514665604 0.11360543966293335
vt 0.08111965656280518 0.11359298229217529
vt 0.08128312975168228 0.11379057168960571
vt 0.08273482322692871 0.11180740594863892
vt 0.07293159514665604 0.11360543966293335
vt 0.08128312975168228 0.11379057168960571
vt 0.07965272665023804 0.11402320861816406
vt 0.0905735045671463 0.11254686117172241
vt 0.09264016151428223 0.11517095565795898
vt 0.07293159514665604 0.11360543966293335
vt 0.07174091041088104 0.11327791213989258
vt 0.08111965656280518 0.11359298229217529
vt 0.08954159170389175 0.11268633604049683
vt 0.09264016151428223 0.11517095565795898
vt 0.08070103079080582 0.11388146877288818
vt 0.08273482322692871 0.11180740594863892
vt 0.08289535343647003 0.11200428009033203
vt 0.08390472084283829 0.11213350296020508
vt 0.08390472084283829 0.11213350296020508
vt 0.09264016151428223 0.11517095565795898
vt 0.0905735045671463 0.11254686117172241
vt 0.08289535343647003 0.11200428009033203
vt 0.08273482322692871 0.11180740594863892
vt 0.07191123813390732 0.11347538232803345
vt 0.08390472084283829 0.11213350296020508
vt 0.08289535343647003 0.11200428009033203
vt 0.07293159514665604 0.11360543966293335
vt 0.07174091041088104 0.11327791213989258
vt 0.08184869587421417 0.11665493249893188
vt 0.07965272665023804 0.11402320861816406
vt 0.08070103079080582 0.11388146877288818
vt 0.08289535343647003 0.11200428009033203
vt 0.07191123813390732 0.11347538232803345
vt 0.07293159514665604 0.11360543966293335
vt 0.07293159514665604 0.11360543966293335
vt 0.07191123813390732 0.11347538232803345
vt 0.07174091041088104 0.11327791213989258
vt 0.07293159514665604 0.11360543966293335
vt 0.07965272665023804 0.11402320861816406
vt 0.08184869587421417 0.11665493249893188
vt 0.09264016151428223 0.11517095565795898
vt 0.08184869587421417 0.11665493249893188
vt 0.08070103079080582 0.11388146877288818
vt 0.08390472084283829 0.11213350296020508
vt 0.08933939039707184 0.11552631855010986
vt 0.09264016151428223 0.11517095565795898
vt 0.07293159514665604 0.11360543966293335
vt 0.08184869587421417 0.11665493249893188
vt 0.07854771614074707 0.11700946092605591
vt 0.07854771614074707 0.11700946092605591
vt 0.08184869587421417 0.11665493249893188
vt 0.09264016151428223 0.11517095565795898
vt 0.08390472084283829 0.11213350296020508
vt 0.07293159514665604 0.11360543966293335
vt 0.07825583964586258 0.11980307102203369
vt 0.08933939039707184 0.11552631855010986
vt 0.07854771614074707 0.11700946092605591
vt 0.09264016151428223 0.11517095565795898
vt 0.08779918402433395 0.11575168371200562
vt 0.09044380486011505 0.11902368068695068
vt 0.0872676745057106 0.11590975522994995
vt 0.08933939039707184 0.11552631855010986
vt 0.08390472084283829 0.11213350296020508
vt 0.08892300724983215 0.118313729763031
vt 0.0872676745057106 0.11590975522994995
vt 0.08992145955562592 0.11918264627456665
vt 0.08574309200048447 0.11603432893753052
vt 0.08719780296087265 0.11560261249542236
vt 0.08984779566526413 0.11887365579605103
vt 0.08779918402433395 0.11575168371200562
vt 0.08574309200048447 0.11603432893753052
vt 0.08841829001903534 0.1193079948425293
vt 0.0836336612701416 0.116091787815094
vt 0.07854771614074707 0.11700946092605591
vt 0.07825583964586258 0.11980307102203369
vt 0.07293159514665604 0.11360543966293335
vt 0.07854771614074707 0.11700946092605591
vt 0.08933939039707184 0.11552631855010986
vt 0.09164898097515106 0.1184077262878418
vt 0.08992145955562592 0.11918264627456665
vt 0.08992145955562592 0.11918264627456665
vt 0.08841829001903534 0.1193079948425293
vt 0.08574309200048447 0.11603432893753052
vt 0.08984779566526413 0.11887365579605103
vt 0.09044380486011505 0.11902368068695068
vt 0.08779918402433395 0.11575168371200562
vt 0.08892300724983215 0.118313729763031
vt 0.08841829001903534 0.1193079948425293
vt 0.08633670955896378 0.11936581134796143
vt 0.0836336612701416 0.116091787815094
vt 0.08984779566526413 0.11887365579605103
vt 0.08719780296087265 0.11560261249542236
vt 0.08829540014266968 0.11877268552780151
vt 0.0836336612701416 0.116091787815094
vt 0.08633670955896378 0.11936581134796143
vt 0.08423665910959244 0.11934053897857666
vt 0.08933939039707184 0.11552631855010986
vt 0.08892300724983215 0.118313729763031
vt 0.09164898097515106 0.1184077262878418
vt 0.08099926263093948 0.11989861726760864
vt 0.07854771614074707 0.11700946092605591
vt 0.08099926263093948 0.11989861726760864
vt 0.07825583964586258 0.11980307102203369
vn 0 0.9999999403953552 -0
vn 0 0.9999999403953552 -0
vn 0 0.9999999403953552 -0
vn 0 1 -0.00000046456486302304256
vn 0 1 -0.00000046456486302304256
vn 0 1 -0.00000046456486302304256
vn 0 0.8320513367652893 0.5546987056732178
vn 0 0.8320513367652893 0.5546987056732178
vn 0 0.8320513367652893 0.5546987056732178
vn -0.0000020299685274949297 1 0.000019511711798259057
vn -0.0000020299685274949297 1 0.000019511711798259057
vn -0.0000020299685274949297 1 0.000019511711798259057
vn 0 -0 1
vn 0 -0 1
vn 0 -0 1
vn -1 -0 -0
vn -1 -0 -0
vn -1 -0 -0
vn 0 0.8320510983467102 0.5546988844871521
vn 0 0.8320510983467102 0.5546988844871521
vn 0 0.8320510983467102 0.5546988844871521
vn 0.000017254476915695705 1 -0
vn 0.000017254476915695705 1 -0
vn 0.000017254476915695705 1 -0
vn 1 0.0000037939475987514015 -0
vn 1 0.0000037939475987514015 -0
vn 1 0.0000037939475987514015 -0
vn 0 -0 0.9999999403953552
vn 0 -0 0.9999999403953552
vn 0 -0 0.9999999403953552
vn 0 1 -0
vn 0 1 -0
vn 0 1 -0
vn 0.00001441898348275572 0.832046627998352 0.5547055602073669
vn 0.00001441898348275572 0.832046627998352 0.5547055602073669
vn 0.00001441898348275572 0.832046627998352 0.5547055602073669
vn 0 -0 -1
vn 0 -0 -1
vn 0 -0 -1
vn 1 0.000002731643235165393 -0.000009662645425123628
vn 1 0.000002731643235165393 -0.000009662645425123628
vn 1 0.000002731643235165393 -0.000009662645425123628
vn 1 -0.000017073114577215165 -0
vn 1 -0.000017073114577215165 -0
vn 1 -0.000017073114577215165 -0
vn 0 1 -0
vn -0.000014882478353683837 0.8320556879043579 0.5546920299530029
vn -0.000014882478353683837 0.8320556879043579 0.5546920299530029
vn -0.000014882478353683837 0.8320556879043579 0.5546920299530029
vn 1 0.000006829072844993789 0.000009202409273711964
vn 1 0.000006829072844993789 0.000009202409273711964
vn 1 0.000006829072844993789 0.000009202409273711964
vn -0.9999999403953552 -0.0000037939307730994187 -0
vn -0.9999999403953552 -0.0000037939307730994187 -0
vn -0.9999999403953552 -0.0000037939307730994187 -0
vn 0 -0 -1
vn -1 -0.0000014633757245974266 0.000022086018361733295
vn -1 -0.0000014633757245974266 0.000022086018361733295
vn -1 -0.0000014633757245974266 0.000022086018361733295
vn 0 1 -0
vn 0 1 -0
vn -1 -0.0000034145364224968944 0.0000011503259429446189
vn -1 -0.0000034145364224968944 0.0000011503259429446189
vn -1 -0.0000034145364224968944 0.0000011503259429446189
vn 0 1 -0.000000005313635309533993
vn 0 1 -0.000000005313635309533993
vn 0 1 -0.000000005313635309533993
vn 1 0.00003414392631384544 -0
vn 1 0.00003414392631384544 -0
vn 1 0.00003414392631384544 -0
vn 1 0.00000020647320297939586 -0
vn 1 0.00000020647320297939586 -0
vn 1 0.00000020647320297939586 -0
vn 0 -1 -0
vn 0 -1 -0
vn 0 -1 -0
vn 0.0000013139562042852049 -0.7070890069007874 0.707124650478363
vn 0.0000013139562042852049 -0.7070890069007874 0.707124650478363
vn 0.0000013139562042852049 -0.7070890069007874 0.707124650478363
vn 0 -1 -0
vn -0.000017255368220503442 1 -0
vn -0.000017255368220503442 1 -0
vn -0.000017255368220503442 1 -0
vn 0 -0.7071017622947693 0.7071118354797363
vn 0 -0.7071017622947693 0.7071118354797363
vn 0 -0.7071017622947693 0.7071118354797363
vn -1 -0.0000012194645933050197 -0
vn -1 -0.0000012194645933050197 -0
vn -1 -0.0000012194645933050197 -0
vn -1 0.0000049295476856059395 -0
vn -1 0.0000049295476856059395 -0
vn -1 0.0000049295476856059395 -0
vn -0.0000016433095879619941 1 0.0000011528106824698625
vn -0.0000016433095879619941 1 0.0000011528106824698625
vn -0.0000016433095879619941 1 0.0000011528106824698625
vn 1 0.000006202371878316626 -0.0000015997666196199134
vn 1 0.000006202371878316626 -0.0000015997666196199134
vn 1 0.000006202371878316626 -0.0000015997666196199134
vn -1 0.000007753015779599082 -0.0000006856210461592127
vn -1 0.000007753015779599082 -0.0000006856210461592127
vn -1 0.000007753015779599082 -0.0000006856210461592127
vn -0.0000012832819038521848 0.7808698415756226 0.624693751335144
vn -0.0000012832819038521848 0.7808698415756226 0.624693751335144
vn -0.0000012832819038521848 0.7808698415756226 0.624693751335144
vn 0.0000016433070868515642 -1 -0
vn 0.0000016433070868515642 -1 -0
vn 0.0000016433070868515642 -1 -0
vn 0 0.7808672189712524 0.6246969699859619
vn 0 0.7808672189712524 0.6246969699859619
vn 0 0.7808672189712524 0.6246969699859619
vn 0.25882744789123535 0.9659236073493958 -0
vn 0.25882744789123535 0.9659236073493958 -0
vn 0.25882744789123535 0.9659236073493958 -0
vn 1 -0.000011309167348372284 -0
vn 1 -0.000011309167348372284 -0
vn 1 -0.000011309167348372284 -0
vn -0.2587994337081909 0.9659311771392822 -0
vn -0.2587994337081909 0.9659311771392822 -0
vn -0.2587994337081909 0.9659311771392822 -0
vn 0.7070984244346619 0.7071151733398438 -0
vn 0.7070984244346619 0.7071151733398438 -0
vn 0.7070984244346619 0.7071151733398438 -0
vn -0.7071068286895752 0.7071067690849304 -0
vn -0.7071068286895752 0.7071067690849304 -0
vn -0.7071068286895752 0.7071067690849304 -0
vn -1 -0.00000040389417677033634 -0
vn -1 -0.00000040389417677033634 -0
vn -1 -0.00000040389417677033634 -0
vn 0 0.9999999403953552 -0
vn 0 0.9999999403953552 -0
vn 0 0.9999999403953552 -0
vn 0.25882744789123535 0.9659236073493958 -0
vn -0.25879940390586853 0.9659311771392822 -0
vn -0.25879940390586853 0.9659311771392822 -0
vn -0.25879940390586853 0.9659311771392822 -0
vn 0.7070984840393066 0.7071150541305542 -0
vn 0.7070984840393066 0.7071150541305542 -0
vn 0.7070984840393066 0.7071150541305542 -0
vn 0.0000016433070868515642 -1 -0
vn -0.7071067690849304 0.7071068286895752 -0
vn -0.7071067690849304 0.7071068286895752 -0
vn -0.7071067690849304 0.7071068286895752 -0
vn 0.9659216403961182 0.25883468985557556 -0
vn 0.9659216403961182 0.25883468985557556 -0
vn 0.9659216403961182 0.25883468985557556 -0
vn -0.9659299850463867 0.25880348682403564 -0
vn -0.9659299850463867 0.25880348682403564 -0
vn -0.9659299850463867 0.25880348682403564 -0
vn 1 -0.000011548616384970956 -0
vn 1 -0.000011548616384970956 -0
vn 1 -0.000011548616384970956 -0
vn 0 0.9999999403953552 -0
vn -1 -0 -0
vn -1 -0 -0
vn -1 -0 -0
f 3/3/3 2/2/2 1/1/1
f 6/6/6 5/5/5 4/4/4
f 9/9/9 8/8/8 7/7/7
f 12/12/12 11/11/11 10/10/10
f 15/15/15 14/14/14 13/13/13
f 18/18/18 17/17/17 16/16/16
f 21/21/21 20/20/20 19/19/19
f 24/24/24 23/23/23 22/22/22
f 27/27/27 26/26/26 25/25/25
f 30/30/30 29/29/29 28/28/28
f 33/33/33 32/32/32 31/31/31
f 36/36/36 35/35/35 34/34/34
f 39/39/39 38/38/38 37/37/37
f 42/42/42 41/41/41 40/40/40
f 45/45/45 44/44/44 43/43/43
f 33/33/33 31/31/31 46/46/46
f 49/49/49 48/48/48 47/47/47
f 52/52/52 51/51/51 50/50/50
f 55/55/55 54/54/54 53/53/53
f 39/39/39 37/37/37 56/56/56
f 59/59/59 58/58/58 57/57/57
f 61/61/61 60/60/60 33/33/33
f 64/64/64 63/63/63 62/62/62
f 67/67/67 66/66/66 65/65/65
f 70/70/70 69/69/69 68/68/68
f 73/73/73 72/72/72 71/71/71
f 76/76/76 75/75/75 74/74/74
f 79/79/79 78/78/78 77/77/77
f 76/76/76 80/80/80 75/75/75
f 83/83/83 82/82/82 81/81/81
f 86/86/86 85/85/85 84/84/84
f 89/89/89 88/88/88 87/87/87
f 92/92/92 91/91/91 90/90/90
f 95/95/95 94/94/94 93/93/93
f 98/98/98 97/97/97 96/96/96
f 101/101/101 100/100/100 99/99/99
f 104/104/104 103/103/103 102/102/102
f 107/107/107 106/106/106 105/105/105
f 110/110/110 109/109/109 108/108/108
f 113/113/113 112/112/112 111/111/111
f 116/116/116 115/115/115 114/114/114
f 119/119/119 118/118/118 117/117/117
f 122/122/122 121/121/121 120/120/120
f 125/125/125 124/124/124 123/123/123
f 128/128/128 127/127/127 126/126/126
f 131/131/131 130/130/130 129/129/129
f 113/113/113 132/132/132 112/112/112
f 135/135/135 134/134/134 133/133/133
f 138/138/138 137/137/137 136/136/136
f 107/107/107 105/105/105 139/139/139
f 142/142/142 141/141/141 140/140/140
f 145/145/145 144/144/144 143/143/143
f 148/148/148 147/147/147 146/146/146
f 151/151/151 150/150/150 149/149/149
f 131/131/131 129/129/129 152/152/152
f 155/155/155 154/154/154 153/153/153
