# VPXTOOL table OBJ file
# VPXTOOL OBJ file
# numVerts: 124 numFaces: 126
o BM_LEMK
v 8.350419998168945 9.50792121887207 -72.88787841796875
v 6.741095066070557 9.508030891418457 -76.33917999267578
v 11.450386047363281 9.50792121887207 -76.93648529052734
v 11.450386047363281 9.50792121887207 -76.93648529052734
v 11.450386047363281 9.50792121887207 -73.13648986816406
v 8.350419998168945 9.50792121887207 -72.88787841796875
v 6.741095066070557 9.508030891418457 -76.33917999267578
v 8.350419998168945 9.50792121887207 -72.88787841796875
v 6.049388408660889 9.50792121887207 -71.19198608398438
v 6.741095066070557 9.508030891418457 -76.33917999267578
v 6.741095066070557 3.8079609870910645 -76.33917999267578
v 11.450386047363281 9.50792121887207 -76.93648529052734
v 6.049388408660889 9.50792121887207 -71.19198608398438
v 2.7515316009521484 9.50792121887207 -73.09608459472656
v 6.741095066070557 9.508030891418457 -76.33917999267578
v 6.741095066070557 9.508030891418457 -76.33917999267578
v 2.7515316009521484 9.50792121887207 -73.09608459472656
v 6.741095066070557 3.8079609870910645 -76.33917999267578
v 5.374467372894287 9.508030891418457 -69.3404769897461
v 2.7515316009521484 9.50792121887207 -73.09608459472656
v 6.049388408660889 9.50792121887207 -71.19198608398438
v 6.741095066070557 3.8079609870910645 -76.33917999267578
v 11.450386047363281 3.8079609870910645 -76.93648529052734
v 11.450386047363281 9.50792121887207 -76.93648529052734
v 5.374467372894287 9.508030891418457 -69.3404769897461
v 1.5663681030273438 9.508030891418457 -69.3404769897461
v 2.7515316009521484 9.50792121887207 -73.09608459472656
v 2.7515316009521484 9.50792121887207 -73.09608459472656
v 2.751476287841797 3.8079609870910645 -73.09608459472656
v 6.741095066070557 3.8079609870910645 -76.33917999267578
v 1.5663681030273438 9.508030891418457 -69.3404769897461
v 1.5663957595825195 3.8079609870910645 -69.3404769897461
v 2.7515316009521484 9.50792121887207 -73.09608459472656
v -6.033624649047852 3.8079609870910645 -76.93648529052734
v 11.450386047363281 3.8079609870910645 -76.93648529052734
v 6.741095066070557 3.8079609870910645 -76.33917999267578
v 1.5663957595825195 3.8079609870910645 -69.3404769897461
v 2.751476287841797 3.8079609870910645 -73.09608459472656
v 2.7515316009521484 9.50792121887207 -73.09608459472656
v 2.751476287841797 3.8079609870910645 -73.09608459472656
v 5.374467372894287 9.508030891418457 -69.3404769897461
v 1.5665061473846436 9.50792121887207 -46.53248977661133
v 1.5663681030273438 9.508030891418457 -69.3404769897461
v -6.033624649047852 3.8079609870910645 -76.93648529052734
v 2.751476287841797 3.8079609870910645 -73.09608459472656
v 1.5663957595825195 3.8079609870910645 -69.3404769897461
v 1.5663957595825195 3.8079609870910645 -69.3404769897461
v -7.933629512786865 3.8079609870910645 -75.03788757324219
v -6.033624649047852 3.8079609870910645 -76.93648529052734
v -6.033624649047852 3.8079609870910645 -76.93648529052734
v -6.033596992492676 -3.7919485569000244 -76.93648529052734
v 11.450386047363281 3.8079609870910645 -76.93648529052734
v -6.033596992492676 -3.7919485569000244 -76.93648529052734
v -6.033624649047852 3.8079609870910645 -76.93648529052734
v -7.933629512786865 3.8079609870910645 -75.03788757324219
v 1.5663681030273438 9.508030891418457 -69.3404769897461
v 1.5665061473846436 9.50792121887207 -46.53248977661133
v 1.5663957595825195 3.8079609870910645 -69.3404769897461
v -6.033596992492676 -3.7919485569000244 -76.93648529052734
v 11.450386047363281 -3.7920591831207275 -76.93648529052734
v 11.450386047363281 3.8079609870910645 -76.93648529052734
v 5.374467372894287 9.508030891418457 -69.3404769897461
v 5.374549865722656 9.508030891418457 -46.53248977661133
v 1.5665061473846436 9.50792121887207 -46.53248977661133
v -7.933574199676514 -3.7920591831207275 -75.03788757324219
v -6.033596992492676 -3.7919485569000244 -76.93648529052734
v -7.933629512786865 3.8079609870910645 -75.03788757324219
v 1.5663957595825195 3.8079609870910645 -69.3404769897461
v -10.783498764038086 3.8080713748931885 -46.53248977661133
v -7.933629512786865 3.8079609870910645 -75.03788757324219
v 11.450386047363281 -3.7920591831207275 -76.93648529052734
v 6.741122245788574 -3.7920591831207275 -76.33917999267578
v 11.450441360473633 -9.489148139953613 -76.93648529052734
v 1.5665061473846436 9.50792121887207 -46.53248977661133
v 1.5664784908294678 3.8079609870910645 -46.53248977661133
v 1.5663957595825195 3.8079609870910645 -69.3404769897461
v 2.7515316009521484 -3.7920591831207275 -73.09608459472656
v 2.751476287841797 -9.48903751373291 -73.09608459472656
v 6.741122245788574 -3.7920591831207275 -76.33917999267578
v 6.741122245788574 -3.7920591831207275 -76.33917999267578
v 6.741067409515381 -9.489148139953613 -76.33917999267578
v 11.450441360473633 -9.489148139953613 -76.93648529052734
v 2.751476287841797 -9.48903751373291 -73.09608459472656
v 6.741067409515381 -9.489148139953613 -76.33917999267578
v 6.741122245788574 -3.7920591831207275 -76.33917999267578
v -10.783498764038086 -1.8919988870620728 -46.53248977661133
v -7.933574199676514 -3.7920591831207275 -75.03788757324219
v -7.933629512786865 3.8079609870910645 -75.03788757324219
v 2.7515316009521484 -3.7920591831207275 -73.09608459472656
v 1.5663681030273438 -3.7919485569000244 -69.3404769897461
v 2.751476287841797 -9.48903751373291 -73.09608459472656
v 1.5663957595825195 3.8079609870910645 -69.3404769897461
v 1.5664784908294678 3.8079609870910645 -46.53248977661133
v -10.783498764038086 3.8080713748931885 -46.53248977661133
v -7.933629512786865 3.8079609870910645 -75.03788757324219
v -10.783498764038086 3.8080713748931885 -46.53248977661133
v -10.783498764038086 1.9080111980438232 -46.53248977661133
v 1.5663681030273438 -3.7919485569000244 -69.3404769897461
v 1.5663957595825195 -9.489148139953613 -69.3404769897461
v 2.751476287841797 -9.48903751373291 -73.09608459472656
v -7.933629512786865 3.8079609870910645 -75.03788757324219
v -10.783498764038086 1.9080111980438232 -46.53248977661133
v -10.783498764038086 -1.8919988870620728 -46.53248977661133
v 1.5663681030273438 -3.7919485569000244 -69.3404769897461
v 1.5665061473846436 -3.7920591831207275 -46.53248977661133
v 1.5663957595825195 -9.489148139953613 -69.3404769897461
v -10.783498764038086 -1.8919988870620728 -46.53248977661133
v -10.783554077148438 -3.7920591831207275 -46.53248977661133
v -7.933574199676514 -3.7920591831207275 -75.03788757324219
v 1.5665061473846436 -3.7920591831207275 -46.53248977661133
v 1.5664784908294678 -9.489148139953613 -46.53248977661133
v 1.5663957595825195 -9.489148139953613 -69.3404769897461
v 1.5664784908294678 1.9079008102416992 -46.53248977661133
v 1.5665061473846436 1.9079008102416992 9.675098419189453
v -10.783498764038086 1.9080111980438232 -46.53248977661133
v -10.783498764038086 1.9080111980438232 -46.53248977661133
v -15.15147876739502 1.8999497890472412 13.47509765625
v -10.783498764038086 -1.8919988870620728 -46.53248977661133
v 1.5665061473846436 1.9079008102416992 9.675098419189453
v -15.15147876739502 1.8999497890472412 13.47509765625
v -10.783498764038086 1.9080111980438232 -46.53248977661133
v -15.15147876739502 1.8999497890472412 13.47509765625
v -15.151506423950195 -1.8999497890472412 13.47509765625
v -10.783498764038086 -1.8919988870620728 -46.53248977661133
vt 0.2025342881679535 0.09346479177474976
vt 0.20122982561588287 0.09310311079025269
vt 0.204473078250885 0.09279650449752808
vt 0.204473078250885 0.09279650449752808
vt 0.20467430353164673 0.09328150749206543
vt 0.2025342881679535 0.09346479177474976
vt 0.20122982561588287 0.09310311079025269
vt 0.2025342881679535 0.09346479177474976
vt 0.2010265588760376 0.09379345178604126
vt 0.20122982561588287 0.09310311079025269
vt 0.20010536909103394 0.0923764705657959
vt 0.204473078250885 0.09279650449752808
vt 0.2010265588760376 0.09379345178604126
vt 0.1986299604177475 0.09371227025985718
vt 0.20122982561588287 0.09310311079025269
vt 0.20122982561588287 0.09310311079025269
vt 0.1986299604177475 0.09371227025985718
vt 0.20010536909103394 0.0923764705657959
vt 0.20065762102603912 0.0940622091293335
vt 0.1986299604177475 0.09371227025985718
vt 0.2010265588760376 0.09379345178604126
vt 0.20010536909103394 0.0923764705657959
vt 0.2033431977033615 0.09207075834274292
vt 0.204473078250885 0.09279650449752808
vt 0.20065762102603912 0.0940622091293335
vt 0.19801126420497894 0.0942487120628357
vt 0.1986299604177475 0.09371227025985718
vt 0.1986299604177475 0.09371227025985718
vt 0.19751064479351044 0.09298491477966309
vt 0.20010536909103394 0.0923764705657959
vt 0.19801126420497894 0.0942487120628357
vt 0.19689404964447021 0.09352099895477295
vt 0.1986299604177475 0.09371227025985718
vt 0.19118323922157288 0.09292387962341309
vt 0.2033431977033615 0.09207075834274292
vt 0.20010536909103394 0.0923764705657959
vt 0.19689404964447021 0.09352099895477295
vt 0.19751064479351044 0.09298491477966309
vt 0.1986299604177475 0.09371227025985718
vt 0.19751064479351044 0.09298491477966309
vt 0.20065762102603912 0.0940622091293335
vt 0.19925306737422943 0.09713214635848999
vt 0.19801126420497894 0.0942487120628357
vt 0.19118323922157288 0.09292387962341309
vt 0.19751064479351044 0.09298491477966309
vt 0.19689404964447021 0.09352099895477295
vt 0.19689404964447021 0.09352099895477295
vt 0.18996722996234894 0.09325927495956421
vt 0.19118323922157288 0.09292387962341309
vt 0.19118323922157288 0.09292387962341309
vt 0.18970894813537598 0.09195619821548462
vt 0.2033431977033615 0.09207075834274292
vt 0.18970894813537598 0.09195619821548462
vt 0.19118323922157288 0.09292387962341309
vt 0.18996722996234894 0.09325927495956421
vt 0.19801126420497894 0.0942487120628357
vt 0.19925306737422943 0.09713214635848999
vt 0.19689404964447021 0.09352099895477295
vt 0.18970894813537598 0.09195619821548462
vt 0.2018430083990097 0.0911070704460144
vt 0.2033431977033615 0.09207075834274292
vt 0.20065762102603912 0.0940622091293335
vt 0.20188193023204803 0.09694552421569824
vt 0.19925306737422943 0.09713214635848999
vt 0.18849630653858185 0.09229105710983276
vt 0.18970894813537598 0.09195619821548462
vt 0.18996722996234894 0.09325927495956421
vt 0.19689404964447021 0.09352099895477295
vt 0.18961217999458313 0.09700822830200195
vt 0.18996722996234894 0.09325927495956421
vt 0.2018430083990097 0.0911070704460144
vt 0.1986122876405716 0.09141170978546143
vt 0.20072311162948608 0.09038770198822021
vt 0.19925306737422943 0.09713214635848999
vt 0.19814077019691467 0.09640395641326904
vt 0.19689404964447021 0.09352099895477295
vt 0.19602438807487488 0.09201908111572266
vt 0.19491496682167053 0.09129810333251953
vt 0.1986122876405716 0.09141170978546143
vt 0.1986122876405716 0.09141170978546143
vt 0.19749772548675537 0.09069150686264038
vt 0.20072311162948608 0.09038770198822021
vt 0.19491496682167053 0.09129810333251953
vt 0.19749772548675537 0.09069150686264038
vt 0.1986122876405716 0.09141170978546143
vt 0.18851740658283234 0.09628051519393921
vt 0.18849630653858185 0.09229105710983276
vt 0.18996722996234894 0.09325927495956421
vt 0.19602438807487488 0.09201908111572266
vt 0.19541063904762268 0.09255480766296387
vt 0.19491496682167053 0.09129810333251953
vt 0.19689404964447021 0.09352099895477295
vt 0.19814077019691467 0.09640395641326904
vt 0.18961217999458313 0.09700822830200195
vt 0.18996722996234894 0.09325927495956421
vt 0.18961217999458313 0.09700822830200195
vt 0.18924680352210999 0.09676533937454224
vt 0.19541063904762268 0.09255480766296387
vt 0.1943032443523407 0.09183353185653687
vt 0.19491496682167053 0.09129810333251953
vt 0.18996722996234894 0.09325927495956421
vt 0.18924680352210999 0.09676533937454224
vt 0.18851740658283234 0.09628051519393921
vt 0.19541063904762268 0.09255480766296387
vt 0.19666388630867004 0.09543710947036743
vt 0.1943032443523407 0.09183353185653687
vt 0.18851740658283234 0.09628051519393921
vt 0.18815334141254425 0.09603846073150635
vt 0.18849630653858185 0.09229105710983276
vt 0.19666388630867004 0.09543710947036743
vt 0.19556131958961487 0.09471529722213745
vt 0.1943032443523407 0.09183353185653687
vt 0.197770893573761 0.0961618423461914
vt 0.20078015327453613 0.10311132669448853
vt 0.18924680352210999 0.09676533937454224
vt 0.18924680352210999 0.09676533937454224
vt 0.18963132798671722 0.10439085960388184
vt 0.18851740658283234 0.09628051519393921
vt 0.20078015327453613 0.10311132669448853
vt 0.18963132798671722 0.10439085960388184
vt 0.18924680352210999 0.09676533937454224
vt 0.18963132798671722 0.10439085960388184
vt 0.18891315162181854 0.1039048433303833
vt 0.18851740658283234 0.09628051519393921
vn 0.000025971668947022408 0.9999999403953552 0.000020130064513068646
vn 0.000025971668947022408 0.9999999403953552 0.000020130064513068646
vn 0.000025971668947022408 0.9999999403953552 0.000020130064513068646
vn 0 1 -0
vn 0 1 -0
vn 0 1 -0
vn 0.000017550581105751917 1 0.00002399009099463001
vn 0.000017550581105751917 1 0.00002399009099463001
vn 0.000017550581105751917 1 0.00002399009099463001
vn -0.1258275806903839 -0 -0.9920521378517151
vn -0.1258275806903839 -0 -0.9920521378517151
vn -0.1258275806903839 -0 -0.9920521378517151
vn -0.000011495346370793413 1 0.000020139128537266515
vn -0.000011495346370793413 1 0.000020139128537266515
vn -0.000011495346370793413 1 0.000020139128537266515
vn -0.6307767033576965 -0 -0.7759643793106079
vn -0.6307767033576965 -0 -0.7759643793106079
vn -0.6307767033576965 -0 -0.7759643793106079
vn 0.00002844908340193797 0.9999999403953552 -0.00004941863153362647
vn 0.00002844908340193797 0.9999999403953552 -0.00004941863153362647
vn 0.00002844908340193797 0.9999999403953552 -0.00004941863153362647
vn -0.12582635879516602 -0 -0.9920523166656494
vn -0.12582635879516602 -0 -0.9920523166656494
vn -0.12582635879516602 -0 -0.9920523166656494
vn 0 1 -0.000029250393708935007
vn 0 1 -0.000029250393708935007
vn 0 1 -0.000029250393708935007
vn -0.6307719349861145 0.000006071981715649599 -0.7759681940078735
vn -0.6307719349861145 0.000006071981715649599 -0.7759681940078735
vn -0.6307719349861145 0.000006071981715649599 -0.7759681940078735
vn -0.9536423683166504 -0.000004589376658259425 -0.3009423613548279
vn -0.9536423683166504 -0.000004589376658259425 -0.3009423613548279
vn -0.9536423683166504 -0.000004589376658259425 -0.3009423613548279
vn 0 1 -0
vn 0 1 -0
vn 0 1 -0
vn -0.9536482095718384 0.00000924853975448059 -0.3009236454963684
vn -0.9536482095718384 0.00000924853975448059 -0.3009236454963684
vn -0.9536482095718384 0.00000924853975448059 -0.3009236454963684
vn 0 1 -0
vn 0 1 0.000004888308012596099
vn 0 1 0.000004888308012596099
vn 0 1 0.000004888308012596099
vn 0 1 -0.00000016630225729841186
vn 0 1 -0.00000016630225729841186
vn 0 1 -0.00000016630225729841186
vn 0 1 0.00000021633216817917855
vn 0 1 0.00000021633216817917855
vn 0 1 0.00000021633216817917855
vn 0 -0 -1
vn 0 -0 -1
vn 0 -0 -1
vn -0.706846296787262 -0.0000025998331238952233 -0.7073671221733093
vn -0.706846296787262 -0.0000025998331238952233 -0.7073671221733093
vn -0.706846296787262 -0.0000025998331238952233 -0.7073671221733093
vn -1 -0.0000048026149670477025 0.000006052138814993668
vn -1 -0.0000048026149670477025 0.000006052138814993668
vn -1 -0.0000048026149670477025 0.000006052138814993668
vn 0.00000006947293940129384 -0 -1
vn 0.00000006947293940129384 -0 -1
vn 0.00000006947293940129384 -0 -1
vn -0.000028999174901400693 1 -0.00000005419675019879833
vn -0.000028999174901400693 1 -0.00000005419675019879833
vn -0.000028999174901400693 1 -0.00000005419675019879833
vn -0.7068488001823425 -0.000005199648512643762 -0.7073646783828735
vn -0.7068488001823425 -0.000005199648512643762 -0.7073646783828735
vn -0.7068488001823425 -0.000005199648512643762 -0.7073646783828735
vn 0.000002191910880355863 1 -0.0000036543779060593806
vn 0.000002191910880355863 1 -0.0000036543779060593806
vn 0.000002191910880355863 1 -0.0000036543779060593806
vn -0.12582765519618988 -0.0000012120835890527815 -0.9920520782470703
vn -0.12582765519618988 -0.0000012120835890527815 -0.9920520782470703
vn -0.12582765519618988 -0.0000012120835890527815 -0.9920520782470703
vn -0.9999999403953552 0.000004802704552275827 0.0000036312949305283837
vn -0.9999999403953552 0.000004802704552275827 0.0000036312949305283837
vn -0.9999999403953552 0.000004802704552275827 0.0000036312949305283837
vn -0.6307752728462219 0.000006181764092616504 -0.7759656310081482
vn -0.6307752728462219 0.000006181764092616504 -0.7759656310081482
vn -0.6307752728462219 0.000006181764092616504 -0.7759656310081482
vn -0.12582480907440186 0.0000012120559631512151 -0.9920524954795837
vn -0.12582480907440186 0.0000012120559631512151 -0.9920524954795837
vn -0.12582480907440186 0.0000012120559631512151 -0.9920524954795837
vn -0.630773663520813 0.000006075074452382978 -0.7759668827056885
vn -0.630773663520813 0.000006075074452382978 -0.7759668827056885
vn -0.630773663520813 0.000006075074452382978 -0.7759668827056885
vn -0.9950393438339233 -0.000007341471700783586 -0.099481962621212
vn -0.9950393438339233 -0.000007341471700783586 -0.099481962621212
vn -0.9950393438339233 -0.000007341471700783586 -0.099481962621212
vn -0.9536422491073608 0.000009253320058633108 -0.3009427785873413
vn -0.9536422491073608 0.000009253320058633108 -0.3009427785873413
vn -0.9536422491073608 0.000009253320058633108 -0.3009427785873413
vn 0.000008941727173805702 1 0.0000000005411674997013449
vn 0.000008941727173805702 1 0.0000000005411674997013449
vn 0.000008941727173805702 1 0.0000000005411674997013449
vn -0.9950395822525024 -0 -0.09948059171438217
vn -0.9950395822525024 -0 -0.09948059171438217
vn -0.9950395822525024 -0 -0.09948059171438217
vn -0.9536480903625488 -0.00000459172861155821 -0.3009238839149475
vn -0.9536480903625488 -0.00000459172861155821 -0.3009238839149475
vn -0.9536480903625488 -0.00000459172861155821 -0.3009238839149475
vn -0.9950395822525024 -0 -0.09948057681322098
vn -0.9950395822525024 -0 -0.09948057681322098
vn -0.9950395822525024 -0 -0.09948057681322098
vn -1 -0.00000480503513244912 0.000006052139269741019
vn -1 -0.00000480503513244912 0.000006052139269741019
vn -1 -0.00000480503513244912 0.000006052139269741019
vn -0.9950391054153442 0.000029365044611040503 -0.0994844138622284
vn -0.9950391054153442 0.000029365044611040503 -0.0994844138622284
vn -0.9950391054153442 0.000029365044611040503 -0.0994844138622284
vn -1 0.000004805125172424596 0.000003631295157902059
vn -1 0.000004805125172424596 0.000003631295157902059
vn -1 0.000004805125172424596 0.000003631295157902059
vn 0.000008941724445321597 1 -0.0000000011506814390216391
vn 0.000008941724445321597 1 -0.0000000011506814390216391
vn 0.000008941724445321597 1 -0.0000000011506814390216391
vn -0.9973612427711487 -0 -0.07259837538003922
vn -0.9973612427711487 -0 -0.07259837538003922
vn -0.9973612427711487 -0 -0.07259837538003922
vn -0.0004525455879047513 0.9999998807907104 0.00010139511141460389
vn -0.0004525455879047513 0.9999998807907104 0.00010139511141460389
vn -0.0004525455879047513 0.9999998807907104 0.00010139511141460389
vn -0.9973611831665039 0.0000069913171500957105 -0.07259883731603622
vn -0.9973611831665039 0.0000069913171500957105 -0.07259883731603622
vn -0.9973611831665039 0.0000069913171500957105 -0.07259883731603622
f 3/3/3 2/2/2 1/1/1
f 6/6/6 5/5/5 4/4/4
f 9/9/9 8/8/8 7/7/7
f 12/12/12 11/11/11 10/10/10
f 15/15/15 14/14/14 13/13/13
f 18/18/18 17/17/17 16/16/16
f 21/21/21 20/20/20 19/19/19
f 24/24/24 23/23/23 22/22/22
f 27/27/27 26/26/26 25/25/25
f 30/30/30 29/29/29 28/28/28
f 33/33/33 32/32/32 31/31/31
f 36/36/36 35/35/35 34/34/34
f 39/39/39 38/38/38 37/37/37
f 40/40/40 36/36/36 34/34/34
f 43/43/43 42/42/42 41/41/41
f 46/46/46 45/45/45 44/44/44
f 49/49/49 48/48/48 47/47/47
f 52/52/52 51/51/51 50/50/50
f 55/55/55 54/54/54 53/53/53
f 58/58/58 57/57/57 56/56/56
f 61/61/61 60/60/60 59/59/59
f 64/64/64 63/63/63 62/62/62
f 67/67/67 66/66/66 65/65/65
f 70/70/70 69/69/69 68/68/68
f 73/73/73 72/72/72 71/71/71
f 76/76/76 75/75/75 74/74/74
f 79/79/79 78/78/78 77/77/77
f 82/82/82 81/81/81 80/80/80
f 85/85/85 84/84/84 83/83/83
f 88/88/88 87/87/87 86/86/86
f 91/91/91 90/90/90 89/89/89
f 94/94/94 93/93/93 92/92/92
f 97/97/97 96/96/96 95/95/95
f 100/100/100 99/99/99 98/98/98
f 103/103/103 102/102/102 101/101/101
f 106/106/106 105/105/105 104/104/104
f 109/109/109 108/108/108 107/107/107
f 112/112/112 111/111/111 110/110/110
f 115/115/115 114/114/114 113/113/113
f 118/118/118 117/117/117 116/116/116
f 121/121/121 120/120/120 119/119/119
f 124/124/124 123/123/123 122/122/122
