# VPXTOOL table OBJ file
# VPXTOOL OBJ file
# numVerts: 96 numFaces: 96
o LM_inserts_L07_Parts
v -226.6983642578125 -454.2652587890625 -24.200593948364258
v -204.29827880859375 -464.3674011230469 -22.321245193481445
v -247.99737548828125 -442.19677734375 -21.60179328918457
v -226.6298065185547 -454.2989196777344 -19.001840591430664
v -247.99737548828125 -442.19677734375 -21.60179328918457
v -204.29827880859375 -464.3674011230469 -22.321245193481445
v -226.6983642578125 -454.2652587890625 -24.200593948364258
v -227.88876342773438 -456.57666015625 -25.276796340942383
v -206.0971221923828 -467.578369140625 -25.993696212768555
v -226.6983642578125 -454.2652587890625 -24.200593948364258
v -204.88690185546875 -465.2770080566406 -24.918161392211914
v -204.29827880859375 -464.3674011230469 -22.321245193481445
v -204.88690185546875 -465.2770080566406 -24.918161392211914
v -226.6983642578125 -454.2652587890625 -24.200593948364258
v -206.0971221923828 -467.578369140625 -25.993696212768555
v -227.88876342773438 -456.57666015625 -25.276796340942383
v -229.05079650878906 -458.9019775390625 -24.199600219726563
v -206.0971221923828 -467.578369140625 -25.993696212768555
v -204.29827880859375 -464.3674011230469 -22.321245193481445
v -204.67611694335938 -465.3824768066406 -19.724191665649414
v -226.6298065185547 -454.2989196777344 -19.001840591430664
v -229.05079650878906 -458.9019775390625 -24.199600219726563
v -207.22006225585938 -469.92340087890625 -24.917816162109375
v -206.0971221923828 -467.578369140625 -25.993696212768555
v -73.17567443847656 -529.809814453125 -31.612184524536133
v -204.29827880859375 -464.3674011230469 -22.321245193481445
v -204.88690185546875 -465.2770080566406 -24.918161392211914
v -204.88690185546875 -465.2770080566406 -24.918161392211914
v -206.0971221923828 -467.578369140625 -25.993696212768555
v -74.37997436523438 -531.8648071289063 -34.746273040771484
v -73.54164123535156 -530.8308715820313 -29.01579475402832
v -204.67611694335938 -465.3824768066406 -19.724191665649414
v -204.29827880859375 -464.3674011230469 -22.321245193481445
v -206.0971221923828 -467.578369140625 -25.993696212768555
v -207.22006225585938 -469.92340087890625 -24.917816162109375
v -76.10499572753906 -535.3619995117188 -34.20832824707031
v -73.469970703125 -530.2646484375 -32.91064453125
v -204.88690185546875 -465.2770080566406 -24.918161392211914
v -73.77484130859375 -530.714111328125 -34.2085075378418
v -73.17567443847656 -529.809814453125 -31.612184524536133
v -204.88690185546875 -465.2770080566406 -24.918161392211914
v -73.469970703125 -530.2646484375 -32.91064453125
v -74.37997436523438 -531.8648071289063 -34.746273040771484
v -73.77484130859375 -530.714111328125 -34.2085075378418
v -204.88690185546875 -465.2770080566406 -24.918161392211914
v -73.35269165039063 -530.3233032226563 -30.314327239990234
v -204.29827880859375 -464.3674011230469 -22.321245193481445
v -73.17567443847656 -529.809814453125 -31.612184524536133
v -204.29827880859375 -464.3674011230469 -22.321245193481445
v -73.35269165039063 -530.3233032226563 -30.314327239990234
v -73.54164123535156 -530.8308715820313 -29.01579475402832
v -74.37997436523438 -531.8648071289063 -34.746273040771484
v -206.0971221923828 -467.578369140625 -25.993696212768555
v -74.98816680908203 -533.013916015625 -35.28386306762695
v -74.98816680908203 -533.013916015625 -35.28386306762695
v -206.0971221923828 -467.578369140625 -25.993696212768555
v -75.54351806640625 -534.1895141601563 -34.746273040771484
v -75.54351806640625 -534.1895141601563 -34.746273040771484
v -206.0971221923828 -467.578369140625 -25.993696212768555
v -76.10499572753906 -535.3619995117188 -34.20832824707031
v -73.77484130859375 -530.714111328125 -34.2085075378418
v 57.94695281982422 -595.2522583007813 -40.90312576293945
v -73.469970703125 -530.2646484375 -32.91064453125
v -73.469970703125 -530.2646484375 -32.91064453125
v 57.94695281982422 -595.2522583007813 -40.90312576293945
v -73.17567443847656 -529.809814453125 -31.612184524536133
v -74.37997436523438 -531.8648071289063 -34.746273040771484
v 57.33721160888672 -596.1512451171875 -43.49885177612305
v -73.77484130859375 -530.714111328125 -34.2085075378418
v -73.35269165039063 -530.3233032226563 -30.314327239990234
v -73.17567443847656 -529.809814453125 -31.612184524536133
v 57.94695281982422 -595.2522583007813 -40.90312576293945
v -74.98816680908203 -533.013916015625 -35.28386306762695
v 56.12076950073242 -598.449462890625 -44.57403564453125
v -74.37997436523438 -531.8648071289063 -34.746273040771484
v -73.35269165039063 -530.3233032226563 -30.314327239990234
v 57.592857360839844 -596.2791748046875 -38.307403564453125
v -73.54164123535156 -530.8308715820313 -29.01579475402832
v 56.12076950073242 -598.449462890625 -44.57403564453125
v -74.98816680908203 -533.013916015625 -35.28386306762695
v -75.54351806640625 -534.1895141601563 -34.746273040771484
v -76.10499572753906 -535.3619995117188 -34.20832824707031
v 55.01006317138672 -600.8006591796875 -43.49884796142578
v -75.54351806640625 -534.1895141601563 -34.746273040771484
v -73.77484130859375 -530.714111328125 -34.2085075378418
v 57.33721160888672 -596.1512451171875 -43.49885177612305
v 57.94695281982422 -595.2522583007813 -40.90312576293945
v 56.12076950073242 -598.449462890625 -44.57403564453125
v 57.33721160888672 -596.1512451171875 -43.49885177612305
v -74.37997436523438 -531.8648071289063 -34.746273040771484
v 57.94695281982422 -595.2522583007813 -40.90312576293945
v 57.592857360839844 -596.2791748046875 -38.307403564453125
v -73.35269165039063 -530.3233032226563 -30.314327239990234
v -75.54351806640625 -534.1895141601563 -34.746273040771484
v 55.01006317138672 -600.8006591796875 -43.49884796142578
v 56.12076950073242 -598.449462890625 -44.57403564453125
vt 0.24862508475780487 0.35341572761535645
vt 0.24629253149032593 0.35002875328063965
vt 0.2537076771259308 0.35664045810699463
vt 0.2510521113872528 0.3533545136451721
vt 0.2537076771259308 0.35664045810699463
vt 0.24629253149032593 0.35002875328063965
vt 0.24862508475780487 0.35341572761535645
vt 0.24738310277462006 0.3535724878311157
vt 0.24355295300483704 0.35028839111328125
vt 0.24862508475780487 0.35341572761535645
vt 0.24478664994239807 0.35012781620025635
vt 0.24629253149032593 0.35002875328063965
vt 0.24478664994239807 0.35012781620025635
vt 0.24862508475780487 0.35341572761535645
vt 0.24355295300483704 0.35028839111328125
vt 0.24738310277462006 0.3535724878311157
vt 0.24714846909046173 0.3537036180496216
vt 0.24355295300483704 0.35028839111328125
vt 0.24629253149032593 0.35002875328063965
vt 0.24718636274337769 0.3500491976737976
vt 0.2510521113872528 0.3533545136451721
vt 0.24714846909046173 0.3537036180496216
vt 0.24331536889076233 0.35041606426239014
vt 0.24355295300483704 0.35028839111328125
vt 0.22154758870601654 0.3306729793548584
vt 0.24629253149032593 0.35002875328063965
vt 0.24478664994239807 0.35012781620025635
vt 0.24478664994239807 0.35012781620025635
vt 0.24355295300483704 0.35028839111328125
vt 0.2194547951221466 0.3308483958244324
vt 0.2224464863538742 0.33070749044418335
vt 0.24718636274337769 0.3500491976737976
vt 0.24629253149032593 0.35002875328063965
vt 0.24355295300483704 0.35028839111328125
vt 0.24331536889076233 0.35041606426239014
vt 0.2186380922794342 0.3310726284980774
vt 0.22080197930335999 0.33071863651275635
vt 0.24478664994239807 0.35012781620025635
vt 0.22005799412727356 0.3307657837867737
vt 0.22154758870601654 0.3306729793548584
vt 0.24478664994239807 0.35012781620025635
vt 0.22080197930335999 0.33071863651275635
vt 0.2194547951221466 0.3308483958244324
vt 0.22005799412727356 0.3307657837867737
vt 0.24478664994239807 0.35012781620025635
vt 0.22199615836143494 0.33068937063217163
vt 0.24629253149032593 0.35002875328063965
vt 0.22154758870601654 0.3306729793548584
vt 0.24629253149032593 0.35002875328063965
vt 0.22199615836143494 0.33068937063217163
vt 0.2224464863538742 0.33070749044418335
vt 0.2194547951221466 0.3308483958244324
vt 0.24355295300483704 0.35028839111328125
vt 0.21885237097740173 0.3309314250946045
vt 0.21885237097740173 0.3309314250946045
vt 0.24355295300483704 0.35028839111328125
vt 0.21874463558197021 0.3310015797615051
vt 0.21874463558197021 0.3310015797615051
vt 0.24355295300483704 0.35028839111328125
vt 0.2186380922794342 0.3310726284980774
vt 0.22005799412727356 0.3307657837867737
vt 0.19753310084342957 0.3118886351585388
vt 0.22080197930335999 0.33071863651275635
vt 0.22080197930335999 0.33071863651275635
vt 0.19753310084342957 0.3118886351585388
vt 0.22154758870601654 0.3306729793548584
vt 0.2194547951221466 0.3308483958244324
vt 0.19605956971645355 0.3119754195213318
vt 0.22005799412727356 0.3307657837867737
vt 0.22199615836143494 0.33068937063217163
vt 0.22154758870601654 0.3306729793548584
vt 0.19753310084342957 0.3118886351585388
vt 0.21885237097740173 0.3309314250946045
vt 0.19488084316253662 0.31214576959609985
vt 0.2194547951221466 0.3308483958244324
vt 0.22199615836143494 0.33068937063217163
vt 0.19843627512454987 0.31193631887435913
vt 0.2224464863538742 0.33070749044418335
vt 0.19488084316253662 0.31214576959609985
vt 0.21885237097740173 0.3309314250946045
vt 0.21874463558197021 0.3310015797615051
vt 0.2186380922794342 0.3310726284980774
vt 0.1946885883808136 0.31229960918426514
vt 0.21874463558197021 0.3310015797615051
vt 0.22005799412727356 0.3307657837867737
vt 0.19605956971645355 0.3119754195213318
vt 0.19753310084342957 0.3118886351585388
vt 0.19488084316253662 0.31214576959609985
vt 0.19605956971645355 0.3119754195213318
vt 0.2194547951221466 0.3308483958244324
vt 0.19753310084342957 0.3118886351585388
vt 0.19843627512454987 0.31193631887435913
vt 0.22199615836143494 0.33068937063217163
vt 0.21874463558197021 0.3310015797615051
vt 0.1946885883808136 0.31229960918426514
vt 0.19488084316253662 0.31214576959609985
vn 0.3983592987060547 0.799755334854126 -0.449111670255661
vn 0.3983592987060547 0.799755334854126 -0.449111670255661
vn 0.3983592987060547 0.799755334854126 -0.449111670255661
vn 0.42758437991142273 0.8312574625015259 0.35522210597991943
vn 0.42758437991142273 0.8312574625015259 0.35522210597991943
vn 0.42758437991142273 0.8312574625015259 0.35522210597991943
vn 0.14818158745765686 0.3536914587020874 -0.923550009727478
vn 0.14818158745765686 0.3536914587020874 -0.923550009727478
vn 0.14818158745765686 0.3536914587020874 -0.923550009727478
vn 0.4063068926334381 0.8297288417816162 -0.38270723819732666
vn 0.4063068926334381 0.8297288417816162 -0.38270723819732666
vn 0.4063068926334381 0.8297288417816162 -0.38270723819732666
vn 0.14818064868450165 0.3536885678768158 -0.9235512018203735
vn 0.14818064868450165 0.3536885678768158 -0.9235512018203735
vn 0.14818064868450165 0.3536885678768158 -0.9235512018203735
vn -0.1967199444770813 -0.3294796049594879 -0.9234415888786316
vn -0.1967199444770813 -0.3294796049594879 -0.9234415888786316
vn -0.1967199444770813 -0.3294796049594879 -0.9234415888786316
vn 0.42642009258270264 0.8197079300880432 0.38241955637931824
vn 0.42642009258270264 0.8197079300880432 0.38241955637931824
vn 0.42642009258270264 0.8197079300880432 0.38241955637931824
vn -0.19672052562236786 -0.3294776678085327 -0.9234421849250793
vn -0.19672052562236786 -0.3294776678085327 -0.9234421849250793
vn -0.19672052562236786 -0.3294776678085327 -0.9234421849250793
vn 0.39090296626091003 0.837447464466095 -0.38193777203559875
vn 0.39090296626091003 0.837447464466095 -0.38193777203559875
vn 0.39090296626091003 0.837447464466095 -0.38193777203559875
vn 0.11860086768865585 0.36853599548339844 -0.9220167994499207
vn 0.11860086768865585 0.36853599548339844 -0.9220167994499207
vn 0.11860086768865585 0.36853599548339844 -0.9220167994499207
vn 0.43421995639801025 0.8157815933227539 0.3820384442806244
vn 0.43421995639801025 0.8157815933227539 0.3820384442806244
vn 0.43421995639801025 0.8157815933227539 0.3820384442806244
vn -0.22314751148223877 -0.3161937892436981 -0.9220773577690125
vn -0.22314751148223877 -0.3161937892436981 -0.9220773577690125
vn -0.22314751148223877 -0.3161937892436981 -0.9220773577690125
vn 0.39091604948043823 0.8374712467193604 -0.38187259435653687
vn 0.39091604948043823 0.8374712467193604 -0.38187259435653687
vn 0.39091604948043823 0.8374712467193604 -0.38187259435653687
vn 0.390892893075943 0.8374279737472534 -0.3819907605648041
vn 0.390892893075943 0.8374279737472534 -0.3819907605648041
vn 0.390892893075943 0.8374279737472534 -0.3819907605648041
vn 0.11859627813100815 0.368522584438324 -0.9220227599143982
vn 0.11859627813100815 0.368522584438324 -0.9220227599143982
vn 0.11859627813100815 0.368522584438324 -0.9220227599143982
vn 0.43422064185142517 0.8157877326011658 0.3820245563983917
vn 0.43422064185142517 0.8157877326011658 0.3820245563983917
vn 0.43422064185142517 0.8157877326011658 0.3820245563983917
vn 0.43422096967697144 0.8157818913459778 0.3820367753505707
vn 0.43422096967697144 0.8157818913459778 0.3820367753505707
vn 0.43422096967697144 0.8157818913459778 0.3820367753505707
vn 0.11860956996679306 0.36854642629623413 -0.9220116138458252
vn 0.11860956996679306 0.36854642629623413 -0.9220116138458252
vn 0.11860956996679306 0.36854642629623413 -0.9220116138458252
vn -0.2231564223766327 -0.3162177503108978 -0.9220670461654663
vn -0.2231564223766327 -0.3162177503108978 -0.9220670461654663
vn -0.2231564223766327 -0.3162177503108978 -0.9220670461654663
vn -0.22315499186515808 -0.31620651483535767 -0.9220711588859558
vn -0.22315499186515808 -0.31620651483535767 -0.9220711588859558
vn -0.22315499186515808 -0.31620651483535767 -0.9220711588859558
vn 0.39091765880584717 0.8374705910682678 -0.3818722665309906
vn 0.39091765880584717 0.8374705910682678 -0.3818722665309906
vn 0.39091765880584717 0.8374705910682678 -0.3818722665309906
vn 0.39091160893440247 0.8374675512313843 -0.38188523054122925
vn 0.39091160893440247 0.8374675512313843 -0.38188523054122925
vn 0.39091160893440247 0.8374675512313843 -0.38188523054122925
vn 0.11860554665327072 0.3685550093650818 -0.9220086932182312
vn 0.11860554665327072 0.3685550093650818 -0.9220086932182312
vn 0.11860554665327072 0.3685550093650818 -0.9220086932182312
vn 0.4342305362224579 0.8158064484596252 0.381973534822464
vn 0.4342305362224579 0.8158064484596252 0.381973534822464
vn 0.4342305362224579 0.8158064484596252 0.381973534822464
vn 0.11861632019281387 0.3685677647590637 -0.9220021963119507
vn 0.11861632019281387 0.3685677647590637 -0.9220021963119507
vn 0.11861632019281387 0.3685677647590637 -0.9220021963119507
vn 0.4342195391654968 0.8157823085784912 0.3820372223854065
vn 0.4342195391654968 0.8157823085784912 0.3820372223854065
vn 0.4342195391654968 0.8157823085784912 0.3820372223854065
vn -0.22316919267177582 -0.3162353038787842 -0.9220579266548157
vn -0.22316919267177582 -0.3162353038787842 -0.9220579266548157
vn -0.22316919267177582 -0.3162353038787842 -0.9220579266548157
vn -0.223144069314003 -0.316188782453537 -0.9220799207687378
vn -0.223144069314003 -0.316188782453537 -0.9220799207687378
vn -0.223144069314003 -0.316188782453537 -0.9220799207687378
vn 0.3909167945384979 0.8374708890914917 -0.38187235593795776
vn 0.3909167945384979 0.8374708890914917 -0.38187235593795776
vn 0.3909167945384979 0.8374708890914917 -0.38187235593795776
vn 0.11861008405685425 0.3685475289821625 -0.9220110774040222
vn 0.11861008405685425 0.3685475289821625 -0.9220110774040222
vn 0.11861008405685425 0.3685475289821625 -0.9220110774040222
vn 0.43422552943229675 0.8157966732978821 0.3820001482963562
vn 0.43422552943229675 0.8157966732978821 0.3820001482963562
vn 0.43422552943229675 0.8157966732978821 0.3820001482963562
vn -0.22316980361938477 -0.3162391483783722 -0.9220563769340515
vn -0.22316980361938477 -0.3162391483783722 -0.9220563769340515
vn -0.22316980361938477 -0.3162391483783722 -0.9220563769340515
f 3/3/3 2/2/2 1/1/1
f 6/6/6 5/5/5 4/4/4
f 9/9/9 8/8/8 7/7/7
f 12/12/12 11/11/11 10/10/10
f 15/15/15 14/14/14 13/13/13
f 18/18/18 17/17/17 16/16/16
f 21/21/21 20/20/20 19/19/19
f 24/24/24 23/23/23 22/22/22
f 27/27/27 26/26/26 25/25/25
f 30/30/30 29/29/29 28/28/28
f 33/33/33 32/32/32 31/31/31
f 36/36/36 35/35/35 34/34/34
f 39/39/39 38/38/38 37/37/37
f 42/42/42 41/41/41 40/40/40
f 45/45/45 44/44/44 43/43/43
f 48/48/48 47/47/47 46/46/46
f 51/51/51 50/50/50 49/49/49
f 54/54/54 53/53/53 52/52/52
f 57/57/57 56/56/56 55/55/55
f 60/60/60 59/59/59 58/58/58
f 63/63/63 62/62/62 61/61/61
f 66/66/66 65/65/65 64/64/64
f 69/69/69 68/68/68 67/67/67
f 72/72/72 71/71/71 70/70/70
f 75/75/75 74/74/74 73/73/73
f 78/78/78 77/77/77 76/76/76
f 81/81/81 80/80/80 79/79/79
f 84/84/84 83/83/83 82/82/82
f 87/87/87 86/86/86 85/85/85
f 90/90/90 89/89/89 88/88/88
f 93/93/93 92/92/92 91/91/91
f 96/96/96 95/95/95 94/94/94
