# VPXTOOL table OBJ file
# VPXTOOL OBJ file
# numVerts: 42 numFaces: 54
o LM_Journey_L67_PF
v 233.51522827148438 1203.505615234375 0.030000003054738045
v 163.06243896484375 1317.53662109375 0.030000003054738045
v 123.47950744628906 1170.4234619140625 0.030000003054738045
v 163.06243896484375 1317.53662109375 0.030000003054738045
v 108.04457092285156 1300.99560546875 0.030000003054738045
v 123.47950744628906 1170.4234619140625 0.030000003054738045
v 218.08029174804688 1334.07763671875 0.030000003054738045
v 163.06243896484375 1317.53662109375 0.030000003054738045
v 233.51522827148438 1203.505615234375 0.030000003054738045
v 273.09814453125 1350.6187744140625 0.030000003054738045
v 218.08029174804688 1334.07763671875 0.030000003054738045
v 233.51522827148438 1203.505615234375 0.030000003054738045
v 92.60963439941406 1431.567626953125 0.030000003054738045
v 108.04457092285156 1300.99560546875 0.030000003054738045
v 77.5198745727539 1416.58642578125 0.030000003054738045
v 218.08029174804688 1334.07763671875 0.030000003054738045
v 202.64535522460938 1464.6497802734375 0.030000003054738045
v 273.09814453125 1350.6187744140625 0.030000003054738045
v 202.64535522460938 1464.6497802734375 0.030000003054738045
v 92.60963439941406 1431.567626953125 0.030000003054738045
v 163.06243896484375 1317.53662109375 0.030000003054738045
v 54.5400505065918 1539.6678466796875 0.030000003054738045
v 312.68109130859375 1497.7320556640625 0.030000003054738045
v 202.64535522460938 1464.6497802734375 0.030000003054738045
v 273.09814453125 1350.6187744140625 0.030000003054738045
v 62.08493423461914 1547.158447265625 0.030000003054738045
v 54.5400505065918 1539.6678466796875 0.030000003054738045
v 92.60963439941406 1431.567626953125 0.030000003054738045
v 132.1925506591797 1578.6807861328125 0.030000003054738045
v 77.17469787597656 1562.1396484375 0.030000003054738045
v 62.08493423461914 1547.158447265625 0.030000003054738045
v 132.1925506591797 1578.6807861328125 0.030000003054738045
v 77.17469787597656 1562.1396484375 0.030000003054738045
v 92.60963439941406 1431.567626953125 0.030000003054738045
v 312.68109130859375 1497.7320556640625 0.030000003054738045
v 242.22828674316406 1611.7630615234375 0.030000003054738045
v 187.21041870117188 1595.2218017578125 0.030000003054738045
v 132.1925506591797 1578.6807861328125 0.030000003054738045
v 202.64535522460938 1464.6497802734375 0.030000003054738045
v 242.22828674316406 1611.7630615234375 0.030000003054738045
v 187.21041870117188 1595.2218017578125 0.030000003054738045
v 202.64535522460938 1464.6497802734375 0.030000003054738045
vt 0.7416892051696777 0.657357931137085
vt 0.6359560489654541 0.6636900901794434
vt 0.6031073927879333 0.6555999517440796
vt 0.6359560489654541 0.6636900901794434
vt 0.5644471049308777 0.662744402885437
vt 0.6031073927879333 0.6555999517440796
vt 0.7081913352012634 0.6646454334259033
vt 0.6359560489654541 0.6636900901794434
vt 0.7416892051696777 0.657357931137085
vt 0.7811639308929443 0.6656105518341064
vt 0.7081913352012634 0.6646454334259033
vt 0.7416892051696777 0.657357931137085
vt 0.5225917100906372 0.6704792380332947
vt 0.5644471049308777 0.662744402885437
vt 0.504184365272522 0.6695594787597656
vt 0.7081913352012634 0.6646454334259033
vt 0.6718956828117371 0.6725415587425232
vt 0.7811639308929443 0.6656105518341064
vt 0.6718956828117371 0.6725415587425232
vt 0.5225917100906372 0.6704792380332947
vt 0.6359560489654541 0.6636900901794434
vt 0.44873830676078796 0.6773837804794312
vt 0.8243929147720337 0.6746479272842407
vt 0.6718956828117371 0.6725415587425232
vt 0.7811639308929443 0.6656105518341064
vt 0.4581550061702728 0.6778803467750549
vt 0.44873830676078796 0.6773837804794312
vt 0.5225917100906372 0.6704792380332947
vt 0.554356038570404 0.6799972057342529
vt 0.4771280586719513 0.6788809299468994
vt 0.4581550061702728 0.6778803467750549
vt 0.554356038570404 0.6799972057342529
vt 0.4771280586719513 0.6788809299468994
vt 0.5225917100906372 0.6704792380332947
vt 0.8243929147720337 0.6746479272842407
vt 0.7113842368125916 0.6822670698165894
vt 0.6324366927146912 0.6811258792877197
vt 0.554356038570404 0.6799972057342529
vt 0.6718956828117371 0.6725415587425232
vt 0.7113842368125916 0.6822670698165894
vt 0.6324366927146912 0.6811258792877197
vt 0.6718956828117371 0.6725415587425232
vn 0 -0 -1
vn 0 -0 -1
vn 0 -0 -1
vn 0.000000000013114288301141475 -0 -1
vn 0.000000000013114288301141475 -0 -1
vn 0.000000000013114288301141475 -0 -1
vn 0.000000000013114265749736287 -0 -1
vn 0.000000000013114265749736287 -0 -1
vn 0.000000000013114265749736287 -0 -1
vn -0.00000000003934286577078616 -0 -1
vn -0.00000000003934286577078616 -0 -1
vn -0.00000000003934286577078616 -0 -1
vn 0 -0 -1
vn 0 -0 -1
vn 0 -0 -1
vn 0 -0 -1
vn 0 -0 -1
vn 0 -0 -1
vn -0.000000000013114265749736287 -0 -1
vn -0.000000000013114265749736287 -0 -1
vn -0.000000000013114265749736287 -0 -1
vn 0 -0 -1
vn -0.0000000000131142431983311 -0 -1
vn -0.0000000000131142431983311 -0 -1
vn -0.0000000000131142431983311 -0 -1
vn 0.0000000002658827602530778 -0 -1
vn 0.0000000002658827602530778 -0 -1
vn 0.0000000002658827602530778 -0 -1
vn 0 -0 -1
vn 0 -0 -1
vn 0 -0 -1
vn -0.00000000003934286577078616 -0 -1
vn -0.00000000003934286577078616 -0 -1
vn -0.00000000003934286577078616 -0 -1
vn 0 -0 -1
vn 0 -0 -1
vn -0.00000000003934279638184712 -0 -1
vn -0.00000000003934279638184712 -0 -1
vn -0.00000000003934279638184712 -0 -1
vn 0.000000000013114265749736287 -0 -1
vn 0.000000000013114265749736287 -0 -1
vn 0.000000000013114265749736287 -0 -1
f 3/3/3 2/2/2 1/1/1
f 6/6/6 5/5/5 4/4/4
f 9/9/9 8/8/8 7/7/7
f 12/12/12 11/11/11 10/10/10
f 14/14/14 13/13/13 2/2/2
f 15/15/15 13/13/13 14/14/14
f 2/2/2 17/17/17 16/16/16
f 16/16/16 17/17/17 18/18/18
f 21/21/21 20/20/20 19/19/19
f 13/13/13 15/15/15 22/22/22
f 25/25/25 24/24/24 23/23/23
f 28/28/28 27/27/27 26/26/26
f 13/13/13 29/29/29 17/17/17
f 31/31/31 30/30/30 13/13/13
f 34/34/34 33/33/33 32/32/32
f 17/17/17 36/36/36 35/35/35
f 39/39/39 38/38/38 37/37/37
f 42/42/42 41/41/41 40/40/40
