# VPXTOOL table OBJ file
# VPXTOOL OBJ file
# numVerts: 44 numFaces: 156
o playfield_mesh
v 8.09103012084961 6.971024036407471 0.00039999998989515007
v 7.920857906341553 7.569056987762451 0.00039999998989515007
v 9.520000457763672 0 0.00039999998989515007
v 8.524344444274902 11.99742603302002 0.00039999998989515007
v 8.518891334533691 7.739227771759033 0.00039999998989515007
v 8.689062118530273 7.141194820404053 0.00039999998989515007
v 0 22.14999771118164 0.00039999998989515007
v 7.8956780433654785 11.99742603302002 0.00039999998989515007
v 6.797318935394287 6.963066101074219 0.00039999998989515007
v 5.419294834136963 6.6562628746032715 0.00039999998989515007
v 0 0 0.00039999998989515007
v 5.76253604888916 7.028700828552246 0.00039999998989515007
v 5.735292911529541 7.026537895202637 0.00039999998989515007
v 6.4393839836120605 8.570761680603027 0.00039999998989515007
v 6.062503814697266 8.287628173828125 0.00039999998989515007
v 6.090135097503662 8.28280258178711 0.00039999998989515007
v 9.520000457763672 22.14999771118164 0.00039999998989515007
v 8.524345397949219 13.329023361206055 0.00039999998989515007
v 7.8956780433654785 13.329023361206055 0.00039999998989515007
v 5.06135892868042 8.263958930969238 0.00039999998989515007
v 5.419276237487793 8.057124137878418 0.00039999998989515007
v 5.420645236968994 8.027379035949707 0.00039999998989515007
v 6.372407913208008 7.257998943328857 0.00039999998989515007
v 6.368503093719482 7.228279113769531 0.00039999998989515007
v 6.356433868408203 7.199866771697998 0.00039999998989515007
v 5.624421119689941 7.113645076751709 0.00039999998989515007
v 5.63618278503418 7.084394931793213 0.00039999998989515007
v 6.331888198852539 7.170456886291504 0.00039999998989515007
v 6.304923057556152 7.154566764831543 0.00039999998989515007
v 5.654269218444824 7.05890417098999 0.00039999998989515007
v 5.675786018371582 7.042150974273682 0.00039999998989515007
v 6.284731864929199 7.147867202758789 0.00039999998989515007
v 5.705080032348633 7.028483867645264 0.00039999998989515007
v 5.42362117767334 8.09257698059082 0.00039999998989515007
v 6.369569778442383 7.286839008331299 0.00039999998989515007
v 5.43638801574707 8.115948677062988 0.00039999998989515007
v 5.451150894165039 8.132832527160645 0.00039999998989515007
v 6.168320178985596 8.199296951293945 0.00039999998989515007
v 6.156778812408447 8.224345207214355 0.00039999998989515007
v 5.478271007537842 8.152083396911621 0.00039999998989515007
v 5.507111072540283 8.163601875305176 0.00039999998989515007
v 6.143970966339111 8.247245788574219 0.00039999998989515007
v 6.117901802062988 8.270768165588379 0.00039999998989515007
v 6.029061794281006 8.283753395080566 0.00039999998989515007
vt 0.685280978679657 0.8498979806900024
vt 0.6582819819450378 0.832023024559021
vt 1 1
vt 0.45835500955581665 0.9132339954376221
vt 0.6505990028381348 0.8948420286178589
vt 0.6775979995727539 0.9127169847488403
vt 0 1
vt 0.45835500955581665 0.8850799798965454
vt 0.6856399774551392 0.730800986289978
vt 0.6994919776916504 0.6240170001983643
vt 1 0
vt 0.6826769709587097 0.6603429913520813
vt 0.6827750205993652 0.6583920121192932
vt 0.6130579710006714 0.7497149705886841
vt 0.6258410215377808 0.718114972114563
vt 0.6260589957237244 0.7198219895362854
vt 0 1
vt 0.39823800325393677 0.9208070039749146
vt 0.39823800325393677 0.8962410092353821
vt 0.6269090175628662 0.6524339914321899
vt 0.6362469792366028 0.6693329811096191
vt 0.6375899910926819 0.6685420274734497
vt 0.6723250150680542 0.710328996181488
vt 0.6736670136451721 0.7091139554977417
vt 0.6749500036239624 0.7073580026626587
vt 0.6788420081138611 0.6536630392074585
vt 0.6801630258560181 0.653499960899353
vt 0.6762769818305969 0.7046859860420227
vt 0.6769949793815613 0.7022750377655029
vt 0.6813139915466309 0.6538950204849243
vt 0.6820700168609619 0.6548160314559937
vt 0.6772969961166382 0.7006379961967468
vt 0.682686984539032 0.656374990940094
vt 0.634647011756897 0.670661985874176
vt 0.6710230112075806 0.7110339999198914
vt 0.6335920095443726 0.6721810102462769
vt 0.6328290104866028 0.6736370325088501
vt 0.6298289895057678 0.7228890061378479
vt 0.6286979913711548 0.7227590084075928
vt 0.6319599747657776 0.6759650111198425
vt 0.6314399838447571 0.6781799793243408
vt 0.6276640295982361 0.7224900126457214
vt 0.6266019940376282 0.721356987953186
vt 0.6260160207748413 0.7158010005950928
vn -0 -0 -1
vn -0 -0 -1
vn -0 -0 -1
vn -0 -0 -1
vn -0 -0 -1
vn -0 -0 -1
vn -0 -0 -1
vn -0 -0 -1
vn -0 -0 -1
vn -0 -0 -1
vn -0 -0 -1
vn -0 -0 -1
vn -0 -0 -1
vn -0 -0 -1
vn -0 -0 -1
vn -0 -0 -1
vn -0 -0 -1
vn -0 -0 -1
vn -0 -0 -1
vn -0 -0 -1
vn -0 -0 -1
vn -0 -0 -1
vn -0 -0 -1
vn -0 -0 -1
vn -0 -0 -1
vn -0 -0 -1
vn -0 -0 -1
vn -0 -0 -1
vn -0 -0 -1
vn -0 -0 -1
vn -0 -0 -1
vn -0 -0 -1
vn -0 -0 -1
vn -0 -0 -1
vn -0 -0 -1
vn -0 -0 -1
vn -0 -0 -1
vn -0 -0 -1
vn -0 -0 -1
vn -0 -0 -1
vn -0 -0 -1
vn -0 -0 -1
vn -0 -0 -1
vn -0 -0 -1
f 25/25/25 24/24/24 9/9/9
f 28/28/28 25/25/25 9/9/9
f 24/24/24 23/23/23 9/9/9
f 29/29/29 28/28/28 9/9/9
f 14/14/14 9/9/9 23/23/23
f 14/14/14 23/23/23 35/35/35
f 14/14/14 35/35/35 38/38/38
f 14/14/14 38/38/38 39/39/39
f 14/14/14 39/39/39 42/42/42
f 14/14/14 42/42/42 43/43/43
f 14/14/14 43/43/43 16/16/16
f 16/16/16 15/15/15 14/14/14
f 15/15/15 44/44/44 14/14/14
f 44/44/44 41/41/41 14/14/14
f 41/41/41 20/20/20 14/14/14
f 41/41/41 40/40/40 20/20/20
f 40/40/40 37/37/37 20/20/20
f 37/37/37 36/36/36 20/20/20
f 36/36/36 34/34/34 20/20/20
f 34/34/34 21/21/21 20/20/20
f 14/14/14 20/20/20 7/7/7
f 10/10/10 20/20/20 21/21/21
f 10/10/10 21/21/21 22/22/22
f 10/10/10 22/22/22 26/26/26
f 10/10/10 26/26/26 27/27/27
f 10/10/10 27/27/27 30/30/30
f 10/10/10 30/30/30 31/31/31
f 10/10/10 31/31/31 33/33/33
f 10/10/10 33/33/33 13/13/13
f 10/10/10 13/13/13 12/12/12
f 12/12/12 32/32/32 10/10/10
f 32/32/32 29/29/29 10/10/10
f 29/29/29 9/9/9 10/10/10
f 11/11/11 20/20/20 10/10/10
f 11/11/11 10/10/10 9/9/9
f 20/20/20 11/11/11 7/7/7
f 9/9/9 2/2/2 11/11/11
f 2/2/2 9/9/9 14/14/14
f 2/2/2 14/14/14 7/7/7
f 3/3/3 11/11/11 2/2/2
f 3/3/3 2/2/2 1/1/1
f 1/1/1 6/6/6 3/3/3
f 6/6/6 17/17/17 3/3/3
f 8/8/8 2/2/2 7/7/7
f 18/18/18 17/17/17 6/6/6
f 7/7/7 17/17/17 18/18/18
f 7/7/7 19/19/19 8/8/8
f 7/7/7 18/18/18 19/19/19
f 8/8/8 4/4/4 2/2/2
f 4/4/4 18/18/18 6/6/6
f 5/5/5 2/2/2 4/4/4
f 6/6/6 5/5/5 4/4/4
