# VPXTOOL table OBJ file
# VPXTOOL OBJ file
# numVerts: 64 numFaces: 78
o LM_Journey_L73_PF
v 233.51522827148438 1203.505615234375 0.030000003054738045
v 343.087158203125 1236.0811767578125 0.030000003054738045
v 343.55096435546875 1236.587890625 0.030000003054738045
v 343.55096435546875 1236.587890625 0.030000003054738045
v 343.087158203125 1236.0811767578125 0.030000003054738045
v 452.8909606933594 1268.909912109375 0.030000003054738045
v 343.55096435546875 1236.587890625 0.030000003054738045
v 273.09814453125 1350.6187744140625 0.030000003054738045
v 233.51522827148438 1203.505615234375 0.030000003054738045
v 453.12286376953125 1269.163330078125 0.030000003054738045
v 343.55096435546875 1236.587890625 0.030000003054738045
v 452.8909606933594 1268.909912109375 0.030000003054738045
v 453.586669921875 1269.6700439453125 0.030000003054738045
v 453.586669921875 1269.6700439453125 0.030000003054738045
v 453.12286376953125 1269.163330078125 0.030000003054738045
v 562.6947631835938 1301.73876953125 0.030000003054738045
v 562.6947631835938 1301.73876953125 0.030000003054738045
v 563.6223754882813 1302.752197265625 0.030000003054738045
v 453.586669921875 1269.6700439453125 0.030000003054738045
v 453.586669921875 1269.6700439453125 0.030000003054738045
v 383.1338806152344 1383.700927734375 0.030000003054738045
v 343.55096435546875 1236.587890625 0.030000003054738045
v 328.11602783203125 1367.1597900390625 0.030000003054738045
v 273.09814453125 1350.6187744140625 0.030000003054738045
v 343.55096435546875 1236.587890625 0.030000003054738045
v 383.1338806152344 1383.700927734375 0.030000003054738045
v 563.6223754882813 1302.752197265625 0.030000003054738045
v 493.16961669921875 1416.783203125 0.030000003054738045
v 438.1517333984375 1400.2421875 0.030000003054738045
v 383.1338806152344 1383.700927734375 0.030000003054738045
v 453.586669921875 1269.6700439453125 0.030000003054738045
v 493.16961669921875 1416.783203125 0.030000003054738045
v 438.1517333984375 1400.2421875 0.030000003054738045
v 453.586669921875 1269.6700439453125 0.030000003054738045
v 328.11602783203125 1367.1597900390625 0.030000003054738045
v 312.68109130859375 1497.7320556640625 0.030000003054738045
v 273.09814453125 1350.6187744140625 0.030000003054738045
v 383.1338806152344 1383.700927734375 0.030000003054738045
v 312.68109130859375 1497.7320556640625 0.030000003054738045
v 202.64535522460938 1464.6497802734375 0.030000003054738045
v 273.09814453125 1350.6187744140625 0.030000003054738045
v 438.1517333984375 1400.2421875 0.030000003054738045
v 422.716796875 1530.8140869140625 0.030000003054738045
v 493.4800720214844 1416.9947509765625 0.030000003054738045
v 422.716796875 1530.8140869140625 0.030000003054738045
v 493.16961669921875 1416.783203125 0.030000003054738045
v 422.716796875 1530.8140869140625 0.030000003054738045
v 312.68109130859375 1497.7320556640625 0.030000003054738045
v 383.1338806152344 1383.700927734375 0.030000003054738045
v 493.4800720214844 1416.9947509765625 0.030000003054738045
v 423.3377990722656 1531.2371826171875 0.030000003054738045
v 422.716796875 1530.8140869140625 0.030000003054738045
v 242.22828674316406 1611.7630615234375 0.030000003054738045
v 202.64535522460938 1464.6497802734375 0.030000003054738045
v 352.2640075683594 1644.8450927734375 0.030000003054738045
v 352.2640075683594 1644.8450927734375 0.030000003054738045
v 422.716796875 1530.8140869140625 0.030000003054738045
v 423.3377990722656 1531.2371826171875 0.030000003054738045
v 297.2461242675781 1628.30419921875 0.030000003054738045
v 242.22828674316406 1611.7630615234375 0.030000003054738045
v 312.68109130859375 1497.7320556640625 0.030000003054738045
v 352.2640075683594 1644.8450927734375 0.030000003054738045
v 297.2461242675781 1628.30419921875 0.030000003054738045
v 312.68109130859375 1497.7320556640625 0.030000003054738045
vt 0.23647752404212952 0.17642277479171753
vt 0.264717698097229 0.1676269769668579
vt 0.26516127586364746 0.16759055852890015
vt 0.26516127586364746 0.16759055852890015
vt 0.264717698097229 0.1676269769668579
vt 0.293737530708313 0.15863966941833496
vt 0.26516127586364746 0.16759055852890015
vt 0.3685186505317688 0.17395555973052979
vt 0.23647752404212952 0.17642277479171753
vt 0.2939636707305908 0.15862059593200684
vt 0.26516127586364746 0.16759055852890015
vt 0.293737530708313 0.15863966941833496
vt 0.2944161593914032 0.15858244895935059
vt 0.2944161593914032 0.15858244895935059
vt 0.2939636707305908 0.15862059593200684
vt 0.32333648204803467 0.14947295188903809
vt 0.32333648204803467 0.14947295188903809
vt 0.3242596387863159 0.14939314126968384
vt 0.2944161593914032 0.15858244895935059
vt 0.2944161593914032 0.15858244895935059
vt 0.39987948536872864 0.16469287872314453
vt 0.26516127586364746 0.16759055852890015
vt 0.38411858677864075 0.16934800148010254
vt 0.3685186505317688 0.17395555973052979
vt 0.26516127586364746 0.16759055852890015
vt 0.39987948536872864 0.16469287872314453
vt 0.3242596387863159 0.14939314126968384
vt 0.4318939745426178 0.1552371382713318
vt 0.4158037304878235 0.15998953580856323
vt 0.39987948536872864 0.16469287872314453
vt 0.2944161593914032 0.15858244895935059
vt 0.4318939745426178 0.1552371382713318
vt 0.4158037304878235 0.15998953580856323
vt 0.2944161593914032 0.15858244895935059
vt 0.38411858677864075 0.16934800148010254
vt 0.5131174325942993 0.1712537407875061
vt 0.3685186505317688 0.17395555973052979
vt 0.39987948536872864 0.16469287872314453
vt 0.5131174325942993 0.1712537407875061
vt 0.4794149100780487 0.18078482151031494
vt 0.3685186505317688 0.17395555973052979
vt 0.4158037304878235 0.15998953580856323
vt 0.5475485920906067 0.16151666641235352
vt 0.432100772857666 0.15521013736724854
vt 0.5475485920906067 0.16151666641235352
vt 0.4318939745426178 0.1552371382713318
vt 0.5475485920906067 0.16151666641235352
vt 0.5131174325942993 0.1712537407875061
vt 0.39987948536872864 0.16469287872314453
vt 0.432100772857666 0.15521013736724854
vt 0.5479937791824341 0.1614614725112915
vt 0.5475485920906067 0.16151666641235352
vt 0.6350226998329163 0.17831683158874512
vt 0.4794149100780487 0.18078482151031494
vt 0.67215496301651 0.168282151222229
vt 0.67215496301651 0.168282151222229
vt 0.5475485920906067 0.16151666641235352
vt 0.5479937791824341 0.1614614725112915
vt 0.6534852981567383 0.1733275055885315
vt 0.6350226998329163 0.17831683158874512
vt 0.5131174325942993 0.1712537407875061
vt 0.67215496301651 0.168282151222229
vt 0.6534852981567383 0.1733275055885315
vt 0.5131174325942993 0.1712537407875061
vn 0 -0 -0.9999999403953552
vn 0 -0 -0.9999999403953552
vn 0 -0 -0.9999999403953552
vn 0.00000000030192257027827907 -0 -1
vn 0.00000000030192257027827907 -0 -1
vn 0.00000000030192257027827907 -0 -1
vn 0.00000000005245706299894515 -0 -1
vn 0.00000000005245706299894515 -0 -1
vn 0.00000000005245706299894515 -0 -1
vn 0 -0 -1
vn 0 -0 -1
vn 0 -0 -1
vn 0 -0 -1
vn 0.0000000005277197012709678 -0 -1
vn 0.0000000005277197012709678 -0 -1
vn 0.0000000005277197012709678 -0 -1
vn -0.0000000004526968799822839 -0 -1
vn -0.0000000004526968799822839 -0 -1
vn -0.0000000004526968799822839 -0 -1
vn 0.00000000005245701789613477 -0 -1
vn 0.00000000005245701789613477 -0 -1
vn 0.00000000005245701789613477 -0 -1
vn -0.00000000003934286577078616 -0 -1
vn -0.00000000003934286577078616 -0 -1
vn -0.00000000003934286577078616 -0 -1
vn -0.00000000003934286577078616 -0 -1
vn 0 -0 -1
vn 0 -0 -1
vn -0.00000000009180001897535206 -0 -1
vn -0.00000000009180001897535206 -0 -1
vn -0.00000000009180001897535206 -0 -1
vn 0.00000000006557132614659622 -0 -1
vn 0.00000000006557132614659622 -0 -1
vn 0.00000000006557132614659622 -0 -1
vn 0 -0 -1
vn 0 -0 -1
vn 0 -0 -1
vn 0 -0 -1
vn -0.0000000000131142431983311 -0 -1
vn -0.0000000000131142431983311 -0 -1
vn -0.0000000000131142431983311 -0 -1
vn 0 -0 -1
vn 0 -0 -1
vn -0.0000000155147823477364 -0 -0.9999999403953552
vn -0.0000000155147823477364 -0 -0.9999999403953552
vn -0.0000000155147823477364 -0 -0.9999999403953552
vn -0.000000000013114265749736287 -0 -1
vn -0.000000000013114265749736287 -0 -1
vn -0.000000000013114265749736287 -0 -1
vn 0.0000000077573911738682 -0 -0.9999999403953552
vn 0.0000000077573911738682 -0 -0.9999999403953552
vn 0.0000000077573911738682 -0 -0.9999999403953552
vn 0 -0 -1
vn 0 -0 -1
vn 0 -0 -1
vn 0 -0 -0.9999999403953552
vn 0 -0 -0.9999999403953552
vn 0 -0 -0.9999999403953552
vn -0.00000000003934286577078616 -0 -1
vn -0.00000000003934286577078616 -0 -1
vn -0.00000000003934286577078616 -0 -1
vn 0.0000000000131142431983311 -0 -1
vn 0.0000000000131142431983311 -0 -1
vn 0.0000000000131142431983311 -0 -1
f 3/3/3 2/2/2 1/1/1
f 6/6/6 5/5/5 4/4/4
f 9/9/9 8/8/8 7/7/7
f 12/12/12 11/11/11 10/10/10
f 10/10/10 11/11/11 13/13/13
f 16/16/16 15/15/15 14/14/14
f 19/19/19 18/18/18 17/17/17
f 22/22/22 21/21/21 20/20/20
f 25/25/25 24/24/24 23/23/23
f 25/25/25 23/23/23 26/26/26
f 13/13/13 28/28/28 27/27/27
f 31/31/31 30/30/30 29/29/29
f 34/34/34 33/33/33 32/32/32
f 37/37/37 36/36/36 35/35/35
f 35/35/35 36/36/36 38/38/38
f 41/41/41 40/40/40 39/39/39
f 38/38/38 43/43/43 42/42/42
f 42/42/42 43/43/43 28/28/28
f 46/46/46 45/45/45 44/44/44
f 49/49/49 48/48/48 47/47/47
f 52/52/52 51/51/51 50/50/50
f 54/54/54 53/53/53 36/36/36
f 36/36/36 55/55/55 43/43/43
f 58/58/58 57/57/57 56/56/56
f 61/61/61 60/60/60 59/59/59
f 64/64/64 63/63/63 62/62/62
