# VPXTOOL table OBJ file
# VPXTOOL OBJ file
# numVerts: 154 numFaces: 168
o LM_inserts_L3_sw05
v 13.599907875061035 7.999942779541016 -52.39198684692383
v 16.799951553344727 7.999998092651367 -55.591983795166016
v 16.799951553344727 7.999998092651367 -52.39198684692383
v 13.599907875061035 7.999942779541016 -52.39198684692383
v -16.80006217956543 7.999998092651367 -55.591983795166016
v 16.799951553344727 7.999998092651367 -55.591983795166016
v 13.599907875061035 7.999942779541016 -52.39198684692383
v 16.799951553344727 7.999998092651367 -52.39198684692383
v 16.799896240234375 4.799954414367676 -47.59198760986328
v 13.599907875061035 7.999942779541016 -52.39198684692383
v -13.600018501281738 7.999998092651367 -52.39198684692383
v -16.80006217956543 7.999998092651367 -55.591983795166016
v 13.599907875061035 7.999942779541016 -52.39198684692383
v 13.599907875061035 4.799954414367676 -52.39198684692383
v -13.600018501281738 7.999998092651367 -52.39198684692383
v 13.599907875061035 4.799954414367676 -52.39198684692383
v 13.599907875061035 7.999942779541016 -52.39198684692383
v 13.599907875061035 4.799954414367676 -47.59198760986328
v 13.599907875061035 4.799954414367676 -47.59198760986328
v 13.599907875061035 7.999942779541016 -52.39198684692383
v 16.799896240234375 4.799954414367676 -47.59198760986328
v -13.600018501281738 7.999998092651367 -52.39198684692383
v -16.80006217956543 7.999998092651367 -52.39198684692383
v -16.80006217956543 7.999998092651367 -55.591983795166016
v 16.799896240234375 -6.3999762535095215 -50.791988372802734
v 16.799951553344727 7.999998092651367 -52.39198684692383
v 16.799951553344727 7.999998092651367 -55.591983795166016
v -13.60007381439209 4.799954414367676 -52.39198684692383
v -13.60007381439209 4.799954414367676 -52.39198684692383
v 13.599907875061035 4.799954414367676 -52.39198684692383
v 13.599907875061035 4.799954414367676 -47.59198760986328
v -16.80006217956543 7.999998092651367 -52.39198684692383
v -13.600018501281738 7.999998092651367 -52.39198684692383
v -13.60007381439209 4.799954414367676 -47.59198760986328
v 16.799951553344727 7.999998092651367 -55.591983795166016
v -16.80006217956543 7.999998092651367 -55.591983795166016
v -16.799951553344727 -8.000053405761719 -55.591983795166016
v 16.799896240234375 -6.3999762535095215 -50.791988372802734
v 16.799896240234375 4.799954414367676 -47.59198760986328
v 16.799951553344727 7.999998092651367 -52.39198684692383
v -13.60007381439209 4.799954414367676 -52.39198684692383
v -13.60007381439209 4.799954414367676 -47.59198760986328
v -13.600018501281738 7.999998092651367 -52.39198684692383
v -13.60007381439209 4.799954414367676 -47.59198760986328
v -16.799951553344727 4.799954414367676 -47.59198760986328
v -16.80006217956543 7.999998092651367 -52.39198684692383
v -13.60007381439209 4.799954414367676 -47.59198760986328
v 16.799896240234375 -6.3999762535095215 -50.791988372802734
v 16.799951553344727 7.999998092651367 -55.591983795166016
v 16.800006866455078 -8.000053405761719 -55.591983795166016
v -16.80006217956543 -6.400086879730225 -50.791988372802734
v -16.80006217956543 7.999998092651367 -55.591983795166016
v -16.80006217956543 7.999998092651367 -52.39198684692383
v 16.800006866455078 -8.000053405761719 -55.591983795166016
v 16.799951553344727 7.999998092651367 -55.591983795166016
v -16.799951553344727 -8.000053405761719 -55.591983795166016
v -16.80006217956543 -6.400086879730225 -50.791988372802734
v -16.80006217956543 7.999998092651367 -52.39198684692383
v -16.799951553344727 4.799954414367676 -47.59198760986328
v 16.799896240234375 4.799954414367676 -47.59198760986328
v 16.799896240234375 4.799954414367676 -4.391999244689941
v -16.80006217956543 -6.400086879730225 -50.791988372802734
v -16.799951553344727 -8.000053405761719 -55.591983795166016
v -16.80006217956543 7.999998092651367 -55.591983795166016
v 13.599907875061035 4.799954414367676 -47.59198760986328
v 16.799896240234375 4.799954414367676 -4.391999244689941
v -13.60007381439209 4.799954414367676 -47.59198760986328
v 16.800006866455078 -8.000053405761719 -55.591983795166016
v 16.800006866455078 -8.000053405761719 -52.39198684692383
v 16.799896240234375 -6.3999762535095215 -50.791988372802734
v 16.799896240234375 -6.3999762535095215 -50.791988372802734
v 16.799896240234375 4.799954414367676 -4.391999244689941
v 16.799896240234375 4.799954414367676 -47.59198760986328
v 16.800006866455078 -8.000053405761719 -52.39198684692383
v 16.800006866455078 -8.000053405761719 -55.591983795166016
v -16.799951553344727 -8.000053405761719 -52.39198684692383
v 16.799896240234375 -6.3999762535095215 -50.791988372802734
v 16.800006866455078 -8.000053405761719 -52.39198684692383
v -16.80006217956543 -6.400086879730225 -50.791988372802734
v -16.799951553344727 -8.000053405761719 -55.591983795166016
v -16.799951553344727 4.799954414367676 -4.391999244689941
v -16.799951553344727 4.799954414367676 -47.59198760986328
v 16.800006866455078 -8.000053405761719 -52.39198684692383
v -16.799951553344727 -8.000053405761719 -52.39198684692383
v -16.80006217956543 -6.400086879730225 -50.791988372802734
v -16.80006217956543 -6.400086879730225 -50.791988372802734
v -16.799951553344727 -8.000053405761719 -52.39198684692383
v -16.799951553344727 -8.000053405761719 -55.591983795166016
v -16.80006217956543 -6.400086879730225 -50.791988372802734
v -16.799951553344727 4.799954414367676 -47.59198760986328
v -16.799951553344727 4.799954414367676 -4.391999244689941
v 16.799896240234375 4.799954414367676 -4.391999244689941
v -16.799951553344727 4.799954414367676 -4.391999244689941
v -13.60007381439209 4.799954414367676 -47.59198760986328
v 16.799896240234375 -6.3999762535095215 -50.791988372802734
v 16.799951553344727 -1.6000217199325562 3.607999086380005
v 16.799896240234375 4.799954414367676 -4.391999244689941
v -16.80006217956543 -6.400086879730225 -50.791988372802734
v -16.799951553344727 4.799954414367676 -4.391999244689941
v -16.80006217956543 -1.6000217199325562 3.607999086380005
v 16.799896240234375 4.799954414367676 -4.391999244689941
v 16.799951553344727 -1.6000217199325562 3.607999086380005
v -16.799951553344727 4.799954414367676 -4.391999244689941
v 16.799896240234375 -6.3999762535095215 -50.791988372802734
v -16.80006217956543 -6.400086879730225 -50.791988372802734
v -16.80006217956543 -6.400086879730225 52.26681900024414
v 16.799951553344727 -1.6000217199325562 3.607999086380005
v -16.80006217956543 -1.6000217199325562 3.607999086380005
v -16.799951553344727 4.799954414367676 -4.391999244689941
v 3.1999881267547607 3.9425201416015625 -4.391999244689941
v 3.1999881267547607 3.9425201416015625 50.66682434082031
v -0.00005521504863281734 4.799954414367676 -4.391999244689941
v 16.799951553344727 -1.6000217199325562 3.607999086380005
v 16.799896240234375 -6.3999762535095215 -50.791988372802734
v 16.799896240234375 -6.3999762535095215 52.26681900024414
v -0.00005521504863281734 4.799954414367676 -4.391999244689941
v -0.00005521504863281734 4.799954414367676 50.66682434082031
v -3.2000985145568848 3.9425201416015625 -4.391999244689941
v 5.542486667633057 1.6000217199325562 -4.391999244689941
v 5.542486667633057 1.6000217199325562 50.66682434082031
v 3.1999881267547607 3.9425201416015625 -4.391999244689941
v -3.2000985145568848 3.9425201416015625 -4.391999244689941
v -3.2000985145568848 3.9425201416015625 50.66682434082031
v -5.542707443237305 1.5999664068222046 -4.391999244689941
v -16.80006217956543 -1.6000217199325562 3.607999086380005
v -16.80006217956543 -6.400086879730225 52.26681900024414
v -16.80006217956543 -6.400086879730225 -50.791988372802734
v -16.80006217956543 -1.6000217199325562 3.607999086380005
v 16.799951553344727 -1.6000217199325562 3.607999086380005
v 16.799951553344727 -1.6000217199325562 52.26681900024414
v 3.1999881267547607 3.9425201416015625 50.66682434082031
v -0.00005521504863281734 4.799954414367676 50.66682434082031
v -0.00005521504863281734 4.799954414367676 -4.391999244689941
v -0.00005521504863281734 4.799954414367676 50.66682434082031
v -3.2000985145568848 3.9425201416015625 50.66682434082031
v -3.2000985145568848 3.9425201416015625 -4.391999244689941
v 3.1999881267547607 3.9425201416015625 50.66682434082031
v 16.799896240234375 -6.3999762535095215 52.26681900024414
v -3.2000985145568848 3.9425201416015625 50.66682434082031
v -5.542707443237305 1.5999664068222046 50.66682434082031
v -5.542707443237305 1.5999664068222046 -4.391999244689941
v 5.542486667633057 1.6000217199325562 50.66682434082031
v 5.542486667633057 1.6000217199325562 -4.391999244689941
v 6.3999762535095215 -1.6000217199325562 50.66682434082031
v -5.542707443237305 1.5999664068222046 -4.391999244689941
v -5.542707443237305 1.5999664068222046 50.66682434082031
v -6.400031566619873 -1.6000217199325562 50.66682434082031
v 16.799951553344727 -1.6000217199325562 3.607999086380005
v 16.799896240234375 -6.3999762535095215 52.26681900024414
v 16.799951553344727 -1.6000217199325562 52.26681900024414
v -16.80006217956543 -1.6000217199325562 52.26681900024414
v -16.80006217956543 -1.6000217199325562 3.607999086380005
v -16.80006217956543 -1.6000217199325562 52.26681900024414
v -16.80006217956543 -6.400086879730225 52.26681900024414
vt 0.07735110074281693 0.41058671474456787
vt 0.07824011147022247 0.4102463722229004
vt 0.07840614765882492 0.41044414043426514
vt 0.07735110074281693 0.41058671474456787
vt 0.06706305593252182 0.4117553234100342
vt 0.07824011147022247 0.4102463722229004
vt 0.07735110074281693 0.41058671474456787
vt 0.07840614765882492 0.41044414043426514
vt 0.07677647471427917 0.41067665815353394
vt 0.07735110074281693 0.41058671474456787
vt 0.06831125169992447 0.41180872917175293
vt 0.06706305593252182 0.4117553234100342
vt 0.07735110074281693 0.41058671474456787
vt 0.07546954602003098 0.4105231761932373
vt 0.06831125169992447 0.41180872917175293
vt 0.07546954602003098 0.4105231761932373
vt 0.07735110074281693 0.41058671474456787
vt 0.07572164386510849 0.41081929206848145
vt 0.07572164386510849 0.41081929206848145
vt 0.07735110074281693 0.41058671474456787
vt 0.07677647471427917 0.41067665815353394
vt 0.06831125169992447 0.41180872917175293
vt 0.06723921000957489 0.4119536280632019
vt 0.06706305593252182 0.4117553234100342
vt 0.07004151493310928 0.4102577567100525
vt 0.07840614765882492 0.41044414043426514
vt 0.07824011147022247 0.4102463722229004
vt 0.06641961634159088 0.41174423694610596
vt 0.06641961634159088 0.41174423694610596
vt 0.07546954602003098 0.4105231761932373
vt 0.07572164386510849 0.41081929206848145
vt 0.06723921000957489 0.4119536280632019
vt 0.06831125169992447 0.41180872917175293
vt 0.06668396294116974 0.4120410680770874
vt 0.07824011147022247 0.4102463722229004
vt 0.06706305593252182 0.4117553234100342
vt 0.057606156915426254 0.4114331603050232
vt 0.07004151493310928 0.4102577567100525
vt 0.07677647471427917 0.41067665815353394
vt 0.07840614765882492 0.41044414043426514
vt 0.06641961634159088 0.41174423694610596
vt 0.06668396294116974 0.4120410680770874
vt 0.06831125169992447 0.41180872917175293
vt 0.06668396294116974 0.4120410680770874
vt 0.06561220437288284 0.4121859073638916
vt 0.06723921000957489 0.4119536280632019
vt 0.06668396294116974 0.4120410680770874
vt 0.07004151493310928 0.4102577567100525
vt 0.07824011147022247 0.4102463722229004
vt 0.06884532421827316 0.40992987155914307
vt 0.05882380157709122 0.411762535572052
vt 0.06706305593252182 0.4117553234100342
vt 0.06723921000957489 0.4119536280632019
vt 0.06884532421827316 0.40992987155914307
vt 0.07824011147022247 0.4102463722229004
vt 0.057606156915426254 0.4114331603050232
vt 0.05882380157709122 0.411762535572052
vt 0.06723921000957489 0.4119536280632019
vt 0.06561220437288284 0.4121859073638916
vt 0.07677647471427917 0.41067665815353394
vt 0.07900679111480713 0.4133104085922241
vt 0.05882380157709122 0.411762535572052
vt 0.057606156915426254 0.4114331603050232
vt 0.06706305593252182 0.4117553234100342
vt 0.07572164386510849 0.41081929206848145
vt 0.07900679111480713 0.4133104085922241
vt 0.06668396294116974 0.4120410680770874
vt 0.06884532421827316 0.40992987155914307
vt 0.06901824474334717 0.4101274609565735
vt 0.07004151493310928 0.4102577567100525
vt 0.07004151493310928 0.4102577567100525
vt 0.07900679111480713 0.4133104085922241
vt 0.07677647471427917 0.41067665815353394
vt 0.06901824474334717 0.4101274609565735
vt 0.06884532421827316 0.40992987155914307
vt 0.05778929591178894 0.41163134574890137
vt 0.07004151493310928 0.4102577567100525
vt 0.06901824474334717 0.4101274609565735
vt 0.05882380157709122 0.411762535572052
vt 0.057606156915426254 0.4114331603050232
vt 0.06797720491886139 0.4148271083831787
vt 0.06561220437288284 0.4121859073638916
vt 0.06901824474334717 0.4101274609565735
vt 0.05778929591178894 0.41163134574890137
vt 0.05882380157709122 0.411762535572052
vt 0.05882380157709122 0.411762535572052
vt 0.05778929591178894 0.41163134574890137
vt 0.057606156915426254 0.4114331603050232
vt 0.05882380157709122 0.411762535572052
vt 0.06561220437288284 0.4121859073638916
vt 0.06797720491886139 0.4148271083831787
vt 0.07900679111480713 0.4133104085922241
vt 0.06797720491886139 0.4148271083831787
vt 0.06668396294116974 0.4120410680770874
vt 0.07004151493310928 0.4102577567100525
vt 0.07570580393075943 0.41366469860076904
vt 0.07900679111480713 0.4133104085922241
vt 0.05882380157709122 0.411762535572052
vt 0.06797720491886139 0.4148271083831787
vt 0.06467660516500473 0.4151804447174072
vt 0.07900679111480713 0.4133104085922241
vt 0.07570580393075943 0.41366469860076904
vt 0.06797720491886139 0.4148271083831787
vt 0.07004151493310928 0.4102577567100525
vt 0.05882380157709122 0.411762535572052
vt 0.06454796344041824 0.4179815649986267
vt 0.07570580393075943 0.41366469860076904
vt 0.06467660516500473 0.4151804447174072
vt 0.06797720491886139 0.4148271083831787
vt 0.07406609505414963 0.4139038920402527
vt 0.07691656798124313 0.4171869158744812
vt 0.07351601123809814 0.414065420627594
vt 0.07570580393075943 0.41366469860076904
vt 0.07004151493310928 0.4102577567100525
vt 0.07544707506895065 0.416459858417511
vt 0.07351601123809814 0.414065420627594
vt 0.07637621462345123 0.4173493981361389
vt 0.07196463644504547 0.41419273614883423
vt 0.07347016036510468 0.413751482963562
vt 0.07632586359977722 0.41703367233276367
vt 0.07406609505414963 0.4139038920402527
vt 0.07196463644504547 0.41419273614883423
vt 0.07484696060419083 0.41747742891311646
vt 0.06982740759849548 0.41425150632858276
vt 0.06467660516500473 0.4151804447174072
vt 0.06454796344041824 0.4179815649986267
vt 0.05882380157709122 0.411762535572052
vt 0.06467660516500473 0.4151804447174072
vt 0.07570580393075943 0.41366469860076904
vt 0.07819509506225586 0.41655588150024414
vt 0.07691656798124313 0.4171869158744812
vt 0.07637621462345123 0.4173493981361389
vt 0.07351601123809814 0.414065420627594
vt 0.07637621462345123 0.4173493981361389
vt 0.07484696060419083 0.41747742891311646
vt 0.07196463644504547 0.41419273614883423
vt 0.07691656798124313 0.4171869158744812
vt 0.07544707506895065 0.416459858417511
vt 0.07484696060419083 0.41747742891311646
vt 0.07273830473423004 0.41753649711608887
vt 0.06982740759849548 0.41425150632858276
vt 0.07632586359977722 0.41703367233276367
vt 0.07347016036510468 0.413751482963562
vt 0.07476451992988586 0.41693049669265747
vt 0.06982740759849548 0.41425150632858276
vt 0.07273830473423004 0.41753649711608887
vt 0.07061747461557388 0.4175106883049011
vt 0.07570580393075943 0.41366469860076904
vt 0.07544707506895065 0.416459858417511
vt 0.07819509506225586 0.41655588150024414
vt 0.06731367856264114 0.4180791974067688
vt 0.06467660516500473 0.4151804447174072
vt 0.06731367856264114 0.4180791974067688
vt 0.06454796344041824 0.4179815649986267
vn -0.000017254486010642722 1 -0
vn -0.000017254486010642722 1 -0
vn -0.000017254486010642722 1 -0
vn 0 1 0.000017188871424878016
vn 0 1 0.000017188871424878016
vn 0 1 0.000017188871424878016
vn -0.00001441898348275572 0.832046627998352 0.5547055602073669
vn -0.00001441898348275572 0.832046627998352 0.5547055602073669
vn -0.00001441898348275572 0.832046627998352 0.5547055602073669
vn 0.0000020299726202210877 1 -0.0000022955002805247204
vn 0.0000020299726202210877 1 -0.0000022955002805247204
vn 0.0000020299726202210877 1 -0.0000022955002805247204
vn 0 -0 1
vn 0 -0 1
vn 0 -0 1
vn -1 -0 -0
vn -1 -0 -0
vn -1 -0 -0
vn 0 0.8320510983467102 0.5546988844871521
vn 0 0.8320510983467102 0.5546988844871521
vn 0 0.8320510983467102 0.5546988844871521
vn 0 1 -0
vn 0 1 -0
vn 0 1 -0
vn 1 -0.0000037939475987514015 -0
vn 1 -0.0000037939475987514015 -0
vn 1 -0.0000037939475987514015 -0
vn 0 -0 1
vn 0 1 -0
vn 0 1 -0
vn 0 1 -0
vn 0 0.832046627998352 0.5547055602073669
vn 0 0.832046627998352 0.5547055602073669
vn 0 0.832046627998352 0.5547055602073669
vn 0 -0 -1
vn 0 -0 -1
vn 0 -0 -1
vn 1 -0.000002731643235165393 0.000009662597221904434
vn 1 -0.000002731643235165393 0.000009662597221904434
vn 1 -0.000002731643235165393 0.000009662597221904434
vn 1 -0.000017072503396775573 -0
vn 1 -0.000017072503396775573 -0
vn 1 -0.000017072503396775573 -0
vn 0 1 -0
vn 0 0.8320469260215759 0.5547052621841431
vn 0 0.8320469260215759 0.5547052621841431
vn 0 0.8320469260215759 0.5547052621841431
vn 1 0.0000034145364224968944 0.000021855916202184744
vn 1 0.0000034145364224968944 0.000021855916202184744
vn 1 0.0000034145364224968944 0.000021855916202184744
vn -1 -0.00000027099449084744265 -0
vn -1 -0.00000027099449084744265 -0
vn -1 -0.00000027099449084744265 -0
vn 0 -0 -0.9999999403953552
vn 0 -0 -0.9999999403953552
vn 0 -0 -0.9999999403953552
vn -1 0.0000028291799480939517 0.00002484678589098621
vn -1 0.0000028291799480939517 0.00002484678589098621
vn -1 0.0000028291799480939517 0.00002484678589098621
vn 0 1 -0
vn 0 1 -0
vn -1 -0.000006829066478530876 -0.000020705689166788943
vn -1 -0.000006829066478530876 -0.000020705689166788943
vn -1 -0.000006829066478530876 -0.000020705689166788943
vn 0 1 0.000000013284116029410598
vn 0 1 0.000000013284116029410598
vn 0 1 0.000000013284116029410598
vn 1 0.00006828785262769088 -0
vn 1 0.00006828785262769088 -0
vn 1 0.00006828785262769088 -0
vn 1 -0 -0
vn 1 -0 -0
vn 1 -0 -0
vn 0 -1 -0
vn 0 -1 -0
vn 0 -1 -0
vn 0.000002463669034113991 -0.7070893049240112 0.7071242928504944
vn 0.000002463669034113991 -0.7070893049240112 0.7071242928504944
vn 0.000002463669034113991 -0.7070893049240112 0.7071242928504944
vn 0 -1 -0
vn 0 1 -0
vn 0 1 -0
vn 0 -0.7071136236190796 0.7070999145507813
vn 0 -0.7071136236190796 0.7070999145507813
vn 0 -0.7071136236190796 0.7070999145507813
vn -0.9999999403953552 -0.00006951185059733689 -0
vn -0.9999999403953552 -0.00006951185059733689 -0
vn -0.9999999403953552 -0.00006951185059733689 -0
vn -1 0.000009910665539791808 -0
vn -1 0.000009910665539791808 -0
vn -1 0.000009910665539791808 -0
vn 0 1 -0.000000017206158275939742
vn 0 1 -0.000000017206158275939742
vn 0 1 -0.000000017206158275939742
vn 1 0.00000671928864903748 -0.00000159977128078026
vn 1 0.00000671928864903748 -0.00000159977128078026
vn 1 0.00000671928864903748 -0.00000159977128078026
vn -1 0.00001576444810780231 -0.0000013712564168599783
vn -1 0.00001576444810780231 -0.0000013712564168599783
vn -1 0.00001576444810780231 -0.0000013712564168599783
vn 0 0.7808699011802673 0.624693751335144
vn 0 0.7808699011802673 0.624693751335144
vn 0 0.7808699011802673 0.624693751335144
vn 0.0000032866141737031285 -1 -0
vn 0.0000032866141737031285 -1 -0
vn 0.0000032866141737031285 -1 -0
vn 0 0.7808698415756226 0.6246936917304993
vn 0 0.7808698415756226 0.6246936917304993
vn 0 0.7808698415756226 0.6246936917304993
vn 0.2588149309158325 0.9659268856048584 -0
vn 0.2588149309158325 0.9659268856048584 -0
vn 0.2588149309158325 0.9659268856048584 -0
vn 1 -0.000012116965081077069 -0
vn 1 -0.000012116965081077069 -0
vn 1 -0.000012116965081077069 -0
vn -0.2588149607181549 0.9659269452095032 -0
vn -0.2588149607181549 0.9659269452095032 -0
vn -0.2588149607181549 0.9659269452095032 -0
vn 0.7071067690849304 0.7071067690849304 -0
vn 0.7071067690849304 0.7071067690849304 -0
vn 0.7071067690849304 0.7071067690849304 -0
vn -0.7070984840393066 0.707115113735199 -0
vn -0.7070984840393066 0.707115113735199 -0
vn -0.7070984840393066 0.707115113735199 -0
vn -1 -0.0000004038895440316992 -0
vn -1 -0.0000004038895440316992 -0
vn -1 -0.0000004038895440316992 -0
vn 0 0.9999999403953552 -0
vn 0 0.9999999403953552 -0
vn 0 0.9999999403953552 -0
vn 0.2588149607181549 0.9659269452095032 -0
vn 0.2588149607181549 0.9659269452095032 -0
vn 0.2588149607181549 0.9659269452095032 -0
vn -0.2588149309158325 0.9659268856048584 -0
vn -0.2588149309158325 0.9659268856048584 -0
vn -0.2588149309158325 0.9659268856048584 -0
vn 0.7071067690849304 0.7071067690849304 -0
vn 0.0000032866141737031285 -1 -0
vn -0.7070984840393066 0.7071151733398438 -0
vn -0.7070984840393066 0.7071151733398438 -0
vn -0.7070984840393066 0.7071151733398438 -0
vn 0.9659228324890137 0.2588305175304413 -0
vn 0.9659228324890137 0.2588305175304413 -0
vn 0.9659228324890137 0.2588305175304413 -0
vn -0.9659342169761658 0.25878793001174927 -0
vn -0.9659342169761658 0.25878793001174927 -0
vn -0.9659342169761658 0.25878793001174927 -0
vn 1 -0.000011548616384970956 -0
vn 1 -0.000011548616384970956 -0
vn 1 -0.000011548616384970956 -0
vn 0 0.9999999403953552 -0
vn -1 -0 -0
vn -1 -0 -0
vn -1 -0 -0
f 3/3/3 2/2/2 1/1/1
f 6/6/6 5/5/5 4/4/4
f 9/9/9 8/8/8 7/7/7
f 12/12/12 11/11/11 10/10/10
f 15/15/15 14/14/14 13/13/13
f 18/18/18 17/17/17 16/16/16
f 21/21/21 20/20/20 19/19/19
f 24/24/24 23/23/23 22/22/22
f 27/27/27 26/26/26 25/25/25
f 15/15/15 28/28/28 14/14/14
f 31/31/31 30/30/30 29/29/29
f 34/34/34 33/33/33 32/32/32
f 37/37/37 36/36/36 35/35/35
f 40/40/40 39/39/39 38/38/38
f 43/43/43 42/42/42 41/41/41
f 31/31/31 29/29/29 44/44/44
f 47/47/47 46/46/46 45/45/45
f 50/50/50 49/49/49 48/48/48
f 53/53/53 52/52/52 51/51/51
f 56/56/56 55/55/55 54/54/54
f 59/59/59 58/58/58 57/57/57
f 61/61/61 60/60/60 31/31/31
f 64/64/64 63/63/63 62/62/62
f 67/67/67 66/66/66 65/65/65
f 70/70/70 69/69/69 68/68/68
f 73/73/73 72/72/72 71/71/71
f 76/76/76 75/75/75 74/74/74
f 79/79/79 78/78/78 77/77/77
f 76/76/76 80/80/80 75/75/75
f 44/44/44 82/82/82 81/81/81
f 85/85/85 84/84/84 83/83/83
f 88/88/88 87/87/87 86/86/86
f 91/91/91 90/90/90 89/89/89
f 94/94/94 93/93/93 92/92/92
f 97/97/97 96/96/96 95/95/95
f 100/100/100 99/99/99 98/98/98
f 103/103/103 102/102/102 101/101/101
f 106/106/106 105/105/105 104/104/104
f 109/109/109 108/108/108 107/107/107
f 112/112/112 111/111/111 110/110/110
f 115/115/115 114/114/114 113/113/113
f 118/118/118 117/117/117 116/116/116
f 121/121/121 120/120/120 119/119/119
f 124/124/124 123/123/123 122/122/122
f 127/127/127 126/126/126 125/125/125
f 130/130/130 129/129/129 128/128/128
f 133/133/133 132/132/132 131/131/131
f 136/136/136 135/135/135 134/134/134
f 121/121/121 137/137/137 120/120/120
f 106/106/106 104/104/104 138/138/138
f 141/141/141 140/140/140 139/139/139
f 144/144/144 143/143/143 142/142/142
f 147/147/147 146/146/146 145/145/145
f 150/150/150 149/149/149 148/148/148
f 130/130/130 128/128/128 151/151/151
f 154/154/154 153/153/153 152/152/152
