# VPXTOOL table OBJ file
# VPXTOOL OBJ file
# numVerts: 104 numFaces: 117
o BM_sw10
v 13.599990844726563 7.999998092651367 -52.39198684692383
v 16.799978256225586 7.999998092651367 -55.591983795166016
v 16.799978256225586 7.999998092651367 -52.39198684692383
v -16.800006866455078 7.999998092651367 -55.591983795166016
v 13.599990844726563 7.999998092651367 -52.39198684692383
v 16.799978256225586 7.999998092651367 -52.39198684692383
v 16.799978256225586 4.800009727478027 -47.59198760986328
v 13.599990844726563 7.999998092651367 -52.39198684692383
v -13.599990844726563 7.999998092651367 -52.39198684692383
v -16.800006866455078 7.999998092651367 -55.591983795166016
v 13.599990844726563 4.800009727478027 -47.59198760986328
v 13.599990844726563 7.999998092651367 -52.39198684692383
v 16.799978256225586 4.800009727478027 -47.59198760986328
v -13.599990844726563 7.999998092651367 -52.39198684692383
v -16.800006866455078 7.999998092651367 -52.39198684692383
v 16.800006866455078 -6.3999762535095215 -50.791988372802734
v 16.799978256225586 7.999998092651367 -52.39198684692383
v 16.799978256225586 7.999998092651367 -55.591983795166016
v -13.599990844726563 4.800009727478027 -52.39198684692383
v 13.599990844726563 4.800009727478027 -52.39198684692383
v 13.599990844726563 4.800009727478027 -47.59198760986328
v -16.800006866455078 7.999998092651367 -52.39198684692383
v -13.599990844726563 7.999998092651367 -52.39198684692383
v -13.599990844726563 4.800009727478027 -47.59198760986328
v 16.799978256225586 7.999998092651367 -55.591983795166016
v -16.800006866455078 7.999998092651367 -55.591983795166016
v -16.799978256225586 -7.999998092651367 -55.591983795166016
v 16.800006866455078 -6.3999762535095215 -50.791988372802734
v 16.799978256225586 4.800009727478027 -47.59198760986328
v 16.799978256225586 7.999998092651367 -52.39198684692383
v -13.599990844726563 4.800009727478027 -52.39198684692383
v -13.599990844726563 4.800009727478027 -47.59198760986328
v -13.599990844726563 7.999998092651367 -52.39198684692383
v -13.599990844726563 4.800009727478027 -47.59198760986328
v -16.800006866455078 4.800009727478027 -47.59198760986328
v 16.800006866455078 -6.3999762535095215 -50.791988372802734
v 16.799978256225586 7.999998092651367 -55.591983795166016
v 16.800006866455078 -7.999998092651367 -55.591983795166016
v 16.800006866455078 -7.999998092651367 -55.591983795166016
v 16.799978256225586 4.800009727478027 -47.59198760986328
v 16.799978256225586 4.800009727478027 -4.391999244689941
v 13.599990844726563 4.800009727478027 -47.59198760986328
v 16.799978256225586 4.800009727478027 -4.391999244689941
v -13.599990844726563 4.800009727478027 -47.59198760986328
v 16.800006866455078 -7.999998092651367 -55.591983795166016
v 16.800006866455078 -7.999998092651367 -52.39198684692383
v 16.800006866455078 -6.3999762535095215 -50.791988372802734
v 16.800006866455078 -6.3999762535095215 -50.791988372802734
v 16.799978256225586 4.800009727478027 -4.391999244689941
v 16.799978256225586 4.800009727478027 -47.59198760986328
v -16.800006866455078 4.800009727478027 -4.391999244689941
v -16.800006866455078 4.800009727478027 -47.59198760986328
v 16.799978256225586 4.800009727478027 -4.391999244689941
v -16.800006866455078 4.800009727478027 -4.391999244689941
v -13.599990844726563 4.800009727478027 -47.59198760986328
v 16.800006866455078 -6.3999762535095215 -50.791988372802734
v 16.800006866455078 -1.5999664068222046 3.607999086380005
v 16.799978256225586 4.800009727478027 -4.391999244689941
v -16.800006866455078 -1.6000217199325562 3.607999086380005
v -16.800006866455078 4.800009727478027 -4.391999244689941
v 16.799978256225586 4.800009727478027 -4.391999244689941
v 16.800006866455078 -1.5999664068222046 3.607999086380005
v -16.800006866455078 -1.6000217199325562 3.607999086380005
v 16.799978256225586 4.800009727478027 -4.391999244689941
v 3.1999881267547607 3.942575216293335 -4.391999244689941
v 3.1999881267547607 3.942575216293335 50.66682434082031
v 0 4.800009727478027 -4.391999244689941
v 16.800006866455078 -1.5999664068222046 3.607999086380005
v 16.800006866455078 -6.3999762535095215 -50.791988372802734
v 16.800006866455078 -6.3999762535095215 52.26681900024414
v 0 4.800009727478027 -4.391999244689941
v 0 4.800009727478027 50.66682434082031
v -3.1999881267547607 3.942575216293335 -4.391999244689941
v 5.542569160461426 1.6000217199325562 -4.391999244689941
v 5.542569160461426 1.6000217199325562 50.66682434082031
v 3.1999881267547607 3.942575216293335 -4.391999244689941
v -3.1999881267547607 3.942575216293335 -4.391999244689941
v -3.1999881267547607 3.942575216293335 50.66682434082031
v -5.542569160461426 1.6000217199325562 -4.391999244689941
v -16.800006866455078 -1.6000217199325562 3.607999086380005
v 16.800006866455078 -1.5999664068222046 3.607999086380005
v 16.800006866455078 -1.5999664068222046 52.26681900024414
v 3.1999881267547607 3.942575216293335 50.66682434082031
v 0 4.800009727478027 50.66682434082031
v 0 4.800009727478027 -4.391999244689941
v 0 4.800009727478027 50.66682434082031
v -3.1999881267547607 3.942575216293335 50.66682434082031
v -3.1999881267547607 3.942575216293335 -4.391999244689941
v 5.542569160461426 1.6000217199325562 50.66682434082031
v 3.1999881267547607 3.942575216293335 50.66682434082031
v 3.1999881267547607 3.942575216293335 -4.391999244689941
v -3.1999881267547607 3.942575216293335 50.66682434082031
v -5.542569160461426 1.6000217199325562 50.66682434082031
v -5.542569160461426 1.6000217199325562 -4.391999244689941
v 5.542569160461426 1.6000217199325562 50.66682434082031
v 5.542569160461426 1.6000217199325562 -4.391999244689941
v 6.400003910064697 -1.6000217199325562 50.66682434082031
v -5.542569160461426 1.6000217199325562 -4.391999244689941
v -5.542569160461426 1.6000217199325562 50.66682434082031
v -6.400003910064697 -1.6000217199325562 50.66682434082031
v 16.800006866455078 -1.5999664068222046 3.607999086380005
v 16.800006866455078 -6.3999762535095215 52.26681900024414
v 16.800006866455078 -1.5999664068222046 52.26681900024414
v -16.800006866455078 -1.6000217199325562 52.26681900024414
vt 0.07807373255491257 0.1145060658454895
vt 0.07901690900325775 0.11374586820602417
vt 0.07902809232473373 0.1145060658454895
vt 0.06898915022611618 0.1137458086013794
vt 0.07807373255491257 0.1145060658454895
vt 0.07902809232473373 0.1145060658454895
vt 0.07905809581279755 0.11513465642929077
vt 0.07807373255491257 0.1145060658454895
vt 0.06996163725852966 0.1145060658454895
vt 0.06898915022611618 0.1137458086013794
vt 0.07810551673173904 0.11513465642929077
vt 0.07807373255491257 0.1145060658454895
vt 0.07905809581279755 0.11513465642929077
vt 0.06996163725852966 0.1145060658454895
vt 0.0690072774887085 0.1145060658454895
vt 0.07909336686134338 0.11259990930557251
vt 0.07902809232473373 0.1145060658454895
vt 0.07901690900325775 0.11374586820602417
vt 0.06998243927955627 0.11399674415588379
vt 0.07808782160282135 0.11399674415588379
vt 0.07810551673173904 0.11513465642929077
vt 0.0690072774887085 0.1145060658454895
vt 0.06996163725852966 0.1145060658454895
vt 0.0700085386633873 0.11513465642929077
vt 0.07901690900325775 0.11374586820602417
vt 0.06898915022611618 0.1137458086013794
vt 0.0690968930721283 0.11120915412902832
vt 0.07909336686134338 0.11259990930557251
vt 0.07905809581279755 0.11513465642929077
vt 0.07902809232473373 0.1145060658454895
vt 0.06998243927955627 0.11399674415588379
vt 0.0700085386633873 0.11513465642929077
vt 0.06996163725852966 0.1145060658454895
vt 0.0700085386633873 0.11513465642929077
vt 0.0690559595823288 0.11513465642929077
vt 0.07909336686134338 0.11259990930557251
vt 0.07901690900325775 0.11374586820602417
vt 0.07908333837985992 0.11120915412902832
vt 0.07908333837985992 0.11120915412902832
vt 0.07905809581279755 0.11513465642929077
vt 0.0792069137096405 0.1252705454826355
vt 0.07810551673173904 0.11513465642929077
vt 0.0792069137096405 0.1252705454826355
vt 0.0700085386633873 0.11513465642929077
vt 0.07908333837985992 0.11120915412902832
vt 0.07909442484378815 0.11196798086166382
vt 0.07909336686134338 0.11259990930557251
vt 0.07909336686134338 0.11259990930557251
vt 0.0792069137096405 0.1252705454826355
vt 0.07905809581279755 0.11513465642929077
vt 0.06929725408554077 0.1252705454826355
vt 0.0690559595823288 0.11513465642929077
vt 0.0792069137096405 0.1252705454826355
vt 0.06929725408554077 0.1252705454826355
vt 0.0700085386633873 0.11513465642929077
vt 0.07909336686134338 0.11259990930557251
vt 0.07926008850336075 0.12610167264938354
vt 0.0792069137096405 0.1252705454826355
vt 0.06938350200653076 0.12610167264938354
vt 0.06929725408554077 0.1252705454826355
vt 0.0792069137096405 0.1252705454826355
vt 0.07926008850336075 0.12610167264938354
vt 0.06938350200653076 0.12610167264938354
vt 0.0792069137096405 0.1252705454826355
vt 0.07520023733377457 0.12513315677642822
vt 0.07543257623910904 0.13778173923492432
vt 0.07425209134817123 0.1252705454826355
vt 0.07926008850336075 0.12610167264938354
vt 0.07909336686134338 0.11259990930557251
vt 0.0794423371553421 0.13647830486297607
vt 0.07425209134817123 0.1252705454826355
vt 0.07449553161859512 0.13792026042938232
vt 0.07331309467554092 0.12513315677642822
vt 0.07590247690677643 0.12475812435150146
vt 0.07612650841474533 0.13740360736846924
vt 0.07520023733377457 0.12513315677642822
vt 0.07331309467554092 0.12513315677642822
vt 0.07356741279363632 0.13778173923492432
vt 0.07263582199811935 0.12475812435150146
vt 0.06938350200653076 0.12610167264938354
vt 0.07926008850336075 0.12610167264938354
vt 0.07942334562540054 0.13725066184997559
vt 0.07543257623910904 0.13778173923492432
vt 0.07449553161859512 0.13792026042938232
vt 0.07425209134817123 0.1252705454826355
vt 0.07449553161859512 0.13792026042938232
vt 0.07356741279363632 0.13778173923492432
vt 0.07331309467554092 0.12513315677642822
vt 0.07612650841474533 0.13740360736846924
vt 0.07543257623910904 0.13778173923492432
vt 0.07520023733377457 0.12513315677642822
vt 0.07356741279363632 0.13778173923492432
vt 0.07289786636829376 0.13740360736846924
vt 0.07263582199811935 0.12475812435150146
vt 0.07612650841474533 0.13740360736846924
vt 0.07590247690677643 0.12475812435150146
vt 0.07639139145612717 0.13688772916793823
vt 0.07263582199811935 0.12475812435150146
vt 0.07289786636829376 0.13740360736846924
vt 0.07266628742218018 0.13688772916793823
vt 0.07926008850336075 0.12610167264938354
vt 0.0794423371553421 0.13647830486297607
vt 0.07942334562540054 0.13725066184997559
vt 0.06964826583862305 0.13725066184997559
vn 0 1 -0
vn 0 1 -0
vn 0 1 -0
vn 0 1 -0
vn 0 0.8320512771606445 0.5546988248825073
vn 0 0.8320512771606445 0.5546988248825073
vn 0 0.8320512771606445 0.5546988248825073
vn 0 1 0.000000573873876419384
vn 0 1 0.000000573873876419384
vn 0 1 0.000000573873876419384
vn 0 0.8320513963699341 0.5546985864639282
vn 0 0.8320513963699341 0.5546985864639282
vn 0 0.8320513963699341 0.5546985864639282
vn 0 1 -0
vn 0 1 -0
vn 1 0.0000018969737993757008 -0
vn 1 0.0000018969737993757008 -0
vn 1 0.0000018969737993757008 -0
vn 0 1 -0
vn 0 1 -0
vn 0 1 -0
vn 0 0.8320512175559998 0.5546987056732178
vn 0 0.8320512175559998 0.5546987056732178
vn 0 0.8320512175559998 0.5546987056732178
vn 0 -0 -1
vn 0 -0 -1
vn 0 -0 -1
vn 1 0.0000019511737718858058 0.0000013803744423057651
vn 1 0.0000019511737718858058 0.0000013803744423057651
vn 1 0.0000019511737718858058 0.0000013803744423057651
vn 1 -0 -0
vn 1 -0 -0
vn 1 -0 -0
vn 0 1 -0
vn 0 0.8320512175559998 0.5546987056732178
vn 0.9999999403953552 0.0000017885736269818153 -0.000000575165188365645
vn 0.9999999403953552 0.0000017885736269818153 -0.000000575165188365645
vn 0.9999999403953552 0.0000017885736269818153 -0.000000575165188365645
vn 0 -0 -1
vn 0 1 -0
vn 0 1 -0
vn 0 1 -0.000000005313645967675029
vn 0 1 -0.000000005313645967675029
vn 0 1 -0.000000005313645967675029
vn 1 -0 -0
vn 1 -0 -0
vn 1 -0 -0
vn 1 0.0000024776784357527504 -0
vn 1 0.0000024776784357527504 -0
vn 1 0.0000024776784357527504 -0
vn 0 1 -0
vn 0 1 -0
vn 0 0.9999999403953552 -0
vn 0 0.9999999403953552 -0
vn 0 0.9999999403953552 -0
vn 1 0.0000036180740607960615 -0.00000034281052307960636
vn 1 0.0000036180740607960615 -0.00000034281052307960636
vn 1 0.0000036180740607960615 -0.00000034281052307960636
vn 0 0.7808672189712524 0.6246970295906067
vn 0 0.7808672189712524 0.6246970295906067
vn 0 0.7808672189712524 0.6246970295906067
vn -0.0000012832862239520182 0.7808698415756226 0.6246936917304993
vn -0.0000012832862239520182 0.7808698415756226 0.6246936917304993
vn -0.0000012832862239520182 0.7808698415756226 0.6246936917304993
vn 0.2588191032409668 0.9659257531166077 -0
vn 0.2588191032409668 0.9659257531166077 -0
vn 0.2588191032409668 0.9659257531166077 -0
vn 1 -0.00000040389417677033634 -0
vn 1 -0.00000040389417677033634 -0
vn 1 -0.00000040389417677033634 -0
vn -0.2588191032409668 0.9659257531166077 -0
vn -0.2588191032409668 0.9659257531166077 -0
vn -0.2588191032409668 0.9659257531166077 -0
vn 0.7071026563644409 0.7071109414100647 -0
vn 0.7071026563644409 0.7071109414100647 -0
vn 0.7071026563644409 0.7071109414100647 -0
vn -0.7071026563644409 0.7071109414100647 -0
vn -0.7071026563644409 0.7071109414100647 -0
vn -0.7071026563644409 0.7071109414100647 -0
vn -0.000001643304358367459 0.9999999403953552 -0
vn -0.000001643304358367459 0.9999999403953552 -0
vn -0.000001643304358367459 0.9999999403953552 -0
vn 0.2588190734386444 0.9659257531166077 -0
vn 0.2588190734386444 0.9659257531166077 -0
vn 0.2588190734386444 0.9659257531166077 -0
vn -0.2588190734386444 0.9659257531166077 -0
vn -0.2588190734386444 0.9659257531166077 -0
vn -0.2588190734386444 0.9659257531166077 -0
vn 0.7071026563644409 0.7071108818054199 -0
vn 0.7071026563644409 0.7071108818054199 -0
vn 0.7071026563644409 0.7071108818054199 -0
vn -0.7071026563644409 0.7071108818054199 -0
vn -0.7071026563644409 0.7071108818054199 -0
vn -0.7071026563644409 0.7071108818054199 -0
vn 0.9659269452095032 0.25881490111351013 -0
vn 0.9659269452095032 0.25881490111351013 -0
vn 0.9659269452095032 0.25881490111351013 -0
vn -0.9659269452095032 0.25881490111351013 -0
vn -0.9659269452095032 0.25881490111351013 -0
vn -0.9659269452095032 0.25881490111351013 -0
vn 1 -0 -0
vn 1 -0 -0
vn 1 -0 -0
vn -0.000001643304358367459 0.9999999403953552 -0
f 3/3/3 2/2/2 1/1/1
f 2/2/2 4/4/4 1/1/1
f 7/7/7 6/6/6 5/5/5
f 10/10/10 9/9/9 8/8/8
f 13/13/13 12/12/12 11/11/11
f 4/4/4 15/15/15 14/14/14
f 18/18/18 17/17/17 16/16/16
f 21/21/21 20/20/20 19/19/19
f 24/24/24 23/23/23 22/22/22
f 27/27/27 26/26/26 25/25/25
f 30/30/30 29/29/29 28/28/28
f 33/33/33 32/32/32 31/31/31
f 21/21/21 19/19/19 34/34/34
f 24/24/24 22/22/22 35/35/35
f 38/38/38 37/37/37 36/36/36
f 27/27/27 25/25/25 39/39/39
f 41/41/41 40/40/40 21/21/21
f 44/44/44 43/43/43 42/42/42
f 47/47/47 46/46/46 45/45/45
f 50/50/50 49/49/49 48/48/48
f 34/34/34 52/52/52 51/51/51
f 55/55/55 54/54/54 53/53/53
f 58/58/58 57/57/57 56/56/56
f 61/61/61 60/60/60 59/59/59
f 64/64/64 63/63/63 62/62/62
f 67/67/67 66/66/66 65/65/65
f 70/70/70 69/69/69 68/68/68
f 73/73/73 72/72/72 71/71/71
f 76/76/76 75/75/75 74/74/74
f 79/79/79 78/78/78 77/77/77
f 82/82/82 81/81/81 80/80/80
f 85/85/85 84/84/84 83/83/83
f 88/88/88 87/87/87 86/86/86
f 91/91/91 90/90/90 89/89/89
f 94/94/94 93/93/93 92/92/92
f 97/97/97 96/96/96 95/95/95
f 100/100/100 99/99/99 98/98/98
f 103/103/103 102/102/102 101/101/101
f 82/82/82 80/80/80 104/104/104
