# VPXTOOL table OBJ file
# VPXTOOL OBJ file
# numVerts: 37 numFaces: 39
o LM_inserts_L06_Layer1
v -379.0428771972656 -261.6341857910156 -14.470573425292969
v -320.4812927246094 -268.8132019042969 -14.470573425292969
v -335.9115905761719 -108.10206604003906 50.529422760009766
v -320.4812927246094 -268.8132019042969 -61.52939224243164
v -282.2095642089844 -117.39420318603516 3.4706039428710938
v -320.4812927246094 -268.8132019042969 -14.470573425292969
v -365.1923828125 -104.51253509521484 50.529422760009766
v -379.0428771972656 -261.6341857910156 -14.470573425292969
v -335.9115905761719 -108.10206604003906 50.529422760009766
v -335.9115905761719 -108.10206604003906 50.529422760009766
v -320.4812927246094 -268.8132019042969 -14.470573425292969
v -282.2095642089844 -117.39420318603516 50.529415130615234
v -282.2095642089844 -117.39420318603516 27.00001335144043
v -282.2095642089844 -117.39420318603516 50.529415130615234
v -320.4812927246094 -268.8132019042969 -14.470573425292969
v -282.2095642089844 -117.39420318603516 3.4706039428710938
v -282.2095642089844 -117.39420318603516 27.00001335144043
v -320.4812927246094 -268.8132019042969 -14.470573425292969
v -365.1923828125 -104.51253509521484 50.529422760009766
v -335.9115905761719 -108.10206604003906 50.529422760009766
v -351.3418884277344 52.60906219482422 115.5294189453125
v -335.9115905761719 -108.10206604003906 50.529422760009766
v -282.2095642089844 -117.39420318603516 50.529415130615234
v -243.93788146972656 34.02472686767578 115.52940368652344
v -282.2095642089844 -117.39420318603516 27.00001335144043
v -243.93788146972656 34.02472686767578 68.47061157226563
v -282.2095642089844 -117.39420318603516 50.529415130615234
v -282.2095642089844 -117.39420318603516 3.4706039428710938
v -243.93788146972656 34.02472686767578 68.47061157226563
v -282.2095642089844 -117.39420318603516 27.00001335144043
v -351.3418884277344 52.60906219482422 115.5294189453125
v -335.9115905761719 -108.10206604003906 50.529422760009766
v -243.93788146972656 34.02472686767578 115.52940368652344
v -365.1923828125 -104.51253509521484 50.529422760009766
v -351.3418884277344 52.60906219482422 115.5294189453125
v -351.3418884277344 52.60906219482422 68.47061157226563
v -243.93788146972656 34.02472686767578 115.52940368652344
vt 0.0014669225784018636 0.6253238916397095
vt 0.03195156529545784 0.6248461008071899
vt 0.02020324021577835 0.6436610221862793
vt 0.030642986297607422 0.6192505955696106
vt 0.04772388935089111 0.6374334096908569
vt 0.03195156529545784 0.6248461008071899
vt 0.004562139976769686 0.6439228057861328
vt 0.0014669225784018636 0.6253238916397095
vt 0.02020324021577835 0.6436610221862793
vt 0.02020324021577835 0.6436610221862793
vt 0.03195156529545784 0.6248461008071899
vt 0.0488971583545208 0.6429857015609741
vt 0.04831339418888092 0.6402231454849243
vt 0.0488971583545208 0.6429857015609741
vt 0.03195156529545784 0.6248461008071899
vt 0.04772388935089111 0.6374334096908569
vt 0.04831339418888092 0.6402231454849243
vt 0.03195156529545784 0.6248461008071899
vt 0.004562139976769686 0.6439228057861328
vt 0.02020324021577835 0.6436610221862793
vt 0.00781921111047268 0.6634941101074219
vt 0.02020324021577835 0.6436610221862793
vt 0.0488971583545208 0.6429857015609741
vt 0.06667552888393402 0.6620166897773743
vt 0.04831339418888092 0.6402231454849243
vt 0.06565266102552414 0.656518816947937
vt 0.0488971583545208 0.6429857015609741
vt 0.04772388935089111 0.6374334096908569
vt 0.06565266102552414 0.656518816947937
vt 0.04831339418888092 0.6402231454849243
vt 0.00781921111047268 0.6634941101074219
vt 0.02020324021577835 0.6436610221862793
vt 0.06667552888393402 0.6620166897773743
vt 0.004562139976769686 0.6439228057861328
vt 0.00781921111047268 0.6634941101074219
vt 0.006194169167429209 0.6579849720001221
vt 0.06667552888393402 0.6620166897773743
vn 0.046383604407310486 0.3783670663833618 -0.9244928956031799
vn 0.046383604407310486 0.3783670663833618 -0.9244928956031799
vn 0.046383604407310486 0.3783670663833618 -0.9244928956031799
vn -0.9695111513137817 0.24504733085632324 -0
vn -0.9695111513137817 0.24504733085632324 -0
vn -0.9695111513137817 0.24504733085632324 -0
vn 0.04638400673866272 0.37836596369743347 -0.9244931936264038
vn 0.04638400673866272 0.37836596369743347 -0.9244931936264038
vn 0.04638400673866272 0.37836596369743347 -0.9244931936264038
vn 0.06567390263080597 0.37954920530319214 -0.9228376746177673
vn 0.06567390263080597 0.37954920530319214 -0.9228376746177673
vn 0.06567390263080597 0.37954920530319214 -0.9228376746177673
vn -0.9695110321044922 0.24504758417606354 -0
vn -0.9695110321044922 0.24504758417606354 -0
vn -0.9695110321044922 0.24504758417606354 -0
vn -0.969511091709137 0.24504774808883667 -0
vn -0.969511091709137 0.24504774808883667 -0
vn -0.969511091709137 0.24504774808883667 -0
vn 0.046383872628211975 0.37836718559265137 -0.9244927167892456
vn 0.046383872628211975 0.37836718559265137 -0.9244927167892456
vn 0.046383872628211975 0.37836718559265137 -0.9244927167892456
vn 0.0656738430261612 0.37954941391944885 -0.9228375554084778
vn 0.0656738430261612 0.37954941391944885 -0.9228375554084778
vn 0.0656738430261612 0.37954941391944885 -0.9228375554084778
vn -0.9695111513137817 0.24504755437374115 -0
vn -0.9695111513137817 0.24504755437374115 -0
vn -0.9695111513137817 0.24504755437374115 -0
vn -0.9695112109184265 0.2450469732284546 -0
vn -0.9695112109184265 0.2450469732284546 -0
vn -0.9695112109184265 0.2450469732284546 -0
vn 0.06567417085170746 0.37954944372177124 -0.9228376150131226
vn 0.06567417085170746 0.37954944372177124 -0.9228376150131226
vn 0.06567417085170746 0.37954944372177124 -0.9228376150131226
vn 0.9961371421813965 -0.08781139552593231 -0
vn 0.9961371421813965 -0.08781139552593231 -0
vn 0.9961371421813965 -0.08781139552593231 -0
vn -0.9695111513137817 0.24504755437374115 -0
f 3/3/3 2/2/2 1/1/1
f 6/6/6 5/5/5 4/4/4
f 9/9/9 8/8/8 7/7/7
f 12/12/12 11/11/11 10/10/10
f 15/15/15 14/14/14 13/13/13
f 18/18/18 17/17/17 16/16/16
f 21/21/21 20/20/20 19/19/19
f 24/24/24 23/23/23 22/22/22
f 27/27/27 26/26/26 25/25/25
f 30/30/30 29/29/29 28/28/28
f 33/33/33 32/32/32 31/31/31
f 36/36/36 35/35/35 34/34/34
f 27/27/27 37/37/37 26/26/26
