# VPXTOOL table OBJ file
# VPXTOOL OBJ file
# numVerts: 93 numFaces: 102
o BM_sw06
v 13.599963188171387 7.999998092651367 -52.39198684692383
v 16.799896240234375 7.999998092651367 -55.591983795166016
v 16.799896240234375 7.999998092651367 -52.39198684692383
v 13.599963188171387 7.999998092651367 -52.39198684692383
v -16.80006217956543 7.999998092651367 -55.591983795166016
v 16.799896240234375 7.999998092651367 -55.591983795166016
v 13.599963188171387 7.999998092651367 -52.39198684692383
v 16.799896240234375 7.999998092651367 -52.39198684692383
v 16.799951553344727 4.800009727478027 -47.59198760986328
v 13.599963188171387 7.999998092651367 -52.39198684692383
v -13.600018501281738 7.999942779541016 -52.39198684692383
v -16.80006217956543 7.999998092651367 -55.591983795166016
v 13.599963188171387 4.800009727478027 -52.39198684692383
v 13.599963188171387 7.999998092651367 -52.39198684692383
v 13.599963188171387 4.800009727478027 -47.59198760986328
v 13.599963188171387 4.800009727478027 -47.59198760986328
v 13.599963188171387 7.999998092651367 -52.39198684692383
v 16.799951553344727 4.800009727478027 -47.59198760986328
v -13.600018501281738 7.999942779541016 -52.39198684692383
v -16.80006217956543 7.999998092651367 -52.39198684692383
v -16.80006217956543 7.999998092651367 -55.591983795166016
v -13.60007381439209 4.800009727478027 -52.39198684692383
v 13.599963188171387 4.800009727478027 -52.39198684692383
v 13.599963188171387 4.800009727478027 -47.59198760986328
v -16.80006217956543 7.999998092651367 -52.39198684692383
v -13.600018501281738 7.999942779541016 -52.39198684692383
v -16.799951553344727 4.799954414367676 -47.59198760986328
v 16.799896240234375 7.999998092651367 -55.591983795166016
v -16.80006217956543 7.999998092651367 -55.591983795166016
v -16.800006866455078 -8.000053405761719 -55.591983795166016
v -13.60007381439209 4.800009727478027 -47.59198760986328
v -13.600018501281738 7.999942779541016 -52.39198684692383
v -13.60007381439209 4.800009727478027 -47.59198760986328
v -16.799951553344727 4.799954414367676 -47.59198760986328
v -16.800006866455078 -6.400031566619873 -50.791988372802734
v -16.80006217956543 7.999998092651367 -55.591983795166016
v -16.80006217956543 7.999998092651367 -52.39198684692383
v 16.800006866455078 -8.000053405761719 -55.591983795166016
v -16.800006866455078 -6.400031566619873 -50.791988372802734
v -16.80006217956543 7.999998092651367 -52.39198684692383
v -16.799951553344727 4.799954414367676 -47.59198760986328
v 16.799951553344727 4.800009727478027 -47.59198760986328
v 16.799951553344727 4.800009727478027 -4.391999244689941
v -16.800006866455078 -6.400031566619873 -50.791988372802734
v -16.800006866455078 -8.000053405761719 -55.591983795166016
v -16.80006217956543 7.999998092651367 -55.591983795166016
v 13.599963188171387 4.800009727478027 -47.59198760986328
v 16.799951553344727 4.800009727478027 -4.391999244689941
v -13.60007381439209 4.800009727478027 -47.59198760986328
v -16.799951553344727 4.799954414367676 -4.391999244689941
v -16.799951553344727 4.799954414367676 -47.59198760986328
v -13.60007381439209 4.800009727478027 -47.59198760986328
v -16.800006866455078 -6.400031566619873 -50.791988372802734
v -16.800006866455078 -8.000053405761719 -52.39198684692383
v -16.800006866455078 -8.000053405761719 -55.591983795166016
v -16.800006866455078 -6.400031566619873 -50.791988372802734
v -16.799951553344727 4.799954414367676 -47.59198760986328
v -16.799951553344727 4.799954414367676 -4.391999244689941
v 16.799951553344727 4.800009727478027 -4.391999244689941
v -16.799951553344727 4.799954414367676 -4.391999244689941
v -13.60007381439209 4.800009727478027 -47.59198760986328
v -16.800006866455078 -6.400031566619873 -50.791988372802734
v -16.799951553344727 4.799954414367676 -4.391999244689941
v -16.800006866455078 -1.6000217199325562 3.607999086380005
v 3.1998777389526367 3.9425201416015625 -4.391999244689941
v 3.1998777389526367 3.9425201416015625 50.66682434082031
v 0 4.799954414367676 -4.391999244689941
v 0 4.799954414367676 -4.391999244689941
v 0 4.799954414367676 50.66682434082031
v -3.2000434398651123 3.942575216293335 -4.391999244689941
v -3.2000434398651123 3.942575216293335 -4.391999244689941
v -3.2000434398651123 3.942575216293335 50.66682434082031
v -5.542652130126953 1.5999664068222046 -4.391999244689941
v -16.800006866455078 -1.6000217199325562 3.607999086380005
v -16.800006866455078 -6.400031566619873 52.26681900024414
v -16.800006866455078 -6.400031566619873 -50.791988372802734
v -16.800006866455078 -1.6000217199325562 3.607999086380005
v 16.800006866455078 -1.6000217199325562 3.607999086380005
v 16.800006866455078 -1.6000217199325562 52.26681900024414
v 0 4.799954414367676 50.66682434082031
v 0 4.799954414367676 50.66682434082031
v -3.2000434398651123 3.942575216293335 50.66682434082031
v -3.2000434398651123 3.942575216293335 -4.391999244689941
v -3.2000434398651123 3.942575216293335 50.66682434082031
v -5.542652130126953 1.5999664068222046 50.66682434082031
v -5.542652130126953 1.5999664068222046 -4.391999244689941
v -5.542652130126953 1.5999664068222046 -4.391999244689941
v -5.542652130126953 1.5999664068222046 50.66682434082031
v -6.400031566619873 -1.6000217199325562 50.66682434082031
v -16.800006866455078 -1.6000217199325562 52.26681900024414
v -16.800006866455078 -1.6000217199325562 3.607999086380005
v -16.800006866455078 -1.6000217199325562 52.26681900024414
v -16.800006866455078 -6.400031566619873 52.26681900024414
vt 0.0377395860850811 0.18921375274658203
vt 0.038537781685590744 0.1885409951210022
vt 0.03867749497294426 0.1889348030090332
vt 0.0377395860850811 0.18921375274658203
vt 0.028602931648492813 0.1914917230606079
vt 0.038537781685590744 0.1885409951210022
vt 0.0377395860850811 0.18921375274658203
vt 0.03867749497294426 0.1889348030090332
vt 0.03719388693571091 0.189400315284729
vt 0.0377395860850811 0.18921375274658203
vt 0.02970428578555584 0.19160336256027222
vt 0.028602931648492813 0.1914917230606079
vt 0.03604387491941452 0.18908953666687012
vt 0.0377395860850811 0.18921375274658203
vt 0.03625613823533058 0.18967920541763306
vt 0.03625613823533058 0.18967920541763306
vt 0.0377395860850811 0.18921375274658203
vt 0.03719388693571091 0.189400315284729
vt 0.02970428578555584 0.19160336256027222
vt 0.02875147946178913 0.19188672304153442
vt 0.028602931648492813 0.1914917230606079
vt 0.027999546378850937 0.19147735834121704
vt 0.03604387491941452 0.18908953666687012
vt 0.03625613823533058 0.18967920541763306
vt 0.02875147946178913 0.19188672304153442
vt 0.02970428578555584 0.19160336256027222
vt 0.027269914746284485 0.1923518180847168
vt 0.038537781685590744 0.1885409951210022
vt 0.028602931648492813 0.1914917230606079
vt 0.020080219954252243 0.19086182117462158
vt 0.028222529217600822 0.1920684576034546
vt 0.02970428578555584 0.19160336256027222
vt 0.028222529217600822 0.1920684576034546
vt 0.027269914746284485 0.1923518180847168
vt 0.021162239834666252 0.19151663780212402
vt 0.028602931648492813 0.1914917230606079
vt 0.02875147946178913 0.19188672304153442
vt 0.030070681124925613 0.18792200088500977
vt 0.021162239834666252 0.19151663780212402
vt 0.02875147946178913 0.19188672304153442
vt 0.027269914746284485 0.1923518180847168
vt 0.03719388693571091 0.189400315284729
vt 0.039071932435035706 0.194646418094635
vt 0.021162239834666252 0.19151663780212402
vt 0.020080219954252243 0.19086182117462158
vt 0.028602931648492813 0.1914917230606079
vt 0.03625613823533058 0.18967920541763306
vt 0.039071932435035706 0.194646418094635
vt 0.028222529217600822 0.1920684576034546
vt 0.02926543541252613 0.1976131796836853
vt 0.027269914746284485 0.1923518180847168
vt 0.028222529217600822 0.1920684576034546
vt 0.021162239834666252 0.19151663780212402
vt 0.02023502066731453 0.191256582736969
vt 0.020080219954252243 0.19086182117462158
vt 0.021162239834666252 0.19151663780212402
vt 0.027269914746284485 0.1923518180847168
vt 0.02926543541252613 0.1976131796836853
vt 0.039071932435035706 0.194646418094635
vt 0.02926543541252613 0.1976131796836853
vt 0.028222529217600822 0.1920684576034546
vt 0.021162239834666252 0.19151663780212402
vt 0.02926543541252613 0.1976131796836853
vt 0.026265772059559822 0.1983218789100647
vt 0.03467279672622681 0.19580739736557007
vt 0.03707600012421608 0.2023487687110901
vt 0.03418979048728943 0.19612336158752441
vt 0.03418979048728943 0.19612336158752441
vt 0.03660134971141815 0.20266664028167725
vt 0.03280438482761383 0.196372389793396
vt 0.03280438482761383 0.196372389793396
vt 0.03523537516593933 0.20291709899902344
vt 0.030887477099895477 0.19648736715316772
vt 0.026265772059559822 0.1983218789100647
vt 0.02600051648914814 0.20390689373016357
vt 0.021162239834666252 0.19151663780212402
vt 0.026265772059559822 0.1983218789100647
vt 0.03607243299484253 0.19535678625106812
vt 0.0381711982190609 0.20111733675003052
vt 0.03660134971141815 0.20266664028167725
vt 0.03660134971141815 0.20266664028167725
vt 0.03523537516593933 0.20291709899902344
vt 0.03280438482761383 0.196372389793396
vt 0.03523537516593933 0.20291709899902344
vt 0.033343832939863205 0.2030327320098877
vt 0.030887477099895477 0.19648736715316772
vt 0.030887477099895477 0.19648736715316772
vt 0.033343832939863205 0.2030327320098877
vt 0.031435444951057434 0.20298224687576294
vt 0.02849356085062027 0.2040979266166687
vt 0.026265772059559822 0.1983218789100647
vt 0.02849356085062027 0.2040979266166687
vt 0.02600051648914814 0.20390689373016357
vn 0 0.9999999403953552 -0
vn 0 0.9999999403953552 -0
vn 0 0.9999999403953552 -0
vn 0 1 -0.00000046456486302304256
vn 0 1 -0.00000046456486302304256
vn 0 1 -0.00000046456486302304256
vn 0 0.8320513367652893 0.5546987056732178
vn 0 0.8320513367652893 0.5546987056732178
vn 0 0.8320513367652893 0.5546987056732178
vn -0.0000020299685274949297 1 0.000019511711798259057
vn -0.0000020299685274949297 1 0.000019511711798259057
vn -0.0000020299685274949297 1 0.000019511711798259057
vn -1 -0 -0
vn -1 -0 -0
vn -1 -0 -0
vn 0 0.8320510983467102 0.5546988844871521
vn 0 0.8320510983467102 0.5546988844871521
vn 0 0.8320510983467102 0.5546988844871521
vn 0.000017254476915695705 1 -0
vn 0.000017254476915695705 1 -0
vn 0.000017254476915695705 1 -0
vn 0 1 -0
vn 0 1 -0
vn 0 1 -0
vn 0.00001441898348275572 0.832046627998352 0.5547055602073669
vn 0.00001441898348275572 0.832046627998352 0.5547055602073669
vn 0.00001441898348275572 0.832046627998352 0.5547055602073669
vn 0 -0 -1
vn 0 -0 -1
vn 0 -0 -1
vn 0 1 -0
vn -0.000014882478353683837 0.8320556879043579 0.5546920299530029
vn -0.000014882478353683837 0.8320556879043579 0.5546920299530029
vn -0.000014882478353683837 0.8320556879043579 0.5546920299530029
vn -0.9999999403953552 -0.0000037939307730994187 -0
vn -0.9999999403953552 -0.0000037939307730994187 -0
vn -0.9999999403953552 -0.0000037939307730994187 -0
vn 0 -0 -1
vn -1 -0.0000014633757245974266 0.000022086018361733295
vn -1 -0.0000014633757245974266 0.000022086018361733295
vn -1 -0.0000014633757245974266 0.000022086018361733295
vn 0 1 -0
vn 0 1 -0
vn -1 -0.0000034145364224968944 0.0000011503259429446189
vn -1 -0.0000034145364224968944 0.0000011503259429446189
vn -1 -0.0000034145364224968944 0.0000011503259429446189
vn 0 1 -0.000000005313635309533993
vn 0 1 -0.000000005313635309533993
vn 0 1 -0.000000005313635309533993
vn -0.000017255368220503442 1 -0
vn -0.000017255368220503442 1 -0
vn -0.000017255368220503442 1 -0
vn -1 -0.0000012194645933050197 -0
vn -1 -0.0000012194645933050197 -0
vn -1 -0.0000012194645933050197 -0
vn -1 0.0000049295476856059395 -0
vn -1 0.0000049295476856059395 -0
vn -1 0.0000049295476856059395 -0
vn -0.0000016433095879619941 1 0.0000011528106824698625
vn -0.0000016433095879619941 1 0.0000011528106824698625
vn -0.0000016433095879619941 1 0.0000011528106824698625
vn -1 0.000007753015779599082 -0.0000006856210461592127
vn -1 0.000007753015779599082 -0.0000006856210461592127
vn -1 0.000007753015779599082 -0.0000006856210461592127
vn 0.25882744789123535 0.9659236073493958 -0
vn 0.25882744789123535 0.9659236073493958 -0
vn 0.25882744789123535 0.9659236073493958 -0
vn -0.2587994337081909 0.9659311771392822 -0
vn -0.2587994337081909 0.9659311771392822 -0
vn -0.2587994337081909 0.9659311771392822 -0
vn -0.7071068286895752 0.7071067690849304 -0
vn -0.7071068286895752 0.7071067690849304 -0
vn -0.7071068286895752 0.7071067690849304 -0
vn -1 -0.00000040389417677033634 -0
vn -1 -0.00000040389417677033634 -0
vn -1 -0.00000040389417677033634 -0
vn 0 0.9999999403953552 -0
vn 0 0.9999999403953552 -0
vn 0 0.9999999403953552 -0
vn 0.25882744789123535 0.9659236073493958 -0
vn -0.25879940390586853 0.9659311771392822 -0
vn -0.25879940390586853 0.9659311771392822 -0
vn -0.25879940390586853 0.9659311771392822 -0
vn -0.7071067690849304 0.7071068286895752 -0
vn -0.7071067690849304 0.7071068286895752 -0
vn -0.7071067690849304 0.7071068286895752 -0
vn -0.9659299850463867 0.25880348682403564 -0
vn -0.9659299850463867 0.25880348682403564 -0
vn -0.9659299850463867 0.25880348682403564 -0
vn 0 0.9999999403953552 -0
vn -1 -0 -0
vn -1 -0 -0
vn -1 -0 -0
f 3/3/3 2/2/2 1/1/1
f 6/6/6 5/5/5 4/4/4
f 9/9/9 8/8/8 7/7/7
f 12/12/12 11/11/11 10/10/10
f 15/15/15 14/14/14 13/13/13
f 18/18/18 17/17/17 16/16/16
f 21/21/21 20/20/20 19/19/19
f 24/24/24 23/23/23 22/22/22
f 27/27/27 26/26/26 25/25/25
f 30/30/30 29/29/29 28/28/28
f 24/24/24 22/22/22 31/31/31
f 34/34/34 33/33/33 32/32/32
f 37/37/37 36/36/36 35/35/35
f 30/30/30 28/28/28 38/38/38
f 41/41/41 40/40/40 39/39/39
f 43/43/43 42/42/42 24/24/24
f 46/46/46 45/45/45 44/44/44
f 49/49/49 48/48/48 47/47/47
f 52/52/52 51/51/51 50/50/50
f 55/55/55 54/54/54 53/53/53
f 58/58/58 57/57/57 56/56/56
f 61/61/61 60/60/60 59/59/59
f 64/64/64 63/63/63 62/62/62
f 67/67/67 66/66/66 65/65/65
f 70/70/70 69/69/69 68/68/68
f 73/73/73 72/72/72 71/71/71
f 76/76/76 75/75/75 74/74/74
f 79/79/79 78/78/78 77/77/77
f 67/67/67 80/80/80 66/66/66
f 83/83/83 82/82/82 81/81/81
f 86/86/86 85/85/85 84/84/84
f 89/89/89 88/88/88 87/87/87
f 79/79/79 77/77/77 90/90/90
f 93/93/93 92/92/92 91/91/91
