# VPXTOOL table OBJ file
# VPXTOOL OBJ file
# numVerts: 104 numFaces: 117
o LM_inserts_L08_sw10
v 13.599990844726563 7.999998092651367 -52.39198684692383
v 16.799978256225586 7.999998092651367 -55.591983795166016
v 16.799978256225586 7.999998092651367 -52.39198684692383
v -16.800006866455078 7.999998092651367 -55.591983795166016
v 13.599990844726563 7.999998092651367 -52.39198684692383
v 16.799978256225586 7.999998092651367 -52.39198684692383
v 16.799978256225586 4.800009727478027 -47.59198760986328
v 13.599990844726563 7.999998092651367 -52.39198684692383
v -13.599990844726563 7.999998092651367 -52.39198684692383
v -16.800006866455078 7.999998092651367 -55.591983795166016
v 13.599990844726563 4.800009727478027 -47.59198760986328
v 13.599990844726563 7.999998092651367 -52.39198684692383
v 16.799978256225586 4.800009727478027 -47.59198760986328
v -13.599990844726563 7.999998092651367 -52.39198684692383
v -16.800006866455078 7.999998092651367 -52.39198684692383
v 16.800006866455078 -6.3999762535095215 -50.791988372802734
v 16.799978256225586 7.999998092651367 -52.39198684692383
v 16.799978256225586 7.999998092651367 -55.591983795166016
v -13.599990844726563 4.800009727478027 -52.39198684692383
v 13.599990844726563 4.800009727478027 -52.39198684692383
v 13.599990844726563 4.800009727478027 -47.59198760986328
v -16.800006866455078 7.999998092651367 -52.39198684692383
v -13.599990844726563 7.999998092651367 -52.39198684692383
v -13.599990844726563 4.800009727478027 -47.59198760986328
v 16.799978256225586 7.999998092651367 -55.591983795166016
v -16.800006866455078 7.999998092651367 -55.591983795166016
v -16.799978256225586 -7.999998092651367 -55.591983795166016
v 16.800006866455078 -6.3999762535095215 -50.791988372802734
v 16.799978256225586 4.800009727478027 -47.59198760986328
v 16.799978256225586 7.999998092651367 -52.39198684692383
v -13.599990844726563 4.800009727478027 -52.39198684692383
v -13.599990844726563 4.800009727478027 -47.59198760986328
v -13.599990844726563 7.999998092651367 -52.39198684692383
v -13.599990844726563 4.800009727478027 -47.59198760986328
v -16.800006866455078 4.800009727478027 -47.59198760986328
v 16.800006866455078 -6.3999762535095215 -50.791988372802734
v 16.799978256225586 7.999998092651367 -55.591983795166016
v 16.800006866455078 -7.999998092651367 -55.591983795166016
v 16.800006866455078 -7.999998092651367 -55.591983795166016
v 16.799978256225586 4.800009727478027 -47.59198760986328
v 16.799978256225586 4.800009727478027 -4.391999244689941
v 13.599990844726563 4.800009727478027 -47.59198760986328
v 16.799978256225586 4.800009727478027 -4.391999244689941
v -13.599990844726563 4.800009727478027 -47.59198760986328
v 16.800006866455078 -7.999998092651367 -55.591983795166016
v 16.800006866455078 -7.999998092651367 -52.39198684692383
v 16.800006866455078 -6.3999762535095215 -50.791988372802734
v 16.800006866455078 -6.3999762535095215 -50.791988372802734
v 16.799978256225586 4.800009727478027 -4.391999244689941
v 16.799978256225586 4.800009727478027 -47.59198760986328
v -16.800006866455078 4.800009727478027 -4.391999244689941
v -16.800006866455078 4.800009727478027 -47.59198760986328
v 16.799978256225586 4.800009727478027 -4.391999244689941
v -16.800006866455078 4.800009727478027 -4.391999244689941
v -13.599990844726563 4.800009727478027 -47.59198760986328
v 16.800006866455078 -6.3999762535095215 -50.791988372802734
v 16.800006866455078 -1.5999664068222046 3.607999086380005
v 16.799978256225586 4.800009727478027 -4.391999244689941
v -16.800006866455078 -1.6000217199325562 3.607999086380005
v -16.800006866455078 4.800009727478027 -4.391999244689941
v 16.799978256225586 4.800009727478027 -4.391999244689941
v 16.800006866455078 -1.5999664068222046 3.607999086380005
v -16.800006866455078 -1.6000217199325562 3.607999086380005
v 16.799978256225586 4.800009727478027 -4.391999244689941
v 3.1999881267547607 3.942575216293335 -4.391999244689941
v 3.1999881267547607 3.942575216293335 50.66682434082031
v 0 4.800009727478027 -4.391999244689941
v 16.800006866455078 -1.5999664068222046 3.607999086380005
v 16.800006866455078 -6.3999762535095215 -50.791988372802734
v 16.800006866455078 -6.3999762535095215 52.26681900024414
v 0 4.800009727478027 -4.391999244689941
v 0 4.800009727478027 50.66682434082031
v -3.1999881267547607 3.942575216293335 -4.391999244689941
v 5.542569160461426 1.6000217199325562 -4.391999244689941
v 5.542569160461426 1.6000217199325562 50.66682434082031
v 3.1999881267547607 3.942575216293335 -4.391999244689941
v -3.1999881267547607 3.942575216293335 -4.391999244689941
v -3.1999881267547607 3.942575216293335 50.66682434082031
v -5.542569160461426 1.6000217199325562 -4.391999244689941
v -16.800006866455078 -1.6000217199325562 3.607999086380005
v 16.800006866455078 -1.5999664068222046 3.607999086380005
v 16.800006866455078 -1.5999664068222046 52.26681900024414
v 3.1999881267547607 3.942575216293335 50.66682434082031
v 0 4.800009727478027 50.66682434082031
v 0 4.800009727478027 -4.391999244689941
v 0 4.800009727478027 50.66682434082031
v -3.1999881267547607 3.942575216293335 50.66682434082031
v -3.1999881267547607 3.942575216293335 -4.391999244689941
v 5.542569160461426 1.6000217199325562 50.66682434082031
v 3.1999881267547607 3.942575216293335 50.66682434082031
v 3.1999881267547607 3.942575216293335 -4.391999244689941
v -3.1999881267547607 3.942575216293335 50.66682434082031
v -5.542569160461426 1.6000217199325562 50.66682434082031
v -5.542569160461426 1.6000217199325562 -4.391999244689941
v 5.542569160461426 1.6000217199325562 50.66682434082031
v 5.542569160461426 1.6000217199325562 -4.391999244689941
v 6.400003910064697 -1.6000217199325562 50.66682434082031
v -5.542569160461426 1.6000217199325562 -4.391999244689941
v -5.542569160461426 1.6000217199325562 50.66682434082031
v -6.400003910064697 -1.6000217199325562 50.66682434082031
v 16.800006866455078 -1.5999664068222046 3.607999086380005
v 16.800006866455078 -6.3999762535095215 52.26681900024414
v 16.800006866455078 -1.5999664068222046 52.26681900024414
v -16.800006866455078 -1.6000217199325562 52.26681900024414
vt 0.06103217229247093 0.561018705368042
vt 0.06678436696529388 0.5606386661529541
vt 0.06685259193181992 0.561018705368042
vt 0.005627407692372799 0.5606386661529541
vt 0.06103217229247093 0.561018705368042
vt 0.06685259193181992 0.561018705368042
vt 0.06703568994998932 0.5613329410552979
vt 0.06103217229247093 0.561018705368042
vt 0.011558379977941513 0.561018705368042
vt 0.005627407692372799 0.5606386661529541
vt 0.0612260065972805 0.5613329410552979
vt 0.06103217229247093 0.561018705368042
vt 0.06703568994998932 0.5613329410552979
vt 0.011558379977941513 0.561018705368042
vt 0.005737852770835161 0.561018705368042
vt 0.06725068390369415 0.5600658655166626
vt 0.06685259193181992 0.561018705368042
vt 0.06678436696529388 0.5606386661529541
vt 0.011685249395668507 0.5607640743255615
vt 0.06111808866262436 0.5607640743255615
vt 0.0612260065972805 0.5613329410552979
vt 0.005737852770835161 0.561018705368042
vt 0.011558379977941513 0.561018705368042
vt 0.011844441294670105 0.5613329410552979
vt 0.06678436696529388 0.5606386661529541
vt 0.005627407692372799 0.5606386661529541
vt 0.006284392438828945 0.5593705773353577
vt 0.06725068390369415 0.5600658655166626
vt 0.06703568994998932 0.5613329410552979
vt 0.06685259193181992 0.561018705368042
vt 0.011685249395668507 0.5607640743255615
vt 0.011844441294670105 0.5613329410552979
vt 0.011558379977941513 0.561018705368042
vt 0.011844441294670105 0.5613329410552979
vt 0.00603475933894515 0.5613329410552979
vt 0.06725068390369415 0.5600658655166626
vt 0.06678436696529388 0.5606386661529541
vt 0.06718961894512177 0.5593705773353577
vt 0.06718961894512177 0.5593705773353577
vt 0.06703568994998932 0.5613329410552979
vt 0.06794314831495285 0.566399872303009
vt 0.0612260065972805 0.5613329410552979
vt 0.06794314831495285 0.566399872303009
vt 0.011844441294670105 0.5613329410552979
vt 0.06718961894512177 0.5593705773353577
vt 0.06725721061229706 0.559749960899353
vt 0.06725068390369415 0.5600658655166626
vt 0.06725068390369415 0.5600658655166626
vt 0.06794314831495285 0.566399872303009
vt 0.06703568994998932 0.5613329410552979
vt 0.0075064473785459995 0.566399872303009
vt 0.00603475933894515 0.5613329410552979
vt 0.06794314831495285 0.566399872303009
vt 0.0075064473785459995 0.566399872303009
vt 0.011844441294670105 0.5613329410552979
vt 0.06725068390369415 0.5600658655166626
vt 0.06826753169298172 0.5668153762817383
vt 0.06794314831495285 0.566399872303009
vt 0.008032456040382385 0.5668153762817383
vt 0.0075064473785459995 0.566399872303009
vt 0.06794314831495285 0.566399872303009
vt 0.06826753169298172 0.5668153762817383
vt 0.008032456040382385 0.5668153762817383
vt 0.06794314831495285 0.566399872303009
vt 0.04350731521844864 0.566331148147583
vt 0.044924359768629074 0.5726542472839355
vt 0.03772479668259621 0.566399872303009
vt 0.06826753169298172 0.5668153762817383
vt 0.06725068390369415 0.5600658655166626
vt 0.0693790391087532 0.572002649307251
vt 0.03772479668259621 0.566399872303009
vt 0.03920954093337059 0.5727234482765198
vt 0.031998079270124435 0.566331148147583
vt 0.04779024422168732 0.5661436915397644
vt 0.049156542867422104 0.572465181350708
vt 0.04350731521844864 0.566331148147583
vt 0.031998079270124435 0.566331148147583
vt 0.03354915231466293 0.5726542472839355
vt 0.027867604047060013 0.5661436915397644
vt 0.008032456040382385 0.5668153762817383
vt 0.06826753169298172 0.5668153762817383
vt 0.06926322728395462 0.572388768196106
vt 0.044924359768629074 0.5726542472839355
vt 0.03920954093337059 0.5727234482765198
vt 0.03772479668259621 0.566399872303009
vt 0.03920954093337059 0.5727234482765198
vt 0.03354915231466293 0.5726542472839355
vt 0.031998079270124435 0.566331148147583
vt 0.049156542867422104 0.572465181350708
vt 0.044924359768629074 0.5726542472839355
vt 0.04350731521844864 0.566331148147583
vt 0.03354915231466293 0.5726542472839355
vt 0.02946574054658413 0.572465181350708
vt 0.027867604047060013 0.5661436915397644
vt 0.049156542867422104 0.572465181350708
vt 0.04779024422168732 0.5661436915397644
vt 0.05077194422483444 0.5722073316574097
vt 0.027867604047060013 0.5661436915397644
vt 0.02946574054658413 0.572465181350708
vt 0.02805332839488983 0.5722073316574097
vt 0.06826753169298172 0.5668153762817383
vt 0.0693790391087532 0.572002649307251
vt 0.06926322728395462 0.572388768196106
vt 0.009647122584283352 0.572388768196106
vn 0 1 -0
vn 0 1 -0
vn 0 1 -0
vn 0 1 -0
vn 0 0.8320512771606445 0.5546988248825073
vn 0 0.8320512771606445 0.5546988248825073
vn 0 0.8320512771606445 0.5546988248825073
vn 0 1 0.000000573873876419384
vn 0 1 0.000000573873876419384
vn 0 1 0.000000573873876419384
vn 0 0.8320513963699341 0.5546985864639282
vn 0 0.8320513963699341 0.5546985864639282
vn 0 0.8320513963699341 0.5546985864639282
vn 0 1 -0
vn 0 1 -0
vn 1 0.0000018969737993757008 -0
vn 1 0.0000018969737993757008 -0
vn 1 0.0000018969737993757008 -0
vn 0 1 -0
vn 0 1 -0
vn 0 1 -0
vn 0 0.8320512175559998 0.5546987056732178
vn 0 0.8320512175559998 0.5546987056732178
vn 0 0.8320512175559998 0.5546987056732178
vn 0 -0 -1
vn 0 -0 -1
vn 0 -0 -1
vn 1 0.0000019511737718858058 0.0000013803744423057651
vn 1 0.0000019511737718858058 0.0000013803744423057651
vn 1 0.0000019511737718858058 0.0000013803744423057651
vn 1 -0 -0
vn 1 -0 -0
vn 1 -0 -0
vn 0 1 -0
vn 0 0.8320512175559998 0.5546987056732178
vn 0.9999999403953552 0.0000017885736269818153 -0.000000575165188365645
vn 0.9999999403953552 0.0000017885736269818153 -0.000000575165188365645
vn 0.9999999403953552 0.0000017885736269818153 -0.000000575165188365645
vn 0 -0 -1
vn 0 1 -0
vn 0 1 -0
vn 0 1 -0.000000005313645967675029
vn 0 1 -0.000000005313645967675029
vn 0 1 -0.000000005313645967675029
vn 1 -0 -0
vn 1 -0 -0
vn 1 -0 -0
vn 1 0.0000024776784357527504 -0
vn 1 0.0000024776784357527504 -0
vn 1 0.0000024776784357527504 -0
vn 0 1 -0
vn 0 1 -0
vn 0 0.9999999403953552 -0
vn 0 0.9999999403953552 -0
vn 0 0.9999999403953552 -0
vn 1 0.0000036180740607960615 -0.00000034281052307960636
vn 1 0.0000036180740607960615 -0.00000034281052307960636
vn 1 0.0000036180740607960615 -0.00000034281052307960636
vn 0 0.7808672189712524 0.6246970295906067
vn 0 0.7808672189712524 0.6246970295906067
vn 0 0.7808672189712524 0.6246970295906067
vn -0.0000012832862239520182 0.7808698415756226 0.6246936917304993
vn -0.0000012832862239520182 0.7808698415756226 0.6246936917304993
vn -0.0000012832862239520182 0.7808698415756226 0.6246936917304993
vn 0.2588191032409668 0.9659257531166077 -0
vn 0.2588191032409668 0.9659257531166077 -0
vn 0.2588191032409668 0.9659257531166077 -0
vn 1 -0.00000040389417677033634 -0
vn 1 -0.00000040389417677033634 -0
vn 1 -0.00000040389417677033634 -0
vn -0.2588191032409668 0.9659257531166077 -0
vn -0.2588191032409668 0.9659257531166077 -0
vn -0.2588191032409668 0.9659257531166077 -0
vn 0.7071026563644409 0.7071109414100647 -0
vn 0.7071026563644409 0.7071109414100647 -0
vn 0.7071026563644409 0.7071109414100647 -0
vn -0.7071026563644409 0.7071109414100647 -0
vn -0.7071026563644409 0.7071109414100647 -0
vn -0.7071026563644409 0.7071109414100647 -0
vn -0.000001643304358367459 0.9999999403953552 -0
vn -0.000001643304358367459 0.9999999403953552 -0
vn -0.000001643304358367459 0.9999999403953552 -0
vn 0.2588190734386444 0.9659257531166077 -0
vn 0.2588190734386444 0.9659257531166077 -0
vn 0.2588190734386444 0.9659257531166077 -0
vn -0.2588190734386444 0.9659257531166077 -0
vn -0.2588190734386444 0.9659257531166077 -0
vn -0.2588190734386444 0.9659257531166077 -0
vn 0.7071026563644409 0.7071108818054199 -0
vn 0.7071026563644409 0.7071108818054199 -0
vn 0.7071026563644409 0.7071108818054199 -0
vn -0.7071026563644409 0.7071108818054199 -0
vn -0.7071026563644409 0.7071108818054199 -0
vn -0.7071026563644409 0.7071108818054199 -0
vn 0.9659269452095032 0.25881490111351013 -0
vn 0.9659269452095032 0.25881490111351013 -0
vn 0.9659269452095032 0.25881490111351013 -0
vn -0.9659269452095032 0.25881490111351013 -0
vn -0.9659269452095032 0.25881490111351013 -0
vn -0.9659269452095032 0.25881490111351013 -0
vn 1 -0 -0
vn 1 -0 -0
vn 1 -0 -0
vn -0.000001643304358367459 0.9999999403953552 -0
f 3/3/3 2/2/2 1/1/1
f 2/2/2 4/4/4 1/1/1
f 7/7/7 6/6/6 5/5/5
f 10/10/10 9/9/9 8/8/8
f 13/13/13 12/12/12 11/11/11
f 4/4/4 15/15/15 14/14/14
f 18/18/18 17/17/17 16/16/16
f 21/21/21 20/20/20 19/19/19
f 24/24/24 23/23/23 22/22/22
f 27/27/27 26/26/26 25/25/25
f 30/30/30 29/29/29 28/28/28
f 33/33/33 32/32/32 31/31/31
f 21/21/21 19/19/19 34/34/34
f 24/24/24 22/22/22 35/35/35
f 38/38/38 37/37/37 36/36/36
f 27/27/27 25/25/25 39/39/39
f 41/41/41 40/40/40 21/21/21
f 44/44/44 43/43/43 42/42/42
f 47/47/47 46/46/46 45/45/45
f 50/50/50 49/49/49 48/48/48
f 34/34/34 52/52/52 51/51/51
f 55/55/55 54/54/54 53/53/53
f 58/58/58 57/57/57 56/56/56
f 61/61/61 60/60/60 59/59/59
f 64/64/64 63/63/63 62/62/62
f 67/67/67 66/66/66 65/65/65
f 70/70/70 69/69/69 68/68/68
f 73/73/73 72/72/72 71/71/71
f 76/76/76 75/75/75 74/74/74
f 79/79/79 78/78/78 77/77/77
f 82/82/82 81/81/81 80/80/80
f 85/85/85 84/84/84 83/83/83
f 88/88/88 87/87/87 86/86/86
f 91/91/91 90/90/90 89/89/89
f 94/94/94 93/93/93 92/92/92
f 97/97/97 96/96/96 95/95/95
f 100/100/100 99/99/99 98/98/98
f 103/103/103 102/102/102 101/101/101
f 82/82/82 80/80/80 104/104/104
