# VPXTOOL table OBJ file
# VPXTOOL OBJ file
# numVerts: 96 numFaces: 102
o LM_inserts_L03_sw05
v 13.599907875061035 7.999942779541016 -52.39198684692383
v 16.799951553344727 7.999998092651367 -55.591983795166016
v 16.799951553344727 7.999998092651367 -52.39198684692383
v 13.599907875061035 7.999942779541016 -52.39198684692383
v -16.80006217956543 7.999998092651367 -55.591983795166016
v 16.799951553344727 7.999998092651367 -55.591983795166016
v 13.599907875061035 7.999942779541016 -52.39198684692383
v 16.799951553344727 7.999998092651367 -52.39198684692383
v 16.799896240234375 4.799954414367676 -47.59198760986328
v 13.599907875061035 7.999942779541016 -52.39198684692383
v -13.600018501281738 7.999998092651367 -52.39198684692383
v -16.80006217956543 7.999998092651367 -55.591983795166016
v 13.599907875061035 4.799954414367676 -52.39198684692383
v 13.599907875061035 7.999942779541016 -52.39198684692383
v 13.599907875061035 4.799954414367676 -47.59198760986328
v 13.599907875061035 4.799954414367676 -47.59198760986328
v 13.599907875061035 7.999942779541016 -52.39198684692383
v 16.799896240234375 4.799954414367676 -47.59198760986328
v -13.600018501281738 7.999998092651367 -52.39198684692383
v -16.80006217956543 7.999998092651367 -52.39198684692383
v -16.80006217956543 7.999998092651367 -55.591983795166016
v -13.60007381439209 4.799954414367676 -52.39198684692383
v 13.599907875061035 4.799954414367676 -52.39198684692383
v 13.599907875061035 4.799954414367676 -47.59198760986328
v -16.80006217956543 7.999998092651367 -52.39198684692383
v -13.600018501281738 7.999998092651367 -52.39198684692383
v -13.60007381439209 4.799954414367676 -47.59198760986328
v 16.799951553344727 7.999998092651367 -55.591983795166016
v -16.80006217956543 7.999998092651367 -55.591983795166016
v -16.799951553344727 -8.000053405761719 -55.591983795166016
v -13.60007381439209 4.799954414367676 -47.59198760986328
v -16.799951553344727 4.799954414367676 -47.59198760986328
v -16.80006217956543 7.999998092651367 -52.39198684692383
v -13.60007381439209 4.799954414367676 -47.59198760986328
v -16.80006217956543 -6.400086879730225 -50.791988372802734
v -16.80006217956543 7.999998092651367 -55.591983795166016
v -16.80006217956543 7.999998092651367 -52.39198684692383
v 16.800006866455078 -8.000053405761719 -55.591983795166016
v 16.799951553344727 7.999998092651367 -55.591983795166016
v -16.799951553344727 -8.000053405761719 -55.591983795166016
v -16.80006217956543 -6.400086879730225 -50.791988372802734
v -16.80006217956543 7.999998092651367 -52.39198684692383
v -16.799951553344727 4.799954414367676 -47.59198760986328
v 16.799896240234375 4.799954414367676 -47.59198760986328
v 16.799896240234375 4.799954414367676 -4.391999244689941
v -16.80006217956543 -6.400086879730225 -50.791988372802734
v -16.799951553344727 -8.000053405761719 -55.591983795166016
v -16.80006217956543 7.999998092651367 -55.591983795166016
v 13.599907875061035 4.799954414367676 -47.59198760986328
v 16.799896240234375 4.799954414367676 -4.391999244689941
v -13.60007381439209 4.799954414367676 -47.59198760986328
v -16.799951553344727 4.799954414367676 -4.391999244689941
v -16.799951553344727 4.799954414367676 -47.59198760986328
v -16.80006217956543 -6.400086879730225 -50.791988372802734
v -16.799951553344727 -8.000053405761719 -52.39198684692383
v -16.799951553344727 -8.000053405761719 -55.591983795166016
v -16.80006217956543 -6.400086879730225 -50.791988372802734
v -16.799951553344727 4.799954414367676 -47.59198760986328
v -16.799951553344727 4.799954414367676 -4.391999244689941
v 16.799896240234375 4.799954414367676 -4.391999244689941
v -16.799951553344727 4.799954414367676 -4.391999244689941
v -13.60007381439209 4.799954414367676 -47.59198760986328
v -16.80006217956543 -6.400086879730225 -50.791988372802734
v -16.799951553344727 4.799954414367676 -4.391999244689941
v -16.80006217956543 -1.6000217199325562 3.607999086380005
v 3.1999881267547607 3.9425201416015625 -4.391999244689941
v 3.1999881267547607 3.9425201416015625 50.66682434082031
v -0.00005521504863281734 4.799954414367676 -4.391999244689941
v -0.00005521504863281734 4.799954414367676 -4.391999244689941
v -0.00005521504863281734 4.799954414367676 50.66682434082031
v -3.2000985145568848 3.9425201416015625 -4.391999244689941
v -3.2000985145568848 3.9425201416015625 -4.391999244689941
v -3.2000985145568848 3.9425201416015625 50.66682434082031
v -5.542707443237305 1.5999664068222046 -4.391999244689941
v -16.80006217956543 -1.6000217199325562 3.607999086380005
v -16.80006217956543 -6.400086879730225 52.26681900024414
v -16.80006217956543 -6.400086879730225 -50.791988372802734
v -16.80006217956543 -1.6000217199325562 3.607999086380005
v 16.799951553344727 -1.6000217199325562 3.607999086380005
v 16.799951553344727 -1.6000217199325562 52.26681900024414
v 3.1999881267547607 3.9425201416015625 50.66682434082031
v -0.00005521504863281734 4.799954414367676 50.66682434082031
v -0.00005521504863281734 4.799954414367676 -4.391999244689941
v -0.00005521504863281734 4.799954414367676 50.66682434082031
v -3.2000985145568848 3.9425201416015625 50.66682434082031
v -3.2000985145568848 3.9425201416015625 -4.391999244689941
v -3.2000985145568848 3.9425201416015625 50.66682434082031
v -5.542707443237305 1.5999664068222046 50.66682434082031
v -5.542707443237305 1.5999664068222046 -4.391999244689941
v -5.542707443237305 1.5999664068222046 -4.391999244689941
v -5.542707443237305 1.5999664068222046 50.66682434082031
v -6.400031566619873 -1.6000217199325562 50.66682434082031
v -16.80006217956543 -1.6000217199325562 52.26681900024414
v -16.80006217956543 -1.6000217199325562 3.607999086380005
v -16.80006217956543 -1.6000217199325562 52.26681900024414
v -16.80006217956543 -6.400086879730225 52.26681900024414
vt 0.06433858722448349 0.4374561905860901
vt 0.06700453162193298 0.43677574396133423
vt 0.06750243157148361 0.4371710419654846
vt 0.06433858722448349 0.4374561905860901
vt 0.03348683565855026 0.4397923946380615
vt 0.06700453162193298 0.43677574396133423
vt 0.06433858722448349 0.4374561905860901
vt 0.06750243157148361 0.4371710419654846
vt 0.06261537224054337 0.43763601779937744
vt 0.06433858722448349 0.4374561905860901
vt 0.03722996264696121 0.43989914655685425
vt 0.03348683565855026 0.4397923946380615
vt 0.0586962029337883 0.43732917308807373
vt 0.06433858722448349 0.4374561905860901
vt 0.059452157467603683 0.43792110681533813
vt 0.059452157467603683 0.43792110681533813
vt 0.06433858722448349 0.4374561905860901
vt 0.06261537224054337 0.43763601779937744
vt 0.03722996264696121 0.43989914655685425
vt 0.03401516005396843 0.4401888847351074
vt 0.03348683565855026 0.4397923946380615
vt 0.0315573625266552 0.43977034091949463
vt 0.0586962029337883 0.43732917308807373
vt 0.059452157467603683 0.43792110681533813
vt 0.03401516005396843 0.4401888847351074
vt 0.03722996264696121 0.43989914655685425
vt 0.03235006332397461 0.44036364555358887
vt 0.06700453162193298 0.43677574396133423
vt 0.03348683565855026 0.4397923946380615
vt 0.005127520300447941 0.4391483664512634
vt 0.03235006332397461 0.44036364555358887
vt 0.029135996475815773 0.44065332412719727
vt 0.03401516005396843 0.4401888847351074
vt 0.03235006332397461 0.44036364555358887
vt 0.008779049851000309 0.43980681896209717
vt 0.03348683565855026 0.4397923946380615
vt 0.03401516005396843 0.4401888847351074
vt 0.03883146867156029 0.4361429214477539
vt 0.06700453162193298 0.43677574396133423
vt 0.005127520300447941 0.4391483664512634
vt 0.008779049851000309 0.43980681896209717
vt 0.03401516005396843 0.4401888847351074
vt 0.029135996475815773 0.44065332412719727
vt 0.06261537224054337 0.43763601779937744
vt 0.06930366158485413 0.4429013133049011
vt 0.008779049851000309 0.43980681896209717
vt 0.005127520300447941 0.4391483664512634
vt 0.03348683565855026 0.4397923946380615
vt 0.059452157467603683 0.43792110681533813
vt 0.06930366158485413 0.4429013133049011
vt 0.03235006332397461 0.44036364555358887
vt 0.03622816875576973 0.4459335207939148
vt 0.029135996475815773 0.44065332412719727
vt 0.008779049851000309 0.43980681896209717
vt 0.005676797591149807 0.4395446181297302
vt 0.005127520300447941 0.4391483664512634
vt 0.008779049851000309 0.43980681896209717
vt 0.029135996475815773 0.44065332412719727
vt 0.03622816875576973 0.4459335207939148
vt 0.06930366158485413 0.4429013133049011
vt 0.03622816875576973 0.4459335207939148
vt 0.03235006332397461 0.44036364555358887
vt 0.008779049851000309 0.43980681896209717
vt 0.03622816875576973 0.4459335207939148
vt 0.026330439373850822 0.4466399550437927
vt 0.054487500339746475 0.4440878629684448
vt 0.06303557008504868 0.45065128803253174
vt 0.052837878465652466 0.4444108009338379
vt 0.052837878465652466 0.4444108009338379
vt 0.06141500547528267 0.45097607374191284
vt 0.04818570986390114 0.4446653127670288
vt 0.04818570986390114 0.4446653127670288
vt 0.056829165667295456 0.45123201608657837
vt 0.04177653044462204 0.4447827935218811
vt 0.026330439373850822 0.4466399550437927
vt 0.025944672524929047 0.45223987102508545
vt 0.008779049851000309 0.43980681896209717
vt 0.026330439373850822 0.4466399550437927
vt 0.05940467491745949 0.4436095952987671
vt 0.06686945259571075 0.44938963651657104
vt 0.06303557008504868 0.45065128803253174
vt 0.06141500547528267 0.45097607374191284
vt 0.052837878465652466 0.4444108009338379
vt 0.06141500547528267 0.45097607374191284
vt 0.056829165667295456 0.45123201608657837
vt 0.04818570986390114 0.4446653127670288
vt 0.056829165667295456 0.45123201608657837
vt 0.05050579458475113 0.4513501524925232
vt 0.04177653044462204 0.4447827935218811
vt 0.04177653044462204 0.4447827935218811
vt 0.05050579458475113 0.4513501524925232
vt 0.04414578154683113 0.4512985944747925
vt 0.03423847258090973 0.45243513584136963
vt 0.026330439373850822 0.4466399550437927
vt 0.03423847258090973 0.45243513584136963
vt 0.025944672524929047 0.45223987102508545
vn -0.000017254486010642722 1 -0
vn -0.000017254486010642722 1 -0
vn -0.000017254486010642722 1 -0
vn 0 1 0.000017188871424878016
vn 0 1 0.000017188871424878016
vn 0 1 0.000017188871424878016
vn -0.00001441898348275572 0.832046627998352 0.5547055602073669
vn -0.00001441898348275572 0.832046627998352 0.5547055602073669
vn -0.00001441898348275572 0.832046627998352 0.5547055602073669
vn 0.0000020299726202210877 1 -0.0000022955002805247204
vn 0.0000020299726202210877 1 -0.0000022955002805247204
vn 0.0000020299726202210877 1 -0.0000022955002805247204
vn -1 -0 -0
vn -1 -0 -0
vn -1 -0 -0
vn 0 0.8320510983467102 0.5546988844871521
vn 0 0.8320510983467102 0.5546988844871521
vn 0 0.8320510983467102 0.5546988844871521
vn 0 1 -0
vn 0 1 -0
vn 0 1 -0
vn 0 1 -0
vn 0 1 -0
vn 0 1 -0
vn 0 0.832046627998352 0.5547055602073669
vn 0 0.832046627998352 0.5547055602073669
vn 0 0.832046627998352 0.5547055602073669
vn 0 -0 -1
vn 0 -0 -1
vn 0 -0 -1
vn 0 1 -0
vn 0 0.8320469260215759 0.5547052621841431
vn 0 0.8320469260215759 0.5547052621841431
vn 0 0.8320469260215759 0.5547052621841431
vn -1 -0.00000027099449084744265 -0
vn -1 -0.00000027099449084744265 -0
vn -1 -0.00000027099449084744265 -0
vn 0 -0 -0.9999999403953552
vn 0 -0 -0.9999999403953552
vn 0 -0 -0.9999999403953552
vn -1 0.0000028291799480939517 0.00002484678589098621
vn -1 0.0000028291799480939517 0.00002484678589098621
vn -1 0.0000028291799480939517 0.00002484678589098621
vn 0 1 -0
vn 0 1 -0
vn -1 -0.000006829066478530876 -0.000020705689166788943
vn -1 -0.000006829066478530876 -0.000020705689166788943
vn -1 -0.000006829066478530876 -0.000020705689166788943
vn 0 1 0.000000013284116029410598
vn 0 1 0.000000013284116029410598
vn 0 1 0.000000013284116029410598
vn 0 1 -0
vn 0 1 -0
vn -0.9999999403953552 -0.00006951185059733689 -0
vn -0.9999999403953552 -0.00006951185059733689 -0
vn -0.9999999403953552 -0.00006951185059733689 -0
vn -1 0.000009910665539791808 -0
vn -1 0.000009910665539791808 -0
vn -1 0.000009910665539791808 -0
vn 0 1 -0.000000017206158275939742
vn 0 1 -0.000000017206158275939742
vn 0 1 -0.000000017206158275939742
vn -1 0.00001576444810780231 -0.0000013712564168599783
vn -1 0.00001576444810780231 -0.0000013712564168599783
vn -1 0.00001576444810780231 -0.0000013712564168599783
vn 0.2588149309158325 0.9659268856048584 -0
vn 0.2588149309158325 0.9659268856048584 -0
vn 0.2588149309158325 0.9659268856048584 -0
vn -0.2588149607181549 0.9659269452095032 -0
vn -0.2588149607181549 0.9659269452095032 -0
vn -0.2588149607181549 0.9659269452095032 -0
vn -0.7070984840393066 0.707115113735199 -0
vn -0.7070984840393066 0.707115113735199 -0
vn -0.7070984840393066 0.707115113735199 -0
vn -1 -0.0000004038895440316992 -0
vn -1 -0.0000004038895440316992 -0
vn -1 -0.0000004038895440316992 -0
vn 0 0.9999999403953552 -0
vn 0 0.9999999403953552 -0
vn 0 0.9999999403953552 -0
vn 0.2588149607181549 0.9659269452095032 -0
vn 0.2588149607181549 0.9659269452095032 -0
vn 0.2588149607181549 0.9659269452095032 -0
vn -0.2588149309158325 0.9659268856048584 -0
vn -0.2588149309158325 0.9659268856048584 -0
vn -0.2588149309158325 0.9659268856048584 -0
vn -0.7070984840393066 0.7071151733398438 -0
vn -0.7070984840393066 0.7071151733398438 -0
vn -0.7070984840393066 0.7071151733398438 -0
vn -0.9659342169761658 0.25878793001174927 -0
vn -0.9659342169761658 0.25878793001174927 -0
vn -0.9659342169761658 0.25878793001174927 -0
vn 0 0.9999999403953552 -0
vn -1 -0 -0
vn -1 -0 -0
vn -1 -0 -0
f 3/3/3 2/2/2 1/1/1
f 6/6/6 5/5/5 4/4/4
f 9/9/9 8/8/8 7/7/7
f 12/12/12 11/11/11 10/10/10
f 15/15/15 14/14/14 13/13/13
f 18/18/18 17/17/17 16/16/16
f 21/21/21 20/20/20 19/19/19
f 24/24/24 23/23/23 22/22/22
f 27/27/27 26/26/26 25/25/25
f 30/30/30 29/29/29 28/28/28
f 24/24/24 22/22/22 31/31/31
f 34/34/34 33/33/33 32/32/32
f 37/37/37 36/36/36 35/35/35
f 40/40/40 39/39/39 38/38/38
f 43/43/43 42/42/42 41/41/41
f 45/45/45 44/44/44 24/24/24
f 48/48/48 47/47/47 46/46/46
f 51/51/51 50/50/50 49/49/49
f 31/31/31 53/53/53 52/52/52
f 56/56/56 55/55/55 54/54/54
f 59/59/59 58/58/58 57/57/57
f 62/62/62 61/61/61 60/60/60
f 65/65/65 64/64/64 63/63/63
f 68/68/68 67/67/67 66/66/66
f 71/71/71 70/70/70 69/69/69
f 74/74/74 73/73/73 72/72/72
f 77/77/77 76/76/76 75/75/75
f 80/80/80 79/79/79 78/78/78
f 83/83/83 82/82/82 81/81/81
f 86/86/86 85/85/85 84/84/84
f 89/89/89 88/88/88 87/87/87
f 92/92/92 91/91/91 90/90/90
f 80/80/80 78/78/78 93/93/93
f 96/96/96 95/95/95 94/94/94
