# VPXTOOL table OBJ file
# VPXTOOL OBJ file
# numVerts: 116 numFaces: 180
o LM_Journey_L78_PF
v 329.0467224121094 1071.980712890625 0.030000003054738045
v 445.1749572753906 1184.5185546875 0.030000003054738045
v 335.7190246582031 1152.8602294921875 0.030000003054738045
v 445.1874084472656 1183.9853515625 0.030000003054738045
v 226.2631072998047 1121.2021484375 0.030000003054738045
v 335.7190246582031 1152.8602294921875 0.030000003054738045
v 342.391357421875 1233.7398681640625 0.030000003054738045
v 226.2631072998047 1121.2021484375 0.030000003054738045
v 342.391357421875 1233.7398681640625 0.030000003054738045
v 232.93545532226563 1202.081787109375 0.030000003054738045
v 232.95616149902344 1202.371826171875 0.030000003054738045
v 232.93545532226563 1202.081787109375 0.030000003054738045
v 342.391357421875 1233.7398681640625 0.030000003054738045
v 233.01412963867188 1202.67236328125 0.030000003054738045
v 232.95616149902344 1202.371826171875 0.030000003054738045
v 342.4327697753906 1234.3201904296875 0.030000003054738045
v 233.1197509765625 1202.97021484375 0.030000003054738045
v 233.01412963867188 1202.67236328125 0.030000003054738045
v 342.5487365722656 1234.9212646484375 0.030000003054738045
v 233.2833251953125 1203.2523193359375 0.030000003054738045
v 233.1197509765625 1202.97021484375 0.030000003054738045
v 342.760009765625 1235.516845703125 0.030000003054738045
v 233.51522827148438 1203.505615234375 0.030000003054738045
v 233.2833251953125 1203.2523193359375 0.030000003054738045
v 343.087158203125 1236.0811767578125 0.030000003054738045
v 232.95616149902344 1202.371826171875 0.030000003054738045
v 342.4327697753906 1234.3201904296875 0.030000003054738045
v 233.01412963867188 1202.67236328125 0.030000003054738045
v 342.5487365722656 1234.9212646484375 0.030000003054738045
v 233.1197509765625 1202.97021484375 0.030000003054738045
v 342.760009765625 1235.516845703125 0.030000003054738045
v 233.2833251953125 1203.2523193359375 0.030000003054738045
v 343.087158203125 1236.0811767578125 0.030000003054738045
v 233.51522827148438 1203.505615234375 0.030000003054738045
v 343.087158203125 1236.0811767578125 0.030000003054738045
v 343.55096435546875 1236.587890625 0.030000003054738045
v 561.328125 1295.9898681640625 0.030000003054738045
v 451.8472595214844 1265.3980712890625 0.030000003054738045
v 342.4327697753906 1234.3201904296875 0.030000003054738045
v 342.391357421875 1233.7398681640625 0.030000003054738045
v 451.8472595214844 1265.3980712890625 0.030000003054738045
v 342.5487365722656 1234.9212646484375 0.030000003054738045
v 342.4327697753906 1234.3201904296875 0.030000003054738045
v 451.9093933105469 1266.2684326171875 0.030000003054738045
v 342.760009765625 1235.516845703125 0.030000003054738045
v 342.5487365722656 1234.9212646484375 0.030000003054738045
v 452.0833740234375 1267.1700439453125 0.030000003054738045
v 452.4002380371094 1268.0635986328125 0.030000003054738045
v 343.55096435546875 1236.587890625 0.030000003054738045
v 343.087158203125 1236.0811767578125 0.030000003054738045
v 452.8909606933594 1268.909912109375 0.030000003054738045
v 561.30322265625 1297.056396484375 0.030000003054738045
v 343.55096435546875 1236.587890625 0.030000003054738045
v 273.09814453125 1350.6187744140625 0.030000003054738045
v 233.51522827148438 1203.505615234375 0.030000003054738045
v 451.86798095703125 1265.6881103515625 0.030000003054738045
v 451.9093933105469 1266.2684326171875 0.030000003054738045
v 451.9673767089844 1266.5689697265625 0.030000003054738045
v 452.0833740234375 1267.1700439453125 0.030000003054738045
v 452.1889953613281 1267.4678955078125 0.030000003054738045
v 452.4002380371094 1268.0635986328125 0.030000003054738045
v 452.5638122558594 1268.345703125 0.030000003054738045
v 343.087158203125 1236.0811767578125 0.030000003054738045
v 452.8909606933594 1268.909912109375 0.030000003054738045
v 452.5638122558594 1268.345703125 0.030000003054738045
v 453.12286376953125 1269.163330078125 0.030000003054738045
v 343.55096435546875 1236.587890625 0.030000003054738045
v 453.586669921875 1269.6700439453125 0.030000003054738045
v 561.328125 1295.9898681640625 0.030000003054738045
v 561.30322265625 1297.056396484375 0.030000003054738045
v 445.1749572753906 1184.5185546875 0.030000003054738045
v 561.3860473632813 1298.2169189453125 0.030000003054738045
v 561.6179809570313 1299.4189453125 0.030000003054738045
v 562.0404663085938 1300.6104736328125 0.030000003054738045
v 562.6947631835938 1301.73876953125 0.030000003054738045
v 453.586669921875 1269.6700439453125 0.030000003054738045
v 453.12286376953125 1269.163330078125 0.030000003054738045
v 562.6947631835938 1301.73876953125 0.030000003054738045
v 561.30322265625 1297.056396484375 0.030000003054738045
v 561.3860473632813 1298.2169189453125 0.030000003054738045
v 451.9093933105469 1266.2684326171875 0.030000003054738045
v 561.3860473632813 1298.2169189453125 0.030000003054738045
v 561.6179809570313 1299.4189453125 0.030000003054738045
v 452.0833740234375 1267.1700439453125 0.030000003054738045
v 561.6179809570313 1299.4189453125 0.030000003054738045
v 562.0404663085938 1300.6104736328125 0.030000003054738045
v 452.4002380371094 1268.0635986328125 0.030000003054738045
v 562.0404663085938 1300.6104736328125 0.030000003054738045
v 562.6947631835938 1301.73876953125 0.030000003054738045
v 452.8909606933594 1268.909912109375 0.030000003054738045
v 562.6947631835938 1301.73876953125 0.030000003054738045
v 563.6223754882813 1302.752197265625 0.030000003054738045
v 453.586669921875 1269.6700439453125 0.030000003054738045
v 453.586669921875 1269.6700439453125 0.030000003054738045
v 383.1338806152344 1383.700927734375 0.030000003054738045
v 343.55096435546875 1236.587890625 0.030000003054738045
v 328.11602783203125 1367.1597900390625 0.030000003054738045
v 273.09814453125 1350.6187744140625 0.030000003054738045
v 343.55096435546875 1236.587890625 0.030000003054738045
v 383.1338806152344 1383.700927734375 0.030000003054738045
v 563.6223754882813 1302.752197265625 0.030000003054738045
v 493.16961669921875 1416.783203125 0.030000003054738045
v 438.1517333984375 1400.2421875 0.030000003054738045
v 383.1338806152344 1383.700927734375 0.030000003054738045
v 453.586669921875 1269.6700439453125 0.030000003054738045
v 493.16961669921875 1416.783203125 0.030000003054738045
v 438.1517333984375 1400.2421875 0.030000003054738045
v 453.586669921875 1269.6700439453125 0.030000003054738045
v 383.1338806152344 1383.700927734375 0.030000003054738045
v 312.68109130859375 1497.7320556640625 0.030000003054738045
v 328.11602783203125 1367.1597900390625 0.030000003054738045
v 438.1517333984375 1400.2421875 0.030000003054738045
v 422.716796875 1530.8140869140625 0.030000003054738045
v 422.716796875 1530.8140869140625 0.030000003054738045
v 312.68109130859375 1497.7320556640625 0.030000003054738045
v 383.1338806152344 1383.700927734375 0.030000003054738045
vt 0.4519927203655243 0.9067419767379761
vt 0.544485330581665 0.89774090051651
vt 0.5178539752960205 0.906478226184845
vt 0.544032633304596 0.8977395296096802
vt 0.49170878529548645 0.9150561094284058
vt 0.5178539752960205 0.906478226184845
vt 0.5868883728981018 0.9062017798423767
vt 0.49170878529548645 0.9150561094284058
vt 0.5868883728981018 0.9062017798423767
vt 0.5594744086265564 0.9149869680404663
vt 0.5597232580184937 0.9149869680404663
vt 0.5594744086265564 0.9149869680404663
vt 0.5868883728981018 0.9062017798423767
vt 0.5599811673164368 0.9149839878082275
vt 0.5597232580184937 0.9149869680404663
vt 0.5873957276344299 0.9062002897262573
vt 0.5602367520332336 0.9149771332740784
vt 0.5599811673164368 0.9149839878082275
vt 0.5879213809967041 0.9061927199363708
vt 0.560478925704956 0.9149655103683472
vt 0.5602367520332336 0.9149771332740784
vt 0.5884426236152649 0.9061773419380188
vt 0.5606963038444519 0.9149481058120728
vt 0.560478925704956 0.9149655103683472
vt 0.588936448097229 0.9061523675918579
vt 0.5597232580184937 0.9149869680404663
vt 0.5873957276344299 0.9062002897262573
vt 0.5599811673164368 0.9149839878082275
vt 0.5879213809967041 0.9061927199363708
vt 0.5602367520332336 0.9149771332740784
vt 0.5884426236152649 0.9061773419380188
vt 0.560478925704956 0.9149655103683472
vt 0.588936448097229 0.9061523675918579
vt 0.5606963038444519 0.9149481058120728
vt 0.588936448097229 0.9061523675918579
vt 0.5893800258636475 0.9061159491539001
vt 0.642329216003418 0.8881251811981201
vt 0.6148243546485901 0.8972494006156921
vt 0.5873957276344299 0.9062002897262573
vt 0.5868883728981018 0.9062017798423767
vt 0.6148243546485901 0.8972494006156921
vt 0.5879213809967041 0.9061927199363708
vt 0.5873957276344299 0.9062002897262573
vt 0.615600049495697 0.8972447514533997
vt 0.5884426236152649 0.9061773419380188
vt 0.5879213809967041 0.9061927199363708
vt 0.6164038181304932 0.8972309231758118
vt 0.6172009110450745 0.8972052335739136
vt 0.5893800258636475 0.9061159491539001
vt 0.588936448097229 0.9061523675918579
vt 0.617956280708313 0.897165060043335
vt 0.6432973742485046 0.888124942779541
vt 0.5893800258636475 0.9061159491539001
vt 0.6927374005317688 0.9124809503555298
vt 0.5606963038444519 0.9149481058120728
vt 0.6150828003883362 0.897247850894928
vt 0.615600049495697 0.8972447514533997
vt 0.6158678531646729 0.897240161895752
vt 0.6164038181304932 0.8972309231758118
vt 0.6166694164276123 0.8972223401069641
vt 0.6172009110450745 0.8972052335739136
vt 0.6174526810646057 0.8971918225288391
vt 0.588936448097229 0.9061523675918579
vt 0.617956280708313 0.897165060043335
vt 0.6174526810646057 0.8971918225288391
vt 0.6181824207305908 0.8971459865570068
vt 0.5893800258636475 0.9061159491539001
vt 0.6186348795890808 0.8971078395843506
vt 0.642329216003418 0.8881251811981201
vt 0.6432973742485046 0.888124942779541
vt 0.544485330581665 0.89774090051651
vt 0.6443514823913574 0.8881155252456665
vt 0.6454441547393799 0.8880934715270996
vt 0.6465280055999756 0.8880555629730225
vt 0.6475552320480347 0.8879983425140381
vt 0.6186348795890808 0.8971078395843506
vt 0.6181824207305908 0.8971459865570068
vt 0.6475552320480347 0.8879983425140381
vt 0.6432973742485046 0.888124942779541
vt 0.6443514823913574 0.8881155252456665
vt 0.615600049495697 0.8972447514533997
vt 0.6443514823913574 0.8881155252456665
vt 0.6454441547393799 0.8880934715270996
vt 0.6164038181304932 0.8972309231758118
vt 0.6454441547393799 0.8880934715270996
vt 0.6465280055999756 0.8880555629730225
vt 0.6172009110450745 0.8972052335739136
vt 0.6465280055999756 0.8880555629730225
vt 0.6475552320480347 0.8879983425140381
vt 0.617956280708313 0.897165060043335
vt 0.6475552320480347 0.8879983425140381
vt 0.6484783887863159 0.8879185318946838
vt 0.6186348795890808 0.8971078395843506
vt 0.6186348795890808 0.8971078395843506
vt 0.7240982055664063 0.9032182693481445
vt 0.5893800258636475 0.9061159491539001
vt 0.7083373069763184 0.9078733921051025
vt 0.6927374005317688 0.9124809503555298
vt 0.5893800258636475 0.9061159491539001
vt 0.7240982055664063 0.9032182693481445
vt 0.6484783887863159 0.8879185318946838
vt 0.7561126947402954 0.8937625288963318
vt 0.7400224804878235 0.8985149264335632
vt 0.7240982055664063 0.9032182693481445
vt 0.6186348795890808 0.8971078395843506
vt 0.7561126947402954 0.8937625288963318
vt 0.7400224804878235 0.8985149264335632
vt 0.6186348795890808 0.8971078395843506
vt 0.7240982055664063 0.9032182693481445
vt 0.8373361825942993 0.9097791314125061
vt 0.7083373069763184 0.9078733921051025
vt 0.7400224804878235 0.8985149264335632
vt 0.8717673420906067 0.9000420570373535
vt 0.8717673420906067 0.9000420570373535
vt 0.8373361825942993 0.9097791314125061
vt 0.7240982055664063 0.9032182693481445
vn 0 -0 -1
vn 0 -0 -1
vn 0 -0 -1
vn 0 -0 -1
vn 0.00000000002257905321045861 -0 -1
vn 0.00000000002257905321045861 -0 -1
vn 0.00000000002257905321045861 -0 -1
vn 0 -0 -1
vn 0 -0 -1
vn 0 -0 -1
vn -0.00000000014696563410687702 -0 -1
vn -0.00000000014696563410687702 -0 -1
vn -0.00000000014696563410687702 -0 -1
vn -0.0000000005891168664007296 -0 -1
vn -0.0000000005891168664007296 -0 -1
vn -0.0000000005891168664007296 -0 -1
vn -0.0000000003648074620166142 -0 -1
vn -0.0000000003648074620166142 -0 -1
vn -0.0000000003648074620166142 -0 -1
vn -0.0000000006548064312994484 -0 -1
vn -0.0000000006548064312994484 -0 -1
vn -0.0000000006548064312994484 -0 -1
vn 0.0000000003017956717865644 -0 -1
vn 0.0000000003017956717865644 -0 -1
vn 0.0000000003017956717865644 -0 -1
vn 0 -0 -1
vn 0 -0 -1
vn 0 -0 -1
vn 0 -0 -1
vn 0 -0 -1
vn 0 -0 -1
vn 0 -0 -1
vn 0 -0 -1
vn 0 -0 -0.9999999403953552
vn 0 -0 -0.9999999403953552
vn 0 -0 -0.9999999403953552
vn 0 -0 -1
vn 0 -0 -1
vn -0.000000000049008790081739306 -0 -1
vn -0.000000000049008790081739306 -0 -1
vn -0.000000000049008790081739306 -0 -1
vn -0.0000000004418872212585967 -0 -1
vn -0.0000000004418872212585967 -0 -1
vn -0.0000000004418872212585967 -0 -1
vn -0.0000000006258678575399301 -0 -1
vn -0.0000000006258678575399301 -0 -1
vn -0.0000000006258678575399301 -0 -1
vn 0 -0 -1
vn 0.00000000030192257027827907 -0 -1
vn 0.00000000030192257027827907 -0 -1
vn 0.00000000030192257027827907 -0 -1
vn 0 -0 -1
vn 0.00000000005245706299894515 -0 -1
vn 0.00000000005245706299894515 -0 -1
vn 0.00000000005245706299894515 -0 -1
vn 0 -0 -1
vn 0 -0 -1
vn 0 -0 -1
vn 0 -0 -1
vn 0 -0 -1
vn 0.0000000002974190893567652 -0 -1
vn 0.0000000002974190893567652 -0 -1
vn 0.0000000002974190893567652 -0 -1
vn 0 -0 -1
vn 0 -0 -1
vn 0 -0 -1
vn 0 -0 -1
vn 0 -0 -1
vn -0.0000000004814715848233675 -0 -1
vn -0.0000000004814715848233675 -0 -1
vn -0.0000000004814715848233675 -0 -1
vn 0 -0 -1
vn 0 -0 -1
vn 0 -0 -1
vn 0 -0 -1
vn 0.0000000005277197012709678 -0 -1
vn 0.0000000005277197012709678 -0 -1
vn 0.0000000005277197012709678 -0 -1
vn 0.00000000009800963512995864 -0 -1
vn 0.00000000009800963512995864 -0 -1
vn 0.00000000009800963512995864 -0 -1
vn 0.0000000004910227224819153 -0 -1
vn 0.0000000004910227224819153 -0 -1
vn 0.0000000004910227224819153 -0 -1
vn 0.0000000005217291043635441 -0 -1
vn 0.0000000005217291043635441 -0 -1
vn 0.0000000005217291043635441 -0 -1
vn 0.0000000004763477945424199 -0 -1
vn 0.0000000004763477945424199 -0 -1
vn 0.0000000004763477945424199 -0 -1
vn -0.0000000004526968799822839 -0 -1
vn -0.0000000004526968799822839 -0 -1
vn -0.0000000004526968799822839 -0 -1
vn 0.00000000005245701789613477 -0 -1
vn 0.00000000005245701789613477 -0 -1
vn 0.00000000005245701789613477 -0 -1
vn -0.00000000003934286577078616 -0 -1
vn -0.00000000003934286577078616 -0 -1
vn -0.00000000003934286577078616 -0 -1
vn -0.00000000003934286577078616 -0 -1
vn 0 -0 -1
vn 0 -0 -1
vn -0.00000000009180001897535206 -0 -1
vn -0.00000000009180001897535206 -0 -1
vn -0.00000000009180001897535206 -0 -1
vn 0.00000000006557132614659622 -0 -1
vn 0.00000000006557132614659622 -0 -1
vn 0.00000000006557132614659622 -0 -1
vn 0 -0 -1
vn 0 -0 -1
vn 0 -0 -1
vn 0 -0 -1
vn 0 -0 -1
vn -0.000000000013114265749736287 -0 -1
vn -0.000000000013114265749736287 -0 -1
vn -0.000000000013114265749736287 -0 -1
f 3/3/3 2/2/2 1/1/1
f 4/4/4 1/1/1 2/2/2
f 7/7/7 6/6/6 5/5/5
f 10/10/10 9/9/9 8/8/8
f 9/9/9 2/2/2 3/3/3
f 13/13/13 12/12/12 11/11/11
f 16/16/16 15/15/15 14/14/14
f 19/19/19 18/18/18 17/17/17
f 22/22/22 21/21/21 20/20/20
f 25/25/25 24/24/24 23/23/23
f 27/27/27 9/9/9 26/26/26
f 29/29/29 27/27/27 28/28/28
f 31/31/31 29/29/29 30/30/30
f 33/33/33 31/31/31 32/32/32
f 36/36/36 35/35/35 34/34/34
f 2/2/2 37/37/37 4/4/4
f 38/38/38 2/2/2 9/9/9
f 41/41/41 40/40/40 39/39/39
f 44/44/44 43/43/43 42/42/42
f 47/47/47 46/46/46 45/45/45
f 31/31/31 33/33/33 48/48/48
f 51/51/51 50/50/50 49/49/49
f 38/38/38 52/52/52 2/2/2
f 55/55/55 54/54/54 53/53/53
f 38/38/38 27/27/27 56/56/56
f 56/56/56 27/27/27 57/57/57
f 57/57/57 29/29/29 58/58/58
f 58/58/58 29/29/29 59/59/59
f 59/59/59 31/31/31 60/60/60
f 60/60/60 31/31/31 48/48/48
f 63/63/63 62/62/62 61/61/61
f 65/65/65 33/33/33 64/64/64
f 64/64/64 67/67/67 66/66/66
f 66/66/66 67/67/67 68/68/68
f 71/71/71 70/70/70 69/69/69
f 56/56/56 52/52/52 38/38/38
f 57/57/57 52/52/52 56/56/56
f 58/58/58 72/72/72 57/57/57
f 59/59/59 72/72/72 58/58/58
f 60/60/60 73/73/73 59/59/59
f 48/48/48 73/73/73 60/60/60
f 65/65/65 74/74/74 48/48/48
f 64/64/64 74/74/74 65/65/65
f 66/66/66 75/75/75 64/64/64
f 78/78/78 77/77/77 76/76/76
f 81/81/81 80/80/80 79/79/79
f 84/84/84 83/83/83 82/82/82
f 87/87/87 86/86/86 85/85/85
f 90/90/90 89/89/89 88/88/88
f 93/93/93 92/92/92 91/91/91
f 96/96/96 95/95/95 94/94/94
f 99/99/99 98/98/98 97/97/97
f 99/99/99 97/97/97 100/100/100
f 68/68/68 102/102/102 101/101/101
f 105/105/105 104/104/104 103/103/103
f 108/108/108 107/107/107 106/106/106
f 111/111/111 110/110/110 109/109/109
f 109/109/109 113/113/113 112/112/112
f 112/112/112 113/113/113 102/102/102
f 116/116/116 115/115/115 114/114/114
