# VPXTOOL table OBJ file
# VPXTOOL OBJ file
# numVerts: 112 numFaces: 147
o LM_inserts_L11_PF
v 31.560232162475586 1247.4366455078125 0.030000003054738045
v 31.560232162475586 1108.999267578125 0.030000003054738045
v 47.34034729003906 1386.623779296875 0.030000003054738045
v 47.34034729003906 1248.186279296875 0.030000003054738045
v 233.51522827148438 1203.505615234375 0.030000003054738045
v 163.06243896484375 1317.53662109375 0.030000003054738045
v 123.47950744628906 1170.4234619140625 0.030000003054738045
v 100.49969482421875 1293.5048828125 0.030000003054738045
v 85.40992736816406 1278.523681640625 0.030000003054738045
v 123.47950744628906 1170.4234619140625 0.030000003054738045
v 123.47950744628906 1170.4234619140625 0.030000003054738045
v 108.04457092285156 1300.99560546875 0.030000003054738045
v 100.49969482421875 1293.5048828125 0.030000003054738045
v 163.06243896484375 1317.53662109375 0.030000003054738045
v 108.04457092285156 1300.99560546875 0.030000003054738045
v 123.47950744628906 1170.4234619140625 0.030000003054738045
v 47.34034729003906 1386.623779296875 0.030000003054738045
v 47.34034729003906 1248.186279296875 0.030000003054738045
v 55.230403900146484 1248.5611572265625 0.030000003054738045
v 55.230403900146484 1248.5611572265625 0.030000003054738045
v 85.40992736816406 1278.523681640625 0.030000003054738045
v 218.08029174804688 1334.07763671875 0.030000003054738045
v 163.06243896484375 1317.53662109375 0.030000003054738045
v 233.51522827148438 1203.505615234375 0.030000003054738045
v 85.40992736816406 1278.523681640625 0.030000003054738045
v 100.49969482421875 1293.5048828125 0.030000003054738045
v 47.34034729003906 1386.623779296875 0.030000003054738045
v 273.09814453125 1350.6187744140625 0.030000003054738045
v 218.08029174804688 1334.07763671875 0.030000003054738045
v 233.51522827148438 1203.505615234375 0.030000003054738045
v 31.560232162475586 1385.8741455078125 0.030000003054738045
v 108.04457092285156 1300.99560546875 0.030000003054738045
v 77.5198745727539 1416.58642578125 0.030000003054738045
v 92.60963439941406 1431.567626953125 0.030000003054738045
v 108.04457092285156 1300.99560546875 0.030000003054738045
v 100.49969482421875 1293.5048828125 0.030000003054738045
v 77.5198745727539 1416.58642578125 0.030000003054738045
v 218.08029174804688 1334.07763671875 0.030000003054738045
v 202.64535522460938 1464.6497802734375 0.030000003054738045
v 273.09814453125 1350.6187744140625 0.030000003054738045
v 202.64535522460938 1464.6497802734375 0.030000003054738045
v 92.60963439941406 1431.567626953125 0.030000003054738045
v 163.06243896484375 1317.53662109375 0.030000003054738045
v 39.45029067993164 1524.6866455078125 0.030000003054738045
v 328.11602783203125 1367.1597900390625 0.030000003054738045
v 312.68109130859375 1497.7320556640625 0.030000003054738045
v 383.1338806152344 1383.700927734375 0.030000003054738045
v 54.5400505065918 1539.6678466796875 0.030000003054738045
v 31.560232162475586 1524.311767578125 0.030000003054738045
v 31.560232162475586 1385.8741455078125 0.030000003054738045
v 39.45029067993164 1524.6866455078125 0.030000003054738045
v 312.68109130859375 1497.7320556640625 0.030000003054738045
v 202.64535522460938 1464.6497802734375 0.030000003054738045
v 273.09814453125 1350.6187744140625 0.030000003054738045
v 54.5400505065918 1539.6678466796875 0.030000003054738045
v 39.45029067993164 1524.6866455078125 0.030000003054738045
v 77.5198745727539 1416.58642578125 0.030000003054738045
v 62.08493423461914 1547.158447265625 0.030000003054738045
v 54.5400505065918 1539.6678466796875 0.030000003054738045
v 92.60963439941406 1431.567626953125 0.030000003054738045
v 132.1925506591797 1578.6807861328125 0.030000003054738045
v 77.17469787597656 1562.1396484375 0.030000003054738045
v 62.08493423461914 1547.158447265625 0.030000003054738045
v 422.716796875 1530.8140869140625 0.030000003054738045
v 312.68109130859375 1497.7320556640625 0.030000003054738045
v 383.1338806152344 1383.700927734375 0.030000003054738045
v 132.1925506591797 1578.6807861328125 0.030000003054738045
v 77.17469787597656 1562.1396484375 0.030000003054738045
v 92.60963439941406 1431.567626953125 0.030000003054738045
v 242.22828674316406 1611.7630615234375 0.030000003054738045
v 31.560232162475586 1662.749267578125 0.030000003054738045
v 31.560232162475586 1524.311767578125 0.030000003054738045
v 39.45029067993164 1524.6866455078125 0.030000003054738045
v 39.45029067993164 1524.6866455078125 0.030000003054738045
v 54.5400505065918 1539.6678466796875 0.030000003054738045
v 31.560232162475586 1662.749267578125 0.030000003054738045
v 187.21041870117188 1595.2218017578125 0.030000003054738045
v 132.1925506591797 1578.6807861328125 0.030000003054738045
v 202.64535522460938 1464.6497802734375 0.030000003054738045
v 54.5400505065918 1539.6678466796875 0.030000003054738045
v 62.08493423461914 1547.158447265625 0.030000003054738045
v 31.560232162475586 1662.749267578125 0.030000003054738045
v 242.22828674316406 1611.7630615234375 0.030000003054738045
v 187.21041870117188 1595.2218017578125 0.030000003054738045
v 202.64535522460938 1464.6497802734375 0.030000003054738045
v 62.08493423461914 1547.158447265625 0.030000003054738045
v 77.17469787597656 1562.1396484375 0.030000003054738045
v 31.560232162475586 1662.749267578125 0.030000003054738045
v 422.716796875 1530.8140869140625 0.030000003054738045
v 352.2640075683594 1644.8450927734375 0.030000003054738045
v 61.73975372314453 1692.711669921875 0.030000003054738045
v 297.2461242675781 1628.30419921875 0.030000003054738045
v 242.22828674316406 1611.7630615234375 0.030000003054738045
v 312.68109130859375 1497.7320556640625 0.030000003054738045
v 31.560232162475586 1662.749267578125 0.030000003054738045
v 352.2640075683594 1644.8450927734375 0.030000003054738045
v 297.2461242675781 1628.30419921875 0.030000003054738045
v 312.68109130859375 1497.7320556640625 0.030000003054738045
v 187.21041870117188 1595.2218017578125 0.030000003054738045
v 171.77548217773438 1725.7939453125 0.030000003054738045
v 132.1925506591797 1578.6807861328125 0.030000003054738045
v 171.77548217773438 1725.7939453125 0.030000003054738045
v 187.21041870117188 1595.2218017578125 0.030000003054738045
v 242.22828674316406 1611.7630615234375 0.030000003054738045
v 171.77548217773438 1725.7939453125 0.030000003054738045
v 61.73975372314453 1692.711669921875 0.030000003054738045
v 132.1925506591797 1578.6807861328125 0.030000003054738045
v 297.2461242675781 1628.30419921875 0.030000003054738045
v 281.8111877441406 1758.8760986328125 0.030000003054738045
v 281.8111877441406 1758.8760986328125 0.030000003054738045
v 171.77548217773438 1725.7939453125 0.030000003054738045
v 242.22828674316406 1611.7630615234375 0.030000003054738045
vt 0.09076223522424698 0.8733693361282349
vt 0.11402668058872223 0.8660473823547363
vt 0.08702671527862549 0.8813687562942505
vt 0.1114143654704094 0.873410701751709
vt 0.36082980036735535 0.8709810376167297
vt 0.2550967037677765 0.8773131370544434
vt 0.22224801778793335 0.8692229986190796
vt 0.1746324747800827 0.8759422302246094
vt 0.15684351325035095 0.8750976920127869
vt 0.22224801778793335 0.8692229986190796
vt 0.22224801778793335 0.8692229986190796
vt 0.18358772993087769 0.8763673901557922
vt 0.1746324747800827 0.8759422302246094
vt 0.2550967037677765 0.8773131370544434
vt 0.18358772993087769 0.8763673901557922
vt 0.22224801778793335 0.8692229986190796
vt 0.08702671527862549 0.8813687562942505
vt 0.1114143654704094 0.873410701751709
vt 0.12174387276172638 0.8734313249588013
vt 0.12174387276172638 0.8734313249588013
vt 0.15684351325035095 0.8750976920127869
vt 0.32733193039894104 0.8782684803009033
vt 0.2550967037677765 0.8773131370544434
vt 0.36082980036735535 0.8709810376167297
vt 0.15684351325035095 0.8750976920127869
vt 0.1746324747800827 0.8759422302246094
vt 0.08702671527862549 0.8813687562942505
vt 0.4003045856952667 0.8792335987091064
vt 0.32733193039894104 0.8782684803009033
vt 0.36082980036735535 0.8709810376167297
vt 0.06548837572336197 0.8813238143920898
vt 0.18358772993087769 0.8763673901557922
vt 0.12332498282194138 0.8831825256347656
vt 0.14173230528831482 0.8841022849082947
vt 0.18358772993087769 0.8763673901557922
vt 0.1746324747800827 0.8759422302246094
vt 0.12332498282194138 0.8831825256347656
vt 0.32733193039894104 0.8782684803009033
vt 0.29103630781173706 0.8861646056175232
vt 0.4003045856952667 0.8792335987091064
vt 0.29103630781173706 0.8861646056175232
vt 0.14173230528831482 0.8841022849082947
vt 0.2550967037677765 0.8773131370544434
vt 0.04918361455202103 0.8900208473205566
vt 0.4740259349346161 0.8802086114883423
vt 0.4435335397720337 0.8882710337638855
vt 0.5485075116157532 0.8811936378479004
vt 0.06787893176078796 0.8910068273544312
vt 0.03793294355273247 0.889996349811554
vt 0.06548837572336197 0.8813238143920898
vt 0.04918361455202103 0.8900208473205566
vt 0.4435335397720337 0.8882710337638855
vt 0.29103630781173706 0.8861646056175232
vt 0.4003045856952667 0.8792335987091064
vt 0.06787893176078796 0.8910068273544312
vt 0.04918361455202103 0.8900208473205566
vt 0.12332498282194138 0.8831825256347656
vt 0.07729563117027283 0.8915033936500549
vt 0.06787893176078796 0.8910068273544312
vt 0.14173230528831482 0.8841022849082947
vt 0.17349666357040405 0.8936202526092529
vt 0.09626869112253189 0.8925039768218994
vt 0.07729563117027283 0.8915033936500549
vt 0.5993273854255676 0.8904229402542114
vt 0.4435335397720337 0.8882710337638855
vt 0.5485075116157532 0.8811936378479004
vt 0.17349666357040405 0.8936202526092529
vt 0.09626869112253189 0.8925039768218994
vt 0.14173230528831482 0.8841022849082947
vt 0.33052483201026917 0.8958901166915894
vt 0.007772503420710564 0.8994887471199036
vt 0.03793294355273247 0.889996349811554
vt 0.04918361455202103 0.8900208473205566
vt 0.04918361455202103 0.8900208473205566
vt 0.06787893176078796 0.8910068273544312
vt 0.007772503420710564 0.8994887471199036
vt 0.25157734751701355 0.8947489261627197
vt 0.17349666357040405 0.8936202526092529
vt 0.29103630781173706 0.8861646056175232
vt 0.06787893176078796 0.8910068273544312
vt 0.07729563117027283 0.8915033936500549
vt 0.007772503420710564 0.8994887471199036
vt 0.33052483201026917 0.8958901166915894
vt 0.25157734751701355 0.8947489261627197
vt 0.29103630781173706 0.8861646056175232
vt 0.07729563117027283 0.8915033936500549
vt 0.09626869112253189 0.8925039768218994
vt 0.007772503420710564 0.8994887471199036
vt 0.5993273854255676 0.8904229402542114
vt 0.49107909202575684 0.898210883140564
vt 0.04670928418636322 0.9016625285148621
vt 0.41035377979278564 0.8970440030097961
vt 0.33052483201026917 0.8958901166915894
vt 0.4435335397720337 0.8882710337638855
vt 0.007772503420710564 0.8994887471199036
vt 0.49107909202575684 0.898210883140564
vt 0.41035377979278564 0.8970440030097961
vt 0.4435335397720337 0.8882710337638855
vt 0.25157734751701355 0.8947489261627197
vt 0.20852237939834595 0.9041154980659485
vt 0.17349666357040405 0.8936202526092529
vt 0.20852237939834595 0.9041154980659485
vt 0.25157734751701355 0.8947489261627197
vt 0.33052483201026917 0.8958901166915894
vt 0.20852237939834595 0.9041154980659485
vt 0.04670928418636322 0.9016625285148621
vt 0.17349666357040405 0.8936202526092529
vt 0.41035377979278564 0.8970440030097961
vt 0.37411513924598694 0.9066258072853088
vt 0.37411513924598694 0.9066258072853088
vt 0.20852237939834595 0.9041154980659485
vt 0.33052483201026917 0.8958901166915894
vn 0 -0 -1
vn 0 -0 -1
vn 0 -0 -1
vn 0 -0 -1
vn 0 -0 -1
vn 0 -0 -1
vn 0 -0 -1
vn 0.00000000008862758443806129 -0 -1
vn 0.00000000008862758443806129 -0 -1
vn 0.00000000008862758443806129 -0 -1
vn 0 -0 -0.9999999403953552
vn 0 -0 -0.9999999403953552
vn 0 -0 -0.9999999403953552
vn 0.000000000013114288301141475 -0 -1
vn 0.000000000013114288301141475 -0 -1
vn 0.000000000013114288301141475 -0 -1
vn -0.0000000007145311009537636 -0 -1
vn -0.0000000007145311009537636 -0 -1
vn -0.0000000007145311009537636 -0 -1
vn 0 -0 -1
vn 0 -0 -1
vn 0.000000000013114265749736287 -0 -1
vn 0.000000000013114265749736287 -0 -1
vn 0.000000000013114265749736287 -0 -1
vn 0.00000000008862732076009294 -0 -0.9999999403953552
vn 0.00000000008862732076009294 -0 -0.9999999403953552
vn 0.00000000008862732076009294 -0 -0.9999999403953552
vn -0.00000000003934286577078616 -0 -1
vn -0.00000000003934286577078616 -0 -1
vn -0.00000000003934286577078616 -0 -1
vn 0 -0 -1
vn 0.00000000008862732076009294 -0 -0.9999999403953552
vn 0.00000000008862732076009294 -0 -0.9999999403953552
vn 0 -0 -1
vn 0 -0 -1
vn 0 -0 -1
vn 0 -0 -1
vn 0 -0 -1
vn 0 -0 -1
vn 0 -0 -1
vn -0.000000000013114265749736287 -0 -1
vn -0.000000000013114265749736287 -0 -1
vn -0.000000000013114265749736287 -0 -1
vn 0 -0 -1
vn 0 -0 -1
vn 0 -0 -1
vn 0 -0 -1
vn 0 -0 -1
vn 0.0000000007145300462418902 -0 -1
vn 0.0000000007145300462418902 -0 -1
vn 0.0000000007145300462418902 -0 -1
vn -0.0000000000131142431983311 -0 -1
vn -0.0000000000131142431983311 -0 -1
vn -0.0000000000131142431983311 -0 -1
vn -0.00000000008862784117713574 -0 -1
vn -0.00000000008862784117713574 -0 -1
vn -0.00000000008862784117713574 -0 -1
vn 0.0000000002658827602530778 -0 -1
vn 0.0000000002658827602530778 -0 -1
vn 0.0000000002658827602530778 -0 -1
vn 0 -0 -1
vn 0 -0 -1
vn 0 -0 -1
vn -0.000000000013114265749736287 -0 -1
vn -0.000000000013114265749736287 -0 -1
vn -0.000000000013114265749736287 -0 -1
vn -0.00000000003934286577078616 -0 -1
vn -0.00000000003934286577078616 -0 -1
vn -0.00000000003934286577078616 -0 -1
vn 0 -0 -1
vn -0.0000000007145311009537636 -0 -1
vn -0.0000000007145311009537636 -0 -1
vn -0.0000000007145311009537636 -0 -1
vn -0.00000000008862758443806129 -0 -1
vn -0.00000000008862758443806129 -0 -1
vn -0.00000000008862758443806129 -0 -1
vn -0.00000000003934279638184712 -0 -1
vn -0.00000000003934279638184712 -0 -1
vn -0.00000000003934279638184712 -0 -1
vn 0.00000000044313791525141255 -0 -1
vn 0.00000000044313791525141255 -0 -1
vn 0.00000000044313791525141255 -0 -1
vn 0.000000000013114265749736287 -0 -1
vn 0.000000000013114265749736287 -0 -1
vn 0.000000000013114265749736287 -0 -1
vn -0.000000000088627966077226 -0 -1
vn -0.000000000088627966077226 -0 -1
vn -0.000000000088627966077226 -0 -1
vn 0 -0 -1
vn 0 -0 -1
vn 0 -0 -1
vn -0.00000000003934286577078616 -0 -1
vn -0.00000000003934286577078616 -0 -1
vn -0.00000000003934286577078616 -0 -1
vn 0 -0 -1
vn 0.0000000000131142431983311 -0 -1
vn 0.0000000000131142431983311 -0 -1
vn 0.0000000000131142431983311 -0 -1
vn -0.00000000010491416763125372 -0 -1
vn -0.00000000010491416763125372 -0 -1
vn -0.00000000010491416763125372 -0 -1
vn 0.00000000010491389701439147 -0 -1
vn 0.00000000010491389701439147 -0 -1
vn 0.00000000010491389701439147 -0 -1
vn -0.000000000013114265749736287 -0 -1
vn -0.000000000013114265749736287 -0 -1
vn -0.000000000013114265749736287 -0 -1
vn 0 -0 -1
vn 0 -0 -1
vn -0.00000000003934293169027825 -0 -1
vn -0.00000000003934293169027825 -0 -1
vn -0.00000000003934293169027825 -0 -1
f 3/3/3 2/2/2 1/1/1
f 2/2/2 3/3/3 4/4/4
f 7/7/7 6/6/6 5/5/5
f 10/10/10 9/9/9 8/8/8
f 13/13/13 12/12/12 11/11/11
f 16/16/16 15/15/15 14/14/14
f 19/19/19 18/18/18 17/17/17
f 21/21/21 20/20/20 3/3/3
f 24/24/24 23/23/23 22/22/22
f 27/27/27 26/26/26 25/25/25
f 30/30/30 29/29/29 28/28/28
f 3/3/3 1/1/1 31/31/31
f 33/33/33 32/32/32 26/26/26
f 35/35/35 34/34/34 6/6/6
f 3/3/3 37/37/37 36/36/36
f 37/37/37 34/34/34 35/35/35
f 6/6/6 39/39/39 38/38/38
f 38/38/38 39/39/39 40/40/40
f 43/43/43 42/42/42 41/41/41
f 3/3/3 31/31/31 44/44/44
f 37/37/37 3/3/3 44/44/44
f 40/40/40 46/46/46 45/45/45
f 45/45/45 46/46/46 47/47/47
f 34/34/34 37/37/37 48/48/48
f 51/51/51 50/50/50 49/49/49
f 54/54/54 53/53/53 52/52/52
f 57/57/57 56/56/56 55/55/55
f 60/60/60 59/59/59 58/58/58
f 34/34/34 61/61/61 39/39/39
f 63/63/63 62/62/62 34/34/34
f 66/66/66 65/65/65 64/64/64
f 69/69/69 68/68/68 67/67/67
f 39/39/39 70/70/70 46/46/46
f 73/73/73 72/72/72 71/71/71
f 76/76/76 75/75/75 74/74/74
f 79/79/79 78/78/78 77/77/77
f 82/82/82 81/81/81 80/80/80
f 85/85/85 84/84/84 83/83/83
f 88/88/88 87/87/87 86/86/86
f 46/46/46 90/90/90 89/89/89
f 62/62/62 91/91/91 61/61/61
f 94/94/94 93/93/93 92/92/92
f 95/95/95 91/91/91 62/62/62
f 98/98/98 97/97/97 96/96/96
f 101/101/101 100/100/100 99/99/99
f 104/104/104 103/103/103 102/102/102
f 107/107/107 106/106/106 105/105/105
f 70/70/70 109/109/109 108/108/108
f 112/112/112 111/111/111 110/110/110
