# VPXTOOL table OBJ file
# VPXTOOL OBJ file
# numVerts: 71 numFaces: 108
o LM_Journey_L91_PF
v 126.5256118774414 1115.966796875 0.030000003054738045
v 198.60853576660156 1001.680908203125 0.030000003054738045
v 123.47950744628906 1170.4234619140625 0.030000003054738045
v 224.40798950195313 1118.9022216796875 0.030000003054738045
v 123.47950744628906 1170.4234619140625 0.030000003054738045
v 198.60853576660156 1001.680908203125 0.030000003054738045
v 63.12046432495117 1110.49853515625 0.030000003054738045
v 91.9723129272461 1107.80517578125 0.030000003054738045
v 117.81417083740234 1119.3106689453125 0.030000003054738045
v 124.37620544433594 1118.6209716796875 0.030000003054738045
v 126.5256118774414 1115.966796875 0.030000003054738045
v 123.47950744628906 1170.4234619140625 0.030000003054738045
v 123.47950744628906 1170.4234619140625 0.030000003054738045
v 117.81417083740234 1119.3106689453125 0.030000003054738045
v 121.18759155273438 1119.844970703125 0.030000003054738045
v 121.18759155273438 1119.844970703125 0.030000003054738045
v 124.37620544433594 1118.6209716796875 0.030000003054738045
v 55.230403900146484 1248.5611572265625 0.030000003054738045
v 47.34034729003906 1109.748779296875 0.030000003054738045
v 224.62652587890625 1119.388916015625 0.030000003054738045
v 123.47950744628906 1170.4234619140625 0.030000003054738045
v 224.40798950195313 1118.9022216796875 0.030000003054738045
v 224.9138946533203 1119.8946533203125 0.030000003054738045
v 123.47950744628906 1170.4234619140625 0.030000003054738045
v 224.62652587890625 1119.388916015625 0.030000003054738045
v 225.27752685546875 1120.38720703125 0.030000003054738045
v 224.9138946533203 1119.8946533203125 0.030000003054738045
v 225.72482299804688 1120.833740234375 0.030000003054738045
v 226.2631072998047 1121.2021484375 0.030000003054738045
v 232.93545532226563 1202.081787109375 0.030000003054738045
v 47.34034729003906 1248.186279296875 0.030000003054738045
v 232.95616149902344 1202.371826171875 0.030000003054738045
v 233.01412963867188 1202.67236328125 0.030000003054738045
v 233.1197509765625 1202.97021484375 0.030000003054738045
v 233.2833251953125 1203.2523193359375 0.030000003054738045
v 233.51522827148438 1203.505615234375 0.030000003054738045
v 85.40992736816406 1278.523681640625 0.030000003054738045
v 55.230403900146484 1248.5611572265625 0.030000003054738045
v 123.47950744628906 1170.4234619140625 0.030000003054738045
v 163.06243896484375 1317.53662109375 0.030000003054738045
v 100.49969482421875 1293.5048828125 0.030000003054738045
v 85.40992736816406 1278.523681640625 0.030000003054738045
v 123.47950744628906 1170.4234619140625 0.030000003054738045
v 123.47950744628906 1170.4234619140625 0.030000003054738045
v 108.04457092285156 1300.99560546875 0.030000003054738045
v 100.49969482421875 1293.5048828125 0.030000003054738045
v 163.06243896484375 1317.53662109375 0.030000003054738045
v 108.04457092285156 1300.99560546875 0.030000003054738045
v 123.47950744628906 1170.4234619140625 0.030000003054738045
v 47.34034729003906 1386.623779296875 0.030000003054738045
v 47.34034729003906 1248.186279296875 0.030000003054738045
v 55.230403900146484 1248.5611572265625 0.030000003054738045
v 47.34034729003906 1386.623779296875 0.030000003054738045
v 85.40992736816406 1278.523681640625 0.030000003054738045
v 218.08029174804688 1334.07763671875 0.030000003054738045
v 163.06243896484375 1317.53662109375 0.030000003054738045
v 233.51522827148438 1203.505615234375 0.030000003054738045
v 85.40992736816406 1278.523681640625 0.030000003054738045
v 100.49969482421875 1293.5048828125 0.030000003054738045
v 47.34034729003906 1386.623779296875 0.030000003054738045
v 108.04457092285156 1300.99560546875 0.030000003054738045
v 77.5198745727539 1416.58642578125 0.030000003054738045
v 92.60963439941406 1431.567626953125 0.030000003054738045
v 108.04457092285156 1300.99560546875 0.030000003054738045
v 100.49969482421875 1293.5048828125 0.030000003054738045
v 77.5198745727539 1416.58642578125 0.030000003054738045
v 218.08029174804688 1334.07763671875 0.030000003054738045
v 202.64535522460938 1464.6497802734375 0.030000003054738045
v 202.64535522460938 1464.6497802734375 0.030000003054738045
v 92.60963439941406 1431.567626953125 0.030000003054738045
v 163.06243896484375 1317.53662109375 0.030000003054738045
vt 0.7566543817520142 0.5327837467193604
vt 0.8591689467430115 0.5271416902542114
vt 0.7456855177879333 0.5356048345565796
vt 0.880397379398346 0.5329335927963257
vt 0.7456855177879333 0.5356048345565796
vt 0.8591689467430115 0.5271416902542114
vt 0.6771447062492371 0.5325053930282593
vt 0.7140167951583862 0.532368540763855
vt 0.7451803088188171 0.5329544544219971
vt 0.7535906434059143 0.53291916847229
vt 0.7566543817520142 0.5327837467193604
vt 0.7456855177879333 0.5356048345565796
vt 0.7456855177879333 0.5356048345565796
vt 0.7451803088188171 0.5329544544219971
vt 0.749389111995697 0.5329817533493042
vt 0.749389111995697 0.5329817533493042
vt 0.7535906434059143 0.53291916847229
vt 0.6451813578605652 0.5398131608963013
vt 0.6573001742362976 0.532467246055603
vt 0.88062983751297 0.532958447933197
vt 0.7456855177879333 0.5356048345565796
vt 0.880397379398346 0.5329335927963257
vt 0.8809478878974915 0.5329842567443848
vt 0.7456855177879333 0.5356048345565796
vt 0.88062983751297 0.532958447933197
vt 0.8813639283180237 0.5330094695091248
vt 0.8809478878974915 0.5329842567443848
vt 0.8818905353546143 0.5330322980880737
vt 0.8825398683547974 0.5330511331558228
vt 0.8836464881896973 0.5372865200042725
vt 0.63485187292099 0.539792537689209
vt 0.8836463689804077 0.5373020172119141
vt 0.8836936950683594 0.5373181700706482
vt 0.8838031888008118 0.537334144115448
vt 0.8839895129203796 0.5373492240905762
vt 0.8842673301696777 0.537362813949585
vt 0.6802810430526733 0.5414795875549316
vt 0.6451813578605652 0.5398131608963013
vt 0.7456855177879333 0.5356048345565796
vt 0.7785341739654541 0.5436949729919434
vt 0.6980699896812439 0.5423240661621094
vt 0.6802810430526733 0.5414795875549316
vt 0.7456855177879333 0.5356048345565796
vt 0.7456855177879333 0.5356048345565796
vt 0.7070252299308777 0.542749285697937
vt 0.6980699896812439 0.5423240661621094
vt 0.7785341739654541 0.5436949729919434
vt 0.7070252299308777 0.542749285697937
vt 0.7456855177879333 0.5356048345565796
vt 0.6104642152786255 0.5477505922317505
vt 0.63485187292099 0.539792537689209
vt 0.6451813578605652 0.5398131608963013
vt 0.6104642152786255 0.5477505922317505
vt 0.6802810430526733 0.5414795875549316
vt 0.8507694602012634 0.5446503162384033
vt 0.7785341739654541 0.5436949729919434
vt 0.8842673301696777 0.537362813949585
vt 0.6802810430526733 0.5414795875549316
vt 0.6980699896812439 0.5423240661621094
vt 0.6104642152786255 0.5477505922317505
vt 0.7070252299308777 0.542749285697937
vt 0.646762490272522 0.5495643615722656
vt 0.6651698350906372 0.5504841208457947
vt 0.7070252299308777 0.542749285697937
vt 0.6980699896812439 0.5423240661621094
vt 0.646762490272522 0.5495643615722656
vt 0.8507694602012634 0.5446503162384033
vt 0.8144738078117371 0.5525464415550232
vt 0.8144738078117371 0.5525464415550232
vt 0.6651698350906372 0.5504841208457947
vt 0.7785341739654541 0.5436949729919434
vn 0 -0 -1
vn 0 -0 -1
vn 0 -0 -1
vn 0.000000000014826277358603868 -0 -1
vn 0.000000000014826277358603868 -0 -1
vn 0.000000000014826277358603868 -0 -1
vn 0 -0 -1
vn 0 -0 -1
vn 0 -0 -1
vn 0.0000000003357453759456064 -0 -0.9999999403953552
vn 0.0000000003357453759456064 -0 -0.9999999403953552
vn 0.0000000003357453759456064 -0 -0.9999999403953552
vn -0.000000001151829520651404 -0 -1
vn -0.000000001151829520651404 -0 -1
vn -0.000000001151829520651404 -0 -1
vn 0 -0 -1
vn 0 -0 -1
vn 0 -0 -1
vn 0 -0 -1
vn 0.00000000323279425451517 -0 -1
vn 0.00000000323279425451517 -0 -1
vn 0.00000000323279425451517 -0 -1
vn -0.000000002965174772384671 -0 -1
vn -0.000000002965174772384671 -0 -1
vn -0.000000002965174772384671 -0 -1
vn 0 -0 -1
vn 0 -0 -1
vn 0 -0 -1
vn 0 -0 -1
vn 0 -0 -1
vn 0 -0 -1
vn 0 -0 -1
vn 0 -0 -1
vn 0 -0 -1
vn 0 -0 -1
vn 0 -0 -1
vn -0.00000000008862758443806129 -0 -1
vn -0.00000000008862758443806129 -0 -1
vn -0.00000000008862758443806129 -0 -1
vn 0 -0 -1
vn 0.00000000008862758443806129 -0 -1
vn 0.00000000008862758443806129 -0 -1
vn 0.00000000008862758443806129 -0 -1
vn 0 -0 -0.9999999403953552
vn 0 -0 -0.9999999403953552
vn 0 -0 -0.9999999403953552
vn 0.000000000013114288301141475 -0 -1
vn 0.000000000013114288301141475 -0 -1
vn 0.000000000013114288301141475 -0 -1
vn -0.0000000007145311009537636 -0 -1
vn -0.0000000007145311009537636 -0 -1
vn -0.0000000007145311009537636 -0 -1
vn 0 -0 -1
vn 0 -0 -1
vn 0.000000000013114265749736287 -0 -1
vn 0.000000000013114265749736287 -0 -1
vn 0.000000000013114265749736287 -0 -1
vn 0.00000000008862732076009294 -0 -0.9999999403953552
vn 0.00000000008862732076009294 -0 -0.9999999403953552
vn 0.00000000008862732076009294 -0 -0.9999999403953552
vn 0.00000000008862732076009294 -0 -0.9999999403953552
vn 0.00000000008862732076009294 -0 -0.9999999403953552
vn 0 -0 -1
vn 0 -0 -1
vn 0 -0 -1
vn 0 -0 -1
vn 0 -0 -1
vn 0 -0 -1
vn -0.000000000013114265749736287 -0 -1
vn -0.000000000013114265749736287 -0 -1
vn -0.000000000013114265749736287 -0 -1
f 3/3/3 2/2/2 1/1/1
f 6/6/6 5/5/5 4/4/4
f 8/8/8 7/7/7 3/3/3
f 9/9/9 8/8/8 3/3/3
f 12/12/12 11/11/11 10/10/10
f 15/15/15 14/14/14 13/13/13
f 3/3/3 17/17/17 16/16/16
f 7/7/7 19/19/19 18/18/18
f 22/22/22 21/21/21 20/20/20
f 25/25/25 24/24/24 23/23/23
f 27/27/27 3/3/3 26/26/26
f 26/26/26 3/3/3 28/28/28
f 28/28/28 3/3/3 29/29/29
f 3/3/3 7/7/7 18/18/18
f 30/30/30 29/29/29 3/3/3
f 18/18/18 19/19/19 31/31/31
f 30/30/30 3/3/3 32/32/32
f 32/32/32 3/3/3 33/33/33
f 33/33/33 3/3/3 34/34/34
f 34/34/34 3/3/3 35/35/35
f 35/35/35 3/3/3 36/36/36
f 39/39/39 38/38/38 37/37/37
f 3/3/3 40/40/40 36/36/36
f 43/43/43 42/42/42 41/41/41
f 46/46/46 45/45/45 44/44/44
f 49/49/49 48/48/48 47/47/47
f 52/52/52 51/51/51 50/50/50
f 54/54/54 18/18/18 53/53/53
f 57/57/57 56/56/56 55/55/55
f 60/60/60 59/59/59 58/58/58
f 62/62/62 61/61/61 59/59/59
f 64/64/64 63/63/63 40/40/40
f 53/53/53 66/66/66 65/65/65
f 66/66/66 63/63/63 64/64/64
f 40/40/40 68/68/68 67/67/67
f 71/71/71 70/70/70 69/69/69
