# VPXTOOL table OBJ file
# VPXTOOL OBJ file
# numVerts: 93 numFaces: 102
o LM_inserts_L03_sw06
v 13.599963188171387 7.999998092651367 -52.39198684692383
v 16.799896240234375 7.999998092651367 -55.591983795166016
v 16.799896240234375 7.999998092651367 -52.39198684692383
v 13.599963188171387 7.999998092651367 -52.39198684692383
v -16.80006217956543 7.999998092651367 -55.591983795166016
v 16.799896240234375 7.999998092651367 -55.591983795166016
v 13.599963188171387 7.999998092651367 -52.39198684692383
v 16.799896240234375 7.999998092651367 -52.39198684692383
v 16.799951553344727 4.800009727478027 -47.59198760986328
v 13.599963188171387 7.999998092651367 -52.39198684692383
v -13.600018501281738 7.999942779541016 -52.39198684692383
v -16.80006217956543 7.999998092651367 -55.591983795166016
v 13.599963188171387 4.800009727478027 -52.39198684692383
v 13.599963188171387 7.999998092651367 -52.39198684692383
v 13.599963188171387 4.800009727478027 -47.59198760986328
v 13.599963188171387 4.800009727478027 -47.59198760986328
v 13.599963188171387 7.999998092651367 -52.39198684692383
v 16.799951553344727 4.800009727478027 -47.59198760986328
v -13.600018501281738 7.999942779541016 -52.39198684692383
v -16.80006217956543 7.999998092651367 -52.39198684692383
v -16.80006217956543 7.999998092651367 -55.591983795166016
v -13.60007381439209 4.800009727478027 -52.39198684692383
v 13.599963188171387 4.800009727478027 -52.39198684692383
v 13.599963188171387 4.800009727478027 -47.59198760986328
v -16.80006217956543 7.999998092651367 -52.39198684692383
v -13.600018501281738 7.999942779541016 -52.39198684692383
v -16.799951553344727 4.799954414367676 -47.59198760986328
v 16.799896240234375 7.999998092651367 -55.591983795166016
v -16.80006217956543 7.999998092651367 -55.591983795166016
v -16.800006866455078 -8.000053405761719 -55.591983795166016
v -13.60007381439209 4.800009727478027 -47.59198760986328
v -13.600018501281738 7.999942779541016 -52.39198684692383
v -13.60007381439209 4.800009727478027 -47.59198760986328
v -16.799951553344727 4.799954414367676 -47.59198760986328
v -16.800006866455078 -6.400031566619873 -50.791988372802734
v -16.80006217956543 7.999998092651367 -55.591983795166016
v -16.80006217956543 7.999998092651367 -52.39198684692383
v 16.800006866455078 -8.000053405761719 -55.591983795166016
v -16.800006866455078 -6.400031566619873 -50.791988372802734
v -16.80006217956543 7.999998092651367 -52.39198684692383
v -16.799951553344727 4.799954414367676 -47.59198760986328
v 16.799951553344727 4.800009727478027 -47.59198760986328
v 16.799951553344727 4.800009727478027 -4.391999244689941
v -16.800006866455078 -6.400031566619873 -50.791988372802734
v -16.800006866455078 -8.000053405761719 -55.591983795166016
v -16.80006217956543 7.999998092651367 -55.591983795166016
v 13.599963188171387 4.800009727478027 -47.59198760986328
v 16.799951553344727 4.800009727478027 -4.391999244689941
v -13.60007381439209 4.800009727478027 -47.59198760986328
v -16.799951553344727 4.799954414367676 -4.391999244689941
v -16.799951553344727 4.799954414367676 -47.59198760986328
v -13.60007381439209 4.800009727478027 -47.59198760986328
v -16.800006866455078 -6.400031566619873 -50.791988372802734
v -16.800006866455078 -8.000053405761719 -52.39198684692383
v -16.800006866455078 -8.000053405761719 -55.591983795166016
v -16.800006866455078 -6.400031566619873 -50.791988372802734
v -16.799951553344727 4.799954414367676 -47.59198760986328
v -16.799951553344727 4.799954414367676 -4.391999244689941
v 16.799951553344727 4.800009727478027 -4.391999244689941
v -16.799951553344727 4.799954414367676 -4.391999244689941
v -13.60007381439209 4.800009727478027 -47.59198760986328
v -16.800006866455078 -6.400031566619873 -50.791988372802734
v -16.799951553344727 4.799954414367676 -4.391999244689941
v -16.800006866455078 -1.6000217199325562 3.607999086380005
v 3.1998777389526367 3.9425201416015625 -4.391999244689941
v 3.1998777389526367 3.9425201416015625 50.66682434082031
v 0 4.799954414367676 -4.391999244689941
v 0 4.799954414367676 -4.391999244689941
v 0 4.799954414367676 50.66682434082031
v -3.2000434398651123 3.942575216293335 -4.391999244689941
v -3.2000434398651123 3.942575216293335 -4.391999244689941
v -3.2000434398651123 3.942575216293335 50.66682434082031
v -5.542652130126953 1.5999664068222046 -4.391999244689941
v -16.800006866455078 -1.6000217199325562 3.607999086380005
v -16.800006866455078 -6.400031566619873 52.26681900024414
v -16.800006866455078 -6.400031566619873 -50.791988372802734
v -16.800006866455078 -1.6000217199325562 3.607999086380005
v 16.800006866455078 -1.6000217199325562 3.607999086380005
v 16.800006866455078 -1.6000217199325562 52.26681900024414
v 0 4.799954414367676 50.66682434082031
v 0 4.799954414367676 50.66682434082031
v -3.2000434398651123 3.942575216293335 50.66682434082031
v -3.2000434398651123 3.942575216293335 -4.391999244689941
v -3.2000434398651123 3.942575216293335 50.66682434082031
v -5.542652130126953 1.5999664068222046 50.66682434082031
v -5.542652130126953 1.5999664068222046 -4.391999244689941
v -5.542652130126953 1.5999664068222046 -4.391999244689941
v -5.542652130126953 1.5999664068222046 50.66682434082031
v -6.400031566619873 -1.6000217199325562 50.66682434082031
v -16.800006866455078 -1.6000217199325562 52.26681900024414
v -16.800006866455078 -1.6000217199325562 3.607999086380005
v -16.800006866455078 -1.6000217199325562 52.26681900024414
v -16.800006866455078 -6.400031566619873 52.26681900024414
vt 0.26927366852760315 0.02710437774658203
vt 0.2700718641281128 0.026431620121002197
vt 0.2702115774154663 0.026825428009033203
vt 0.26927366852760315 0.02710437774658203
vt 0.26013702154159546 0.02938234806060791
vt 0.2700718641281128 0.026431620121002197
vt 0.26927366852760315 0.02710437774658203
vt 0.2702115774154663 0.026825428009033203
vt 0.26872798800468445 0.027290940284729004
vt 0.26927366852760315 0.02710437774658203
vt 0.26123836636543274 0.029493987560272217
vt 0.26013702154159546 0.02938234806060791
vt 0.26757797598838806 0.026980161666870117
vt 0.26927366852760315 0.02710437774658203
vt 0.2677902281284332 0.027569830417633057
vt 0.2677902281284332 0.027569830417633057
vt 0.26927366852760315 0.02710437774658203
vt 0.26872798800468445 0.027290940284729004
vt 0.26123836636543274 0.029493987560272217
vt 0.26028555631637573 0.029777348041534424
vt 0.26013702154159546 0.02938234806060791
vt 0.2595336437225342 0.02936798334121704
vt 0.26757797598838806 0.026980161666870117
vt 0.2677902281284332 0.027569830417633057
vt 0.26028555631637573 0.029777348041534424
vt 0.26123836636543274 0.029493987560272217
vt 0.25880399346351624 0.030242443084716797
vt 0.2700718641281128 0.026431620121002197
vt 0.26013702154159546 0.02938234806060791
vt 0.2516143023967743 0.028752446174621582
vt 0.2597566246986389 0.02995908260345459
vt 0.26123836636543274 0.029493987560272217
vt 0.2597566246986389 0.02995908260345459
vt 0.25880399346351624 0.030242443084716797
vt 0.25269633531570435 0.029407262802124023
vt 0.26013702154159546 0.02938234806060791
vt 0.26028555631637573 0.029777348041534424
vt 0.26160478591918945 0.025812625885009766
vt 0.25269633531570435 0.029407262802124023
vt 0.26028555631637573 0.029777348041534424
vt 0.25880399346351624 0.030242443084716797
vt 0.26872798800468445 0.027290940284729004
vt 0.27060601115226746 0.03253704309463501
vt 0.25269633531570435 0.029407262802124023
vt 0.2516143023967743 0.028752446174621582
vt 0.26013702154159546 0.02938234806060791
vt 0.2677902281284332 0.027569830417633057
vt 0.27060601115226746 0.03253704309463501
vt 0.2597566246986389 0.02995908260345459
vt 0.2607995271682739 0.0355038046836853
vt 0.25880399346351624 0.030242443084716797
vt 0.2597566246986389 0.02995908260345459
vt 0.25269633531570435 0.029407262802124023
vt 0.25176912546157837 0.029147207736968994
vt 0.2516143023967743 0.028752446174621582
vt 0.25269633531570435 0.029407262802124023
vt 0.25880399346351624 0.030242443084716797
vt 0.2607995271682739 0.0355038046836853
vt 0.27060601115226746 0.03253704309463501
vt 0.2607995271682739 0.0355038046836853
vt 0.2597566246986389 0.02995908260345459
vt 0.25269633531570435 0.029407262802124023
vt 0.2607995271682739 0.0355038046836853
vt 0.2577998638153076 0.0362125039100647
vt 0.26620689034461975 0.03369802236557007
vt 0.2686100900173187 0.04023939371109009
vt 0.2657238841056824 0.034013986587524414
vt 0.2657238841056824 0.034013986587524414
vt 0.2681354284286499 0.040557265281677246
vt 0.2643384635448456 0.034263014793395996
vt 0.2643384635448456 0.034263014793395996
vt 0.2667694687843323 0.04080772399902344
vt 0.262421578168869 0.034377992153167725
vt 0.2577998638153076 0.0362125039100647
vt 0.25753459334373474 0.041797518730163574
vt 0.25269633531570435 0.029407262802124023
vt 0.2577998638153076 0.0362125039100647
vt 0.2676065266132355 0.033247411251068115
vt 0.26970529556274414 0.03900796175003052
vt 0.2681354284286499 0.040557265281677246
vt 0.2681354284286499 0.040557265281677246
vt 0.2667694687843323 0.04080772399902344
vt 0.2643384635448456 0.034263014793395996
vt 0.2667694687843323 0.04080772399902344
vt 0.26487791538238525 0.040923357009887695
vt 0.262421578168869 0.034377992153167725
vt 0.262421578168869 0.034377992153167725
vt 0.26487791538238525 0.040923357009887695
vt 0.2629695236682892 0.04087287187576294
vt 0.2600276470184326 0.0419885516166687
vt 0.2577998638153076 0.0362125039100647
vt 0.2600276470184326 0.0419885516166687
vt 0.25753459334373474 0.041797518730163574
vn 0 0.9999999403953552 -0
vn 0 0.9999999403953552 -0
vn 0 0.9999999403953552 -0
vn 0 1 -0.00000046456486302304256
vn 0 1 -0.00000046456486302304256
vn 0 1 -0.00000046456486302304256
vn 0 0.8320513367652893 0.5546987056732178
vn 0 0.8320513367652893 0.5546987056732178
vn 0 0.8320513367652893 0.5546987056732178
vn -0.0000020299685274949297 1 0.000019511711798259057
vn -0.0000020299685274949297 1 0.000019511711798259057
vn -0.0000020299685274949297 1 0.000019511711798259057
vn -1 -0 -0
vn -1 -0 -0
vn -1 -0 -0
vn 0 0.8320510983467102 0.5546988844871521
vn 0 0.8320510983467102 0.5546988844871521
vn 0 0.8320510983467102 0.5546988844871521
vn 0.000017254476915695705 1 -0
vn 0.000017254476915695705 1 -0
vn 0.000017254476915695705 1 -0
vn 0 1 -0
vn 0 1 -0
vn 0 1 -0
vn 0.00001441898348275572 0.832046627998352 0.5547055602073669
vn 0.00001441898348275572 0.832046627998352 0.5547055602073669
vn 0.00001441898348275572 0.832046627998352 0.5547055602073669
vn 0 -0 -1
vn 0 -0 -1
vn 0 -0 -1
vn 0 1 -0
vn -0.000014882478353683837 0.8320556879043579 0.5546920299530029
vn -0.000014882478353683837 0.8320556879043579 0.5546920299530029
vn -0.000014882478353683837 0.8320556879043579 0.5546920299530029
vn -0.9999999403953552 -0.0000037939307730994187 -0
vn -0.9999999403953552 -0.0000037939307730994187 -0
vn -0.9999999403953552 -0.0000037939307730994187 -0
vn 0 -0 -1
vn -1 -0.0000014633757245974266 0.000022086018361733295
vn -1 -0.0000014633757245974266 0.000022086018361733295
vn -1 -0.0000014633757245974266 0.000022086018361733295
vn 0 1 -0
vn 0 1 -0
vn -1 -0.0000034145364224968944 0.0000011503259429446189
vn -1 -0.0000034145364224968944 0.0000011503259429446189
vn -1 -0.0000034145364224968944 0.0000011503259429446189
vn 0 1 -0.000000005313635309533993
vn 0 1 -0.000000005313635309533993
vn 0 1 -0.000000005313635309533993
vn -0.000017255368220503442 1 -0
vn -0.000017255368220503442 1 -0
vn -0.000017255368220503442 1 -0
vn -1 -0.0000012194645933050197 -0
vn -1 -0.0000012194645933050197 -0
vn -1 -0.0000012194645933050197 -0
vn -1 0.0000049295476856059395 -0
vn -1 0.0000049295476856059395 -0
vn -1 0.0000049295476856059395 -0
vn -0.0000016433095879619941 1 0.0000011528106824698625
vn -0.0000016433095879619941 1 0.0000011528106824698625
vn -0.0000016433095879619941 1 0.0000011528106824698625
vn -1 0.000007753015779599082 -0.0000006856210461592127
vn -1 0.000007753015779599082 -0.0000006856210461592127
vn -1 0.000007753015779599082 -0.0000006856210461592127
vn 0.25882744789123535 0.9659236073493958 -0
vn 0.25882744789123535 0.9659236073493958 -0
vn 0.25882744789123535 0.9659236073493958 -0
vn -0.2587994337081909 0.9659311771392822 -0
vn -0.2587994337081909 0.9659311771392822 -0
vn -0.2587994337081909 0.9659311771392822 -0
vn -0.7071068286895752 0.7071067690849304 -0
vn -0.7071068286895752 0.7071067690849304 -0
vn -0.7071068286895752 0.7071067690849304 -0
vn -1 -0.00000040389417677033634 -0
vn -1 -0.00000040389417677033634 -0
vn -1 -0.00000040389417677033634 -0
vn 0 0.9999999403953552 -0
vn 0 0.9999999403953552 -0
vn 0 0.9999999403953552 -0
vn 0.25882744789123535 0.9659236073493958 -0
vn -0.25879940390586853 0.9659311771392822 -0
vn -0.25879940390586853 0.9659311771392822 -0
vn -0.25879940390586853 0.9659311771392822 -0
vn -0.7071067690849304 0.7071068286895752 -0
vn -0.7071067690849304 0.7071068286895752 -0
vn -0.7071067690849304 0.7071068286895752 -0
vn -0.9659299850463867 0.25880348682403564 -0
vn -0.9659299850463867 0.25880348682403564 -0
vn -0.9659299850463867 0.25880348682403564 -0
vn 0 0.9999999403953552 -0
vn -1 -0 -0
vn -1 -0 -0
vn -1 -0 -0
f 3/3/3 2/2/2 1/1/1
f 6/6/6 5/5/5 4/4/4
f 9/9/9 8/8/8 7/7/7
f 12/12/12 11/11/11 10/10/10
f 15/15/15 14/14/14 13/13/13
f 18/18/18 17/17/17 16/16/16
f 21/21/21 20/20/20 19/19/19
f 24/24/24 23/23/23 22/22/22
f 27/27/27 26/26/26 25/25/25
f 30/30/30 29/29/29 28/28/28
f 24/24/24 22/22/22 31/31/31
f 34/34/34 33/33/33 32/32/32
f 37/37/37 36/36/36 35/35/35
f 30/30/30 28/28/28 38/38/38
f 41/41/41 40/40/40 39/39/39
f 43/43/43 42/42/42 24/24/24
f 46/46/46 45/45/45 44/44/44
f 49/49/49 48/48/48 47/47/47
f 52/52/52 51/51/51 50/50/50
f 55/55/55 54/54/54 53/53/53
f 58/58/58 57/57/57 56/56/56
f 61/61/61 60/60/60 59/59/59
f 64/64/64 63/63/63 62/62/62
f 67/67/67 66/66/66 65/65/65
f 70/70/70 69/69/69 68/68/68
f 73/73/73 72/72/72 71/71/71
f 76/76/76 75/75/75 74/74/74
f 79/79/79 78/78/78 77/77/77
f 67/67/67 80/80/80 66/66/66
f 83/83/83 82/82/82 81/81/81
f 86/86/86 85/85/85 84/84/84
f 89/89/89 88/88/88 87/87/87
f 79/79/79 77/77/77 90/90/90
f 93/93/93 92/92/92 91/91/91
