# VPXTOOL table OBJ file
# VPXTOOL OBJ file
# numVerts: 74 numFaces: 105
o LM_Journey_L89_PF
v 126.5256118774414 1115.966796875 0.030000003054738045
v 198.60853576660156 1001.680908203125 0.030000003054738045
v 123.47950744628906 1170.4234619140625 0.030000003054738045
v 224.40798950195313 1118.9022216796875 0.030000003054738045
v 123.47950744628906 1170.4234619140625 0.030000003054738045
v 198.60853576660156 1001.680908203125 0.030000003054738045
v 63.12046432495117 1110.49853515625 0.030000003054738045
v 91.9723129272461 1107.80517578125 0.030000003054738045
v 117.81417083740234 1119.3106689453125 0.030000003054738045
v 124.37620544433594 1118.6209716796875 0.030000003054738045
v 126.5256118774414 1115.966796875 0.030000003054738045
v 123.47950744628906 1170.4234619140625 0.030000003054738045
v 123.47950744628906 1170.4234619140625 0.030000003054738045
v 117.81417083740234 1119.3106689453125 0.030000003054738045
v 121.18759155273438 1119.844970703125 0.030000003054738045
v 121.18759155273438 1119.844970703125 0.030000003054738045
v 124.37620544433594 1118.6209716796875 0.030000003054738045
v 224.62652587890625 1119.388916015625 0.030000003054738045
v 123.47950744628906 1170.4234619140625 0.030000003054738045
v 224.40798950195313 1118.9022216796875 0.030000003054738045
v 224.9138946533203 1119.8946533203125 0.030000003054738045
v 123.47950744628906 1170.4234619140625 0.030000003054738045
v 224.62652587890625 1119.388916015625 0.030000003054738045
v 225.27752685546875 1120.38720703125 0.030000003054738045
v 224.9138946533203 1119.8946533203125 0.030000003054738045
v 225.72482299804688 1120.833740234375 0.030000003054738045
v 226.2631072998047 1121.2021484375 0.030000003054738045
v 55.230403900146484 1248.5611572265625 0.030000003054738045
v 232.93545532226563 1202.081787109375 0.030000003054738045
v 232.95616149902344 1202.371826171875 0.030000003054738045
v 233.01412963867188 1202.67236328125 0.030000003054738045
v 233.1197509765625 1202.97021484375 0.030000003054738045
v 233.2833251953125 1203.2523193359375 0.030000003054738045
v 233.51522827148438 1203.505615234375 0.030000003054738045
v 85.40992736816406 1278.523681640625 0.030000003054738045
v 55.230403900146484 1248.5611572265625 0.030000003054738045
v 123.47950744628906 1170.4234619140625 0.030000003054738045
v 233.51522827148438 1203.505615234375 0.030000003054738045
v 233.2833251953125 1203.2523193359375 0.030000003054738045
v 343.087158203125 1236.0811767578125 0.030000003054738045
v 163.06243896484375 1317.53662109375 0.030000003054738045
v 100.49969482421875 1293.5048828125 0.030000003054738045
v 85.40992736816406 1278.523681640625 0.030000003054738045
v 123.47950744628906 1170.4234619140625 0.030000003054738045
v 233.51522827148438 1203.505615234375 0.030000003054738045
v 343.087158203125 1236.0811767578125 0.030000003054738045
v 343.55096435546875 1236.587890625 0.030000003054738045
v 123.47950744628906 1170.4234619140625 0.030000003054738045
v 108.04457092285156 1300.99560546875 0.030000003054738045
v 100.49969482421875 1293.5048828125 0.030000003054738045
v 163.06243896484375 1317.53662109375 0.030000003054738045
v 108.04457092285156 1300.99560546875 0.030000003054738045
v 123.47950744628906 1170.4234619140625 0.030000003054738045
v 343.55096435546875 1236.587890625 0.030000003054738045
v 273.09814453125 1350.6187744140625 0.030000003054738045
v 233.51522827148438 1203.505615234375 0.030000003054738045
v 218.08029174804688 1334.07763671875 0.030000003054738045
v 163.06243896484375 1317.53662109375 0.030000003054738045
v 233.51522827148438 1203.505615234375 0.030000003054738045
v 273.09814453125 1350.6187744140625 0.030000003054738045
v 218.08029174804688 1334.07763671875 0.030000003054738045
v 233.51522827148438 1203.505615234375 0.030000003054738045
v 100.49969482421875 1293.5048828125 0.030000003054738045
v 108.04457092285156 1300.99560546875 0.030000003054738045
v 77.5198745727539 1416.58642578125 0.030000003054738045
v 92.60963439941406 1431.567626953125 0.030000003054738045
v 108.04457092285156 1300.99560546875 0.030000003054738045
v 77.5198745727539 1416.58642578125 0.030000003054738045
v 218.08029174804688 1334.07763671875 0.030000003054738045
v 202.64535522460938 1464.6497802734375 0.030000003054738045
v 273.09814453125 1350.6187744140625 0.030000003054738045
v 202.64535522460938 1464.6497802734375 0.030000003054738045
v 92.60963439941406 1431.567626953125 0.030000003054738045
v 163.06243896484375 1317.53662109375 0.030000003054738045
vt 0.6238418817520142 0.7354204654693604
vt 0.7263564467430115 0.7297784090042114
vt 0.6128730177879333 0.7382415533065796
vt 0.747584879398346 0.7355703115463257
vt 0.6128730177879333 0.7382415533065796
vt 0.7263564467430115 0.7297784090042114
vt 0.5443322062492371 0.7351421117782593
vt 0.5812042951583862 0.735005259513855
vt 0.6123678088188171 0.7355911731719971
vt 0.6207781434059143 0.73555588722229
vt 0.6238418817520142 0.7354204654693604
vt 0.6128730177879333 0.7382415533065796
vt 0.6128730177879333 0.7382415533065796
vt 0.6123678088188171 0.7355911731719971
vt 0.616576611995697 0.7356184720993042
vt 0.616576611995697 0.7356184720993042
vt 0.6207781434059143 0.73555588722229
vt 0.74781733751297 0.735595166683197
vt 0.6128730177879333 0.7382415533065796
vt 0.747584879398346 0.7355703115463257
vt 0.7481353878974915 0.7356209754943848
vt 0.6128730177879333 0.7382415533065796
vt 0.74781733751297 0.735595166683197
vt 0.7485514283180237 0.7356461882591248
vt 0.7481353878974915 0.7356209754943848
vt 0.7490780353546143 0.7356690168380737
vt 0.7497273683547974 0.7356878519058228
vt 0.5123688578605652 0.7424498796463013
vt 0.7508339881896973 0.7399232387542725
vt 0.7508338689804077 0.7399387359619141
vt 0.7508811950683594 0.7399548888206482
vt 0.7509906888008118 0.739970862865448
vt 0.7511770129203796 0.7399859428405762
vt 0.7514548301696777 0.739999532699585
vt 0.5474685430526733 0.7441163063049316
vt 0.5123688578605652 0.7424498796463013
vt 0.6128730177879333 0.7382415533065796
vt 0.7514548301696777 0.739999532699585
vt 0.7511770129203796 0.7399859428405762
vt 0.8921872973442078 0.7417645454406738
vt 0.6457216739654541 0.7463316917419434
vt 0.5652574896812439 0.7449607849121094
vt 0.5474685430526733 0.7441163063049316
vt 0.6128730177879333 0.7382415533065796
vt 0.7514548301696777 0.739999532699585
vt 0.8921872973442078 0.7417645454406738
vt 0.8927697539329529 0.7417923212051392
vt 0.6128730177879333 0.7382415533065796
vt 0.5742127299308777 0.745386004447937
vt 0.5652574896812439 0.7449607849121094
vt 0.6457216739654541 0.7463316917419434
vt 0.5742127299308777 0.745386004447937
vt 0.6128730177879333 0.7382415533065796
vt 0.8927697539329529 0.7417923212051392
vt 0.7909295558929443 0.7482521533966064
vt 0.7514548301696777 0.739999532699585
vt 0.7179569602012634 0.7472870349884033
vt 0.6457216739654541 0.7463316917419434
vt 0.7514548301696777 0.739999532699585
vt 0.7909295558929443 0.7482521533966064
vt 0.7179569602012634 0.7472870349884033
vt 0.7514548301696777 0.739999532699585
vt 0.5652574896812439 0.7449607849121094
vt 0.5742127299308777 0.745386004447937
vt 0.513949990272522 0.7522010803222656
vt 0.5323573350906372 0.7531208395957947
vt 0.5742127299308777 0.745386004447937
vt 0.513949990272522 0.7522010803222656
vt 0.7179569602012634 0.7472870349884033
vt 0.6816613078117371 0.7551831603050232
vt 0.7909295558929443 0.7482521533966064
vt 0.6816613078117371 0.7551831603050232
vt 0.5323573350906372 0.7531208395957947
vt 0.6457216739654541 0.7463316917419434
vn 0 -0 -1
vn 0 -0 -1
vn 0 -0 -1
vn 0.000000000014826277358603868 -0 -1
vn 0.000000000014826277358603868 -0 -1
vn 0.000000000014826277358603868 -0 -1
vn 0 -0 -1
vn 0 -0 -1
vn 0 -0 -1
vn 0.0000000003357453759456064 -0 -0.9999999403953552
vn 0.0000000003357453759456064 -0 -0.9999999403953552
vn 0.0000000003357453759456064 -0 -0.9999999403953552
vn -0.000000001151829520651404 -0 -1
vn -0.000000001151829520651404 -0 -1
vn -0.000000001151829520651404 -0 -1
vn 0 -0 -1
vn 0 -0 -1
vn 0.00000000323279425451517 -0 -1
vn 0.00000000323279425451517 -0 -1
vn 0.00000000323279425451517 -0 -1
vn -0.000000002965174772384671 -0 -1
vn -0.000000002965174772384671 -0 -1
vn -0.000000002965174772384671 -0 -1
vn 0 -0 -1
vn 0 -0 -1
vn 0 -0 -1
vn 0 -0 -1
vn 0 -0 -1
vn 0 -0 -1
vn 0 -0 -1
vn 0 -0 -1
vn 0 -0 -1
vn 0 -0 -1
vn 0 -0 -1
vn -0.00000000008862758443806129 -0 -1
vn -0.00000000008862758443806129 -0 -1
vn -0.00000000008862758443806129 -0 -1
vn 0.0000000003017956717865644 -0 -1
vn 0.0000000003017956717865644 -0 -1
vn 0.0000000003017956717865644 -0 -1
vn 0 -0 -1
vn 0.00000000008862758443806129 -0 -1
vn 0.00000000008862758443806129 -0 -1
vn 0.00000000008862758443806129 -0 -1
vn 0 -0 -0.9999999403953552
vn 0 -0 -0.9999999403953552
vn 0 -0 -0.9999999403953552
vn 0 -0 -0.9999999403953552
vn 0 -0 -0.9999999403953552
vn 0 -0 -0.9999999403953552
vn 0.000000000013114288301141475 -0 -1
vn 0.000000000013114288301141475 -0 -1
vn 0.000000000013114288301141475 -0 -1
vn 0.00000000005245706299894515 -0 -1
vn 0.00000000005245706299894515 -0 -1
vn 0.00000000005245706299894515 -0 -1
vn 0.000000000013114265749736287 -0 -1
vn 0.000000000013114265749736287 -0 -1
vn 0.000000000013114265749736287 -0 -1
vn -0.00000000003934286577078616 -0 -1
vn -0.00000000003934286577078616 -0 -1
vn -0.00000000003934286577078616 -0 -1
vn 0.00000000008862732076009294 -0 -0.9999999403953552
vn 0.00000000008862732076009294 -0 -0.9999999403953552
vn 0.00000000008862732076009294 -0 -0.9999999403953552
vn 0 -0 -1
vn 0 -0 -1
vn 0 -0 -1
vn 0 -0 -1
vn 0 -0 -1
vn 0 -0 -1
vn -0.000000000013114265749736287 -0 -1
vn -0.000000000013114265749736287 -0 -1
vn -0.000000000013114265749736287 -0 -1
f 3/3/3 2/2/2 1/1/1
f 6/6/6 5/5/5 4/4/4
f 8/8/8 7/7/7 3/3/3
f 9/9/9 8/8/8 3/3/3
f 12/12/12 11/11/11 10/10/10
f 15/15/15 14/14/14 13/13/13
f 3/3/3 17/17/17 16/16/16
f 20/20/20 19/19/19 18/18/18
f 23/23/23 22/22/22 21/21/21
f 25/25/25 3/3/3 24/24/24
f 24/24/24 3/3/3 26/26/26
f 26/26/26 3/3/3 27/27/27
f 3/3/3 7/7/7 28/28/28
f 29/29/29 27/27/27 3/3/3
f 29/29/29 3/3/3 30/30/30
f 30/30/30 3/3/3 31/31/31
f 31/31/31 3/3/3 32/32/32
f 32/32/32 3/3/3 33/33/33
f 33/33/33 3/3/3 34/34/34
f 37/37/37 36/36/36 35/35/35
f 40/40/40 39/39/39 38/38/38
f 3/3/3 41/41/41 34/34/34
f 44/44/44 43/43/43 42/42/42
f 47/47/47 46/46/46 45/45/45
f 50/50/50 49/49/49 48/48/48
f 53/53/53 52/52/52 51/51/51
f 56/56/56 55/55/55 54/54/54
f 59/59/59 58/58/58 57/57/57
f 62/62/62 61/61/61 60/60/60
f 65/65/65 64/64/64 63/63/63
f 67/67/67 66/66/66 41/41/41
f 68/68/68 66/66/66 67/67/67
f 41/41/41 70/70/70 69/69/69
f 69/69/69 70/70/70 71/71/71
f 74/74/74 73/73/73 72/72/72
