# VPXTOOL table OBJ file
# VPXTOOL OBJ file
# numVerts: 55 numFaces: 57
o LM_inserts_L07_Layer2
v 4.247196674346924 56.304771423339844 55.98625183105469
v 4.247196674346924 56.304771423339844 13.06325912475586
v 39.004737854003906 49.12460708618164 54.972206115722656
v 39.004737854003906 49.12460708618164 54.972206115722656
v 39.004737854003906 49.12460708618164 12.04922103881836
v 80.77552795410156 55.915008544921875 52.606101989746094
v 4.247196674346924 56.304771423339844 13.06325912475586
v 39.004737854003906 49.12460708618164 12.04922103881836
v 39.004737854003906 49.12460708618164 54.972206115722656
v 4.247196674346924 56.304771423339844 55.98625183105469
v 39.004737854003906 49.12460708618164 54.972206115722656
v 28.7288875579834 104.436279296875 55.98625183105469
v 57.38908386230469 99.33568572998047 55.13996124267578
v 39.004737854003906 49.12460708618164 54.972206115722656
v 80.77552795410156 55.915008544921875 52.606101989746094
v 80.77552795410156 55.915008544921875 9.683117866516113
v 80.77552795410156 55.915008544921875 52.606101989746094
v 80.77552795410156 55.915008544921875 9.683117866516113
v 126.60551452636719 72.98838806152344 49.901981353759766
v 39.004737854003906 49.12460708618164 54.972206115722656
v 57.38908386230469 99.33568572998047 55.13996124267578
v 28.7288875579834 104.436279296875 55.98625183105469
v 91.3539047241211 107.30243682861328 53.1652946472168
v 80.77552795410156 55.915008544921875 52.606101989746094
v 126.60551452636719 72.98838806152344 49.901981353759766
v 91.3539047241211 107.30243682861328 53.1652946472168
v 57.38908386230469 99.33568572998047 55.13996124267578
v 80.77552795410156 55.915008544921875 52.606101989746094
v 80.77552795410156 55.915008544921875 9.683117866516113
v 126.60551452636719 72.98838806152344 6.979002475738525
v 126.60551452636719 72.98838806152344 49.901981353759766
v 126.60551452636719 72.98838806152344 49.901981353759766
v 126.60551452636719 72.98838806152344 6.979002475738525
v 173.54061889648438 96.65725708007813 47.8738899230957
v 126.60551452636719 72.98838806152344 49.901981353759766
v 128.3773651123047 124.69584655761719 50.90852355957031
v 91.3539047241211 107.30243682861328 53.1652946472168
v 128.3773651123047 124.69584655761719 50.90852355957031
v 126.60551452636719 72.98838806152344 49.901981353759766
v 173.54061889648438 96.65725708007813 47.8738899230957
v 126.60551452636719 72.98838806152344 6.979002475738525
v 173.54061889648438 96.65725708007813 4.95089864730835
v 173.54061889648438 96.65725708007813 47.8738899230957
v 173.54061889648438 96.65725708007813 47.8738899230957
v 173.54061889648438 96.65725708007813 4.95089864730835
v 218.62669372558594 123.23407745361328 47.5358772277832
v 173.54061889648438 96.65725708007813 47.8738899230957
v 166.2134246826172 147.87518310546875 49.215946197509766
v 128.3773651123047 124.69584655761719 50.90852355957031
v 173.54061889648438 96.65725708007813 47.8738899230957
v 218.62669372558594 123.23407745361328 47.5358772277832
v 166.2134246826172 147.87518310546875 49.215946197509766
v 218.62669372558594 123.23407745361328 47.5358772277832
v 202.6160430908203 173.1997833251953 48.93385314941406
v 166.2134246826172 147.87518310546875 49.215946197509766
vt 0.024257082492113113 0.6997283101081848
vt 0.00416945805773139 0.6998001337051392
vt 0.021713964641094208 0.6948738694190979
vt 0.021713964641094208 0.6948738694190979
vt 0.0016353955725207925 0.6949009299278259
vt 0.022575801238417625 0.6890485286712646
vt 0.00416945805773139 0.6998001337051392
vt 0.0016353955725207925 0.6949009299278259
vt 0.021713964641094208 0.6948738694190979
vt 0.024257082492113113 0.6997283101081848
vt 0.021713964641094208 0.6948738694190979
vt 0.03835178539156914 0.696366548538208
vt 0.03644709661602974 0.6923177242279053
vt 0.021713964641094208 0.6948738694190979
vt 0.022575801238417625 0.6890485286712646
vt 0.002460173098370433 0.6890219449996948
vt 0.022575801238417625 0.6890485286712646
vt 0.002460173098370433 0.6890219449996948
vt 0.026272736489772797 0.682604193687439
vt 0.021713964641094208 0.6948738694190979
vt 0.03644709661602974 0.6923177242279053
vt 0.03835178539156914 0.696366548538208
vt 0.03788510710000992 0.6875145435333252
vt 0.022575801238417625 0.6890485286712646
vt 0.026272736489772797 0.682604193687439
vt 0.03788510710000992 0.6875145435333252
vt 0.03644709661602974 0.6923177242279053
vt 0.022575801238417625 0.6890485286712646
vt 0.002460173098370433 0.6890219449996948
vt 0.006091131363064051 0.6825177669525146
vt 0.026272736489772797 0.682604193687439
vt 0.026272736489772797 0.682604193687439
vt 0.006091131363064051 0.6825177669525146
vt 0.03226340934634209 0.6759153008460999
vt 0.026272736489772797 0.682604193687439
vt 0.042012572288513184 0.6822296977043152
vt 0.03788510710000992 0.6875145435333252
vt 0.042012572288513184 0.6822296977043152
vt 0.026272736489772797 0.682604193687439
vt 0.03226340934634209 0.6759153008460999
vt 0.006091131363064051 0.6825177669525146
vt 0.012005019932985306 0.6757659912109375
vt 0.03226340934634209 0.6759153008460999
vt 0.03226340934634209 0.6759153008460999
vt 0.012005019932985306 0.6757659912109375
vt 0.03999404236674309 0.6693929433822632
vt 0.03226340934634209 0.6759153008460999
vt 0.048195913434028625 0.6767549514770508
vt 0.042012572288513184 0.6822296977043152
vt 0.03226340934634209 0.6759153008460999
vt 0.03999404236674309 0.6693929433822632
vt 0.048195913434028625 0.6767549514770508
vt 0.03999404236674309 0.6693929433822632
vt 0.055782027542591095 0.671410858631134
vt 0.048195913434028625 0.6767549514770508
vn 0.20230704545974731 0.9793221950531006 -0
vn 0.20230704545974731 0.9793221950531006 -0
vn 0.20230704545974731 0.9793221950531006 -0
vn -0.1604570597410202 0.9870428442955017 -0
vn -0.1604570597410202 0.9870428442955017 -0
vn -0.1604570597410202 0.9870428442955017 -0
vn 0.20230701565742493 0.9793221354484558 -0
vn 0.20230701565742493 0.9793221354484558 -0
vn 0.20230701565742493 0.9793221354484558 -0
vn -0.026389336213469505 0.013422648422420025 -0.999561607837677
vn -0.026389336213469505 0.013422648422420025 -0.999561607837677
vn -0.026389336213469505 0.013422648422420025 -0.999561607837677
vn -0.0606754831969738 0.02554957941174507 -0.9978305101394653
vn -0.0606754831969738 0.02554957941174507 -0.9978305101394653
vn -0.0606754831969738 0.02554957941174507 -0.9978305101394653
vn -0.1604570597410202 0.9870428442955017 -0
vn -0.34909942746162415 0.937085747718811 -0
vn -0.34909942746162415 0.937085747718811 -0
vn -0.34909942746162415 0.937085747718811 -0
vn -0.02715110220015049 0.013280721381306648 -0.9995431303977966
vn -0.02715110220015049 0.013280721381306648 -0.9995431303977966
vn -0.02715110220015049 0.013280721381306648 -0.9995431303977966
vn -0.06811486929655075 0.02487502060830593 -0.9973674416542053
vn -0.06811486929655075 0.02487502060830593 -0.9973674416542053
vn -0.06811486929655075 0.02487502060830593 -0.9973674416542053
vn -0.06362252682447433 0.023953747004270554 -0.997686505317688
vn -0.06362252682447433 0.023953747004270554 -0.997686505317688
vn -0.06362252682447433 0.023953747004270554 -0.997686505317688
vn -0.349099338054657 0.937085747718811 -0
vn -0.349099338054657 0.937085747718811 -0
vn -0.349099338054657 0.937085747718811 -0
vn -0.4502747654914856 0.8928900957107544 -0
vn -0.4502747654914856 0.8928900957107544 -0
vn -0.4502747654914856 0.8928900957107544 -0
vn -0.07105008512735367 0.02184693142771721 -0.9972334504127502
vn -0.07105008512735367 0.02184693142771721 -0.9972334504127502
vn -0.07105008512735367 0.02184693142771721 -0.9972334504127502
vn -0.05386904254555702 0.021279335021972656 -0.9983212351799011
vn -0.05386904254555702 0.021279335021972656 -0.9983212351799011
vn -0.05386904254555702 0.021279335021972656 -0.9983212351799011
vn -0.4502749741077423 0.8928899765014648 -0
vn -0.4502749741077423 0.8928899765014648 -0
vn -0.4502749741077423 0.8928899765014648 -0
vn -0.5078091621398926 0.861469566822052 -0
vn -0.5078091621398926 0.861469566822052 -0
vn -0.5078091621398926 0.861469566822052 -0
vn -0.055792368948459625 0.01817607320845127 -0.9982768297195435
vn -0.055792368948459625 0.01817607320845127 -0.9982768297195435
vn -0.055792368948459625 0.01817607320845127 -0.9982768297195435
vn -0.0211482010781765 0.023164546117186546 -0.9995079040527344
vn -0.0211482010781765 0.023164546117186546 -0.9995079040527344
vn -0.0211482010781765 0.023164546117186546 -0.9995079040527344
vn -0.02224266715347767 0.020838450640439987 -0.9995354413986206
vn -0.02224266715347767 0.020838450640439987 -0.9995354413986206
vn -0.02224266715347767 0.020838450640439987 -0.9995354413986206
f 3/3/3 2/2/2 1/1/1
f 6/6/6 5/5/5 4/4/4
f 9/9/9 8/8/8 7/7/7
f 12/12/12 11/11/11 10/10/10
f 15/15/15 14/14/14 13/13/13
f 6/6/6 16/16/16 5/5/5
f 19/19/19 18/18/18 17/17/17
f 22/22/22 21/21/21 20/20/20
f 25/25/25 24/24/24 23/23/23
f 28/28/28 27/27/27 26/26/26
f 31/31/31 30/30/30 29/29/29
f 34/34/34 33/33/33 32/32/32
f 37/37/37 36/36/36 35/35/35
f 40/40/40 39/39/39 38/38/38
f 43/43/43 42/42/42 41/41/41
f 46/46/46 45/45/45 44/44/44
f 49/49/49 48/48/48 47/47/47
f 52/52/52 51/51/51 50/50/50
f 55/55/55 54/54/54 53/53/53
