# VPXTOOL table OBJ file
# VPXTOOL OBJ file
# numVerts: 61 numFaces: 93
o LM_inserts_L23_PF
v 689.4808959960938 807.7288818359375 0.030000003054738045
v 693.5289306640625 830.762939453125 0.030000003054738045
v 586.8759765625 858.5521240234375 0.030000003054738045
v 586.77294921875 858.200927734375 0.030000003054738045
v 594.9720458984375 904.6201782226563 0.030000003054738045
v 484.2196350097656 909.1996459960938 0.030000003054738045
v 693.5289306640625 830.762939453125 0.030000003054738045
v 708.6161499023438 941.4721069335938 0.030000003054738045
v 594.9720458984375 904.6201782226563 0.030000003054738045
v 484.2710876464844 909.375244140625 0.030000003054738045
v 586.8759765625 858.5521240234375 0.030000003054738045
v 594.9720458984375 904.6201782226563 0.030000003054738045
v 484.2196350097656 909.1996459960938 0.030000003054738045
v 586.8759765625 858.5521240234375 0.030000003054738045
v 484.2710876464844 909.375244140625 0.030000003054738045
v 488.3191223144531 932.4092407226563 0.030000003054738045
v 484.2710876464844 909.375244140625 0.030000003054738045
v 594.9720458984375 904.6201782226563 0.030000003054738045
v 484.2710876464844 909.375244140625 0.030000003054738045
v 381.6662292480469 960.1983032226563 0.030000003054738045
v 488.3191223144531 932.4092407226563 0.030000003054738045
v 496.4151916503906 978.4773559570313 0.030000003054738045
v 381.4601135253906 959.4959716796875 0.030000003054738045
v 381.6662292480469 960.1983032226563 0.030000003054738045
v 381.6662292480469 960.1983032226563 35.32411575317383
v 381.4601135253906 959.4959716796875 0.030000003054738045
v 708.6161499023438 941.4721069335938 0.030000003054738045
v 723.7031860351563 1052.181396484375 0.030000003054738045
v 397.8582763671875 1052.3345947265625 35.32411575317383
v 381.6662292480469 960.1983032226563 35.32411575317383
v 381.6662292480469 960.1983032226563 0.030000003054738045
v 496.4151916503906 978.4773559570313 0.030000003054738045
v 397.8582763671875 1052.3345947265625 0.030000003054738045
v 381.6662292480469 960.1983032226563 0.030000003054738045
v 496.4151916503906 978.4773559570313 0.030000003054738045
v 594.9720458984375 904.6201782226563 0.030000003054738045
v 625.1463012695313 1126.03857421875 0.030000003054738045
v 397.8582763671875 1052.3345947265625 0.030000003054738045
v 397.8582763671875 1052.3345947265625 35.32411575317383
v 381.6662292480469 960.1983032226563 0.030000003054738045
v 723.7031860351563 1052.181396484375 0.030000003054738045
v 625.1463012695313 1126.03857421875 0.030000003054738045
v 594.9720458984375 904.6201782226563 0.030000003054738045
v 398.0652160644531 1054.3619384765625 35.32411575317383
v 397.8582763671875 1052.3345947265625 35.32411575317383
v 397.8582763671875 1052.3345947265625 0.030000003054738045
v 511.50225830078125 1089.1866455078125 0.030000003054738045
v 397.8582763671875 1052.3345947265625 0.030000003054738045
v 398.0652160644531 1054.3619384765625 0.030000003054738045
v 625.1463012695313 1126.03857421875 0.030000003054738045
v 398.0652160644531 1054.3619384765625 0.030000003054738045
v 397.8582763671875 1052.3345947265625 0.030000003054738045
v 511.50225830078125 1089.1866455078125 0.030000003054738045
v 511.6057434082031 1090.2003173828125 0.030000003054738045
v 398.0652160644531 1054.3619384765625 0.030000003054738045
v 511.65753173828125 1090.7071533203125 0.030000003054738045
v 738.7904052734375 1162.890625 0.030000003054738045
v 625.1463012695313 1126.03857421875 0.030000003054738045
v 625.2498168945313 1127.0523681640625 0.030000003054738045
v 511.65753173828125 1090.7071533203125 0.030000003054738045
v 625.2498168945313 1127.0523681640625 0.030000003054738045
vt 0.5923741459846497 0.006066441535949707
vt 0.6083268523216248 0.005675077438354492
vt 0.6278347373008728 0.01341944932937622
vt 0.6275863647460938 0.01342785358428955
vt 0.6608222723007202 0.012713015079498291
vt 0.6641464829444885 0.02097940444946289
vt 0.6083268523216248 0.005675077438354492
vt 0.6878100633621216 0.004054665565490723
vt 0.6608222723007202 0.012713015079498291
vt 0.6642742156982422 0.02097553014755249
vt 0.6278347373008728 0.01341944932937622
vt 0.6608222723007202 0.012713015079498291
vt 0.6641464829444885 0.02097940444946289
vt 0.6278347373008728 0.01341944932937622
vt 0.6642742156982422 0.02097553014755249
vt 0.6811225414276123 0.02066713571548462
vt 0.6642742156982422 0.02097553014755249
vt 0.6608222723007202 0.012713015079498291
vt 0.6642742156982422 0.02097553014755249
vt 0.7017337083816528 0.028743088245391846
vt 0.6811225414276123 0.02066713571548462
vt 0.7154639959335327 0.0200386643409729
vt 0.7012088894844055 0.02875727415084839
vt 0.7017337083816528 0.028743088245391846
vt 0.7351951003074646 0.028685271739959717
vt 0.7012088894844055 0.02875727415084839
vt 0.6878100633621216 0.004054665565490723
vt 0.7722658514976501 0.002332925796508789
vt 0.8061259388923645 0.02761971950531006
vt 0.7351951003074646 0.028685271739959717
vt 0.7017337083816528 0.028743088245391846
vt 0.7154639959335327 0.0200386643409729
vt 0.7723864912986755 0.027670085430145264
vt 0.7017337083816528 0.028743088245391846
vt 0.7154639959335327 0.0200386643409729
vt 0.6608222723007202 0.012713015079498291
vt 0.8316096067428589 0.009749293327331543
vt 0.7723864912986755 0.027670085430145264
vt 0.8061259388923645 0.02761971950531006
vt 0.7017337083816528 0.028743088245391846
vt 0.7722658514976501 0.002332925796508789
vt 0.8316096067428589 0.009749293327331543
vt 0.6608222723007202 0.012713015079498291
vt 0.8077279329299927 0.02760714292526245
vt 0.8061259388923645 0.02761971950531006
vt 0.7723864912986755 0.027670085430145264
vt 0.8016862869262695 0.018803954124450684
vt 0.7723864912986755 0.027670085430145264
vt 0.7739824056625366 0.02765744924545288
vt 0.8316096067428589 0.009749293327331543
vt 0.7739824056625366 0.02765744924545288
vt 0.7723864912986755 0.027670085430145264
vt 0.8016862869262695 0.018803954124450684
vt 0.8025010824203491 0.018795013427734375
vt 0.7739824056625366 0.02765744924545288
vt 0.8029085993766785 0.01879054307937622
vt 0.8621760010719299 0.0004999637603759766
vt 0.8316096067428589 0.009749293327331543
vt 0.8324417471885681 0.009737610816955566
vt 0.8029085993766785 0.01879054307937622
vt 0.8324417471885681 0.009737610816955566
vn 0 -0 -1
vn 0 -0 -1
vn 0 -0 -1
vn 0 -0 -1
vn 0 -0 -1
vn 0 -0 -1
vn -0.00000000006490131349012884 -0 -1
vn -0.00000000006490131349012884 -0 -1
vn -0.00000000006490131349012884 -0 -1
vn -0.000000000037973055255768884 -0 -1
vn -0.000000000037973055255768884 -0 -1
vn -0.000000000037973055255768884 -0 -1
vn 0.00000000945988176681567 -0 -1
vn 0.00000000945988176681567 -0 -1
vn 0.00000000945988176681567 -0 -1
vn 0.0000000000379733501587598 -0 -0.9999999403953552
vn 0.0000000000379733501587598 -0 -0.9999999403953552
vn 0.0000000000379733501587598 -0 -0.9999999403953552
vn 0 -0 -1
vn 0 -0 -1
vn 0 -0 -1
vn 0 -0 -1
vn 0 -0 -1
vn -0.9595535397529602 0.2815260589122772 -0
vn -0.9595535397529602 0.2815260589122772 -0
vn -0.9595535397529602 0.2815260589122772 -0
vn 0 -0 -1
vn 0 -0 -1
vn -0.9849063754081726 0.17308790981769562 -0
vn -0.9849063754081726 0.17308790981769562 -0
vn -0.9849063754081726 0.17308790981769562 -0
vn 0 -0 -0.9999999403953552
vn 0 -0 -0.9999999403953552
vn 0 -0 -0.9999999403953552
vn 0.000000000016225349189213922 -0 -1
vn 0.000000000016225349189213922 -0 -1
vn 0.000000000016225349189213922 -0 -1
vn -0.9849065542221069 0.1730869859457016 -0
vn -0.9849065542221069 0.1730869859457016 -0
vn -0.9849065542221069 0.1730869859457016 -0
vn -0.000000000016225331841979163 -0 -1
vn -0.000000000016225331841979163 -0 -1
vn -0.000000000016225331841979163 -0 -1
vn -0.9948297142982483 0.10155726224184036 -0
vn -0.9948297142982483 0.10155726224184036 -0
vn -0.9948297142982483 0.10155726224184036 -0
vn 0 -0 -1
vn 0 -0 -1
vn -0.9948297142982483 0.10155726224184036 -0
vn 0 -0 -1
vn 0.0000000004926995478271579 -0 -1
vn 0.0000000004926995478271579 -0 -1
vn 0.0000000004926995478271579 -0 -1
vn 0 -0 -1
vn 0 -0 -1
vn 0 -0 -1
vn 0 -0 -1
vn -0.0000000005474505848646061 -0 -1
vn -0.0000000005474505848646061 -0 -1
vn -0.0000000005474505848646061 -0 -1
vn 0 -0 -1
f 3/3/3 2/2/2 1/1/1
f 4/4/4 3/3/3 1/1/1
f 3/3/3 5/5/5 2/2/2
f 3/3/3 4/4/4 6/6/6
f 9/9/9 8/8/8 7/7/7
f 12/12/12 11/11/11 10/10/10
f 15/15/15 14/14/14 13/13/13
f 18/18/18 17/17/17 16/16/16
f 6/6/6 20/20/20 19/19/19
f 20/20/20 21/21/21 19/19/19
f 21/21/21 22/22/22 5/5/5
f 23/23/23 20/20/20 6/6/6
f 26/26/26 25/25/25 24/24/24
f 20/20/20 22/22/22 21/21/21
f 5/5/5 28/28/28 27/27/27
f 31/31/31 30/30/30 29/29/29
f 34/34/34 33/33/33 32/32/32
f 37/37/37 36/36/36 35/35/35
f 40/40/40 39/39/39 38/38/38
f 43/43/43 42/42/42 41/41/41
f 46/46/46 45/45/45 44/44/44
f 48/48/48 47/47/47 22/22/22
f 46/46/46 44/44/44 49/49/49
f 50/50/50 22/22/22 47/47/47
f 53/53/53 52/52/52 51/51/51
f 47/47/47 55/55/55 54/54/54
f 54/54/54 50/50/50 47/47/47
f 56/56/56 50/50/50 54/54/54
f 50/50/50 57/57/57 28/28/28
f 60/60/60 59/59/59 58/58/58
f 50/50/50 61/61/61 57/57/57
