# VPXTOOL table OBJ file
# VPXTOOL OBJ file
# numVerts: 93 numFaces: 102
o BM_sw06
v 13.599963188171387 7.999998092651367 -52.39198684692383
v 16.799896240234375 7.999998092651367 -55.591983795166016
v 16.799896240234375 7.999998092651367 -52.39198684692383
v 13.599963188171387 7.999998092651367 -52.39198684692383
v -16.80006217956543 7.999998092651367 -55.591983795166016
v 16.799896240234375 7.999998092651367 -55.591983795166016
v 13.599963188171387 7.999998092651367 -52.39198684692383
v 16.799896240234375 7.999998092651367 -52.39198684692383
v 16.799951553344727 4.800009727478027 -47.59198760986328
v 13.599963188171387 7.999998092651367 -52.39198684692383
v -13.600018501281738 7.999942779541016 -52.39198684692383
v -16.80006217956543 7.999998092651367 -55.591983795166016
v 13.599963188171387 4.800009727478027 -52.39198684692383
v 13.599963188171387 7.999998092651367 -52.39198684692383
v 13.599963188171387 4.800009727478027 -47.59198760986328
v 13.599963188171387 4.800009727478027 -47.59198760986328
v 13.599963188171387 7.999998092651367 -52.39198684692383
v 16.799951553344727 4.800009727478027 -47.59198760986328
v -13.600018501281738 7.999942779541016 -52.39198684692383
v -16.80006217956543 7.999998092651367 -52.39198684692383
v -16.80006217956543 7.999998092651367 -55.591983795166016
v -13.60007381439209 4.800009727478027 -52.39198684692383
v 13.599963188171387 4.800009727478027 -52.39198684692383
v 13.599963188171387 4.800009727478027 -47.59198760986328
v -16.80006217956543 7.999998092651367 -52.39198684692383
v -13.600018501281738 7.999942779541016 -52.39198684692383
v -16.799951553344727 4.799954414367676 -47.59198760986328
v 16.799896240234375 7.999998092651367 -55.591983795166016
v -16.80006217956543 7.999998092651367 -55.591983795166016
v -16.800006866455078 -8.000053405761719 -55.591983795166016
v -13.60007381439209 4.800009727478027 -47.59198760986328
v -13.600018501281738 7.999942779541016 -52.39198684692383
v -13.60007381439209 4.800009727478027 -47.59198760986328
v -16.799951553344727 4.799954414367676 -47.59198760986328
v -16.800006866455078 -6.400031566619873 -50.791988372802734
v -16.80006217956543 7.999998092651367 -55.591983795166016
v -16.80006217956543 7.999998092651367 -52.39198684692383
v 16.800006866455078 -8.000053405761719 -55.591983795166016
v -16.800006866455078 -6.400031566619873 -50.791988372802734
v -16.80006217956543 7.999998092651367 -52.39198684692383
v -16.799951553344727 4.799954414367676 -47.59198760986328
v 16.799951553344727 4.800009727478027 -47.59198760986328
v 16.799951553344727 4.800009727478027 -4.391999244689941
v -16.800006866455078 -6.400031566619873 -50.791988372802734
v -16.800006866455078 -8.000053405761719 -55.591983795166016
v -16.80006217956543 7.999998092651367 -55.591983795166016
v 13.599963188171387 4.800009727478027 -47.59198760986328
v 16.799951553344727 4.800009727478027 -4.391999244689941
v -13.60007381439209 4.800009727478027 -47.59198760986328
v -16.799951553344727 4.799954414367676 -4.391999244689941
v -16.799951553344727 4.799954414367676 -47.59198760986328
v -13.60007381439209 4.800009727478027 -47.59198760986328
v -16.800006866455078 -6.400031566619873 -50.791988372802734
v -16.800006866455078 -8.000053405761719 -52.39198684692383
v -16.800006866455078 -8.000053405761719 -55.591983795166016
v -16.800006866455078 -6.400031566619873 -50.791988372802734
v -16.799951553344727 4.799954414367676 -47.59198760986328
v -16.799951553344727 4.799954414367676 -4.391999244689941
v 16.799951553344727 4.800009727478027 -4.391999244689941
v -16.799951553344727 4.799954414367676 -4.391999244689941
v -13.60007381439209 4.800009727478027 -47.59198760986328
v -16.800006866455078 -6.400031566619873 -50.791988372802734
v -16.799951553344727 4.799954414367676 -4.391999244689941
v -16.800006866455078 -1.6000217199325562 3.607999086380005
v 3.1998777389526367 3.9425201416015625 -4.391999244689941
v 3.1998777389526367 3.9425201416015625 50.66682434082031
v 0 4.799954414367676 -4.391999244689941
v 0 4.799954414367676 -4.391999244689941
v 0 4.799954414367676 50.66682434082031
v -3.2000434398651123 3.942575216293335 -4.391999244689941
v -3.2000434398651123 3.942575216293335 -4.391999244689941
v -3.2000434398651123 3.942575216293335 50.66682434082031
v -5.542652130126953 1.5999664068222046 -4.391999244689941
v -16.800006866455078 -1.6000217199325562 3.607999086380005
v -16.800006866455078 -6.400031566619873 52.26681900024414
v -16.800006866455078 -6.400031566619873 -50.791988372802734
v -16.800006866455078 -1.6000217199325562 3.607999086380005
v 16.800006866455078 -1.6000217199325562 3.607999086380005
v 16.800006866455078 -1.6000217199325562 52.26681900024414
v 0 4.799954414367676 50.66682434082031
v 0 4.799954414367676 50.66682434082031
v -3.2000434398651123 3.942575216293335 50.66682434082031
v -3.2000434398651123 3.942575216293335 -4.391999244689941
v -3.2000434398651123 3.942575216293335 50.66682434082031
v -5.542652130126953 1.5999664068222046 50.66682434082031
v -5.542652130126953 1.5999664068222046 -4.391999244689941
v -5.542652130126953 1.5999664068222046 -4.391999244689941
v -5.542652130126953 1.5999664068222046 50.66682434082031
v -6.400031566619873 -1.6000217199325562 50.66682434082031
v -16.800006866455078 -1.6000217199325562 52.26681900024414
v -16.800006866455078 -1.6000217199325562 3.607999086380005
v -16.800006866455078 -1.6000217199325562 52.26681900024414
v -16.800006866455078 -6.400031566619873 52.26681900024414
vt 0.2716411054134369 0.34924793243408203
vt 0.27243930101394653 0.3485751748085022
vt 0.27257901430130005 0.3489689826965332
vt 0.2716411054134369 0.34924793243408203
vt 0.2625044584274292 0.3515259027481079
vt 0.27243930101394653 0.3485751748085022
vt 0.2716411054134369 0.34924793243408203
vt 0.27257901430130005 0.3489689826965332
vt 0.2710953950881958 0.349434494972229
vt 0.2716411054134369 0.34924793243408203
vt 0.2636058032512665 0.3516375422477722
vt 0.2625044584274292 0.3515259027481079
vt 0.2699453830718994 0.3491237163543701
vt 0.2716411054134369 0.34924793243408203
vt 0.27015766501426697 0.34971338510513306
vt 0.27015766501426697 0.34971338510513306
vt 0.2716411054134369 0.34924793243408203
vt 0.2710953950881958 0.349434494972229
vt 0.2636058032512665 0.3516375422477722
vt 0.2626529932022095 0.3519209027290344
vt 0.2625044584274292 0.3515259027481079
vt 0.26190105080604553 0.35151153802871704
vt 0.2699453830718994 0.3491237163543701
vt 0.27015766501426697 0.34971338510513306
vt 0.2626529932022095 0.3519209027290344
vt 0.2636058032512665 0.3516375422477722
vt 0.26117143034935 0.3523859977722168
vt 0.27243930101394653 0.3485751748085022
vt 0.2625044584274292 0.3515259027481079
vt 0.25398173928260803 0.3508960008621216
vt 0.26212403178215027 0.3521026372909546
vt 0.2636058032512665 0.3516375422477722
vt 0.26212403178215027 0.3521026372909546
vt 0.26117143034935 0.3523859977722168
vt 0.2550637423992157 0.351550817489624
vt 0.2625044584274292 0.3515259027481079
vt 0.2626529932022095 0.3519209027290344
vt 0.2639721930027008 0.34795618057250977
vt 0.2550637423992157 0.351550817489624
vt 0.2626529932022095 0.3519209027290344
vt 0.26117143034935 0.3523859977722168
vt 0.2710953950881958 0.349434494972229
vt 0.2729734480381012 0.354680597782135
vt 0.2550637423992157 0.351550817489624
vt 0.25398173928260803 0.3508960008621216
vt 0.2625044584274292 0.3515259027481079
vt 0.27015766501426697 0.34971338510513306
vt 0.2729734480381012 0.354680597782135
vt 0.26212403178215027 0.3521026372909546
vt 0.26316696405410767 0.3576473593711853
vt 0.26117143034935 0.3523859977722168
vt 0.26212403178215027 0.3521026372909546
vt 0.2550637423992157 0.351550817489624
vt 0.2541365325450897 0.351290762424469
vt 0.25398173928260803 0.3508960008621216
vt 0.2550637423992157 0.351550817489624
vt 0.26117143034935 0.3523859977722168
vt 0.26316696405410767 0.3576473593711853
vt 0.2729734480381012 0.354680597782135
vt 0.26316696405410767 0.3576473593711853
vt 0.26212403178215027 0.3521026372909546
vt 0.2550637423992157 0.351550817489624
vt 0.26316696405410767 0.3576473593711853
vt 0.26016730070114136 0.3583560585975647
vt 0.2685743272304535 0.35584157705307007
vt 0.27097752690315247 0.3623829483985901
vt 0.2680912911891937 0.3561575412750244
vt 0.2680912911891937 0.3561575412750244
vt 0.27050286531448364 0.36270081996917725
vt 0.2667059004306793 0.356406569480896
vt 0.2667059004306793 0.356406569480896
vt 0.269136905670166 0.36295127868652344
vt 0.26478898525238037 0.3565215468406677
vt 0.26016730070114136 0.3583560585975647
vt 0.2599020302295685 0.3639410734176636
vt 0.2550637423992157 0.351550817489624
vt 0.26016730070114136 0.3583560585975647
vt 0.2699739336967468 0.3553909659385681
vt 0.2720727026462555 0.3611515164375305
vt 0.27050286531448364 0.36270081996917725
vt 0.27050286531448364 0.36270081996917725
vt 0.269136905670166 0.36295127868652344
vt 0.2667059004306793 0.356406569480896
vt 0.269136905670166 0.36295127868652344
vt 0.267245352268219 0.3630669116973877
vt 0.26478898525238037 0.3565215468406677
vt 0.26478898525238037 0.3565215468406677
vt 0.267245352268219 0.3630669116973877
vt 0.2653369605541229 0.36301642656326294
vt 0.26239508390426636 0.3641321063041687
vt 0.26016730070114136 0.3583560585975647
vt 0.26239508390426636 0.3641321063041687
vt 0.2599020302295685 0.3639410734176636
vn 0 0.9999999403953552 -0
vn 0 0.9999999403953552 -0
vn 0 0.9999999403953552 -0
vn 0 1 -0.00000046456486302304256
vn 0 1 -0.00000046456486302304256
vn 0 1 -0.00000046456486302304256
vn 0 0.8320513367652893 0.5546987056732178
vn 0 0.8320513367652893 0.5546987056732178
vn 0 0.8320513367652893 0.5546987056732178
vn -0.0000020299685274949297 1 0.000019511711798259057
vn -0.0000020299685274949297 1 0.000019511711798259057
vn -0.0000020299685274949297 1 0.000019511711798259057
vn -1 -0 -0
vn -1 -0 -0
vn -1 -0 -0
vn 0 0.8320510983467102 0.5546988844871521
vn 0 0.8320510983467102 0.5546988844871521
vn 0 0.8320510983467102 0.5546988844871521
vn 0.000017254476915695705 1 -0
vn 0.000017254476915695705 1 -0
vn 0.000017254476915695705 1 -0
vn 0 1 -0
vn 0 1 -0
vn 0 1 -0
vn 0.00001441898348275572 0.832046627998352 0.5547055602073669
vn 0.00001441898348275572 0.832046627998352 0.5547055602073669
vn 0.00001441898348275572 0.832046627998352 0.5547055602073669
vn 0 -0 -1
vn 0 -0 -1
vn 0 -0 -1
vn 0 1 -0
vn -0.000014882478353683837 0.8320556879043579 0.5546920299530029
vn -0.000014882478353683837 0.8320556879043579 0.5546920299530029
vn -0.000014882478353683837 0.8320556879043579 0.5546920299530029
vn -0.9999999403953552 -0.0000037939307730994187 -0
vn -0.9999999403953552 -0.0000037939307730994187 -0
vn -0.9999999403953552 -0.0000037939307730994187 -0
vn 0 -0 -1
vn -1 -0.0000014633757245974266 0.000022086018361733295
vn -1 -0.0000014633757245974266 0.000022086018361733295
vn -1 -0.0000014633757245974266 0.000022086018361733295
vn 0 1 -0
vn 0 1 -0
vn -1 -0.0000034145364224968944 0.0000011503259429446189
vn -1 -0.0000034145364224968944 0.0000011503259429446189
vn -1 -0.0000034145364224968944 0.0000011503259429446189
vn 0 1 -0.000000005313635309533993
vn 0 1 -0.000000005313635309533993
vn 0 1 -0.000000005313635309533993
vn -0.000017255368220503442 1 -0
vn -0.000017255368220503442 1 -0
vn -0.000017255368220503442 1 -0
vn -1 -0.0000012194645933050197 -0
vn -1 -0.0000012194645933050197 -0
vn -1 -0.0000012194645933050197 -0
vn -1 0.0000049295476856059395 -0
vn -1 0.0000049295476856059395 -0
vn -1 0.0000049295476856059395 -0
vn -0.0000016433095879619941 1 0.0000011528106824698625
vn -0.0000016433095879619941 1 0.0000011528106824698625
vn -0.0000016433095879619941 1 0.0000011528106824698625
vn -1 0.000007753015779599082 -0.0000006856210461592127
vn -1 0.000007753015779599082 -0.0000006856210461592127
vn -1 0.000007753015779599082 -0.0000006856210461592127
vn 0.25882744789123535 0.9659236073493958 -0
vn 0.25882744789123535 0.9659236073493958 -0
vn 0.25882744789123535 0.9659236073493958 -0
vn -0.2587994337081909 0.9659311771392822 -0
vn -0.2587994337081909 0.9659311771392822 -0
vn -0.2587994337081909 0.9659311771392822 -0
vn -0.7071068286895752 0.7071067690849304 -0
vn -0.7071068286895752 0.7071067690849304 -0
vn -0.7071068286895752 0.7071067690849304 -0
vn -1 -0.00000040389417677033634 -0
vn -1 -0.00000040389417677033634 -0
vn -1 -0.00000040389417677033634 -0
vn 0 0.9999999403953552 -0
vn 0 0.9999999403953552 -0
vn 0 0.9999999403953552 -0
vn 0.25882744789123535 0.9659236073493958 -0
vn -0.25879940390586853 0.9659311771392822 -0
vn -0.25879940390586853 0.9659311771392822 -0
vn -0.25879940390586853 0.9659311771392822 -0
vn -0.7071067690849304 0.7071068286895752 -0
vn -0.7071067690849304 0.7071068286895752 -0
vn -0.7071067690849304 0.7071068286895752 -0
vn -0.9659299850463867 0.25880348682403564 -0
vn -0.9659299850463867 0.25880348682403564 -0
vn -0.9659299850463867 0.25880348682403564 -0
vn 0 0.9999999403953552 -0
vn -1 -0 -0
vn -1 -0 -0
vn -1 -0 -0
f 3/3/3 2/2/2 1/1/1
f 6/6/6 5/5/5 4/4/4
f 9/9/9 8/8/8 7/7/7
f 12/12/12 11/11/11 10/10/10
f 15/15/15 14/14/14 13/13/13
f 18/18/18 17/17/17 16/16/16
f 21/21/21 20/20/20 19/19/19
f 24/24/24 23/23/23 22/22/22
f 27/27/27 26/26/26 25/25/25
f 30/30/30 29/29/29 28/28/28
f 24/24/24 22/22/22 31/31/31
f 34/34/34 33/33/33 32/32/32
f 37/37/37 36/36/36 35/35/35
f 30/30/30 28/28/28 38/38/38
f 41/41/41 40/40/40 39/39/39
f 43/43/43 42/42/42 24/24/24
f 46/46/46 45/45/45 44/44/44
f 49/49/49 48/48/48 47/47/47
f 52/52/52 51/51/51 50/50/50
f 55/55/55 54/54/54 53/53/53
f 58/58/58 57/57/57 56/56/56
f 61/61/61 60/60/60 59/59/59
f 64/64/64 63/63/63 62/62/62
f 67/67/67 66/66/66 65/65/65
f 70/70/70 69/69/69 68/68/68
f 73/73/73 72/72/72 71/71/71
f 76/76/76 75/75/75 74/74/74
f 79/79/79 78/78/78 77/77/77
f 67/67/67 80/80/80 66/66/66
f 83/83/83 82/82/82 81/81/81
f 86/86/86 85/85/85 84/84/84
f 89/89/89 88/88/88 87/87/87
f 79/79/79 77/77/77 90/90/90
f 93/93/93 92/92/92 91/91/91
