# VPXTOOL table OBJ file
# VPXTOOL OBJ file
# numVerts: 90 numFaces: 102
o LM_inserts_L03_sw04
v 13.599907875061035 7.999998092651367 -52.39198684692383
v 16.799951553344727 7.999998092651367 -55.591983795166016
v 16.799951553344727 7.999998092651367 -52.39198684692383
v -16.80006217956543 7.999998092651367 -55.591983795166016
v 13.599907875061035 7.999998092651367 -52.39198684692383
v 16.799951553344727 7.999998092651367 -52.39198684692383
v 13.600018501281738 4.800009727478027 -47.59198760986328
v -13.600018501281738 7.999998092651367 -52.39198684692383
v 13.600018501281738 4.800009727478027 -52.39198684692383
v 13.599907875061035 7.999998092651367 -52.39198684692383
v 13.600018501281738 4.800009727478027 -47.59198760986328
v 16.799951553344727 7.999998092651367 -52.39198684692383
v 16.799951553344727 4.800009727478027 -47.59198760986328
v 13.600018501281738 4.800009727478027 -47.59198760986328
v -16.80006217956543 7.999998092651367 -52.39198684692383
v -13.600018501281738 4.800009727478027 -52.39198684692383
v 13.600018501281738 4.800009727478027 -52.39198684692383
v 13.600018501281738 4.800009727478027 -47.59198760986328
v -16.80006217956543 7.999998092651367 -52.39198684692383
v -13.600018501281738 7.999998092651367 -52.39198684692383
v -16.799951553344727 4.799954414367676 -47.59198760986328
v 16.799951553344727 7.999998092651367 -55.591983795166016
v -16.80006217956543 7.999998092651367 -55.591983795166016
v -16.799951553344727 -7.999998092651367 -55.591983795166016
v -13.600018501281738 4.800009727478027 -47.59198760986328
v -13.600018501281738 7.999998092651367 -52.39198684692383
v -13.600018501281738 4.800009727478027 -47.59198760986328
v -16.799951553344727 4.799954414367676 -47.59198760986328
v -16.799951553344727 -6.400031566619873 -50.791988372802734
v -16.80006217956543 7.999998092651367 -55.591983795166016
v -16.80006217956543 7.999998092651367 -52.39198684692383
v 16.80006217956543 -7.999998092651367 -55.591983795166016
v -16.799951553344727 -6.400031566619873 -50.791988372802734
v -16.80006217956543 7.999998092651367 -52.39198684692383
v -16.799951553344727 4.799954414367676 -47.59198760986328
v 13.600018501281738 4.800009727478027 -47.59198760986328
v 16.799951553344727 4.800009727478027 -47.59198760986328
v 16.799951553344727 4.800009727478027 -4.391999244689941
v -16.799951553344727 -6.400031566619873 -50.791988372802734
v -16.799951553344727 -7.999998092651367 -55.591983795166016
v -16.80006217956543 7.999998092651367 -55.591983795166016
v 13.600018501281738 4.800009727478027 -47.59198760986328
v 16.799951553344727 4.800009727478027 -4.391999244689941
v -13.600018501281738 4.800009727478027 -47.59198760986328
v -16.799951553344727 4.799954414367676 -4.391999244689941
v -16.799951553344727 4.799954414367676 -47.59198760986328
v -13.600018501281738 4.800009727478027 -47.59198760986328
v -16.799951553344727 -6.400031566619873 -50.791988372802734
v -16.799951553344727 -7.999998092651367 -52.39198684692383
v -16.799951553344727 -7.999998092651367 -55.591983795166016
v -16.799951553344727 -6.400031566619873 -50.791988372802734
v -16.799951553344727 4.799954414367676 -47.59198760986328
v -16.799951553344727 4.799954414367676 -4.391999244689941
v 16.799951553344727 4.800009727478027 -4.391999244689941
v -16.799951553344727 4.799954414367676 -4.391999244689941
v -13.600018501281738 4.800009727478027 -47.59198760986328
v -16.799951553344727 -6.400031566619873 -50.791988372802734
v -16.799951553344727 4.799954414367676 -4.391999244689941
v -16.80006217956543 -1.6000217199325562 3.607999086380005
v 3.2000434398651123 3.942575216293335 -4.391999244689941
v 3.2000434398651123 3.942575216293335 50.66682434082031
v 0 4.799954414367676 -4.391999244689941
v 0 4.799954414367676 -4.391999244689941
v 0 4.799954414367676 50.66682434082031
v -3.2000434398651123 3.942575216293335 -4.391999244689941
v -3.2000434398651123 3.942575216293335 -4.391999244689941
v -3.2000434398651123 3.942575216293335 50.66682434082031
v -5.542707443237305 1.6000217199325562 -4.391999244689941
v -16.80006217956543 -1.6000217199325562 3.607999086380005
v -16.799951553344727 -6.400031566619873 52.26681900024414
v -16.799951553344727 -6.400031566619873 -50.791988372802734
v -16.80006217956543 -1.6000217199325562 3.607999086380005
v 16.80006217956543 -1.5999664068222046 3.607999086380005
v 16.80006217956543 -1.5999664068222046 52.26681900024414
v 3.2000434398651123 3.942575216293335 50.66682434082031
v 0 4.799954414367676 50.66682434082031
v 0 4.799954414367676 -4.391999244689941
v 0 4.799954414367676 50.66682434082031
v -3.2000434398651123 3.942575216293335 50.66682434082031
v -3.2000434398651123 3.942575216293335 -4.391999244689941
v -3.2000434398651123 3.942575216293335 50.66682434082031
v -5.542707443237305 1.6000217199325562 50.66682434082031
v -5.542707443237305 1.6000217199325562 -4.391999244689941
v -5.542707443237305 1.6000217199325562 -4.391999244689941
v -5.542707443237305 1.6000217199325562 50.66682434082031
v -6.3999762535095215 -1.6000217199325562 50.66682434082031
v -16.80006217956543 -1.6000217199325562 52.26681900024414
v -16.80006217956543 -1.6000217199325562 3.607999086380005
v -16.80006217956543 -1.6000217199325562 52.26681900024414
v -16.799951553344727 -6.400031566619873 52.26681900024414
vt 0.12739287316799164 0.5739657878875732
vt 0.12821067869663239 0.573277473449707
vt 0.1283731758594513 0.573674201965332
vt 0.11782421916723251 0.5763622522354126
vt 0.12739287316799164 0.5739657878875732
vt 0.1283731758594513 0.573674201965332
vt 0.1259153187274933 0.574429988861084
vt 0.11899260431528091 0.5764639377593994
vt 0.12566876411437988 0.5738359093666077
vt 0.12739287316799164 0.5739657878875732
vt 0.1259153187274933 0.574429988861084
vt 0.1283731758594513 0.573674201965332
vt 0.12689541280269623 0.5741385221481323
vt 0.1259153187274933 0.574429988861084
vt 0.11799634248018265 0.5767601728439331
vt 0.11725921928882599 0.576332151889801
vt 0.12566876411437988 0.5738359093666077
vt 0.1259153187274933 0.574429988861084
vt 0.11799634248018265 0.5767601728439331
vt 0.11899260431528091 0.5764639377593994
vt 0.11652138829231262 0.5772238969802856
vt 0.12821067869663239 0.573277473449707
vt 0.11782421916723251 0.5763622522354126
vt 0.10915844887495041 0.5757036209106445
vt 0.11751738935709 0.576927661895752
vt 0.11899260431528091 0.5764639377593994
vt 0.11751738935709 0.576927661895752
vt 0.11652138829231262 0.5772238969802856
vt 0.11029030382633209 0.5763657093048096
vt 0.11782421916723251 0.5763622522354126
vt 0.11799634248018265 0.5767601728439331
vt 0.11960215121507645 0.5726304650306702
vt 0.11029030382633209 0.5763657093048096
vt 0.11799634248018265 0.5767601728439331
vt 0.11652138829231262 0.5772238969802856
vt 0.1259153187274933 0.574429988861084
vt 0.12689541280269623 0.5741385221481323
vt 0.12907706201076508 0.5794225931167603
vt 0.11029030382633209 0.5763657093048096
vt 0.10915844887495041 0.5757036209106445
vt 0.11782421916723251 0.5763622522354126
vt 0.1259153187274933 0.574429988861084
vt 0.12907706201076508 0.5794225931167603
vt 0.11751738935709 0.576927661895752
vt 0.11883053183555603 0.5825223922729492
vt 0.11652138829231262 0.5772238969802856
vt 0.11751738935709 0.576927661895752
vt 0.11029030382633209 0.5763657093048096
vt 0.1093369871377945 0.5761013031005859
vt 0.10915844887495041 0.5757036209106445
vt 0.11029030382633209 0.5763657093048096
vt 0.11652138829231262 0.5772238969802856
vt 0.11883053183555603 0.5825223922729492
vt 0.12907706201076508 0.5794225931167603
vt 0.11883053183555603 0.5825223922729492
vt 0.11751738935709 0.576927661895752
vt 0.11029030382633209 0.5763657093048096
vt 0.11883053183555603 0.5825223922729492
vt 0.11583233624696732 0.5832263231277466
vt 0.12449377030134201 0.5806355476379395
vt 0.12727883458137512 0.5872204303741455
vt 0.12397637218236923 0.5809656381607056
vt 0.12397637218236923 0.5809656381607056
vt 0.12677079439163208 0.5875523090362549
vt 0.12254150956869125 0.5812258720397949
vt 0.12254150956869125 0.5812258720397949
vt 0.1253567337989807 0.5878139734268188
vt 0.12057339400053024 0.5813459753990173
vt 0.11583233624696732 0.5832263231277466
vt 0.11587043106555939 0.5888404250144958
vt 0.11029030382633209 0.5763657093048096
vt 0.11583233624696732 0.5832263231277466
vt 0.12607787549495697 0.58012855052948
vt 0.12850995361804962 0.5859275460243225
vt 0.12727883458137512 0.5872204303741455
vt 0.12677079439163208 0.5875523090362549
vt 0.12397637218236923 0.5809656381607056
vt 0.12677079439163208 0.5875523090362549
vt 0.1253567337989807 0.5878139734268188
vt 0.12254150956869125 0.5812258720397949
vt 0.1253567337989807 0.5878139734268188
vt 0.12341532111167908 0.5879347324371338
vt 0.12057339400053024 0.5813459753990173
vt 0.12057339400053024 0.5813459753990173
vt 0.12341532111167908 0.5879347324371338
vt 0.12146877497434616 0.5878819227218628
vt 0.11840424686670303 0.5890400409698486
vt 0.11583233624696732 0.5832263231277466
vt 0.11840424686670303 0.5890400409698486
vt 0.11587043106555939 0.5888404250144958
vn 0 1 -0
vn 0 1 -0
vn 0 1 -0
vn 0 1 -0
vn 0 0.8320513963699341 0.5546985864639282
vn 0 0.8320513963699341 0.5546985864639282
vn 0 0.8320513963699341 0.5546985864639282
vn 0 1 -0
vn -1 -0.00003495861164992675 -0
vn -1 -0.00003495861164992675 -0
vn -1 -0.00003495861164992675 -0
vn 0 0.8320513367652893 0.5546987056732178
vn 0 0.8320513367652893 0.5546987056732178
vn 0 0.8320513367652893 0.5546987056732178
vn 0 1 -0
vn 0 1 -0
vn 0 1 -0
vn 0 1 -0
vn 0 0.8320467472076416 0.5547054409980774
vn 0 0.8320467472076416 0.5547054409980774
vn 0 0.8320467472076416 0.5547054409980774
vn 0 -0 -1
vn 0 -0 -1
vn 0 -0 -1
vn 0 1 -0
vn -0.000014882143659633584 0.832051157951355 0.5546987652778625
vn -0.000014882143659633584 0.832051157951355 0.5546987652778625
vn -0.000014882143659633584 0.832051157951355 0.5546987652778625
vn -0.9999999403953552 -0.000007858856406528503 -0
vn -0.9999999403953552 -0.000007858856406528503 -0
vn -0.9999999403953552 -0.000007858856406528503 -0
vn 0 -0 -1
vn -1 -0.000005560827958106529 0.000019325229004607536
vn -1 -0.000005560827958106529 0.000019325229004607536
vn -1 -0.000005560827958106529 0.000019325229004607536
vn 0 0.9999999403953552 -0
vn 0 0.9999999403953552 -0
vn 0 0.9999999403953552 -0
vn -1 -0.000006991699137870455 0.0000023005820821708767
vn -1 -0.000006991699137870455 0.0000023005820821708767
vn -1 -0.000006991699137870455 0.0000023005820821708767
vn 0 1 -0.000000007970452742256384
vn 0 1 -0.000000007970452742256384
vn 0 1 -0.000000007970452742256384
vn -0.00001725506990624126 0.9999999403953552 -0
vn -0.00001725506990624126 0.9999999403953552 -0
vn -0.00001725506990624126 0.9999999403953552 -0
vn -0.9999999403953552 0.0000012195062026876258 -0
vn -0.9999999403953552 0.0000012195062026876258 -0
vn -0.9999999403953552 0.0000012195062026876258 -0
vn -1 0.00000012904575896754977 -0
vn -1 0.00000012904575896754977 -0
vn -1 0.00000012904575896754977 -0
vn -0.0000016433095879619941 0.9999999403953552 0.0000011528106824698625
vn -0.0000016433095879619941 0.9999999403953552 0.0000011528106824698625
vn -0.0000016433095879619941 0.9999999403953552 0.0000011528106824698625
vn -1 0.00001292169326916337 -0.000003199554384991643
vn -1 0.00001292169326916337 -0.000003199554384991643
vn -1 0.00001292169326916337 -0.000003199554384991643
vn 0.2587994337081909 0.9659311771392822 -0
vn 0.2587994337081909 0.9659311771392822 -0
vn 0.2587994337081909 0.9659311771392822 -0
vn -0.2587994337081909 0.9659311771392822 -0
vn -0.2587994337081909 0.9659311771392822 -0
vn -0.2587994337081909 0.9659311771392822 -0
vn -0.7070901393890381 0.7071234583854675 -0
vn -0.7070901393890381 0.7071234583854675 -0
vn -0.7070901393890381 0.7071234583854675 -0
vn -1 -0.000023021968445391394 -0
vn -1 -0.000023021968445391394 -0
vn -1 -0.000023021968445391394 -0
vn -0.0000016432989013992483 1 -0
vn -0.0000016432989013992483 1 -0
vn -0.0000016432989013992483 1 -0
vn 0.25879940390586853 0.9659311771392822 -0
vn 0.25879940390586853 0.9659311771392822 -0
vn 0.25879940390586853 0.9659311771392822 -0
vn -0.25879940390586853 0.9659311771392822 -0
vn -0.25879940390586853 0.9659311771392822 -0
vn -0.25879940390586853 0.9659311771392822 -0
vn -0.7070900797843933 0.7071235179901123 -0
vn -0.7070900797843933 0.7071235179901123 -0
vn -0.7070900797843933 0.7071235179901123 -0
vn -0.965939462184906 0.2587681710720062 -0
vn -0.965939462184906 0.2587681710720062 -0
vn -0.965939462184906 0.2587681710720062 -0
vn -0.0000016432989013992483 1 -0
vn -1 -0.00002309696537849959 -0
vn -1 -0.00002309696537849959 -0
vn -1 -0.00002309696537849959 -0
f 3/3/3 2/2/2 1/1/1
f 2/2/2 4/4/4 1/1/1
f 7/7/7 6/6/6 5/5/5
f 4/4/4 8/8/8 1/1/1
f 11/11/11 10/10/10 9/9/9
f 14/14/14 13/13/13 12/12/12
f 4/4/4 15/15/15 8/8/8
f 18/18/18 17/17/17 16/16/16
f 21/21/21 20/20/20 19/19/19
f 24/24/24 23/23/23 22/22/22
f 18/18/18 16/16/16 25/25/25
f 28/28/28 27/27/27 26/26/26
f 31/31/31 30/30/30 29/29/29
f 24/24/24 22/22/22 32/32/32
f 35/35/35 34/34/34 33/33/33
f 38/38/38 37/37/37 36/36/36
f 41/41/41 40/40/40 39/39/39
f 44/44/44 43/43/43 42/42/42
f 47/47/47 46/46/46 45/45/45
f 50/50/50 49/49/49 48/48/48
f 53/53/53 52/52/52 51/51/51
f 56/56/56 55/55/55 54/54/54
f 59/59/59 58/58/58 57/57/57
f 62/62/62 61/61/61 60/60/60
f 65/65/65 64/64/64 63/63/63
f 68/68/68 67/67/67 66/66/66
f 71/71/71 70/70/70 69/69/69
f 74/74/74 73/73/73 72/72/72
f 77/77/77 76/76/76 75/75/75
f 80/80/80 79/79/79 78/78/78
f 83/83/83 82/82/82 81/81/81
f 86/86/86 85/85/85 84/84/84
f 74/74/74 72/72/72 87/87/87
f 90/90/90 89/89/89 88/88/88
