# VPXTOOL table OBJ file
# VPXTOOL OBJ file
# numVerts: 139 numFaces: 210
o LM_inserts_L10_PF
v 7.8900580406188965 969.4371948242188 0.030000003054738045
v 0 830.625 0.030000003054738045
v 15.780116081237793 831.3746337890625 0.030000003054738045
v 0 969.0624389648438 0.030000003054738045
v 0 830.625 0.030000003054738045
v 7.8900580406188965 969.4371948242188 0.030000003054738045
v 15.780116081237793 969.81201171875 0.030000003054738045
v 15.780116081237793 969.81201171875 0.030000003054738045
v 15.780116081237793 831.3746337890625 0.030000003054738045
v 31.560232162475586 1108.999267578125 0.030000003054738045
v 31.560232162475586 970.5617065429688 0.030000003054738045
v 31.560232162475586 1108.999267578125 0.030000003054738045
v 15.780116081237793 831.3746337890625 0.030000003054738045
v 0 1107.5 0.030000003054738045
v 0 969.0624389648438 0.030000003054738045
v 15.780116081237793 1108.2496337890625 0.030000003054738045
v 7.8900580406188965 969.4371948242188 0.030000003054738045
v 15.780116081237793 969.81201171875 0.030000003054738045
v 31.560232162475586 1108.999267578125 0.030000003054738045
v 31.560232162475586 970.5617065429688 0.030000003054738045
v 39.45029067993164 970.9365234375 0.030000003054738045
v 15.780116081237793 1108.2496337890625 0.030000003054738045
v 15.780116081237793 1108.2496337890625 0.030000003054738045
v 15.780116081237793 969.81201171875 0.030000003054738045
v 31.560232162475586 1108.999267578125 0.030000003054738045
v 47.34034729003906 1109.748779296875 0.030000003054738045
v 15.780116081237793 1246.6871337890625 0.030000003054738045
v 23.67017364501953 1247.0618896484375 0.030000003054738045
v 47.34034729003906 1248.186279296875 0.030000003054738045
v 55.230403900146484 1248.5611572265625 0.030000003054738045
v 63.12046432495117 1110.49853515625 0.030000003054738045
v 123.47950744628906 1170.4234619140625 0.030000003054738045
v 31.560232162475586 1247.4366455078125 0.030000003054738045
v 0 1245.9375 0.030000003054738045
v 0 1107.5 0.030000003054738045
v 15.780116081237793 1385.1246337890625 0.030000003054738045
v 15.780116081237793 1246.6871337890625 0.030000003054738045
v 15.780116081237793 1385.1246337890625 0.030000003054738045
v 0 1107.5 0.030000003054738045
v 85.40992736816406 1278.523681640625 0.030000003054738045
v 55.230403900146484 1248.5611572265625 0.030000003054738045
v 123.47950744628906 1170.4234619140625 0.030000003054738045
v 47.34034729003906 1386.623779296875 0.030000003054738045
v 233.51522827148438 1203.505615234375 0.030000003054738045
v 163.06243896484375 1317.53662109375 0.030000003054738045
v 100.49969482421875 1293.5048828125 0.030000003054738045
v 85.40992736816406 1278.523681640625 0.030000003054738045
v 123.47950744628906 1170.4234619140625 0.030000003054738045
v 123.47950744628906 1170.4234619140625 0.030000003054738045
v 108.04457092285156 1300.99560546875 0.030000003054738045
v 100.49969482421875 1293.5048828125 0.030000003054738045
v 163.06243896484375 1317.53662109375 0.030000003054738045
v 108.04457092285156 1300.99560546875 0.030000003054738045
v 123.47950744628906 1170.4234619140625 0.030000003054738045
v 15.780116081237793 1385.1246337890625 0.030000003054738045
v 15.780116081237793 1246.6871337890625 0.030000003054738045
v 23.67017364501953 1247.0618896484375 0.030000003054738045
v 31.560232162475586 1385.8741455078125 0.030000003054738045
v 47.34034729003906 1386.623779296875 0.030000003054738045
v 47.34034729003906 1248.186279296875 0.030000003054738045
v 55.230403900146484 1248.5611572265625 0.030000003054738045
v 85.40992736816406 1278.523681640625 0.030000003054738045
v 218.08029174804688 1334.07763671875 0.030000003054738045
v 163.06243896484375 1317.53662109375 0.030000003054738045
v 233.51522827148438 1203.505615234375 0.030000003054738045
v 85.40992736816406 1278.523681640625 0.030000003054738045
v 100.49969482421875 1293.5048828125 0.030000003054738045
v 47.34034729003906 1386.623779296875 0.030000003054738045
v 0 1384.375 0.030000003054738045
v 0 1245.9375 0.030000003054738045
v 15.780116081237793 1385.1246337890625 0.030000003054738045
v 108.04457092285156 1300.99560546875 0.030000003054738045
v 77.5198745727539 1416.58642578125 0.030000003054738045
v 92.60963439941406 1431.567626953125 0.030000003054738045
v 108.04457092285156 1300.99560546875 0.030000003054738045
v 100.49969482421875 1293.5048828125 0.030000003054738045
v 77.5198745727539 1416.58642578125 0.030000003054738045
v 218.08029174804688 1334.07763671875 0.030000003054738045
v 202.64535522460938 1464.6497802734375 0.030000003054738045
v 273.09814453125 1350.6187744140625 0.030000003054738045
v 7.8900580406188965 1523.1873779296875 0.030000003054738045
v 31.560232162475586 1524.311767578125 0.030000003054738045
v 202.64535522460938 1464.6497802734375 0.030000003054738045
v 92.60963439941406 1431.567626953125 0.030000003054738045
v 163.06243896484375 1317.53662109375 0.030000003054738045
v 39.45029067993164 1524.6866455078125 0.030000003054738045
v 15.780116081237793 1523.5621337890625 0.030000003054738045
v 54.5400505065918 1539.6678466796875 0.030000003054738045
v 31.560232162475586 1524.311767578125 0.030000003054738045
v 31.560232162475586 1385.8741455078125 0.030000003054738045
v 39.45029067993164 1524.6866455078125 0.030000003054738045
v 312.68109130859375 1497.7320556640625 0.030000003054738045
v 202.64535522460938 1464.6497802734375 0.030000003054738045
v 273.09814453125 1350.6187744140625 0.030000003054738045
v 54.5400505065918 1539.6678466796875 0.030000003054738045
v 39.45029067993164 1524.6866455078125 0.030000003054738045
v 77.5198745727539 1416.58642578125 0.030000003054738045
v 62.08493423461914 1547.158447265625 0.030000003054738045
v 54.5400505065918 1539.6678466796875 0.030000003054738045
v 92.60963439941406 1431.567626953125 0.030000003054738045
v 132.1925506591797 1578.6807861328125 0.030000003054738045
v 15.780116081237793 1523.5621337890625 0.030000003054738045
v 15.780116081237793 1385.1246337890625 0.030000003054738045
v 31.560232162475586 1662.749267578125 0.030000003054738045
v 31.560232162475586 1524.311767578125 0.030000003054738045
v 31.560232162475586 1662.749267578125 0.030000003054738045
v 77.17469787597656 1562.1396484375 0.030000003054738045
v 62.08493423461914 1547.158447265625 0.030000003054738045
v 132.1925506591797 1578.6807861328125 0.030000003054738045
v 77.17469787597656 1562.1396484375 0.030000003054738045
v 92.60963439941406 1431.567626953125 0.030000003054738045
v 312.68109130859375 1497.7320556640625 0.030000003054738045
v 242.22828674316406 1611.7630615234375 0.030000003054738045
v 31.560232162475586 1662.749267578125 0.030000003054738045
v 31.560232162475586 1524.311767578125 0.030000003054738045
v 39.45029067993164 1524.6866455078125 0.030000003054738045
v 39.45029067993164 1524.6866455078125 0.030000003054738045
v 54.5400505065918 1539.6678466796875 0.030000003054738045
v 31.560232162475586 1662.749267578125 0.030000003054738045
v 187.21041870117188 1595.2218017578125 0.030000003054738045
v 132.1925506591797 1578.6807861328125 0.030000003054738045
v 202.64535522460938 1464.6497802734375 0.030000003054738045
v 54.5400505065918 1539.6678466796875 0.030000003054738045
v 62.08493423461914 1547.158447265625 0.030000003054738045
v 31.560232162475586 1662.749267578125 0.030000003054738045
v 242.22828674316406 1611.7630615234375 0.030000003054738045
v 187.21041870117188 1595.2218017578125 0.030000003054738045
v 202.64535522460938 1464.6497802734375 0.030000003054738045
v 62.08493423461914 1547.158447265625 0.030000003054738045
v 77.17469787597656 1562.1396484375 0.030000003054738045
v 31.560232162475586 1662.749267578125 0.030000003054738045
v 61.73975372314453 1692.711669921875 0.030000003054738045
v 31.560232162475586 1662.749267578125 0.030000003054738045
v 187.21041870117188 1595.2218017578125 0.030000003054738045
v 171.77548217773438 1725.7939453125 0.030000003054738045
v 132.1925506591797 1578.6807861328125 0.030000003054738045
v 171.77548217773438 1725.7939453125 0.030000003054738045
v 61.73975372314453 1692.711669921875 0.030000003054738045
v 132.1925506591797 1578.6807861328125 0.030000003054738045
vt 0.10885725170373917 0.7836709022521973
vt 0.12062431126832962 0.7773942947387695
vt 0.13899260759353638 0.7774269580841064
vt 0.09932520985603333 0.7836533188819885
vt 0.12062431126832962 0.7773942947387695
vt 0.10885725170373917 0.7836709022521973
vt 0.11839132755994797 0.783688485622406
vt 0.11839132755994797 0.783688485622406
vt 0.13899260759353638 0.7774269580841064
vt 0.11597980558872223 0.7904858589172363
vt 0.13746528327465057 0.7837237119674683
vt 0.11597980558872223 0.7904858589172363
vt 0.13899260759353638 0.7774269580841064
vt 0.07633338123559952 0.7904097437858582
vt 0.09932520985603333 0.7836533188819885
vt 0.09615232795476913 0.7904477715492249
vt 0.10885725170373917 0.7836709022521973
vt 0.11839132755994797 0.783688485622406
vt 0.11597980558872223 0.7904858589172363
vt 0.13746528327465057 0.7837237119674683
vt 0.14700525999069214 0.7837413549423218
vt 0.09615232795476913 0.7904477715492249
vt 0.09615232795476913 0.7904477715492249
vt 0.11839132755994797 0.783688485622406
vt 0.11597980558872223 0.7904858589172363
vt 0.13581576943397522 0.790523886680603
vt 0.07207247614860535 0.7977665662765503
vt 0.08239270001649857 0.7977871894836426
vt 0.1133674904704094 0.797849178314209
vt 0.12369699776172638 0.7978698015213013
vt 0.15566030144691467 0.7905620336532593
vt 0.22420114278793335 0.7936614751815796
vt 0.09271536022424698 0.7978078126907349
vt 0.05143881216645241 0.7977253198623657
vt 0.07633338123559952 0.7904097437858582
vt 0.04591323062777519 0.8057173490524292
vt 0.07207247614860535 0.7977665662765503
vt 0.04591323062777519 0.8057173490524292
vt 0.07633338123559952 0.7904097437858582
vt 0.15879663825035095 0.7995361685752869
vt 0.12369699776172638 0.7978698015213013
vt 0.22420114278793335 0.7936614751815796
vt 0.08897984027862549 0.8058072328567505
vt 0.36278292536735535 0.7954195141792297
vt 0.2570498287677765 0.8017516136169434
vt 0.1765855997800827 0.8003807067871094
vt 0.15879663825035095 0.7995361685752869
vt 0.22420114278793335 0.7936614751815796
vt 0.22420114278793335 0.7936614751815796
vt 0.18554085493087769 0.800805926322937
vt 0.1765855997800827 0.8003807067871094
vt 0.2570498287677765 0.8017516136169434
vt 0.18554085493087769 0.800805926322937
vt 0.22420114278793335 0.7936614751815796
vt 0.04591323062777519 0.8057173490524292
vt 0.07207247614860535 0.7977665662765503
vt 0.08239270001649857 0.7977871894836426
vt 0.06744150072336197 0.8057622909545898
vt 0.08897984027862549 0.8058072328567505
vt 0.1133674904704094 0.797849178314209
vt 0.12369699776172638 0.7978698015213013
vt 0.15879663825035095 0.7995361685752869
vt 0.32928505539894104 0.8027069568634033
vt 0.2570498287677765 0.8017516136169434
vt 0.36278292536735535 0.7954195141792297
vt 0.15879663825035095 0.7995361685752869
vt 0.1765855997800827 0.8003807067871094
vt 0.08897984027862549 0.8058072328567505
vt 0.02439500205218792 0.8056724667549133
vt 0.05143881216645241 0.7977253198623657
vt 0.04591323062777519 0.8057173490524292
vt 0.18554085493087769 0.800805926322937
vt 0.12527810037136078 0.8076210021972656
vt 0.14368543028831482 0.8085407614707947
vt 0.18554085493087769 0.800805926322937
vt 0.1765855997800827 0.8003807067871094
vt 0.12527810037136078 0.8076210021972656
vt 0.32928505539894104 0.8027069568634033
vt 0.29298943281173706 0.8106030821800232
vt 0.4022577106952667 0.8036720752716064
vt 0.006150706671178341 0.8143612146377563
vt 0.03988606855273247 0.814434826374054
vt 0.29298943281173706 0.8106030821800232
vt 0.14368543028831482 0.8085407614707947
vt 0.2570498287677765 0.8017516136169434
vt 0.05113673955202103 0.8144593238830566
vt 0.017393115907907486 0.8143857717514038
vt 0.06983205676078796 0.8154453039169312
vt 0.03988606855273247 0.814434826374054
vt 0.06744150072336197 0.8057622909545898
vt 0.05113673955202103 0.8144593238830566
vt 0.4454866647720337 0.8127094507217407
vt 0.29298943281173706 0.8106030821800232
vt 0.4022577106952667 0.8036720752716064
vt 0.06983205676078796 0.8154453039169312
vt 0.05113673955202103 0.8144593238830566
vt 0.12527810037136078 0.8076210021972656
vt 0.07924875617027283 0.8159418702125549
vt 0.06983205676078796 0.8154453039169312
vt 0.14368543028831482 0.8085407614707947
vt 0.17544978857040405 0.8180587291717529
vt 0.017393115907907486 0.8143857717514038
vt 0.04591323062777519 0.8057173490524292
vt 0.009725628420710564 0.8239272236824036
vt 0.03988606855273247 0.814434826374054
vt 0.009725628420710564 0.8239272236824036
vt 0.09822181612253189 0.8169424533843994
vt 0.07924875617027283 0.8159418702125549
vt 0.17544978857040405 0.8180587291717529
vt 0.09822181612253189 0.8169424533843994
vt 0.14368543028831482 0.8085407614707947
vt 0.4454866647720337 0.8127094507217407
vt 0.33247795701026917 0.8203285932540894
vt 0.009725628420710564 0.8239272236824036
vt 0.03988606855273247 0.814434826374054
vt 0.05113673955202103 0.8144593238830566
vt 0.05113673955202103 0.8144593238830566
vt 0.06983205676078796 0.8154453039169312
vt 0.009725628420710564 0.8239272236824036
vt 0.25353047251701355 0.8191874027252197
vt 0.17544978857040405 0.8180587291717529
vt 0.29298943281173706 0.8106030821800232
vt 0.06983205676078796 0.8154453039169312
vt 0.07924875617027283 0.8159418702125549
vt 0.009725628420710564 0.8239272236824036
vt 0.33247795701026917 0.8203285932540894
vt 0.25353047251701355 0.8191874027252197
vt 0.29298943281173706 0.8106030821800232
vt 0.07924875617027283 0.8159418702125549
vt 0.09822181612253189 0.8169424533843994
vt 0.009725628420710564 0.8239272236824036
vt 0.04866240918636322 0.8261010050773621
vt 0.009725628420710564 0.8239272236824036
vt 0.25353047251701355 0.8191874027252197
vt 0.21047550439834595 0.8285539746284485
vt 0.17544978857040405 0.8180587291717529
vt 0.21047550439834595 0.8285539746284485
vt 0.04866240918636322 0.8261010050773621
vt 0.17544978857040405 0.8180587291717529
vn 0 -0 -1
vn 0 -0 -1
vn 0 -0 -1
vn 0.000000000714532155665637 -0 -1
vn 0.000000000714532155665637 -0 -1
vn 0.000000000714532155665637 -0 -1
vn 0 -0 -1
vn -0.0000000003572655504768818 -0 -1
vn -0.0000000003572655504768818 -0 -1
vn -0.0000000003572655504768818 -0 -1
vn 0.0000000003572655504768818 -0 -1
vn 0.0000000003572655504768818 -0 -1
vn 0.0000000003572655504768818 -0 -1
vn 0 -0 -1
vn 0 -0 -1
vn -0.0000000007145311009537636 -0 -1
vn -0.0000000007145311009537636 -0 -1
vn -0.0000000007145311009537636 -0 -1
vn 0 -0 -1
vn 0 -0 -1
vn 0 -0 -1
vn 0 -0 -1
vn 0.0000000003572644957650084 -0 -1
vn 0.0000000003572644957650084 -0 -1
vn 0.0000000003572644957650084 -0 -1
vn 0 -0 -1
vn 0 -0 -1
vn 0 -0 -1
vn 0 -0 -1
vn 0 -0 -1
vn 0 -0 -1
vn 0 -0 -1
vn 0 -0 -1
vn -0.0000000003572660778328185 -0 -1
vn -0.0000000003572660778328185 -0 -1
vn -0.0000000003572660778328185 -0 -1
vn 0.0000000003572655504768818 -0 -1
vn 0.0000000003572655504768818 -0 -1
vn 0.0000000003572655504768818 -0 -1
vn -0.00000000008862758443806129 -0 -1
vn -0.00000000008862758443806129 -0 -1
vn -0.00000000008862758443806129 -0 -1
vn 0 -0 -1
vn 0 -0 -1
vn 0 -0 -1
vn 0.00000000008862758443806129 -0 -1
vn 0.00000000008862758443806129 -0 -1
vn 0.00000000008862758443806129 -0 -1
vn 0 -0 -0.9999999403953552
vn 0 -0 -0.9999999403953552
vn 0 -0 -0.9999999403953552
vn 0.000000000013114288301141475 -0 -1
vn 0.000000000013114288301141475 -0 -1
vn 0.000000000013114288301141475 -0 -1
vn -0.0000000007145300462418902 -0 -1
vn -0.0000000007145300462418902 -0 -1
vn -0.0000000007145300462418902 -0 -1
vn 0 -0 -1
vn -0.0000000007145311009537636 -0 -1
vn -0.0000000007145311009537636 -0 -1
vn -0.0000000007145311009537636 -0 -1
vn 0 -0 -1
vn 0.000000000013114265749736287 -0 -1
vn 0.000000000013114265749736287 -0 -1
vn 0.000000000013114265749736287 -0 -1
vn 0.00000000008862732076009294 -0 -0.9999999403953552
vn 0.00000000008862732076009294 -0 -0.9999999403953552
vn 0.00000000008862732076009294 -0 -0.9999999403953552
vn 0 -0 -1
vn 0 -0 -1
vn 0 -0 -1
vn 0.00000000008862732076009294 -0 -0.9999999403953552
vn 0.00000000008862732076009294 -0 -0.9999999403953552
vn 0 -0 -1
vn 0 -0 -1
vn 0 -0 -1
vn 0 -0 -1
vn 0 -0 -1
vn 0 -0 -1
vn 0 -0 -1
vn 0 -0 -1
vn 0 -0 -1
vn -0.000000000013114265749736287 -0 -1
vn -0.000000000013114265749736287 -0 -1
vn -0.000000000013114265749736287 -0 -1
vn 0 -0 -1
vn 0 -0 -1
vn 0 -0 -1
vn 0.0000000007145300462418902 -0 -1
vn 0.0000000007145300462418902 -0 -1
vn 0.0000000007145300462418902 -0 -1
vn -0.0000000000131142431983311 -0 -1
vn -0.0000000000131142431983311 -0 -1
vn -0.0000000000131142431983311 -0 -1
vn -0.00000000008862784117713574 -0 -1
vn -0.00000000008862784117713574 -0 -1
vn -0.00000000008862784117713574 -0 -1
vn 0.0000000002658827602530778 -0 -1
vn 0.0000000002658827602530778 -0 -1
vn 0.0000000002658827602530778 -0 -1
vn 0 -0 -1
vn -0.0000000003572644957650084 -0 -1
vn -0.0000000003572644957650084 -0 -1
vn -0.0000000003572644957650084 -0 -1
vn 0.0000000003572655504768818 -0 -1
vn 0.0000000003572655504768818 -0 -1
vn 0 -0 -1
vn 0 -0 -1
vn -0.00000000003934286577078616 -0 -1
vn -0.00000000003934286577078616 -0 -1
vn -0.00000000003934286577078616 -0 -1
vn 0 -0 -1
vn 0 -0 -1
vn -0.0000000007145311009537636 -0 -1
vn -0.0000000007145311009537636 -0 -1
vn -0.0000000007145311009537636 -0 -1
vn -0.00000000008862758443806129 -0 -1
vn -0.00000000008862758443806129 -0 -1
vn -0.00000000008862758443806129 -0 -1
vn -0.00000000003934279638184712 -0 -1
vn -0.00000000003934279638184712 -0 -1
vn -0.00000000003934279638184712 -0 -1
vn 0.00000000044313791525141255 -0 -1
vn 0.00000000044313791525141255 -0 -1
vn 0.00000000044313791525141255 -0 -1
vn 0.000000000013114265749736287 -0 -1
vn 0.000000000013114265749736287 -0 -1
vn 0.000000000013114265749736287 -0 -1
vn -0.000000000088627966077226 -0 -1
vn -0.000000000088627966077226 -0 -1
vn -0.000000000088627966077226 -0 -1
vn 0 -0 -1
vn 0 -0 -1
vn -0.00000000010491416763125372 -0 -1
vn -0.00000000010491416763125372 -0 -1
vn -0.00000000010491416763125372 -0 -1
vn -0.000000000013114265749736287 -0 -1
vn -0.000000000013114265749736287 -0 -1
vn -0.000000000013114265749736287 -0 -1
f 3/3/3 2/2/2 1/1/1
f 6/6/6 5/5/5 4/4/4
f 7/7/7 3/3/3 1/1/1
f 10/10/10 9/9/9 8/8/8
f 13/13/13 12/12/12 11/11/11
f 1/1/1 15/15/15 14/14/14
f 18/18/18 17/17/17 16/16/16
f 21/21/21 20/20/20 19/19/19
f 22/22/22 1/1/1 14/14/14
f 25/25/25 24/24/24 23/23/23
f 26/26/26 21/21/21 19/19/19
f 14/14/14 27/27/27 22/22/22
f 19/19/19 22/22/22 28/28/28
f 19/19/19 29/29/29 26/26/26
f 31/31/31 26/26/26 30/30/30
f 32/32/32 31/31/31 30/30/30
f 28/28/28 22/22/22 27/27/27
f 33/33/33 19/19/19 28/28/28
f 30/30/30 26/26/26 29/29/29
f 36/36/36 35/35/35 34/34/34
f 39/39/39 38/38/38 37/37/37
f 42/42/42 41/41/41 40/40/40
f 43/43/43 19/19/19 33/33/33
f 19/19/19 43/43/43 29/29/29
f 32/32/32 45/45/45 44/44/44
f 48/48/48 47/47/47 46/46/46
f 51/51/51 50/50/50 49/49/49
f 54/54/54 53/53/53 52/52/52
f 57/57/57 56/56/56 55/55/55
f 33/33/33 28/28/28 58/58/58
f 61/61/61 60/60/60 59/59/59
f 62/62/62 30/30/30 43/43/43
f 65/65/65 64/64/64 63/63/63
f 68/68/68 67/67/67 66/66/66
f 71/71/71 70/70/70 69/69/69
f 58/58/58 28/28/28 71/71/71
f 43/43/43 33/33/33 58/58/58
f 73/73/73 72/72/72 67/67/67
f 75/75/75 74/74/74 45/45/45
f 43/43/43 77/77/77 76/76/76
f 77/77/77 74/74/74 75/75/75
f 45/45/45 79/79/79 78/78/78
f 78/78/78 79/79/79 80/80/80
f 71/71/71 69/69/69 81/81/81
f 71/71/71 82/82/82 58/58/58
f 85/85/85 84/84/84 83/83/83
f 43/43/43 58/58/58 86/86/86
f 77/77/77 43/43/43 86/86/86
f 87/87/87 71/71/71 81/81/81
f 74/74/74 77/77/77 88/88/88
f 91/91/91 90/90/90 89/89/89
f 94/94/94 93/93/93 92/92/92
f 97/97/97 96/96/96 95/95/95
f 100/100/100 99/99/99 98/98/98
f 74/74/74 101/101/101 79/79/79
f 104/104/104 103/103/103 102/102/102
f 38/38/38 106/106/106 105/105/105
f 108/108/108 107/107/107 74/74/74
f 111/111/111 110/110/110 109/109/109
f 79/79/79 113/113/113 112/112/112
f 116/116/116 115/115/115 114/114/114
f 119/119/119 118/118/118 117/117/117
f 122/122/122 121/121/121 120/120/120
f 125/125/125 124/124/124 123/123/123
f 128/128/128 127/127/127 126/126/126
f 131/131/131 130/130/130 129/129/129
f 107/107/107 132/132/132 101/101/101
f 133/133/133 132/132/132 107/107/107
f 136/136/136 135/135/135 134/134/134
f 139/139/139 138/138/138 137/137/137
