# VPXTOOL table OBJ file
# VPXTOOL OBJ file
# numVerts: 96 numFaces: 102
o LM_inserts_L04_sw05
v 13.599907875061035 7.999942779541016 -52.39198684692383
v 16.799951553344727 7.999998092651367 -55.591983795166016
v 16.799951553344727 7.999998092651367 -52.39198684692383
v 13.599907875061035 7.999942779541016 -52.39198684692383
v -16.80006217956543 7.999998092651367 -55.591983795166016
v 16.799951553344727 7.999998092651367 -55.591983795166016
v 13.599907875061035 7.999942779541016 -52.39198684692383
v 16.799951553344727 7.999998092651367 -52.39198684692383
v 16.799896240234375 4.799954414367676 -47.59198760986328
v 13.599907875061035 7.999942779541016 -52.39198684692383
v -13.600018501281738 7.999998092651367 -52.39198684692383
v -16.80006217956543 7.999998092651367 -55.591983795166016
v 13.599907875061035 4.799954414367676 -52.39198684692383
v 13.599907875061035 7.999942779541016 -52.39198684692383
v 13.599907875061035 4.799954414367676 -47.59198760986328
v 13.599907875061035 4.799954414367676 -47.59198760986328
v 13.599907875061035 7.999942779541016 -52.39198684692383
v 16.799896240234375 4.799954414367676 -47.59198760986328
v -13.600018501281738 7.999998092651367 -52.39198684692383
v -16.80006217956543 7.999998092651367 -52.39198684692383
v -16.80006217956543 7.999998092651367 -55.591983795166016
v -13.60007381439209 4.799954414367676 -52.39198684692383
v 13.599907875061035 4.799954414367676 -52.39198684692383
v 13.599907875061035 4.799954414367676 -47.59198760986328
v -16.80006217956543 7.999998092651367 -52.39198684692383
v -13.600018501281738 7.999998092651367 -52.39198684692383
v -13.60007381439209 4.799954414367676 -47.59198760986328
v 16.799951553344727 7.999998092651367 -55.591983795166016
v -16.80006217956543 7.999998092651367 -55.591983795166016
v -16.799951553344727 -8.000053405761719 -55.591983795166016
v -13.60007381439209 4.799954414367676 -47.59198760986328
v -16.799951553344727 4.799954414367676 -47.59198760986328
v -16.80006217956543 7.999998092651367 -52.39198684692383
v -13.60007381439209 4.799954414367676 -47.59198760986328
v -16.80006217956543 -6.400086879730225 -50.791988372802734
v -16.80006217956543 7.999998092651367 -55.591983795166016
v -16.80006217956543 7.999998092651367 -52.39198684692383
v 16.800006866455078 -8.000053405761719 -55.591983795166016
v 16.799951553344727 7.999998092651367 -55.591983795166016
v -16.799951553344727 -8.000053405761719 -55.591983795166016
v -16.80006217956543 -6.400086879730225 -50.791988372802734
v -16.80006217956543 7.999998092651367 -52.39198684692383
v -16.799951553344727 4.799954414367676 -47.59198760986328
v 16.799896240234375 4.799954414367676 -47.59198760986328
v 16.799896240234375 4.799954414367676 -4.391999244689941
v -16.80006217956543 -6.400086879730225 -50.791988372802734
v -16.799951553344727 -8.000053405761719 -55.591983795166016
v -16.80006217956543 7.999998092651367 -55.591983795166016
v 13.599907875061035 4.799954414367676 -47.59198760986328
v 16.799896240234375 4.799954414367676 -4.391999244689941
v -13.60007381439209 4.799954414367676 -47.59198760986328
v -16.799951553344727 4.799954414367676 -4.391999244689941
v -16.799951553344727 4.799954414367676 -47.59198760986328
v -16.80006217956543 -6.400086879730225 -50.791988372802734
v -16.799951553344727 -8.000053405761719 -52.39198684692383
v -16.799951553344727 -8.000053405761719 -55.591983795166016
v -16.80006217956543 -6.400086879730225 -50.791988372802734
v -16.799951553344727 4.799954414367676 -47.59198760986328
v -16.799951553344727 4.799954414367676 -4.391999244689941
v 16.799896240234375 4.799954414367676 -4.391999244689941
v -16.799951553344727 4.799954414367676 -4.391999244689941
v -13.60007381439209 4.799954414367676 -47.59198760986328
v -16.80006217956543 -6.400086879730225 -50.791988372802734
v -16.799951553344727 4.799954414367676 -4.391999244689941
v -16.80006217956543 -1.6000217199325562 3.607999086380005
v 3.1999881267547607 3.9425201416015625 -4.391999244689941
v 3.1999881267547607 3.9425201416015625 50.66682434082031
v -0.00005521504863281734 4.799954414367676 -4.391999244689941
v -0.00005521504863281734 4.799954414367676 -4.391999244689941
v -0.00005521504863281734 4.799954414367676 50.66682434082031
v -3.2000985145568848 3.9425201416015625 -4.391999244689941
v -3.2000985145568848 3.9425201416015625 -4.391999244689941
v -3.2000985145568848 3.9425201416015625 50.66682434082031
v -5.542707443237305 1.5999664068222046 -4.391999244689941
v -16.80006217956543 -1.6000217199325562 3.607999086380005
v -16.80006217956543 -6.400086879730225 52.26681900024414
v -16.80006217956543 -6.400086879730225 -50.791988372802734
v -16.80006217956543 -1.6000217199325562 3.607999086380005
v 16.799951553344727 -1.6000217199325562 3.607999086380005
v 16.799951553344727 -1.6000217199325562 52.26681900024414
v 3.1999881267547607 3.9425201416015625 50.66682434082031
v -0.00005521504863281734 4.799954414367676 50.66682434082031
v -0.00005521504863281734 4.799954414367676 -4.391999244689941
v -0.00005521504863281734 4.799954414367676 50.66682434082031
v -3.2000985145568848 3.9425201416015625 50.66682434082031
v -3.2000985145568848 3.9425201416015625 -4.391999244689941
v -3.2000985145568848 3.9425201416015625 50.66682434082031
v -5.542707443237305 1.5999664068222046 50.66682434082031
v -5.542707443237305 1.5999664068222046 -4.391999244689941
v -5.542707443237305 1.5999664068222046 -4.391999244689941
v -5.542707443237305 1.5999664068222046 50.66682434082031
v -6.400031566619873 -1.6000217199325562 50.66682434082031
v -16.80006217956543 -1.6000217199325562 52.26681900024414
v -16.80006217956543 -1.6000217199325562 3.607999086380005
v -16.80006217956543 -1.6000217199325562 52.26681900024414
v -16.80006217956543 -6.400086879730225 52.26681900024414
vt 0.2638147175312042 0.0017872452735900879
vt 0.26462259888648987 0.0011067986488342285
vt 0.2647734582424164 0.0015020966529846191
vt 0.2638147175312042 0.0017872452735900879
vt 0.2544656991958618 0.0041234493255615234
vt 0.26462259888648987 0.0011067986488342285
vt 0.2638147175312042 0.0017872452735900879
vt 0.2647734582424164 0.0015020966529846191
vt 0.2632925510406494 0.0019670724868774414
vt 0.2638147175312042 0.0017872452735900879
vt 0.2555999755859375 0.004230201244354248
vt 0.2544656991958618 0.0041234493255615234
vt 0.26210489869117737 0.0016602277755737305
vt 0.2638147175312042 0.0017872452735900879
vt 0.2623339891433716 0.0022521615028381348
vt 0.2623339891433716 0.0022521615028381348
vt 0.2638147175312042 0.0017872452735900879
vt 0.2632925510406494 0.0019670724868774414
vt 0.2555999755859375 0.004230201244354248
vt 0.2546257972717285 0.004519939422607422
vt 0.2544656991958618 0.0041234493255615234
vt 0.2538810074329376 0.004101395606994629
vt 0.26210489869117737 0.0016602277755737305
vt 0.2623339891433716 0.0022521615028381348
vt 0.2546257972717285 0.004519939422607422
vt 0.2555999755859375 0.004230201244354248
vt 0.25412124395370483 0.004694700241088867
vt 0.26462259888648987 0.0011067986488342285
vt 0.2544656991958618 0.0041234493255615234
vt 0.24587197601795197 0.0034794211387634277
vt 0.25412124395370483 0.004694700241088867
vt 0.25314727425575256 0.004984378814697266
vt 0.2546257972717285 0.004519939422607422
vt 0.25412124395370483 0.004694700241088867
vt 0.2469785064458847 0.004137873649597168
vt 0.2544656991958618 0.0041234493255615234
vt 0.2546257972717285 0.004519939422607422
vt 0.2560853064060211 0.00047397613525390625
vt 0.26462259888648987 0.0011067986488342285
vt 0.24587197601795197 0.0034794211387634277
vt 0.2469785064458847 0.004137873649597168
vt 0.2546257972717285 0.004519939422607422
vt 0.25314727425575256 0.004984378814697266
vt 0.2632925510406494 0.0019670724868774414
vt 0.265319287776947 0.007232367992401123
vt 0.2469785064458847 0.004137873649597168
vt 0.24587197601795197 0.0034794211387634277
vt 0.2544656991958618 0.0041234493255615234
vt 0.2623339891433716 0.0022521615028381348
vt 0.265319287776947 0.007232367992401123
vt 0.25412124395370483 0.004694700241088867
vt 0.25529640913009644 0.010264575481414795
vt 0.25314727425575256 0.004984378814697266
vt 0.2469785064458847 0.004137873649597168
vt 0.24603842198848724 0.0038756728172302246
vt 0.24587197601795197 0.0034794211387634277
vt 0.2469785064458847 0.004137873649597168
vt 0.25314727425575256 0.004984378814697266
vt 0.25529640913009644 0.010264575481414795
vt 0.265319287776947 0.007232367992401123
vt 0.25529640913009644 0.010264575481414795
vt 0.25412124395370483 0.004694700241088867
vt 0.2469785064458847 0.004137873649597168
vt 0.25529640913009644 0.010264575481414795
vt 0.2522971034049988 0.010971009731292725
vt 0.26082953810691833 0.008418917655944824
vt 0.26341986656188965 0.014982342720031738
vt 0.2603296637535095 0.00874185562133789
vt 0.2603296637535095 0.00874185562133789
vt 0.2629287838935852 0.015307128429412842
vt 0.25891992449760437 0.008996367454528809
vt 0.25891992449760437 0.008996367454528809
vt 0.26153913140296936 0.01556307077407837
vt 0.25697773694992065 0.009113848209381104
vt 0.2522971034049988 0.010971009731292725
vt 0.25218018889427185 0.01657092571258545
vt 0.2469785064458847 0.004137873649597168
vt 0.2522971034049988 0.010971009731292725
vt 0.2623195946216583 0.00794064998626709
vt 0.2645816504955292 0.013720691204071045
vt 0.26341986656188965 0.014982342720031738
vt 0.2629287838935852 0.015307128429412842
vt 0.2603296637535095 0.00874185562133789
vt 0.2629287838935852 0.015307128429412842
vt 0.26153913140296936 0.01556307077407837
vt 0.25891992449760437 0.008996367454528809
vt 0.26153913140296936 0.01556307077407837
vt 0.2596229612827301 0.015681207180023193
vt 0.25697773694992065 0.009113848209381104
vt 0.25697773694992065 0.009113848209381104
vt 0.2596229612827301 0.015681207180023193
vt 0.2576957046985626 0.01562964916229248
vt 0.25469347834587097 0.01676619052886963
vt 0.2522971034049988 0.010971009731292725
vt 0.25469347834587097 0.01676619052886963
vt 0.25218018889427185 0.01657092571258545
vn -0.000017254486010642722 1 -0
vn -0.000017254486010642722 1 -0
vn -0.000017254486010642722 1 -0
vn 0 1 0.000017188871424878016
vn 0 1 0.000017188871424878016
vn 0 1 0.000017188871424878016
vn -0.00001441898348275572 0.832046627998352 0.5547055602073669
vn -0.00001441898348275572 0.832046627998352 0.5547055602073669
vn -0.00001441898348275572 0.832046627998352 0.5547055602073669
vn 0.0000020299726202210877 1 -0.0000022955002805247204
vn 0.0000020299726202210877 1 -0.0000022955002805247204
vn 0.0000020299726202210877 1 -0.0000022955002805247204
vn -1 -0 -0
vn -1 -0 -0
vn -1 -0 -0
vn 0 0.8320510983467102 0.5546988844871521
vn 0 0.8320510983467102 0.5546988844871521
vn 0 0.8320510983467102 0.5546988844871521
vn 0 1 -0
vn 0 1 -0
vn 0 1 -0
vn 0 1 -0
vn 0 1 -0
vn 0 1 -0
vn 0 0.832046627998352 0.5547055602073669
vn 0 0.832046627998352 0.5547055602073669
vn 0 0.832046627998352 0.5547055602073669
vn 0 -0 -1
vn 0 -0 -1
vn 0 -0 -1
vn 0 1 -0
vn 0 0.8320469260215759 0.5547052621841431
vn 0 0.8320469260215759 0.5547052621841431
vn 0 0.8320469260215759 0.5547052621841431
vn -1 -0.00000027099449084744265 -0
vn -1 -0.00000027099449084744265 -0
vn -1 -0.00000027099449084744265 -0
vn 0 -0 -0.9999999403953552
vn 0 -0 -0.9999999403953552
vn 0 -0 -0.9999999403953552
vn -1 0.0000028291799480939517 0.00002484678589098621
vn -1 0.0000028291799480939517 0.00002484678589098621
vn -1 0.0000028291799480939517 0.00002484678589098621
vn 0 1 -0
vn 0 1 -0
vn -1 -0.000006829066478530876 -0.000020705689166788943
vn -1 -0.000006829066478530876 -0.000020705689166788943
vn -1 -0.000006829066478530876 -0.000020705689166788943
vn 0 1 0.000000013284116029410598
vn 0 1 0.000000013284116029410598
vn 0 1 0.000000013284116029410598
vn 0 1 -0
vn 0 1 -0
vn -0.9999999403953552 -0.00006951185059733689 -0
vn -0.9999999403953552 -0.00006951185059733689 -0
vn -0.9999999403953552 -0.00006951185059733689 -0
vn -1 0.000009910665539791808 -0
vn -1 0.000009910665539791808 -0
vn -1 0.000009910665539791808 -0
vn 0 1 -0.000000017206158275939742
vn 0 1 -0.000000017206158275939742
vn 0 1 -0.000000017206158275939742
vn -1 0.00001576444810780231 -0.0000013712564168599783
vn -1 0.00001576444810780231 -0.0000013712564168599783
vn -1 0.00001576444810780231 -0.0000013712564168599783
vn 0.2588149309158325 0.9659268856048584 -0
vn 0.2588149309158325 0.9659268856048584 -0
vn 0.2588149309158325 0.9659268856048584 -0
vn -0.2588149607181549 0.9659269452095032 -0
vn -0.2588149607181549 0.9659269452095032 -0
vn -0.2588149607181549 0.9659269452095032 -0
vn -0.7070984840393066 0.707115113735199 -0
vn -0.7070984840393066 0.707115113735199 -0
vn -0.7070984840393066 0.707115113735199 -0
vn -1 -0.0000004038895440316992 -0
vn -1 -0.0000004038895440316992 -0
vn -1 -0.0000004038895440316992 -0
vn 0 0.9999999403953552 -0
vn 0 0.9999999403953552 -0
vn 0 0.9999999403953552 -0
vn 0.2588149607181549 0.9659269452095032 -0
vn 0.2588149607181549 0.9659269452095032 -0
vn 0.2588149607181549 0.9659269452095032 -0
vn -0.2588149309158325 0.9659268856048584 -0
vn -0.2588149309158325 0.9659268856048584 -0
vn -0.2588149309158325 0.9659268856048584 -0
vn -0.7070984840393066 0.7071151733398438 -0
vn -0.7070984840393066 0.7071151733398438 -0
vn -0.7070984840393066 0.7071151733398438 -0
vn -0.9659342169761658 0.25878793001174927 -0
vn -0.9659342169761658 0.25878793001174927 -0
vn -0.9659342169761658 0.25878793001174927 -0
vn 0 0.9999999403953552 -0
vn -1 -0 -0
vn -1 -0 -0
vn -1 -0 -0
f 3/3/3 2/2/2 1/1/1
f 6/6/6 5/5/5 4/4/4
f 9/9/9 8/8/8 7/7/7
f 12/12/12 11/11/11 10/10/10
f 15/15/15 14/14/14 13/13/13
f 18/18/18 17/17/17 16/16/16
f 21/21/21 20/20/20 19/19/19
f 24/24/24 23/23/23 22/22/22
f 27/27/27 26/26/26 25/25/25
f 30/30/30 29/29/29 28/28/28
f 24/24/24 22/22/22 31/31/31
f 34/34/34 33/33/33 32/32/32
f 37/37/37 36/36/36 35/35/35
f 40/40/40 39/39/39 38/38/38
f 43/43/43 42/42/42 41/41/41
f 45/45/45 44/44/44 24/24/24
f 48/48/48 47/47/47 46/46/46
f 51/51/51 50/50/50 49/49/49
f 31/31/31 53/53/53 52/52/52
f 56/56/56 55/55/55 54/54/54
f 59/59/59 58/58/58 57/57/57
f 62/62/62 61/61/61 60/60/60
f 65/65/65 64/64/64 63/63/63
f 68/68/68 67/67/67 66/66/66
f 71/71/71 70/70/70 69/69/69
f 74/74/74 73/73/73 72/72/72
f 77/77/77 76/76/76 75/75/75
f 80/80/80 79/79/79 78/78/78
f 83/83/83 82/82/82 81/81/81
f 86/86/86 85/85/85 84/84/84
f 89/89/89 88/88/88 87/87/87
f 92/92/92 91/91/91 90/90/90
f 80/80/80 78/78/78 93/93/93
f 96/96/96 95/95/95 94/94/94
