# VPXTOOL table OBJ file
# VPXTOOL OBJ file
# numVerts: 42 numFaces: 51
o LM_Journey_L76_PF
v 233.51522827148438 1203.505615234375 0.030000003054738045
v 343.087158203125 1236.0811767578125 0.030000003054738045
v 343.55096435546875 1236.587890625 0.030000003054738045
v 343.55096435546875 1236.587890625 0.030000003054738045
v 343.087158203125 1236.0811767578125 0.030000003054738045
v 452.8909606933594 1268.909912109375 0.030000003054738045
v 343.55096435546875 1236.587890625 0.030000003054738045
v 273.09814453125 1350.6187744140625 0.030000003054738045
v 233.51522827148438 1203.505615234375 0.030000003054738045
v 453.12286376953125 1269.163330078125 0.030000003054738045
v 343.55096435546875 1236.587890625 0.030000003054738045
v 452.8909606933594 1268.909912109375 0.030000003054738045
v 453.586669921875 1269.6700439453125 0.030000003054738045
v 453.586669921875 1269.6700439453125 0.030000003054738045
v 453.12286376953125 1269.163330078125 0.030000003054738045
v 562.6947631835938 1301.73876953125 0.030000003054738045
v 562.6947631835938 1301.73876953125 0.030000003054738045
v 563.6223754882813 1302.752197265625 0.030000003054738045
v 453.586669921875 1269.6700439453125 0.030000003054738045
v 453.586669921875 1269.6700439453125 0.030000003054738045
v 383.1338806152344 1383.700927734375 0.030000003054738045
v 343.55096435546875 1236.587890625 0.030000003054738045
v 328.11602783203125 1367.1597900390625 0.030000003054738045
v 273.09814453125 1350.6187744140625 0.030000003054738045
v 343.55096435546875 1236.587890625 0.030000003054738045
v 383.1338806152344 1383.700927734375 0.030000003054738045
v 563.6223754882813 1302.752197265625 0.030000003054738045
v 493.16961669921875 1416.783203125 0.030000003054738045
v 438.1517333984375 1400.2421875 0.030000003054738045
v 383.1338806152344 1383.700927734375 0.030000003054738045
v 453.586669921875 1269.6700439453125 0.030000003054738045
v 493.16961669921875 1416.783203125 0.030000003054738045
v 438.1517333984375 1400.2421875 0.030000003054738045
v 453.586669921875 1269.6700439453125 0.030000003054738045
v 383.1338806152344 1383.700927734375 0.030000003054738045
v 312.68109130859375 1497.7320556640625 0.030000003054738045
v 328.11602783203125 1367.1597900390625 0.030000003054738045
v 438.1517333984375 1400.2421875 0.030000003054738045
v 422.716796875 1530.8140869140625 0.030000003054738045
v 422.716796875 1530.8140869140625 0.030000003054738045
v 312.68109130859375 1497.7320556640625 0.030000003054738045
v 383.1338806152344 1383.700927734375 0.030000003054738045
vt 0.6271025538444519 0.18704289197921753
vt 0.655342698097229 0.1782470941543579
vt 0.6557862758636475 0.17821067571640015
vt 0.6557862758636475 0.17821067571640015
vt 0.655342698097229 0.1782470941543579
vt 0.684362530708313 0.16925978660583496
vt 0.6557862758636475 0.17821067571640015
vt 0.7591436505317688 0.18457567691802979
vt 0.6271025538444519 0.18704289197921753
vt 0.6845886707305908 0.16924071311950684
vt 0.6557862758636475 0.17821067571640015
vt 0.684362530708313 0.16925978660583496
vt 0.6850411295890808 0.16920256614685059
vt 0.6850411295890808 0.16920256614685059
vt 0.6845886707305908 0.16924071311950684
vt 0.7139614820480347 0.16009306907653809
vt 0.7139614820480347 0.16009306907653809
vt 0.7148846387863159 0.16001325845718384
vt 0.6850411295890808 0.16920256614685059
vt 0.6850411295890808 0.16920256614685059
vt 0.7905044555664063 0.17531299591064453
vt 0.6557862758636475 0.17821067571640015
vt 0.7747435569763184 0.17996811866760254
vt 0.7591436505317688 0.18457567691802979
vt 0.6557862758636475 0.17821067571640015
vt 0.7905044555664063 0.17531299591064453
vt 0.7148846387863159 0.16001325845718384
vt 0.8225189447402954 0.1658572554588318
vt 0.8064287304878235 0.17060965299606323
vt 0.7905044555664063 0.17531299591064453
vt 0.6850411295890808 0.16920256614685059
vt 0.8225189447402954 0.1658572554588318
vt 0.8064287304878235 0.17060965299606323
vt 0.6850411295890808 0.16920256614685059
vt 0.7905044555664063 0.17531299591064453
vt 0.9037424325942993 0.1818738579750061
vt 0.7747435569763184 0.17996811866760254
vt 0.8064287304878235 0.17060965299606323
vt 0.9381735920906067 0.17213678359985352
vt 0.9381735920906067 0.17213678359985352
vt 0.9037424325942993 0.1818738579750061
vt 0.7905044555664063 0.17531299591064453
vn 0 -0 -0.9999999403953552
vn 0 -0 -0.9999999403953552
vn 0 -0 -0.9999999403953552
vn 0.00000000030192257027827907 -0 -1
vn 0.00000000030192257027827907 -0 -1
vn 0.00000000030192257027827907 -0 -1
vn 0.00000000005245706299894515 -0 -1
vn 0.00000000005245706299894515 -0 -1
vn 0.00000000005245706299894515 -0 -1
vn 0 -0 -1
vn 0 -0 -1
vn 0 -0 -1
vn 0 -0 -1
vn 0.0000000005277197012709678 -0 -1
vn 0.0000000005277197012709678 -0 -1
vn 0.0000000005277197012709678 -0 -1
vn -0.0000000004526968799822839 -0 -1
vn -0.0000000004526968799822839 -0 -1
vn -0.0000000004526968799822839 -0 -1
vn 0.00000000005245701789613477 -0 -1
vn 0.00000000005245701789613477 -0 -1
vn 0.00000000005245701789613477 -0 -1
vn -0.00000000003934286577078616 -0 -1
vn -0.00000000003934286577078616 -0 -1
vn -0.00000000003934286577078616 -0 -1
vn -0.00000000003934286577078616 -0 -1
vn 0 -0 -1
vn 0 -0 -1
vn -0.00000000009180001897535206 -0 -1
vn -0.00000000009180001897535206 -0 -1
vn -0.00000000009180001897535206 -0 -1
vn 0.00000000006557132614659622 -0 -1
vn 0.00000000006557132614659622 -0 -1
vn 0.00000000006557132614659622 -0 -1
vn 0 -0 -1
vn 0 -0 -1
vn 0 -0 -1
vn 0 -0 -1
vn 0 -0 -1
vn -0.000000000013114265749736287 -0 -1
vn -0.000000000013114265749736287 -0 -1
vn -0.000000000013114265749736287 -0 -1
f 3/3/3 2/2/2 1/1/1
f 6/6/6 5/5/5 4/4/4
f 9/9/9 8/8/8 7/7/7
f 12/12/12 11/11/11 10/10/10
f 10/10/10 11/11/11 13/13/13
f 16/16/16 15/15/15 14/14/14
f 19/19/19 18/18/18 17/17/17
f 22/22/22 21/21/21 20/20/20
f 25/25/25 24/24/24 23/23/23
f 25/25/25 23/23/23 26/26/26
f 13/13/13 28/28/28 27/27/27
f 31/31/31 30/30/30 29/29/29
f 34/34/34 33/33/33 32/32/32
f 37/37/37 36/36/36 35/35/35
f 35/35/35 39/39/39 38/38/38
f 38/38/38 39/39/39 28/28/28
f 42/42/42 41/41/41 40/40/40
