# VPXTOOL table OBJ file
# VPXTOOL OBJ file
# numVerts: 94 numFaces: 105
o LM_inserts_L06_sw10
v 13.599990844726563 7.999998092651367 -52.39198684692383
v 16.799978256225586 7.999998092651367 -55.591983795166016
v 16.799978256225586 7.999998092651367 -52.39198684692383
v -16.800006866455078 7.999998092651367 -55.591983795166016
v 13.599990844726563 7.999998092651367 -52.39198684692383
v 16.799978256225586 7.999998092651367 -52.39198684692383
v 16.799978256225586 4.800009727478027 -47.59198760986328
v 13.599990844726563 7.999998092651367 -52.39198684692383
v -13.599990844726563 7.999998092651367 -52.39198684692383
v -16.800006866455078 7.999998092651367 -55.591983795166016
v 13.599990844726563 4.800009727478027 -47.59198760986328
v 13.599990844726563 7.999998092651367 -52.39198684692383
v 16.799978256225586 4.800009727478027 -47.59198760986328
v -13.599990844726563 7.999998092651367 -52.39198684692383
v -16.800006866455078 7.999998092651367 -52.39198684692383
v 16.800006866455078 -6.3999762535095215 -50.791988372802734
v 16.799978256225586 7.999998092651367 -52.39198684692383
v 16.799978256225586 7.999998092651367 -55.591983795166016
v -16.800006866455078 7.999998092651367 -52.39198684692383
v -13.599990844726563 7.999998092651367 -52.39198684692383
v -13.599990844726563 4.800009727478027 -47.59198760986328
v 16.799978256225586 7.999998092651367 -55.591983795166016
v -16.800006866455078 7.999998092651367 -55.591983795166016
v -16.799978256225586 -7.999998092651367 -55.591983795166016
v -13.599990844726563 4.800009727478027 -52.39198684692383
v -13.599990844726563 4.800009727478027 -47.59198760986328
v -13.599990844726563 7.999998092651367 -52.39198684692383
v -13.599990844726563 4.800009727478027 -47.59198760986328
v -13.599990844726563 4.800009727478027 -52.39198684692383
v 13.599990844726563 4.800009727478027 -47.59198760986328
v -16.800006866455078 4.800009727478027 -47.59198760986328
v 16.800006866455078 -6.3999762535095215 -50.791988372802734
v 16.799978256225586 7.999998092651367 -55.591983795166016
v 16.800006866455078 -7.999998092651367 -55.591983795166016
v 16.800006866455078 -7.999998092651367 -55.591983795166016
v 16.799978256225586 4.800009727478027 -47.59198760986328
v 16.799978256225586 4.800009727478027 -4.391999244689941
v 13.599990844726563 4.800009727478027 -47.59198760986328
v 16.799978256225586 4.800009727478027 -4.391999244689941
v -13.599990844726563 4.800009727478027 -47.59198760986328
v 16.800006866455078 -6.3999762535095215 -50.791988372802734
v 16.799978256225586 4.800009727478027 -4.391999244689941
v 16.799978256225586 4.800009727478027 -47.59198760986328
v -16.800006866455078 4.800009727478027 -4.391999244689941
v -16.800006866455078 4.800009727478027 -47.59198760986328
v 16.799978256225586 4.800009727478027 -4.391999244689941
v -16.800006866455078 4.800009727478027 -4.391999244689941
v -13.599990844726563 4.800009727478027 -47.59198760986328
v 16.800006866455078 -6.3999762535095215 -50.791988372802734
v 16.800006866455078 -1.5999664068222046 3.607999086380005
v 16.799978256225586 4.800009727478027 -4.391999244689941
v -16.800006866455078 -1.6000217199325562 3.607999086380005
v -16.800006866455078 4.800009727478027 -4.391999244689941
v 16.799978256225586 4.800009727478027 -4.391999244689941
v 16.800006866455078 -1.5999664068222046 3.607999086380005
v -16.800006866455078 -1.6000217199325562 3.607999086380005
v 16.799978256225586 4.800009727478027 -4.391999244689941
v 3.1999881267547607 3.942575216293335 -4.391999244689941
v 3.1999881267547607 3.942575216293335 50.66682434082031
v 0 4.800009727478027 -4.391999244689941
v 16.800006866455078 -1.5999664068222046 3.607999086380005
v 16.800006866455078 -6.3999762535095215 -50.791988372802734
v 16.800006866455078 -6.3999762535095215 52.26681900024414
v 0 4.800009727478027 -4.391999244689941
v 0 4.800009727478027 50.66682434082031
v -3.1999881267547607 3.942575216293335 -4.391999244689941
v 5.542569160461426 1.6000217199325562 -4.391999244689941
v 5.542569160461426 1.6000217199325562 50.66682434082031
v 3.1999881267547607 3.942575216293335 -4.391999244689941
v -3.1999881267547607 3.942575216293335 -4.391999244689941
v -3.1999881267547607 3.942575216293335 50.66682434082031
v -5.542569160461426 1.6000217199325562 -4.391999244689941
v -16.800006866455078 -1.6000217199325562 3.607999086380005
v 16.800006866455078 -1.5999664068222046 3.607999086380005
v 16.800006866455078 -1.5999664068222046 52.26681900024414
v 3.1999881267547607 3.942575216293335 50.66682434082031
v 0 4.800009727478027 50.66682434082031
v 0 4.800009727478027 -4.391999244689941
v 0 4.800009727478027 50.66682434082031
v -3.1999881267547607 3.942575216293335 50.66682434082031
v -3.1999881267547607 3.942575216293335 -4.391999244689941
v 5.542569160461426 1.6000217199325562 50.66682434082031
v 3.1999881267547607 3.942575216293335 50.66682434082031
v 3.1999881267547607 3.942575216293335 -4.391999244689941
v -3.1999881267547607 3.942575216293335 50.66682434082031
v -5.542569160461426 1.6000217199325562 50.66682434082031
v -5.542569160461426 1.6000217199325562 -4.391999244689941
v -5.542569160461426 1.6000217199325562 -4.391999244689941
v -5.542569160461426 1.6000217199325562 50.66682434082031
v -6.400003910064697 -1.6000217199325562 50.66682434082031
v 16.800006866455078 -1.5999664068222046 3.607999086380005
v 16.800006866455078 -6.3999762535095215 52.26681900024414
v 16.800006866455078 -1.5999664068222046 52.26681900024414
v -16.800006866455078 -1.6000217199325562 52.26681900024414
vt 0.1482294499874115 0.06394839286804199
vt 0.14997254312038422 0.0635683536529541
vt 0.14999321103096008 0.06394839286804199
vt 0.13144011795520782 0.0635683536529541
vt 0.1482294499874115 0.06394839286804199
vt 0.14999321103096008 0.06394839286804199
vt 0.15004868805408478 0.06426262855529785
vt 0.1482294499874115 0.06394839286804199
vt 0.13323739171028137 0.06394839286804199
vt 0.13144011795520782 0.0635683536529541
vt 0.14828819036483765 0.06426262855529785
vt 0.1482294499874115 0.06394839286804199
vt 0.15004868805408478 0.06426262855529785
vt 0.13323739171028137 0.06394839286804199
vt 0.1314735859632492 0.06394839286804199
vt 0.15011383593082428 0.06299549341201782
vt 0.14999321103096008 0.06394839286804199
vt 0.14997254312038422 0.0635683536529541
vt 0.1314735859632492 0.06394839286804199
vt 0.13323739171028137 0.06394839286804199
vt 0.13332407176494598 0.06426262855529785
vt 0.14997254312038422 0.0635683536529541
vt 0.13144011795520782 0.0635683536529541
vt 0.13163921236991882 0.062300264835357666
vt 0.1332758367061615 0.0636938214302063
vt 0.13332407176494598 0.06426262855529785
vt 0.13323739171028137 0.06394839286804199
vt 0.13332407176494598 0.06426262855529785
vt 0.1332758367061615 0.0636938214302063
vt 0.14828819036483765 0.06426262855529785
vt 0.13156355917453766 0.06426262855529785
vt 0.15011383593082428 0.06299549341201782
vt 0.14997254312038422 0.0635683536529541
vt 0.15009534358978271 0.062300264835357666
vt 0.15009534358978271 0.062300264835357666
vt 0.15004868805408478 0.06426262855529785
vt 0.15032367408275604 0.06932955980300903
vt 0.14828819036483765 0.06426262855529785
vt 0.15032367408275604 0.06932955980300903
vt 0.13332407176494598 0.06426262855529785
vt 0.15011383593082428 0.06299549341201782
vt 0.15032367408275604 0.06932955980300903
vt 0.15004868805408478 0.06426262855529785
vt 0.13200953602790833 0.06932955980300903
vt 0.13156355917453766 0.06426262855529785
vt 0.15032367408275604 0.06932955980300903
vt 0.13200953602790833 0.06932955980300903
vt 0.13332407176494598 0.06426262855529785
vt 0.15011383593082428 0.06299549341201782
vt 0.15042197704315186 0.06974506378173828
vt 0.15032367408275604 0.06932955980300903
vt 0.13216891884803772 0.06974506378173828
vt 0.13200953602790833 0.06932955980300903
vt 0.15032367408275604 0.06932955980300903
vt 0.15042197704315186 0.06974506378173828
vt 0.13216891884803772 0.06974506378173828
vt 0.15032367408275604 0.06932955980300903
vt 0.1429188847541809 0.06926089525222778
vt 0.14334829151630402 0.07558387517929077
vt 0.14116661250591278 0.06932955980300903
vt 0.15042197704315186 0.06974506378173828
vt 0.15011383593082428 0.06299549341201782
vt 0.1507588028907776 0.0749322772026062
vt 0.14116661250591278 0.06932955980300903
vt 0.14161652326583862 0.07565313577651978
vt 0.13943123817443848 0.06926089525222778
vt 0.14421674609184265 0.0690733790397644
vt 0.1446307748556137 0.07539486885070801
vt 0.1429188847541809 0.06926089525222778
vt 0.13943123817443848 0.06926089525222778
vt 0.139901265501976 0.07558387517929077
vt 0.13817957043647766 0.0690733790397644
vt 0.13216891884803772 0.06974506378173828
vt 0.15042197704315186 0.06974506378173828
vt 0.15072371065616608 0.07531839609146118
vt 0.14334829151630402 0.07558387517929077
vt 0.14161652326583862 0.07565313577651978
vt 0.14116661250591278 0.06932955980300903
vt 0.14161652326583862 0.07565313577651978
vt 0.139901265501976 0.07558387517929077
vt 0.13943123817443848 0.06926089525222778
vt 0.1446307748556137 0.07539486885070801
vt 0.14334829151630402 0.07558387517929077
vt 0.1429188847541809 0.06926089525222778
vt 0.139901265501976 0.07558387517929077
vt 0.1386638581752777 0.07539486885070801
vt 0.13817957043647766 0.0690733790397644
vt 0.13817957043647766 0.0690733790397644
vt 0.1386638581752777 0.07539486885070801
vt 0.13823585212230682 0.07513695955276489
vt 0.15042197704315186 0.06974506378173828
vt 0.1507588028907776 0.0749322772026062
vt 0.15072371065616608 0.07531839609146118
vt 0.1326582133769989 0.07531839609146118
vn 0 1 -0
vn 0 1 -0
vn 0 1 -0
vn 0 1 -0
vn 0 0.8320512771606445 0.5546988248825073
vn 0 0.8320512771606445 0.5546988248825073
vn 0 0.8320512771606445 0.5546988248825073
vn 0 1 0.000000573873876419384
vn 0 1 0.000000573873876419384
vn 0 1 0.000000573873876419384
vn 0 0.8320513963699341 0.5546985864639282
vn 0 0.8320513963699341 0.5546985864639282
vn 0 0.8320513963699341 0.5546985864639282
vn 0 1 -0
vn 0 1 -0
vn 1 0.0000018969737993757008 -0
vn 1 0.0000018969737993757008 -0
vn 1 0.0000018969737993757008 -0
vn 0 0.8320512175559998 0.5546987056732178
vn 0 0.8320512175559998 0.5546987056732178
vn 0 0.8320512175559998 0.5546987056732178
vn 0 -0 -1
vn 0 -0 -1
vn 0 -0 -1
vn 1 -0 -0
vn 1 -0 -0
vn 1 -0 -0
vn 0 1 -0
vn 0 1 -0
vn 0 1 -0
vn 0 0.8320512175559998 0.5546987056732178
vn 0.9999999403953552 0.0000017885736269818153 -0.000000575165188365645
vn 0.9999999403953552 0.0000017885736269818153 -0.000000575165188365645
vn 0.9999999403953552 0.0000017885736269818153 -0.000000575165188365645
vn 0 -0 -1
vn 0 1 -0
vn 0 1 -0
vn 0 1 -0.000000005313645967675029
vn 0 1 -0.000000005313645967675029
vn 0 1 -0.000000005313645967675029
vn 1 0.0000024776784357527504 -0
vn 1 0.0000024776784357527504 -0
vn 1 0.0000024776784357527504 -0
vn 0 1 -0
vn 0 1 -0
vn 0 0.9999999403953552 -0
vn 0 0.9999999403953552 -0
vn 0 0.9999999403953552 -0
vn 1 0.0000036180740607960615 -0.00000034281052307960636
vn 1 0.0000036180740607960615 -0.00000034281052307960636
vn 1 0.0000036180740607960615 -0.00000034281052307960636
vn 0 0.7808672189712524 0.6246970295906067
vn 0 0.7808672189712524 0.6246970295906067
vn 0 0.7808672189712524 0.6246970295906067
vn -0.0000012832862239520182 0.7808698415756226 0.6246936917304993
vn -0.0000012832862239520182 0.7808698415756226 0.6246936917304993
vn -0.0000012832862239520182 0.7808698415756226 0.6246936917304993
vn 0.2588191032409668 0.9659257531166077 -0
vn 0.2588191032409668 0.9659257531166077 -0
vn 0.2588191032409668 0.9659257531166077 -0
vn 1 -0.00000040389417677033634 -0
vn 1 -0.00000040389417677033634 -0
vn 1 -0.00000040389417677033634 -0
vn -0.2588191032409668 0.9659257531166077 -0
vn -0.2588191032409668 0.9659257531166077 -0
vn -0.2588191032409668 0.9659257531166077 -0
vn 0.7071026563644409 0.7071109414100647 -0
vn 0.7071026563644409 0.7071109414100647 -0
vn 0.7071026563644409 0.7071109414100647 -0
vn -0.7071026563644409 0.7071109414100647 -0
vn -0.7071026563644409 0.7071109414100647 -0
vn -0.7071026563644409 0.7071109414100647 -0
vn -0.000001643304358367459 0.9999999403953552 -0
vn -0.000001643304358367459 0.9999999403953552 -0
vn -0.000001643304358367459 0.9999999403953552 -0
vn 0.2588190734386444 0.9659257531166077 -0
vn 0.2588190734386444 0.9659257531166077 -0
vn 0.2588190734386444 0.9659257531166077 -0
vn -0.2588190734386444 0.9659257531166077 -0
vn -0.2588190734386444 0.9659257531166077 -0
vn -0.2588190734386444 0.9659257531166077 -0
vn 0.7071026563644409 0.7071108818054199 -0
vn 0.7071026563644409 0.7071108818054199 -0
vn 0.7071026563644409 0.7071108818054199 -0
vn -0.7071026563644409 0.7071108818054199 -0
vn -0.7071026563644409 0.7071108818054199 -0
vn -0.7071026563644409 0.7071108818054199 -0
vn -0.9659269452095032 0.25881490111351013 -0
vn -0.9659269452095032 0.25881490111351013 -0
vn -0.9659269452095032 0.25881490111351013 -0
vn 1 -0 -0
vn 1 -0 -0
vn 1 -0 -0
vn -0.000001643304358367459 0.9999999403953552 -0
f 3/3/3 2/2/2 1/1/1
f 2/2/2 4/4/4 1/1/1
f 7/7/7 6/6/6 5/5/5
f 10/10/10 9/9/9 8/8/8
f 13/13/13 12/12/12 11/11/11
f 4/4/4 15/15/15 14/14/14
f 18/18/18 17/17/17 16/16/16
f 21/21/21 20/20/20 19/19/19
f 24/24/24 23/23/23 22/22/22
f 27/27/27 26/26/26 25/25/25
f 30/30/30 29/29/29 28/28/28
f 21/21/21 19/19/19 31/31/31
f 34/34/34 33/33/33 32/32/32
f 24/24/24 22/22/22 35/35/35
f 37/37/37 36/36/36 30/30/30
f 40/40/40 39/39/39 38/38/38
f 43/43/43 42/42/42 41/41/41
f 28/28/28 45/45/45 44/44/44
f 48/48/48 47/47/47 46/46/46
f 51/51/51 50/50/50 49/49/49
f 54/54/54 53/53/53 52/52/52
f 57/57/57 56/56/56 55/55/55
f 60/60/60 59/59/59 58/58/58
f 63/63/63 62/62/62 61/61/61
f 66/66/66 65/65/65 64/64/64
f 69/69/69 68/68/68 67/67/67
f 72/72/72 71/71/71 70/70/70
f 75/75/75 74/74/74 73/73/73
f 78/78/78 77/77/77 76/76/76
f 81/81/81 80/80/80 79/79/79
f 84/84/84 83/83/83 82/82/82
f 87/87/87 86/86/86 85/85/85
f 90/90/90 89/89/89 88/88/88
f 93/93/93 92/92/92 91/91/91
f 75/75/75 73/73/73 94/94/94
