# VPXTOOL table OBJ file
# VPXTOOL OBJ file
# numVerts: 87 numFaces: 108
o LM_inserts_L39_PF
v 564.8644409179688 1303.5982666015625 35.32411575317383
v 566.4625244140625 1304.22412109375 35.32411575317383
v 566.4625244140625 1304.22412109375 0.030000003054738045
v 566.4625244140625 1304.22412109375 35.32411575317383
v 623.8643188476563 1320.217529296875 35.32411575317383
v 623.8643188476563 1320.217529296875 0.030000003054738045
v 564.8644409179688 1303.5982666015625 0.030000003054738045
v 564.8644409179688 1303.5982666015625 35.32411575317383
v 566.4625244140625 1304.22412109375 0.030000003054738045
v 566.4625244140625 1304.22412109375 0.030000003054738045
v 566.4625244140625 1304.22412109375 35.32411575317383
v 623.8643188476563 1320.217529296875 0.030000003054738045
v 623.8643188476563 1320.217529296875 0.030000003054738045
v 623.8643188476563 1320.217529296875 35.32411575317383
v 624.263427734375 1320.291748046875 0.030000003054738045
v 564.8644409179688 1303.5982666015625 0.030000003054738045
v 566.4625244140625 1304.22412109375 0.030000003054738045
v 495.6546630859375 1418.071044921875 0.030000003054738045
v 623.8643188476563 1320.217529296875 0.030000003054738045
v 545.8812866210938 1432.0653076171875 0.030000003054738045
v 566.4625244140625 1304.22412109375 0.030000003054738045
v 623.8643188476563 1320.217529296875 0.030000003054738045
v 624.263427734375 1320.291748046875 0.030000003054738045
v 665.080810546875 1432.1024169921875 0.030000003054738045
v 494.85565185546875 1417.7581787109375 0.030000003054738045
v 564.8644409179688 1303.5982666015625 0.030000003054738045
v 495.6546630859375 1418.071044921875 0.030000003054738045
v 502.8299255371094 1420.0703125 0.030000003054738045
v 495.6546630859375 1418.071044921875 0.030000003054738045
v 566.4625244140625 1304.22412109375 0.030000003054738045
v 517.1803588867188 1424.068603515625 0.030000003054738045
v 502.8299255371094 1420.0703125 0.030000003054738045
v 566.4625244140625 1304.22412109375 0.030000003054738045
v 545.8812866210938 1432.0653076171875 0.030000003054738045
v 517.1803588867188 1424.068603515625 0.030000003054738045
v 566.4625244140625 1304.22412109375 0.030000003054738045
v 665.080810546875 1432.1024169921875 0.030000003054738045
v 664.8812866210938 1432.0653076171875 0.030000003054738045
v 623.8643188476563 1320.217529296875 0.030000003054738045
v 623.8643188476563 1320.217529296875 0.030000003054738045
v 664.8812866210938 1432.0653076171875 0.030000003054738045
v 545.8812866210938 1432.0653076171875 0.030000003054738045
v 494.85565185546875 1417.7581787109375 0.030000003054738045
v 424.8468933105469 1531.9180908203125 0.030000003054738045
v 494.45611572265625 1417.601806640625 0.030000003054738045
v 495.6546630859375 1418.071044921875 0.030000003054738045
v 665.080810546875 1432.1024169921875 0.030000003054738045
v 705.8982543945313 1543.9130859375 0.030000003054738045
v 664.8812866210938 1432.0653076171875 0.030000003054738045
v 502.8299255371094 1420.0703125 0.030000003054738045
v 439.19732666015625 1535.91650390625 0.030000003054738045
v 495.6546630859375 1418.071044921875 0.030000003054738045
v 517.1803588867188 1424.068603515625 0.030000003054738045
v 467.8982849121094 1543.9130859375 0.030000003054738045
v 502.8299255371094 1420.0703125 0.030000003054738045
v 586.8983154296875 1543.9130859375 0.030000003054738045
v 424.8468933105469 1531.9180908203125 0.030000003054738045
v 424.0478210449219 1531.6051025390625 0.030000003054738045
v 494.45611572265625 1417.601806640625 0.030000003054738045
v 439.19732666015625 1535.91650390625 0.030000003054738045
v 424.8468933105469 1531.9180908203125 0.030000003054738045
v 495.6546630859375 1418.071044921875 0.030000003054738045
v 705.8982543945313 1543.9130859375 0.030000003054738045
v 586.8983154296875 1543.9130859375 0.030000003054738045
v 467.8982849121094 1543.9130859375 0.030000003054738045
v 439.19732666015625 1535.91650390625 0.030000003054738045
v 502.8299255371094 1420.0703125 0.030000003054738045
v 467.8982849121094 1543.9130859375 0.030000003054738045
v 354.0390625 1645.76513671875 0.030000003054738045
v 424.0478210449219 1531.6051025390625 0.030000003054738045
v 439.19732666015625 1535.91650390625 0.030000003054738045
v 375.56475830078125 1651.7625732421875 0.030000003054738045
v 424.8468933105469 1531.9180908203125 0.030000003054738045
v 627.9152221679688 1655.760986328125 0.030000003054738045
v 389.91522216796875 1655.760986328125 0.030000003054738045
v 439.19732666015625 1535.91650390625 0.030000003054738045
v 508.91522216796875 1655.760986328125 0.030000003054738045
v 368.3895263671875 1649.7633056640625 0.030000003054738045
v 354.0390625 1645.76513671875 0.030000003054738045
v 424.8468933105469 1531.9180908203125 0.030000003054738045
v 375.56475830078125 1651.7625732421875 0.030000003054738045
v 368.3895263671875 1649.7633056640625 0.030000003054738045
v 424.8468933105469 1531.9180908203125 0.030000003054738045
v 389.91522216796875 1655.760986328125 0.030000003054738045
v 375.56475830078125 1651.7625732421875 0.030000003054738045
v 439.19732666015625 1535.91650390625 0.030000003054738045
v 508.91522216796875 1655.760986328125 0.030000003054738045
vt 0.41606858372688293 0.5629278421401978
vt 0.4166406989097595 0.5627938508987427
vt 0.3822419345378876 0.5627262592315674
vt 0.4166406989097595 0.5627938508987427
vt 0.43133318424224854 0.5579715967178345
vt 0.39689910411834717 0.5578601360321045
vt 0.381671279668808 0.5628615021705627
vt 0.41606858372688293 0.5629278421401978
vt 0.3822419345378876 0.5627262592315674
vt 0.3822419345378876 0.5627262592315674
vt 0.4166406989097595 0.5627938508987427
vt 0.39689910411834717 0.5578601360321045
vt 0.39689910411834717 0.5578601360321045
vt 0.43133318424224854 0.5579715967178345
vt 0.3969675302505493 0.5578262805938721
vt 0.381671279668808 0.5628615021705627
vt 0.3822419345378876 0.5627262592315674
vt 0.48979437351226807 0.568595290184021
vt 0.39689910411834717 0.5578601360321045
vt 0.5035498738288879 0.5642126202583313
vt 0.3822419345378876 0.5627262592315674
vt 0.39689910411834717 0.5578601360321045
vt 0.3969675302505493 0.5578262805938721
vt 0.5035865306854248 0.5538293123245239
vt 0.4894881546497345 0.5686646699905396
vt 0.381671279668808 0.5628615021705627
vt 0.48979437351226807 0.568595290184021
vt 0.4917520582675934 0.5679715275764465
vt 0.48979437351226807 0.568595290184021
vt 0.3822419345378876 0.5627262592315674
vt 0.4956746995449066 0.5667216777801514
vt 0.4917520582675934 0.5679715275764465
vt 0.3822419345378876 0.5627262592315674
vt 0.5035498738288879 0.5642126202583313
vt 0.4956746995449066 0.5667216777801514
vt 0.3822419345378876 0.5627262592315674
vt 0.5035865306854248 0.5538293123245239
vt 0.5035498738288879 0.5538468360900879
vt 0.39689910411834717 0.5578601360321045
vt 0.39689910411834717 0.5578601360321045
vt 0.5035498738288879 0.5538468360900879
vt 0.5035498738288879 0.5642126202583313
vt 0.4894881546497345 0.5686646699905396
vt 0.6053510904312134 0.5749009847640991
vt 0.48933514952659607 0.5686994791030884
vt 0.48979437351226807 0.568595290184021
vt 0.5035865306854248 0.5538293123245239
vt 0.6180291175842285 0.5495389699935913
vt 0.5035498738288879 0.5538468360900879
vt 0.4917520582675934 0.5679715275764465
vt 0.6095659732818604 0.5736144781112671
vt 0.48979437351226807 0.568595290184021
vt 0.4956746995449066 0.5667216777801514
vt 0.6180291175842285 0.571031391620636
vt 0.4917520582675934 0.5679715275764465
vt 0.6180291175842285 0.560285210609436
vt 0.6053510904312134 0.5749009847640991
vt 0.6050215363502502 0.57497239112854
vt 0.48933514952659607 0.5686994791030884
vt 0.6095659732818604 0.5736144781112671
vt 0.6053510904312134 0.5749009847640991
vt 0.48979437351226807 0.568595290184021
vt 0.6180291175842285 0.5495389699935913
vt 0.6180291175842285 0.560285210609436
vt 0.6180291175842285 0.571031391620636
vt 0.6095659732818604 0.5736144781112671
vt 0.4917520582675934 0.5679715275764465
vt 0.6180291175842285 0.571031391620636
vt 0.7298402190208435 0.5816941261291504
vt 0.6050215363502502 0.57497239112854
vt 0.6095659732818604 0.5736144781112671
vt 0.7366656064987183 0.5797022581100464
vt 0.6053510904312134 0.5749009847640991
vt 0.7412313222885132 0.5560585260391235
vt 0.7412313222885132 0.5783697366714478
vt 0.6095659732818604 0.5736144781112671
vt 0.7412313222885132 0.5672141313552856
vt 0.7343872785568237 0.5803670883178711
vt 0.7298402190208435 0.5816941261291504
vt 0.6053510904312134 0.5749009847640991
vt 0.7366656064987183 0.5797022581100464
vt 0.7343872785568237 0.5803670883178711
vt 0.6053510904312134 0.5749009847640991
vt 0.7412313222885132 0.5783697366714478
vt 0.7366656064987183 0.5797022581100464
vt 0.6095659732818604 0.5736144781112671
vt 0.7412313222885132 0.5672141313552856
vn 0.36470335721969604 -0.9311237335205078 -0
vn 0.36470335721969604 -0.9311237335205078 -0
vn 0.36470335721969604 -0.9311237335205078 -0
vn 0.26839855313301086 -0.9633079767227173 -0
vn 0.26839855313301086 -0.9633079767227173 -0
vn 0.26839855313301086 -0.9633079767227173 -0
vn 0.36468544602394104 -0.9311308264732361 -0
vn 0.36468544602394104 -0.9311308264732361 -0
vn 0.36468544602394104 -0.9311308264732361 -0
vn 0.2683977484703064 -0.9633081555366516 -0
vn 0.2683977484703064 -0.9633081555366516 -0
vn 0.2683977484703064 -0.9633081555366516 -0
vn 0.1827775537967682 -0.9831543564796448 -0
vn 0.1827775537967682 -0.9831543564796448 -0
vn 0.1827775537967682 -0.9831543564796448 -0
vn -0.0000000011049048342925971 -0 -1
vn -0.0000000011049048342925971 -0 -1
vn -0.0000000011049048342925971 -0 -1
vn 0 -0 -1
vn 0 -0 -1
vn 0 -0 -1
vn -0.0000000006137489960700293 -0 -1
vn -0.0000000006137489960700293 -0 -1
vn -0.0000000006137489960700293 -0 -1
vn 0.000000006898186910575532 -0 -1
vn 0.000000006898186910575532 -0 -1
vn 0.000000006898186910575532 -0 -1
vn 0.00000000038171021898847357 -0 -1
vn 0.00000000038171021898847357 -0 -1
vn 0.00000000038171021898847357 -0 -1
vn -0.00000000022902650609335495 -0 -1
vn -0.00000000022902650609335495 -0 -1
vn -0.00000000022902650609335495 -0 -1
vn -0.000000000025447303986236847 -0 -1
vn -0.000000000025447303986236847 -0 -1
vn -0.000000000025447303986236847 -0 -1
vn 0.00000001938180815841406 -0 -0.9999999403953552
vn 0.00000001938180815841406 -0 -0.9999999403953552
vn 0.00000001938180815841406 -0 -0.9999999403953552
vn 0 -0 -0.9999999403953552
vn 0 -0 -0.9999999403953552
vn 0 -0 -0.9999999403953552
vn 0 -0 -1
vn 0 -0 -1
vn 0 -0 -1
vn 0 -0 -1
vn 0 -0 -1
vn 0 -0 -1
vn 0 -0 -1
vn 0.0000000008143123952919495 -0 -1
vn 0.0000000008143123952919495 -0 -1
vn 0.0000000008143123952919495 -0 -1
vn 0 -0 -1
vn 0 -0 -1
vn 0 -0 -1
vn 0 -0 -1
vn -0.000000002344342941995592 -0 -0.9999999403953552
vn -0.000000002344342941995592 -0 -0.9999999403953552
vn -0.000000002344342941995592 -0 -0.9999999403953552
vn -0.00000000022902650609335495 -0 -1
vn -0.00000000022902650609335495 -0 -1
vn -0.00000000022902650609335495 -0 -1
vn 0 -0 -0.9999999403953552
vn 0 -0 -0.9999999403953552
vn -0.000000000025447262352873423 -0 -1
vn -0.000000000025447262352873423 -0 -1
vn -0.000000000025447262352873423 -0 -1
vn 0 -0 -0.9999999403953552
vn 0 -0 -1
vn 0 -0 -1
vn 0.00000000040715619764597477 -0 -1
vn 0.00000000040715619764597477 -0 -1
vn 0.00000000040715619764597477 -0 -1
vn 0 -0 -0.9999999403953552
vn 0 -0 -1
vn 0 -0 -1
vn 0 -0 -1
vn -0.000000000038171337618519985 -0 -1
vn -0.000000000038171337618519985 -0 -1
vn -0.000000000038171337618519985 -0 -1
vn -0.0000000004326041747049203 -0 -1
vn -0.0000000004326041747049203 -0 -1
vn -0.0000000004326041747049203 -0 -1
vn -0.00000000022902574281502552 -0 -1
vn -0.00000000022902574281502552 -0 -1
vn -0.00000000022902574281502552 -0 -1
vn 0 -0 -0.9999999403953552
f 3/3/3 2/2/2 1/1/1
f 6/6/6 5/5/5 4/4/4
f 9/9/9 8/8/8 7/7/7
f 12/12/12 11/11/11 10/10/10
f 15/15/15 14/14/14 13/13/13
f 18/18/18 17/17/17 16/16/16
f 21/21/21 20/20/20 19/19/19
f 24/24/24 23/23/23 22/22/22
f 27/27/27 26/26/26 25/25/25
f 30/30/30 29/29/29 28/28/28
f 33/33/33 32/32/32 31/31/31
f 36/36/36 35/35/35 34/34/34
f 39/39/39 38/38/38 37/37/37
f 42/42/42 41/41/41 40/40/40
f 45/45/45 44/44/44 43/43/43
f 43/43/43 44/44/44 46/46/46
f 49/49/49 48/48/48 47/47/47
f 52/52/52 51/51/51 50/50/50
f 55/55/55 54/54/54 53/53/53
f 20/20/20 56/56/56 49/49/49
f 53/53/53 54/54/54 20/20/20
f 59/59/59 58/58/58 57/57/57
f 62/62/62 61/61/61 60/60/60
f 64/64/64 63/63/63 41/41/41
f 67/67/67 66/66/66 65/65/65
f 68/68/68 64/64/64 42/42/42
f 44/44/44 70/70/70 69/69/69
f 73/73/73 72/72/72 71/71/71
f 64/64/64 74/74/74 63/63/63
f 76/76/76 75/75/75 54/54/54
f 54/54/54 77/77/77 56/56/56
f 80/80/80 79/79/79 78/78/78
f 83/83/83 82/82/82 81/81/81
f 86/86/86 85/85/85 84/84/84
f 64/64/64 87/87/87 74/74/74
f 75/75/75 77/77/77 54/54/54
