# VPXTOOL table OBJ file
# VPXTOOL OBJ file
# numVerts: 38 numFaces: 69
o LM_inserts_L44_PF
v 623.8643188476563 1320.217529296875 0.030000003054738045
v 545.8812866210938 1432.0653076171875 0.030000003054738045
v 566.4625244140625 1304.22412109375 0.030000003054738045
v 545.8812866210938 1432.0653076171875 0.030000003054738045
v 517.1803588867188 1424.068603515625 0.030000003054738045
v 566.4625244140625 1304.22412109375 0.030000003054738045
v 623.8643188476563 1320.217529296875 0.030000003054738045
v 664.8812866210938 1432.0653076171875 0.030000003054738045
v 545.8812866210938 1432.0653076171875 0.030000003054738045
v 517.1803588867188 1424.068603515625 0.030000003054738045
v 467.8982849121094 1543.9130859375 0.030000003054738045
v 502.8299255371094 1420.0703125 0.030000003054738045
v 664.8812866210938 1432.0653076171875 0.030000003054738045
v 586.8983154296875 1543.9130859375 0.030000003054738045
v 705.8982543945313 1543.9130859375 0.030000003054738045
v 586.8983154296875 1543.9130859375 0.030000003054738045
v 467.8982849121094 1543.9130859375 0.030000003054738045
v 439.19732666015625 1535.91650390625 0.030000003054738045
v 502.8299255371094 1420.0703125 0.030000003054738045
v 467.8982849121094 1543.9130859375 0.030000003054738045
v 627.9152221679688 1655.760986328125 0.030000003054738045
v 389.91522216796875 1655.760986328125 0.030000003054738045
v 439.19732666015625 1535.91650390625 0.030000003054738045
v 508.91522216796875 1655.760986328125 0.030000003054738045
v 705.8982543945313 1543.9130859375 0.030000003054738045
v 746.915283203125 1655.760986328125 0.030000003054738045
v 627.9152221679688 1655.760986328125 0.030000003054738045
v 389.91522216796875 1655.760986328125 0.030000003054738045
v 375.56475830078125 1651.7625732421875 0.030000003054738045
v 439.19732666015625 1535.91650390625 0.030000003054738045
v 508.91522216796875 1655.760986328125 0.030000003054738045
v 746.915283203125 1655.760986328125 0.030000003054738045
v 668.9321899414063 1767.6087646484375 0.030000003054738045
v 311.9321594238281 1767.6087646484375 0.030000003054738045
v 375.56475830078125 1651.7625732421875 0.030000003054738045
v 549.9321899414063 1767.6087646484375 0.030000003054738045
v 430.9321594238281 1767.6087646484375 0.030000003054738045
v 549.9321899414063 1767.6087646484375 0.030000003054738045
vt 0.02189910225570202 0.7165515422821045
vt 0.12854988873004913 0.7229040265083313
vt 0.007241947576403618 0.7214176654815674
vt 0.12854988873004913 0.7229040265083313
vt 0.12067468464374542 0.7254130840301514
vt 0.007241947576403618 0.7214176654815674
vt 0.02189910225570202 0.7165515422821045
vt 0.12854988873004913 0.7125382423400879
vt 0.12854988873004913 0.7229040265083313
vt 0.12067468464374542 0.7254130840301514
vt 0.24302910268306732 0.729722797870636
vt 0.11675207316875458 0.7266629338264465
vt 0.12854988873004913 0.7125382423400879
vt 0.24302910268306732 0.718976616859436
vt 0.24302910268306732 0.7082303762435913
vt 0.24302910268306732 0.718976616859436
vt 0.24302910268306732 0.729722797870636
vt 0.23456600308418274 0.7323058843612671
vt 0.11675207316875458 0.7266629338264465
vt 0.24302910268306732 0.729722797870636
vt 0.3662312924861908 0.7147499322891235
vt 0.3662312924861908 0.7370611429214478
vt 0.23456600308418274 0.7323058843612671
vt 0.3662312924861908 0.7259055376052856
vt 0.24302910268306732 0.7082303762435913
vt 0.3662312924861908 0.7035943269729614
vt 0.3662312924861908 0.7147499322891235
vt 0.3662312924861908 0.7370611429214478
vt 0.36166560649871826 0.7383936643600464
vt 0.23456600308418274 0.7323058843612671
vt 0.3662312924861908 0.7259055376052856
vt 0.3662312924861908 0.7035943269729614
vt 0.4991935193538666 0.7101883888244629
vt 0.4991935193538666 0.7449808716773987
vt 0.36166560649871826 0.7383936643600464
vt 0.4991935193538666 0.7217859029769897
vt 0.4991935193538666 0.7333834171295166
vt 0.4991935193538666 0.7217859029769897
vn 0 -0 -1
vn 0 -0 -1
vn 0 -0 -1
vn -0.000000000025447303986236847 -0 -1
vn -0.000000000025447303986236847 -0 -1
vn -0.000000000025447303986236847 -0 -1
vn 0 -0 -0.9999999403953552
vn 0 -0 -0.9999999403953552
vn 0 -0 -0.9999999403953552
vn 0 -0 -1
vn 0 -0 -1
vn 0 -0 -1
vn 0 -0 -1
vn 0 -0 -1
vn 0 -0 -0.9999999403953552
vn 0 -0 -0.9999999403953552
vn -0.000000000025447262352873423 -0 -1
vn -0.000000000025447262352873423 -0 -1
vn -0.000000000025447262352873423 -0 -1
vn 0 -0 -0.9999999403953552
vn 0 -0 -0.9999999403953552
vn 0 -0 -1
vn 0 -0 -1
vn 0 -0 -1
vn 0 -0 -1
vn 0 -0 -1
vn 0 -0 -1
vn -0.00000000022902574281502552 -0 -1
vn -0.00000000022902574281502552 -0 -1
vn -0.00000000022902574281502552 -0 -1
vn 0 -0 -0.9999999403953552
vn 0 -0 -0.9999999403953552
vn 0 -0 -0.9999999403953552
vn 0 -0 -1
vn 0 -0 -1
vn 0 -0 -0.9999999403953552
vn 0 -0 -1
vn 0 -0 -1
f 3/3/3 2/2/2 1/1/1
f 6/6/6 5/5/5 4/4/4
f 9/9/9 8/8/8 7/7/7
f 12/12/12 11/11/11 10/10/10
f 2/2/2 14/14/14 13/13/13
f 10/10/10 11/11/11 2/2/2
f 16/16/16 15/15/15 8/8/8
f 19/19/19 18/18/18 17/17/17
f 20/20/20 16/16/16 9/9/9
f 16/16/16 21/21/21 15/15/15
f 23/23/23 22/22/22 11/11/11
f 11/11/11 24/24/24 14/14/14
f 27/27/27 26/26/26 25/25/25
f 30/30/30 29/29/29 28/28/28
f 16/16/16 31/31/31 21/21/21
f 22/22/22 24/24/24 11/11/11
f 21/21/21 33/33/33 32/32/32
f 35/35/35 34/34/34 22/22/22
f 31/31/31 36/36/36 21/21/21
f 22/22/22 37/37/37 24/24/24
f 36/36/36 33/33/33 21/21/21
f 34/34/34 37/37/37 22/22/22
f 37/37/37 38/38/38 24/24/24
