# VPXTOOL table OBJ file
# VPXTOOL OBJ file
# numVerts: 90 numFaces: 102
o LM_inserts_L04_sw04
v 13.599907875061035 7.999998092651367 -52.39198684692383
v 16.799951553344727 7.999998092651367 -55.591983795166016
v 16.799951553344727 7.999998092651367 -52.39198684692383
v -16.80006217956543 7.999998092651367 -55.591983795166016
v 13.599907875061035 7.999998092651367 -52.39198684692383
v 16.799951553344727 7.999998092651367 -52.39198684692383
v 13.600018501281738 4.800009727478027 -47.59198760986328
v -13.600018501281738 7.999998092651367 -52.39198684692383
v 13.600018501281738 4.800009727478027 -52.39198684692383
v 13.599907875061035 7.999998092651367 -52.39198684692383
v 13.600018501281738 4.800009727478027 -47.59198760986328
v 16.799951553344727 7.999998092651367 -52.39198684692383
v 16.799951553344727 4.800009727478027 -47.59198760986328
v 13.600018501281738 4.800009727478027 -47.59198760986328
v -16.80006217956543 7.999998092651367 -52.39198684692383
v -13.600018501281738 4.800009727478027 -52.39198684692383
v 13.600018501281738 4.800009727478027 -52.39198684692383
v 13.600018501281738 4.800009727478027 -47.59198760986328
v -16.80006217956543 7.999998092651367 -52.39198684692383
v -13.600018501281738 7.999998092651367 -52.39198684692383
v -16.799951553344727 4.799954414367676 -47.59198760986328
v 16.799951553344727 7.999998092651367 -55.591983795166016
v -16.80006217956543 7.999998092651367 -55.591983795166016
v -16.799951553344727 -7.999998092651367 -55.591983795166016
v -13.600018501281738 4.800009727478027 -47.59198760986328
v -13.600018501281738 7.999998092651367 -52.39198684692383
v -13.600018501281738 4.800009727478027 -47.59198760986328
v -16.799951553344727 4.799954414367676 -47.59198760986328
v -16.799951553344727 -6.400031566619873 -50.791988372802734
v -16.80006217956543 7.999998092651367 -55.591983795166016
v -16.80006217956543 7.999998092651367 -52.39198684692383
v 16.80006217956543 -7.999998092651367 -55.591983795166016
v -16.799951553344727 -6.400031566619873 -50.791988372802734
v -16.80006217956543 7.999998092651367 -52.39198684692383
v -16.799951553344727 4.799954414367676 -47.59198760986328
v 13.600018501281738 4.800009727478027 -47.59198760986328
v 16.799951553344727 4.800009727478027 -47.59198760986328
v 16.799951553344727 4.800009727478027 -4.391999244689941
v -16.799951553344727 -6.400031566619873 -50.791988372802734
v -16.799951553344727 -7.999998092651367 -55.591983795166016
v -16.80006217956543 7.999998092651367 -55.591983795166016
v 13.600018501281738 4.800009727478027 -47.59198760986328
v 16.799951553344727 4.800009727478027 -4.391999244689941
v -13.600018501281738 4.800009727478027 -47.59198760986328
v -16.799951553344727 4.799954414367676 -4.391999244689941
v -16.799951553344727 4.799954414367676 -47.59198760986328
v -13.600018501281738 4.800009727478027 -47.59198760986328
v -16.799951553344727 -6.400031566619873 -50.791988372802734
v -16.799951553344727 -7.999998092651367 -52.39198684692383
v -16.799951553344727 -7.999998092651367 -55.591983795166016
v -16.799951553344727 -6.400031566619873 -50.791988372802734
v -16.799951553344727 4.799954414367676 -47.59198760986328
v -16.799951553344727 4.799954414367676 -4.391999244689941
v 16.799951553344727 4.800009727478027 -4.391999244689941
v -16.799951553344727 4.799954414367676 -4.391999244689941
v -13.600018501281738 4.800009727478027 -47.59198760986328
v -16.799951553344727 -6.400031566619873 -50.791988372802734
v -16.799951553344727 4.799954414367676 -4.391999244689941
v -16.80006217956543 -1.6000217199325562 3.607999086380005
v 3.2000434398651123 3.942575216293335 -4.391999244689941
v 3.2000434398651123 3.942575216293335 50.66682434082031
v 0 4.799954414367676 -4.391999244689941
v 0 4.799954414367676 -4.391999244689941
v 0 4.799954414367676 50.66682434082031
v -3.2000434398651123 3.942575216293335 -4.391999244689941
v -3.2000434398651123 3.942575216293335 -4.391999244689941
v -3.2000434398651123 3.942575216293335 50.66682434082031
v -5.542707443237305 1.6000217199325562 -4.391999244689941
v -16.80006217956543 -1.6000217199325562 3.607999086380005
v -16.799951553344727 -6.400031566619873 52.26681900024414
v -16.799951553344727 -6.400031566619873 -50.791988372802734
v -16.80006217956543 -1.6000217199325562 3.607999086380005
v 16.80006217956543 -1.5999664068222046 3.607999086380005
v 16.80006217956543 -1.5999664068222046 52.26681900024414
v 3.2000434398651123 3.942575216293335 50.66682434082031
v 0 4.799954414367676 50.66682434082031
v 0 4.799954414367676 -4.391999244689941
v 0 4.799954414367676 50.66682434082031
v -3.2000434398651123 3.942575216293335 50.66682434082031
v -3.2000434398651123 3.942575216293335 -4.391999244689941
v -3.2000434398651123 3.942575216293335 50.66682434082031
v -5.542707443237305 1.6000217199325562 50.66682434082031
v -5.542707443237305 1.6000217199325562 -4.391999244689941
v -5.542707443237305 1.6000217199325562 -4.391999244689941
v -5.542707443237305 1.6000217199325562 50.66682434082031
v -6.3999762535095215 -1.6000217199325562 50.66682434082031
v -16.80006217956543 -1.6000217199325562 52.26681900024414
v -16.80006217956543 -1.6000217199325562 3.607999086380005
v -16.80006217956543 -1.6000217199325562 52.26681900024414
v -16.799951553344727 -6.400031566619873 52.26681900024414
vt 0.07578302174806595 0.6360995769500732
vt 0.07660083472728729 0.635411262512207
vt 0.0767633244395256 0.635807991027832
vt 0.06621436774730682 0.6384960412979126
vt 0.07578302174806595 0.6360995769500732
vt 0.0767633244395256 0.635807991027832
vt 0.0743054747581482 0.636563777923584
vt 0.06738276034593582 0.6385977268218994
vt 0.0740589126944542 0.6359696984291077
vt 0.07578302174806595 0.6360995769500732
vt 0.0743054747581482 0.636563777923584
vt 0.0767633244395256 0.635807991027832
vt 0.07528556138277054 0.6362723112106323
vt 0.0743054747581482 0.636563777923584
vt 0.06638649851083755 0.6388939619064331
vt 0.0656493678689003 0.638465940952301
vt 0.0740589126944542 0.6359696984291077
vt 0.0743054747581482 0.636563777923584
vt 0.06638649851083755 0.6388939619064331
vt 0.06738276034593582 0.6385977268218994
vt 0.06491153687238693 0.6393576860427856
vt 0.07660083472728729 0.635411262512207
vt 0.06621436774730682 0.6384960412979126
vt 0.05754859745502472 0.6378374099731445
vt 0.0659075453877449 0.639061450958252
vt 0.06738276034593582 0.6385977268218994
vt 0.0659075453877449 0.639061450958252
vt 0.06491153687238693 0.6393576860427856
vt 0.0586804561316967 0.6384994983673096
vt 0.06621436774730682 0.6384960412979126
vt 0.06638649851083755 0.6388939619064331
vt 0.06799229979515076 0.6347642540931702
vt 0.0586804561316967 0.6384994983673096
vt 0.06638649851083755 0.6388939619064331
vt 0.06491153687238693 0.6393576860427856
vt 0.0743054747581482 0.636563777923584
vt 0.07528556138277054 0.6362723112106323
vt 0.07746721059083939 0.6415563821792603
vt 0.0586804561316967 0.6384994983673096
vt 0.05754859745502472 0.6378374099731445
vt 0.06621436774730682 0.6384960412979126
vt 0.0743054747581482 0.636563777923584
vt 0.07746721059083939 0.6415563821792603
vt 0.0659075453877449 0.639061450958252
vt 0.06722068041563034 0.6446561813354492
vt 0.06491153687238693 0.6393576860427856
vt 0.0659075453877449 0.639061450958252
vt 0.0586804561316967 0.6384994983673096
vt 0.057727135717868805 0.6382350921630859
vt 0.05754859745502472 0.6378374099731445
vt 0.0586804561316967 0.6384994983673096
vt 0.06491153687238693 0.6393576860427856
vt 0.06722068041563034 0.6446561813354492
vt 0.07746721059083939 0.6415563821792603
vt 0.06722068041563034 0.6446561813354492
vt 0.0659075453877449 0.639061450958252
vt 0.0586804561316967 0.6384994983673096
vt 0.06722068041563034 0.6446561813354492
vt 0.06422248482704163 0.6453601121902466
vt 0.07288391888141632 0.6427693367004395
vt 0.07566899061203003 0.6493542194366455
vt 0.07236652076244354 0.6430994272232056
vt 0.07236652076244354 0.6430994272232056
vt 0.0751609355211258 0.6496860980987549
vt 0.07093166559934616 0.6433596611022949
vt 0.07093166559934616 0.6433596611022949
vt 0.07374688237905502 0.6499477624893188
vt 0.06896355003118515 0.6434797644615173
vt 0.06422248482704163 0.6453601121902466
vt 0.0642605796456337 0.6509742140769958
vt 0.0586804561316967 0.6384994983673096
vt 0.06422248482704163 0.6453601121902466
vt 0.07446803152561188 0.64226233959198
vt 0.07690010219812393 0.6480613350868225
vt 0.07566899061203003 0.6493542194366455
vt 0.0751609355211258 0.6496860980987549
vt 0.07236652076244354 0.6430994272232056
vt 0.0751609355211258 0.6496860980987549
vt 0.07374688237905502 0.6499477624893188
vt 0.07093166559934616 0.6433596611022949
vt 0.07374688237905502 0.6499477624893188
vt 0.07180546969175339 0.6500685214996338
vt 0.06896355003118515 0.6434797644615173
vt 0.06896355003118515 0.6434797644615173
vt 0.07180546969175339 0.6500685214996338
vt 0.06985892355442047 0.6500157117843628
vt 0.06679440289735794 0.6511738300323486
vt 0.06422248482704163 0.6453601121902466
vt 0.06679440289735794 0.6511738300323486
vt 0.0642605796456337 0.6509742140769958
vn 0 1 -0
vn 0 1 -0
vn 0 1 -0
vn 0 1 -0
vn 0 0.8320513963699341 0.5546985864639282
vn 0 0.8320513963699341 0.5546985864639282
vn 0 0.8320513963699341 0.5546985864639282
vn 0 1 -0
vn -1 -0.00003495861164992675 -0
vn -1 -0.00003495861164992675 -0
vn -1 -0.00003495861164992675 -0
vn 0 0.8320513367652893 0.5546987056732178
vn 0 0.8320513367652893 0.5546987056732178
vn 0 0.8320513367652893 0.5546987056732178
vn 0 1 -0
vn 0 1 -0
vn 0 1 -0
vn 0 1 -0
vn 0 0.8320467472076416 0.5547054409980774
vn 0 0.8320467472076416 0.5547054409980774
vn 0 0.8320467472076416 0.5547054409980774
vn 0 -0 -1
vn 0 -0 -1
vn 0 -0 -1
vn 0 1 -0
vn -0.000014882143659633584 0.832051157951355 0.5546987652778625
vn -0.000014882143659633584 0.832051157951355 0.5546987652778625
vn -0.000014882143659633584 0.832051157951355 0.5546987652778625
vn -0.9999999403953552 -0.000007858856406528503 -0
vn -0.9999999403953552 -0.000007858856406528503 -0
vn -0.9999999403953552 -0.000007858856406528503 -0
vn 0 -0 -1
vn -1 -0.000005560827958106529 0.000019325229004607536
vn -1 -0.000005560827958106529 0.000019325229004607536
vn -1 -0.000005560827958106529 0.000019325229004607536
vn 0 0.9999999403953552 -0
vn 0 0.9999999403953552 -0
vn 0 0.9999999403953552 -0
vn -1 -0.000006991699137870455 0.0000023005820821708767
vn -1 -0.000006991699137870455 0.0000023005820821708767
vn -1 -0.000006991699137870455 0.0000023005820821708767
vn 0 1 -0.000000007970452742256384
vn 0 1 -0.000000007970452742256384
vn 0 1 -0.000000007970452742256384
vn -0.00001725506990624126 0.9999999403953552 -0
vn -0.00001725506990624126 0.9999999403953552 -0
vn -0.00001725506990624126 0.9999999403953552 -0
vn -0.9999999403953552 0.0000012195062026876258 -0
vn -0.9999999403953552 0.0000012195062026876258 -0
vn -0.9999999403953552 0.0000012195062026876258 -0
vn -1 0.00000012904575896754977 -0
vn -1 0.00000012904575896754977 -0
vn -1 0.00000012904575896754977 -0
vn -0.0000016433095879619941 0.9999999403953552 0.0000011528106824698625
vn -0.0000016433095879619941 0.9999999403953552 0.0000011528106824698625
vn -0.0000016433095879619941 0.9999999403953552 0.0000011528106824698625
vn -1 0.00001292169326916337 -0.000003199554384991643
vn -1 0.00001292169326916337 -0.000003199554384991643
vn -1 0.00001292169326916337 -0.000003199554384991643
vn 0.2587994337081909 0.9659311771392822 -0
vn 0.2587994337081909 0.9659311771392822 -0
vn 0.2587994337081909 0.9659311771392822 -0
vn -0.2587994337081909 0.9659311771392822 -0
vn -0.2587994337081909 0.9659311771392822 -0
vn -0.2587994337081909 0.9659311771392822 -0
vn -0.7070901393890381 0.7071234583854675 -0
vn -0.7070901393890381 0.7071234583854675 -0
vn -0.7070901393890381 0.7071234583854675 -0
vn -1 -0.000023021968445391394 -0
vn -1 -0.000023021968445391394 -0
vn -1 -0.000023021968445391394 -0
vn -0.0000016432989013992483 1 -0
vn -0.0000016432989013992483 1 -0
vn -0.0000016432989013992483 1 -0
vn 0.25879940390586853 0.9659311771392822 -0
vn 0.25879940390586853 0.9659311771392822 -0
vn 0.25879940390586853 0.9659311771392822 -0
vn -0.25879940390586853 0.9659311771392822 -0
vn -0.25879940390586853 0.9659311771392822 -0
vn -0.25879940390586853 0.9659311771392822 -0
vn -0.7070900797843933 0.7071235179901123 -0
vn -0.7070900797843933 0.7071235179901123 -0
vn -0.7070900797843933 0.7071235179901123 -0
vn -0.965939462184906 0.2587681710720062 -0
vn -0.965939462184906 0.2587681710720062 -0
vn -0.965939462184906 0.2587681710720062 -0
vn -0.0000016432989013992483 1 -0
vn -1 -0.00002309696537849959 -0
vn -1 -0.00002309696537849959 -0
vn -1 -0.00002309696537849959 -0
f 3/3/3 2/2/2 1/1/1
f 2/2/2 4/4/4 1/1/1
f 7/7/7 6/6/6 5/5/5
f 4/4/4 8/8/8 1/1/1
f 11/11/11 10/10/10 9/9/9
f 14/14/14 13/13/13 12/12/12
f 4/4/4 15/15/15 8/8/8
f 18/18/18 17/17/17 16/16/16
f 21/21/21 20/20/20 19/19/19
f 24/24/24 23/23/23 22/22/22
f 18/18/18 16/16/16 25/25/25
f 28/28/28 27/27/27 26/26/26
f 31/31/31 30/30/30 29/29/29
f 24/24/24 22/22/22 32/32/32
f 35/35/35 34/34/34 33/33/33
f 38/38/38 37/37/37 36/36/36
f 41/41/41 40/40/40 39/39/39
f 44/44/44 43/43/43 42/42/42
f 47/47/47 46/46/46 45/45/45
f 50/50/50 49/49/49 48/48/48
f 53/53/53 52/52/52 51/51/51
f 56/56/56 55/55/55 54/54/54
f 59/59/59 58/58/58 57/57/57
f 62/62/62 61/61/61 60/60/60
f 65/65/65 64/64/64 63/63/63
f 68/68/68 67/67/67 66/66/66
f 71/71/71 70/70/70 69/69/69
f 74/74/74 73/73/73 72/72/72
f 77/77/77 76/76/76 75/75/75
f 80/80/80 79/79/79 78/78/78
f 83/83/83 82/82/82 81/81/81
f 86/86/86 85/85/85 84/84/84
f 74/74/74 72/72/72 87/87/87
f 90/90/90 89/89/89 88/88/88
