# VPXTOOL table OBJ file
# VPXTOOL OBJ file
# numVerts: 94 numFaces: 105
o LM_inserts_L06_sw10
v 13.599990844726563 7.999998092651367 -52.39198684692383
v 16.799978256225586 7.999998092651367 -55.591983795166016
v 16.799978256225586 7.999998092651367 -52.39198684692383
v -16.800006866455078 7.999998092651367 -55.591983795166016
v 13.599990844726563 7.999998092651367 -52.39198684692383
v 16.799978256225586 7.999998092651367 -52.39198684692383
v 16.799978256225586 4.800009727478027 -47.59198760986328
v 13.599990844726563 7.999998092651367 -52.39198684692383
v -13.599990844726563 7.999998092651367 -52.39198684692383
v -16.800006866455078 7.999998092651367 -55.591983795166016
v 13.599990844726563 4.800009727478027 -47.59198760986328
v 13.599990844726563 7.999998092651367 -52.39198684692383
v 16.799978256225586 4.800009727478027 -47.59198760986328
v -13.599990844726563 7.999998092651367 -52.39198684692383
v -16.800006866455078 7.999998092651367 -52.39198684692383
v 16.800006866455078 -6.3999762535095215 -50.791988372802734
v 16.799978256225586 7.999998092651367 -52.39198684692383
v 16.799978256225586 7.999998092651367 -55.591983795166016
v -16.800006866455078 7.999998092651367 -52.39198684692383
v -13.599990844726563 7.999998092651367 -52.39198684692383
v -13.599990844726563 4.800009727478027 -47.59198760986328
v 16.799978256225586 7.999998092651367 -55.591983795166016
v -16.800006866455078 7.999998092651367 -55.591983795166016
v -16.799978256225586 -7.999998092651367 -55.591983795166016
v -13.599990844726563 4.800009727478027 -52.39198684692383
v -13.599990844726563 4.800009727478027 -47.59198760986328
v -13.599990844726563 7.999998092651367 -52.39198684692383
v -13.599990844726563 4.800009727478027 -47.59198760986328
v -13.599990844726563 4.800009727478027 -52.39198684692383
v 13.599990844726563 4.800009727478027 -47.59198760986328
v -16.800006866455078 4.800009727478027 -47.59198760986328
v 16.800006866455078 -6.3999762535095215 -50.791988372802734
v 16.799978256225586 7.999998092651367 -55.591983795166016
v 16.800006866455078 -7.999998092651367 -55.591983795166016
v 16.800006866455078 -7.999998092651367 -55.591983795166016
v 16.799978256225586 4.800009727478027 -47.59198760986328
v 16.799978256225586 4.800009727478027 -4.391999244689941
v 13.599990844726563 4.800009727478027 -47.59198760986328
v 16.799978256225586 4.800009727478027 -4.391999244689941
v -13.599990844726563 4.800009727478027 -47.59198760986328
v 16.800006866455078 -6.3999762535095215 -50.791988372802734
v 16.799978256225586 4.800009727478027 -4.391999244689941
v 16.799978256225586 4.800009727478027 -47.59198760986328
v -16.800006866455078 4.800009727478027 -4.391999244689941
v -16.800006866455078 4.800009727478027 -47.59198760986328
v 16.799978256225586 4.800009727478027 -4.391999244689941
v -16.800006866455078 4.800009727478027 -4.391999244689941
v -13.599990844726563 4.800009727478027 -47.59198760986328
v 16.800006866455078 -6.3999762535095215 -50.791988372802734
v 16.800006866455078 -1.5999664068222046 3.607999086380005
v 16.799978256225586 4.800009727478027 -4.391999244689941
v -16.800006866455078 -1.6000217199325562 3.607999086380005
v -16.800006866455078 4.800009727478027 -4.391999244689941
v 16.799978256225586 4.800009727478027 -4.391999244689941
v 16.800006866455078 -1.5999664068222046 3.607999086380005
v -16.800006866455078 -1.6000217199325562 3.607999086380005
v 16.799978256225586 4.800009727478027 -4.391999244689941
v 3.1999881267547607 3.942575216293335 -4.391999244689941
v 3.1999881267547607 3.942575216293335 50.66682434082031
v 0 4.800009727478027 -4.391999244689941
v 16.800006866455078 -1.5999664068222046 3.607999086380005
v 16.800006866455078 -6.3999762535095215 -50.791988372802734
v 16.800006866455078 -6.3999762535095215 52.26681900024414
v 0 4.800009727478027 -4.391999244689941
v 0 4.800009727478027 50.66682434082031
v -3.1999881267547607 3.942575216293335 -4.391999244689941
v 5.542569160461426 1.6000217199325562 -4.391999244689941
v 5.542569160461426 1.6000217199325562 50.66682434082031
v 3.1999881267547607 3.942575216293335 -4.391999244689941
v -3.1999881267547607 3.942575216293335 -4.391999244689941
v -3.1999881267547607 3.942575216293335 50.66682434082031
v -5.542569160461426 1.6000217199325562 -4.391999244689941
v -16.800006866455078 -1.6000217199325562 3.607999086380005
v 16.800006866455078 -1.5999664068222046 3.607999086380005
v 16.800006866455078 -1.5999664068222046 52.26681900024414
v 3.1999881267547607 3.942575216293335 50.66682434082031
v 0 4.800009727478027 50.66682434082031
v 0 4.800009727478027 -4.391999244689941
v 0 4.800009727478027 50.66682434082031
v -3.1999881267547607 3.942575216293335 50.66682434082031
v -3.1999881267547607 3.942575216293335 -4.391999244689941
v 5.542569160461426 1.6000217199325562 50.66682434082031
v 3.1999881267547607 3.942575216293335 50.66682434082031
v 3.1999881267547607 3.942575216293335 -4.391999244689941
v -3.1999881267547607 3.942575216293335 50.66682434082031
v -5.542569160461426 1.6000217199325562 50.66682434082031
v -5.542569160461426 1.6000217199325562 -4.391999244689941
v -5.542569160461426 1.6000217199325562 -4.391999244689941
v -5.542569160461426 1.6000217199325562 50.66682434082031
v -6.400003910064697 -1.6000217199325562 50.66682434082031
v 16.800006866455078 -1.5999664068222046 3.607999086380005
v 16.800006866455078 -6.3999762535095215 52.26681900024414
v 16.800006866455078 -1.5999664068222046 52.26681900024414
v -16.800006866455078 -1.6000217199325562 52.26681900024414
vt 0.13686580955982208 0.020613431930541992
vt 0.1386089026927948 0.0202333927154541
vt 0.13862957060337067 0.020613431930541992
vt 0.120076484978199 0.0202333927154541
vt 0.13686580955982208 0.020613431930541992
vt 0.13862957060337067 0.020613431930541992
vt 0.13868506252765656 0.02092766761779785
vt 0.13686580955982208 0.020613431930541992
vt 0.12187375128269196 0.020613431930541992
vt 0.120076484978199 0.0202333927154541
vt 0.13692454993724823 0.02092766761779785
vt 0.13686580955982208 0.020613431930541992
vt 0.13868506252765656 0.02092766761779785
vt 0.12187375128269196 0.020613431930541992
vt 0.12010995298624039 0.020613431930541992
vt 0.13875021040439606 0.019660532474517822
vt 0.13862957060337067 0.020613431930541992
vt 0.1386089026927948 0.0202333927154541
vt 0.12010995298624039 0.020613431930541992
vt 0.12187375128269196 0.020613431930541992
vt 0.12196043878793716 0.02092766761779785
vt 0.1386089026927948 0.0202333927154541
vt 0.120076484978199 0.0202333927154541
vt 0.1202755719423294 0.018965303897857666
vt 0.12191219627857208 0.0203588604927063
vt 0.12196043878793716 0.02092766761779785
vt 0.12187375128269196 0.020613431930541992
vt 0.12196043878793716 0.02092766761779785
vt 0.12191219627857208 0.0203588604927063
vt 0.13692454993724823 0.02092766761779785
vt 0.12019992619752884 0.02092766761779785
vt 0.13875021040439606 0.019660532474517822
vt 0.1386089026927948 0.0202333927154541
vt 0.1387317031621933 0.018965303897857666
vt 0.1387317031621933 0.018965303897857666
vt 0.13868506252765656 0.02092766761779785
vt 0.13896004855632782 0.025994598865509033
vt 0.13692454993724823 0.02092766761779785
vt 0.13896004855632782 0.025994598865509033
vt 0.12196043878793716 0.02092766761779785
vt 0.13875021040439606 0.019660532474517822
vt 0.13896004855632782 0.025994598865509033
vt 0.13868506252765656 0.02092766761779785
vt 0.12064589560031891 0.025994598865509033
vt 0.12019992619752884 0.02092766761779785
vt 0.13896004855632782 0.025994598865509033
vt 0.12064589560031891 0.025994598865509033
vt 0.12196043878793716 0.02092766761779785
vt 0.13875021040439606 0.019660532474517822
vt 0.13905833661556244 0.02641010284423828
vt 0.13896004855632782 0.025994598865509033
vt 0.1208052933216095 0.02641010284423828
vt 0.12064589560031891 0.025994598865509033
vt 0.13896004855632782 0.025994598865509033
vt 0.13905833661556244 0.02641010284423828
vt 0.1208052933216095 0.02641010284423828
vt 0.13896004855632782 0.025994598865509033
vt 0.1315552443265915 0.025925934314727783
vt 0.1319846510887146 0.03224891424179077
vt 0.12980297207832336 0.025994598865509033
vt 0.13905833661556244 0.02641010284423828
vt 0.13875021040439606 0.019660532474517822
vt 0.13939516246318817 0.0315973162651062
vt 0.12980297207832336 0.025994598865509033
vt 0.1302528977394104 0.032318174839019775
vt 0.12806759774684906 0.025925934314727783
vt 0.13285310566425323 0.025738418102264404
vt 0.1332671344280243 0.03205990791320801
vt 0.1315552443265915 0.025925934314727783
vt 0.12806759774684906 0.025925934314727783
vt 0.1285376250743866 0.03224891424179077
vt 0.12681594491004944 0.025738418102264404
vt 0.1208052933216095 0.02641010284423828
vt 0.13905833661556244 0.02641010284423828
vt 0.13936007022857666 0.03198343515396118
vt 0.1319846510887146 0.03224891424179077
vt 0.1302528977394104 0.032318174839019775
vt 0.12980297207832336 0.025994598865509033
vt 0.1302528977394104 0.032318174839019775
vt 0.1285376250743866 0.03224891424179077
vt 0.12806759774684906 0.025925934314727783
vt 0.1332671344280243 0.03205990791320801
vt 0.1319846510887146 0.03224891424179077
vt 0.1315552443265915 0.025925934314727783
vt 0.1285376250743866 0.03224891424179077
vt 0.1273002177476883 0.03205990791320801
vt 0.12681594491004944 0.025738418102264404
vt 0.12681594491004944 0.025738418102264404
vt 0.1273002177476883 0.03205990791320801
vt 0.1268722265958786 0.03180199861526489
vt 0.13905833661556244 0.02641010284423828
vt 0.13939516246318817 0.0315973162651062
vt 0.13936007022857666 0.03198343515396118
vt 0.12129458039999008 0.03198343515396118
vn 0 1 -0
vn 0 1 -0
vn 0 1 -0
vn 0 1 -0
vn 0 0.8320512771606445 0.5546988248825073
vn 0 0.8320512771606445 0.5546988248825073
vn 0 0.8320512771606445 0.5546988248825073
vn 0 1 0.000000573873876419384
vn 0 1 0.000000573873876419384
vn 0 1 0.000000573873876419384
vn 0 0.8320513963699341 0.5546985864639282
vn 0 0.8320513963699341 0.5546985864639282
vn 0 0.8320513963699341 0.5546985864639282
vn 0 1 -0
vn 0 1 -0
vn 1 0.0000018969737993757008 -0
vn 1 0.0000018969737993757008 -0
vn 1 0.0000018969737993757008 -0
vn 0 0.8320512175559998 0.5546987056732178
vn 0 0.8320512175559998 0.5546987056732178
vn 0 0.8320512175559998 0.5546987056732178
vn 0 -0 -1
vn 0 -0 -1
vn 0 -0 -1
vn 1 -0 -0
vn 1 -0 -0
vn 1 -0 -0
vn 0 1 -0
vn 0 1 -0
vn 0 1 -0
vn 0 0.8320512175559998 0.5546987056732178
vn 0.9999999403953552 0.0000017885736269818153 -0.000000575165188365645
vn 0.9999999403953552 0.0000017885736269818153 -0.000000575165188365645
vn 0.9999999403953552 0.0000017885736269818153 -0.000000575165188365645
vn 0 -0 -1
vn 0 1 -0
vn 0 1 -0
vn 0 1 -0.000000005313645967675029
vn 0 1 -0.000000005313645967675029
vn 0 1 -0.000000005313645967675029
vn 1 0.0000024776784357527504 -0
vn 1 0.0000024776784357527504 -0
vn 1 0.0000024776784357527504 -0
vn 0 1 -0
vn 0 1 -0
vn 0 0.9999999403953552 -0
vn 0 0.9999999403953552 -0
vn 0 0.9999999403953552 -0
vn 1 0.0000036180740607960615 -0.00000034281052307960636
vn 1 0.0000036180740607960615 -0.00000034281052307960636
vn 1 0.0000036180740607960615 -0.00000034281052307960636
vn 0 0.7808672189712524 0.6246970295906067
vn 0 0.7808672189712524 0.6246970295906067
vn 0 0.7808672189712524 0.6246970295906067
vn -0.0000012832862239520182 0.7808698415756226 0.6246936917304993
vn -0.0000012832862239520182 0.7808698415756226 0.6246936917304993
vn -0.0000012832862239520182 0.7808698415756226 0.6246936917304993
vn 0.2588191032409668 0.9659257531166077 -0
vn 0.2588191032409668 0.9659257531166077 -0
vn 0.2588191032409668 0.9659257531166077 -0
vn 1 -0.00000040389417677033634 -0
vn 1 -0.00000040389417677033634 -0
vn 1 -0.00000040389417677033634 -0
vn -0.2588191032409668 0.9659257531166077 -0
vn -0.2588191032409668 0.9659257531166077 -0
vn -0.2588191032409668 0.9659257531166077 -0
vn 0.7071026563644409 0.7071109414100647 -0
vn 0.7071026563644409 0.7071109414100647 -0
vn 0.7071026563644409 0.7071109414100647 -0
vn -0.7071026563644409 0.7071109414100647 -0
vn -0.7071026563644409 0.7071109414100647 -0
vn -0.7071026563644409 0.7071109414100647 -0
vn -0.000001643304358367459 0.9999999403953552 -0
vn -0.000001643304358367459 0.9999999403953552 -0
vn -0.000001643304358367459 0.9999999403953552 -0
vn 0.2588190734386444 0.9659257531166077 -0
vn 0.2588190734386444 0.9659257531166077 -0
vn 0.2588190734386444 0.9659257531166077 -0
vn -0.2588190734386444 0.9659257531166077 -0
vn -0.2588190734386444 0.9659257531166077 -0
vn -0.2588190734386444 0.9659257531166077 -0
vn 0.7071026563644409 0.7071108818054199 -0
vn 0.7071026563644409 0.7071108818054199 -0
vn 0.7071026563644409 0.7071108818054199 -0
vn -0.7071026563644409 0.7071108818054199 -0
vn -0.7071026563644409 0.7071108818054199 -0
vn -0.7071026563644409 0.7071108818054199 -0
vn -0.9659269452095032 0.25881490111351013 -0
vn -0.9659269452095032 0.25881490111351013 -0
vn -0.9659269452095032 0.25881490111351013 -0
vn 1 -0 -0
vn 1 -0 -0
vn 1 -0 -0
vn -0.000001643304358367459 0.9999999403953552 -0
f 3/3/3 2/2/2 1/1/1
f 2/2/2 4/4/4 1/1/1
f 7/7/7 6/6/6 5/5/5
f 10/10/10 9/9/9 8/8/8
f 13/13/13 12/12/12 11/11/11
f 4/4/4 15/15/15 14/14/14
f 18/18/18 17/17/17 16/16/16
f 21/21/21 20/20/20 19/19/19
f 24/24/24 23/23/23 22/22/22
f 27/27/27 26/26/26 25/25/25
f 30/30/30 29/29/29 28/28/28
f 21/21/21 19/19/19 31/31/31
f 34/34/34 33/33/33 32/32/32
f 24/24/24 22/22/22 35/35/35
f 37/37/37 36/36/36 30/30/30
f 40/40/40 39/39/39 38/38/38
f 43/43/43 42/42/42 41/41/41
f 28/28/28 45/45/45 44/44/44
f 48/48/48 47/47/47 46/46/46
f 51/51/51 50/50/50 49/49/49
f 54/54/54 53/53/53 52/52/52
f 57/57/57 56/56/56 55/55/55
f 60/60/60 59/59/59 58/58/58
f 63/63/63 62/62/62 61/61/61
f 66/66/66 65/65/65 64/64/64
f 69/69/69 68/68/68 67/67/67
f 72/72/72 71/71/71 70/70/70
f 75/75/75 74/74/74 73/73/73
f 78/78/78 77/77/77 76/76/76
f 81/81/81 80/80/80 79/79/79
f 84/84/84 83/83/83 82/82/82
f 87/87/87 86/86/86 85/85/85
f 90/90/90 89/89/89 88/88/88
f 93/93/93 92/92/92 91/91/91
f 75/75/75 73/73/73 94/94/94
