# VPXTOOL table OBJ file
# VPXTOOL OBJ file
# numVerts: 69 numFaces: 96
o LM_Journey_L88_PF
v 126.5256118774414 1115.966796875 0.030000003054738045
v 198.60853576660156 1001.680908203125 0.030000003054738045
v 123.47950744628906 1170.4234619140625 0.030000003054738045
v 224.40798950195313 1118.9022216796875 0.030000003054738045
v 123.47950744628906 1170.4234619140625 0.030000003054738045
v 198.60853576660156 1001.680908203125 0.030000003054738045
v 63.12046432495117 1110.49853515625 0.030000003054738045
v 91.9723129272461 1107.80517578125 0.030000003054738045
v 117.81417083740234 1119.3106689453125 0.030000003054738045
v 124.37620544433594 1118.6209716796875 0.030000003054738045
v 126.5256118774414 1115.966796875 0.030000003054738045
v 123.47950744628906 1170.4234619140625 0.030000003054738045
v 123.47950744628906 1170.4234619140625 0.030000003054738045
v 117.81417083740234 1119.3106689453125 0.030000003054738045
v 121.18759155273438 1119.844970703125 0.030000003054738045
v 121.18759155273438 1119.844970703125 0.030000003054738045
v 124.37620544433594 1118.6209716796875 0.030000003054738045
v 224.62652587890625 1119.388916015625 0.030000003054738045
v 123.47950744628906 1170.4234619140625 0.030000003054738045
v 224.40798950195313 1118.9022216796875 0.030000003054738045
v 224.9138946533203 1119.8946533203125 0.030000003054738045
v 123.47950744628906 1170.4234619140625 0.030000003054738045
v 224.62652587890625 1119.388916015625 0.030000003054738045
v 225.27752685546875 1120.38720703125 0.030000003054738045
v 224.9138946533203 1119.8946533203125 0.030000003054738045
v 225.72482299804688 1120.833740234375 0.030000003054738045
v 226.2631072998047 1121.2021484375 0.030000003054738045
v 55.230403900146484 1248.5611572265625 0.030000003054738045
v 232.93545532226563 1202.081787109375 0.030000003054738045
v 232.95616149902344 1202.371826171875 0.030000003054738045
v 233.01412963867188 1202.67236328125 0.030000003054738045
v 233.1197509765625 1202.97021484375 0.030000003054738045
v 233.2833251953125 1203.2523193359375 0.030000003054738045
v 233.51522827148438 1203.505615234375 0.030000003054738045
v 85.40992736816406 1278.523681640625 0.030000003054738045
v 55.230403900146484 1248.5611572265625 0.030000003054738045
v 123.47950744628906 1170.4234619140625 0.030000003054738045
v 233.51522827148438 1203.505615234375 0.030000003054738045
v 233.2833251953125 1203.2523193359375 0.030000003054738045
v 343.087158203125 1236.0811767578125 0.030000003054738045
v 163.06243896484375 1317.53662109375 0.030000003054738045
v 100.49969482421875 1293.5048828125 0.030000003054738045
v 85.40992736816406 1278.523681640625 0.030000003054738045
v 123.47950744628906 1170.4234619140625 0.030000003054738045
v 233.51522827148438 1203.505615234375 0.030000003054738045
v 343.087158203125 1236.0811767578125 0.030000003054738045
v 343.55096435546875 1236.587890625 0.030000003054738045
v 123.47950744628906 1170.4234619140625 0.030000003054738045
v 108.04457092285156 1300.99560546875 0.030000003054738045
v 100.49969482421875 1293.5048828125 0.030000003054738045
v 163.06243896484375 1317.53662109375 0.030000003054738045
v 108.04457092285156 1300.99560546875 0.030000003054738045
v 123.47950744628906 1170.4234619140625 0.030000003054738045
v 343.55096435546875 1236.587890625 0.030000003054738045
v 273.09814453125 1350.6187744140625 0.030000003054738045
v 233.51522827148438 1203.505615234375 0.030000003054738045
v 218.08029174804688 1334.07763671875 0.030000003054738045
v 163.06243896484375 1317.53662109375 0.030000003054738045
v 233.51522827148438 1203.505615234375 0.030000003054738045
v 273.09814453125 1350.6187744140625 0.030000003054738045
v 218.08029174804688 1334.07763671875 0.030000003054738045
v 233.51522827148438 1203.505615234375 0.030000003054738045
v 92.60963439941406 1431.567626953125 0.030000003054738045
v 108.04457092285156 1300.99560546875 0.030000003054738045
v 218.08029174804688 1334.07763671875 0.030000003054738045
v 202.64535522460938 1464.6497802734375 0.030000003054738045
v 202.64535522460938 1464.6497802734375 0.030000003054738045
v 92.60963439941406 1431.567626953125 0.030000003054738045
v 163.06243896484375 1317.53662109375 0.030000003054738045
vt 0.7039200067520142 0.24347710609436035
vt 0.8064345717430115 0.23783504962921143
vt 0.6929511427879333 0.2462981939315796
vt 0.827663004398346 0.24362695217132568
vt 0.6929511427879333 0.2462981939315796
vt 0.8064345717430115 0.23783504962921143
vt 0.6244103312492371 0.24319875240325928
vt 0.6612824201583862 0.24306190013885498
vt 0.6924459338188171 0.24364781379699707
vt 0.7008562684059143 0.24361258745193481
vt 0.7039200067520142 0.24347710609436035
vt 0.6929511427879333 0.2462981939315796
vt 0.6929511427879333 0.2462981939315796
vt 0.6924459338188171 0.24364781379699707
vt 0.696654736995697 0.2436751127243042
vt 0.696654736995697 0.2436751127243042
vt 0.7008562684059143 0.24361258745193481
vt 0.82789546251297 0.24365180730819702
vt 0.6929511427879333 0.2462981939315796
vt 0.827663004398346 0.24362695217132568
vt 0.8282135128974915 0.24367761611938477
vt 0.6929511427879333 0.2462981939315796
vt 0.82789546251297 0.24365180730819702
vt 0.8286295533180237 0.24370282888412476
vt 0.8282135128974915 0.24367761611938477
vt 0.8291561603546143 0.24372565746307373
vt 0.8298054933547974 0.24374449253082275
vt 0.5924469828605652 0.25050652027130127
vt 0.8309121131896973 0.24797981977462769
vt 0.8309119939804077 0.24799537658691406
vt 0.8309593200683594 0.2480115294456482
vt 0.8310688138008118 0.248027503490448
vt 0.8312551379203796 0.24804264307022095
vt 0.8315329551696777 0.24805623292922974
vt 0.6275466680526733 0.25217288732528687
vt 0.5924469828605652 0.25050652027130127
vt 0.6929511427879333 0.2462981939315796
vt 0.8315329551696777 0.24805623292922974
vt 0.8312551379203796 0.24804264307022095
vt 0.9722654223442078 0.2498212456703186
vt 0.7257997989654541 0.25438833236694336
vt 0.6453356146812439 0.2530174255371094
vt 0.6275466680526733 0.25217288732528687
vt 0.6929511427879333 0.2462981939315796
vt 0.8315329551696777 0.24805623292922974
vt 0.9722654223442078 0.2498212456703186
vt 0.9728478789329529 0.24984896183013916
vt 0.6929511427879333 0.2462981939315796
vt 0.6542908549308777 0.25344258546829224
vt 0.6453356146812439 0.2530174255371094
vt 0.7257997989654541 0.25438833236694336
vt 0.6542908549308777 0.25344258546829224
vt 0.6929511427879333 0.2462981939315796
vt 0.9728478789329529 0.24984896183013916
vt 0.8710076808929443 0.25630879402160645
vt 0.8315329551696777 0.24805623292922974
vt 0.7980350852012634 0.2553436756134033
vt 0.7257997989654541 0.25438833236694336
vt 0.8315329551696777 0.24805623292922974
vt 0.8710076808929443 0.25630879402160645
vt 0.7980350852012634 0.2553436756134033
vt 0.8315329551696777 0.24805623292922974
vt 0.6124354600906372 0.2611774802207947
vt 0.6542908549308777 0.25344258546829224
vt 0.7980350852012634 0.2553436756134033
vt 0.7617394328117371 0.2632398009300232
vt 0.7617394328117371 0.2632398009300232
vt 0.6124354600906372 0.2611774802207947
vt 0.7257997989654541 0.25438833236694336
vn 0 -0 -1
vn 0 -0 -1
vn 0 -0 -1
vn 0.000000000014826277358603868 -0 -1
vn 0.000000000014826277358603868 -0 -1
vn 0.000000000014826277358603868 -0 -1
vn 0 -0 -1
vn 0 -0 -1
vn 0 -0 -1
vn 0.0000000003357453759456064 -0 -0.9999999403953552
vn 0.0000000003357453759456064 -0 -0.9999999403953552
vn 0.0000000003357453759456064 -0 -0.9999999403953552
vn -0.000000001151829520651404 -0 -1
vn -0.000000001151829520651404 -0 -1
vn -0.000000001151829520651404 -0 -1
vn 0 -0 -1
vn 0 -0 -1
vn 0.00000000323279425451517 -0 -1
vn 0.00000000323279425451517 -0 -1
vn 0.00000000323279425451517 -0 -1
vn -0.000000002965174772384671 -0 -1
vn -0.000000002965174772384671 -0 -1
vn -0.000000002965174772384671 -0 -1
vn 0 -0 -1
vn 0 -0 -1
vn 0 -0 -1
vn 0 -0 -1
vn 0 -0 -1
vn 0 -0 -1
vn 0 -0 -1
vn 0 -0 -1
vn 0 -0 -1
vn 0 -0 -1
vn 0 -0 -1
vn -0.00000000008862758443806129 -0 -1
vn -0.00000000008862758443806129 -0 -1
vn -0.00000000008862758443806129 -0 -1
vn 0.0000000003017956717865644 -0 -1
vn 0.0000000003017956717865644 -0 -1
vn 0.0000000003017956717865644 -0 -1
vn 0 -0 -1
vn 0.00000000008862758443806129 -0 -1
vn 0.00000000008862758443806129 -0 -1
vn 0.00000000008862758443806129 -0 -1
vn 0 -0 -0.9999999403953552
vn 0 -0 -0.9999999403953552
vn 0 -0 -0.9999999403953552
vn 0 -0 -0.9999999403953552
vn 0 -0 -0.9999999403953552
vn 0 -0 -0.9999999403953552
vn 0.000000000013114288301141475 -0 -1
vn 0.000000000013114288301141475 -0 -1
vn 0.000000000013114288301141475 -0 -1
vn 0.00000000005245706299894515 -0 -1
vn 0.00000000005245706299894515 -0 -1
vn 0.00000000005245706299894515 -0 -1
vn 0.000000000013114265749736287 -0 -1
vn 0.000000000013114265749736287 -0 -1
vn 0.000000000013114265749736287 -0 -1
vn -0.00000000003934286577078616 -0 -1
vn -0.00000000003934286577078616 -0 -1
vn -0.00000000003934286577078616 -0 -1
vn 0 -0 -1
vn 0 -0 -1
vn 0 -0 -1
vn 0 -0 -1
vn -0.000000000013114265749736287 -0 -1
vn -0.000000000013114265749736287 -0 -1
vn -0.000000000013114265749736287 -0 -1
f 3/3/3 2/2/2 1/1/1
f 6/6/6 5/5/5 4/4/4
f 8/8/8 7/7/7 3/3/3
f 9/9/9 8/8/8 3/3/3
f 12/12/12 11/11/11 10/10/10
f 15/15/15 14/14/14 13/13/13
f 3/3/3 17/17/17 16/16/16
f 20/20/20 19/19/19 18/18/18
f 23/23/23 22/22/22 21/21/21
f 25/25/25 3/3/3 24/24/24
f 24/24/24 3/3/3 26/26/26
f 26/26/26 3/3/3 27/27/27
f 3/3/3 7/7/7 28/28/28
f 29/29/29 27/27/27 3/3/3
f 29/29/29 3/3/3 30/30/30
f 30/30/30 3/3/3 31/31/31
f 31/31/31 3/3/3 32/32/32
f 32/32/32 3/3/3 33/33/33
f 33/33/33 3/3/3 34/34/34
f 37/37/37 36/36/36 35/35/35
f 40/40/40 39/39/39 38/38/38
f 3/3/3 41/41/41 34/34/34
f 44/44/44 43/43/43 42/42/42
f 47/47/47 46/46/46 45/45/45
f 50/50/50 49/49/49 48/48/48
f 53/53/53 52/52/52 51/51/51
f 56/56/56 55/55/55 54/54/54
f 59/59/59 58/58/58 57/57/57
f 62/62/62 61/61/61 60/60/60
f 64/64/64 63/63/63 41/41/41
f 41/41/41 66/66/66 65/65/65
f 69/69/69 68/68/68 67/67/67
