# VPXTOOL table OBJ file
# VPXTOOL OBJ file
# numVerts: 100 numFaces: 114
o LM_Journey_L74_PF
v 233.51522827148438 1203.505615234375 0.030000003054738045
v 343.087158203125 1236.0811767578125 0.030000003054738045
v 343.55096435546875 1236.587890625 0.030000003054738045
v 343.55096435546875 1236.587890625 0.030000003054738045
v 343.087158203125 1236.0811767578125 0.030000003054738045
v 452.8909606933594 1268.909912109375 0.030000003054738045
v 343.55096435546875 1236.587890625 0.030000003054738045
v 273.09814453125 1350.6187744140625 0.030000003054738045
v 233.51522827148438 1203.505615234375 0.030000003054738045
v 453.12286376953125 1269.163330078125 0.030000003054738045
v 343.55096435546875 1236.587890625 0.030000003054738045
v 452.8909606933594 1268.909912109375 0.030000003054738045
v 453.586669921875 1269.6700439453125 0.030000003054738045
v 564.8644409179688 1303.5982666015625 35.32411575317383
v 566.4625244140625 1304.22412109375 35.32411575317383
v 566.4625244140625 1304.22412109375 0.030000003054738045
v 453.586669921875 1269.6700439453125 0.030000003054738045
v 453.12286376953125 1269.163330078125 0.030000003054738045
v 562.6947631835938 1301.73876953125 0.030000003054738045
v 566.4625244140625 1304.22412109375 35.32411575317383
v 623.8643188476563 1320.217529296875 35.32411575317383
v 623.8643188476563 1320.217529296875 0.030000003054738045
v 562.6947631835938 1301.73876953125 0.030000003054738045
v 563.6223754882813 1302.752197265625 0.030000003054738045
v 453.586669921875 1269.6700439453125 0.030000003054738045
v 564.8644409179688 1303.5982666015625 0.030000003054738045
v 564.8644409179688 1303.5982666015625 35.32411575317383
v 566.4625244140625 1304.22412109375 0.030000003054738045
v 453.586669921875 1269.6700439453125 0.030000003054738045
v 383.1338806152344 1383.700927734375 0.030000003054738045
v 343.55096435546875 1236.587890625 0.030000003054738045
v 566.4625244140625 1304.22412109375 0.030000003054738045
v 566.4625244140625 1304.22412109375 35.32411575317383
v 623.8643188476563 1320.217529296875 0.030000003054738045
v 623.8643188476563 1320.217529296875 0.030000003054738045
v 623.8643188476563 1320.217529296875 35.32411575317383
v 624.263427734375 1320.291748046875 0.030000003054738045
v 328.11602783203125 1367.1597900390625 0.030000003054738045
v 273.09814453125 1350.6187744140625 0.030000003054738045
v 343.55096435546875 1236.587890625 0.030000003054738045
v 383.1338806152344 1383.700927734375 0.030000003054738045
v 563.6223754882813 1302.752197265625 0.030000003054738045
v 493.16961669921875 1416.783203125 0.030000003054738045
v 564.8644409179688 1303.5982666015625 0.030000003054738045
v 566.4625244140625 1304.22412109375 0.030000003054738045
v 495.6546630859375 1418.071044921875 0.030000003054738045
v 623.8643188476563 1320.217529296875 0.030000003054738045
v 545.8812866210938 1432.0653076171875 0.030000003054738045
v 566.4625244140625 1304.22412109375 0.030000003054738045
v 623.8643188476563 1320.217529296875 0.030000003054738045
v 624.263427734375 1320.291748046875 0.030000003054738045
v 665.080810546875 1432.1024169921875 0.030000003054738045
v 438.1517333984375 1400.2421875 0.030000003054738045
v 383.1338806152344 1383.700927734375 0.030000003054738045
v 453.586669921875 1269.6700439453125 0.030000003054738045
v 493.16961669921875 1416.783203125 0.030000003054738045
v 438.1517333984375 1400.2421875 0.030000003054738045
v 453.586669921875 1269.6700439453125 0.030000003054738045
v 493.16961669921875 1416.783203125 0.030000003054738045
v 563.6223754882813 1302.752197265625 0.030000003054738045
v 493.4800720214844 1416.9947509765625 0.030000003054738045
v 502.8299255371094 1420.0703125 0.030000003054738045
v 495.6546630859375 1418.071044921875 0.030000003054738045
v 566.4625244140625 1304.22412109375 0.030000003054738045
v 517.1803588867188 1424.068603515625 0.030000003054738045
v 502.8299255371094 1420.0703125 0.030000003054738045
v 566.4625244140625 1304.22412109375 0.030000003054738045
v 545.8812866210938 1432.0653076171875 0.030000003054738045
v 517.1803588867188 1424.068603515625 0.030000003054738045
v 566.4625244140625 1304.22412109375 0.030000003054738045
v 665.080810546875 1432.1024169921875 0.030000003054738045
v 664.8812866210938 1432.0653076171875 0.030000003054738045
v 623.8643188476563 1320.217529296875 0.030000003054738045
v 623.8643188476563 1320.217529296875 0.030000003054738045
v 664.8812866210938 1432.0653076171875 0.030000003054738045
v 545.8812866210938 1432.0653076171875 0.030000003054738045
v 383.1338806152344 1383.700927734375 0.030000003054738045
v 312.68109130859375 1497.7320556640625 0.030000003054738045
v 328.11602783203125 1367.1597900390625 0.030000003054738045
v 438.1517333984375 1400.2421875 0.030000003054738045
v 422.716796875 1530.8140869140625 0.030000003054738045
v 493.4800720214844 1416.9947509765625 0.030000003054738045
v 422.716796875 1530.8140869140625 0.030000003054738045
v 493.16961669921875 1416.783203125 0.030000003054738045
v 664.8812866210938 1432.0653076171875 0.030000003054738045
v 586.8983154296875 1543.9130859375 0.030000003054738045
v 467.8982849121094 1543.9130859375 0.030000003054738045
v 517.1803588867188 1424.068603515625 0.030000003054738045
v 422.716796875 1530.8140869140625 0.030000003054738045
v 312.68109130859375 1497.7320556640625 0.030000003054738045
v 383.1338806152344 1383.700927734375 0.030000003054738045
v 493.4800720214844 1416.9947509765625 0.030000003054738045
v 423.3377990722656 1531.2371826171875 0.030000003054738045
v 422.716796875 1530.8140869140625 0.030000003054738045
v 586.8983154296875 1543.9130859375 0.030000003054738045
v 467.8982849121094 1543.9130859375 0.030000003054738045
v 352.2640075683594 1644.8450927734375 0.030000003054738045
v 352.2640075683594 1644.8450927734375 0.030000003054738045
v 422.716796875 1530.8140869140625 0.030000003054738045
v 423.3377990722656 1531.2371826171875 0.030000003054738045
vt 0.42918917536735535 0.36634236574172974
vt 0.5699216723442078 0.3681073784828186
vt 0.5705041289329529 0.36813509464263916
vt 0.5705041289329529 0.36813509464263916
vt 0.5699216723442078 0.3681073784828186
vt 0.7137185335159302 0.36992108821868896
vt 0.5705041289329529 0.36813509464263916
vt 0.4686639606952667 0.37459492683410645
vt 0.42918917536735535 0.36634236574172974
vt 0.7140235900878906 0.36993521451950073
vt 0.5705041289329529 0.36813509464263916
vt 0.7137185335159302 0.36992108821868896
vt 0.7146337628364563 0.36996352672576904
vt 0.5977091789245605 0.09478819370269775
vt 0.5982813239097595 0.09465420246124268
vt 0.56388258934021 0.09458667039871216
vt 0.7146337628364563 0.36996352672576904
vt 0.7140235900878906 0.36993521451950073
vt 0.8603854179382324 0.37177103757858276
vt 0.5982813239097595 0.09465420246124268
vt 0.6129738092422485 0.08983194828033447
vt 0.5785397291183472 0.08972048759460449
vt 0.8603854179382324 0.37177103757858276
vt 0.8616631031036377 0.37182873487472534
vt 0.7146337628364563 0.36996352672576904
vt 0.5633119344711304 0.09472185373306274
vt 0.5977091789245605 0.09478819370269775
vt 0.56388258934021 0.09458667039871216
vt 0.7146337628364563 0.36996352672576904
vt 0.6168668866157532 0.3765549659729004
vt 0.5705041289329529 0.36813509464263916
vt 0.56388258934021 0.09458667039871216
vt 0.5982813239097595 0.09465420246124268
vt 0.5785397291183472 0.08972048759460449
vt 0.5785397291183472 0.08972048759460449
vt 0.6129738092422485 0.08983194828033447
vt 0.5786081552505493 0.0896865725517273
vt 0.5423852801322937 0.3755699396133423
vt 0.4686639606952667 0.37459492683410645
vt 0.5705041289329529 0.36813509464263916
vt 0.6168668866157532 0.3765549659729004
vt 0.8616631031036377 0.37182873487472534
vt 0.7681587338447571 0.37855589389801025
vt 0.5633119344711304 0.09472185373306274
vt 0.56388258934021 0.09458667039871216
vt 0.6714349985122681 0.10045558214187622
vt 0.5785397291183472 0.08972048759460449
vt 0.6851904988288879 0.0960729718208313
vt 0.56388258934021 0.09458667039871216
vt 0.5785397291183472 0.08972048759460449
vt 0.5786081552505493 0.0896865725517273
vt 0.6852271556854248 0.08568960428237915
vt 0.6921207308769226 0.37755024433135986
vt 0.6168668866157532 0.3765549659729004
vt 0.7146337628364563 0.36996352672576904
vt 0.7681587338447571 0.37855589389801025
vt 0.6921207308769226 0.37755024433135986
vt 0.7146337628364563 0.36996352672576904
vt 0.7681587338447571 0.37855589389801025
vt 0.8616631031036377 0.37182873487472534
vt 0.7685909867286682 0.37856876850128174
vt 0.6733927130699158 0.09983187913894653
vt 0.6714349985122681 0.10045558214187622
vt 0.56388258934021 0.09458667039871216
vt 0.6773152947425842 0.09858208894729614
vt 0.6733927130699158 0.09983187913894653
vt 0.56388258934021 0.09458667039871216
vt 0.6851904988288879 0.0960729718208313
vt 0.6773152947425842 0.09858208894729614
vt 0.56388258934021 0.09458667039871216
vt 0.6852271556854248 0.08568960428237915
vt 0.6851904988288879 0.08570718765258789
vt 0.5785397291183472 0.08972048759460449
vt 0.5785397291183472 0.08972048759460449
vt 0.6851904988288879 0.08570718765258789
vt 0.6851904988288879 0.0960729718208313
vt 0.6168668866157532 0.3765549659729004
vt 0.5118929147720337 0.3836323618888855
vt 0.5423852801322937 0.3755699396133423
vt 0.6921207308769226 0.37755024433135986
vt 0.6676867604255676 0.3857842683792114
vt 0.7685909867286682 0.37856876850128174
vt 0.6676867604255676 0.3857842683792114
vt 0.7681587338447571 0.37855589389801025
vt 0.6851904988288879 0.08570718765258789
vt 0.7996697425842285 0.09214556217193604
vt 0.7996697425842285 0.10289174318313599
vt 0.6773152947425842 0.09858208894729614
vt 0.6676867604255676 0.3857842683792114
vt 0.5118929147720337 0.3836323618888855
vt 0.6168668866157532 0.3765549659729004
vt 0.7685909867286682 0.37856876850128174
vt 0.6685697436332703 0.38581210374832153
vt 0.6676867604255676 0.3857842683792114
vt 0.7996697425842285 0.09214556217193604
vt 0.7996697425842285 0.10289174318313599
vt 0.5594384670257568 0.39357221126556396
vt 0.5594384670257568 0.39357221126556396
vt 0.6676867604255676 0.3857842683792114
vt 0.6685697436332703 0.38581210374832153
vn 0 -0 -0.9999999403953552
vn 0 -0 -0.9999999403953552
vn 0 -0 -0.9999999403953552
vn 0.00000000030192257027827907 -0 -1
vn 0.00000000030192257027827907 -0 -1
vn 0.00000000030192257027827907 -0 -1
vn 0.00000000005245706299894515 -0 -1
vn 0.00000000005245706299894515 -0 -1
vn 0.00000000005245706299894515 -0 -1
vn 0 -0 -1
vn 0 -0 -1
vn 0 -0 -1
vn 0 -0 -1
vn 0.36470335721969604 -0.9311237335205078 -0
vn 0.36470335721969604 -0.9311237335205078 -0
vn 0.36470335721969604 -0.9311237335205078 -0
vn 0.0000000005277197012709678 -0 -1
vn 0.0000000005277197012709678 -0 -1
vn 0.0000000005277197012709678 -0 -1
vn 0.26839855313301086 -0.9633079767227173 -0
vn 0.26839855313301086 -0.9633079767227173 -0
vn 0.26839855313301086 -0.9633079767227173 -0
vn -0.0000000004526968799822839 -0 -1
vn -0.0000000004526968799822839 -0 -1
vn -0.0000000004526968799822839 -0 -1
vn 0.36468544602394104 -0.9311308264732361 -0
vn 0.36468544602394104 -0.9311308264732361 -0
vn 0.36468544602394104 -0.9311308264732361 -0
vn 0.00000000005245701789613477 -0 -1
vn 0.00000000005245701789613477 -0 -1
vn 0.00000000005245701789613477 -0 -1
vn 0.2683977484703064 -0.9633081555366516 -0
vn 0.2683977484703064 -0.9633081555366516 -0
vn 0.2683977484703064 -0.9633081555366516 -0
vn 0.1827775537967682 -0.9831543564796448 -0
vn 0.1827775537967682 -0.9831543564796448 -0
vn 0.1827775537967682 -0.9831543564796448 -0
vn -0.00000000003934286577078616 -0 -1
vn -0.00000000003934286577078616 -0 -1
vn -0.00000000003934286577078616 -0 -1
vn -0.00000000003934286577078616 -0 -1
vn 0 -0 -1
vn 0 -0 -1
vn -0.0000000011049048342925971 -0 -1
vn -0.0000000011049048342925971 -0 -1
vn -0.0000000011049048342925971 -0 -1
vn 0 -0 -1
vn 0 -0 -1
vn 0 -0 -1
vn -0.0000000006137489960700293 -0 -1
vn -0.0000000006137489960700293 -0 -1
vn -0.0000000006137489960700293 -0 -1
vn -0.00000000009180001897535206 -0 -1
vn -0.00000000009180001897535206 -0 -1
vn -0.00000000009180001897535206 -0 -1
vn 0.00000000006557132614659622 -0 -1
vn 0.00000000006557132614659622 -0 -1
vn 0.00000000006557132614659622 -0 -1
vn 0.0000000155147823477364 -0 -0.9999999403953552
vn 0.0000000155147823477364 -0 -0.9999999403953552
vn 0.0000000155147823477364 -0 -0.9999999403953552
vn 0.00000000038171021898847357 -0 -1
vn 0.00000000038171021898847357 -0 -1
vn 0.00000000038171021898847357 -0 -1
vn -0.00000000022902650609335495 -0 -1
vn -0.00000000022902650609335495 -0 -1
vn -0.00000000022902650609335495 -0 -1
vn -0.000000000025447303986236847 -0 -1
vn -0.000000000025447303986236847 -0 -1
vn -0.000000000025447303986236847 -0 -1
vn 0.00000001938180815841406 -0 -0.9999999403953552
vn 0.00000001938180815841406 -0 -0.9999999403953552
vn 0.00000001938180815841406 -0 -0.9999999403953552
vn 0 -0 -0.9999999403953552
vn 0 -0 -0.9999999403953552
vn 0 -0 -0.9999999403953552
vn 0 -0 -1
vn 0 -0 -1
vn 0 -0 -1
vn 0 -0 -1
vn 0 -0 -1
vn -0.0000000155147823477364 -0 -0.9999999403953552
vn -0.0000000155147823477364 -0 -0.9999999403953552
vn -0.0000000155147823477364 -0 -0.9999999403953552
vn 0 -0 -1
vn 0 -0 -1
vn 0 -0 -1
vn 0 -0 -1
vn -0.000000000013114265749736287 -0 -1
vn -0.000000000013114265749736287 -0 -1
vn -0.000000000013114265749736287 -0 -1
vn 0.0000000077573911738682 -0 -0.9999999403953552
vn 0.0000000077573911738682 -0 -0.9999999403953552
vn 0.0000000077573911738682 -0 -0.9999999403953552
vn 0 -0 -0.9999999403953552
vn 0 -0 -0.9999999403953552
vn 0 -0 -1
vn 0 -0 -0.9999999403953552
vn 0 -0 -0.9999999403953552
vn 0 -0 -0.9999999403953552
f 3/3/3 2/2/2 1/1/1
f 6/6/6 5/5/5 4/4/4
f 9/9/9 8/8/8 7/7/7
f 12/12/12 11/11/11 10/10/10
f 10/10/10 11/11/11 13/13/13
f 16/16/16 15/15/15 14/14/14
f 19/19/19 18/18/18 17/17/17
f 22/22/22 21/21/21 20/20/20
f 25/25/25 24/24/24 23/23/23
f 28/28/28 27/27/27 26/26/26
f 31/31/31 30/30/30 29/29/29
f 34/34/34 33/33/33 32/32/32
f 37/37/37 36/36/36 35/35/35
f 40/40/40 39/39/39 38/38/38
f 40/40/40 38/38/38 41/41/41
f 13/13/13 43/43/43 42/42/42
f 46/46/46 45/45/45 44/44/44
f 49/49/49 48/48/48 47/47/47
f 52/52/52 51/51/51 50/50/50
f 55/55/55 54/54/54 53/53/53
f 58/58/58 57/57/57 56/56/56
f 61/61/61 60/60/60 59/59/59
f 64/64/64 63/63/63 62/62/62
f 67/67/67 66/66/66 65/65/65
f 70/70/70 69/69/69 68/68/68
f 73/73/73 72/72/72 71/71/71
f 76/76/76 75/75/75 74/74/74
f 79/79/79 78/78/78 77/77/77
f 77/77/77 81/81/81 80/80/80
f 80/80/80 81/81/81 43/43/43
f 84/84/84 83/83/83 82/82/82
f 48/48/48 86/86/86 85/85/85
f 88/88/88 87/87/87 48/48/48
f 91/91/91 90/90/90 89/89/89
f 94/94/94 93/93/93 92/92/92
f 96/96/96 95/95/95 76/76/76
f 78/78/78 97/97/97 81/81/81
f 100/100/100 99/99/99 98/98/98
