# VPXTOOL table OBJ file
# VPXTOOL OBJ file
# numVerts: 96 numFaces: 102
o LM_inserts_L04_sw05
v 13.599907875061035 7.999942779541016 -52.39198684692383
v 16.799951553344727 7.999998092651367 -55.591983795166016
v 16.799951553344727 7.999998092651367 -52.39198684692383
v 13.599907875061035 7.999942779541016 -52.39198684692383
v -16.80006217956543 7.999998092651367 -55.591983795166016
v 16.799951553344727 7.999998092651367 -55.591983795166016
v 13.599907875061035 7.999942779541016 -52.39198684692383
v 16.799951553344727 7.999998092651367 -52.39198684692383
v 16.799896240234375 4.799954414367676 -47.59198760986328
v 13.599907875061035 7.999942779541016 -52.39198684692383
v -13.600018501281738 7.999998092651367 -52.39198684692383
v -16.80006217956543 7.999998092651367 -55.591983795166016
v 13.599907875061035 4.799954414367676 -52.39198684692383
v 13.599907875061035 7.999942779541016 -52.39198684692383
v 13.599907875061035 4.799954414367676 -47.59198760986328
v 13.599907875061035 4.799954414367676 -47.59198760986328
v 13.599907875061035 7.999942779541016 -52.39198684692383
v 16.799896240234375 4.799954414367676 -47.59198760986328
v -13.600018501281738 7.999998092651367 -52.39198684692383
v -16.80006217956543 7.999998092651367 -52.39198684692383
v -16.80006217956543 7.999998092651367 -55.591983795166016
v -13.60007381439209 4.799954414367676 -52.39198684692383
v 13.599907875061035 4.799954414367676 -52.39198684692383
v 13.599907875061035 4.799954414367676 -47.59198760986328
v -16.80006217956543 7.999998092651367 -52.39198684692383
v -13.600018501281738 7.999998092651367 -52.39198684692383
v -13.60007381439209 4.799954414367676 -47.59198760986328
v 16.799951553344727 7.999998092651367 -55.591983795166016
v -16.80006217956543 7.999998092651367 -55.591983795166016
v -16.799951553344727 -8.000053405761719 -55.591983795166016
v -13.60007381439209 4.799954414367676 -47.59198760986328
v -16.799951553344727 4.799954414367676 -47.59198760986328
v -16.80006217956543 7.999998092651367 -52.39198684692383
v -13.60007381439209 4.799954414367676 -47.59198760986328
v -16.80006217956543 -6.400086879730225 -50.791988372802734
v -16.80006217956543 7.999998092651367 -55.591983795166016
v -16.80006217956543 7.999998092651367 -52.39198684692383
v 16.800006866455078 -8.000053405761719 -55.591983795166016
v 16.799951553344727 7.999998092651367 -55.591983795166016
v -16.799951553344727 -8.000053405761719 -55.591983795166016
v -16.80006217956543 -6.400086879730225 -50.791988372802734
v -16.80006217956543 7.999998092651367 -52.39198684692383
v -16.799951553344727 4.799954414367676 -47.59198760986328
v 16.799896240234375 4.799954414367676 -47.59198760986328
v 16.799896240234375 4.799954414367676 -4.391999244689941
v -16.80006217956543 -6.400086879730225 -50.791988372802734
v -16.799951553344727 -8.000053405761719 -55.591983795166016
v -16.80006217956543 7.999998092651367 -55.591983795166016
v 13.599907875061035 4.799954414367676 -47.59198760986328
v 16.799896240234375 4.799954414367676 -4.391999244689941
v -13.60007381439209 4.799954414367676 -47.59198760986328
v -16.799951553344727 4.799954414367676 -4.391999244689941
v -16.799951553344727 4.799954414367676 -47.59198760986328
v -16.80006217956543 -6.400086879730225 -50.791988372802734
v -16.799951553344727 -8.000053405761719 -52.39198684692383
v -16.799951553344727 -8.000053405761719 -55.591983795166016
v -16.80006217956543 -6.400086879730225 -50.791988372802734
v -16.799951553344727 4.799954414367676 -47.59198760986328
v -16.799951553344727 4.799954414367676 -4.391999244689941
v 16.799896240234375 4.799954414367676 -4.391999244689941
v -16.799951553344727 4.799954414367676 -4.391999244689941
v -13.60007381439209 4.799954414367676 -47.59198760986328
v -16.80006217956543 -6.400086879730225 -50.791988372802734
v -16.799951553344727 4.799954414367676 -4.391999244689941
v -16.80006217956543 -1.6000217199325562 3.607999086380005
v 3.1999881267547607 3.9425201416015625 -4.391999244689941
v 3.1999881267547607 3.9425201416015625 50.66682434082031
v -0.00005521504863281734 4.799954414367676 -4.391999244689941
v -0.00005521504863281734 4.799954414367676 -4.391999244689941
v -0.00005521504863281734 4.799954414367676 50.66682434082031
v -3.2000985145568848 3.9425201416015625 -4.391999244689941
v -3.2000985145568848 3.9425201416015625 -4.391999244689941
v -3.2000985145568848 3.9425201416015625 50.66682434082031
v -5.542707443237305 1.5999664068222046 -4.391999244689941
v -16.80006217956543 -1.6000217199325562 3.607999086380005
v -16.80006217956543 -6.400086879730225 52.26681900024414
v -16.80006217956543 -6.400086879730225 -50.791988372802734
v -16.80006217956543 -1.6000217199325562 3.607999086380005
v 16.799951553344727 -1.6000217199325562 3.607999086380005
v 16.799951553344727 -1.6000217199325562 52.26681900024414
v 3.1999881267547607 3.9425201416015625 50.66682434082031
v -0.00005521504863281734 4.799954414367676 50.66682434082031
v -0.00005521504863281734 4.799954414367676 -4.391999244689941
v -0.00005521504863281734 4.799954414367676 50.66682434082031
v -3.2000985145568848 3.9425201416015625 50.66682434082031
v -3.2000985145568848 3.9425201416015625 -4.391999244689941
v -3.2000985145568848 3.9425201416015625 50.66682434082031
v -5.542707443237305 1.5999664068222046 50.66682434082031
v -5.542707443237305 1.5999664068222046 -4.391999244689941
v -5.542707443237305 1.5999664068222046 -4.391999244689941
v -5.542707443237305 1.5999664068222046 50.66682434082031
v -6.400031566619873 -1.6000217199325562 50.66682434082031
v -16.80006217956543 -1.6000217199325562 52.26681900024414
v -16.80006217956543 -1.6000217199325562 3.607999086380005
v -16.80006217956543 -1.6000217199325562 52.26681900024414
v -16.80006217956543 -6.400086879730225 52.26681900024414
vt 0.23872002959251404 0.08223158121109009
vt 0.2395278960466385 0.08155113458633423
vt 0.2396787703037262 0.08194643259048462
vt 0.23872002959251404 0.08223158121109009
vt 0.22937101125717163 0.08456778526306152
vt 0.2395278960466385 0.08155113458633423
vt 0.23872002959251404 0.08223158121109009
vt 0.2396787703037262 0.08194643259048462
vt 0.23819783329963684 0.08241140842437744
vt 0.23872002959251404 0.08223158121109009
vt 0.23050528764724731 0.08467453718185425
vt 0.22937101125717163 0.08456778526306152
vt 0.23701021075248718 0.08210456371307373
vt 0.23872002959251404 0.08223158121109009
vt 0.2372392863035202 0.08269649744033813
vt 0.2372392863035202 0.08269649744033813
vt 0.23872002959251404 0.08223158121109009
vt 0.23819783329963684 0.08241140842437744
vt 0.23050528764724731 0.08467453718185425
vt 0.22953110933303833 0.08496427536010742
vt 0.22937101125717163 0.08456778526306152
vt 0.22878631949424744 0.08454573154449463
vt 0.23701021075248718 0.08210456371307373
vt 0.2372392863035202 0.08269649744033813
vt 0.22953110933303833 0.08496427536010742
vt 0.23050528764724731 0.08467453718185425
vt 0.22902654111385345 0.08513903617858887
vt 0.2395278960466385 0.08155113458633423
vt 0.22937101125717163 0.08456778526306152
vt 0.22077727317810059 0.08392375707626343
vt 0.22902654111385345 0.08513903617858887
vt 0.22805257141590118 0.08542871475219727
vt 0.22953110933303833 0.08496427536010742
vt 0.22902654111385345 0.08513903617858887
vt 0.22188380360603333 0.08458220958709717
vt 0.22937101125717163 0.08456778526306152
vt 0.22953110933303833 0.08496427536010742
vt 0.23099060356616974 0.0809183120727539
vt 0.2395278960466385 0.08155113458633423
vt 0.22077727317810059 0.08392375707626343
vt 0.22188380360603333 0.08458220958709717
vt 0.22953110933303833 0.08496427536010742
vt 0.22805257141590118 0.08542871475219727
vt 0.23819783329963684 0.08241140842437744
vt 0.24022459983825684 0.08767670392990112
vt 0.22188380360603333 0.08458220958709717
vt 0.22077727317810059 0.08392375707626343
vt 0.22937101125717163 0.08456778526306152
vt 0.2372392863035202 0.08269649744033813
vt 0.24022459983825684 0.08767670392990112
vt 0.22902654111385345 0.08513903617858887
vt 0.23020172119140625 0.0907089114189148
vt 0.22805257141590118 0.08542871475219727
vt 0.22188380360603333 0.08458220958709717
vt 0.22094371914863586 0.08432000875473022
vt 0.22077727317810059 0.08392375707626343
vt 0.22188380360603333 0.08458220958709717
vt 0.22805257141590118 0.08542871475219727
vt 0.23020172119140625 0.0907089114189148
vt 0.24022459983825684 0.08767670392990112
vt 0.23020172119140625 0.0907089114189148
vt 0.22902654111385345 0.08513903617858887
vt 0.22188380360603333 0.08458220958709717
vt 0.23020172119140625 0.0907089114189148
vt 0.2272024005651474 0.09141534566879272
vt 0.23573485016822815 0.08886325359344482
vt 0.23832517862319946 0.09542667865753174
vt 0.23523496091365814 0.08918619155883789
vt 0.23523496091365814 0.08918619155883789
vt 0.23783409595489502 0.09575146436691284
vt 0.233825221657753 0.08944070339202881
vt 0.233825221657753 0.08944070339202881
vt 0.23644444346427917 0.09600740671157837
vt 0.23188303411006927 0.0895581841468811
vt 0.2272024005651474 0.09141534566879272
vt 0.22708550095558167 0.09701526165008545
vt 0.22188380360603333 0.08458220958709717
vt 0.2272024005651474 0.09141534566879272
vt 0.23722490668296814 0.08838498592376709
vt 0.2394869476556778 0.09416502714157104
vt 0.23832517862319946 0.09542667865753174
vt 0.23783409595489502 0.09575146436691284
vt 0.23523496091365814 0.08918619155883789
vt 0.23783409595489502 0.09575146436691284
vt 0.23644444346427917 0.09600740671157837
vt 0.233825221657753 0.08944070339202881
vt 0.23644444346427917 0.09600740671157837
vt 0.23452827334403992 0.0961255431175232
vt 0.23188303411006927 0.0895581841468811
vt 0.23188303411006927 0.0895581841468811
vt 0.23452827334403992 0.0961255431175232
vt 0.23260098695755005 0.09607398509979248
vt 0.2295987755060196 0.09721052646636963
vt 0.2272024005651474 0.09141534566879272
vt 0.2295987755060196 0.09721052646636963
vt 0.22708550095558167 0.09701526165008545
vn -0.000017254486010642722 1 -0
vn -0.000017254486010642722 1 -0
vn -0.000017254486010642722 1 -0
vn 0 1 0.000017188871424878016
vn 0 1 0.000017188871424878016
vn 0 1 0.000017188871424878016
vn -0.00001441898348275572 0.832046627998352 0.5547055602073669
vn -0.00001441898348275572 0.832046627998352 0.5547055602073669
vn -0.00001441898348275572 0.832046627998352 0.5547055602073669
vn 0.0000020299726202210877 1 -0.0000022955002805247204
vn 0.0000020299726202210877 1 -0.0000022955002805247204
vn 0.0000020299726202210877 1 -0.0000022955002805247204
vn -1 -0 -0
vn -1 -0 -0
vn -1 -0 -0
vn 0 0.8320510983467102 0.5546988844871521
vn 0 0.8320510983467102 0.5546988844871521
vn 0 0.8320510983467102 0.5546988844871521
vn 0 1 -0
vn 0 1 -0
vn 0 1 -0
vn 0 1 -0
vn 0 1 -0
vn 0 1 -0
vn 0 0.832046627998352 0.5547055602073669
vn 0 0.832046627998352 0.5547055602073669
vn 0 0.832046627998352 0.5547055602073669
vn 0 -0 -1
vn 0 -0 -1
vn 0 -0 -1
vn 0 1 -0
vn 0 0.8320469260215759 0.5547052621841431
vn 0 0.8320469260215759 0.5547052621841431
vn 0 0.8320469260215759 0.5547052621841431
vn -1 -0.00000027099449084744265 -0
vn -1 -0.00000027099449084744265 -0
vn -1 -0.00000027099449084744265 -0
vn 0 -0 -0.9999999403953552
vn 0 -0 -0.9999999403953552
vn 0 -0 -0.9999999403953552
vn -1 0.0000028291799480939517 0.00002484678589098621
vn -1 0.0000028291799480939517 0.00002484678589098621
vn -1 0.0000028291799480939517 0.00002484678589098621
vn 0 1 -0
vn 0 1 -0
vn -1 -0.000006829066478530876 -0.000020705689166788943
vn -1 -0.000006829066478530876 -0.000020705689166788943
vn -1 -0.000006829066478530876 -0.000020705689166788943
vn 0 1 0.000000013284116029410598
vn 0 1 0.000000013284116029410598
vn 0 1 0.000000013284116029410598
vn 0 1 -0
vn 0 1 -0
vn -0.9999999403953552 -0.00006951185059733689 -0
vn -0.9999999403953552 -0.00006951185059733689 -0
vn -0.9999999403953552 -0.00006951185059733689 -0
vn -1 0.000009910665539791808 -0
vn -1 0.000009910665539791808 -0
vn -1 0.000009910665539791808 -0
vn 0 1 -0.000000017206158275939742
vn 0 1 -0.000000017206158275939742
vn 0 1 -0.000000017206158275939742
vn -1 0.00001576444810780231 -0.0000013712564168599783
vn -1 0.00001576444810780231 -0.0000013712564168599783
vn -1 0.00001576444810780231 -0.0000013712564168599783
vn 0.2588149309158325 0.9659268856048584 -0
vn 0.2588149309158325 0.9659268856048584 -0
vn 0.2588149309158325 0.9659268856048584 -0
vn -0.2588149607181549 0.9659269452095032 -0
vn -0.2588149607181549 0.9659269452095032 -0
vn -0.2588149607181549 0.9659269452095032 -0
vn -0.7070984840393066 0.707115113735199 -0
vn -0.7070984840393066 0.707115113735199 -0
vn -0.7070984840393066 0.707115113735199 -0
vn -1 -0.0000004038895440316992 -0
vn -1 -0.0000004038895440316992 -0
vn -1 -0.0000004038895440316992 -0
vn 0 0.9999999403953552 -0
vn 0 0.9999999403953552 -0
vn 0 0.9999999403953552 -0
vn 0.2588149607181549 0.9659269452095032 -0
vn 0.2588149607181549 0.9659269452095032 -0
vn 0.2588149607181549 0.9659269452095032 -0
vn -0.2588149309158325 0.9659268856048584 -0
vn -0.2588149309158325 0.9659268856048584 -0
vn -0.2588149309158325 0.9659268856048584 -0
vn -0.7070984840393066 0.7071151733398438 -0
vn -0.7070984840393066 0.7071151733398438 -0
vn -0.7070984840393066 0.7071151733398438 -0
vn -0.9659342169761658 0.25878793001174927 -0
vn -0.9659342169761658 0.25878793001174927 -0
vn -0.9659342169761658 0.25878793001174927 -0
vn 0 0.9999999403953552 -0
vn -1 -0 -0
vn -1 -0 -0
vn -1 -0 -0
f 3/3/3 2/2/2 1/1/1
f 6/6/6 5/5/5 4/4/4
f 9/9/9 8/8/8 7/7/7
f 12/12/12 11/11/11 10/10/10
f 15/15/15 14/14/14 13/13/13
f 18/18/18 17/17/17 16/16/16
f 21/21/21 20/20/20 19/19/19
f 24/24/24 23/23/23 22/22/22
f 27/27/27 26/26/26 25/25/25
f 30/30/30 29/29/29 28/28/28
f 24/24/24 22/22/22 31/31/31
f 34/34/34 33/33/33 32/32/32
f 37/37/37 36/36/36 35/35/35
f 40/40/40 39/39/39 38/38/38
f 43/43/43 42/42/42 41/41/41
f 45/45/45 44/44/44 24/24/24
f 48/48/48 47/47/47 46/46/46
f 51/51/51 50/50/50 49/49/49
f 31/31/31 53/53/53 52/52/52
f 56/56/56 55/55/55 54/54/54
f 59/59/59 58/58/58 57/57/57
f 62/62/62 61/61/61 60/60/60
f 65/65/65 64/64/64 63/63/63
f 68/68/68 67/67/67 66/66/66
f 71/71/71 70/70/70 69/69/69
f 74/74/74 73/73/73 72/72/72
f 77/77/77 76/76/76 75/75/75
f 80/80/80 79/79/79 78/78/78
f 83/83/83 82/82/82 81/81/81
f 86/86/86 85/85/85 84/84/84
f 89/89/89 88/88/88 87/87/87
f 92/92/92 91/91/91 90/90/90
f 80/80/80 78/78/78 93/93/93
f 96/96/96 95/95/95 94/94/94
