# VPXTOOL table OBJ file
# VPXTOOL OBJ file
# numVerts: 30 numFaces: 30
o LM_inserts_L07_Layer3
v -16391.822265625 13328.845703125 3407.676025390625
v -12932.4921875 12941.6748046875 3393.291259765625
v -16406.994140625 13289.0078125 3408.98583984375
v -14326.2236328125 11672.5673828125 3393.29150390625
v -16406.994140625 13289.0078125 3408.98583984375
v -12932.4921875 12941.6748046875 3393.291259765625
v -12933.0556640625 12946.4990234375 3392.014892578125
v -12932.4921875 12941.6748046875 3393.291259765625
v -16391.822265625 13328.845703125 3407.676025390625
v -13802.0380859375 11226.0322265625 3388.804443359375
v -14326.2236328125 11672.5673828125 3393.29150390625
v -12932.4921875 12941.6748046875 3393.291259765625
v -13802.0380859375 11226.0322265625 3388.804443359375
v -12932.4921875 12941.6748046875 3393.291259765625
v -12570.4736328125 12637.671875 3390.736328125
v -13802.0380859375 11226.0322265625 3388.804443359375
v -12570.4736328125 12637.671875 3390.736328125
v -12204.080078125 12294.0224609375 3387.942626953125
v -13298.1396484375 10751.166015625 3384.200439453125
v -13802.0380859375 11226.0322265625 3388.804443359375
v -12204.080078125 12294.0224609375 3387.942626953125
v -13298.1396484375 10751.166015625 3384.200439453125
v -12204.080078125 12294.0224609375 3387.942626953125
v -11837.9169921875 11915.052734375 3384.94482421875
v -12820.87109375 10253.9404296875 3379.536865234375
v -13298.1396484375 10751.166015625 3384.200439453125
v -11837.9169921875 11915.052734375 3384.94482421875
v -12820.87109375 10253.9404296875 3379.536865234375
v -11837.9169921875 11915.052734375 3384.94482421875
v -11476.59375 11505.5263671875 3381.7802734375
vt 0.049940261989831924 0.012300729751586914
vt 0.04390944167971611 0.04012179374694824
vt 0.049242664128541946 0.012213587760925293
vt 0.023386511951684952 0.029840171337127686
vt 0.049242664128541946 0.012213587760925293
vt 0.04390944167971611 0.04012179374694824
vt 0.044022586196660995 0.040115535259246826
vt 0.04390944167971611 0.04012179374694824
vt 0.049940261989831924 0.012300729751586914
vt 0.016457075253129005 0.03417462110519409
vt 0.023386511951684952 0.029840171337127686
vt 0.04390944167971611 0.04012179374694824
vt 0.016457075253129005 0.03417462110519409
vt 0.04390944167971611 0.04012179374694824
vt 0.03899243101477623 0.04312783479690552
vt 0.016457075253129005 0.03417462110519409
vt 0.03899243101477623 0.04312783479690552
vt 0.0334835983812809 0.04615718126296997
vt 0.009179437533020973 0.038311898708343506
vt 0.016457075253129005 0.03417462110519409
vt 0.0334835983812809 0.04615718126296997
vt 0.009179437533020973 0.038311898708343506
vt 0.0334835983812809 0.04615718126296997
vt 0.027469269931316376 0.049166858196258545
vt 0.001658738823607564 0.04220008850097656
vt 0.009179437533020973 0.038311898708343506
vt 0.027469269931316376 0.049166858196258545
vt 0.001658738823607564 0.04220008850097656
vt 0.027469269931316376 0.049166858196258545
vt 0.0210409052670002 0.05211532115936279
vn 0.00751275010406971 0.030002258718013763 0.9995216727256775
vn 0.00751275010406971 0.030002258718013763 0.9995216727256775
vn 0.00751275010406971 0.030002258718013763 0.9995216727256775
vn 0.004070086404681206 -0.004469676408916712 0.999981701374054
vn 0.004070086404681206 -0.004469676408916712 0.999981701374054
vn 0.004070086404681206 -0.004469676408916712 0.999981701374054
vn 0.03304135426878929 0.2592743933200836 0.9652383327484131
vn 0.03304135426878929 0.2592743933200836 0.9652383327484131
vn 0.03304135426878929 0.2592743933200836 0.9652383327484131
vn 0.004423098638653755 -0.0048568760976195335 0.9999784231185913
vn 0.004423098638653755 -0.0048568760976195335 0.9999784231185913
vn 0.004423098638653755 -0.0048568760976195335 0.9999784231185913
vn 0.00341048208065331 -0.004343743436038494 0.9999848008155823
vn 0.00341048208065331 -0.004343743436038494 0.9999848008155823
vn 0.00341048208065331 -0.004343743436038494 0.9999848008155823
vn 0.0034860060550272465 -0.004411055240780115 0.9999842643737793
vn 0.0034860060550272465 -0.004411055240780115 0.9999842643737793
vn 0.0034860060550272465 -0.004411055240780115 0.9999842643737793
vn 0.0041070240549743176 -0.005337545648217201 0.9999773502349854
vn 0.0041070240549743176 -0.005337545648217201 0.9999773502349854
vn 0.0041070240549743176 -0.005337545648217201 0.9999773502349854
vn 0.0032741280738264322 -0.00474696746096015 0.9999833703041077
vn 0.0032741280738264322 -0.00474696746096015 0.9999833703041077
vn 0.0032741280738264322 -0.00474696746096015 0.9999833703041077
vn 0.003946373704820871 -0.005590785760432482 0.999976634979248
vn 0.003946373704820871 -0.005590785760432482 0.999976634979248
vn 0.003946373704820871 -0.005590785760432482 0.999976634979248
vn 0.0030335395131260157 -0.0050506326369941235 0.9999825358390808
vn 0.0030335395131260157 -0.0050506326369941235 0.9999825358390808
vn 0.0030335395131260157 -0.0050506326369941235 0.9999825358390808
f 3/3/3 2/2/2 1/1/1
f 6/6/6 5/5/5 4/4/4
f 9/9/9 8/8/8 7/7/7
f 12/12/12 11/11/11 10/10/10
f 15/15/15 14/14/14 13/13/13
f 18/18/18 17/17/17 16/16/16
f 21/21/21 20/20/20 19/19/19
f 24/24/24 23/23/23 22/22/22
f 27/27/27 26/26/26 25/25/25
f 30/30/30 29/29/29 28/28/28
