# VPXTOOL table OBJ file
# VPXTOOL OBJ file
# numVerts: 110 numFaces: 180
o LM_inserts_L13_PF
v 789.5678100585938 1199.74267578125 0.030000003054738045
v 789.5678100585938 1199.74267578125 35.32411575317383
v 789.5678100585938 1332.9024658203125 0.030000003054738045
v 658.2391357421875 1224.00439453125 0.030000003054738045
v 789.5678100585938 1199.74267578125 0.030000003054738045
v 789.5678100585938 1332.9024658203125 0.030000003054738045
v 852.4345703125 1332.9024658203125 0.030000003054738045
v 852.4345703125 1332.9024658203125 35.32411575317383
v 852.4344482421875 1199.74267578125 0.030000003054738045
v 789.5678100585938 1332.9024658203125 35.32411575317383
v 852.4344482421875 1199.74267578125 0.030000003054738045
v 864.880126953125 1326.64990234375 0.030000003054738045
v 852.4345703125 1332.9024658203125 0.030000003054738045
v 789.5678100585938 1332.9024658203125 35.32411575317383
v 852.4345703125 1332.9024658203125 35.32411575317383
v 852.4345703125 1332.9024658203125 0.030000003054738045
v 633.256591796875 1313.65576171875 0.030000003054738045
v 658.2391357421875 1224.00439453125 0.030000003054738045
v 789.5678100585938 1332.9024658203125 0.030000003054738045
v 789.5678100585938 1332.9024658203125 0.030000003054738045
v 632.570068359375 1315.5743408203125 0.030000003054738045
v 633.256591796875 1313.65576171875 0.030000003054738045
v 789.5678100585938 1332.9024658203125 0.030000003054738045
v 631.7255249023438 1317.0985107421875 0.030000003054738045
v 632.570068359375 1315.5743408203125 0.030000003054738045
v 789.5678100585938 1332.9024658203125 0.030000003054738045
v 630.7647094726563 1318.271240234375 0.030000003054738045
v 631.7255249023438 1317.0985107421875 0.030000003054738045
v 789.5678100585938 1332.9024658203125 0.030000003054738045
v 629.7289428710938 1319.135986328125 0.030000003054738045
v 630.7647094726563 1318.271240234375 0.030000003054738045
v 789.5678100585938 1332.9024658203125 0.030000003054738045
v 628.6597900390625 1319.736328125 0.030000003054738045
v 629.7289428710938 1319.135986328125 0.030000003054738045
v 789.5678100585938 1332.9024658203125 0.030000003054738045
v 627.5986328125 1320.115478515625 0.030000003054738045
v 628.6597900390625 1319.736328125 0.030000003054738045
v 789.5678100585938 1332.9024658203125 0.030000003054738045
v 626.5867919921875 1320.3172607421875 0.030000003054738045
v 627.5986328125 1320.115478515625 0.030000003054738045
v 789.5678100585938 1332.9024658203125 0.030000003054738045
v 877.3258056640625 1453.556884765625 0.030000003054738045
v 864.880126953125 1326.64990234375 0.030000003054738045
v 881.4437866210938 1332.1512451171875 0.030000003054738045
v 877.3258056640625 1453.556884765625 0.030000003054738045
v 809.871826171875 1443.16455078125 0.030000003054738045
v 667.263427734375 1432.1527099609375 0.030000003054738045
v 626.5867919921875 1320.3172607421875 0.030000003054738045
v 864.8802490234375 1426.5196533203125 0.030000003054738045
v 864.8802490234375 1443.16455078125 0.030000003054738045
v 857.0219116210938 1443.16455078125 0.030000003054738045
v 841.30517578125 1443.16455078125 0.030000003054738045
v 809.871826171875 1443.16455078125 0.030000003054738045
v 789.4992065429688 1441.5914306640625 0.030000003054738045
v 789.5678100585938 1332.9024658203125 0.030000003054738045
v 748.75390625 1438.4451904296875 0.030000003054738045
v 748.75390625 1438.4451904296875 0.030000003054738045
v 667.263427734375 1432.1527099609375 0.030000003054738045
v 789.5678100585938 1332.9024658203125 0.030000003054738045
v 877.3258056640625 1453.556884765625 0.030000003054738045
v 881.4437866210938 1332.1512451171875 0.030000003054738045
v 891.8305053710938 1519.7613525390625 0.030000003054738045
v 864.8802490234375 1426.5196533203125 0.030000003054738045
v 877.325927734375 1520.1368408203125 0.030000003054738045
v 864.8802490234375 1443.16455078125 0.030000003054738045
v 877.3258056640625 1453.556884765625 0.030000003054738045
v 877.325927734375 1520.1368408203125 0.030000003054738045
v 864.8802490234375 1426.5196533203125 0.030000003054738045
v 861.6092529296875 1553.4267578125 0.030000003054738045
v 830.1758422851563 1553.4267578125 0.030000003054738045
v 789.4992065429688 1441.5914306640625 0.030000003054738045
v 809.871826171875 1443.16455078125 0.030000003054738045
v 789.4306640625 1550.280517578125 0.030000003054738045
v 789.4992065429688 1441.5914306640625 0.030000003054738045
v 789.4306640625 1550.280517578125 0.030000003054738045
v 748.75390625 1438.4451904296875 0.030000003054738045
v 707.9400634765625 1543.988037109375 0.030000003054738045
v 877.325927734375 1520.1368408203125 0.030000003054738045
v 877.325927734375 1553.4267578125 0.030000003054738045
v 889.771484375 1580.464111328125 0.030000003054738045
v 877.3258056640625 1453.556884765625 0.030000003054738045
v 891.8305053710938 1519.7613525390625 0.030000003054738045
v 877.3258056640625 1453.556884765625 0.030000003054738045
v 889.771484375 1580.464111328125 0.030000003054738045
v 877.325927734375 1520.1368408203125 0.030000003054738045
v 789.4306640625 1550.280517578125 0.030000003054738045
v 707.9400634765625 1543.988037109375 0.030000003054738045
v 748.75390625 1438.4451904296875 0.030000003054738045
v 707.4797973632813 1544.0218505859375 0.030000003054738045
v 877.325927734375 1520.1368408203125 0.030000003054738045
v 889.7716064453125 1613.754150390625 0.030000003054738045
v 877.325927734375 1553.4267578125 0.030000003054738045
v 889.771484375 1580.464111328125 0.030000003054738045
v 889.7716064453125 1613.754150390625 0.030000003054738045
v 877.325927734375 1520.1368408203125 0.030000003054738045
v 866.196533203125 1663.6890869140625 0.030000003054738045
v 850.4799194335938 1663.6890869140625 0.030000003054738045
v 789.4306640625 1550.280517578125 0.030000003054738045
v 830.1758422851563 1553.4267578125 0.030000003054738045
v 809.734619140625 1660.542724609375 0.030000003054738045
v 748.6167602539063 1655.8233642578125 0.030000003054738045
v 748.3866577148438 1655.8402099609375 0.030000003054738045
v 889.7716064453125 1613.754150390625 0.030000003054738045
v 902.21728515625 1707.371337890625 0.030000003054738045
v 889.7716064453125 1663.6890869140625 0.030000003054738045
v 874.054931640625 1663.6890869140625 0.030000003054738045
v 809.734619140625 1660.542724609375 0.030000003054738045
v 789.362060546875 1658.9696044921875 0.030000003054738045
v 789.362060546875 1658.9696044921875 0.030000003054738045
v 748.6167602539063 1655.8233642578125 0.030000003054738045
vt 0.5088551640510559 0.4478057026863098
vt 0.5053350925445557 0.4499398469924927
vt 0.5254908800125122 0.4552266597747803
vt 0.34006261825561523 0.4491140842437744
vt 0.5088551640510559 0.4478057026863098
vt 0.5254908800125122 0.4552266597747803
vt 0.6104428172111511 0.4552266597747803
vt 0.6058660745620728 0.457380473613739
vt 0.5904717445373535 0.4478057026863098
vt 0.5216785073280334 0.457380473613739
vt 0.5904717445373535 0.4478057026863098
vt 0.626254141330719 0.4548646807670593
vt 0.6104428172111511 0.4552266597747803
vt 0.5216785073280334 0.457380473613739
vt 0.6058660745620728 0.457380473613739
vt 0.6104428172111511 0.4552266597747803
vt 0.3130195438861847 0.4541167616844177
vt 0.34006261825561523 0.4491140842437744
vt 0.5254908800125122 0.4552266597747803
vt 0.5254908800125122 0.4552266597747803
vt 0.3122204542160034 0.45422685146331787
vt 0.3130195438861847 0.4541167616844177
vt 0.5254908800125122 0.4552266597747803
vt 0.3111826777458191 0.45431435108184814
vt 0.3122204542160034 0.45422685146331787
vt 0.5254908800125122 0.4552266597747803
vt 0.3099652826786041 0.45438170433044434
vt 0.3111826777458191 0.45431435108184814
vt 0.5254908800125122 0.4552266597747803
vt 0.3086265027523041 0.4544314742088318
vt 0.3099652826786041 0.45438170433044434
vt 0.5254908800125122 0.4552266597747803
vt 0.30722543597221375 0.45446598529815674
vt 0.3086265027523041 0.4544314742088318
vt 0.5254908800125122 0.4552266597747803
vt 0.3058209717273712 0.45448780059814453
vt 0.30722543597221375 0.45446598529815674
vt 0.5254908800125122 0.4552266597747803
vt 0.30447152256965637 0.45449942350387573
vt 0.3058209717273712 0.45448780059814453
vt 0.5254908800125122 0.4552266597747803
vt 0.6649309396743774 0.4624946117401123
vt 0.626254141330719 0.4548646807670593
vt 0.6495167016983032 0.45518308877944946
vt 0.6649309396743774 0.4624946117401123
vt 0.5687288641929626 0.46184664964675903
vt 0.3683403432369232 0.46116477251052856
vt 0.30447152256965637 0.45449942350387573
vt 0.6428046822547913 0.46081775426864624
vt 0.6456652283668518 0.46184664964675903
vt 0.6346743106842041 0.46184664964675903
vt 0.6126924157142639 0.46184664964675903
vt 0.5687288641929626 0.46184664964675903
vt 0.5400161147117615 0.46174895763397217
vt 0.5254908800125122 0.4552266597747803
vt 0.48267662525177 0.46155381202697754
vt 0.48267662525177 0.46155381202697754
vt 0.3683403432369232 0.46116477251052856
vt 0.5254908800125122 0.4552266597747803
vt 0.6649309396743774 0.4624946117401123
vt 0.6495167016983032 0.45518308877944946
vt 0.6978614926338196 0.4667251706123352
vt 0.6428046822547913 0.46081775426864624
vt 0.6771395206451416 0.46674972772598267
vt 0.6456652283668518 0.46184664964675903
vt 0.6649309396743774 0.4624946117401123
vt 0.6771395206451416 0.46674972772598267
vt 0.6428046822547913 0.46081775426864624
vt 0.6606647372245789 0.46894723176956177
vt 0.6151055097579956 0.46894723176956177
vt 0.5400161147117615 0.46174895763397217
vt 0.5687288641929626 0.46184664964675903
vt 0.555579662322998 0.46873748302459717
vt 0.5400161147117615 0.46174895763397217
vt 0.555579662322998 0.46873748302459717
vt 0.48267662525177 0.46155381202697754
vt 0.43689683079719543 0.468319296836853
vt 0.6771395206451416 0.46674972772598267
vt 0.6834443211555481 0.46894723176956177
vt 0.706868052482605 0.4707677364349365
vt 0.6649309396743774 0.4624946117401123
vt 0.6978614926338196 0.4667251706123352
vt 0.6649309396743774 0.4624946117401123
vt 0.706868052482605 0.4707677364349365
vt 0.6771395206451416 0.46674972772598267
vt 0.555579662322998 0.46873748302459717
vt 0.43689683079719543 0.468319296836853
vt 0.48267662525177 0.46155381202697754
vt 0.4362354874610901 0.4683215022087097
vt 0.6771395206451416 0.46674972772598267
vt 0.7136331796646118 0.4730546474456787
vt 0.6834443211555481 0.46894723176956177
vt 0.706868052482605 0.4707677364349365
vt 0.7136331796646118 0.4730546474456787
vt 0.6771395206451416 0.46674972772598267
vt 0.6886127591133118 0.4765825867652893
vt 0.6649753451347351 0.4765825867652893
vt 0.555579662322998 0.46873748302459717
vt 0.6151055097579956 0.46894723176956177
vt 0.6031564474105835 0.47635674476623535
vt 0.510676920413971 0.47601890563964844
vt 0.5103340744972229 0.4760201573371887
vt 0.7136331796646118 0.4730546474456787
vt 0.7524958848953247 0.47976893186569214
vt 0.7240689992904663 0.4765825867652893
vt 0.7004314661026001 0.4765825867652893
vt 0.6031564474105835 0.47635674476623535
vt 0.5722968578338623 0.4762440323829651
vt 0.5722968578338623 0.4762440323829651
vt 0.510676920413971 0.47601890563964844
vn 1 -0 -0
vn 1 -0 -0
vn 1 -0 -0
vn -0.00000000000557869028749991 -0 -1
vn -0.00000000000557869028749991 -0 -1
vn -0.00000000000557869028749991 -0 -1
vn -1 0.0000013604096693597967 -0
vn -1 0.0000013604096693597967 -0
vn -1 0.0000013604096693597967 -0
vn 1 -0 -0
vn 0 -0 -1
vn 0 -0 -1
vn 0 -0 -1
vn 0 -1 -0
vn 0 -1 -0
vn 0 -1 -0
vn 0 -0 -1
vn 0 -0 -1
vn 0 -0 -1
vn 0 -1 -0
vn 0.00000000019473396506430873 -0 -1
vn 0.00000000019473396506430873 -0 -1
vn 0.00000000019473396506430873 -0 -1
vn -0.0000000001681012412602101 -0 -1
vn -0.0000000001681012412602101 -0 -1
vn -0.0000000001681012412602101 -0 -1
vn 0.000000000030447699916891224 -0 -1
vn 0.000000000030447699916891224 -0 -1
vn 0.000000000030447699916891224 -0 -1
vn -0.000000000239889469400012 -0 -1
vn -0.000000000239889469400012 -0 -1
vn -0.000000000239889469400012 -0 -1
vn 0.00000000011017513984468152 -0 -1
vn 0.00000000011017513984468152 -0 -1
vn 0.00000000011017513984468152 -0 -1
vn 0.000000000020334803285670944 -0 -1
vn 0.000000000020334803285670944 -0 -1
vn 0.000000000020334803285670944 -0 -1
vn -0.00000000006685589581945095 -0 -0.9999999403953552
vn -0.00000000006685589581945095 -0 -0.9999999403953552
vn -0.00000000006685589581945095 -0 -0.9999999403953552
vn 0.0000000003837916651150408 -0 -1
vn 0.0000000003837916651150408 -0 -1
vn 0.0000000003837916651150408 -0 -1
vn 0 -0 -1
vn 0 -0 -1
vn 0 -0 -1
vn 0 -0 -1
vn 0 -0 -1
vn 0 -0 -1
vn 0 -0 -1
vn 0 -0 -1
vn 0.00000000003028892414658202 -0 -1
vn 0.00000000003028892414658202 -0 -1
vn 0.00000000003028892414658202 -0 -1
vn 0.00000000003028892414658202 -0 -1
vn -0.00000000001376769271504985 -0 -1
vn -0.00000000001376769271504985 -0 -1
vn -0.00000000001376769271504985 -0 -1
vn -0.00000000038379122102583096 -0 -1
vn -0.00000000038379122102583096 -0 -1
vn -0.00000000038379122102583096 -0 -1
vn 0.000000001883742939412514 -0 -1
vn 0.000000001883742939412514 -0 -1
vn 0.000000001883742939412514 -0 -1
vn -0.0000000004709425072135787 -0 -1
vn -0.0000000004709425072135787 -0 -1
vn -0.0000000004709425072135787 -0 -1
vn 0 -0 -1
vn 0 -0 -1
vn -0.00000000003028910108837657 -0 -1
vn -0.00000000003028910108837657 -0 -1
vn -0.00000000003028910108837657 -0 -1
vn 0 -0 -1
vn 0 -0 -1
vn 0 -0 -1
vn 0 -0 -1
vn 0 -0 -1
vn 0 -0 -1
vn -0.0000000007675833302300816 -0 -1
vn -0.0000000007675833302300816 -0 -1
vn -0.0000000007675833302300816 -0 -1
vn 0.0000000009418860136278795 -0 -1
vn 0.0000000009418860136278795 -0 -1
vn 0.0000000009418860136278795 -0 -1
vn 0.00000000003028883741040822 -0 -1
vn 0.00000000003028883741040822 -0 -1
vn 0.00000000003028883741040822 -0 -1
vn 0 -0 -1
vn 0.000000000941871469706257 -0 -1
vn 0.000000000941871469706257 -0 -1
vn 0.000000000941871469706257 -0 -1
vn -0.0000000009418957835904962 -0 -1
vn -0.0000000009418957835904962 -0 -1
vn -0.0000000009418957835904962 -0 -1
vn 0 -0 -1
vn 0 -0 -1
vn -0.00000000003028901088275582 -0 -1
vn -0.00000000003028901088275582 -0 -1
vn -0.00000000003028901088275582 -0 -1
vn 0 -0 -1
vn 0 -0 -1
vn 0 -0 -1
vn 0 -0 -1
vn 0 -0 -1
vn 0 -0 -1
vn 0 -0 -1
vn 0 -0 -1
vn 0.00000000003028883741040822 -0 -1
vn 0.00000000003028883741040822 -0 -1
f 3/3/3 2/2/2 1/1/1
f 6/6/6 5/5/5 4/4/4
f 9/9/9 8/8/8 7/7/7
f 3/3/3 10/10/10 2/2/2
f 13/13/13 12/12/12 11/11/11
f 16/16/16 15/15/15 14/14/14
f 19/19/19 18/18/18 17/17/17
f 16/16/16 14/14/14 20/20/20
f 23/23/23 22/22/22 21/21/21
f 26/26/26 25/25/25 24/24/24
f 29/29/29 28/28/28 27/27/27
f 32/32/32 31/31/31 30/30/30
f 35/35/35 34/34/34 33/33/33
f 38/38/38 37/37/37 36/36/36
f 41/41/41 40/40/40 39/39/39
f 44/44/44 43/43/43 42/42/42
f 13/13/13 45/45/45 12/12/12
f 13/13/13 19/19/19 46/46/46
f 19/19/19 48/48/48 47/47/47
f 13/13/13 50/50/50 49/49/49
f 49/49/49 45/45/45 13/13/13
f 13/13/13 51/51/51 50/50/50
f 13/13/13 52/52/52 51/51/51
f 13/13/13 46/46/46 52/52/52
f 55/55/55 54/54/54 53/53/53
f 55/55/55 56/56/56 54/54/54
f 59/59/59 58/58/58 57/57/57
f 62/62/62 61/61/61 60/60/60
f 65/65/65 64/64/64 63/63/63
f 68/68/68 67/67/67 66/66/66
f 69/69/69 50/50/50 51/51/51
f 52/52/52 69/69/69 51/51/51
f 52/52/52 46/46/46 70/70/70
f 73/73/73 72/72/72 71/71/71
f 76/76/76 75/75/75 74/74/74
f 76/76/76 47/47/47 77/77/77
f 50/50/50 79/79/79 78/78/78
f 82/82/82 81/81/81 80/80/80
f 85/85/85 84/84/84 83/83/83
f 69/69/69 79/79/79 50/50/50
f 52/52/52 70/70/70 69/69/69
f 75/75/75 70/70/70 46/46/46
f 88/88/88 87/87/87 86/86/86
f 89/89/89 77/77/77 47/47/47
f 92/92/92 91/91/91 90/90/90
f 95/95/95 94/94/94 93/93/93
f 79/79/79 69/69/69 96/96/96
f 69/69/69 70/70/70 97/97/97
f 100/100/100 99/99/99 98/98/98
f 75/75/75 77/77/77 101/101/101
f 77/77/77 89/89/89 102/102/102
f 79/79/79 104/104/104 103/103/103
f 106/106/106 105/105/105 79/79/79
f 79/79/79 96/96/96 106/106/106
f 69/69/69 97/97/97 96/96/96
f 107/107/107 97/97/97 70/70/70
f 105/105/105 104/104/104 79/79/79
f 107/107/107 75/75/75 108/108/108
f 86/86/86 110/110/110 109/109/109
f 102/102/102 101/101/101 77/77/77
