# VPXTOOL table OBJ file
# VPXTOOL OBJ file
# numVerts: 74 numFaces: 99
o LM_inserts_L16_PF
v 822.2601318359375 978.3242797851563 0.030000003054738045
v 792.0858154296875 756.90576171875 0.030000003054738045
v 851.8890991210938 773.9228515625 0.030000003054738045
v 693.5289306640625 830.762939453125 0.030000003054738045
v 792.0858154296875 756.90576171875 0.030000003054738045
v 822.2601318359375 978.3242797851563 0.030000003054738045
v 693.5289306640625 830.762939453125 0.030000003054738045
v 594.9720458984375 904.6201782226563 0.030000003054738045
v 586.8759765625 858.5521240234375 0.030000003054738045
v 852.1618041992188 986.8328247070313 0.030000003054738045
v 822.2601318359375 978.3242797851563 0.030000003054738045
v 851.8890991210938 773.9228515625 0.030000003054738045
v 693.5289306640625 830.762939453125 0.030000003054738045
v 708.6161499023438 941.4721069335938 0.030000003054738045
v 594.9720458984375 904.6201782226563 0.030000003054738045
v 484.2710876464844 909.375244140625 0.030000003054738045
v 586.8759765625 858.5521240234375 0.030000003054738045
v 594.9720458984375 904.6201782226563 0.030000003054738045
v 708.6161499023438 941.4721069335938 0.030000003054738045
v 693.5289306640625 830.762939453125 0.030000003054738045
v 822.2601318359375 978.3242797851563 0.030000003054738045
v 488.3191223144531 932.4092407226563 0.030000003054738045
v 484.2710876464844 909.375244140625 0.030000003054738045
v 594.9720458984375 904.6201782226563 0.030000003054738045
v 496.4151916503906 978.4773559570313 0.030000003054738045
v 488.3191223144531 932.4092407226563 0.030000003054738045
v 708.6161499023438 941.4721069335938 0.030000003054738045
v 723.7031860351563 1052.181396484375 0.030000003054738045
v 496.4151916503906 978.4773559570313 0.030000003054738045
v 594.9720458984375 904.6201782226563 0.030000003054738045
v 625.1463012695313 1126.03857421875 0.030000003054738045
v 852.4344482421875 1199.74267578125 0.030000003054738045
v 852.1618041992188 986.8328247070313 0.030000003054738045
v 860.6702880859375 956.9310913085938 0.030000003054738045
v 723.7031860351563 1052.181396484375 0.030000003054738045
v 625.1463012695313 1126.03857421875 0.030000003054738045
v 594.9720458984375 904.6201782226563 0.030000003054738045
v 852.4344482421875 1199.74267578125 0.030000003054738045
v 852.1618041992188 986.8328247070313 0.030000003054738045
v 723.7031860351563 1052.181396484375 0.030000003054738045
v 822.2601318359375 978.3242797851563 0.030000003054738045
v 852.4344482421875 1199.74267578125 0.030000003054738045
v 511.50225830078125 1089.1866455078125 0.030000003054738045
v 625.1463012695313 1126.03857421875 0.030000003054738045
v 852.4344482421875 1199.74267578125 0.030000003054738045
v 860.6702880859375 956.9310913085938 0.030000003054738045
v 871.0570068359375 1144.5411376953125 0.030000003054738045
v 511.6057434082031 1090.2003173828125 0.030000003054738045
v 511.65753173828125 1090.7071533203125 0.030000003054738045
v 738.7904052734375 1162.890625 0.030000003054738045
v 625.1463012695313 1126.03857421875 0.030000003054738045
v 625.2498168945313 1127.0523681640625 0.030000003054738045
v 511.65753173828125 1090.7071533203125 0.030000003054738045
v 625.2498168945313 1127.0523681640625 0.030000003054738045
v 738.7904052734375 1162.890625 0.030000003054738045
v 738.8421020507813 1163.3975830078125 0.030000003054738045
v 625.2498168945313 1127.0523681640625 0.030000003054738045
v 738.8421020507813 1163.3975830078125 0.030000003054738045
v 852.4344482421875 1199.74267578125 0.030000003054738045
v 852.4344482421875 1199.74267578125 35.32411575317383
v 789.5678100585938 1199.74267578125 0.030000003054738045
v 789.5678100585938 1199.74267578125 0.030000003054738045
v 881.4437866210938 1332.1512451171875 0.030000003054738045
v 852.4345703125 1332.9024658203125 35.32411575317383
v 852.4344482421875 1199.74267578125 35.32411575317383
v 852.4344482421875 1199.74267578125 0.030000003054738045
v 852.4345703125 1332.9024658203125 0.030000003054738045
v 852.4345703125 1332.9024658203125 35.32411575317383
v 852.4344482421875 1199.74267578125 0.030000003054738045
v 864.880126953125 1326.64990234375 0.030000003054738045
v 852.4344482421875 1199.74267578125 0.030000003054738045
v 881.4437866210938 1332.1512451171875 0.030000003054738045
v 864.880126953125 1326.64990234375 0.030000003054738045
v 852.4345703125 1332.9024658203125 0.030000003054738045
vt 0.08776916563510895 0.6354784965515137
vt 0.0037718696985393763 0.639167070388794
vt 0.00988183356821537 0.6347547173500061
vt 0.030690979212522507 0.6459338665008545
vt 0.0037718696985393763 0.639167070388794
vt 0.08776916563510895 0.6354784965515137
vt 0.030690979212522507 0.6459338665008545
vt 0.058688558638095856 0.6529717445373535
vt 0.04109520465135574 0.653678297996521
vt 0.09120284765958786 0.6331333518028259
vt 0.08776916563510895 0.6354784965515137
vt 0.00988183356821537 0.6347547173500061
vt 0.030690979212522507 0.6459338665008545
vt 0.07308202981948853 0.6443134546279907
vt 0.058688558638095856 0.6529717445373535
vt 0.060529597103595734 0.6612343192100525
vt 0.04109520465135574 0.653678297996521
vt 0.058688558638095856 0.6529717445373535
vt 0.07308202981948853 0.6443134546279907
vt 0.030690979212522507 0.6459338665008545
vt 0.08776916563510895 0.6354784965515137
vt 0.06951535493135452 0.6609259843826294
vt 0.060529597103595734 0.6612343192100525
vt 0.058688558638095856 0.6529717445373535
vt 0.0878308042883873 0.6602974534034729
vt 0.06951535493135452 0.6609259843826294
vt 0.07308202981948853 0.6443134546279907
vt 0.11812511831521988 0.6425917148590088
vt 0.0878308042883873 0.6602974534034729
vt 0.058688558638095856 0.6529717445373535
vt 0.14977511763572693 0.6500080823898315
vt 0.18273359537124634 0.6313084363937378
vt 0.09120284765958786 0.6331333518028259
vt 0.07920682430267334 0.6327253580093384
vt 0.11812511831521988 0.6425917148590088
vt 0.14977511763572693 0.6500080823898315
vt 0.058688558638095856 0.6529717445373535
vt 0.18273359537124634 0.6313084363937378
vt 0.09120284765958786 0.6331333518028259
vt 0.11812511831521988 0.6425917148590088
vt 0.08776916563510895 0.6354784965515137
vt 0.18273359537124634 0.6313084363937378
vt 0.13381603360176086 0.6590627431869507
vt 0.14977511763572693 0.6500080823898315
vt 0.18273359537124634 0.6313084363937378
vt 0.07920682430267334 0.6327253580093384
vt 0.15791642665863037 0.6303107142448425
vt 0.13425056636333466 0.6590538024902344
vt 0.13446791470050812 0.6590493321418762
vt 0.16607721149921417 0.640758752822876
vt 0.14977511763572693 0.6500080823898315
vt 0.1502189189195633 0.6499963998794556
vt 0.13446791470050812 0.6590493321418762
vt 0.1502189189195633 0.6499963998794556
vt 0.16607721149921417 0.640758752822876
vt 0.16630390286445618 0.6407514810562134
vt 0.1502189189195633 0.6499963998794556
vt 0.16630390286445618 0.6407514810562134
vt 0.18273359537124634 0.6313084363937378
vt 0.2009451538324356 0.6315724849700928
vt 0.18273359537124634 0.6364094018936157
vt 0.18273359537124634 0.6364094018936157
vt 0.24568744003772736 0.6276180744171143
vt 0.26443853974342346 0.6303462982177734
vt 0.2009451538324356 0.6315724849700928
vt 0.18273359537124634 0.6313084363937378
vt 0.24605919420719147 0.6300601959228516
vt 0.26443853974342346 0.6303462982177734
vt 0.18273359537124634 0.6313084363937378
vt 0.24297010898590088 0.6290720105171204
vt 0.18273359537124634 0.6313084363937378
vt 0.24568744003772736 0.6276180744171143
vt 0.24297010898590088 0.6290720105171204
vt 0.24605919420719147 0.6300601959228516
vn 0 -0 -1
vn 0 -0 -1
vn 0 -0 -1
vn 0.000000000016225314494744403 -0 -1
vn 0.000000000016225314494744403 -0 -1
vn 0.000000000016225314494744403 -0 -1
vn 0 -0 -1
vn 0 -0 -1
vn 0 -0 -1
vn -0.000000000015329642069628058 -0 -0.9999999403953552
vn -0.000000000015329642069628058 -0 -0.9999999403953552
vn -0.000000000015329642069628058 -0 -0.9999999403953552
vn -0.00000000006490131349012884 -0 -1
vn -0.00000000006490131349012884 -0 -1
vn -0.00000000006490131349012884 -0 -1
vn -0.000000000037973055255768884 -0 -1
vn -0.000000000037973055255768884 -0 -1
vn -0.000000000037973055255768884 -0 -1
vn 0 -0 -0.9999999403953552
vn 0 -0 -0.9999999403953552
vn 0 -0 -0.9999999403953552
vn 0.0000000000379733501587598 -0 -0.9999999403953552
vn 0.0000000000379733501587598 -0 -0.9999999403953552
vn 0.0000000000379733501587598 -0 -0.9999999403953552
vn 0 -0 -1
vn 0 -0 -1
vn 0 -0 -1
vn 0 -0 -1
vn 0.000000000016225349189213922 -0 -1
vn 0.000000000016225349189213922 -0 -1
vn 0.000000000016225349189213922 -0 -1
vn -0.00000000042889919393829246 -0 -1
vn -0.00000000042889919393829246 -0 -1
vn -0.00000000042889919393829246 -0 -1
vn -0.000000000016225331841979163 -0 -1
vn -0.000000000016225331841979163 -0 -1
vn -0.000000000016225331841979163 -0 -1
vn 0 -0 -0.9999999403953552
vn 0 -0 -0.9999999403953552
vn 0.000000000032450646336723565 -0 -1
vn 0.000000000032450646336723565 -0 -1
vn 0.000000000032450646336723565 -0 -1
vn 0 -0 -1
vn 0 -0 -1
vn 0 -0 -1
vn 0 -0 -1
vn 0 -0 -1
vn 0 -0 -1
vn 0 -0 -1
vn 0 -0 -1
vn -0.0000000005474505848646061 -0 -1
vn -0.0000000005474505848646061 -0 -1
vn -0.0000000005474505848646061 -0 -1
vn 0 -0 -1
vn -0.0000000005473441699876958 -0 -1
vn -0.0000000005473441699876958 -0 -1
vn -0.0000000005473441699876958 -0 -1
vn 0 -0 -1
vn 0 1 -0
vn 0 1 -0
vn 0 1 -0
vn 0 -0 -1
vn 0 -0 -1
vn -1 -0 -0
vn -1 -0 -0
vn -1 -0 -0
vn -1 0.0000013604096693597967 -0
vn -1 0.0000013604096693597967 -0
vn -1 0.0000013604096693597967 -0
vn -0.00000000038379105449237727 -0 -1
vn -0.00000000038379105449237727 -0 -1
vn -0.00000000038379105449237727 -0 -1
vn 0 -0 -1
vn 0 -0 -1
f 3/3/3 2/2/2 1/1/1
f 6/6/6 5/5/5 4/4/4
f 9/9/9 8/8/8 7/7/7
f 12/12/12 11/11/11 10/10/10
f 15/15/15 14/14/14 13/13/13
f 18/18/18 17/17/17 16/16/16
f 21/21/21 20/20/20 19/19/19
f 24/24/24 23/23/23 22/22/22
f 26/26/26 25/25/25 8/8/8
f 8/8/8 28/28/28 27/27/27
f 27/27/27 28/28/28 1/1/1
f 31/31/31 30/30/30 29/29/29
f 34/34/34 33/33/33 32/32/32
f 37/37/37 36/36/36 35/35/35
f 39/39/39 21/21/21 38/38/38
f 42/42/42 41/41/41 40/40/40
f 44/44/44 25/25/25 43/43/43
f 47/47/47 46/46/46 45/45/45
f 48/48/48 44/44/44 43/43/43
f 49/49/49 44/44/44 48/48/48
f 44/44/44 50/50/50 28/28/28
f 53/53/53 52/52/52 51/51/51
f 45/45/45 28/28/28 50/50/50
f 44/44/44 54/54/54 50/50/50
f 57/57/57 56/56/56 55/55/55
f 58/58/58 45/45/45 50/50/50
f 61/61/61 60/60/60 59/59/59
f 62/62/62 45/45/45 58/58/58
f 47/47/47 45/45/45 63/63/63
f 66/66/66 65/65/65 64/64/64
f 69/69/69 68/68/68 67/67/67
f 72/72/72 71/71/71 70/70/70
f 74/74/74 73/73/73 45/45/45
