# VPXTOOL table OBJ file
# VPXTOOL OBJ file
# numVerts: 81 numFaces: 87
o LM_Journey_L88_sw05
v -16.80006217956543 -6.400086879730225 -50.791988372802734
v -16.80006217956543 7.999998092651367 -55.591983795166016
v -16.80006217956543 7.999998092651367 -52.39198684692383
v -16.80006217956543 -6.400086879730225 -50.791988372802734
v -16.80006217956543 7.999998092651367 -52.39198684692383
v -16.799951553344727 4.799954414367676 -47.59198760986328
v -16.80006217956543 -6.400086879730225 -50.791988372802734
v -16.799951553344727 -8.000053405761719 -55.591983795166016
v -16.80006217956543 7.999998092651367 -55.591983795166016
v 16.799896240234375 -6.3999762535095215 -50.791988372802734
v 16.800006866455078 -8.000053405761719 -52.39198684692383
v -16.80006217956543 -6.400086879730225 -50.791988372802734
v 16.800006866455078 -8.000053405761719 -52.39198684692383
v -16.799951553344727 -8.000053405761719 -52.39198684692383
v -16.80006217956543 -6.400086879730225 -50.791988372802734
v -16.80006217956543 -6.400086879730225 -50.791988372802734
v -16.799951553344727 -8.000053405761719 -52.39198684692383
v -16.799951553344727 -8.000053405761719 -55.591983795166016
v -16.80006217956543 -6.400086879730225 -50.791988372802734
v -16.799951553344727 4.799954414367676 -47.59198760986328
v -16.799951553344727 4.799954414367676 -4.391999244689941
v 16.799896240234375 -6.3999762535095215 -50.791988372802734
v 16.799951553344727 -1.6000217199325562 3.607999086380005
v 16.799896240234375 4.799954414367676 -4.391999244689941
v -16.80006217956543 -6.400086879730225 -50.791988372802734
v -16.799951553344727 4.799954414367676 -4.391999244689941
v -16.80006217956543 -1.6000217199325562 3.607999086380005
v 16.799896240234375 4.799954414367676 -4.391999244689941
v 16.799951553344727 -1.6000217199325562 3.607999086380005
v -16.799951553344727 4.799954414367676 -4.391999244689941
v 16.799896240234375 -6.3999762535095215 -50.791988372802734
v -16.80006217956543 -6.400086879730225 -50.791988372802734
v -16.80006217956543 -6.400086879730225 52.26681900024414
v 16.799951553344727 -1.6000217199325562 3.607999086380005
v -16.80006217956543 -1.6000217199325562 3.607999086380005
v -16.799951553344727 4.799954414367676 -4.391999244689941
v 3.1999881267547607 3.9425201416015625 -4.391999244689941
v 3.1999881267547607 3.9425201416015625 50.66682434082031
v -0.00005521504863281734 4.799954414367676 -4.391999244689941
v 16.799951553344727 -1.6000217199325562 3.607999086380005
v 16.799896240234375 -6.3999762535095215 -50.791988372802734
v 16.799896240234375 -6.3999762535095215 52.26681900024414
v -0.00005521504863281734 4.799954414367676 -4.391999244689941
v -0.00005521504863281734 4.799954414367676 50.66682434082031
v -3.2000985145568848 3.9425201416015625 -4.391999244689941
v 5.542486667633057 1.6000217199325562 -4.391999244689941
v 5.542486667633057 1.6000217199325562 50.66682434082031
v 3.1999881267547607 3.9425201416015625 -4.391999244689941
v -3.2000985145568848 3.9425201416015625 -4.391999244689941
v -3.2000985145568848 3.9425201416015625 50.66682434082031
v -5.542707443237305 1.5999664068222046 -4.391999244689941
v -16.80006217956543 -1.6000217199325562 3.607999086380005
v -16.80006217956543 -6.400086879730225 52.26681900024414
v -16.80006217956543 -6.400086879730225 -50.791988372802734
v -16.80006217956543 -1.6000217199325562 3.607999086380005
v 16.799951553344727 -1.6000217199325562 3.607999086380005
v 16.799951553344727 -1.6000217199325562 52.26681900024414
v 3.1999881267547607 3.9425201416015625 50.66682434082031
v -0.00005521504863281734 4.799954414367676 50.66682434082031
v -0.00005521504863281734 4.799954414367676 -4.391999244689941
v -0.00005521504863281734 4.799954414367676 50.66682434082031
v -3.2000985145568848 3.9425201416015625 50.66682434082031
v -3.2000985145568848 3.9425201416015625 -4.391999244689941
v 3.1999881267547607 3.9425201416015625 50.66682434082031
v 16.799896240234375 -6.3999762535095215 52.26681900024414
v -3.2000985145568848 3.9425201416015625 50.66682434082031
v -5.542707443237305 1.5999664068222046 50.66682434082031
v -5.542707443237305 1.5999664068222046 -4.391999244689941
v 5.542486667633057 1.6000217199325562 50.66682434082031
v 5.542486667633057 1.6000217199325562 -4.391999244689941
v 6.3999762535095215 -1.6000217199325562 50.66682434082031
v -5.542707443237305 1.5999664068222046 -4.391999244689941
v -5.542707443237305 1.5999664068222046 50.66682434082031
v -6.400031566619873 -1.6000217199325562 50.66682434082031
v 16.799951553344727 -1.6000217199325562 3.607999086380005
v 16.799896240234375 -6.3999762535095215 52.26681900024414
v 16.799951553344727 -1.6000217199325562 52.26681900024414
v -16.80006217956543 -1.6000217199325562 52.26681900024414
v -16.80006217956543 -1.6000217199325562 3.607999086380005
v -16.80006217956543 -1.6000217199325562 52.26681900024414
v -16.80006217956543 -6.400086879730225 52.26681900024414
vt 0.08174046874046326 0.335102379322052
vt 0.08997972309589386 0.3350951671600342
vt 0.09015587717294693 0.3352934718132019
vt 0.08174046874046326 0.335102379322052
vt 0.09015587717294693 0.3352934718132019
vt 0.08852887153625488 0.3355257511138916
vt 0.08174046874046326 0.335102379322052
vt 0.08052282780408859 0.3347730040550232
vt 0.08997972309589386 0.3350951671600342
vt 0.09295818209648132 0.3335976004600525
vt 0.09193491190671921 0.3334673047065735
vt 0.08174046874046326 0.335102379322052
vt 0.09193491190671921 0.3334673047065735
vt 0.08070596307516098 0.33497118949890137
vt 0.08174046874046326 0.335102379322052
vt 0.08174046874046326 0.335102379322052
vt 0.08070596307516098 0.33497118949890137
vt 0.08052282780408859 0.3347730040550232
vt 0.08174046874046326 0.335102379322052
vt 0.08852887153625488 0.3355257511138916
vt 0.09089387208223343 0.3381669521331787
vt 0.09295818209648132 0.3335976004600525
vt 0.09862247109413147 0.33700454235076904
vt 0.10192345827817917 0.3366502523422241
vt 0.08174046874046326 0.335102379322052
vt 0.09089387208223343 0.3381669521331787
vt 0.08759327232837677 0.3385202884674072
vt 0.10192345827817917 0.3366502523422241
vt 0.09862247109413147 0.33700454235076904
vt 0.09089387208223343 0.3381669521331787
vt 0.09295818209648132 0.3335976004600525
vt 0.08174046874046326 0.335102379322052
vt 0.08746463060379028 0.3413214087486267
vt 0.09862247109413147 0.33700454235076904
vt 0.08759327232837677 0.3385202884674072
vt 0.09089387208223343 0.3381669521331787
vt 0.09698276221752167 0.3372437357902527
vt 0.09983323514461517 0.3405267596244812
vt 0.09643267840147018 0.337405264377594
vt 0.09862247109413147 0.33700454235076904
vt 0.09295818209648132 0.3335976004600525
vt 0.09836374223232269 0.339799702167511
vt 0.09643267840147018 0.337405264377594
vt 0.09929288178682327 0.3406892418861389
vt 0.09488130360841751 0.33753257989883423
vt 0.09638682752847672 0.337091326713562
vt 0.09924253076314926 0.34037351608276367
vt 0.09698276221752167 0.3372437357902527
vt 0.09488130360841751 0.33753257989883423
vt 0.09776362776756287 0.34081727266311646
vt 0.09274407476186752 0.33759135007858276
vt 0.08759327232837677 0.3385202884674072
vt 0.08746463060379028 0.3413214087486267
vt 0.08174046874046326 0.335102379322052
vt 0.08759327232837677 0.3385202884674072
vt 0.09862247109413147 0.33700454235076904
vt 0.1011117622256279 0.33989572525024414
vt 0.09983323514461517 0.3405267596244812
vt 0.09929288178682327 0.3406892418861389
vt 0.09643267840147018 0.337405264377594
vt 0.09929288178682327 0.3406892418861389
vt 0.09776362776756287 0.34081727266311646
vt 0.09488130360841751 0.33753257989883423
vt 0.09983323514461517 0.3405267596244812
vt 0.09836374223232269 0.339799702167511
vt 0.09776362776756287 0.34081727266311646
vt 0.09565497189760208 0.34087634086608887
vt 0.09274407476186752 0.33759135007858276
vt 0.09924253076314926 0.34037351608276367
vt 0.09638682752847672 0.337091326713562
vt 0.0976811870932579 0.34027034044265747
vt 0.09274407476186752 0.33759135007858276
vt 0.09565497189760208 0.34087634086608887
vt 0.09353414177894592 0.3408505320549011
vt 0.09862247109413147 0.33700454235076904
vt 0.09836374223232269 0.339799702167511
vt 0.1011117622256279 0.33989572525024414
vt 0.09023034572601318 0.3414190411567688
vt 0.08759327232837677 0.3385202884674072
vt 0.09023034572601318 0.3414190411567688
vt 0.08746463060379028 0.3413214087486267
vn -1 -0.00000027099449084744265 -0
vn -1 -0.00000027099449084744265 -0
vn -1 -0.00000027099449084744265 -0
vn -1 0.0000028291799480939517 0.00002484678589098621
vn -1 0.0000028291799480939517 0.00002484678589098621
vn -1 0.0000028291799480939517 0.00002484678589098621
vn -1 -0.000006829066478530876 -0.000020705689166788943
vn -1 -0.000006829066478530876 -0.000020705689166788943
vn -1 -0.000006829066478530876 -0.000020705689166788943
vn 0.000002463669034113991 -0.7070893049240112 0.7071242928504944
vn 0.000002463669034113991 -0.7070893049240112 0.7071242928504944
vn 0.000002463669034113991 -0.7070893049240112 0.7071242928504944
vn 0 -0.7071136236190796 0.7070999145507813
vn 0 -0.7071136236190796 0.7070999145507813
vn 0 -0.7071136236190796 0.7070999145507813
vn -0.9999999403953552 -0.00006951185059733689 -0
vn -0.9999999403953552 -0.00006951185059733689 -0
vn -0.9999999403953552 -0.00006951185059733689 -0
vn -1 0.000009910665539791808 -0
vn -1 0.000009910665539791808 -0
vn -1 0.000009910665539791808 -0
vn 1 0.00000671928864903748 -0.00000159977128078026
vn 1 0.00000671928864903748 -0.00000159977128078026
vn 1 0.00000671928864903748 -0.00000159977128078026
vn -1 0.00001576444810780231 -0.0000013712564168599783
vn -1 0.00001576444810780231 -0.0000013712564168599783
vn -1 0.00001576444810780231 -0.0000013712564168599783
vn 0 0.7808699011802673 0.624693751335144
vn 0 0.7808699011802673 0.624693751335144
vn 0 0.7808699011802673 0.624693751335144
vn 0.0000032866141737031285 -1 -0
vn 0.0000032866141737031285 -1 -0
vn 0.0000032866141737031285 -1 -0
vn 0 0.7808698415756226 0.6246936917304993
vn 0 0.7808698415756226 0.6246936917304993
vn 0 0.7808698415756226 0.6246936917304993
vn 0.2588149309158325 0.9659268856048584 -0
vn 0.2588149309158325 0.9659268856048584 -0
vn 0.2588149309158325 0.9659268856048584 -0
vn 1 -0.000012116965081077069 -0
vn 1 -0.000012116965081077069 -0
vn 1 -0.000012116965081077069 -0
vn -0.2588149607181549 0.9659269452095032 -0
vn -0.2588149607181549 0.9659269452095032 -0
vn -0.2588149607181549 0.9659269452095032 -0
vn 0.7071067690849304 0.7071067690849304 -0
vn 0.7071067690849304 0.7071067690849304 -0
vn 0.7071067690849304 0.7071067690849304 -0
vn -0.7070984840393066 0.707115113735199 -0
vn -0.7070984840393066 0.707115113735199 -0
vn -0.7070984840393066 0.707115113735199 -0
vn -1 -0.0000004038895440316992 -0
vn -1 -0.0000004038895440316992 -0
vn -1 -0.0000004038895440316992 -0
vn 0 0.9999999403953552 -0
vn 0 0.9999999403953552 -0
vn 0 0.9999999403953552 -0
vn 0.2588149607181549 0.9659269452095032 -0
vn 0.2588149607181549 0.9659269452095032 -0
vn 0.2588149607181549 0.9659269452095032 -0
vn -0.2588149309158325 0.9659268856048584 -0
vn -0.2588149309158325 0.9659268856048584 -0
vn -0.2588149309158325 0.9659268856048584 -0
vn 0.7071067690849304 0.7071067690849304 -0
vn 0.0000032866141737031285 -1 -0
vn -0.7070984840393066 0.7071151733398438 -0
vn -0.7070984840393066 0.7071151733398438 -0
vn -0.7070984840393066 0.7071151733398438 -0
vn 0.9659228324890137 0.2588305175304413 -0
vn 0.9659228324890137 0.2588305175304413 -0
vn 0.9659228324890137 0.2588305175304413 -0
vn -0.9659342169761658 0.25878793001174927 -0
vn -0.9659342169761658 0.25878793001174927 -0
vn -0.9659342169761658 0.25878793001174927 -0
vn 1 -0.000011548616384970956 -0
vn 1 -0.000011548616384970956 -0
vn 1 -0.000011548616384970956 -0
vn 0 0.9999999403953552 -0
vn -1 -0 -0
vn -1 -0 -0
vn -1 -0 -0
f 3/3/3 2/2/2 1/1/1
f 6/6/6 5/5/5 4/4/4
f 9/9/9 8/8/8 7/7/7
f 12/12/12 11/11/11 10/10/10
f 15/15/15 14/14/14 13/13/13
f 18/18/18 17/17/17 16/16/16
f 21/21/21 20/20/20 19/19/19
f 24/24/24 23/23/23 22/22/22
f 27/27/27 26/26/26 25/25/25
f 30/30/30 29/29/29 28/28/28
f 33/33/33 32/32/32 31/31/31
f 36/36/36 35/35/35 34/34/34
f 39/39/39 38/38/38 37/37/37
f 42/42/42 41/41/41 40/40/40
f 45/45/45 44/44/44 43/43/43
f 48/48/48 47/47/47 46/46/46
f 51/51/51 50/50/50 49/49/49
f 54/54/54 53/53/53 52/52/52
f 57/57/57 56/56/56 55/55/55
f 60/60/60 59/59/59 58/58/58
f 63/63/63 62/62/62 61/61/61
f 48/48/48 64/64/64 47/47/47
f 33/33/33 31/31/31 65/65/65
f 68/68/68 67/67/67 66/66/66
f 71/71/71 70/70/70 69/69/69
f 74/74/74 73/73/73 72/72/72
f 77/77/77 76/76/76 75/75/75
f 57/57/57 55/55/55 78/78/78
f 81/81/81 80/80/80 79/79/79
