# VPXTOOL table OBJ file
# VPXTOOL OBJ file
# numVerts: 155 numFaces: 204
o LM_inserts_L18_PF
v 33.64021682739258 248.9818572998047 0.030000003054738045
v 34.17757797241211 248.31822204589844 0.030000003054738045
v 68.35515594482422 496.6364440917969 0.030000003054738045
v 68.35515594482422 496.6364440917969 0.030000003054738045
v 34.17757797241211 248.31822204589844 0.030000003054738045
v 145.8143310546875 336.3533020019531 0.030000003054738045
v 33.64021682739258 248.9818572998047 0.030000003054738045
v 67.28043365478516 497.9637145996094 0.030000003054738045
v 179.99191284179688 584.6715087890625 0.030000003054738045
v 291.628662109375 672.7066040039063 0.030000003054738045
v 291.628662109375 635.2654418945313 0.030000003054738045
v 291.628662109375 672.7066040039063 0.030000003054738045
v 145.8143310546875 336.3533020019531 0.030000003054738045
v 102.53273010253906 744.95458984375 0.030000003054738045
v 100.920654296875 746.945556640625 0.030000003054738045
v 31.560232162475586 555.249267578125 0.030000003054738045
v 214.1694793701172 832.9896850585938 0.030000003054738045
v 291.628662109375 635.2654418945313 0.030000003054738045
v 291.628662109375 635.2654418945313 35.32411575317383
v 291.628662109375 672.7066040039063 0.030000003054738045
v 102.53273010253906 744.95458984375 0.030000003054738045
v 101.99536895751953 745.6182861328125 0.030000003054738045
v 67.28043365478516 497.9637145996094 0.030000003054738045
v 101.99536895751953 745.6182861328125 0.030000003054738045
v 291.628662109375 635.2654418945313 35.32411575317383
v 291.628662109375 672.7066040039063 35.32411575317383
v 291.628662109375 672.7066040039063 0.030000003054738045
v 291.628662109375 672.7066040039063 35.32411575317383
v 292.5126037597656 676.0057373046875 35.32411575317383
v 292.5126037597656 676.0057373046875 0.030000003054738045
v 292.5126037597656 676.0057373046875 35.32411575317383
v 294.927734375 678.4208374023438 35.32411575317383
v 294.927734375 678.4208374023438 0.030000003054738045
v 294.927734375 678.4208374023438 35.32411575317383
v 298.2268371582031 679.3048095703125 35.32411575317383
v 298.2268371582031 679.3048095703125 0.030000003054738045
v 291.628662109375 672.7066040039063 0.030000003054738045
v 291.628662109375 672.7066040039063 35.32411575317383
v 292.5126037597656 676.0057373046875 0.030000003054738045
v 100.920654296875 746.945556640625 0.030000003054738045
v 83.060546875 775.5882568359375 0.030000003054738045
v 31.560232162475586 555.249267578125 0.030000003054738045
v 292.5126037597656 676.0057373046875 0.030000003054738045
v 292.5126037597656 676.0057373046875 35.32411575317383
v 294.927734375 678.4208374023438 0.030000003054738045
v 294.927734375 678.4208374023438 0.030000003054738045
v 294.927734375 678.4208374023438 35.32411575317383
v 298.2268371582031 679.3048095703125 0.030000003054738045
v 298.2268371582031 679.3048095703125 0.030000003054738045
v 298.2268371582031 679.3048095703125 35.32411575317383
v 424.9361877441406 679.3047485351563 0.030000003054738045
v 83.060546875 775.5882568359375 0.030000003054738045
v 47.34034729003906 832.8738403320313 0.030000003054738045
v 31.560232162475586 555.249267578125 0.030000003054738045
v 292.5126037597656 676.0057373046875 0.030000003054738045
v 424.9361877441406 679.3047485351563 0.030000003054738045
v 317.6327209472656 827.3302612304688 0.030000003054738045
v 298.2268371582031 679.3048095703125 0.030000003054738045
v 210.3292236328125 975.355712890625 0.030000003054738045
v 294.927734375 678.4208374023438 0.030000003054738045
v 214.1694793701172 832.9896850585938 0.030000003054738045
v 292.5126037597656 676.0057373046875 0.030000003054738045
v 214.6114501953125 834.6392822265625 0.030000003054738045
v 214.6114501953125 834.6392822265625 0.030000003054738045
v 292.5126037597656 676.0057373046875 0.030000003054738045
v 216.2057647705078 834.02734375 0.030000003054738045
v 319.28228759765625 826.8883056640625 0.030000003054738045
v 317.6327209472656 827.3302612304688 0.030000003054738045
v 424.9361877441406 679.3047485351563 0.030000003054738045
v 136.71031188964844 993.2728881835938 0.030000003054738045
v 100.920654296875 746.945556640625 0.030000003054738045
v 134.5608673095703 995.9274291992188 0.030000003054738045
v 83.060546875 775.5882568359375 0.030000003054738045
v 216.2057647705078 834.02734375 0.030000003054738045
v 83.060546875 775.5882568359375 0.030000003054738045
v 134.5608673095703 995.9274291992188 0.030000003054738045
v 47.34034729003906 832.8738403320313 0.030000003054738045
v 328.0298156738281 819.7138061523438 0.030000003054738045
v 319.28228759765625 826.8883056640625 0.030000003054738045
v 214.6114501953125 834.6392822265625 0.030000003054738045
v 136.71031188964844 993.2728881835938 0.030000003054738045
v 214.1694793701172 832.9896850585938 0.030000003054738045
v 139.89892578125 992.0490112304688 0.030000003054738045
v 214.6114501953125 834.6392822265625 0.030000003054738045
v 136.71031188964844 993.2728881835938 0.030000003054738045
v 134.5608673095703 995.9274291992188 0.030000003054738045
v 100.920654296875 746.945556640625 0.030000003054738045
v 313.29632568359375 964.0108032226563 0.030000003054738045
v 210.3292236328125 975.355712890625 0.030000003054738045
v 328.0298156738281 819.7138061523438 0.030000003054738045
v 139.89892578125 992.0490112304688 0.030000003054738045
v 136.71031188964844 993.2728881835938 0.030000003054738045
v 214.6114501953125 834.6392822265625 0.030000003054738045
v 134.5608673095703 995.9274291992188 0.030000003054738045
v 63.12046432495117 1110.49853515625 0.030000003054738045
v 47.34034729003906 832.8738403320313 0.030000003054738045
v 143.2723846435547 992.583251953125 35.32411575317383
v 139.89892578125 992.0490112304688 35.32411575317383
v 139.89892578125 992.0490112304688 0.030000003054738045
v 139.89892578125 992.0490112304688 35.32411575317383
v 136.71031188964844 993.2728881835938 35.32411575317383
v 136.71031188964844 993.2728881835938 0.030000003054738045
v 136.71031188964844 993.2728881835938 35.32411575317383
v 134.5608673095703 995.9274291992188 35.32411575317383
v 134.5608673095703 995.9274291992188 0.030000003054738045
v 139.89892578125 992.0490112304688 0.030000003054738045
v 143.2723846435547 992.583251953125 0.030000003054738045
v 143.2723846435547 992.583251953125 35.32411575317383
v 139.89892578125 992.0490112304688 0.030000003054738045
v 136.71031188964844 993.2728881835938 0.030000003054738045
v 136.71031188964844 993.2728881835938 35.32411575317383
v 134.5608673095703 995.9274291992188 0.030000003054738045
v 313.29632568359375 964.0108032226563 0.030000003054738045
v 312.5750427246094 964.3294067382813 0.030000003054738045
v 210.3292236328125 975.355712890625 0.030000003054738045
v 312.5750427246094 964.3294067382813 0.030000003054738045
v 311.7732238769531 964.787109375 0.030000003054738045
v 210.3292236328125 975.355712890625 0.030000003054738045
v 311.7732238769531 964.787109375 0.030000003054738045
v 310.9471740722656 965.4049682617188 0.030000003054738045
v 210.3292236328125 975.355712890625 0.030000003054738045
v 310.9471740722656 965.4049682617188 0.030000003054738045
v 310.1529235839844 966.20458984375 0.030000003054738045
v 210.3292236328125 975.355712890625 0.030000003054738045
v 310.1529235839844 966.20458984375 0.030000003054738045
v 309.4466247558594 967.2068481445313 0.030000003054738045
v 210.3292236328125 975.355712890625 0.030000003054738045
v 309.4466247558594 967.2068481445313 0.030000003054738045
v 308.88458251953125 968.4336547851563 0.030000003054738045
v 210.3292236328125 975.355712890625 0.030000003054738045
v 308.88458251953125 968.4336547851563 0.030000003054738045
v 308.5226745605469 969.90576171875 0.030000003054738045
v 210.3292236328125 975.355712890625 0.030000003054738045
v 308.5226745605469 969.90576171875 0.030000003054738045
v 308.41717529296875 971.6449584960938 0.030000003054738045
v 210.3292236328125 975.355712890625 0.030000003054738045
v 308.41717529296875 971.6449584960938 0.030000003054738045
v 308.624267578125 973.6722412109375 0.030000003054738045
v 210.3292236328125 975.355712890625 0.030000003054738045
v 143.2723846435547 992.583251953125 0.030000003054738045
v 139.89892578125 992.0490112304688 0.030000003054738045
v 169.11419677734375 1004.0887451171875 0.030000003054738045
v 143.2723846435547 992.583251953125 0.030000003054738045
v 198.60853576660156 1001.680908203125 0.030000003054738045
v 210.3292236328125 975.355712890625 0.030000003054738045
v 308.624267578125 973.6722412109375 0.030000003054738045
v 198.60853576660156 1001.680908203125 0.030000003054738045
v 169.11419677734375 1004.0887451171875 0.030000003054738045
v 210.3292236328125 975.355712890625 0.030000003054738045
v 134.5608673095703 995.9274291992188 0.030000003054738045
v 134.5608673095703 995.9274291992188 35.32411575317383
v 88.6282730102539 1099.09375 0.030000003054738045
v 134.5608673095703 995.9274291992188 0.030000003054738045
v 88.6282730102539 1099.09375 0.030000003054738045
v 63.12046432495117 1110.49853515625 0.030000003054738045
vt 0.04317155107855797 0.699427604675293
vt 0.043498679995536804 0.6994059085845947
vt 0.048612259328365326 0.708005964756012
vt 0.048612259328365326 0.708005964756012
vt 0.043498679995536804 0.6994059085845947
vt 0.10016890615224838 0.7023400068283081
vt 0.04317155107855797 0.699427604675293
vt 0.047919873148202896 0.7080547213554382
vt 0.10890698432922363 0.711310863494873
vt 0.17191074788570404 0.7147642374038696
vt 0.1729564666748047 0.713276743888855
vt 0.17191074788570404 0.7147642374038696
vt 0.10016890615224838 0.7023400068283081
vt 0.054386064410209656 0.71771639585495
vt 0.05328323319554329 0.7177993059158325
vt 0.023808542639017105 0.7101902961730957
vt 0.11879967898130417 0.7214670777320862
vt 0.1729564666748047 0.713276743888855
vt 0.1737687885761261 0.7153009176254272
vt 0.17191074788570404 0.7147642374038696
vt 0.054386064410209656 0.71771639585495
vt 0.054018594324588776 0.717743992805481
vt 0.047919873148202896 0.7080547213554382
vt 0.054018594324588776 0.717743992805481
vt 0.1737687885761261 0.7153009176254272
vt 0.17273862659931183 0.7167965173721313
vt 0.17191074788570404 0.7147642374038696
vt 0.17273862659931183 0.7167965173721313
vt 0.17317312955856323 0.7169296741485596
vt 0.17234784364700317 0.7148966789245605
vt 0.17317312955856323 0.7169296741485596
vt 0.1745448112487793 0.7170272469520569
vt 0.17372936010360718 0.7149937152862549
vt 0.1745448112487793 0.7170272469520569
vt 0.17648614943027496 0.7170630097389221
vt 0.17568521201610565 0.7150292992591858
vt 0.17191074788570404 0.7147642374038696
vt 0.17273862659931183 0.7167965173721313
vt 0.17234784364700317 0.7148966789245605
vt 0.05328323319554329 0.7177993059158325
vt 0.04057169705629349 0.7190018892288208
vt 0.023808542639017105 0.7101902961730957
vt 0.17234784364700317 0.7148966789245605
vt 0.17317312955856323 0.7169296741485596
vt 0.17372936010360718 0.7149937152862549
vt 0.17372936010360718 0.7149937152862549
vt 0.1745448112487793 0.7170272469520569
vt 0.17568521201610565 0.7150292992591858
vt 0.17568521201610565 0.7150292992591858
vt 0.17648614943027496 0.7170630097389221
vt 0.25174733996391296 0.7150292992591858
vt 0.04057169705629349 0.7190018892288208
vt 0.014567364007234573 0.7214620113372803
vt 0.023808542639017105 0.7101902961730957
vt 0.17234784364700317 0.7148966789245605
vt 0.25174733996391296 0.7150292992591858
vt 0.18359582126140594 0.7212206721305847
vt 0.17568521201610565 0.7150292992591858
vt 0.10986466705799103 0.7279189825057983
vt 0.17372936010360718 0.7149937152862549
vt 0.11879967898130417 0.7214670777320862
vt 0.17234784364700317 0.7148966789245605
vt 0.11900413036346436 0.7215390205383301
vt 0.11900413036346436 0.7215390205383301
vt 0.17234784364700317 0.7148966789245605
vt 0.12002719193696976 0.7215123176574707
vt 0.1846364438533783 0.721201479434967
vt 0.18359582126140594 0.7212206721305847
vt 0.25174733996391296 0.7150292992591858
vt 0.060956817120313644 0.7287670969963074
vt 0.05328323319554329 0.7177993059158325
vt 0.05938943102955818 0.728893518447876
vt 0.04057169705629349 0.7190018892288208
vt 0.12002719193696976 0.7215123176574707
vt 0.04057169705629349 0.7190018892288208
vt 0.05938943102955818 0.728893518447876
vt 0.014567364007234573 0.7214620113372803
vt 0.19026891887187958 0.7208902835845947
vt 0.1846364438533783 0.721201479434967
vt 0.11900413036346436 0.7215390205383301
vt 0.060956817120313644 0.7287670969963074
vt 0.11879967898130417 0.7214670777320862
vt 0.0631125196814537 0.7287088632583618
vt 0.11900413036346436 0.7215390205383301
vt 0.060956817120313644 0.7287670969963074
vt 0.05938943102955818 0.728893518447876
vt 0.05328323319554329 0.7177993059158325
vt 0.17706549167633057 0.7273862361907959
vt 0.10986466705799103 0.7279189825057983
vt 0.19026891887187958 0.7208902835845947
vt 0.0631125196814537 0.7287088632583618
vt 0.060956817120313644 0.7287670969963074
vt 0.11900413036346436 0.7215390205383301
vt 0.05938943102955818 0.728893518447876
vt 0.003852160880342126 0.7345317602157593
vt 0.014567364007234573 0.7214620113372803
vt 0.06705153733491898 0.7308318614959717
vt 0.06490018963813782 0.7308063507080078
vt 0.0631125196814537 0.7287088632583618
vt 0.06490018963813782 0.7308063507080078
vt 0.06276267021894455 0.7308647632598877
vt 0.060956817120313644 0.7287670969963074
vt 0.06276267021894455 0.7308647632598877
vt 0.06120936945080757 0.7309916615486145
vt 0.05938943102955818 0.728893518447876
vt 0.0631125196814537 0.7287088632583618
vt 0.06528127938508987 0.7287343144416809
vt 0.06705153733491898 0.7308318614959717
vt 0.0631125196814537 0.7287088632583618
vt 0.060956817120313644 0.7287670969963074
vt 0.06276267021894455 0.7308647632598877
vt 0.05938943102955818 0.728893518447876
vt 0.17706549167633057 0.7273862361907959
vt 0.176589235663414 0.7274011373519897
vt 0.10986466705799103 0.7279189825057983
vt 0.176589235663414 0.7274011373519897
vt 0.17605668306350708 0.7274225950241089
vt 0.10986466705799103 0.7279189825057983
vt 0.17605668306350708 0.7274225950241089
vt 0.17550353705883026 0.7274515628814697
vt 0.10986466705799103 0.7279189825057983
vt 0.17550353705883026 0.7274515628814697
vt 0.17496547102928162 0.7274889945983887
vt 0.10986466705799103 0.7279189825057983
vt 0.17496547102928162 0.7274889945983887
vt 0.17447809875011444 0.7275359630584717
vt 0.10986466705799103 0.7279189825057983
vt 0.17447809875011444 0.7275359630584717
vt 0.17407722771167755 0.7275935411453247
vt 0.10986466705799103 0.7279189825057983
vt 0.17407722771167755 0.7275935411453247
vt 0.17379853129386902 0.7276626229286194
vt 0.10986466705799103 0.7279189825057983
vt 0.17379853129386902 0.7276626229286194
vt 0.17367787659168243 0.7277443408966064
vt 0.10986466705799103 0.7279189825057983
vt 0.17367787659168243 0.7277443408966064
vt 0.17375139892101288 0.7278397083282471
vt 0.10986466705799103 0.7279189825057983
vt 0.06528127938508987 0.7287343144416809
vt 0.0631125196814537 0.7287088632583618
vt 0.08150190114974976 0.7292832136154175
vt 0.06528127938508987 0.7287343144416809
vt 0.10093176364898682 0.7291680574417114
vt 0.10986466705799103 0.7279189825057983
vt 0.17375139892101288 0.7278397083282471
vt 0.10093176364898682 0.7291680574417114
vt 0.08150190114974976 0.7292832136154175
vt 0.10986466705799103 0.7279189825057983
vt 0.05938943102955818 0.728893518447876
vt 0.06120936945080757 0.7309916615486145
vt 0.02191438153386116 0.7339538931846619
vt 0.05938943102955818 0.728893518447876
vt 0.02191438153386116 0.7339538931846619
vt 0.003852160880342126 0.7345317602157593
vn 0.0000000007225587905779207 -0 -1
vn 0.0000000007225587905779207 -0 -1
vn 0.0000000007225587905779207 -0 -1
vn 0 -0 -1
vn 0 -0 -1
vn 0 -0 -1
vn 0 -0 -1
vn 0 -0 -1
vn 0 -0 -1
vn 0 -0 -1
vn 0 -0 -0.9999999403953552
vn 0 -0 -0.9999999403953552
vn 0 -0 -0.9999999403953552
vn 0 -0 -1
vn 0 -0 -1
vn 0 -0 -1
vn 0 -0 -1
vn 1 -0 -0
vn 1 -0 -0
vn 1 -0 -0
vn 0.0000000005077384068741253 -0 -0.9999999403953552
vn 0.0000000005077384068741253 -0 -0.9999999403953552
vn 0.0000000005077384068741253 -0 -0.9999999403953552
vn 0 -0 -1
vn 0.9999999403953552 -0 -0
vn 0.9999999403953552 -0 -0
vn 0.9999999403953552 -0 -0
vn 0.9659280180931091 -0.25881069898605347 -0
vn 0.9659280180931091 -0.25881069898605347 -0
vn 0.9659280180931091 -0.25881069898605347 -0
vn 0.7070988416671753 -0.7071146368980408 -0
vn 0.7070988416671753 -0.7071146368980408 -0
vn 0.7070988416671753 -0.7071146368980408 -0
vn 0.25882023572921753 -0.9659255146980286 -0
vn 0.25882023572921753 -0.9659255146980286 -0
vn 0.25882023572921753 -0.9659255146980286 -0
vn 0.9659313559532166 -0.2587983310222626 -0
vn 0.9659313559532166 -0.2587983310222626 -0
vn 0.9659313559532166 -0.2587983310222626 -0
vn 0.00000000007212677677337354 -0 -1
vn 0.00000000007212677677337354 -0 -1
vn 0.00000000007212677677337354 -0 -1
vn 0.707112193107605 -0.7071014642715454 -0
vn 0.707112193107605 -0.7071014642715454 -0
vn 0.707112193107605 -0.7071014642715454 -0
vn 0.2588168978691101 -0.9659263491630554 -0
vn 0.2588168978691101 -0.9659263491630554 -0
vn 0.2588168978691101 -0.9659263491630554 -0
vn -0.0000004357614216132788 -1 -0
vn -0.0000004357614216132788 -1 -0
vn -0.0000004357614216132788 -1 -0
vn -0.00000000003606338838668677 -0 -1
vn -0.00000000003606338838668677 -0 -1
vn -0.00000000003606338838668677 -0 -1
vn 0 -0 -1
vn 0 -0 -1
vn 0 -0 -1
vn 0 -0 -1
vn 0 -0 -1
vn 0 -0 -1
vn -0.00000000392963928064205 -0 -1
vn -0.00000000392963928064205 -0 -1
vn -0.00000000392963928064205 -0 -1
vn 0.00000000380257647591975 -0 -1
vn 0.00000000380257647591975 -0 -1
vn 0.00000000380257647591975 -0 -1
vn 0.00000000046483900062455064 -0 -1
vn 0.00000000046483900062455064 -0 -1
vn 0.00000000046483900062455064 -0 -1
vn 0 -0 -1
vn 0.0000000002885076066938552 -0 -1
vn 0.0000000002885076066938552 -0 -1
vn 0.0000000002885076066938552 -0 -1
vn 0 -0 -1
vn 0 -0 -0.9999999403953552
vn 0 -0 -0.9999999403953552
vn 0 -0 -0.9999999403953552
vn 0 -0 -1
vn 0 -0 -1
vn 0.00000000392963928064205 -0 -1
vn 0.00000000392963928064205 -0 -1
vn 0.00000000392963928064205 -0 -1
vn 0 -0 -1
vn 0 -0 -1
vn -0.0000000007225448017678104 -0 -1
vn -0.0000000007225448017678104 -0 -1
vn -0.0000000007225448017678104 -0 -1
vn 0.000000000043165415686274855 -0 -1
vn 0.000000000043165415686274855 -0 -1
vn 0.000000000043165415686274855 -0 -1
vn -0.0000000009358122055047602 -0 -1
vn -0.0000000009358122055047602 -0 -1
vn -0.0000000009358122055047602 -0 -1
vn 0 -0 -1
vn 0 -0 -1
vn 0 -0 -1
vn -0.15642155706882477 0.9876903891563416 -0
vn -0.15642155706882477 0.9876903891563416 -0
vn -0.15642155706882477 0.9876903891563416 -0
vn 0.3583434224128723 0.9335898160934448 -0
vn 0.3583434224128723 0.9335898160934448 -0
vn 0.3583434224128723 0.9335898160934448 -0
vn 0.7771679759025574 0.6292932033538818 -0
vn 0.7771679759025574 0.6292932033538818 -0
vn 0.7771679759025574 0.6292932033538818 -0
vn 0.3583434224128723 0.9335898160934448 -0
vn -0.15642257034778595 0.987690269947052 -0
vn -0.15642257034778595 0.987690269947052 -0
vn -0.15642257034778595 0.987690269947052 -0
vn 0.7771646976470947 0.6292972564697266 -0
vn 0.7771646976470947 0.6292972564697266 -0
vn 0.7771646976470947 0.6292972564697266 -0
vn -0.0000000001855863795974244 -0 -0.9999999403953552
vn -0.0000000001855863795974244 -0 -0.9999999403953552
vn -0.0000000001855863795974244 -0 -0.9999999403953552
vn -0.0000000000803292848905457 -0 -1
vn -0.0000000000803292848905457 -0 -1
vn -0.0000000000803292848905457 -0 -1
vn 0.00000000011300797797542117 -0 -1
vn 0.00000000011300797797542117 -0 -1
vn 0.00000000011300797797542117 -0 -1
vn 0.0000000003362350675661929 -0 -1
vn 0.0000000003362350675661929 -0 -1
vn 0.0000000003362350675661929 -0 -1
vn 0.00000000013031077605862862 -0 -1
vn 0.00000000013031077605862862 -0 -1
vn 0.00000000013031077605862862 -0 -1
vn -0.00000000010422412238808576 -0 -1
vn -0.00000000010422412238808576 -0 -1
vn -0.00000000010422412238808576 -0 -1
vn -0.00000000008551967467518296 -0 -1
vn -0.00000000008551967467518296 -0 -1
vn -0.00000000008551967467518296 -0 -1
vn -0.00000000007165689569488265 -0 -0.9999999403953552
vn -0.00000000007165689569488265 -0 -0.9999999403953552
vn -0.00000000007165689569488265 -0 -0.9999999403953552
vn 0 -0 -1
vn 0 -0 -1
vn 0 -0 -0.9999999403953552
vn 0 -0 -0.9999999403953552
vn 0 -0 -0.9999999403953552
vn 0 -0 -1
vn 0 -0 -1
vn -0.00000000003799154046912889 -0 -1
vn -0.00000000003799154046912889 -0 -1
vn -0.00000000003799154046912889 -0 -1
vn -0.00000000006519345480127114 -0 -1
vn -0.00000000006519345480127114 -0 -1
vn -0.00000000006519345480127114 -0 -1
vn 0.913545548915863 0.40673643350601196 -0
vn 0.913545548915863 0.40673643350601196 -0
vn 0.913545548915863 0.40673643350601196 -0
vn 0.00000000018514634270161423 -0 -1
vn 0.00000000018514634270161423 -0 -1
vn 0.00000000018514634270161423 -0 -1
f 3/3/3 2/2/2 1/1/1
f 6/6/6 5/5/5 4/4/4
f 8/8/8 4/4/4 7/7/7
f 9/9/9 6/6/6 4/4/4
f 10/10/10 6/6/6 9/9/9
f 13/13/13 12/12/12 11/11/11
f 4/4/4 8/8/8 14/14/14
f 16/16/16 15/15/15 8/8/8
f 9/9/9 4/4/4 17/17/17
f 20/20/20 19/19/19 18/18/18
f 23/23/23 22/22/22 21/21/21
f 24/24/24 8/8/8 15/15/15
f 27/27/27 26/26/26 25/25/25
f 30/30/30 29/29/29 28/28/28
f 33/33/33 32/32/32 31/31/31
f 36/36/36 35/35/35 34/34/34
f 39/39/39 38/38/38 37/37/37
f 42/42/42 41/41/41 40/40/40
f 45/45/45 44/44/44 43/43/43
f 48/48/48 47/47/47 46/46/46
f 17/17/17 4/4/4 14/14/14
f 51/51/51 50/50/50 49/49/49
f 10/10/10 9/9/9 17/17/17
f 54/54/54 53/53/53 52/52/52
f 55/55/55 10/10/10 17/17/17
f 58/58/58 57/57/57 56/56/56
f 60/60/60 55/55/55 59/59/59
f 58/58/58 60/60/60 59/59/59
f 63/63/63 62/62/62 61/61/61
f 66/66/66 65/65/65 64/64/64
f 69/69/69 68/68/68 67/67/67
f 24/24/24 70/70/70 14/14/14
f 15/15/15 70/70/70 24/24/24
f 73/73/73 72/72/72 71/71/71
f 74/74/74 59/59/59 55/55/55
f 58/58/58 59/59/59 57/57/57
f 17/17/17 14/14/14 70/70/70
f 77/77/77 76/76/76 75/75/75
f 79/79/79 59/59/59 78/78/78
f 57/57/57 59/59/59 79/79/79
f 82/82/82 81/81/81 80/80/80
f 84/84/84 83/83/83 74/74/74
f 87/87/87 86/86/86 85/85/85
f 90/90/90 89/89/89 88/88/88
f 74/74/74 83/83/83 59/59/59
f 93/93/93 92/92/92 91/91/91
f 96/96/96 95/95/95 94/94/94
f 99/99/99 98/98/98 97/97/97
f 102/102/102 101/101/101 100/100/100
f 105/105/105 104/104/104 103/103/103
f 102/102/102 100/100/100 106/106/106
f 109/109/109 108/108/108 107/107/107
f 112/112/112 111/111/111 110/110/110
f 115/115/115 114/114/114 113/113/113
f 118/118/118 117/117/117 116/116/116
f 121/121/121 120/120/120 119/119/119
f 124/124/124 123/123/123 122/122/122
f 127/127/127 126/126/126 125/125/125
f 130/130/130 129/129/129 128/128/128
f 133/133/133 132/132/132 131/131/131
f 136/136/136 135/135/135 134/134/134
f 138/138/138 137/137/137 59/59/59
f 141/141/141 140/140/140 139/139/139
f 143/143/143 142/142/142 59/59/59
f 146/146/146 145/145/145 144/144/144
f 149/149/149 148/148/148 147/147/147
f 152/152/152 151/151/151 150/150/150
f 155/155/155 154/154/154 153/153/153
