# VPXTOOL table OBJ file
# VPXTOOL OBJ file
# numVerts: 98 numFaces: 102
o LM_inserts_L17_sw08
v 16.800006866455078 -6.3999762535095215 -50.791988372802734
v 16.799978256225586 7.999998092651367 -52.39198684692383
v 16.799978256225586 7.999998092651367 -55.591983795166016
v 16.800006866455078 -6.3999762535095215 -50.791988372802734
v 16.799978256225586 4.800009727478027 -47.59198760986328
v 16.799978256225586 7.999998092651367 -52.39198684692383
v 16.800006866455078 -6.3999762535095215 -50.791988372802734
v 16.799978256225586 7.999998092651367 -55.591983795166016
v 16.800006866455078 -7.999998092651367 -55.591983795166016
v -16.799978256225586 -6.400031566619873 -50.791988372802734
v -16.800006866455078 7.999998092651367 -55.591983795166016
v -16.800006866455078 7.999998092651367 -52.39198684692383
v -16.799978256225586 -6.400031566619873 -50.791988372802734
v -16.800006866455078 7.999998092651367 -52.39198684692383
v -16.800006866455078 4.800009727478027 -47.59198760986328
v -16.799978256225586 -6.400031566619873 -50.791988372802734
v -16.799978256225586 -7.999998092651367 -55.591983795166016
v -16.800006866455078 7.999998092651367 -55.591983795166016
v 16.800006866455078 -7.999998092651367 -55.591983795166016
v 16.800006866455078 -7.999998092651367 -52.39198684692383
v 16.800006866455078 -6.3999762535095215 -50.791988372802734
v 16.800006866455078 -6.3999762535095215 -50.791988372802734
v 16.799978256225586 4.800009727478027 -4.391999244689941
v 16.799978256225586 4.800009727478027 -47.59198760986328
v 16.800006866455078 -6.3999762535095215 -50.791988372802734
v 16.800006866455078 -7.999998092651367 -52.39198684692383
v -16.799978256225586 -6.400031566619873 -50.791988372802734
v 16.800006866455078 -7.999998092651367 -52.39198684692383
v -16.799978256225586 -7.999998092651367 -52.39198684692383
v -16.799978256225586 -6.400031566619873 -50.791988372802734
v -16.799978256225586 -6.400031566619873 -50.791988372802734
v -16.799978256225586 -7.999998092651367 -52.39198684692383
v -16.799978256225586 -7.999998092651367 -55.591983795166016
v -16.799978256225586 -6.400031566619873 -50.791988372802734
v -16.800006866455078 4.800009727478027 -47.59198760986328
v -16.800006866455078 4.800009727478027 -4.391999244689941
v 16.800006866455078 -6.3999762535095215 -50.791988372802734
v 16.800006866455078 -1.5999664068222046 3.607999086380005
v 16.799978256225586 4.800009727478027 -4.391999244689941
v -16.799978256225586 -6.400031566619873 -50.791988372802734
v -16.800006866455078 4.800009727478027 -4.391999244689941
v -16.800006866455078 -1.6000217199325562 3.607999086380005
v -16.800006866455078 -1.6000217199325562 3.607999086380005
v -16.800006866455078 4.800009727478027 -4.391999244689941
v 16.799978256225586 4.800009727478027 -4.391999244689941
v 16.800006866455078 -6.3999762535095215 -50.791988372802734
v -16.799978256225586 -6.400031566619873 -50.791988372802734
v -16.799978256225586 -6.400031566619873 52.26681900024414
v 16.800006866455078 -1.5999664068222046 3.607999086380005
v -16.800006866455078 -1.6000217199325562 3.607999086380005
v 16.799978256225586 4.800009727478027 -4.391999244689941
v 3.1999881267547607 3.942575216293335 -4.391999244689941
v 3.1999881267547607 3.942575216293335 50.66682434082031
v 0 4.800009727478027 -4.391999244689941
v 16.800006866455078 -1.5999664068222046 3.607999086380005
v 16.800006866455078 -6.3999762535095215 -50.791988372802734
v 16.800006866455078 -6.3999762535095215 52.26681900024414
v 0 4.800009727478027 -4.391999244689941
v 0 4.800009727478027 50.66682434082031
v -3.1999881267547607 3.942575216293335 -4.391999244689941
v 5.542569160461426 1.6000217199325562 -4.391999244689941
v 5.542569160461426 1.6000217199325562 50.66682434082031
v 3.1999881267547607 3.942575216293335 -4.391999244689941
v -3.1999881267547607 3.942575216293335 -4.391999244689941
v -3.1999881267547607 3.942575216293335 50.66682434082031
v -5.542569160461426 1.6000217199325562 -4.391999244689941
v -16.800006866455078 -1.6000217199325562 3.607999086380005
v -16.799978256225586 -6.400031566619873 52.26681900024414
v -16.799978256225586 -6.400031566619873 -50.791988372802734
v -16.800006866455078 -1.6000217199325562 3.607999086380005
v 16.800006866455078 -1.5999664068222046 3.607999086380005
v 16.800006866455078 -1.5999664068222046 52.26681900024414
v 3.1999881267547607 3.942575216293335 50.66682434082031
v 0 4.800009727478027 50.66682434082031
v 0 4.800009727478027 -4.391999244689941
v 0 4.800009727478027 50.66682434082031
v -3.1999881267547607 3.942575216293335 50.66682434082031
v -3.1999881267547607 3.942575216293335 -4.391999244689941
v 5.542569160461426 1.6000217199325562 50.66682434082031
v 3.1999881267547607 3.942575216293335 50.66682434082031
v 3.1999881267547607 3.942575216293335 -4.391999244689941
v 16.800006866455078 -6.3999762535095215 52.26681900024414
v -3.1999881267547607 3.942575216293335 50.66682434082031
v -5.542569160461426 1.6000217199325562 50.66682434082031
v -5.542569160461426 1.6000217199325562 -4.391999244689941
v 5.542569160461426 1.6000217199325562 50.66682434082031
v 5.542569160461426 1.6000217199325562 -4.391999244689941
v 6.400003910064697 -1.6000217199325562 50.66682434082031
v -5.542569160461426 1.6000217199325562 -4.391999244689941
v -5.542569160461426 1.6000217199325562 50.66682434082031
v -6.400003910064697 -1.6000217199325562 50.66682434082031
v 16.800006866455078 -1.5999664068222046 3.607999086380005
v 16.800006866455078 -6.3999762535095215 52.26681900024414
v 16.800006866455078 -1.5999664068222046 52.26681900024414
v -16.800006866455078 -1.6000217199325562 52.26681900024414
v -16.800006866455078 -1.6000217199325562 3.607999086380005
v -16.800006866455078 -1.6000217199325562 52.26681900024414
v -16.799978256225586 -6.400031566619873 52.26681900024414
vt 0.07814668118953705 0.4279348850250244
vt 0.07783879339694977 0.42840576171875
vt 0.07778609544038773 0.4282161593437195
vt 0.07814668118953705 0.4279348850250244
vt 0.0779803991317749 0.42856365442276
vt 0.07783879339694977 0.42840576171875
vt 0.07814668118953705 0.4279348850250244
vt 0.07778609544038773 0.4282161593437195
vt 0.07809945940971375 0.42758840322494507
vt 0.0579548105597496 0.4279348850250244
vt 0.05749854817986488 0.4282161593437195
vt 0.05756525695323944 0.42840576171875
vt 0.0579548105597496 0.4279348850250244
vt 0.05756525695323944 0.42840576171875
vt 0.057744428515434265 0.42856365442276
vt 0.0579548105597496 0.4279348850250244
vt 0.057895053178071976 0.42758840322494507
vt 0.05749854817986488 0.4282161593437195
vt 0.07809945940971375 0.42758840322494507
vt 0.07815174013376236 0.4277777075767517
vt 0.07814668118953705 0.4279348850250244
vt 0.07814668118953705 0.4279348850250244
vt 0.07868237048387527 0.43109244108200073
vt 0.0779803991317749 0.42856365442276
vt 0.07814668118953705 0.4279348850250244
vt 0.07815174013376236 0.4277777075767517
vt 0.0579548105597496 0.4279348850250244
vt 0.07815174013376236 0.4277777075767517
vt 0.057961203157901764 0.4277777075767517
vt 0.0579548105597496 0.4279348850250244
vt 0.0579548105597496 0.4279348850250244
vt 0.057961203157901764 0.4277777075767517
vt 0.057895053178071976 0.42758840322494507
vt 0.0579548105597496 0.4279348850250244
vt 0.057744428515434265 0.42856365442276
vt 0.05863259360194206 0.43109244108200073
vt 0.07814668118953705 0.4279348850250244
vt 0.07893326878547668 0.43130189180374146
vt 0.07868237048387527 0.43109244108200073
vt 0.0579548105597496 0.4279348850250244
vt 0.05863259360194206 0.43109244108200073
vt 0.0589500293135643 0.43130189180374146
vt 0.0589500293135643 0.43130189180374146
vt 0.05863259360194206 0.43109244108200073
vt 0.07868237048387527 0.43109244108200073
vt 0.07814668118953705 0.4279348850250244
vt 0.0579548105597496 0.4279348850250244
vt 0.06003797426819801 0.4338926076889038
vt 0.07893326878547668 0.43130189180374146
vt 0.0589500293135643 0.43130189180374146
vt 0.07868237048387527 0.43109244108200073
vt 0.0705852061510086 0.43105846643447876
vt 0.07155504077672958 0.4342144727706909
vt 0.06865748018026352 0.43109244108200073
vt 0.07893326878547668 0.43130189180374146
vt 0.07814668118953705 0.4279348850250244
vt 0.07979317009449005 0.4338926076889038
vt 0.06865748018026352 0.43109244108200073
vt 0.06964985281229019 0.43424880504608154
vt 0.06676704436540604 0.43105846643447876
vt 0.07203170657157898 0.4309656620025635
vt 0.0729842260479927 0.43412089347839355
vt 0.0705852061510086 0.43105846643447876
vt 0.06676704436540604 0.43105846643447876
vt 0.06778111308813095 0.4342144727706909
vt 0.06542236357927322 0.4309656620025635
vt 0.0589500293135643 0.43130189180374146
vt 0.06003797426819801 0.4338926076889038
vt 0.0579548105597496 0.4279348850250244
vt 0.0589500293135643 0.43130189180374146
vt 0.07893326878547668 0.43130189180374146
vt 0.07970353215932846 0.4340837597846985
vt 0.07155504077672958 0.4342144727706909
vt 0.06964985281229019 0.43424880504608154
vt 0.06865748018026352 0.43109244108200073
vt 0.06964985281229019 0.43424880504608154
vt 0.06778111308813095 0.4342144727706909
vt 0.06676704436540604 0.43105846643447876
vt 0.0729842260479927 0.43412089347839355
vt 0.07155504077672958 0.4342144727706909
vt 0.0705852061510086 0.43105846643447876
vt 0.07979317009449005 0.4338926076889038
vt 0.06778111308813095 0.4342144727706909
vt 0.06645143032073975 0.43412089347839355
vt 0.06542236357927322 0.4309656620025635
vt 0.0729842260479927 0.43412089347839355
vt 0.07203170657157898 0.4309656620025635
vt 0.07355435937643051 0.43399322032928467
vt 0.06542236357927322 0.4309656620025635
vt 0.06645143032073975 0.43412089347839355
vt 0.06601696461439133 0.43399322032928467
vt 0.07893326878547668 0.43130189180374146
vt 0.07979317009449005 0.4338926076889038
vt 0.07970353215932846 0.4340837597846985
vt 0.05992460250854492 0.4340837597846985
vt 0.0589500293135643 0.43130189180374146
vt 0.05992460250854492 0.4340837597846985
vt 0.06003797426819801 0.4338926076889038
vn 1 0.0000018969737993757008 -0
vn 1 0.0000018969737993757008 -0
vn 1 0.0000018969737993757008 -0
vn 1 0.0000019511737718858058 0.0000013803744423057651
vn 1 0.0000019511737718858058 0.0000013803744423057651
vn 1 0.0000019511737718858058 0.0000013803744423057651
vn 0.9999999403953552 0.0000017885736269818153 -0.000000575165188365645
vn 0.9999999403953552 0.0000017885736269818153 -0.000000575165188365645
vn 0.9999999403953552 0.0000017885736269818153 -0.000000575165188365645
vn -0.9999999403953552 -0.0000018969653865497094 -0
vn -0.9999999403953552 -0.0000018969653865497094 -0
vn -0.9999999403953552 -0.0000018969653865497094 -0
vn -1 -0.000002146281076420564 -0.0000013803680758428527
vn -1 -0.000002146281076420564 -0.0000013803680758428527
vn -1 -0.000002146281076420564 -0.0000013803680758428527
vn -1 -0.000001788574195416004 0.0000005751455205427192
vn -1 -0.000001788574195416004 0.0000005751455205427192
vn -1 -0.000001788574195416004 0.0000005751455205427192
vn 1 -0 -0
vn 1 -0 -0
vn 1 -0 -0
vn 1 0.0000024776784357527504 -0
vn 1 0.0000024776784357527504 -0
vn 1 0.0000024776784357527504 -0
vn 0.000001149730906035984 -0.7071014046669006 0.7071120738983154
vn 0.000001149730906035984 -0.7071014046669006 0.7071120738983154
vn 0.000001149730906035984 -0.7071014046669006 0.7071120738983154
vn 0 -0.7071135640144348 0.707099974155426
vn 0 -0.7071135640144348 0.707099974155426
vn 0 -0.7071135640144348 0.707099974155426
vn -0.9999999403953552 0.0000012195062026876258 -0
vn -0.9999999403953552 0.0000012195062026876258 -0
vn -0.9999999403953552 0.0000012195062026876258 -0
vn -1 -0.000002477666384947952 -0
vn -1 -0.000002477666384947952 -0
vn -1 -0.000002477666384947952 -0
vn 1 0.0000036180740607960615 -0.00000034281052307960636
vn 1 0.0000036180740607960615 -0.00000034281052307960636
vn 1 0.0000036180740607960615 -0.00000034281052307960636
vn -1 -0.0000005168637358110573 -0.00000045707849949394586
vn -1 -0.0000005168637358110573 -0.00000045707849949394586
vn -1 -0.0000005168637358110573 -0.00000045707849949394586
vn 0 0.7808672189712524 0.6246970295906067
vn 0 0.7808672189712524 0.6246970295906067
vn 0 0.7808672189712524 0.6246970295906067
vn 0.0000016433058362963493 -1 -0
vn 0.0000016433058362963493 -1 -0
vn 0.0000016433058362963493 -1 -0
vn -0.0000012832862239520182 0.7808698415756226 0.6246936917304993
vn -0.0000012832862239520182 0.7808698415756226 0.6246936917304993
vn -0.0000012832862239520182 0.7808698415756226 0.6246936917304993
vn 0.2588191032409668 0.9659257531166077 -0
vn 0.2588191032409668 0.9659257531166077 -0
vn 0.2588191032409668 0.9659257531166077 -0
vn 1 -0.00000040389417677033634 -0
vn 1 -0.00000040389417677033634 -0
vn 1 -0.00000040389417677033634 -0
vn -0.2588191032409668 0.9659257531166077 -0
vn -0.2588191032409668 0.9659257531166077 -0
vn -0.2588191032409668 0.9659257531166077 -0
vn 0.7071026563644409 0.7071109414100647 -0
vn 0.7071026563644409 0.7071109414100647 -0
vn 0.7071026563644409 0.7071109414100647 -0
vn -0.7071026563644409 0.7071109414100647 -0
vn -0.7071026563644409 0.7071109414100647 -0
vn -0.7071026563644409 0.7071109414100647 -0
vn -1 -0.000006260359896259615 -0
vn -1 -0.000006260359896259615 -0
vn -1 -0.000006260359896259615 -0
vn -0.000001643304358367459 0.9999999403953552 -0
vn -0.000001643304358367459 0.9999999403953552 -0
vn -0.000001643304358367459 0.9999999403953552 -0
vn 0.2588190734386444 0.9659257531166077 -0
vn 0.2588190734386444 0.9659257531166077 -0
vn 0.2588190734386444 0.9659257531166077 -0
vn -0.2588190734386444 0.9659257531166077 -0
vn -0.2588190734386444 0.9659257531166077 -0
vn -0.2588190734386444 0.9659257531166077 -0
vn 0.7071026563644409 0.7071108818054199 -0
vn 0.7071026563644409 0.7071108818054199 -0
vn 0.7071026563644409 0.7071108818054199 -0
vn 0.0000016433058362963493 -1 -0
vn -0.7071026563644409 0.7071108818054199 -0
vn -0.7071026563644409 0.7071108818054199 -0
vn -0.7071026563644409 0.7071108818054199 -0
vn 0.9659269452095032 0.25881490111351013 -0
vn 0.9659269452095032 0.25881490111351013 -0
vn 0.9659269452095032 0.25881490111351013 -0
vn -0.9659269452095032 0.25881490111351013 -0
vn -0.9659269452095032 0.25881490111351013 -0
vn -0.9659269452095032 0.25881490111351013 -0
vn 1 -0 -0
vn 1 -0 -0
vn 1 -0 -0
vn -0.000001643304358367459 0.9999999403953552 -0
vn -1 -0.000005560380486713257 -0
vn -1 -0.000005560380486713257 -0
vn -1 -0.000005560380486713257 -0
f 3/3/3 2/2/2 1/1/1
f 6/6/6 5/5/5 4/4/4
f 9/9/9 8/8/8 7/7/7
f 12/12/12 11/11/11 10/10/10
f 15/15/15 14/14/14 13/13/13
f 18/18/18 17/17/17 16/16/16
f 21/21/21 20/20/20 19/19/19
f 24/24/24 23/23/23 22/22/22
f 27/27/27 26/26/26 25/25/25
f 30/30/30 29/29/29 28/28/28
f 33/33/33 32/32/32 31/31/31
f 36/36/36 35/35/35 34/34/34
f 39/39/39 38/38/38 37/37/37
f 42/42/42 41/41/41 40/40/40
f 45/45/45 44/44/44 43/43/43
f 48/48/48 47/47/47 46/46/46
f 51/51/51 50/50/50 49/49/49
f 54/54/54 53/53/53 52/52/52
f 57/57/57 56/56/56 55/55/55
f 60/60/60 59/59/59 58/58/58
f 63/63/63 62/62/62 61/61/61
f 66/66/66 65/65/65 64/64/64
f 69/69/69 68/68/68 67/67/67
f 72/72/72 71/71/71 70/70/70
f 75/75/75 74/74/74 73/73/73
f 78/78/78 77/77/77 76/76/76
f 81/81/81 80/80/80 79/79/79
f 48/48/48 46/46/46 82/82/82
f 85/85/85 84/84/84 83/83/83
f 88/88/88 87/87/87 86/86/86
f 91/91/91 90/90/90 89/89/89
f 94/94/94 93/93/93 92/92/92
f 72/72/72 70/70/70 95/95/95
f 98/98/98 97/97/97 96/96/96
