# VPXTOOL table OBJ file
# VPXTOOL OBJ file
# numVerts: 47 numFaces: 60
o LM_Journey_L71_PF
v 233.51522827148438 1203.505615234375 0.030000003054738045
v 343.087158203125 1236.0811767578125 0.030000003054738045
v 343.55096435546875 1236.587890625 0.030000003054738045
v 343.55096435546875 1236.587890625 0.030000003054738045
v 343.087158203125 1236.0811767578125 0.030000003054738045
v 452.8909606933594 1268.909912109375 0.030000003054738045
v 343.55096435546875 1236.587890625 0.030000003054738045
v 273.09814453125 1350.6187744140625 0.030000003054738045
v 233.51522827148438 1203.505615234375 0.030000003054738045
v 453.12286376953125 1269.163330078125 0.030000003054738045
v 343.55096435546875 1236.587890625 0.030000003054738045
v 452.8909606933594 1268.909912109375 0.030000003054738045
v 453.586669921875 1269.6700439453125 0.030000003054738045
v 273.09814453125 1350.6187744140625 0.030000003054738045
v 218.08029174804688 1334.07763671875 0.030000003054738045
v 233.51522827148438 1203.505615234375 0.030000003054738045
v 453.586669921875 1269.6700439453125 0.030000003054738045
v 383.1338806152344 1383.700927734375 0.030000003054738045
v 343.55096435546875 1236.587890625 0.030000003054738045
v 328.11602783203125 1367.1597900390625 0.030000003054738045
v 343.55096435546875 1236.587890625 0.030000003054738045
v 383.1338806152344 1383.700927734375 0.030000003054738045
v 438.1517333984375 1400.2421875 0.030000003054738045
v 383.1338806152344 1383.700927734375 0.030000003054738045
v 453.586669921875 1269.6700439453125 0.030000003054738045
v 273.09814453125 1350.6187744140625 0.030000003054738045
v 202.64535522460938 1464.6497802734375 0.030000003054738045
v 218.08029174804688 1334.07763671875 0.030000003054738045
v 328.11602783203125 1367.1597900390625 0.030000003054738045
v 312.68109130859375 1497.7320556640625 0.030000003054738045
v 383.1338806152344 1383.700927734375 0.030000003054738045
v 312.68109130859375 1497.7320556640625 0.030000003054738045
v 202.64535522460938 1464.6497802734375 0.030000003054738045
v 273.09814453125 1350.6187744140625 0.030000003054738045
v 438.1517333984375 1400.2421875 0.030000003054738045
v 422.716796875 1530.8140869140625 0.030000003054738045
v 422.716796875 1530.8140869140625 0.030000003054738045
v 312.68109130859375 1497.7320556640625 0.030000003054738045
v 383.1338806152344 1383.700927734375 0.030000003054738045
v 242.22828674316406 1611.7630615234375 0.030000003054738045
v 352.2640075683594 1644.8450927734375 0.030000003054738045
v 297.2461242675781 1628.30419921875 0.030000003054738045
v 242.22828674316406 1611.7630615234375 0.030000003054738045
v 312.68109130859375 1497.7320556640625 0.030000003054738045
v 352.2640075683594 1644.8450927734375 0.030000003054738045
v 297.2461242675781 1628.30419921875 0.030000003054738045
v 312.68109130859375 1497.7320556640625 0.030000003054738045
vt 0.44090792536735535 0.629037618637085
vt 0.5816404223442078 0.6308026313781738
vt 0.5822228789329529 0.6308304071426392
vt 0.5822228789329529 0.6308304071426392
vt 0.5816404223442078 0.6308026313781738
vt 0.7254372835159302 0.632616400718689
vt 0.5822228789329529 0.6308304071426392
vt 0.4803827106952667 0.6372902393341064
vt 0.44090792536735535 0.629037618637085
vt 0.7257423400878906 0.6326305270195007
vt 0.5822228789329529 0.6308304071426392
vt 0.7254372835159302 0.632616400718689
vt 0.7263525128364563 0.632658839225769
vt 0.4803827106952667 0.6372902393341064
vt 0.40741005539894104 0.6363251209259033
vt 0.44090792536735535 0.629037618637085
vt 0.7263525128364563 0.632658839225769
vt 0.6285856366157532 0.6392502784729004
vt 0.5822228789329529 0.6308304071426392
vt 0.5541040301322937 0.6382652521133423
vt 0.5822228789329529 0.6308304071426392
vt 0.6285856366157532 0.6392502784729004
vt 0.7038394808769226 0.6402455568313599
vt 0.6285856366157532 0.6392502784729004
vt 0.7263525128364563 0.632658839225769
vt 0.4803827106952667 0.6372902393341064
vt 0.37111443281173706 0.6442212462425232
vt 0.40741005539894104 0.6363251209259033
vt 0.5541040301322937 0.6382652521133423
vt 0.5236116647720337 0.6463276147842407
vt 0.6285856366157532 0.6392502784729004
vt 0.5236116647720337 0.6463276147842407
vt 0.37111443281173706 0.6442212462425232
vt 0.4803827106952667 0.6372902393341064
vt 0.7038394808769226 0.6402455568313599
vt 0.6794055104255676 0.6484795808792114
vt 0.6794055104255676 0.6484795808792114
vt 0.5236116647720337 0.6463276147842407
vt 0.6285856366157532 0.6392502784729004
vt 0.41060295701026917 0.6539467573165894
vt 0.5711572170257568 0.656267523765564
vt 0.49043190479278564 0.6551006436347961
vt 0.41060295701026917 0.6539467573165894
vt 0.5236116647720337 0.6463276147842407
vt 0.5711572170257568 0.656267523765564
vt 0.49043190479278564 0.6551006436347961
vt 0.5236116647720337 0.6463276147842407
vn 0 -0 -0.9999999403953552
vn 0 -0 -0.9999999403953552
vn 0 -0 -0.9999999403953552
vn 0.00000000030192257027827907 -0 -1
vn 0.00000000030192257027827907 -0 -1
vn 0.00000000030192257027827907 -0 -1
vn 0.00000000005245706299894515 -0 -1
vn 0.00000000005245706299894515 -0 -1
vn 0.00000000005245706299894515 -0 -1
vn 0 -0 -1
vn 0 -0 -1
vn 0 -0 -1
vn 0 -0 -1
vn -0.00000000003934286577078616 -0 -1
vn -0.00000000003934286577078616 -0 -1
vn -0.00000000003934286577078616 -0 -1
vn 0.00000000005245701789613477 -0 -1
vn 0.00000000005245701789613477 -0 -1
vn 0.00000000005245701789613477 -0 -1
vn -0.00000000003934286577078616 -0 -1
vn -0.00000000003934286577078616 -0 -1
vn -0.00000000003934286577078616 -0 -1
vn -0.00000000009180001897535206 -0 -1
vn -0.00000000009180001897535206 -0 -1
vn -0.00000000009180001897535206 -0 -1
vn 0 -0 -1
vn 0 -0 -1
vn 0 -0 -1
vn 0 -0 -1
vn 0 -0 -1
vn 0 -0 -1
vn -0.0000000000131142431983311 -0 -1
vn -0.0000000000131142431983311 -0 -1
vn -0.0000000000131142431983311 -0 -1
vn 0 -0 -1
vn 0 -0 -1
vn -0.000000000013114265749736287 -0 -1
vn -0.000000000013114265749736287 -0 -1
vn -0.000000000013114265749736287 -0 -1
vn 0 -0 -1
vn 0 -0 -1
vn -0.00000000003934286577078616 -0 -1
vn -0.00000000003934286577078616 -0 -1
vn -0.00000000003934286577078616 -0 -1
vn 0.0000000000131142431983311 -0 -1
vn 0.0000000000131142431983311 -0 -1
vn 0.0000000000131142431983311 -0 -1
f 3/3/3 2/2/2 1/1/1
f 6/6/6 5/5/5 4/4/4
f 9/9/9 8/8/8 7/7/7
f 12/12/12 11/11/11 10/10/10
f 10/10/10 11/11/11 13/13/13
f 16/16/16 15/15/15 14/14/14
f 19/19/19 18/18/18 17/17/17
f 21/21/21 14/14/14 20/20/20
f 21/21/21 20/20/20 22/22/22
f 25/25/25 24/24/24 23/23/23
f 28/28/28 27/27/27 26/26/26
f 26/26/26 30/30/30 29/29/29
f 29/29/29 30/30/30 31/31/31
f 34/34/34 33/33/33 32/32/32
f 31/31/31 36/36/36 35/35/35
f 39/39/39 38/38/38 37/37/37
f 27/27/27 40/40/40 30/30/30
f 30/30/30 41/41/41 36/36/36
f 44/44/44 43/43/43 42/42/42
f 47/47/47 46/46/46 45/45/45
