# VPXTOOL table OBJ file
# VPXTOOL OBJ file
# numVerts: 77 numFaces: 108
o LM_Journey_L90_PF
v 126.5256118774414 1115.966796875 0.030000003054738045
v 198.60853576660156 1001.680908203125 0.030000003054738045
v 123.47950744628906 1170.4234619140625 0.030000003054738045
v 224.40798950195313 1118.9022216796875 0.030000003054738045
v 123.47950744628906 1170.4234619140625 0.030000003054738045
v 198.60853576660156 1001.680908203125 0.030000003054738045
v 63.12046432495117 1110.49853515625 0.030000003054738045
v 91.9723129272461 1107.80517578125 0.030000003054738045
v 117.81417083740234 1119.3106689453125 0.030000003054738045
v 124.37620544433594 1118.6209716796875 0.030000003054738045
v 126.5256118774414 1115.966796875 0.030000003054738045
v 123.47950744628906 1170.4234619140625 0.030000003054738045
v 123.47950744628906 1170.4234619140625 0.030000003054738045
v 117.81417083740234 1119.3106689453125 0.030000003054738045
v 121.18759155273438 1119.844970703125 0.030000003054738045
v 121.18759155273438 1119.844970703125 0.030000003054738045
v 124.37620544433594 1118.6209716796875 0.030000003054738045
v 224.62652587890625 1119.388916015625 0.030000003054738045
v 123.47950744628906 1170.4234619140625 0.030000003054738045
v 224.40798950195313 1118.9022216796875 0.030000003054738045
v 224.9138946533203 1119.8946533203125 0.030000003054738045
v 123.47950744628906 1170.4234619140625 0.030000003054738045
v 224.62652587890625 1119.388916015625 0.030000003054738045
v 225.27752685546875 1120.38720703125 0.030000003054738045
v 224.9138946533203 1119.8946533203125 0.030000003054738045
v 225.72482299804688 1120.833740234375 0.030000003054738045
v 226.2631072998047 1121.2021484375 0.030000003054738045
v 55.230403900146484 1248.5611572265625 0.030000003054738045
v 232.93545532226563 1202.081787109375 0.030000003054738045
v 232.95616149902344 1202.371826171875 0.030000003054738045
v 233.01412963867188 1202.67236328125 0.030000003054738045
v 233.1197509765625 1202.97021484375 0.030000003054738045
v 233.2833251953125 1203.2523193359375 0.030000003054738045
v 233.51522827148438 1203.505615234375 0.030000003054738045
v 85.40992736816406 1278.523681640625 0.030000003054738045
v 55.230403900146484 1248.5611572265625 0.030000003054738045
v 123.47950744628906 1170.4234619140625 0.030000003054738045
v 233.51522827148438 1203.505615234375 0.030000003054738045
v 233.2833251953125 1203.2523193359375 0.030000003054738045
v 343.087158203125 1236.0811767578125 0.030000003054738045
v 163.06243896484375 1317.53662109375 0.030000003054738045
v 100.49969482421875 1293.5048828125 0.030000003054738045
v 85.40992736816406 1278.523681640625 0.030000003054738045
v 123.47950744628906 1170.4234619140625 0.030000003054738045
v 233.51522827148438 1203.505615234375 0.030000003054738045
v 343.087158203125 1236.0811767578125 0.030000003054738045
v 343.55096435546875 1236.587890625 0.030000003054738045
v 123.47950744628906 1170.4234619140625 0.030000003054738045
v 108.04457092285156 1300.99560546875 0.030000003054738045
v 100.49969482421875 1293.5048828125 0.030000003054738045
v 163.06243896484375 1317.53662109375 0.030000003054738045
v 108.04457092285156 1300.99560546875 0.030000003054738045
v 123.47950744628906 1170.4234619140625 0.030000003054738045
v 343.55096435546875 1236.587890625 0.030000003054738045
v 273.09814453125 1350.6187744140625 0.030000003054738045
v 233.51522827148438 1203.505615234375 0.030000003054738045
v 218.08029174804688 1334.07763671875 0.030000003054738045
v 163.06243896484375 1317.53662109375 0.030000003054738045
v 233.51522827148438 1203.505615234375 0.030000003054738045
v 85.40992736816406 1278.523681640625 0.030000003054738045
v 100.49969482421875 1293.5048828125 0.030000003054738045
v 47.34034729003906 1386.623779296875 0.030000003054738045
v 273.09814453125 1350.6187744140625 0.030000003054738045
v 218.08029174804688 1334.07763671875 0.030000003054738045
v 233.51522827148438 1203.505615234375 0.030000003054738045
v 108.04457092285156 1300.99560546875 0.030000003054738045
v 77.5198745727539 1416.58642578125 0.030000003054738045
v 92.60963439941406 1431.567626953125 0.030000003054738045
v 108.04457092285156 1300.99560546875 0.030000003054738045
v 100.49969482421875 1293.5048828125 0.030000003054738045
v 77.5198745727539 1416.58642578125 0.030000003054738045
v 47.34034729003906 1386.623779296875 0.030000003054738045
v 218.08029174804688 1334.07763671875 0.030000003054738045
v 202.64535522460938 1464.6497802734375 0.030000003054738045
v 202.64535522460938 1464.6497802734375 0.030000003054738045
v 92.60963439941406 1431.567626953125 0.030000003054738045
v 163.06243896484375 1317.53662109375 0.030000003054738045
vt 0.6143840551376343 0.4435538053512573
vt 0.5241103768348694 0.4371466636657715
vt 0.6595207452774048 0.44423937797546387
vt 0.6167809963226318 0.4358198642730713
vt 0.6595207452774048 0.44423937797546387
vt 0.5241103768348694 0.4371466636657715
vt 0.6099296808242798 0.4485231637954712
vt 0.6077408194541931 0.44621866941452026
vt 0.617114782333374 0.4442709684371948
vt 0.6165511608123779 0.44374531507492065
vt 0.6143840551376343 0.4435538053512573
vt 0.6595207452774048 0.44423937797546387
vt 0.6595207452774048 0.44423937797546387
vt 0.617114782333374 0.4442709684371948
vt 0.6175517439842224 0.444007933139801
vt 0.6175517439842224 0.444007933139801
vt 0.6165511608123779 0.44374531507492065
vt 0.6171787977218628 0.43580538034439087
vt 0.6595207452774048 0.44423937797546387
vt 0.6167809963226318 0.4358198642730713
vt 0.6175922751426697 0.4357854723930359
vt 0.6595207452774048 0.44423937797546387
vt 0.6171787977218628 0.43580538034439087
vt 0.6179951429367065 0.4357594847679138
vt 0.6175922751426697 0.4357854723930359
vt 0.6183604001998901 0.4357265830039978
vt 0.6186619400978088 0.43568599224090576
vt 0.7268543243408203 0.4505208730697632
vt 0.6864275336265564 0.43561679124832153
vt 0.6866763830184937 0.4356168508529663
vt 0.6869342923164368 0.43561387062072754
vt 0.6871898770332336 0.43560701608657837
vt 0.687432050704956 0.43559539318084717
vt 0.6876494288444519 0.43557804822921753
vt 0.7535164952278137 0.4483271837234497
vt 0.7268543243408203 0.4505208730697632
vt 0.6595207452774048 0.44423937797546387
vt 0.6876494288444519 0.43557804822921753
vt 0.687432050704956 0.43559539318084717
vt 0.715889573097229 0.4267822504043579
vt 0.7889634966850281 0.4421863555908203
vt 0.7670291662216187 0.44721537828445435
vt 0.7535164952278137 0.4483271837234497
vt 0.6595207452774048 0.44423937797546387
vt 0.6876494288444519 0.43557804822921753
vt 0.715889573097229 0.4267822504043579
vt 0.7163331508636475 0.42674583196640015
vt 0.6595207452774048 0.44423937797546387
vt 0.7738317251205444 0.44665563106536865
vt 0.7670291662216187 0.44721537828445435
vt 0.7889634966850281 0.4421863555908203
vt 0.7738317251205444 0.44665563106536865
vt 0.6595207452774048 0.44423937797546387
vt 0.7163331508636475 0.42674583196640015
vt 0.8196905255317688 0.4331108331680298
vt 0.6876494288444519 0.43557804822921753
vt 0.8042488694190979 0.4376716613769531
vt 0.7889634966850281 0.4421863555908203
vt 0.6876494288444519 0.43557804822921753
vt 0.7535164952278137 0.4483271837234497
vt 0.7670291662216187 0.44721537828445435
vt 0.8538532853126526 0.4526907205581665
vt 0.8196905255317688 0.4331108331680298
vt 0.8042488694190979 0.4376716613769531
vt 0.6876494288444519 0.43557804822921753
vt 0.7738317251205444 0.44665563106536865
vt 0.88287353515625 0.4504220485687256
vt 0.8975897431373596 0.44927161931991577
vt 0.7738317251205444 0.44665563106536865
vt 0.7670291662216187 0.44721537828445435
vt 0.88287353515625 0.4504220485687256
vt 0.8538532853126526 0.4526907205581665
vt 0.8042488694190979 0.4376716613769531
vt 0.9305868148803711 0.43994009494781494
vt 0.9305868148803711 0.43994009494781494
vt 0.8975897431373596 0.44927161931991577
vt 0.7889634966850281 0.4421863555908203
vn 0 -0 -1
vn 0 -0 -1
vn 0 -0 -1
vn 0.000000000014826277358603868 -0 -1
vn 0.000000000014826277358603868 -0 -1
vn 0.000000000014826277358603868 -0 -1
vn 0 -0 -1
vn 0 -0 -1
vn 0 -0 -1
vn 0.0000000003357453759456064 -0 -0.9999999403953552
vn 0.0000000003357453759456064 -0 -0.9999999403953552
vn 0.0000000003357453759456064 -0 -0.9999999403953552
vn -0.000000001151829520651404 -0 -1
vn -0.000000001151829520651404 -0 -1
vn -0.000000001151829520651404 -0 -1
vn 0 -0 -1
vn 0 -0 -1
vn 0.00000000323279425451517 -0 -1
vn 0.00000000323279425451517 -0 -1
vn 0.00000000323279425451517 -0 -1
vn -0.000000002965174772384671 -0 -1
vn -0.000000002965174772384671 -0 -1
vn -0.000000002965174772384671 -0 -1
vn 0 -0 -1
vn 0 -0 -1
vn 0 -0 -1
vn 0 -0 -1
vn 0 -0 -1
vn 0 -0 -1
vn 0 -0 -1
vn 0 -0 -1
vn 0 -0 -1
vn 0 -0 -1
vn 0 -0 -1
vn -0.00000000008862758443806129 -0 -1
vn -0.00000000008862758443806129 -0 -1
vn -0.00000000008862758443806129 -0 -1
vn 0.0000000003017956717865644 -0 -1
vn 0.0000000003017956717865644 -0 -1
vn 0.0000000003017956717865644 -0 -1
vn 0 -0 -1
vn 0.00000000008862758443806129 -0 -1
vn 0.00000000008862758443806129 -0 -1
vn 0.00000000008862758443806129 -0 -1
vn 0 -0 -0.9999999403953552
vn 0 -0 -0.9999999403953552
vn 0 -0 -0.9999999403953552
vn 0 -0 -0.9999999403953552
vn 0 -0 -0.9999999403953552
vn 0 -0 -0.9999999403953552
vn 0.000000000013114288301141475 -0 -1
vn 0.000000000013114288301141475 -0 -1
vn 0.000000000013114288301141475 -0 -1
vn 0.00000000005245706299894515 -0 -1
vn 0.00000000005245706299894515 -0 -1
vn 0.00000000005245706299894515 -0 -1
vn 0.000000000013114265749736287 -0 -1
vn 0.000000000013114265749736287 -0 -1
vn 0.000000000013114265749736287 -0 -1
vn 0.00000000008862732076009294 -0 -0.9999999403953552
vn 0.00000000008862732076009294 -0 -0.9999999403953552
vn 0.00000000008862732076009294 -0 -0.9999999403953552
vn -0.00000000003934286577078616 -0 -1
vn -0.00000000003934286577078616 -0 -1
vn -0.00000000003934286577078616 -0 -1
vn 0.00000000008862732076009294 -0 -0.9999999403953552
vn 0.00000000008862732076009294 -0 -0.9999999403953552
vn 0 -0 -1
vn 0 -0 -1
vn 0 -0 -1
vn 0 -0 -1
vn 0 -0 -1
vn 0 -0 -1
vn 0 -0 -1
vn -0.000000000013114265749736287 -0 -1
vn -0.000000000013114265749736287 -0 -1
vn -0.000000000013114265749736287 -0 -1
f 3/3/3 2/2/2 1/1/1
f 6/6/6 5/5/5 4/4/4
f 8/8/8 7/7/7 3/3/3
f 9/9/9 8/8/8 3/3/3
f 12/12/12 11/11/11 10/10/10
f 15/15/15 14/14/14 13/13/13
f 3/3/3 17/17/17 16/16/16
f 20/20/20 19/19/19 18/18/18
f 23/23/23 22/22/22 21/21/21
f 25/25/25 3/3/3 24/24/24
f 24/24/24 3/3/3 26/26/26
f 26/26/26 3/3/3 27/27/27
f 3/3/3 7/7/7 28/28/28
f 29/29/29 27/27/27 3/3/3
f 29/29/29 3/3/3 30/30/30
f 30/30/30 3/3/3 31/31/31
f 31/31/31 3/3/3 32/32/32
f 32/32/32 3/3/3 33/33/33
f 33/33/33 3/3/3 34/34/34
f 37/37/37 36/36/36 35/35/35
f 40/40/40 39/39/39 38/38/38
f 3/3/3 41/41/41 34/34/34
f 44/44/44 43/43/43 42/42/42
f 47/47/47 46/46/46 45/45/45
f 50/50/50 49/49/49 48/48/48
f 53/53/53 52/52/52 51/51/51
f 56/56/56 55/55/55 54/54/54
f 59/59/59 58/58/58 57/57/57
f 62/62/62 61/61/61 60/60/60
f 65/65/65 64/64/64 63/63/63
f 67/67/67 66/66/66 61/61/61
f 69/69/69 68/68/68 41/41/41
f 72/72/72 71/71/71 70/70/70
f 71/71/71 68/68/68 69/69/69
f 41/41/41 74/74/74 73/73/73
f 77/77/77 76/76/76 75/75/75
