# VPXTOOL table OBJ file
# VPXTOOL OBJ file
# numVerts: 60 numFaces: 60
o BM_targetbank
v 64.66670227050781 14.917228698730469 -32.209190368652344
v 64.66673278808594 14.907124519348145 -29.268030166625977
v -64.73531341552734 14.907124519348145 -29.268030166625977
v 64.66673278808594 14.907124519348145 -29.268030166625977
v 64.66670227050781 14.917228698730469 -32.209190368652344
v 64.76956939697266 -7.666057109832764 -29.346525192260742
v -64.73533630371094 14.917228698730469 -32.209190368652344
v 64.66670227050781 14.917228698730469 -32.209190368652344
v -64.73531341552734 14.907124519348145 -29.268030166625977
v 64.66670227050781 14.917228698730469 -32.209190368652344
v 64.76956939697266 -10.62591552734375 -32.29355239868164
v 64.76956939697266 -7.666057109832764 -29.346525192260742
v 64.66670227050781 14.917228698730469 -32.209190368652344
v -64.73533630371094 14.917228698730469 -32.209190368652344
v -64.73528289794922 -10.62414836883545 -32.29526901245117
v -64.73528289794922 -7.668597221374512 -29.3439998626709
v -64.73531341552734 14.907124519348145 -29.268030166625977
v 64.66673278808594 14.907124519348145 -29.268030166625977
v 64.76956939697266 -7.666057109832764 -29.346525192260742
v -64.73528289794922 -7.668597221374512 -29.3439998626709
v 64.66673278808594 14.907124519348145 -29.268030166625977
v 64.76956939697266 -10.62591552734375 -32.29355239868164
v 64.66670227050781 14.917228698730469 -32.209190368652344
v -64.73528289794922 -10.62414836883545 -32.29526901245117
v -64.73533630371094 14.917228698730469 -32.209190368652344
v -64.73531341552734 14.907124519348145 -29.268030166625977
v -64.73528289794922 -7.668597221374512 -29.3439998626709
v -64.73528289794922 -10.62414836883545 -32.29526901245117
v -64.73533630371094 14.917228698730469 -32.209190368652344
v -64.73528289794922 -7.668597221374512 -29.3439998626709
v 64.76956939697266 -10.62591552734375 -32.29355239868164
v 64.76959991455078 -10.180936813354492 58.627593994140625
v 64.76956939697266 -7.666057109832764 -29.346525192260742
v 64.76956939697266 -7.666057109832764 -29.346525192260742
v 64.76956939697266 -7.239797115325928 58.61330032348633
v -64.73528289794922 -7.668597221374512 -29.3439998626709
v -64.73528289794922 -10.62414836883545 -32.29526901245117
v -64.73528289794922 -10.180936813354492 58.627586364746094
v 64.76956939697266 -10.62591552734375 -32.29355239868164
v 64.76959991455078 -10.180936813354492 58.627593994140625
v 64.76956939697266 -7.239797115325928 58.61330032348633
v 64.76956939697266 -7.666057109832764 -29.346525192260742
v -64.73528289794922 -10.180936813354492 58.627586364746094
v -64.73528289794922 -10.62414836883545 -32.29526901245117
v -64.73528289794922 -7.668597221374512 -29.3439998626709
v -64.73528289794922 -10.180936813354492 58.627586364746094
v 64.76959991455078 -10.180936813354492 58.627593994140625
v 64.76956939697266 -10.62591552734375 -32.29355239868164
v 64.76956939697266 -7.239797115325928 58.61330032348633
v -64.73531341552734 -7.239797115325928 58.6132926940918
v -64.73528289794922 -7.668597221374512 -29.3439998626709
v -64.73531341552734 -7.239797115325928 58.6132926940918
v -64.73528289794922 -10.180936813354492 58.627586364746094
v -64.73528289794922 -7.668597221374512 -29.3439998626709
v 64.76959991455078 -10.180936813354492 58.627593994140625
v -64.73528289794922 -10.180936813354492 58.627586364746094
v 64.76956939697266 -7.239797115325928 58.61330032348633
v -64.73528289794922 -10.180936813354492 58.627586364746094
v -64.73531341552734 -7.239797115325928 58.6132926940918
v 64.76956939697266 -7.239797115325928 58.61330032348633
vt 0.0033956686966121197 0.9843641519546509
vt 0.0033956686966121197 0.9843641519546509
vt 0.0033955336548388004 0.9687516689300537
vt 0.0033956686966121197 0.9843641519546509
vt 0.0033956686966121197 0.9843641519546509
vt 0.023838471621274948 0.9843733310699463
vt 0.0033955336548388004 0.9687516689300537
vt 0.0033956686966121197 0.9843641519546509
vt 0.0033955336548388004 0.9687516689300537
vt 0.0033956686966121197 0.9843641519546509
vt 0.023838471621274948 0.9843733310699463
vt 0.023838471621274948 0.9843733310699463
vt 0.0033956686966121197 0.9843641519546509
vt 0.0033955336548388004 0.9687516689300537
vt 0.023838471621274948 0.9687608480453491
vt 0.023838471621274948 0.9687608480453491
vt 0.0033955336548388004 0.9687516689300537
vt 0.0033956686966121197 0.9843641519546509
vt 0.023838471621274948 0.9843733310699463
vt 0.023838471621274948 0.9687608480453491
vt 0.0033956686966121197 0.9843641519546509
vt 0.023838471621274948 0.9843733310699463
vt 0.0033956686966121197 0.9843641519546509
vt 0.023838471621274948 0.9687608480453491
vt 0.0033955336548388004 0.9687516689300537
vt 0.0033955336548388004 0.9687516689300537
vt 0.023838471621274948 0.9687608480453491
vt 0.023838471621274948 0.9687608480453491
vt 0.0033955336548388004 0.9687516689300537
vt 0.023838471621274948 0.9687608480453491
vt 0.004075598903000355 0.9608137607574463
vt 0.06665226817131042 0.9608137607574463
vt 0.004075598903000355 0.9608137607574463
vt 0.004075598903000355 0.9608137607574463
vt 0.06665226817131042 0.9608137607574463
vt 0.004075463395565748 0.9452012777328491
vt 0.004075463395565748 0.9452012777328491
vt 0.06665226817131042 0.9452012777328491
vt 0.004075598903000355 0.9608137607574463
vt 0.06665226817131042 0.9608137607574463
vt 0.06665226817131042 0.9608137607574463
vt 0.004075598903000355 0.9608137607574463
vt 0.06665226817131042 0.9452012777328491
vt 0.004075463395565748 0.9452012777328491
vt 0.004075463395565748 0.9452012777328491
vt 0.06665226817131042 0.9452012777328491
vt 0.06665226817131042 0.9608137607574463
vt 0.004075598903000355 0.9608137607574463
vt 0.06665226817131042 0.9608137607574463
vt 0.06665226817131042 0.9452012777328491
vt 0.004075463395565748 0.9452012777328491
vt 0.06665226817131042 0.9452012777328491
vt 0.06665226817131042 0.9452012777328491
vt 0.004075463395565748 0.9452012777328491
vt 0.06665226817131042 0.9608137607574463
vt 0.06665226817131042 0.9452012777328491
vt 0.06665226817131042 0.9608137607574463
vt 0.06665226817131042 0.9452012777328491
vt 0.06665226817131042 0.9452012777328491
vt 0.06665226817131042 0.9608137607574463
vn 0 0.9999940991401672 0.003435450838878751
vn 0 0.9999940991401672 0.003435450838878751
vn 0 0.9999940991401672 0.003435450838878751
vn 0.9999896287918091 0.004555790685117245 0.000006264358944463311
vn 0.9999896287918091 0.004555790685117245 0.000006264358944463311
vn 0.9999896287918091 0.004555790685117245 0.000006264358944463311
vn 0 0.9999940991401672 0.0034353870432823896
vn 0 0.9999940991401672 0.0034353870432823896
vn 0 0.9999940991401672 0.0034353870432823896
vn 0.9999836087226868 0.0040403190068900585 -0.004058058373630047
vn 0.9999836087226868 0.0040403190068900585 -0.004058058373630047
vn 0.9999836087226868 0.0040403190068900585 -0.004058058373630047
vn 0 0.0033700738567858934 -0.9999943971633911
vn 0 0.0033700738567858934 -0.9999943971633911
vn 0 0.0033700738567858934 -0.9999943971633911
vn 0 -0.003365056123584509 0.9999942779541016
vn 0 -0.003365056123584509 0.9999942779541016
vn 0 -0.003365056123584509 0.9999942779541016
vn 0.000019552790035959333 -0.003477250225841999 0.9999939203262329
vn 0.000019552790035959333 -0.003477250225841999 0.9999939203262329
vn 0.000019552790035959333 -0.003477250225841999 0.9999939203262329
vn 0.000013227453564468306 0.0033027492463588715 -0.9999945759773254
vn 0.000013227453564468306 0.0033027492463588715 -0.9999945759773254
vn 0.000013227453564468306 0.0033027492463588715 -0.9999945759773254
vn -1 -0.0000015045266081870068 0.000009382308235217351
vn -1 -0.0000015045266081870068 0.000009382308235217351
vn -1 -0.0000015045266081870068 0.000009382308235217351
vn -1 -0.0000021920625385973835 0.0000021722585188399535
vn -1 -0.0000021920625385973835 0.0000021722585188399535
vn -1 -0.0000021920625385973835 0.0000021722585188399535
vn 1 -0.000005968573077552719 -0.0000003051293617772899
vn 1 -0.000005968573077552719 -0.0000003051293617772899
vn 1 -0.000005968573077552719 -0.0000003051293617772899
vn -0.000019706616512848996 0.999988317489624 -0.004846012685447931
vn -0.000019706616512848996 0.999988317489624 -0.004846012685447931
vn -0.000019706616512848996 0.999988317489624 -0.004846012685447931
vn -0.000013707754987990484 -0.9999881386756897 0.004874532110989094
vn -0.000013707754987990484 -0.9999881386756897 0.004874532110989094
vn -0.000013707754987990484 -0.9999881386756897 0.004874532110989094
vn 1 0.000012886956938018557 -0.00000004548748222532595
vn 1 0.000012886956938018557 -0.00000004548748222532595
vn 1 0.000012886956938018557 -0.00000004548748222532595
vn -1 -0 -0
vn -1 -0 -0
vn -1 -0 -0
vn -0.00000000026512986250892823 -0.9999879598617554 0.004894051235169172
vn -0.00000000026512986250892823 -0.9999879598617554 0.004894051235169172
vn -0.00000000026512986250892823 -0.9999879598617554 0.004894051235169172
vn 0.00000000020554785651327734 0.9999880790710449 -0.004875038284808397
vn 0.00000000020554785651327734 0.9999880790710449 -0.004875038284808397
vn 0.00000000020554785651327734 0.9999880790710449 -0.004875038284808397
vn -1 -0.000011126982826681342 -0.0000002681069304344419
vn -1 -0.000011126982826681342 -0.0000002681069304344419
vn -1 -0.000011126982826681342 -0.0000002681069304344419
vn -0.00000013113773889017466 0.004859891254454851 0.9999881982803345
vn -0.00000013113773889017466 0.004859891254454851 0.9999881982803345
vn -0.00000013113773889017466 0.004859891254454851 0.9999881982803345
vn -0.00000006556892628850619 0.004859895445406437 0.9999881982803345
vn -0.00000006556892628850619 0.004859895445406437 0.9999881982803345
vn -0.00000006556892628850619 0.004859895445406437 0.9999881982803345
f 3/3/3 2/2/2 1/1/1
f 6/6/6 5/5/5 4/4/4
f 9/9/9 8/8/8 7/7/7
f 12/12/12 11/11/11 10/10/10
f 15/15/15 14/14/14 13/13/13
f 18/18/18 17/17/17 16/16/16
f 21/21/21 20/20/20 19/19/19
f 24/24/24 23/23/23 22/22/22
f 27/27/27 26/26/26 25/25/25
f 30/30/30 29/29/29 28/28/28
f 33/33/33 32/32/32 31/31/31
f 36/36/36 35/35/35 34/34/34
f 39/39/39 38/38/38 37/37/37
f 42/42/42 41/41/41 40/40/40
f 45/45/45 44/44/44 43/43/43
f 48/48/48 47/47/47 46/46/46
f 51/51/51 50/50/50 49/49/49
f 54/54/54 53/53/53 52/52/52
f 57/57/57 56/56/56 55/55/55
f 60/60/60 59/59/59 58/58/58
