# VPXTOOL table OBJ file
# VPXTOOL OBJ file
# numVerts: 57 numFaces: 75
o LM_inserts_L40_PF
v 564.8644409179688 1303.5982666015625 35.32411575317383
v 566.4625244140625 1304.22412109375 35.32411575317383
v 566.4625244140625 1304.22412109375 0.030000003054738045
v 566.4625244140625 1304.22412109375 35.32411575317383
v 623.8643188476563 1320.217529296875 35.32411575317383
v 623.8643188476563 1320.217529296875 0.030000003054738045
v 564.8644409179688 1303.5982666015625 0.030000003054738045
v 564.8644409179688 1303.5982666015625 35.32411575317383
v 566.4625244140625 1304.22412109375 0.030000003054738045
v 566.4625244140625 1304.22412109375 0.030000003054738045
v 566.4625244140625 1304.22412109375 35.32411575317383
v 623.8643188476563 1320.217529296875 0.030000003054738045
v 623.8643188476563 1320.217529296875 0.030000003054738045
v 623.8643188476563 1320.217529296875 35.32411575317383
v 624.263427734375 1320.291748046875 0.030000003054738045
v 564.8644409179688 1303.5982666015625 0.030000003054738045
v 566.4625244140625 1304.22412109375 0.030000003054738045
v 495.6546630859375 1418.071044921875 0.030000003054738045
v 623.8643188476563 1320.217529296875 0.030000003054738045
v 545.8812866210938 1432.0653076171875 0.030000003054738045
v 566.4625244140625 1304.22412109375 0.030000003054738045
v 623.8643188476563 1320.217529296875 0.030000003054738045
v 624.263427734375 1320.291748046875 0.030000003054738045
v 665.080810546875 1432.1024169921875 0.030000003054738045
v 502.8299255371094 1420.0703125 0.030000003054738045
v 495.6546630859375 1418.071044921875 0.030000003054738045
v 566.4625244140625 1304.22412109375 0.030000003054738045
v 517.1803588867188 1424.068603515625 0.030000003054738045
v 502.8299255371094 1420.0703125 0.030000003054738045
v 566.4625244140625 1304.22412109375 0.030000003054738045
v 545.8812866210938 1432.0653076171875 0.030000003054738045
v 517.1803588867188 1424.068603515625 0.030000003054738045
v 566.4625244140625 1304.22412109375 0.030000003054738045
v 665.080810546875 1432.1024169921875 0.030000003054738045
v 664.8812866210938 1432.0653076171875 0.030000003054738045
v 623.8643188476563 1320.217529296875 0.030000003054738045
v 623.8643188476563 1320.217529296875 0.030000003054738045
v 664.8812866210938 1432.0653076171875 0.030000003054738045
v 545.8812866210938 1432.0653076171875 0.030000003054738045
v 665.080810546875 1432.1024169921875 0.030000003054738045
v 705.8982543945313 1543.9130859375 0.030000003054738045
v 664.8812866210938 1432.0653076171875 0.030000003054738045
v 517.1803588867188 1424.068603515625 0.030000003054738045
v 467.8982849121094 1543.9130859375 0.030000003054738045
v 502.8299255371094 1420.0703125 0.030000003054738045
v 586.8983154296875 1543.9130859375 0.030000003054738045
v 705.8982543945313 1543.9130859375 0.030000003054738045
v 586.8983154296875 1543.9130859375 0.030000003054738045
v 467.8982849121094 1543.9130859375 0.030000003054738045
v 439.19732666015625 1535.91650390625 0.030000003054738045
v 502.8299255371094 1420.0703125 0.030000003054738045
v 467.8982849121094 1543.9130859375 0.030000003054738045
v 627.9152221679688 1655.760986328125 0.030000003054738045
v 389.91522216796875 1655.760986328125 0.030000003054738045
v 439.19732666015625 1535.91650390625 0.030000003054738045
v 508.91522216796875 1655.760986328125 0.030000003054738045
v 508.91522216796875 1655.760986328125 0.030000003054738045
vt 0.42778733372688293 0.8005987405776978
vt 0.4283594489097595 0.8004647493362427
vt 0.3939606845378876 0.8003971576690674
vt 0.4283594489097595 0.8004647493362427
vt 0.44305193424224854 0.7956424951553345
vt 0.40861785411834717 0.7955310344696045
vt 0.393390029668808 0.8005324006080627
vt 0.42778733372688293 0.8005987405776978
vt 0.3939606845378876 0.8003971576690674
vt 0.3939606845378876 0.8003971576690674
vt 0.4283594489097595 0.8004647493362427
vt 0.40861785411834717 0.7955310344696045
vt 0.40861785411834717 0.7955310344696045
vt 0.44305193424224854 0.7956424951553345
vt 0.4086862802505493 0.7954971790313721
vt 0.393390029668808 0.8005324006080627
vt 0.3939606845378876 0.8003971576690674
vt 0.5015131235122681 0.806266188621521
vt 0.40861785411834717 0.7955310344696045
vt 0.5152686238288879 0.8018835186958313
vt 0.3939606845378876 0.8003971576690674
vt 0.40861785411834717 0.7955310344696045
vt 0.4086862802505493 0.7954971790313721
vt 0.5153052806854248 0.7915001511573792
vt 0.5034708380699158 0.8056424260139465
vt 0.5015131235122681 0.806266188621521
vt 0.3939606845378876 0.8003971576690674
vt 0.5073934197425842 0.8043926358222961
vt 0.5034708380699158 0.8056424260139465
vt 0.3939606845378876 0.8003971576690674
vt 0.5152686238288879 0.8018835186958313
vt 0.5073934197425842 0.8043926358222961
vt 0.3939606845378876 0.8003971576690674
vt 0.5153052806854248 0.7915001511573792
vt 0.5152686238288879 0.7915177345275879
vt 0.40861785411834717 0.7955310344696045
vt 0.40861785411834717 0.7955310344696045
vt 0.5152686238288879 0.7915177345275879
vt 0.5152686238288879 0.8018835186958313
vt 0.5153052806854248 0.7915001511573792
vt 0.6297478675842285 0.7872098684310913
vt 0.5152686238288879 0.7915177345275879
vt 0.5073934197425842 0.8043926358222961
vt 0.6297478675842285 0.808702290058136
vt 0.5034708380699158 0.8056424260139465
vt 0.6297478675842285 0.797956109046936
vt 0.6297478675842285 0.7872098684310913
vt 0.6297478675842285 0.797956109046936
vt 0.6297478675842285 0.808702290058136
vt 0.6212847232818604 0.8112853765487671
vt 0.5034708380699158 0.8056424260139465
vt 0.6297478675842285 0.808702290058136
vt 0.7529500722885132 0.7937294244766235
vt 0.7529500722885132 0.8160406351089478
vt 0.6212847232818604 0.8112853765487671
vt 0.7529500722885132 0.8048850297927856
vt 0.7529500722885132 0.8048850297927856
vn 0.36470335721969604 -0.9311237335205078 -0
vn 0.36470335721969604 -0.9311237335205078 -0
vn 0.36470335721969604 -0.9311237335205078 -0
vn 0.26839855313301086 -0.9633079767227173 -0
vn 0.26839855313301086 -0.9633079767227173 -0
vn 0.26839855313301086 -0.9633079767227173 -0
vn 0.36468544602394104 -0.9311308264732361 -0
vn 0.36468544602394104 -0.9311308264732361 -0
vn 0.36468544602394104 -0.9311308264732361 -0
vn 0.2683977484703064 -0.9633081555366516 -0
vn 0.2683977484703064 -0.9633081555366516 -0
vn 0.2683977484703064 -0.9633081555366516 -0
vn 0.1827775537967682 -0.9831543564796448 -0
vn 0.1827775537967682 -0.9831543564796448 -0
vn 0.1827775537967682 -0.9831543564796448 -0
vn -0.0000000011049048342925971 -0 -1
vn -0.0000000011049048342925971 -0 -1
vn -0.0000000011049048342925971 -0 -1
vn 0 -0 -1
vn 0 -0 -1
vn 0 -0 -1
vn -0.0000000006137489960700293 -0 -1
vn -0.0000000006137489960700293 -0 -1
vn -0.0000000006137489960700293 -0 -1
vn 0.00000000038171021898847357 -0 -1
vn 0.00000000038171021898847357 -0 -1
vn 0.00000000038171021898847357 -0 -1
vn -0.00000000022902650609335495 -0 -1
vn -0.00000000022902650609335495 -0 -1
vn -0.00000000022902650609335495 -0 -1
vn -0.000000000025447303986236847 -0 -1
vn -0.000000000025447303986236847 -0 -1
vn -0.000000000025447303986236847 -0 -1
vn 0.00000001938180815841406 -0 -0.9999999403953552
vn 0.00000001938180815841406 -0 -0.9999999403953552
vn 0.00000001938180815841406 -0 -0.9999999403953552
vn 0 -0 -0.9999999403953552
vn 0 -0 -0.9999999403953552
vn 0 -0 -0.9999999403953552
vn 0 -0 -1
vn 0 -0 -1
vn 0 -0 -1
vn 0 -0 -1
vn 0 -0 -1
vn 0 -0 -1
vn 0 -0 -1
vn 0 -0 -0.9999999403953552
vn 0 -0 -0.9999999403953552
vn -0.000000000025447262352873423 -0 -1
vn -0.000000000025447262352873423 -0 -1
vn -0.000000000025447262352873423 -0 -1
vn 0 -0 -0.9999999403953552
vn 0 -0 -0.9999999403953552
vn 0 -0 -1
vn 0 -0 -1
vn 0 -0 -1
vn 0 -0 -0.9999999403953552
f 3/3/3 2/2/2 1/1/1
f 6/6/6 5/5/5 4/4/4
f 9/9/9 8/8/8 7/7/7
f 12/12/12 11/11/11 10/10/10
f 15/15/15 14/14/14 13/13/13
f 18/18/18 17/17/17 16/16/16
f 21/21/21 20/20/20 19/19/19
f 24/24/24 23/23/23 22/22/22
f 27/27/27 26/26/26 25/25/25
f 30/30/30 29/29/29 28/28/28
f 33/33/33 32/32/32 31/31/31
f 36/36/36 35/35/35 34/34/34
f 39/39/39 38/38/38 37/37/37
f 42/42/42 41/41/41 40/40/40
f 45/45/45 44/44/44 43/43/43
f 20/20/20 46/46/46 42/42/42
f 43/43/43 44/44/44 20/20/20
f 48/48/48 47/47/47 38/38/38
f 51/51/51 50/50/50 49/49/49
f 52/52/52 48/48/48 39/39/39
f 48/48/48 53/53/53 47/47/47
f 55/55/55 54/54/54 44/44/44
f 44/44/44 56/56/56 46/46/46
f 48/48/48 57/57/57 53/53/53
f 54/54/54 56/56/56 44/44/44
