# VPXTOOL table OBJ file
# VPXTOOL OBJ file
# numVerts: 80 numFaces: 84
o LM_Journey_L84_sw04
v -16.799951553344727 -6.400031566619873 -50.791988372802734
v -16.80006217956543 7.999998092651367 -55.591983795166016
v -16.80006217956543 7.999998092651367 -52.39198684692383
v -16.799951553344727 -6.400031566619873 -50.791988372802734
v -16.80006217956543 7.999998092651367 -52.39198684692383
v -16.799951553344727 4.799954414367676 -47.59198760986328
v -16.799951553344727 -6.400031566619873 -50.791988372802734
v -16.799951553344727 -7.999998092651367 -55.591983795166016
v -16.80006217956543 7.999998092651367 -55.591983795166016
v -16.799951553344727 -7.999998092651367 -52.39198684692383
v -16.799951553344727 -6.400031566619873 -50.791988372802734
v 16.799951553344727 -6.3999762535095215 -50.791988372802734
v -16.799951553344727 -6.400031566619873 -50.791988372802734
v -16.799951553344727 -7.999998092651367 -52.39198684692383
v -16.799951553344727 -7.999998092651367 -55.591983795166016
v -16.799951553344727 -6.400031566619873 -50.791988372802734
v -16.799951553344727 4.799954414367676 -47.59198760986328
v -16.799951553344727 4.799954414367676 -4.391999244689941
v 16.799951553344727 -6.3999762535095215 -50.791988372802734
v 16.80006217956543 -1.5999664068222046 3.607999086380005
v 16.799951553344727 4.800009727478027 -4.391999244689941
v -16.799951553344727 -6.400031566619873 -50.791988372802734
v -16.799951553344727 4.799954414367676 -4.391999244689941
v -16.80006217956543 -1.6000217199325562 3.607999086380005
v 16.799951553344727 4.800009727478027 -4.391999244689941
v 16.80006217956543 -1.5999664068222046 3.607999086380005
v -16.799951553344727 4.799954414367676 -4.391999244689941
v 16.799951553344727 -6.3999762535095215 -50.791988372802734
v -16.799951553344727 -6.400031566619873 -50.791988372802734
v -16.799951553344727 -6.400031566619873 52.26681900024414
v 16.80006217956543 -1.5999664068222046 3.607999086380005
v -16.80006217956543 -1.6000217199325562 3.607999086380005
v -16.799951553344727 4.799954414367676 -4.391999244689941
v 3.2000434398651123 3.942575216293335 -4.391999244689941
v 3.2000434398651123 3.942575216293335 50.66682434082031
v 0 4.799954414367676 -4.391999244689941
v 16.80006217956543 -1.5999664068222046 3.607999086380005
v 16.799951553344727 -6.3999762535095215 -50.791988372802734
v 16.799951553344727 -6.3999762535095215 52.26681900024414
v 0 4.799954414367676 -4.391999244689941
v 0 4.799954414367676 50.66682434082031
v -3.2000434398651123 3.942575216293335 -4.391999244689941
v 5.542486667633057 1.6000217199325562 -4.391999244689941
v 5.542486667633057 1.6000217199325562 50.66682434082031
v 3.2000434398651123 3.942575216293335 -4.391999244689941
v -3.2000434398651123 3.942575216293335 -4.391999244689941
v -3.2000434398651123 3.942575216293335 50.66682434082031
v -5.542707443237305 1.6000217199325562 -4.391999244689941
v -16.80006217956543 -1.6000217199325562 3.607999086380005
v -16.799951553344727 -6.400031566619873 52.26681900024414
v -16.799951553344727 -6.400031566619873 -50.791988372802734
v -16.80006217956543 -1.6000217199325562 3.607999086380005
v 16.80006217956543 -1.5999664068222046 3.607999086380005
v 16.80006217956543 -1.5999664068222046 52.26681900024414
v 3.2000434398651123 3.942575216293335 50.66682434082031
v 0 4.799954414367676 50.66682434082031
v 0 4.799954414367676 -4.391999244689941
v 0 4.799954414367676 50.66682434082031
v -3.2000434398651123 3.942575216293335 50.66682434082031
v -3.2000434398651123 3.942575216293335 -4.391999244689941
v 5.542486667633057 1.6000217199325562 50.66682434082031
v 3.2000434398651123 3.942575216293335 50.66682434082031
v 3.2000434398651123 3.942575216293335 -4.391999244689941
v 16.799951553344727 -6.3999762535095215 52.26681900024414
v -3.2000434398651123 3.942575216293335 50.66682434082031
v -5.542707443237305 1.6000217199325562 50.66682434082031
v -5.542707443237305 1.6000217199325562 -4.391999244689941
v 5.542486667633057 1.6000217199325562 50.66682434082031
v 5.542486667633057 1.6000217199325562 -4.391999244689941
v 6.3999762535095215 -1.6000217199325562 50.66682434082031
v -5.542707443237305 1.6000217199325562 -4.391999244689941
v -5.542707443237305 1.6000217199325562 50.66682434082031
v -6.3999762535095215 -1.6000217199325562 50.66682434082031
v 16.80006217956543 -1.5999664068222046 3.607999086380005
v 16.799951553344727 -6.3999762535095215 52.26681900024414
v 16.80006217956543 -1.5999664068222046 52.26681900024414
v -16.80006217956543 -1.6000217199325562 52.26681900024414
v -16.80006217956543 -1.6000217199325562 3.607999086380005
v -16.80006217956543 -1.6000217199325562 52.26681900024414
v -16.799951553344727 -6.400031566619873 52.26681900024414
vt 0.07669013738632202 0.03918582201004028
vt 0.0849807932972908 0.0391840934753418
vt 0.085170216858387 0.039383113384246826
vt 0.07669013738632202 0.03918582201004028
vt 0.085170216858387 0.039383113384246826
vt 0.08354711532592773 0.039615094661712646
vt 0.07669013738632202 0.03918582201004028
vt 0.07544461637735367 0.03885465860366821
vt 0.0849807932972908 0.0391840934753418
vt 0.07564109563827515 0.03905355930328369
vt 0.07669013738632202 0.03918582201004028
vt 0.08816064894199371 0.03764718770980835
vt 0.07669013738632202 0.03918582201004028
vt 0.07564109563827515 0.03905355930328369
vt 0.07544461637735367 0.03885465860366821
vt 0.07669013738632202 0.03918582201004028
vt 0.08354711532592773 0.039615094661712646
vt 0.08608818799257278 0.04226541519165039
vt 0.08816064894199371 0.03764718770980835
vt 0.09406348317861557 0.04106795787811279
vt 0.0973639041185379 0.04071485996246338
vt 0.07669013738632202 0.03918582201004028
vt 0.08608818799257278 0.04226541519165039
vt 0.0827888622879982 0.04261749982833862
vt 0.0973639041185379 0.04071485996246338
vt 0.09406348317861557 0.04106795787811279
vt 0.08608818799257278 0.04226541519165039
vt 0.08816064894199371 0.03764718770980835
vt 0.07669013738632202 0.03918582201004028
vt 0.08283077925443649 0.04542571306228638
vt 0.09406348317861557 0.04106795787811279
vt 0.0827888622879982 0.04261749982833862
vt 0.08608818799257278 0.04226541519165039
vt 0.09232022613286972 0.04132157564163208
vt 0.09538508951663971 0.04461538791656494
vt 0.091750867664814 0.04148674011230469
vt 0.09406348317861557 0.04106795787811279
vt 0.08816064894199371 0.03764718770980835
vt 0.09396949410438538 0.04387056827545166
vt 0.091750867664814 0.04148674011230469
vt 0.09482598304748535 0.044781386852264404
vt 0.09017190337181091 0.041616857051849365
vt 0.09173011779785156 0.04116576910018921
vt 0.0947999656200409 0.04445868730545044
vt 0.09232022613286972 0.04132157564163208
vt 0.09017190337181091 0.041616857051849365
vt 0.09326990693807602 0.04491221904754639
vt 0.08800612390041351 0.04167693853378296
vt 0.0827888622879982 0.04261749982833862
vt 0.08283077925443649 0.04542571306228638
vt 0.07669013738632202 0.03918582201004028
vt 0.0827888622879982 0.04261749982833862
vt 0.09406348317861557 0.04106795787811279
vt 0.09673984348773956 0.04396867752075195
vt 0.09538508951663971 0.04461538791656494
vt 0.09482598304748535 0.044781386852264404
vt 0.091750867664814 0.04148674011230469
vt 0.09482598304748535 0.044781386852264404
vt 0.09326990693807602 0.04491221904754639
vt 0.09017190337181091 0.041616857051849365
vt 0.0947999656200409 0.04445868730545044
vt 0.09538508951663971 0.04461538791656494
vt 0.09232022613286972 0.04132157564163208
vt 0.09396949410438538 0.04387056827545166
vt 0.09326990693807602 0.04491221904754639
vt 0.0911334827542305 0.04497265815734863
vt 0.08800612390041351 0.04167693853378296
vt 0.0947999656200409 0.04445868730545044
vt 0.09173011779785156 0.04116576910018921
vt 0.093229740858078 0.04435324668884277
vt 0.08800612390041351 0.04167693853378296
vt 0.0911334827542305 0.04497265815734863
vt 0.0889914408326149 0.044946253299713135
vt 0.09406348317861557 0.04106795787811279
vt 0.09396949410438538 0.04387056827545166
vt 0.09673984348773956 0.04396867752075195
vt 0.08561910688877106 0.045525550842285156
vt 0.0827888622879982 0.04261749982833862
vt 0.08561910688877106 0.045525550842285156
vt 0.08283077925443649 0.04542571306228638
vn -0.9999999403953552 -0.000007858856406528503 -0
vn -0.9999999403953552 -0.000007858856406528503 -0
vn -0.9999999403953552 -0.000007858856406528503 -0
vn -1 -0.000005560827958106529 0.000019325229004607536
vn -1 -0.000005560827958106529 0.000019325229004607536
vn -1 -0.000005560827958106529 0.000019325229004607536
vn -1 -0.000006991699137870455 0.0000023005820821708767
vn -1 -0.000006991699137870455 0.0000023005820821708767
vn -1 -0.000006991699137870455 0.0000023005820821708767
vn 0.0000011497536434035283 -0.7071136832237244 0.7070997953414917
vn 0.0000011497536434035283 -0.7071136832237244 0.7070997953414917
vn 0.0000011497536434035283 -0.7071136832237244 0.7070997953414917
vn -0.9999999403953552 0.0000012195062026876258 -0
vn -0.9999999403953552 0.0000012195062026876258 -0
vn -0.9999999403953552 0.0000012195062026876258 -0
vn -1 0.00000012904575896754977 -0
vn -1 0.00000012904575896754977 -0
vn -1 0.00000012904575896754977 -0
vn 1 0.00001292169326916337 -0.000003199554384991643
vn 1 0.00001292169326916337 -0.000003199554384991643
vn 1 0.00001292169326916337 -0.000003199554384991643
vn -1 0.00001292169326916337 -0.000003199554384991643
vn -1 0.00001292169326916337 -0.000003199554384991643
vn -1 0.00001292169326916337 -0.000003199554384991643
vn -0.0000012832819038521848 0.7808699011802673 0.624693751335144
vn -0.0000012832819038521848 0.7808699011802673 0.624693751335144
vn -0.0000012832819038521848 0.7808699011802673 0.624693751335144
vn 0.0000016433097016488318 -1 -0
vn 0.0000016433097016488318 -1 -0
vn 0.0000016433097016488318 -1 -0
vn -0.0000012832821312258602 0.7808698415756226 0.6246936917304993
vn -0.0000012832821312258602 0.7808698415756226 0.6246936917304993
vn -0.0000012832821312258602 0.7808698415756226 0.6246936917304993
vn 0.2587994337081909 0.9659311771392822 -0
vn 0.2587994337081909 0.9659311771392822 -0
vn 0.2587994337081909 0.9659311771392822 -0
vn 1 -0.000023021968445391394 -0
vn 1 -0.000023021968445391394 -0
vn 1 -0.000023021968445391394 -0
vn -0.2587994337081909 0.9659311771392822 -0
vn -0.2587994337081909 0.9659311771392822 -0
vn -0.2587994337081909 0.9659311771392822 -0
vn 0.7071234583854675 0.7070900797843933 -0
vn 0.7071234583854675 0.7070900797843933 -0
vn 0.7071234583854675 0.7070900797843933 -0
vn -0.7070901393890381 0.7071234583854675 -0
vn -0.7070901393890381 0.7071234583854675 -0
vn -0.7070901393890381 0.7071234583854675 -0
vn -1 -0.000023021968445391394 -0
vn -1 -0.000023021968445391394 -0
vn -1 -0.000023021968445391394 -0
vn -0.0000016432989013992483 1 -0
vn -0.0000016432989013992483 1 -0
vn -0.0000016432989013992483 1 -0
vn 0.25879940390586853 0.9659311771392822 -0
vn 0.25879940390586853 0.9659311771392822 -0
vn 0.25879940390586853 0.9659311771392822 -0
vn -0.25879940390586853 0.9659311771392822 -0
vn -0.25879940390586853 0.9659311771392822 -0
vn -0.25879940390586853 0.9659311771392822 -0
vn 0.7071233987808228 0.7070901393890381 -0
vn 0.7071233987808228 0.7070901393890381 -0
vn 0.7071233987808228 0.7070901393890381 -0
vn 0.0000016433097016488318 -1 -0
vn -0.7070900797843933 0.7071235179901123 -0
vn -0.7070900797843933 0.7071235179901123 -0
vn -0.7070900797843933 0.7071235179901123 -0
vn 0.9659228324890137 0.2588305175304413 -0
vn 0.9659228324890137 0.2588305175304413 -0
vn 0.9659228324890137 0.2588305175304413 -0
vn -0.965939462184906 0.2587681710720062 -0
vn -0.965939462184906 0.2587681710720062 -0
vn -0.965939462184906 0.2587681710720062 -0
vn 1 -0.00002309696537849959 -0
vn 1 -0.00002309696537849959 -0
vn 1 -0.00002309696537849959 -0
vn -0.0000016432989013992483 1 -0
vn -1 -0.00002309696537849959 -0
vn -1 -0.00002309696537849959 -0
vn -1 -0.00002309696537849959 -0
f 3/3/3 2/2/2 1/1/1
f 6/6/6 5/5/5 4/4/4
f 9/9/9 8/8/8 7/7/7
f 12/12/12 11/11/11 10/10/10
f 15/15/15 14/14/14 13/13/13
f 18/18/18 17/17/17 16/16/16
f 21/21/21 20/20/20 19/19/19
f 24/24/24 23/23/23 22/22/22
f 27/27/27 26/26/26 25/25/25
f 30/30/30 29/29/29 28/28/28
f 33/33/33 32/32/32 31/31/31
f 36/36/36 35/35/35 34/34/34
f 39/39/39 38/38/38 37/37/37
f 42/42/42 41/41/41 40/40/40
f 45/45/45 44/44/44 43/43/43
f 48/48/48 47/47/47 46/46/46
f 51/51/51 50/50/50 49/49/49
f 54/54/54 53/53/53 52/52/52
f 57/57/57 56/56/56 55/55/55
f 60/60/60 59/59/59 58/58/58
f 63/63/63 62/62/62 61/61/61
f 30/30/30 28/28/28 64/64/64
f 67/67/67 66/66/66 65/65/65
f 70/70/70 69/69/69 68/68/68
f 73/73/73 72/72/72 71/71/71
f 76/76/76 75/75/75 74/74/74
f 54/54/54 52/52/52 77/77/77
f 80/80/80 79/79/79 78/78/78
