# VPXTOOL table OBJ file
# VPXTOOL OBJ file
# numVerts: 90 numFaces: 102
o BM_sw04
v 13.599907875061035 7.999998092651367 -52.39198684692383
v 16.799951553344727 7.999998092651367 -55.591983795166016
v 16.799951553344727 7.999998092651367 -52.39198684692383
v -16.80006217956543 7.999998092651367 -55.591983795166016
v 13.599907875061035 7.999998092651367 -52.39198684692383
v 16.799951553344727 7.999998092651367 -52.39198684692383
v 13.600018501281738 4.800009727478027 -47.59198760986328
v -13.600018501281738 7.999998092651367 -52.39198684692383
v 13.600018501281738 4.800009727478027 -52.39198684692383
v 13.599907875061035 7.999998092651367 -52.39198684692383
v 13.600018501281738 4.800009727478027 -47.59198760986328
v 16.799951553344727 7.999998092651367 -52.39198684692383
v 16.799951553344727 4.800009727478027 -47.59198760986328
v 13.600018501281738 4.800009727478027 -47.59198760986328
v -16.80006217956543 7.999998092651367 -52.39198684692383
v -13.600018501281738 4.800009727478027 -52.39198684692383
v 13.600018501281738 4.800009727478027 -52.39198684692383
v 13.600018501281738 4.800009727478027 -47.59198760986328
v -16.80006217956543 7.999998092651367 -52.39198684692383
v -13.600018501281738 7.999998092651367 -52.39198684692383
v -16.799951553344727 4.799954414367676 -47.59198760986328
v 16.799951553344727 7.999998092651367 -55.591983795166016
v -16.80006217956543 7.999998092651367 -55.591983795166016
v -16.799951553344727 -7.999998092651367 -55.591983795166016
v -13.600018501281738 4.800009727478027 -47.59198760986328
v -13.600018501281738 7.999998092651367 -52.39198684692383
v -13.600018501281738 4.800009727478027 -47.59198760986328
v -16.799951553344727 4.799954414367676 -47.59198760986328
v -16.799951553344727 -6.400031566619873 -50.791988372802734
v -16.80006217956543 7.999998092651367 -55.591983795166016
v -16.80006217956543 7.999998092651367 -52.39198684692383
v 16.80006217956543 -7.999998092651367 -55.591983795166016
v -16.799951553344727 -6.400031566619873 -50.791988372802734
v -16.80006217956543 7.999998092651367 -52.39198684692383
v -16.799951553344727 4.799954414367676 -47.59198760986328
v 13.600018501281738 4.800009727478027 -47.59198760986328
v 16.799951553344727 4.800009727478027 -47.59198760986328
v 16.799951553344727 4.800009727478027 -4.391999244689941
v -16.799951553344727 -6.400031566619873 -50.791988372802734
v -16.799951553344727 -7.999998092651367 -55.591983795166016
v -16.80006217956543 7.999998092651367 -55.591983795166016
v 13.600018501281738 4.800009727478027 -47.59198760986328
v 16.799951553344727 4.800009727478027 -4.391999244689941
v -13.600018501281738 4.800009727478027 -47.59198760986328
v -16.799951553344727 4.799954414367676 -4.391999244689941
v -16.799951553344727 4.799954414367676 -47.59198760986328
v -13.600018501281738 4.800009727478027 -47.59198760986328
v -16.799951553344727 -6.400031566619873 -50.791988372802734
v -16.799951553344727 -7.999998092651367 -52.39198684692383
v -16.799951553344727 -7.999998092651367 -55.591983795166016
v -16.799951553344727 -6.400031566619873 -50.791988372802734
v -16.799951553344727 4.799954414367676 -47.59198760986328
v -16.799951553344727 4.799954414367676 -4.391999244689941
v 16.799951553344727 4.800009727478027 -4.391999244689941
v -16.799951553344727 4.799954414367676 -4.391999244689941
v -13.600018501281738 4.800009727478027 -47.59198760986328
v -16.799951553344727 -6.400031566619873 -50.791988372802734
v -16.799951553344727 4.799954414367676 -4.391999244689941
v -16.80006217956543 -1.6000217199325562 3.607999086380005
v 3.2000434398651123 3.942575216293335 -4.391999244689941
v 3.2000434398651123 3.942575216293335 50.66682434082031
v 0 4.799954414367676 -4.391999244689941
v 0 4.799954414367676 -4.391999244689941
v 0 4.799954414367676 50.66682434082031
v -3.2000434398651123 3.942575216293335 -4.391999244689941
v -3.2000434398651123 3.942575216293335 -4.391999244689941
v -3.2000434398651123 3.942575216293335 50.66682434082031
v -5.542707443237305 1.6000217199325562 -4.391999244689941
v -16.80006217956543 -1.6000217199325562 3.607999086380005
v -16.799951553344727 -6.400031566619873 52.26681900024414
v -16.799951553344727 -6.400031566619873 -50.791988372802734
v -16.80006217956543 -1.6000217199325562 3.607999086380005
v 16.80006217956543 -1.5999664068222046 3.607999086380005
v 16.80006217956543 -1.5999664068222046 52.26681900024414
v 3.2000434398651123 3.942575216293335 50.66682434082031
v 0 4.799954414367676 50.66682434082031
v 0 4.799954414367676 -4.391999244689941
v 0 4.799954414367676 50.66682434082031
v -3.2000434398651123 3.942575216293335 50.66682434082031
v -3.2000434398651123 3.942575216293335 -4.391999244689941
v -3.2000434398651123 3.942575216293335 50.66682434082031
v -5.542707443237305 1.6000217199325562 50.66682434082031
v -5.542707443237305 1.6000217199325562 -4.391999244689941
v -5.542707443237305 1.6000217199325562 -4.391999244689941
v -5.542707443237305 1.6000217199325562 50.66682434082031
v -6.3999762535095215 -1.6000217199325562 50.66682434082031
v -16.80006217956543 -1.6000217199325562 52.26681900024414
v -16.80006217956543 -1.6000217199325562 3.607999086380005
v -16.80006217956543 -1.6000217199325562 52.26681900024414
v -16.799951553344727 -6.400031566619873 52.26681900024414
vt 0.20599135756492615 0.29711031913757324
vt 0.2068091630935669 0.29642200469970703
vt 0.2069716602563858 0.2968187928199768
vt 0.19642271101474762 0.2995068430900574
vt 0.20599135756492615 0.29711031913757324
vt 0.2069716602563858 0.2968187928199768
vt 0.2045138031244278 0.297574520111084
vt 0.19759109616279602 0.2996084690093994
vt 0.2042672485113144 0.29698044061660767
vt 0.20599135756492615 0.29711031913757324
vt 0.2045138031244278 0.297574520111084
vt 0.2069716602563858 0.2968187928199768
vt 0.20549389719963074 0.2972830533981323
vt 0.2045138031244278 0.297574520111084
vt 0.19659483432769775 0.2999047040939331
vt 0.1958577036857605 0.299476683139801
vt 0.2042672485113144 0.29698044061660767
vt 0.2045138031244278 0.297574520111084
vt 0.19659483432769775 0.2999047040939331
vt 0.19759109616279602 0.2996084690093994
vt 0.19511987268924713 0.30036836862564087
vt 0.2068091630935669 0.29642200469970703
vt 0.19642271101474762 0.2995068430900574
vt 0.18775692582130432 0.2988482117652893
vt 0.1961158812046051 0.30007219314575195
vt 0.19759109616279602 0.2996084690093994
vt 0.1961158812046051 0.30007219314575195
vt 0.19511987268924713 0.30036836862564087
vt 0.1888887882232666 0.29951024055480957
vt 0.19642271101474762 0.2995068430900574
vt 0.19659483432769775 0.2999047040939331
vt 0.19820062816143036 0.29577499628067017
vt 0.1888887882232666 0.29951024055480957
vt 0.19659483432769775 0.2999047040939331
vt 0.19511987268924713 0.30036836862564087
vt 0.2045138031244278 0.297574520111084
vt 0.20549389719963074 0.2972830533981323
vt 0.20767554640769958 0.3025670647621155
vt 0.1888887882232666 0.29951024055480957
vt 0.18775692582130432 0.2988482117652893
vt 0.19642271101474762 0.2995068430900574
vt 0.2045138031244278 0.297574520111084
vt 0.20767554640769958 0.3025670647621155
vt 0.1961158812046051 0.30007219314575195
vt 0.19742901623249054 0.305666983127594
vt 0.19511987268924713 0.30036836862564087
vt 0.1961158812046051 0.30007219314575195
vt 0.1888887882232666 0.29951024055480957
vt 0.187935471534729 0.29924583435058594
vt 0.18775692582130432 0.2988482117652893
vt 0.1888887882232666 0.29951024055480957
vt 0.19511987268924713 0.30036836862564087
vt 0.19742901623249054 0.305666983127594
vt 0.20767554640769958 0.3025670647621155
vt 0.19742901623249054 0.305666983127594
vt 0.1961158812046051 0.30007219314575195
vt 0.1888887882232666 0.29951024055480957
vt 0.19742901623249054 0.305666983127594
vt 0.19443081319332123 0.3063708543777466
vt 0.20309224724769592 0.30378007888793945
vt 0.20587731897830963 0.3103649616241455
vt 0.20257484912872314 0.30411022901535034
vt 0.20257484912872314 0.30411022901535034
vt 0.2053692787885666 0.31069689989089966
vt 0.20114000141620636 0.3043704032897949
vt 0.20114000141620636 0.3043704032897949
vt 0.20395521819591522 0.31095850467681885
vt 0.19917188584804535 0.30449050664901733
vt 0.19443081319332123 0.3063708543777466
vt 0.1944689154624939 0.31198495626449585
vt 0.1888887882232666 0.29951024055480957
vt 0.19443081319332123 0.3063708543777466
vt 0.20467635989189148 0.3032730221748352
vt 0.20710843801498413 0.3090720772743225
vt 0.20587731897830963 0.3103649616241455
vt 0.2053692787885666 0.31069689989089966
vt 0.20257484912872314 0.30411022901535034
vt 0.2053692787885666 0.31069689989089966
vt 0.20395521819591522 0.31095850467681885
vt 0.20114000141620636 0.3043704032897949
vt 0.20395521819591522 0.31095850467681885
vt 0.2020138055086136 0.311079204082489
vt 0.19917188584804535 0.30449050664901733
vt 0.19917188584804535 0.30449050664901733
vt 0.2020138055086136 0.311079204082489
vt 0.20006726682186127 0.31102651357650757
vt 0.19700273871421814 0.31218457221984863
vt 0.19443081319332123 0.3063708543777466
vt 0.19700273871421814 0.31218457221984863
vt 0.1944689154624939 0.31198495626449585
vn 0 1 -0
vn 0 1 -0
vn 0 1 -0
vn 0 1 -0
vn 0 0.8320513963699341 0.5546985864639282
vn 0 0.8320513963699341 0.5546985864639282
vn 0 0.8320513963699341 0.5546985864639282
vn 0 1 -0
vn -1 -0.00003495861164992675 -0
vn -1 -0.00003495861164992675 -0
vn -1 -0.00003495861164992675 -0
vn 0 0.8320513367652893 0.5546987056732178
vn 0 0.8320513367652893 0.5546987056732178
vn 0 0.8320513367652893 0.5546987056732178
vn 0 1 -0
vn 0 1 -0
vn 0 1 -0
vn 0 1 -0
vn 0 0.8320467472076416 0.5547054409980774
vn 0 0.8320467472076416 0.5547054409980774
vn 0 0.8320467472076416 0.5547054409980774
vn 0 -0 -1
vn 0 -0 -1
vn 0 -0 -1
vn 0 1 -0
vn -0.000014882143659633584 0.832051157951355 0.5546987652778625
vn -0.000014882143659633584 0.832051157951355 0.5546987652778625
vn -0.000014882143659633584 0.832051157951355 0.5546987652778625
vn -0.9999999403953552 -0.000007858856406528503 -0
vn -0.9999999403953552 -0.000007858856406528503 -0
vn -0.9999999403953552 -0.000007858856406528503 -0
vn 0 -0 -1
vn -1 -0.000005560827958106529 0.000019325229004607536
vn -1 -0.000005560827958106529 0.000019325229004607536
vn -1 -0.000005560827958106529 0.000019325229004607536
vn 0 0.9999999403953552 -0
vn 0 0.9999999403953552 -0
vn 0 0.9999999403953552 -0
vn -1 -0.000006991699137870455 0.0000023005820821708767
vn -1 -0.000006991699137870455 0.0000023005820821708767
vn -1 -0.000006991699137870455 0.0000023005820821708767
vn 0 1 -0.000000007970452742256384
vn 0 1 -0.000000007970452742256384
vn 0 1 -0.000000007970452742256384
vn -0.00001725506990624126 0.9999999403953552 -0
vn -0.00001725506990624126 0.9999999403953552 -0
vn -0.00001725506990624126 0.9999999403953552 -0
vn -0.9999999403953552 0.0000012195062026876258 -0
vn -0.9999999403953552 0.0000012195062026876258 -0
vn -0.9999999403953552 0.0000012195062026876258 -0
vn -1 0.00000012904575896754977 -0
vn -1 0.00000012904575896754977 -0
vn -1 0.00000012904575896754977 -0
vn -0.0000016433095879619941 0.9999999403953552 0.0000011528106824698625
vn -0.0000016433095879619941 0.9999999403953552 0.0000011528106824698625
vn -0.0000016433095879619941 0.9999999403953552 0.0000011528106824698625
vn -1 0.00001292169326916337 -0.000003199554384991643
vn -1 0.00001292169326916337 -0.000003199554384991643
vn -1 0.00001292169326916337 -0.000003199554384991643
vn 0.2587994337081909 0.9659311771392822 -0
vn 0.2587994337081909 0.9659311771392822 -0
vn 0.2587994337081909 0.9659311771392822 -0
vn -0.2587994337081909 0.9659311771392822 -0
vn -0.2587994337081909 0.9659311771392822 -0
vn -0.2587994337081909 0.9659311771392822 -0
vn -0.7070901393890381 0.7071234583854675 -0
vn -0.7070901393890381 0.7071234583854675 -0
vn -0.7070901393890381 0.7071234583854675 -0
vn -1 -0.000023021968445391394 -0
vn -1 -0.000023021968445391394 -0
vn -1 -0.000023021968445391394 -0
vn -0.0000016432989013992483 1 -0
vn -0.0000016432989013992483 1 -0
vn -0.0000016432989013992483 1 -0
vn 0.25879940390586853 0.9659311771392822 -0
vn 0.25879940390586853 0.9659311771392822 -0
vn 0.25879940390586853 0.9659311771392822 -0
vn -0.25879940390586853 0.9659311771392822 -0
vn -0.25879940390586853 0.9659311771392822 -0
vn -0.25879940390586853 0.9659311771392822 -0
vn -0.7070900797843933 0.7071235179901123 -0
vn -0.7070900797843933 0.7071235179901123 -0
vn -0.7070900797843933 0.7071235179901123 -0
vn -0.965939462184906 0.2587681710720062 -0
vn -0.965939462184906 0.2587681710720062 -0
vn -0.965939462184906 0.2587681710720062 -0
vn -0.0000016432989013992483 1 -0
vn -1 -0.00002309696537849959 -0
vn -1 -0.00002309696537849959 -0
vn -1 -0.00002309696537849959 -0
f 3/3/3 2/2/2 1/1/1
f 2/2/2 4/4/4 1/1/1
f 7/7/7 6/6/6 5/5/5
f 4/4/4 8/8/8 1/1/1
f 11/11/11 10/10/10 9/9/9
f 14/14/14 13/13/13 12/12/12
f 4/4/4 15/15/15 8/8/8
f 18/18/18 17/17/17 16/16/16
f 21/21/21 20/20/20 19/19/19
f 24/24/24 23/23/23 22/22/22
f 18/18/18 16/16/16 25/25/25
f 28/28/28 27/27/27 26/26/26
f 31/31/31 30/30/30 29/29/29
f 24/24/24 22/22/22 32/32/32
f 35/35/35 34/34/34 33/33/33
f 38/38/38 37/37/37 36/36/36
f 41/41/41 40/40/40 39/39/39
f 44/44/44 43/43/43 42/42/42
f 47/47/47 46/46/46 45/45/45
f 50/50/50 49/49/49 48/48/48
f 53/53/53 52/52/52 51/51/51
f 56/56/56 55/55/55 54/54/54
f 59/59/59 58/58/58 57/57/57
f 62/62/62 61/61/61 60/60/60
f 65/65/65 64/64/64 63/63/63
f 68/68/68 67/67/67 66/66/66
f 71/71/71 70/70/70 69/69/69
f 74/74/74 73/73/73 72/72/72
f 77/77/77 76/76/76 75/75/75
f 80/80/80 79/79/79 78/78/78
f 83/83/83 82/82/82 81/81/81
f 86/86/86 85/85/85 84/84/84
f 74/74/74 72/72/72 87/87/87
f 90/90/90 89/89/89 88/88/88
