# VPXTOOL table OBJ file
# VPXTOOL OBJ file
# numVerts: 68 numFaces: 87
o LM_Journey_L69_PF
v 233.51522827148438 1203.505615234375 0.030000003054738045
v 123.47950744628906 1170.4234619140625 0.030000003054738045
v 233.2833251953125 1203.2523193359375 0.030000003054738045
v 233.51522827148438 1203.505615234375 0.030000003054738045
v 233.2833251953125 1203.2523193359375 0.030000003054738045
v 343.087158203125 1236.0811767578125 0.030000003054738045
v 163.06243896484375 1317.53662109375 0.030000003054738045
v 233.51522827148438 1203.505615234375 0.030000003054738045
v 343.087158203125 1236.0811767578125 0.030000003054738045
v 343.55096435546875 1236.587890625 0.030000003054738045
v 163.06243896484375 1317.53662109375 0.030000003054738045
v 108.04457092285156 1300.99560546875 0.030000003054738045
v 123.47950744628906 1170.4234619140625 0.030000003054738045
v 343.55096435546875 1236.587890625 0.030000003054738045
v 343.087158203125 1236.0811767578125 0.030000003054738045
v 452.8909606933594 1268.909912109375 0.030000003054738045
v 343.55096435546875 1236.587890625 0.030000003054738045
v 273.09814453125 1350.6187744140625 0.030000003054738045
v 233.51522827148438 1203.505615234375 0.030000003054738045
v 453.12286376953125 1269.163330078125 0.030000003054738045
v 343.55096435546875 1236.587890625 0.030000003054738045
v 452.8909606933594 1268.909912109375 0.030000003054738045
v 453.586669921875 1269.6700439453125 0.030000003054738045
v 218.08029174804688 1334.07763671875 0.030000003054738045
v 163.06243896484375 1317.53662109375 0.030000003054738045
v 233.51522827148438 1203.505615234375 0.030000003054738045
v 273.09814453125 1350.6187744140625 0.030000003054738045
v 218.08029174804688 1334.07763671875 0.030000003054738045
v 233.51522827148438 1203.505615234375 0.030000003054738045
v 453.586669921875 1269.6700439453125 0.030000003054738045
v 383.1338806152344 1383.700927734375 0.030000003054738045
v 343.55096435546875 1236.587890625 0.030000003054738045
v 328.11602783203125 1367.1597900390625 0.030000003054738045
v 343.55096435546875 1236.587890625 0.030000003054738045
v 92.60963439941406 1431.567626953125 0.030000003054738045
v 108.04457092285156 1300.99560546875 0.030000003054738045
v 383.1338806152344 1383.700927734375 0.030000003054738045
v 218.08029174804688 1334.07763671875 0.030000003054738045
v 202.64535522460938 1464.6497802734375 0.030000003054738045
v 273.09814453125 1350.6187744140625 0.030000003054738045
v 202.64535522460938 1464.6497802734375 0.030000003054738045
v 92.60963439941406 1431.567626953125 0.030000003054738045
v 163.06243896484375 1317.53662109375 0.030000003054738045
v 328.11602783203125 1367.1597900390625 0.030000003054738045
v 312.68109130859375 1497.7320556640625 0.030000003054738045
v 383.1338806152344 1383.700927734375 0.030000003054738045
v 312.68109130859375 1497.7320556640625 0.030000003054738045
v 202.64535522460938 1464.6497802734375 0.030000003054738045
v 273.09814453125 1350.6187744140625 0.030000003054738045
v 132.1925506591797 1578.6807861328125 0.030000003054738045
v 422.716796875 1530.8140869140625 0.030000003054738045
v 312.68109130859375 1497.7320556640625 0.030000003054738045
v 383.1338806152344 1383.700927734375 0.030000003054738045
v 242.22828674316406 1611.7630615234375 0.030000003054738045
v 187.21041870117188 1595.2218017578125 0.030000003054738045
v 132.1925506591797 1578.6807861328125 0.030000003054738045
v 202.64535522460938 1464.6497802734375 0.030000003054738045
v 242.22828674316406 1611.7630615234375 0.030000003054738045
v 187.21041870117188 1595.2218017578125 0.030000003054738045
v 202.64535522460938 1464.6497802734375 0.030000003054738045
v 422.716796875 1530.8140869140625 0.030000003054738045
v 352.2640075683594 1644.8450927734375 0.030000003054738045
v 297.2461242675781 1628.30419921875 0.030000003054738045
v 242.22828674316406 1611.7630615234375 0.030000003054738045
v 312.68109130859375 1497.7320556640625 0.030000003054738045
v 352.2640075683594 1644.8450927734375 0.030000003054738045
v 297.2461242675781 1628.30419921875 0.030000003054738045
v 312.68109130859375 1497.7320556640625 0.030000003054738045
vt 0.035305656492710114 0.41177433729171753
vt 0.007176992949098349 0.42043566703796387
vt 0.035088278353214264 0.41179168224334717
vt 0.035305656492710114 0.41177433729171753
vt 0.035088278353214264 0.41179168224334717
vt 0.0635458305478096 0.4029785394668579
vt 0.13661973178386688 0.4183826446533203
vt 0.035305656492710114 0.41177433729171753
vt 0.0635458305478096 0.4029785394668579
vt 0.06398941576480865 0.40294212102890015
vt 0.13661973178386688 0.4183826446533203
vt 0.12148799747228622 0.42285192012786865
vt 0.007176992949098349 0.42043566703796387
vt 0.06398941576480865 0.40294212102890015
vt 0.0635458305478096 0.4029785394668579
vt 0.0925656408071518 0.39399123191833496
vt 0.06398941576480865 0.40294212102890015
vt 0.1673467606306076 0.4093071222305298
vt 0.035305656492710114 0.41177433729171753
vt 0.09279178082942963 0.39397215843200684
vt 0.06398941576480865 0.40294212102890015
vt 0.0925656408071518 0.39399123191833496
vt 0.0932442769408226 0.3939340114593506
vt 0.1519051194190979 0.4138679504394531
vt 0.13661973178386688 0.4183826446533203
vt 0.035305656492710114 0.41177433729171753
vt 0.1673467606306076 0.4093071222305298
vt 0.1519051194190979 0.4138679504394531
vt 0.035305656492710114 0.41177433729171753
vt 0.0932442769408226 0.3939340114593506
vt 0.19870759546756744 0.40004444122314453
vt 0.06398941576480865 0.40294212102890015
vt 0.18294669687747955 0.40469956398010254
vt 0.06398941576480865 0.40294212102890015
vt 0.2452460080385208 0.42546790838241577
vt 0.12148799747228622 0.42285192012786865
vt 0.19870759546756744 0.40004444122314453
vt 0.1519051194190979 0.4138679504394531
vt 0.2782430350780487 0.41613638401031494
vt 0.1673467606306076 0.4093071222305298
vt 0.2782430350780487 0.41613638401031494
vt 0.2452460080385208 0.42546790838241577
vt 0.13661973178386688 0.4183826446533203
vt 0.18294669687747955 0.40469956398010254
vt 0.3119455575942993 0.4066053032875061
vt 0.19870759546756744 0.40004444122314453
vt 0.3119455575942993 0.4066053032875061
vt 0.2782430350780487 0.41613638401031494
vt 0.1673467606306076 0.4093071222305298
vt 0.3975338339805603 0.42348265647888184
vt 0.3463767468929291 0.3968682289123535
vt 0.3119455575942993 0.4066053032875061
vt 0.19870759546756744 0.40004444122314453
vt 0.43385079503059387 0.4136683940887451
vt 0.4155920445919037 0.4186025857925415
vt 0.3975338339805603 0.42348265647888184
vt 0.2782430350780487 0.41613638401031494
vt 0.43385079503059387 0.4136683940887451
vt 0.4155920445919037 0.4186025857925415
vt 0.2782430350780487 0.41613638401031494
vt 0.3463767468929291 0.3968682289123535
vt 0.4709831178188324 0.403633713722229
vt 0.4523134231567383 0.4086790680885315
vt 0.43385079503059387 0.4136683940887451
vt 0.3119455575942993 0.4066053032875061
vt 0.4709831178188324 0.403633713722229
vt 0.4523134231567383 0.4086790680885315
vt 0.3119455575942993 0.4066053032875061
vn 0 -0 -1
vn 0 -0 -1
vn 0 -0 -1
vn 0.0000000003017956717865644 -0 -1
vn 0.0000000003017956717865644 -0 -1
vn 0.0000000003017956717865644 -0 -1
vn 0 -0 -1
vn 0 -0 -0.9999999403953552
vn 0 -0 -0.9999999403953552
vn 0 -0 -0.9999999403953552
vn 0.000000000013114288301141475 -0 -1
vn 0.000000000013114288301141475 -0 -1
vn 0.000000000013114288301141475 -0 -1
vn 0.00000000030192257027827907 -0 -1
vn 0.00000000030192257027827907 -0 -1
vn 0.00000000030192257027827907 -0 -1
vn 0.00000000005245706299894515 -0 -1
vn 0.00000000005245706299894515 -0 -1
vn 0.00000000005245706299894515 -0 -1
vn 0 -0 -1
vn 0 -0 -1
vn 0 -0 -1
vn 0 -0 -1
vn 0.000000000013114265749736287 -0 -1
vn 0.000000000013114265749736287 -0 -1
vn 0.000000000013114265749736287 -0 -1
vn -0.00000000003934286577078616 -0 -1
vn -0.00000000003934286577078616 -0 -1
vn -0.00000000003934286577078616 -0 -1
vn 0.00000000005245701789613477 -0 -1
vn 0.00000000005245701789613477 -0 -1
vn 0.00000000005245701789613477 -0 -1
vn -0.00000000003934286577078616 -0 -1
vn -0.00000000003934286577078616 -0 -1
vn 0 -0 -1
vn 0 -0 -1
vn -0.00000000003934286577078616 -0 -1
vn 0 -0 -1
vn 0 -0 -1
vn 0 -0 -1
vn -0.000000000013114265749736287 -0 -1
vn -0.000000000013114265749736287 -0 -1
vn -0.000000000013114265749736287 -0 -1
vn 0 -0 -1
vn 0 -0 -1
vn 0 -0 -1
vn -0.0000000000131142431983311 -0 -1
vn -0.0000000000131142431983311 -0 -1
vn -0.0000000000131142431983311 -0 -1
vn 0 -0 -1
vn -0.000000000013114265749736287 -0 -1
vn -0.000000000013114265749736287 -0 -1
vn -0.000000000013114265749736287 -0 -1
vn 0 -0 -1
vn -0.00000000003934279638184712 -0 -1
vn -0.00000000003934279638184712 -0 -1
vn -0.00000000003934279638184712 -0 -1
vn 0.000000000013114265749736287 -0 -1
vn 0.000000000013114265749736287 -0 -1
vn 0.000000000013114265749736287 -0 -1
vn 0 -0 -1
vn 0 -0 -1
vn -0.00000000003934286577078616 -0 -1
vn -0.00000000003934286577078616 -0 -1
vn -0.00000000003934286577078616 -0 -1
vn 0.0000000000131142431983311 -0 -1
vn 0.0000000000131142431983311 -0 -1
vn 0.0000000000131142431983311 -0 -1
f 3/3/3 2/2/2 1/1/1
f 6/6/6 5/5/5 4/4/4
f 2/2/2 7/7/7 1/1/1
f 10/10/10 9/9/9 8/8/8
f 13/13/13 12/12/12 11/11/11
f 16/16/16 15/15/15 14/14/14
f 19/19/19 18/18/18 17/17/17
f 22/22/22 21/21/21 20/20/20
f 20/20/20 21/21/21 23/23/23
f 26/26/26 25/25/25 24/24/24
f 29/29/29 28/28/28 27/27/27
f 32/32/32 31/31/31 30/30/30
f 34/34/34 27/27/27 33/33/33
f 36/36/36 35/35/35 7/7/7
f 34/34/34 33/33/33 37/37/37
f 7/7/7 39/39/39 38/38/38
f 38/38/38 39/39/39 40/40/40
f 43/43/43 42/42/42 41/41/41
f 40/40/40 45/45/45 44/44/44
f 44/44/44 45/45/45 46/46/46
f 49/49/49 48/48/48 47/47/47
f 35/35/35 50/50/50 39/39/39
f 53/53/53 52/52/52 51/51/51
f 39/39/39 54/54/54 45/45/45
f 57/57/57 56/56/56 55/55/55
f 60/60/60 59/59/59 58/58/58
f 45/45/45 62/62/62 61/61/61
f 65/65/65 64/64/64 63/63/63
f 68/68/68 67/67/67 66/66/66
