# VPXTOOL table OBJ file
# VPXTOOL OBJ file
# numVerts: 88 numFaces: 141
o LM_Journey_L61_PF
v 126.5256118774414 1115.966796875 0.030000003054738045
v 198.60853576660156 1001.680908203125 0.030000003054738045
v 123.47950744628906 1170.4234619140625 0.030000003054738045
v 224.40798950195313 1118.9022216796875 0.030000003054738045
v 123.47950744628906 1170.4234619140625 0.030000003054738045
v 198.60853576660156 1001.680908203125 0.030000003054738045
v 63.12046432495117 1110.49853515625 0.030000003054738045
v 91.9723129272461 1107.80517578125 0.030000003054738045
v 117.81417083740234 1119.3106689453125 0.030000003054738045
v 124.37620544433594 1118.6209716796875 0.030000003054738045
v 126.5256118774414 1115.966796875 0.030000003054738045
v 123.47950744628906 1170.4234619140625 0.030000003054738045
v 123.47950744628906 1170.4234619140625 0.030000003054738045
v 117.81417083740234 1119.3106689453125 0.030000003054738045
v 121.18759155273438 1119.844970703125 0.030000003054738045
v 121.18759155273438 1119.844970703125 0.030000003054738045
v 124.37620544433594 1118.6209716796875 0.030000003054738045
v 55.230403900146484 1248.5611572265625 0.030000003054738045
v 47.34034729003906 1109.748779296875 0.030000003054738045
v 224.62652587890625 1119.388916015625 0.030000003054738045
v 123.47950744628906 1170.4234619140625 0.030000003054738045
v 224.40798950195313 1118.9022216796875 0.030000003054738045
v 224.9138946533203 1119.8946533203125 0.030000003054738045
v 123.47950744628906 1170.4234619140625 0.030000003054738045
v 224.62652587890625 1119.388916015625 0.030000003054738045
v 225.27752685546875 1120.38720703125 0.030000003054738045
v 224.9138946533203 1119.8946533203125 0.030000003054738045
v 225.72482299804688 1120.833740234375 0.030000003054738045
v 226.2631072998047 1121.2021484375 0.030000003054738045
v 232.93545532226563 1202.081787109375 0.030000003054738045
v 47.34034729003906 1248.186279296875 0.030000003054738045
v 232.95616149902344 1202.371826171875 0.030000003054738045
v 233.01412963867188 1202.67236328125 0.030000003054738045
v 233.1197509765625 1202.97021484375 0.030000003054738045
v 233.2833251953125 1203.2523193359375 0.030000003054738045
v 233.51522827148438 1203.505615234375 0.030000003054738045
v 85.40992736816406 1278.523681640625 0.030000003054738045
v 55.230403900146484 1248.5611572265625 0.030000003054738045
v 123.47950744628906 1170.4234619140625 0.030000003054738045
v 31.560232162475586 1247.4366455078125 0.030000003054738045
v 31.560232162475586 1108.999267578125 0.030000003054738045
v 47.34034729003906 1386.623779296875 0.030000003054738045
v 163.06243896484375 1317.53662109375 0.030000003054738045
v 100.49969482421875 1293.5048828125 0.030000003054738045
v 85.40992736816406 1278.523681640625 0.030000003054738045
v 123.47950744628906 1170.4234619140625 0.030000003054738045
v 123.47950744628906 1170.4234619140625 0.030000003054738045
v 108.04457092285156 1300.99560546875 0.030000003054738045
v 100.49969482421875 1293.5048828125 0.030000003054738045
v 163.06243896484375 1317.53662109375 0.030000003054738045
v 108.04457092285156 1300.99560546875 0.030000003054738045
v 123.47950744628906 1170.4234619140625 0.030000003054738045
v 47.34034729003906 1386.623779296875 0.030000003054738045
v 47.34034729003906 1248.186279296875 0.030000003054738045
v 55.230403900146484 1248.5611572265625 0.030000003054738045
v 85.40992736816406 1278.523681640625 0.030000003054738045
v 218.08029174804688 1334.07763671875 0.030000003054738045
v 163.06243896484375 1317.53662109375 0.030000003054738045
v 233.51522827148438 1203.505615234375 0.030000003054738045
v 85.40992736816406 1278.523681640625 0.030000003054738045
v 100.49969482421875 1293.5048828125 0.030000003054738045
v 47.34034729003906 1386.623779296875 0.030000003054738045
v 31.560232162475586 1385.8741455078125 0.030000003054738045
v 108.04457092285156 1300.99560546875 0.030000003054738045
v 77.5198745727539 1416.58642578125 0.030000003054738045
v 92.60963439941406 1431.567626953125 0.030000003054738045
v 108.04457092285156 1300.99560546875 0.030000003054738045
v 100.49969482421875 1293.5048828125 0.030000003054738045
v 77.5198745727539 1416.58642578125 0.030000003054738045
v 218.08029174804688 1334.07763671875 0.030000003054738045
v 202.64535522460938 1464.6497802734375 0.030000003054738045
v 202.64535522460938 1464.6497802734375 0.030000003054738045
v 92.60963439941406 1431.567626953125 0.030000003054738045
v 163.06243896484375 1317.53662109375 0.030000003054738045
v 39.45029067993164 1524.6866455078125 0.030000003054738045
v 54.5400505065918 1539.6678466796875 0.030000003054738045
v 54.5400505065918 1539.6678466796875 0.030000003054738045
v 39.45029067993164 1524.6866455078125 0.030000003054738045
v 77.5198745727539 1416.58642578125 0.030000003054738045
v 62.08493423461914 1547.158447265625 0.030000003054738045
v 54.5400505065918 1539.6678466796875 0.030000003054738045
v 92.60963439941406 1431.567626953125 0.030000003054738045
v 132.1925506591797 1578.6807861328125 0.030000003054738045
v 77.17469787597656 1562.1396484375 0.030000003054738045
v 62.08493423461914 1547.158447265625 0.030000003054738045
v 132.1925506591797 1578.6807861328125 0.030000003054738045
v 77.17469787597656 1562.1396484375 0.030000003054738045
v 92.60963439941406 1431.567626953125 0.030000003054738045
vt 0.6316543817520142 0.40168023109436035
vt 0.7341689467430115 0.3960381746292114
vt 0.6206855177879333 0.4045013189315796
vt 0.755397379398346 0.4018300771713257
vt 0.6206855177879333 0.4045013189315796
vt 0.7341689467430115 0.3960381746292114
vt 0.5521447062492371 0.4014018774032593
vt 0.5890167951583862 0.401265025138855
vt 0.6201803088188171 0.40185093879699707
vt 0.6285906434059143 0.4018157124519348
vt 0.6316543817520142 0.40168023109436035
vt 0.6206855177879333 0.4045013189315796
vt 0.6206855177879333 0.4045013189315796
vt 0.6201803088188171 0.40185093879699707
vt 0.624389111995697 0.4018782377243042
vt 0.624389111995697 0.4018782377243042
vt 0.6285906434059143 0.4018157124519348
vt 0.5201813578605652 0.40870964527130127
vt 0.5323001742362976 0.401363730430603
vt 0.75562983751297 0.401854932308197
vt 0.6206855177879333 0.4045013189315796
vt 0.755397379398346 0.4018300771713257
vt 0.7559478878974915 0.40188074111938477
vt 0.6206855177879333 0.4045013189315796
vt 0.75562983751297 0.401854932308197
vt 0.7563639283180237 0.40190595388412476
vt 0.7559478878974915 0.40188074111938477
vt 0.7568905353546143 0.40192878246307373
vt 0.7575398683547974 0.40194761753082275
vt 0.7586464881896973 0.4061829447746277
vt 0.50985187292099 0.4086889624595642
vt 0.7586463689804077 0.40619850158691406
vt 0.7586936950683594 0.4062146544456482
vt 0.7588031888008118 0.406230628490448
vt 0.7589895129203796 0.40624576807022095
vt 0.7592673301696777 0.40625935792922974
vt 0.5552810430526733 0.41037601232528687
vt 0.5201813578605652 0.40870964527130127
vt 0.6206855177879333 0.4045013189315796
vt 0.4891997277736664 0.40864771604537964
vt 0.512464165687561 0.40132570266723633
vt 0.4854642152786255 0.4166470766067505
vt 0.6535341739654541 0.41259145736694336
vt 0.5730699896812439 0.4112205505371094
vt 0.5552810430526733 0.41037601232528687
vt 0.6206855177879333 0.4045013189315796
vt 0.6206855177879333 0.4045013189315796
vt 0.5820252299308777 0.41164571046829224
vt 0.5730699896812439 0.4112205505371094
vt 0.6535341739654541 0.41259145736694336
vt 0.5820252299308777 0.41164571046829224
vt 0.6206855177879333 0.4045013189315796
vt 0.4854642152786255 0.4166470766067505
vt 0.50985187292099 0.4086889624595642
vt 0.5201813578605652 0.40870964527130127
vt 0.5552810430526733 0.41037601232528687
vt 0.7257694602012634 0.4135468006134033
vt 0.6535341739654541 0.41259145736694336
vt 0.7592673301696777 0.40625935792922974
vt 0.5552810430526733 0.41037601232528687
vt 0.5730699896812439 0.4112205505371094
vt 0.4854642152786255 0.4166470766067505
vt 0.46392586827278137 0.41660213470458984
vt 0.5820252299308777 0.41164571046829224
vt 0.521762490272522 0.4184608459472656
vt 0.5401698350906372 0.4193806052207947
vt 0.5820252299308777 0.41164571046829224
vt 0.5730699896812439 0.4112205505371094
vt 0.521762490272522 0.4184608459472656
vt 0.7257694602012634 0.4135468006134033
vt 0.6894738078117371 0.4214429259300232
vt 0.6894738078117371 0.4214429259300232
vt 0.5401698350906372 0.4193806052207947
vt 0.6535341739654541 0.41259145736694336
vt 0.44762110710144043 0.42529916763305664
vt 0.46631643176078796 0.4262850880622864
vt 0.46631643176078796 0.4262850880622864
vt 0.44762110710144043 0.42529916763305664
vt 0.521762490272522 0.4184608459472656
vt 0.4757331311702728 0.42678171396255493
vt 0.46631643176078796 0.4262850880622864
vt 0.5401698350906372 0.4193806052207947
vt 0.571934163570404 0.42889857292175293
vt 0.4947061836719513 0.4277822971343994
vt 0.4757331311702728 0.42678171396255493
vt 0.571934163570404 0.42889857292175293
vt 0.4947061836719513 0.4277822971343994
vt 0.5401698350906372 0.4193806052207947
vn 0 -0 -1
vn 0 -0 -1
vn 0 -0 -1
vn 0.000000000014826277358603868 -0 -1
vn 0.000000000014826277358603868 -0 -1
vn 0.000000000014826277358603868 -0 -1
vn 0 -0 -1
vn 0 -0 -1
vn 0 -0 -1
vn 0.0000000003357453759456064 -0 -0.9999999403953552
vn 0.0000000003357453759456064 -0 -0.9999999403953552
vn 0.0000000003357453759456064 -0 -0.9999999403953552
vn -0.000000001151829520651404 -0 -1
vn -0.000000001151829520651404 -0 -1
vn -0.000000001151829520651404 -0 -1
vn 0 -0 -1
vn 0 -0 -1
vn 0 -0 -1
vn 0 -0 -1
vn 0.00000000323279425451517 -0 -1
vn 0.00000000323279425451517 -0 -1
vn 0.00000000323279425451517 -0 -1
vn -0.000000002965174772384671 -0 -1
vn -0.000000002965174772384671 -0 -1
vn -0.000000002965174772384671 -0 -1
vn 0 -0 -1
vn 0 -0 -1
vn 0 -0 -1
vn 0 -0 -1
vn 0 -0 -1
vn 0 -0 -1
vn 0 -0 -1
vn 0 -0 -1
vn 0 -0 -1
vn 0 -0 -1
vn 0 -0 -1
vn -0.00000000008862758443806129 -0 -1
vn -0.00000000008862758443806129 -0 -1
vn -0.00000000008862758443806129 -0 -1
vn 0 -0 -1
vn 0 -0 -1
vn 0 -0 -1
vn 0 -0 -1
vn 0.00000000008862758443806129 -0 -1
vn 0.00000000008862758443806129 -0 -1
vn 0.00000000008862758443806129 -0 -1
vn 0 -0 -0.9999999403953552
vn 0 -0 -0.9999999403953552
vn 0 -0 -0.9999999403953552
vn 0.000000000013114288301141475 -0 -1
vn 0.000000000013114288301141475 -0 -1
vn 0.000000000013114288301141475 -0 -1
vn -0.0000000007145311009537636 -0 -1
vn -0.0000000007145311009537636 -0 -1
vn -0.0000000007145311009537636 -0 -1
vn 0 -0 -1
vn 0.000000000013114265749736287 -0 -1
vn 0.000000000013114265749736287 -0 -1
vn 0.000000000013114265749736287 -0 -1
vn 0.00000000008862732076009294 -0 -0.9999999403953552
vn 0.00000000008862732076009294 -0 -0.9999999403953552
vn 0.00000000008862732076009294 -0 -0.9999999403953552
vn 0 -0 -1
vn 0.00000000008862732076009294 -0 -0.9999999403953552
vn 0.00000000008862732076009294 -0 -0.9999999403953552
vn 0 -0 -1
vn 0 -0 -1
vn 0 -0 -1
vn 0 -0 -1
vn 0 -0 -1
vn 0 -0 -1
vn -0.000000000013114265749736287 -0 -1
vn -0.000000000013114265749736287 -0 -1
vn -0.000000000013114265749736287 -0 -1
vn 0 -0 -1
vn 0 -0 -1
vn -0.00000000008862784117713574 -0 -1
vn -0.00000000008862784117713574 -0 -1
vn -0.00000000008862784117713574 -0 -1
vn 0.0000000002658827602530778 -0 -1
vn 0.0000000002658827602530778 -0 -1
vn 0.0000000002658827602530778 -0 -1
vn 0 -0 -1
vn 0 -0 -1
vn 0 -0 -1
vn -0.00000000003934286577078616 -0 -1
vn -0.00000000003934286577078616 -0 -1
vn -0.00000000003934286577078616 -0 -1
f 3/3/3 2/2/2 1/1/1
f 6/6/6 5/5/5 4/4/4
f 8/8/8 7/7/7 3/3/3
f 9/9/9 8/8/8 3/3/3
f 12/12/12 11/11/11 10/10/10
f 15/15/15 14/14/14 13/13/13
f 3/3/3 17/17/17 16/16/16
f 7/7/7 19/19/19 18/18/18
f 22/22/22 21/21/21 20/20/20
f 25/25/25 24/24/24 23/23/23
f 27/27/27 3/3/3 26/26/26
f 26/26/26 3/3/3 28/28/28
f 28/28/28 3/3/3 29/29/29
f 3/3/3 7/7/7 18/18/18
f 30/30/30 29/29/29 3/3/3
f 18/18/18 19/19/19 31/31/31
f 30/30/30 3/3/3 32/32/32
f 32/32/32 3/3/3 33/33/33
f 33/33/33 3/3/3 34/34/34
f 34/34/34 3/3/3 35/35/35
f 35/35/35 3/3/3 36/36/36
f 39/39/39 38/38/38 37/37/37
f 42/42/42 41/41/41 40/40/40
f 41/41/41 42/42/42 31/31/31
f 3/3/3 43/43/43 36/36/36
f 46/46/46 45/45/45 44/44/44
f 49/49/49 48/48/48 47/47/47
f 52/52/52 51/51/51 50/50/50
f 55/55/55 54/54/54 53/53/53
f 56/56/56 18/18/18 42/42/42
f 59/59/59 58/58/58 57/57/57
f 62/62/62 61/61/61 60/60/60
f 42/42/42 40/40/40 63/63/63
f 65/65/65 64/64/64 61/61/61
f 67/67/67 66/66/66 43/43/43
f 42/42/42 69/69/69 68/68/68
f 69/69/69 66/66/66 67/67/67
f 43/43/43 71/71/71 70/70/70
f 74/74/74 73/73/73 72/72/72
f 42/42/42 63/63/63 75/75/75
f 69/69/69 42/42/42 75/75/75
f 66/66/66 69/69/69 76/76/76
f 79/79/79 78/78/78 77/77/77
f 82/82/82 81/81/81 80/80/80
f 66/66/66 83/83/83 71/71/71
f 85/85/85 84/84/84 66/66/66
f 88/88/88 87/87/87 86/86/86
