# VPXTOOL table OBJ file
# VPXTOOL OBJ file
# numVerts: 150 numFaces: 168
o BM_sw04
v 13.599907875061035 7.999998092651367 -52.39198684692383
v 16.799951553344727 7.999998092651367 -55.591983795166016
v 16.799951553344727 7.999998092651367 -52.39198684692383
v -16.80006217956543 7.999998092651367 -55.591983795166016
v 13.599907875061035 7.999998092651367 -52.39198684692383
v 16.799951553344727 7.999998092651367 -52.39198684692383
v 13.600018501281738 4.800009727478027 -47.59198760986328
v -13.600018501281738 7.999998092651367 -52.39198684692383
v 13.599907875061035 7.999998092651367 -52.39198684692383
v 13.600018501281738 4.800009727478027 -52.39198684692383
v -13.600018501281738 7.999998092651367 -52.39198684692383
v 13.600018501281738 4.800009727478027 -52.39198684692383
v 13.599907875061035 7.999998092651367 -52.39198684692383
v 13.600018501281738 4.800009727478027 -47.59198760986328
v 16.799951553344727 7.999998092651367 -52.39198684692383
v 16.799951553344727 4.800009727478027 -47.59198760986328
v 13.600018501281738 4.800009727478027 -47.59198760986328
v -16.80006217956543 7.999998092651367 -52.39198684692383
v 16.799951553344727 -6.3999762535095215 -50.791988372802734
v 16.799951553344727 7.999998092651367 -52.39198684692383
v 16.799951553344727 7.999998092651367 -55.591983795166016
v -13.600018501281738 4.800009727478027 -52.39198684692383
v -13.600018501281738 4.800009727478027 -52.39198684692383
v 13.600018501281738 4.800009727478027 -52.39198684692383
v 13.600018501281738 4.800009727478027 -47.59198760986328
v -16.80006217956543 7.999998092651367 -52.39198684692383
v -13.600018501281738 7.999998092651367 -52.39198684692383
v -16.799951553344727 4.799954414367676 -47.59198760986328
v 16.799951553344727 7.999998092651367 -55.591983795166016
v -16.80006217956543 7.999998092651367 -55.591983795166016
v -16.799951553344727 -7.999998092651367 -55.591983795166016
v 16.799951553344727 -6.3999762535095215 -50.791988372802734
v 16.799951553344727 4.800009727478027 -47.59198760986328
v 16.799951553344727 7.999998092651367 -52.39198684692383
v -13.600018501281738 4.800009727478027 -52.39198684692383
v -13.600018501281738 4.800009727478027 -47.59198760986328
v -13.600018501281738 7.999998092651367 -52.39198684692383
v -13.600018501281738 4.800009727478027 -47.59198760986328
v -13.600018501281738 7.999998092651367 -52.39198684692383
v -13.600018501281738 4.800009727478027 -47.59198760986328
v -16.799951553344727 4.799954414367676 -47.59198760986328
v 16.799951553344727 -6.3999762535095215 -50.791988372802734
v 16.799951553344727 7.999998092651367 -55.591983795166016
v 16.80006217956543 -7.999998092651367 -55.591983795166016
v -16.799951553344727 -6.400031566619873 -50.791988372802734
v -16.80006217956543 7.999998092651367 -55.591983795166016
v -16.80006217956543 7.999998092651367 -52.39198684692383
v 16.80006217956543 -7.999998092651367 -55.591983795166016
v -16.799951553344727 -6.400031566619873 -50.791988372802734
v -16.80006217956543 7.999998092651367 -52.39198684692383
v -16.799951553344727 4.799954414367676 -47.59198760986328
v 13.600018501281738 4.800009727478027 -47.59198760986328
v 16.799951553344727 4.800009727478027 -47.59198760986328
v 16.799951553344727 4.800009727478027 -4.391999244689941
v -16.799951553344727 -6.400031566619873 -50.791988372802734
v -16.799951553344727 -7.999998092651367 -55.591983795166016
v -16.80006217956543 7.999998092651367 -55.591983795166016
v 13.600018501281738 4.800009727478027 -47.59198760986328
v 16.799951553344727 4.800009727478027 -4.391999244689941
v -13.600018501281738 4.800009727478027 -47.59198760986328
v 16.80006217956543 -7.999998092651367 -55.591983795166016
v 16.80006217956543 -7.999998092651367 -52.39198684692383
v 16.799951553344727 -6.3999762535095215 -50.791988372802734
v 16.799951553344727 -6.3999762535095215 -50.791988372802734
v 16.799951553344727 4.800009727478027 -4.391999244689941
v 16.799951553344727 4.800009727478027 -47.59198760986328
v 16.80006217956543 -7.999998092651367 -52.39198684692383
v 16.80006217956543 -7.999998092651367 -55.591983795166016
v -16.799951553344727 -7.999998092651367 -52.39198684692383
v 16.80006217956543 -7.999998092651367 -52.39198684692383
v -16.799951553344727 -7.999998092651367 -52.39198684692383
v 16.799951553344727 -6.3999762535095215 -50.791988372802734
v -16.799951553344727 -7.999998092651367 -55.591983795166016
v -16.799951553344727 4.799954414367676 -4.391999244689941
v -16.799951553344727 4.799954414367676 -47.59198760986328
v -13.600018501281738 4.800009727478027 -47.59198760986328
v -16.799951553344727 -7.999998092651367 -52.39198684692383
v -16.799951553344727 -6.400031566619873 -50.791988372802734
v 16.799951553344727 -6.3999762535095215 -50.791988372802734
v -16.799951553344727 -6.400031566619873 -50.791988372802734
v -16.799951553344727 -7.999998092651367 -52.39198684692383
v -16.799951553344727 -7.999998092651367 -55.591983795166016
v -16.799951553344727 -6.400031566619873 -50.791988372802734
v -16.799951553344727 4.799954414367676 -47.59198760986328
v -16.799951553344727 4.799954414367676 -4.391999244689941
v 16.799951553344727 4.800009727478027 -4.391999244689941
v -16.799951553344727 4.799954414367676 -4.391999244689941
v -13.600018501281738 4.800009727478027 -47.59198760986328
v 16.799951553344727 -6.3999762535095215 -50.791988372802734
v 16.80006217956543 -1.5999664068222046 3.607999086380005
v 16.799951553344727 4.800009727478027 -4.391999244689941
v -16.799951553344727 -6.400031566619873 -50.791988372802734
v -16.799951553344727 4.799954414367676 -4.391999244689941
v -16.80006217956543 -1.6000217199325562 3.607999086380005
v 16.799951553344727 4.800009727478027 -4.391999244689941
v 16.80006217956543 -1.5999664068222046 3.607999086380005
v -16.799951553344727 4.799954414367676 -4.391999244689941
v 16.799951553344727 -6.3999762535095215 -50.791988372802734
v -16.799951553344727 -6.400031566619873 -50.791988372802734
v -16.799951553344727 -6.400031566619873 52.26681900024414
v 16.80006217956543 -1.5999664068222046 3.607999086380005
v -16.80006217956543 -1.6000217199325562 3.607999086380005
v -16.799951553344727 4.799954414367676 -4.391999244689941
v 3.2000434398651123 3.942575216293335 -4.391999244689941
v 3.2000434398651123 3.942575216293335 50.66682434082031
v 0 4.799954414367676 -4.391999244689941
v 16.80006217956543 -1.5999664068222046 3.607999086380005
v 16.799951553344727 -6.3999762535095215 -50.791988372802734
v 16.799951553344727 -6.3999762535095215 52.26681900024414
v 0 4.799954414367676 -4.391999244689941
v 0 4.799954414367676 50.66682434082031
v -3.2000434398651123 3.942575216293335 -4.391999244689941
v 5.542486667633057 1.6000217199325562 -4.391999244689941
v 5.542486667633057 1.6000217199325562 50.66682434082031
v 3.2000434398651123 3.942575216293335 -4.391999244689941
v -3.2000434398651123 3.942575216293335 -4.391999244689941
v -3.2000434398651123 3.942575216293335 50.66682434082031
v -5.542707443237305 1.6000217199325562 -4.391999244689941
v -16.80006217956543 -1.6000217199325562 3.607999086380005
v -16.799951553344727 -6.400031566619873 52.26681900024414
v -16.799951553344727 -6.400031566619873 -50.791988372802734
v -16.80006217956543 -1.6000217199325562 3.607999086380005
v 16.80006217956543 -1.5999664068222046 3.607999086380005
v 16.80006217956543 -1.5999664068222046 52.26681900024414
v 3.2000434398651123 3.942575216293335 50.66682434082031
v 0 4.799954414367676 50.66682434082031
v 0 4.799954414367676 -4.391999244689941
v 0 4.799954414367676 50.66682434082031
v -3.2000434398651123 3.942575216293335 50.66682434082031
v -3.2000434398651123 3.942575216293335 -4.391999244689941
v 5.542486667633057 1.6000217199325562 50.66682434082031
v 3.2000434398651123 3.942575216293335 50.66682434082031
v 3.2000434398651123 3.942575216293335 -4.391999244689941
v 16.799951553344727 -6.3999762535095215 52.26681900024414
v -3.2000434398651123 3.942575216293335 50.66682434082031
v -5.542707443237305 1.6000217199325562 50.66682434082031
v -5.542707443237305 1.6000217199325562 -4.391999244689941
v 5.542486667633057 1.6000217199325562 50.66682434082031
v 5.542486667633057 1.6000217199325562 -4.391999244689941
v 6.3999762535095215 -1.6000217199325562 50.66682434082031
v -5.542707443237305 1.6000217199325562 -4.391999244689941
v -5.542707443237305 1.6000217199325562 50.66682434082031
v -6.3999762535095215 -1.6000217199325562 50.66682434082031
v 16.80006217956543 -1.5999664068222046 3.607999086380005
v 16.799951553344727 -6.3999762535095215 52.26681900024414
v 16.80006217956543 -1.5999664068222046 52.26681900024414
v -16.80006217956543 -1.6000217199325562 52.26681900024414
v -16.80006217956543 -1.6000217199325562 3.607999086380005
v -16.80006217956543 -1.6000217199325562 52.26681900024414
v -16.799951553344727 -6.400031566619873 52.26681900024414
vt 0.07676054537296295 0.18312698602676392
vt 0.07766050100326538 0.18278264999389648
vt 0.07783932238817215 0.18298113346099854
vt 0.06623079627752304 0.1843256950378418
vt 0.07676054537296295 0.18312698602676392
vt 0.07783932238817215 0.18298113346099854
vt 0.07513459026813507 0.18335914611816406
vt 0.06751655787229538 0.1843765377998352
vt 0.07676054537296295 0.18312698602676392
vt 0.0748632550239563 0.18306201696395874
vt 0.06751655787229538 0.1843765377998352
vt 0.0748632550239563 0.18306201696395874
vt 0.07676054537296295 0.18312698602676392
vt 0.07513459026813507 0.18335914611816406
vt 0.07783932238817215 0.18298113346099854
vt 0.07621312886476517 0.18321335315704346
vt 0.07513459026813507 0.18335914611816406
vt 0.06642021983861923 0.18452471494674683
vt 0.06941064447164536 0.18278878927230835
vt 0.07783932238817215 0.18298113346099854
vt 0.07766050100326538 0.18278264999389648
vt 0.06560905277729034 0.18431061506271362
vt 0.06560905277729034 0.18431061506271362
vt 0.0748632550239563 0.18306201696395874
vt 0.07513459026813507 0.18335914611816406
vt 0.06642021983861923 0.18452471494674683
vt 0.06751655787229538 0.1843765377998352
vt 0.06479711085557938 0.18475669622421265
vt 0.07766050100326538 0.18278264999389648
vt 0.06623079627752304 0.1843256950378418
vt 0.05669461563229561 0.1839962601661682
vt 0.06941064447164536 0.18278878927230835
vt 0.07621312886476517 0.18321335315704346
vt 0.07783932238817215 0.18298113346099854
vt 0.06560905277729034 0.18431061506271362
vt 0.06589316576719284 0.18460851907730103
vt 0.06751655787229538 0.1843765377998352
vt 0.06589316576719284 0.18460851907730103
vt 0.06751655787229538 0.1843765377998352
vt 0.06589316576719284 0.18460851907730103
vt 0.06479711085557938 0.18475669622421265
vt 0.06941064447164536 0.18278878927230835
vt 0.07766050100326538 0.18278264999389648
vt 0.06818731129169464 0.1824590563774109
vt 0.05794013664126396 0.18432742357254028
vt 0.06623079627752304 0.1843256950378418
vt 0.06642021983861923 0.18452471494674683
vt 0.06818731129169464 0.1824590563774109
vt 0.05794013664126396 0.18432742357254028
vt 0.06642021983861923 0.18452471494674683
vt 0.06479711085557938 0.18475669622421265
vt 0.07513459026813507 0.18335914611816406
vt 0.07621312886476517 0.18321335315704346
vt 0.07861390709877014 0.18585646152496338
vt 0.05794013664126396 0.18432742357254028
vt 0.05669461563229561 0.1839962601661682
vt 0.06623079627752304 0.1843256950378418
vt 0.07513459026813507 0.18335914611816406
vt 0.07861390709877014 0.18585646152496338
vt 0.06589316576719284 0.18460851907730103
vt 0.06818731129169464 0.1824590563774109
vt 0.06837315112352371 0.1826573610305786
vt 0.06941064447164536 0.18278878927230835
vt 0.06941064447164536 0.18278878927230835
vt 0.07861390709877014 0.18585646152496338
vt 0.07621312886476517 0.18321335315704346
vt 0.06837315112352371 0.1826573610305786
vt 0.06818731129169464 0.1824590563774109
vt 0.05689109489321709 0.1841951608657837
vt 0.06837315112352371 0.1826573610305786
vt 0.05689109489321709 0.1841951608657837
vt 0.06941064447164536 0.18278878927230835
vt 0.05669461563229561 0.1839962601661682
vt 0.06733819097280502 0.1874070167541504
vt 0.06479711085557938 0.18475669622421265
vt 0.06589316576719284 0.18460851907730103
vt 0.05689109489321709 0.1841951608657837
vt 0.05794013664126396 0.18432742357254028
vt 0.06941064447164536 0.18278878927230835
vt 0.05794013664126396 0.18432742357254028
vt 0.05689109489321709 0.1841951608657837
vt 0.05669461563229561 0.1839962601661682
vt 0.05794013664126396 0.18432742357254028
vt 0.06479711085557938 0.18475669622421265
vt 0.06733819097280502 0.1874070167541504
vt 0.07861390709877014 0.18585646152496338
vt 0.06733819097280502 0.1874070167541504
vt 0.06589316576719284 0.18460851907730103
vt 0.06941064447164536 0.18278878927230835
vt 0.07531348615884781 0.1862095594406128
vt 0.07861390709877014 0.18585646152496338
vt 0.05794013664126396 0.18432742357254028
vt 0.06733819097280502 0.1874070167541504
vt 0.06403885781764984 0.18775910139083862
vt 0.07861390709877014 0.18585646152496338
vt 0.07531348615884781 0.1862095594406128
vt 0.06733819097280502 0.1874070167541504
vt 0.06941064447164536 0.18278878927230835
vt 0.05794013664126396 0.18432742357254028
vt 0.06408078223466873 0.19056731462478638
vt 0.07531348615884781 0.1862095594406128
vt 0.06403885781764984 0.18775910139083862
vt 0.06733819097280502 0.1874070167541504
vt 0.07357022911310196 0.18646317720413208
vt 0.07663509249687195 0.18975698947906494
vt 0.07300087064504623 0.1866283416748047
vt 0.07531348615884781 0.1862095594406128
vt 0.06941064447164536 0.18278878927230835
vt 0.07521948963403702 0.18901216983795166
vt 0.07300087064504623 0.1866283416748047
vt 0.07607598602771759 0.1899229884147644
vt 0.07142189890146255 0.18675845861434937
vt 0.0729801207780838 0.1863073706626892
vt 0.07604996860027313 0.18960028886795044
vt 0.07357022911310196 0.18646317720413208
vt 0.07142189890146255 0.18675845861434937
vt 0.07451990991830826 0.1900538206100464
vt 0.06925611943006516 0.18681854009628296
vt 0.06403885781764984 0.18775910139083862
vt 0.06408078223466873 0.19056731462478638
vt 0.05794013664126396 0.18432742357254028
vt 0.06403885781764984 0.18775910139083862
vt 0.07531348615884781 0.1862095594406128
vt 0.0779898464679718 0.18911027908325195
vt 0.07663509249687195 0.18975698947906494
vt 0.07607598602771759 0.1899229884147644
vt 0.07300087064504623 0.1866283416748047
vt 0.07607598602771759 0.1899229884147644
vt 0.07451990991830826 0.1900538206100464
vt 0.07142189890146255 0.18675845861434937
vt 0.07604996860027313 0.18960028886795044
vt 0.07663509249687195 0.18975698947906494
vt 0.07357022911310196 0.18646317720413208
vt 0.07521948963403702 0.18901216983795166
vt 0.07451990991830826 0.1900538206100464
vt 0.07238347828388214 0.19011425971984863
vt 0.06925611943006516 0.18681854009628296
vt 0.07604996860027313 0.18960028886795044
vt 0.0729801207780838 0.1863073706626892
vt 0.07447974383831024 0.18949484825134277
vt 0.06925611943006516 0.18681854009628296
vt 0.07238347828388214 0.19011425971984863
vt 0.07024143636226654 0.19008785486221313
vt 0.07531348615884781 0.1862095594406128
vt 0.07521948963403702 0.18901216983795166
vt 0.0779898464679718 0.18911027908325195
vt 0.0668691098690033 0.19066715240478516
vt 0.06403885781764984 0.18775910139083862
vt 0.0668691098690033 0.19066715240478516
vt 0.06408078223466873 0.19056731462478638
vn 0 1 -0
vn 0 1 -0
vn 0 1 -0
vn 0 1 -0
vn 0 0.8320513963699341 0.5546985864639282
vn 0 0.8320513963699341 0.5546985864639282
vn 0 0.8320513963699341 0.5546985864639282
vn 0 1 -0
vn 0 -0 1
vn 0 -0 1
vn 0 -0 1
vn -1 -0.00003495861164992675 -0
vn -1 -0.00003495861164992675 -0
vn -1 -0.00003495861164992675 -0
vn 0 0.8320513367652893 0.5546987056732178
vn 0 0.8320513367652893 0.5546987056732178
vn 0 0.8320513367652893 0.5546987056732178
vn 0 1 -0
vn 1 -0.00000013549812649671367 -0
vn 1 -0.00000013549812649671367 -0
vn 1 -0.00000013549812649671367 -0
vn 0 -0 1
vn 0 1 -0
vn 0 1 -0
vn 0 1 -0
vn 0 0.8320467472076416 0.5547054409980774
vn 0 0.8320467472076416 0.5547054409980774
vn 0 0.8320467472076416 0.5547054409980774
vn 0 -0 -1
vn 0 -0 -1
vn 0 -0 -1
vn 1 -0.00000019511738003075152 -0
vn 1 -0.00000019511738003075152 -0
vn 1 -0.00000019511738003075152 -0
vn 1 -0 -0
vn 1 -0 -0
vn 1 -0 -0
vn 0 1 -0
vn -0.000014882143659633584 0.832051157951355 0.5546987652778625
vn -0.000014882143659633584 0.832051157951355 0.5546987652778625
vn -0.000014882143659633584 0.832051157951355 0.5546987652778625
vn 0.9999999403953552 0.000006991696864133701 0.000020705629140138626
vn 0.9999999403953552 0.000006991696864133701 0.000020705629140138626
vn 0.9999999403953552 0.000006991696864133701 0.000020705629140138626
vn -0.9999999403953552 -0.000007858856406528503 -0
vn -0.9999999403953552 -0.000007858856406528503 -0
vn -0.9999999403953552 -0.000007858856406528503 -0
vn 0 -0 -1
vn -1 -0.000005560827958106529 0.000019325229004607536
vn -1 -0.000005560827958106529 0.000019325229004607536
vn -1 -0.000005560827958106529 0.000019325229004607536
vn 0 0.9999999403953552 -0
vn 0 0.9999999403953552 -0
vn 0 0.9999999403953552 -0
vn -1 -0.000006991699137870455 0.0000023005820821708767
vn -1 -0.000006991699137870455 0.0000023005820821708767
vn -1 -0.000006991699137870455 0.0000023005820821708767
vn 0 1 -0.000000007970452742256384
vn 0 1 -0.000000007970452742256384
vn 0 1 -0.000000007970452742256384
vn 1 0.00007072894368320704 -0
vn 1 0.00007072894368320704 -0
vn 1 0.00007072894368320704 -0
vn 1 0.00000020647320297939586 -0
vn 1 0.00000020647320297939586 -0
vn 1 0.00000020647320297939586 -0
vn 0 -1 -0
vn 0 -1 -0
vn 0 -1 -0
vn 0 -0.7071014046669006 0.707112193107605
vn 0 -0.7071014046669006 0.707112193107605
vn 0 -0.7071014046669006 0.707112193107605
vn 0 -1 -0
vn -0.00001725506990624126 0.9999999403953552 -0
vn -0.00001725506990624126 0.9999999403953552 -0
vn -0.00001725506990624126 0.9999999403953552 -0
vn 0.0000011497536434035283 -0.7071136832237244 0.7070997953414917
vn 0.0000011497536434035283 -0.7071136832237244 0.7070997953414917
vn 0.0000011497536434035283 -0.7071136832237244 0.7070997953414917
vn -0.9999999403953552 0.0000012195062026876258 -0
vn -0.9999999403953552 0.0000012195062026876258 -0
vn -0.9999999403953552 0.0000012195062026876258 -0
vn -1 0.00000012904575896754977 -0
vn -1 0.00000012904575896754977 -0
vn -1 0.00000012904575896754977 -0
vn -0.0000016433095879619941 0.9999999403953552 0.0000011528106824698625
vn -0.0000016433095879619941 0.9999999403953552 0.0000011528106824698625
vn -0.0000016433095879619941 0.9999999403953552 0.0000011528106824698625
vn 1 0.00001292169326916337 -0.000003199554384991643
vn 1 0.00001292169326916337 -0.000003199554384991643
vn 1 0.00001292169326916337 -0.000003199554384991643
vn -1 0.00001292169326916337 -0.000003199554384991643
vn -1 0.00001292169326916337 -0.000003199554384991643
vn -1 0.00001292169326916337 -0.000003199554384991643
vn -0.0000012832819038521848 0.7808699011802673 0.624693751335144
vn -0.0000012832819038521848 0.7808699011802673 0.624693751335144
vn -0.0000012832819038521848 0.7808699011802673 0.624693751335144
vn 0.0000016433097016488318 -1 -0
vn 0.0000016433097016488318 -1 -0
vn 0.0000016433097016488318 -1 -0
vn -0.0000012832821312258602 0.7808698415756226 0.6246936917304993
vn -0.0000012832821312258602 0.7808698415756226 0.6246936917304993
vn -0.0000012832821312258602 0.7808698415756226 0.6246936917304993
vn 0.2587994337081909 0.9659311771392822 -0
vn 0.2587994337081909 0.9659311771392822 -0
vn 0.2587994337081909 0.9659311771392822 -0
vn 1 -0.000023021968445391394 -0
vn 1 -0.000023021968445391394 -0
vn 1 -0.000023021968445391394 -0
vn -0.2587994337081909 0.9659311771392822 -0
vn -0.2587994337081909 0.9659311771392822 -0
vn -0.2587994337081909 0.9659311771392822 -0
vn 0.7071234583854675 0.7070900797843933 -0
vn 0.7071234583854675 0.7070900797843933 -0
vn 0.7071234583854675 0.7070900797843933 -0
vn -0.7070901393890381 0.7071234583854675 -0
vn -0.7070901393890381 0.7071234583854675 -0
vn -0.7070901393890381 0.7071234583854675 -0
vn -1 -0.000023021968445391394 -0
vn -1 -0.000023021968445391394 -0
vn -1 -0.000023021968445391394 -0
vn -0.0000016432989013992483 1 -0
vn -0.0000016432989013992483 1 -0
vn -0.0000016432989013992483 1 -0
vn 0.25879940390586853 0.9659311771392822 -0
vn 0.25879940390586853 0.9659311771392822 -0
vn 0.25879940390586853 0.9659311771392822 -0
vn -0.25879940390586853 0.9659311771392822 -0
vn -0.25879940390586853 0.9659311771392822 -0
vn -0.25879940390586853 0.9659311771392822 -0
vn 0.7071233987808228 0.7070901393890381 -0
vn 0.7071233987808228 0.7070901393890381 -0
vn 0.7071233987808228 0.7070901393890381 -0
vn 0.0000016433097016488318 -1 -0
vn -0.7070900797843933 0.7071235179901123 -0
vn -0.7070900797843933 0.7071235179901123 -0
vn -0.7070900797843933 0.7071235179901123 -0
vn 0.9659228324890137 0.2588305175304413 -0
vn 0.9659228324890137 0.2588305175304413 -0
vn 0.9659228324890137 0.2588305175304413 -0
vn -0.965939462184906 0.2587681710720062 -0
vn -0.965939462184906 0.2587681710720062 -0
vn -0.965939462184906 0.2587681710720062 -0
vn 1 -0.00002309696537849959 -0
vn 1 -0.00002309696537849959 -0
vn 1 -0.00002309696537849959 -0
vn -0.0000016432989013992483 1 -0
vn -1 -0.00002309696537849959 -0
vn -1 -0.00002309696537849959 -0
vn -1 -0.00002309696537849959 -0
f 3/3/3 2/2/2 1/1/1
f 2/2/2 4/4/4 1/1/1
f 7/7/7 6/6/6 5/5/5
f 4/4/4 8/8/8 1/1/1
f 11/11/11 10/10/10 9/9/9
f 14/14/14 13/13/13 12/12/12
f 17/17/17 16/16/16 15/15/15
f 4/4/4 18/18/18 8/8/8
f 21/21/21 20/20/20 19/19/19
f 11/11/11 22/22/22 10/10/10
f 25/25/25 24/24/24 23/23/23
f 28/28/28 27/27/27 26/26/26
f 31/31/31 30/30/30 29/29/29
f 34/34/34 33/33/33 32/32/32
f 37/37/37 36/36/36 35/35/35
f 25/25/25 23/23/23 38/38/38
f 41/41/41 40/40/40 39/39/39
f 44/44/44 43/43/43 42/42/42
f 47/47/47 46/46/46 45/45/45
f 31/31/31 29/29/29 48/48/48
f 51/51/51 50/50/50 49/49/49
f 54/54/54 53/53/53 52/52/52
f 57/57/57 56/56/56 55/55/55
f 60/60/60 59/59/59 58/58/58
f 63/63/63 62/62/62 61/61/61
f 66/66/66 65/65/65 64/64/64
f 69/69/69 68/68/68 67/67/67
f 72/72/72 71/71/71 70/70/70
f 69/69/69 73/73/73 68/68/68
f 76/76/76 75/75/75 74/74/74
f 79/79/79 78/78/78 77/77/77
f 82/82/82 81/81/81 80/80/80
f 85/85/85 84/84/84 83/83/83
f 88/88/88 87/87/87 86/86/86
f 91/91/91 90/90/90 89/89/89
f 94/94/94 93/93/93 92/92/92
f 97/97/97 96/96/96 95/95/95
f 100/100/100 99/99/99 98/98/98
f 103/103/103 102/102/102 101/101/101
f 106/106/106 105/105/105 104/104/104
f 109/109/109 108/108/108 107/107/107
f 112/112/112 111/111/111 110/110/110
f 115/115/115 114/114/114 113/113/113
f 118/118/118 117/117/117 116/116/116
f 121/121/121 120/120/120 119/119/119
f 124/124/124 123/123/123 122/122/122
f 127/127/127 126/126/126 125/125/125
f 130/130/130 129/129/129 128/128/128
f 133/133/133 132/132/132 131/131/131
f 100/100/100 98/98/98 134/134/134
f 137/137/137 136/136/136 135/135/135
f 140/140/140 139/139/139 138/138/138
f 143/143/143 142/142/142 141/141/141
f 146/146/146 145/145/145 144/144/144
f 124/124/124 122/122/122 147/147/147
f 150/150/150 149/149/149 148/148/148
