# VPXTOOL table OBJ file
# VPXTOOL OBJ file
# numVerts: 97 numFaces: 141
o LM_Journey_L77_PF
v 233.1197509765625 1202.97021484375 0.030000003054738045
v 233.01412963867188 1202.67236328125 0.030000003054738045
v 342.5487365722656 1234.9212646484375 0.030000003054738045
v 233.2833251953125 1203.2523193359375 0.030000003054738045
v 233.1197509765625 1202.97021484375 0.030000003054738045
v 342.760009765625 1235.516845703125 0.030000003054738045
v 233.51522827148438 1203.505615234375 0.030000003054738045
v 233.2833251953125 1203.2523193359375 0.030000003054738045
v 343.087158203125 1236.0811767578125 0.030000003054738045
v 233.01412963867188 1202.67236328125 0.030000003054738045
v 342.4327697753906 1234.3201904296875 0.030000003054738045
v 342.5487365722656 1234.9212646484375 0.030000003054738045
v 233.1197509765625 1202.97021484375 0.030000003054738045
v 342.760009765625 1235.516845703125 0.030000003054738045
v 233.2833251953125 1203.2523193359375 0.030000003054738045
v 343.087158203125 1236.0811767578125 0.030000003054738045
v 233.51522827148438 1203.505615234375 0.030000003054738045
v 343.087158203125 1236.0811767578125 0.030000003054738045
v 343.55096435546875 1236.587890625 0.030000003054738045
v 342.5487365722656 1234.9212646484375 0.030000003054738045
v 342.4327697753906 1234.3201904296875 0.030000003054738045
v 451.9093933105469 1266.2684326171875 0.030000003054738045
v 342.760009765625 1235.516845703125 0.030000003054738045
v 342.5487365722656 1234.9212646484375 0.030000003054738045
v 452.0833740234375 1267.1700439453125 0.030000003054738045
v 452.4002380371094 1268.0635986328125 0.030000003054738045
v 343.55096435546875 1236.587890625 0.030000003054738045
v 343.087158203125 1236.0811767578125 0.030000003054738045
v 452.8909606933594 1268.909912109375 0.030000003054738045
v 343.55096435546875 1236.587890625 0.030000003054738045
v 273.09814453125 1350.6187744140625 0.030000003054738045
v 233.51522827148438 1203.505615234375 0.030000003054738045
v 451.9093933105469 1266.2684326171875 0.030000003054738045
v 451.86798095703125 1265.6881103515625 0.030000003054738045
v 451.9673767089844 1266.5689697265625 0.030000003054738045
v 452.0833740234375 1267.1700439453125 0.030000003054738045
v 452.1889953613281 1267.4678955078125 0.030000003054738045
v 452.4002380371094 1268.0635986328125 0.030000003054738045
v 452.5638122558594 1268.345703125 0.030000003054738045
v 343.087158203125 1236.0811767578125 0.030000003054738045
v 452.8909606933594 1268.909912109375 0.030000003054738045
v 452.5638122558594 1268.345703125 0.030000003054738045
v 453.12286376953125 1269.163330078125 0.030000003054738045
v 343.55096435546875 1236.587890625 0.030000003054738045
v 453.586669921875 1269.6700439453125 0.030000003054738045
v 561.30322265625 1297.056396484375 0.030000003054738045
v 561.3860473632813 1298.2169189453125 0.030000003054738045
v 561.6179809570313 1299.4189453125 0.030000003054738045
v 562.0404663085938 1300.6104736328125 0.030000003054738045
v 562.6947631835938 1301.73876953125 0.030000003054738045
v 453.586669921875 1269.6700439453125 0.030000003054738045
v 453.12286376953125 1269.163330078125 0.030000003054738045
v 562.6947631835938 1301.73876953125 0.030000003054738045
v 561.30322265625 1297.056396484375 0.030000003054738045
v 561.3860473632813 1298.2169189453125 0.030000003054738045
v 451.9093933105469 1266.2684326171875 0.030000003054738045
v 561.3860473632813 1298.2169189453125 0.030000003054738045
v 561.6179809570313 1299.4189453125 0.030000003054738045
v 452.0833740234375 1267.1700439453125 0.030000003054738045
v 561.6179809570313 1299.4189453125 0.030000003054738045
v 562.0404663085938 1300.6104736328125 0.030000003054738045
v 452.4002380371094 1268.0635986328125 0.030000003054738045
v 562.0404663085938 1300.6104736328125 0.030000003054738045
v 562.6947631835938 1301.73876953125 0.030000003054738045
v 452.8909606933594 1268.909912109375 0.030000003054738045
v 562.6947631835938 1301.73876953125 0.030000003054738045
v 563.6223754882813 1302.752197265625 0.030000003054738045
v 453.586669921875 1269.6700439453125 0.030000003054738045
v 453.586669921875 1269.6700439453125 0.030000003054738045
v 383.1338806152344 1383.700927734375 0.030000003054738045
v 343.55096435546875 1236.587890625 0.030000003054738045
v 328.11602783203125 1367.1597900390625 0.030000003054738045
v 273.09814453125 1350.6187744140625 0.030000003054738045
v 343.55096435546875 1236.587890625 0.030000003054738045
v 383.1338806152344 1383.700927734375 0.030000003054738045
v 563.6223754882813 1302.752197265625 0.030000003054738045
v 493.16961669921875 1416.783203125 0.030000003054738045
v 438.1517333984375 1400.2421875 0.030000003054738045
v 383.1338806152344 1383.700927734375 0.030000003054738045
v 453.586669921875 1269.6700439453125 0.030000003054738045
v 493.16961669921875 1416.783203125 0.030000003054738045
v 438.1517333984375 1400.2421875 0.030000003054738045
v 453.586669921875 1269.6700439453125 0.030000003054738045
v 493.16961669921875 1416.783203125 0.030000003054738045
v 563.6223754882813 1302.752197265625 0.030000003054738045
v 493.4800720214844 1416.9947509765625 0.030000003054738045
v 383.1338806152344 1383.700927734375 0.030000003054738045
v 312.68109130859375 1497.7320556640625 0.030000003054738045
v 328.11602783203125 1367.1597900390625 0.030000003054738045
v 438.1517333984375 1400.2421875 0.030000003054738045
v 422.716796875 1530.8140869140625 0.030000003054738045
v 493.4800720214844 1416.9947509765625 0.030000003054738045
v 422.716796875 1530.8140869140625 0.030000003054738045
v 493.16961669921875 1416.783203125 0.030000003054738045
v 422.716796875 1530.8140869140625 0.030000003054738045
v 312.68109130859375 1497.7320556640625 0.030000003054738045
v 383.1338806152344 1383.700927734375 0.030000003054738045
vt 0.6012523770332336 0.6301870942115784
vt 0.6009967923164368 0.6301939487457275
vt 0.6289370059967041 0.6214026808738708
vt 0.601494550704956 0.6301754713058472
vt 0.6012523770332336 0.6301870942115784
vt 0.6294582486152649 0.6213873028755188
vt 0.6017119288444519 0.6301580667495728
vt 0.601494550704956 0.6301754713058472
vt 0.629952073097229 0.6213623285293579
vt 0.6009967923164368 0.6301939487457275
vt 0.6284113526344299 0.6214102506637573
vt 0.6289370059967041 0.6214026808738708
vt 0.6012523770332336 0.6301870942115784
vt 0.6294582486152649 0.6213873028755188
vt 0.601494550704956 0.6301754713058472
vt 0.629952073097229 0.6213623285293579
vt 0.6017119288444519 0.6301580667495728
vt 0.629952073097229 0.6213623285293579
vt 0.6303956508636475 0.6213259100914001
vt 0.6289370059967041 0.6214026808738708
vt 0.6284113526344299 0.6214102506637573
vt 0.656615674495697 0.6124547719955444
vt 0.6294582486152649 0.6213873028755188
vt 0.6289370059967041 0.6214026808738708
vt 0.6574194431304932 0.6124408841133118
vt 0.6582165360450745 0.6124151945114136
vt 0.6303956508636475 0.6213259100914001
vt 0.629952073097229 0.6213623285293579
vt 0.658971905708313 0.612375020980835
vt 0.6303956508636475 0.6213259100914001
vt 0.7337530255317688 0.6276909112930298
vt 0.6017119288444519 0.6301580667495728
vt 0.656615674495697 0.6124547719955444
vt 0.6560984253883362 0.612457811832428
vt 0.6568834781646729 0.612450122833252
vt 0.6574194431304932 0.6124408841133118
vt 0.6576850414276123 0.6124323010444641
vt 0.6582165360450745 0.6124151945114136
vt 0.6584683060646057 0.6124017834663391
vt 0.629952073097229 0.6213623285293579
vt 0.658971905708313 0.612375020980835
vt 0.6584683060646057 0.6124017834663391
vt 0.6591980457305908 0.6123559474945068
vt 0.6303956508636475 0.6213259100914001
vt 0.6596505045890808 0.6123178005218506
vt 0.6843129992485046 0.603334903717041
vt 0.6853671073913574 0.6033254861831665
vt 0.6864597797393799 0.6033034324645996
vt 0.6875436305999756 0.6032655239105225
vt 0.6885708570480347 0.6032083034515381
vt 0.6596505045890808 0.6123178005218506
vt 0.6591980457305908 0.6123559474945068
vt 0.6885708570480347 0.6032083034515381
vt 0.6843129992485046 0.603334903717041
vt 0.6853671073913574 0.6033254861831665
vt 0.656615674495697 0.6124547719955444
vt 0.6853671073913574 0.6033254861831665
vt 0.6864597797393799 0.6033034324645996
vt 0.6574194431304932 0.6124408841133118
vt 0.6864597797393799 0.6033034324645996
vt 0.6875436305999756 0.6032655239105225
vt 0.6582165360450745 0.6124151945114136
vt 0.6875436305999756 0.6032655239105225
vt 0.6885708570480347 0.6032083034515381
vt 0.658971905708313 0.612375020980835
vt 0.6885708570480347 0.6032083034515381
vt 0.6894940137863159 0.6031284332275391
vt 0.6596505045890808 0.6123178005218506
vt 0.6596505045890808 0.6123178005218506
vt 0.7651138305664063 0.6184282302856445
vt 0.6303956508636475 0.6213259100914001
vt 0.7493529319763184 0.6230833530426025
vt 0.7337530255317688 0.6276909112930298
vt 0.6303956508636475 0.6213259100914001
vt 0.7651138305664063 0.6184282302856445
vt 0.6894940137863159 0.6031284332275391
vt 0.7971283197402954 0.6089724898338318
vt 0.7810381054878235 0.6137248873710632
vt 0.7651138305664063 0.6184282302856445
vt 0.6596505045890808 0.6123178005218506
vt 0.7971283197402954 0.6089724898338318
vt 0.7810381054878235 0.6137248873710632
vt 0.6596505045890808 0.6123178005218506
vt 0.7971283197402954 0.6089724898338318
vt 0.6894940137863159 0.6031284332275391
vt 0.797335147857666 0.6089454889297485
vt 0.7651138305664063 0.6184282302856445
vt 0.8783518075942993 0.6249891519546509
vt 0.7493529319763184 0.6230833530426025
vt 0.7810381054878235 0.6137248873710632
vt 0.9127829670906067 0.6152520179748535
vt 0.797335147857666 0.6089454889297485
vt 0.9127829670906067 0.6152520179748535
vt 0.7971283197402954 0.6089724898338318
vt 0.9127829670906067 0.6152520179748535
vt 0.8783518075942993 0.6249891519546509
vt 0.7651138305664063 0.6184282302856445
vn -0.0000000003648074620166142 -0 -1
vn -0.0000000003648074620166142 -0 -1
vn -0.0000000003648074620166142 -0 -1
vn -0.0000000006548064312994484 -0 -1
vn -0.0000000006548064312994484 -0 -1
vn -0.0000000006548064312994484 -0 -1
vn 0.0000000003017956717865644 -0 -1
vn 0.0000000003017956717865644 -0 -1
vn 0.0000000003017956717865644 -0 -1
vn 0 -0 -1
vn 0 -0 -1
vn 0 -0 -1
vn 0 -0 -1
vn 0 -0 -1
vn 0 -0 -1
vn 0 -0 -1
vn 0 -0 -0.9999999403953552
vn 0 -0 -0.9999999403953552
vn 0 -0 -0.9999999403953552
vn -0.0000000004418872212585967 -0 -1
vn -0.0000000004418872212585967 -0 -1
vn -0.0000000004418872212585967 -0 -1
vn -0.0000000006258678575399301 -0 -1
vn -0.0000000006258678575399301 -0 -1
vn -0.0000000006258678575399301 -0 -1
vn 0 -0 -1
vn 0.00000000030192257027827907 -0 -1
vn 0.00000000030192257027827907 -0 -1
vn 0.00000000030192257027827907 -0 -1
vn 0.00000000005245706299894515 -0 -1
vn 0.00000000005245706299894515 -0 -1
vn 0.00000000005245706299894515 -0 -1
vn 0 -0 -1
vn 0 -0 -1
vn 0 -0 -1
vn 0 -0 -1
vn 0 -0 -1
vn 0.0000000002974190893567652 -0 -1
vn 0.0000000002974190893567652 -0 -1
vn 0.0000000002974190893567652 -0 -1
vn 0 -0 -1
vn 0 -0 -1
vn 0 -0 -1
vn 0 -0 -1
vn 0 -0 -1
vn 0 -0 -1
vn 0 -0 -1
vn 0 -0 -1
vn 0 -0 -1
vn 0 -0 -1
vn 0.0000000005277197012709678 -0 -1
vn 0.0000000005277197012709678 -0 -1
vn 0.0000000005277197012709678 -0 -1
vn 0.00000000009800963512995864 -0 -1
vn 0.00000000009800963512995864 -0 -1
vn 0.00000000009800963512995864 -0 -1
vn 0.0000000004910227224819153 -0 -1
vn 0.0000000004910227224819153 -0 -1
vn 0.0000000004910227224819153 -0 -1
vn 0.0000000005217291043635441 -0 -1
vn 0.0000000005217291043635441 -0 -1
vn 0.0000000005217291043635441 -0 -1
vn 0.0000000004763477945424199 -0 -1
vn 0.0000000004763477945424199 -0 -1
vn 0.0000000004763477945424199 -0 -1
vn -0.0000000004526968799822839 -0 -1
vn -0.0000000004526968799822839 -0 -1
vn -0.0000000004526968799822839 -0 -1
vn 0.00000000005245701789613477 -0 -1
vn 0.00000000005245701789613477 -0 -1
vn 0.00000000005245701789613477 -0 -1
vn -0.00000000003934286577078616 -0 -1
vn -0.00000000003934286577078616 -0 -1
vn -0.00000000003934286577078616 -0 -1
vn -0.00000000003934286577078616 -0 -1
vn 0 -0 -1
vn 0 -0 -1
vn -0.00000000009180001897535206 -0 -1
vn -0.00000000009180001897535206 -0 -1
vn -0.00000000009180001897535206 -0 -1
vn 0.00000000006557132614659622 -0 -1
vn 0.00000000006557132614659622 -0 -1
vn 0.00000000006557132614659622 -0 -1
vn 0.0000000155147823477364 -0 -0.9999999403953552
vn 0.0000000155147823477364 -0 -0.9999999403953552
vn 0.0000000155147823477364 -0 -0.9999999403953552
vn 0 -0 -1
vn 0 -0 -1
vn 0 -0 -1
vn 0 -0 -1
vn 0 -0 -1
vn -0.0000000155147823477364 -0 -0.9999999403953552
vn -0.0000000155147823477364 -0 -0.9999999403953552
vn -0.0000000155147823477364 -0 -0.9999999403953552
vn -0.000000000013114265749736287 -0 -1
vn -0.000000000013114265749736287 -0 -1
vn -0.000000000013114265749736287 -0 -1
f 3/3/3 2/2/2 1/1/1
f 6/6/6 5/5/5 4/4/4
f 9/9/9 8/8/8 7/7/7
f 12/12/12 11/11/11 10/10/10
f 14/14/14 12/12/12 13/13/13
f 16/16/16 14/14/14 15/15/15
f 19/19/19 18/18/18 17/17/17
f 22/22/22 21/21/21 20/20/20
f 25/25/25 24/24/24 23/23/23
f 14/14/14 16/16/16 26/26/26
f 29/29/29 28/28/28 27/27/27
f 32/32/32 31/31/31 30/30/30
f 34/34/34 11/11/11 33/33/33
f 33/33/33 12/12/12 35/35/35
f 35/35/35 12/12/12 36/36/36
f 36/36/36 14/14/14 37/37/37
f 37/37/37 14/14/14 26/26/26
f 40/40/40 39/39/39 38/38/38
f 42/42/42 16/16/16 41/41/41
f 41/41/41 44/44/44 43/43/43
f 43/43/43 44/44/44 45/45/45
f 33/33/33 46/46/46 34/34/34
f 35/35/35 47/47/47 33/33/33
f 36/36/36 47/47/47 35/35/35
f 37/37/37 48/48/48 36/36/36
f 26/26/26 48/48/48 37/37/37
f 42/42/42 49/49/49 26/26/26
f 41/41/41 49/49/49 42/42/42
f 43/43/43 50/50/50 41/41/41
f 53/53/53 52/52/52 51/51/51
f 56/56/56 55/55/55 54/54/54
f 59/59/59 58/58/58 57/57/57
f 62/62/62 61/61/61 60/60/60
f 65/65/65 64/64/64 63/63/63
f 68/68/68 67/67/67 66/66/66
f 71/71/71 70/70/70 69/69/69
f 74/74/74 73/73/73 72/72/72
f 74/74/74 72/72/72 75/75/75
f 45/45/45 77/77/77 76/76/76
f 80/80/80 79/79/79 78/78/78
f 83/83/83 82/82/82 81/81/81
f 86/86/86 85/85/85 84/84/84
f 89/89/89 88/88/88 87/87/87
f 87/87/87 91/91/91 90/90/90
f 90/90/90 91/91/91 77/77/77
f 94/94/94 93/93/93 92/92/92
f 97/97/97 96/96/96 95/95/95
