# VPXTOOL table OBJ file
# VPXTOOL OBJ file
# numVerts: 85 numFaces: 120
o LM_Journey_L64_PF
v 126.5256118774414 1115.966796875 0.030000003054738045
v 198.60853576660156 1001.680908203125 0.030000003054738045
v 123.47950744628906 1170.4234619140625 0.030000003054738045
v 224.40798950195313 1118.9022216796875 0.030000003054738045
v 123.47950744628906 1170.4234619140625 0.030000003054738045
v 198.60853576660156 1001.680908203125 0.030000003054738045
v 63.12046432495117 1110.49853515625 0.030000003054738045
v 91.9723129272461 1107.80517578125 0.030000003054738045
v 117.81417083740234 1119.3106689453125 0.030000003054738045
v 124.37620544433594 1118.6209716796875 0.030000003054738045
v 126.5256118774414 1115.966796875 0.030000003054738045
v 123.47950744628906 1170.4234619140625 0.030000003054738045
v 123.47950744628906 1170.4234619140625 0.030000003054738045
v 117.81417083740234 1119.3106689453125 0.030000003054738045
v 121.18759155273438 1119.844970703125 0.030000003054738045
v 121.18759155273438 1119.844970703125 0.030000003054738045
v 124.37620544433594 1118.6209716796875 0.030000003054738045
v 224.62652587890625 1119.388916015625 0.030000003054738045
v 123.47950744628906 1170.4234619140625 0.030000003054738045
v 224.40798950195313 1118.9022216796875 0.030000003054738045
v 224.9138946533203 1119.8946533203125 0.030000003054738045
v 123.47950744628906 1170.4234619140625 0.030000003054738045
v 224.62652587890625 1119.388916015625 0.030000003054738045
v 225.27752685546875 1120.38720703125 0.030000003054738045
v 224.9138946533203 1119.8946533203125 0.030000003054738045
v 225.72482299804688 1120.833740234375 0.030000003054738045
v 226.2631072998047 1121.2021484375 0.030000003054738045
v 55.230403900146484 1248.5611572265625 0.030000003054738045
v 232.93545532226563 1202.081787109375 0.030000003054738045
v 232.95616149902344 1202.371826171875 0.030000003054738045
v 233.01412963867188 1202.67236328125 0.030000003054738045
v 233.1197509765625 1202.97021484375 0.030000003054738045
v 233.2833251953125 1203.2523193359375 0.030000003054738045
v 233.51522827148438 1203.505615234375 0.030000003054738045
v 85.40992736816406 1278.523681640625 0.030000003054738045
v 55.230403900146484 1248.5611572265625 0.030000003054738045
v 123.47950744628906 1170.4234619140625 0.030000003054738045
v 233.51522827148438 1203.505615234375 0.030000003054738045
v 233.2833251953125 1203.2523193359375 0.030000003054738045
v 343.087158203125 1236.0811767578125 0.030000003054738045
v 163.06243896484375 1317.53662109375 0.030000003054738045
v 100.49969482421875 1293.5048828125 0.030000003054738045
v 85.40992736816406 1278.523681640625 0.030000003054738045
v 123.47950744628906 1170.4234619140625 0.030000003054738045
v 233.51522827148438 1203.505615234375 0.030000003054738045
v 343.087158203125 1236.0811767578125 0.030000003054738045
v 343.55096435546875 1236.587890625 0.030000003054738045
v 123.47950744628906 1170.4234619140625 0.030000003054738045
v 108.04457092285156 1300.99560546875 0.030000003054738045
v 100.49969482421875 1293.5048828125 0.030000003054738045
v 163.06243896484375 1317.53662109375 0.030000003054738045
v 108.04457092285156 1300.99560546875 0.030000003054738045
v 123.47950744628906 1170.4234619140625 0.030000003054738045
v 343.55096435546875 1236.587890625 0.030000003054738045
v 273.09814453125 1350.6187744140625 0.030000003054738045
v 233.51522827148438 1203.505615234375 0.030000003054738045
v 218.08029174804688 1334.07763671875 0.030000003054738045
v 163.06243896484375 1317.53662109375 0.030000003054738045
v 233.51522827148438 1203.505615234375 0.030000003054738045
v 273.09814453125 1350.6187744140625 0.030000003054738045
v 218.08029174804688 1334.07763671875 0.030000003054738045
v 233.51522827148438 1203.505615234375 0.030000003054738045
v 328.11602783203125 1367.1597900390625 0.030000003054738045
v 343.55096435546875 1236.587890625 0.030000003054738045
v 92.60963439941406 1431.567626953125 0.030000003054738045
v 108.04457092285156 1300.99560546875 0.030000003054738045
v 218.08029174804688 1334.07763671875 0.030000003054738045
v 202.64535522460938 1464.6497802734375 0.030000003054738045
v 273.09814453125 1350.6187744140625 0.030000003054738045
v 202.64535522460938 1464.6497802734375 0.030000003054738045
v 92.60963439941406 1431.567626953125 0.030000003054738045
v 163.06243896484375 1317.53662109375 0.030000003054738045
v 328.11602783203125 1367.1597900390625 0.030000003054738045
v 312.68109130859375 1497.7320556640625 0.030000003054738045
v 312.68109130859375 1497.7320556640625 0.030000003054738045
v 202.64535522460938 1464.6497802734375 0.030000003054738045
v 273.09814453125 1350.6187744140625 0.030000003054738045
v 132.1925506591797 1578.6807861328125 0.030000003054738045
v 242.22828674316406 1611.7630615234375 0.030000003054738045
v 187.21041870117188 1595.2218017578125 0.030000003054738045
v 132.1925506591797 1578.6807861328125 0.030000003054738045
v 202.64535522460938 1464.6497802734375 0.030000003054738045
v 242.22828674316406 1611.7630615234375 0.030000003054738045
v 187.21041870117188 1595.2218017578125 0.030000003054738045
v 202.64535522460938 1464.6497802734375 0.030000003054738045
vt 0.11798250675201416 0.05854058265686035
vt 0.22049705684185028 0.052898526191711426
vt 0.10701363533735275 0.06136167049407959
vt 0.24172551929950714 0.058690428733825684
vt 0.10701363533735275 0.06136167049407959
vt 0.22049705684185028 0.052898526191711426
vt 0.03847280144691467 0.05826222896575928
vt 0.07534493505954742 0.05812537670135498
vt 0.10650843381881714 0.05871129035949707
vt 0.1149187833070755 0.058676064014434814
vt 0.11798250675201416 0.05854058265686035
vt 0.10701363533735275 0.06136167049407959
vt 0.10701363533735275 0.06136167049407959
vt 0.10650843381881714 0.05871129035949707
vt 0.11071725934743881 0.0587385892868042
vt 0.11071725934743881 0.0587385892868042
vt 0.1149187833070755 0.058676064014434814
vt 0.24195797741413116 0.05871528387069702
vt 0.10701363533735275 0.06136167049407959
vt 0.24172551929950714 0.058690428733825684
vt 0.24227601289749146 0.058741092681884766
vt 0.10701363533735275 0.06136167049407959
vt 0.24195797741413116 0.05871528387069702
vt 0.24269206821918488 0.058766305446624756
vt 0.24227601289749146 0.058741092681884766
vt 0.24321867525577545 0.05878913402557373
vt 0.24386797845363617 0.058807969093322754
vt 0.006509497761726379 0.06556999683380127
vt 0.24497462809085846 0.06304329633712769
vt 0.24497449398040771 0.06305885314941406
vt 0.24502183496952057 0.0630750060081482
vt 0.24513131380081177 0.063090980052948
vt 0.24531762301921844 0.06310611963272095
vt 0.24559544026851654 0.06311970949172974
vt 0.04160914570093155 0.06723636388778687
vt 0.006509497761726379 0.06556999683380127
vt 0.10701363533735275 0.06136167049407959
vt 0.24559544026851654 0.06311970949172974
vt 0.24531762301921844 0.06310611963272095
vt 0.38632792234420776 0.0648847222328186
vt 0.1398623287677765 0.06945180892944336
vt 0.0593981072306633 0.06808090209960938
vt 0.04160914570093155 0.06723636388778687
vt 0.10701363533735275 0.06136167049407959
vt 0.24559544026851654 0.06311970949172974
vt 0.38632792234420776 0.0648847222328186
vt 0.3869103491306305 0.06491243839263916
vt 0.10701363533735275 0.06136167049407959
vt 0.06835335493087769 0.06850606203079224
vt 0.0593981072306633 0.06808090209960938
vt 0.1398623287677765 0.06945180892944336
vt 0.06835335493087769 0.06850606203079224
vt 0.10701363533735275 0.06136167049407959
vt 0.3869103491306305 0.06491243839263916
vt 0.2850702106952667 0.07137227058410645
vt 0.24559544026851654 0.06311970949172974
vt 0.21209757030010223 0.07040715217590332
vt 0.1398623287677765 0.06945180892944336
vt 0.24559544026851654 0.06311970949172974
vt 0.2850702106952667 0.07137227058410645
vt 0.21209757030010223 0.07040715217590332
vt 0.24559544026851654 0.06311970949172974
vt 0.3587915599346161 0.07234728336334229
vt 0.3869103491306305 0.06491243839263916
vt 0.026497935876250267 0.07624095678329468
vt 0.06835335493087769 0.06850606203079224
vt 0.21209757030010223 0.07040715217590332
vt 0.17580193281173706 0.0783032774925232
vt 0.2850702106952667 0.07137227058410645
vt 0.17580193281173706 0.0783032774925232
vt 0.026497935876250267 0.07624095678329468
vt 0.1398623287677765 0.06945180892944336
vt 0.3587915599346161 0.07234728336334229
vt 0.3282991647720337 0.0804097056388855
vt 0.3282991647720337 0.0804097056388855
vt 0.17580193281173706 0.0783032774925232
vt 0.2850702106952667 0.07137227058410645
vt 0.05826229229569435 0.08575892448425293
vt 0.21529045701026917 0.08802878856658936
vt 0.13634297251701355 0.08688759803771973
vt 0.05826229229569435 0.08575892448425293
vt 0.17580193281173706 0.0783032774925232
vt 0.21529045701026917 0.08802878856658936
vt 0.13634297251701355 0.08688759803771973
vt 0.17580193281173706 0.0783032774925232
vn 0 -0 -1
vn 0 -0 -1
vn 0 -0 -1
vn 0.000000000014826277358603868 -0 -1
vn 0.000000000014826277358603868 -0 -1
vn 0.000000000014826277358603868 -0 -1
vn 0 -0 -1
vn 0 -0 -1
vn 0 -0 -1
vn 0.0000000003357453759456064 -0 -0.9999999403953552
vn 0.0000000003357453759456064 -0 -0.9999999403953552
vn 0.0000000003357453759456064 -0 -0.9999999403953552
vn -0.000000001151829520651404 -0 -1
vn -0.000000001151829520651404 -0 -1
vn -0.000000001151829520651404 -0 -1
vn 0 -0 -1
vn 0 -0 -1
vn 0.00000000323279425451517 -0 -1
vn 0.00000000323279425451517 -0 -1
vn 0.00000000323279425451517 -0 -1
vn -0.000000002965174772384671 -0 -1
vn -0.000000002965174772384671 -0 -1
vn -0.000000002965174772384671 -0 -1
vn 0 -0 -1
vn 0 -0 -1
vn 0 -0 -1
vn 0 -0 -1
vn 0 -0 -1
vn 0 -0 -1
vn 0 -0 -1
vn 0 -0 -1
vn 0 -0 -1
vn 0 -0 -1
vn 0 -0 -1
vn -0.00000000008862758443806129 -0 -1
vn -0.00000000008862758443806129 -0 -1
vn -0.00000000008862758443806129 -0 -1
vn 0.0000000003017956717865644 -0 -1
vn 0.0000000003017956717865644 -0 -1
vn 0.0000000003017956717865644 -0 -1
vn 0 -0 -1
vn 0.00000000008862758443806129 -0 -1
vn 0.00000000008862758443806129 -0 -1
vn 0.00000000008862758443806129 -0 -1
vn 0 -0 -0.9999999403953552
vn 0 -0 -0.9999999403953552
vn 0 -0 -0.9999999403953552
vn 0 -0 -0.9999999403953552
vn 0 -0 -0.9999999403953552
vn 0 -0 -0.9999999403953552
vn 0.000000000013114288301141475 -0 -1
vn 0.000000000013114288301141475 -0 -1
vn 0.000000000013114288301141475 -0 -1
vn 0.00000000005245706299894515 -0 -1
vn 0.00000000005245706299894515 -0 -1
vn 0.00000000005245706299894515 -0 -1
vn 0.000000000013114265749736287 -0 -1
vn 0.000000000013114265749736287 -0 -1
vn 0.000000000013114265749736287 -0 -1
vn -0.00000000003934286577078616 -0 -1
vn -0.00000000003934286577078616 -0 -1
vn -0.00000000003934286577078616 -0 -1
vn -0.00000000003934286577078616 -0 -1
vn -0.00000000003934286577078616 -0 -1
vn 0 -0 -1
vn 0 -0 -1
vn 0 -0 -1
vn 0 -0 -1
vn 0 -0 -1
vn -0.000000000013114265749736287 -0 -1
vn -0.000000000013114265749736287 -0 -1
vn -0.000000000013114265749736287 -0 -1
vn 0 -0 -1
vn 0 -0 -1
vn -0.0000000000131142431983311 -0 -1
vn -0.0000000000131142431983311 -0 -1
vn -0.0000000000131142431983311 -0 -1
vn 0 -0 -1
vn 0 -0 -1
vn -0.00000000003934279638184712 -0 -1
vn -0.00000000003934279638184712 -0 -1
vn -0.00000000003934279638184712 -0 -1
vn 0.000000000013114265749736287 -0 -1
vn 0.000000000013114265749736287 -0 -1
vn 0.000000000013114265749736287 -0 -1
f 3/3/3 2/2/2 1/1/1
f 6/6/6 5/5/5 4/4/4
f 8/8/8 7/7/7 3/3/3
f 9/9/9 8/8/8 3/3/3
f 12/12/12 11/11/11 10/10/10
f 15/15/15 14/14/14 13/13/13
f 3/3/3 17/17/17 16/16/16
f 20/20/20 19/19/19 18/18/18
f 23/23/23 22/22/22 21/21/21
f 25/25/25 3/3/3 24/24/24
f 24/24/24 3/3/3 26/26/26
f 26/26/26 3/3/3 27/27/27
f 3/3/3 7/7/7 28/28/28
f 29/29/29 27/27/27 3/3/3
f 29/29/29 3/3/3 30/30/30
f 30/30/30 3/3/3 31/31/31
f 31/31/31 3/3/3 32/32/32
f 32/32/32 3/3/3 33/33/33
f 33/33/33 3/3/3 34/34/34
f 37/37/37 36/36/36 35/35/35
f 40/40/40 39/39/39 38/38/38
f 3/3/3 41/41/41 34/34/34
f 44/44/44 43/43/43 42/42/42
f 47/47/47 46/46/46 45/45/45
f 50/50/50 49/49/49 48/48/48
f 53/53/53 52/52/52 51/51/51
f 56/56/56 55/55/55 54/54/54
f 59/59/59 58/58/58 57/57/57
f 62/62/62 61/61/61 60/60/60
f 64/64/64 60/60/60 63/63/63
f 66/66/66 65/65/65 41/41/41
f 41/41/41 68/68/68 67/67/67
f 67/67/67 68/68/68 69/69/69
f 72/72/72 71/71/71 70/70/70
f 69/69/69 74/74/74 73/73/73
f 77/77/77 76/76/76 75/75/75
f 65/65/65 78/78/78 68/68/68
f 68/68/68 79/79/79 74/74/74
f 82/82/82 81/81/81 80/80/80
f 85/85/85 84/84/84 83/83/83
