# VPXTOOL table OBJ file
# VPXTOOL OBJ file
# numVerts: 20 numFaces: 78
o playfield_mesh
v 4.079999923706055 12.305551528930664 0.0006000000284984708
v 9.520000457763672 2.461111068725586 0.0006000000284984708
v 8.09103012084961 6.971024036407471 0.0006000000284984708
v 7.920857906341553 7.569056987762451 0.0006000000284984708
v 9.520000457763672 9.844443321228027 0.0006000000284984708
v 7.8956780433654785 11.99742603302002 0.0006000000284984708
v 0 22.14999771118164 0.0006000000284984708
v 5.41290283203125 6.5467209815979 0.0006000000284984708
v 4.6908159255981445 5.411909103393555 0.0006000000284984708
v 0 0 0.0006000000284984708
v 6.80000114440918 9.844442367553711 0.0006000000284984708
v 8.518891334533691 7.739227771759033 0.0006000000284984708
v 8.689062118530273 7.141194820404053 0.0006000000284984708
v 8.524344444274902 11.99742603302002 0.0006000000284984708
v 9.520000457763672 22.14999771118164 0.0006000000284984708
v 8.524345397949219 13.329023361206055 0.0006000000284984708
v 4.632452964782715 6.501246929168701 0.0006000000284984708
v 5.471264839172363 5.457386016845703 0.0006000000284984708
v 7.8956780433654785 13.329023361206055 0.0006000000284984708
v 9.520000457763672 0 0.0006000000284984708
vt 0 1
vt 0 1
vt 0 1
vt 0 1
vt 0 1
vt 0 1
vt 0 1
vt 0 1
vt 0 1
vt 0 1
vt 0 1
vt 0 1
vt 0 1
vt 0 1
vt 0 1
vt 0 1
vt 0 1
vt 0 1
vt 0 1
vt 0 1
vn -0 -0 -1
vn -0 -0 -1
vn -0 -0 -1
vn -0 -0 -1
vn -0 -0 -1
vn -0 -0 -1
vn -0 -0 -1
vn -0 -0 -1
vn -0 -0 -1
vn -0 -0 -1
vn -0 -0 -1
vn -0 -0 -1
vn -0 -0 -1
vn -0 -0 -1
vn -0 -0 -1
vn -0 -0 -1
vn -0 -0 -1
vn -0 -0 -1
vn -0 -0 -1
vn -0 -0 -1
f 2/2/2 20/20/20 10/10/10
f 10/10/10 9/9/9 2/2/2
f 10/10/10 17/17/17 9/9/9
f 9/9/9 18/18/18 2/2/2
f 17/17/17 10/10/10 7/7/7
f 2/2/2 18/18/18 8/8/8
f 8/8/8 17/17/17 7/7/7
f 1/1/1 2/2/2 8/8/8
f 1/1/1 8/8/8 7/7/7
f 3/3/3 2/2/2 1/1/1
f 3/3/3 13/13/13 2/2/2
f 13/13/13 5/5/5 2/2/2
f 13/13/13 12/12/12 5/5/5
f 5/5/5 12/12/12 4/4/4
f 1/1/1 11/11/11 3/3/3
f 11/11/11 4/4/4 3/3/3
f 7/7/7 19/19/19 1/1/1
f 4/4/4 11/11/11 6/6/6
f 1/1/1 6/6/6 11/11/11
f 19/19/19 6/6/6 1/1/1
f 6/6/6 5/5/5 4/4/4
f 7/7/7 16/16/16 19/19/19
f 6/6/6 14/14/14 5/5/5
f 7/7/7 15/15/15 16/16/16
f 15/15/15 5/5/5 14/14/14
f 15/15/15 14/14/14 16/16/16
