# VPXTOOL table OBJ file
# VPXTOOL OBJ file
# numVerts: 62 numFaces: 72
o LM_inserts_L05_sw04
v 13.599907875061035 7.999998092651367 -52.39198684692383
v 16.799951553344727 7.999998092651367 -55.591983795166016
v 16.799951553344727 7.999998092651367 -52.39198684692383
v -16.80006217956543 7.999998092651367 -55.591983795166016
v 13.599907875061035 7.999998092651367 -52.39198684692383
v 16.799951553344727 7.999998092651367 -52.39198684692383
v 13.600018501281738 4.800009727478027 -47.59198760986328
v -13.600018501281738 7.999998092651367 -52.39198684692383
v 13.600018501281738 4.800009727478027 -52.39198684692383
v 13.599907875061035 7.999998092651367 -52.39198684692383
v 13.600018501281738 4.800009727478027 -47.59198760986328
v 16.799951553344727 7.999998092651367 -52.39198684692383
v 16.799951553344727 4.800009727478027 -47.59198760986328
v 13.600018501281738 4.800009727478027 -47.59198760986328
v -16.80006217956543 7.999998092651367 -52.39198684692383
v -13.600018501281738 4.800009727478027 -52.39198684692383
v 13.600018501281738 4.800009727478027 -52.39198684692383
v 13.600018501281738 4.800009727478027 -47.59198760986328
v -16.80006217956543 7.999998092651367 -52.39198684692383
v -13.600018501281738 7.999998092651367 -52.39198684692383
v -16.799951553344727 4.799954414367676 -47.59198760986328
v 16.799951553344727 7.999998092651367 -55.591983795166016
v -16.80006217956543 7.999998092651367 -55.591983795166016
v -16.799951553344727 -7.999998092651367 -55.591983795166016
v -13.600018501281738 4.800009727478027 -47.59198760986328
v -13.600018501281738 7.999998092651367 -52.39198684692383
v -13.600018501281738 4.800009727478027 -47.59198760986328
v -16.799951553344727 4.799954414367676 -47.59198760986328
v -16.799951553344727 -6.400031566619873 -50.791988372802734
v -16.80006217956543 7.999998092651367 -55.591983795166016
v -16.80006217956543 7.999998092651367 -52.39198684692383
v 16.80006217956543 -7.999998092651367 -55.591983795166016
v -16.799951553344727 -6.400031566619873 -50.791988372802734
v -16.80006217956543 7.999998092651367 -52.39198684692383
v -16.799951553344727 4.799954414367676 -47.59198760986328
v 13.600018501281738 4.800009727478027 -47.59198760986328
v 16.799951553344727 4.800009727478027 -47.59198760986328
v 16.799951553344727 4.800009727478027 -4.391999244689941
v -16.799951553344727 -6.400031566619873 -50.791988372802734
v -16.799951553344727 -7.999998092651367 -55.591983795166016
v -16.80006217956543 7.999998092651367 -55.591983795166016
v 13.600018501281738 4.800009727478027 -47.59198760986328
v 16.799951553344727 4.800009727478027 -4.391999244689941
v -13.600018501281738 4.800009727478027 -47.59198760986328
v -16.799951553344727 4.799954414367676 -4.391999244689941
v -16.799951553344727 4.799954414367676 -47.59198760986328
v -13.600018501281738 4.800009727478027 -47.59198760986328
v -16.799951553344727 -6.400031566619873 -50.791988372802734
v -16.799951553344727 -7.999998092651367 -52.39198684692383
v -16.799951553344727 -7.999998092651367 -55.591983795166016
v -16.799951553344727 -6.400031566619873 -50.791988372802734
v -16.799951553344727 4.799954414367676 -47.59198760986328
v -16.799951553344727 4.799954414367676 -4.391999244689941
v 16.799951553344727 4.800009727478027 -4.391999244689941
v -16.799951553344727 4.799954414367676 -4.391999244689941
v -13.600018501281738 4.800009727478027 -47.59198760986328
v -16.799951553344727 -6.400031566619873 -50.791988372802734
v -16.799951553344727 4.799954414367676 -4.391999244689941
v -16.80006217956543 -1.6000217199325562 3.607999086380005
v -16.80006217956543 -1.6000217199325562 3.607999086380005
v -16.799951553344727 -6.400031566619873 52.26681900024414
v -16.799951553344727 -6.400031566619873 -50.791988372802734
vt 0.22587771713733673 0.29393649101257324
vt 0.22669553756713867 0.29324817657470703
vt 0.2268580198287964 0.2936449646949768
vt 0.2163090705871582 0.2963330149650574
vt 0.22587771713733673 0.29393649101257324
vt 0.2268580198287964 0.2936449646949768
vt 0.22440017759799957 0.294400691986084
vt 0.2174774557352066 0.2964346408843994
vt 0.22415360808372498 0.29380661249160767
vt 0.22587771713733673 0.29393649101257324
vt 0.22440017759799957 0.294400691986084
vt 0.2268580198287964 0.2936449646949768
vt 0.22538025677204132 0.2941092252731323
vt 0.22440017759799957 0.294400691986084
vt 0.21648119390010834 0.2967308759689331
vt 0.21574406325817108 0.296302855014801
vt 0.22415360808372498 0.29380661249160767
vt 0.22440017759799957 0.294400691986084
vt 0.21648119390010834 0.2967308759689331
vt 0.2174774557352066 0.2964346408843994
vt 0.21500623226165771 0.29719454050064087
vt 0.22669553756713867 0.29324817657470703
vt 0.2163090705871582 0.2963330149650574
vt 0.2076433002948761 0.2956743836402893
vt 0.21600224077701569 0.29689836502075195
vt 0.2174774557352066 0.2964346408843994
vt 0.21600224077701569 0.29689836502075195
vt 0.21500623226165771 0.29719454050064087
vt 0.20877514779567719 0.29633641242980957
vt 0.2163090705871582 0.2963330149650574
vt 0.21648119390010834 0.2967308759689331
vt 0.21808700263500214 0.29260116815567017
vt 0.20877514779567719 0.29633641242980957
vt 0.21648119390010834 0.2967308759689331
vt 0.21500623226165771 0.29719454050064087
vt 0.22440017759799957 0.294400691986084
vt 0.22538025677204132 0.2941092252731323
vt 0.22756190598011017 0.2993932366371155
vt 0.20877514779567719 0.29633641242980957
vt 0.2076433002948761 0.2956743836402893
vt 0.2163090705871582 0.2963330149650574
vt 0.22440017759799957 0.294400691986084
vt 0.22756190598011017 0.2993932366371155
vt 0.21600224077701569 0.29689836502075195
vt 0.21731537580490112 0.302493155002594
vt 0.21500623226165771 0.29719454050064087
vt 0.21600224077701569 0.29689836502075195
vt 0.20877514779567719 0.29633641242980957
vt 0.2078218311071396 0.29607200622558594
vt 0.2076433002948761 0.2956743836402893
vt 0.20877514779567719 0.29633641242980957
vt 0.21500623226165771 0.29719454050064087
vt 0.21731537580490112 0.302493155002594
vt 0.22756190598011017 0.2993932366371155
vt 0.21731537580490112 0.302493155002594
vt 0.21600224077701569 0.29689836502075195
vt 0.20877514779567719 0.29633641242980957
vt 0.21731537580490112 0.302493155002594
vt 0.214317187666893 0.3031970262527466
vt 0.214317187666893 0.3031970262527466
vt 0.21435527503490448 0.30881112813949585
vt 0.20877514779567719 0.29633641242980957
vn 0 1 -0
vn 0 1 -0
vn 0 1 -0
vn 0 1 -0
vn 0 0.8320513963699341 0.5546985864639282
vn 0 0.8320513963699341 0.5546985864639282
vn 0 0.8320513963699341 0.5546985864639282
vn 0 1 -0
vn -1 -0.00003495861164992675 -0
vn -1 -0.00003495861164992675 -0
vn -1 -0.00003495861164992675 -0
vn 0 0.8320513367652893 0.5546987056732178
vn 0 0.8320513367652893 0.5546987056732178
vn 0 0.8320513367652893 0.5546987056732178
vn 0 1 -0
vn 0 1 -0
vn 0 1 -0
vn 0 1 -0
vn 0 0.8320467472076416 0.5547054409980774
vn 0 0.8320467472076416 0.5547054409980774
vn 0 0.8320467472076416 0.5547054409980774
vn 0 -0 -1
vn 0 -0 -1
vn 0 -0 -1
vn 0 1 -0
vn -0.000014882143659633584 0.832051157951355 0.5546987652778625
vn -0.000014882143659633584 0.832051157951355 0.5546987652778625
vn -0.000014882143659633584 0.832051157951355 0.5546987652778625
vn -0.9999999403953552 -0.000007858856406528503 -0
vn -0.9999999403953552 -0.000007858856406528503 -0
vn -0.9999999403953552 -0.000007858856406528503 -0
vn 0 -0 -1
vn -1 -0.000005560827958106529 0.000019325229004607536
vn -1 -0.000005560827958106529 0.000019325229004607536
vn -1 -0.000005560827958106529 0.000019325229004607536
vn 0 0.9999999403953552 -0
vn 0 0.9999999403953552 -0
vn 0 0.9999999403953552 -0
vn -1 -0.000006991699137870455 0.0000023005820821708767
vn -1 -0.000006991699137870455 0.0000023005820821708767
vn -1 -0.000006991699137870455 0.0000023005820821708767
vn 0 1 -0.000000007970452742256384
vn 0 1 -0.000000007970452742256384
vn 0 1 -0.000000007970452742256384
vn -0.00001725506990624126 0.9999999403953552 -0
vn -0.00001725506990624126 0.9999999403953552 -0
vn -0.00001725506990624126 0.9999999403953552 -0
vn -0.9999999403953552 0.0000012195062026876258 -0
vn -0.9999999403953552 0.0000012195062026876258 -0
vn -0.9999999403953552 0.0000012195062026876258 -0
vn -1 0.00000012904575896754977 -0
vn -1 0.00000012904575896754977 -0
vn -1 0.00000012904575896754977 -0
vn -0.0000016433095879619941 0.9999999403953552 0.0000011528106824698625
vn -0.0000016433095879619941 0.9999999403953552 0.0000011528106824698625
vn -0.0000016433095879619941 0.9999999403953552 0.0000011528106824698625
vn -1 0.00001292169326916337 -0.000003199554384991643
vn -1 0.00001292169326916337 -0.000003199554384991643
vn -1 0.00001292169326916337 -0.000003199554384991643
vn -1 -0.000023021968445391394 -0
vn -1 -0.000023021968445391394 -0
vn -1 -0.000023021968445391394 -0
f 3/3/3 2/2/2 1/1/1
f 2/2/2 4/4/4 1/1/1
f 7/7/7 6/6/6 5/5/5
f 4/4/4 8/8/8 1/1/1
f 11/11/11 10/10/10 9/9/9
f 14/14/14 13/13/13 12/12/12
f 4/4/4 15/15/15 8/8/8
f 18/18/18 17/17/17 16/16/16
f 21/21/21 20/20/20 19/19/19
f 24/24/24 23/23/23 22/22/22
f 18/18/18 16/16/16 25/25/25
f 28/28/28 27/27/27 26/26/26
f 31/31/31 30/30/30 29/29/29
f 24/24/24 22/22/22 32/32/32
f 35/35/35 34/34/34 33/33/33
f 38/38/38 37/37/37 36/36/36
f 41/41/41 40/40/40 39/39/39
f 44/44/44 43/43/43 42/42/42
f 47/47/47 46/46/46 45/45/45
f 50/50/50 49/49/49 48/48/48
f 53/53/53 52/52/52 51/51/51
f 56/56/56 55/55/55 54/54/54
f 59/59/59 58/58/58 57/57/57
f 62/62/62 61/61/61 60/60/60
