# VPXTOOL table OBJ file
# VPXTOOL OBJ file
# numVerts: 51 numFaces: 72
o LM_inserts_L41_PF
v 566.4625244140625 1304.22412109375 35.32411575317383
v 623.8643188476563 1320.217529296875 35.32411575317383
v 623.8643188476563 1320.217529296875 0.030000003054738045
v 566.4625244140625 1304.22412109375 0.030000003054738045
v 566.4625244140625 1304.22412109375 35.32411575317383
v 623.8643188476563 1320.217529296875 0.030000003054738045
v 623.8643188476563 1320.217529296875 0.030000003054738045
v 623.8643188476563 1320.217529296875 35.32411575317383
v 624.263427734375 1320.291748046875 0.030000003054738045
v 623.8643188476563 1320.217529296875 0.030000003054738045
v 545.8812866210938 1432.0653076171875 0.030000003054738045
v 566.4625244140625 1304.22412109375 0.030000003054738045
v 623.8643188476563 1320.217529296875 0.030000003054738045
v 624.263427734375 1320.291748046875 0.030000003054738045
v 665.080810546875 1432.1024169921875 0.030000003054738045
v 545.8812866210938 1432.0653076171875 0.030000003054738045
v 517.1803588867188 1424.068603515625 0.030000003054738045
v 566.4625244140625 1304.22412109375 0.030000003054738045
v 665.080810546875 1432.1024169921875 0.030000003054738045
v 664.8812866210938 1432.0653076171875 0.030000003054738045
v 623.8643188476563 1320.217529296875 0.030000003054738045
v 623.8643188476563 1320.217529296875 0.030000003054738045
v 664.8812866210938 1432.0653076171875 0.030000003054738045
v 545.8812866210938 1432.0653076171875 0.030000003054738045
v 665.080810546875 1432.1024169921875 0.030000003054738045
v 705.8982543945313 1543.9130859375 0.030000003054738045
v 664.8812866210938 1432.0653076171875 0.030000003054738045
v 705.8982543945313 1543.9130859375 0.030000003054738045
v 665.080810546875 1432.1024169921875 0.030000003054738045
v 665.1806640625 1432.1209716796875 0.030000003054738045
v 517.1803588867188 1424.068603515625 0.030000003054738045
v 467.8982849121094 1543.9130859375 0.030000003054738045
v 502.8299255371094 1420.0703125 0.030000003054738045
v 586.8983154296875 1543.9130859375 0.030000003054738045
v 665.1806640625 1432.1209716796875 0.030000003054738045
v 706.0978393554688 1543.9501953125 0.030000003054738045
v 705.8982543945313 1543.9130859375 0.030000003054738045
v 705.8982543945313 1543.9130859375 0.030000003054738045
v 586.8983154296875 1543.9130859375 0.030000003054738045
v 467.8982849121094 1543.9130859375 0.030000003054738045
v 439.19732666015625 1535.91650390625 0.030000003054738045
v 502.8299255371094 1420.0703125 0.030000003054738045
v 467.8982849121094 1543.9130859375 0.030000003054738045
v 746.915283203125 1655.760986328125 0.030000003054738045
v 706.0978393554688 1543.9501953125 0.030000003054738045
v 627.9152221679688 1655.760986328125 0.030000003054738045
v 389.91522216796875 1655.760986328125 0.030000003054738045
v 439.19732666015625 1535.91650390625 0.030000003054738045
v 508.91522216796875 1655.760986328125 0.030000003054738045
v 627.9152221679688 1655.760986328125 0.030000003054738045
v 508.91522216796875 1655.760986328125 0.030000003054738045
vt 0.2994531989097595 0.6021004915237427
vt 0.31414568424224854 0.5972782373428345
vt 0.27971160411834717 0.5971667766571045
vt 0.2650544345378876 0.6020328998565674
vt 0.2994531989097595 0.6021004915237427
vt 0.27971160411834717 0.5971667766571045
vt 0.27971160411834717 0.5971667766571045
vt 0.31414568424224854 0.5972782373428345
vt 0.2797800302505493 0.5971329212188721
vt 0.27971160411834717 0.5971667766571045
vt 0.38636237382888794 0.6035192608833313
vt 0.2650544345378876 0.6020328998565674
vt 0.27971160411834717 0.5971667766571045
vt 0.2797800302505493 0.5971329212188721
vt 0.3863990306854248 0.5931359529495239
vt 0.38636237382888794 0.6035192608833313
vt 0.3784871995449066 0.6060283184051514
vt 0.2650544345378876 0.6020328998565674
vt 0.3863990306854248 0.5931359529495239
vt 0.38636237382888794 0.5931534767150879
vt 0.27971160411834717 0.5971667766571045
vt 0.27971160411834717 0.5971667766571045
vt 0.38636237382888794 0.5931534767150879
vt 0.38636237382888794 0.6035192608833313
vt 0.3863990306854248 0.5931359529495239
vt 0.5008416175842285 0.5888456106185913
vt 0.38636237382888794 0.5931534767150879
vt 0.5008416175842285 0.5888456106185913
vt 0.3863990306854248 0.5931359529495239
vt 0.3864172697067261 0.5931271314620972
vt 0.3784871995449066 0.6060283184051514
vt 0.5008416175842285 0.610338032245636
vt 0.3745645582675934 0.6072781682014465
vt 0.5008416175842285 0.599591851234436
vt 0.3864172697067261 0.5931271314620972
vt 0.500881016254425 0.58882737159729
vt 0.5008416175842285 0.5888456106185913
vt 0.5008416175842285 0.5888456106185913
vt 0.5008416175842285 0.599591851234436
vt 0.5008416175842285 0.610338032245636
vt 0.49237850308418274 0.6129211187362671
vt 0.3745645582675934 0.6072781682014465
vt 0.5008416175842285 0.610338032245636
vt 0.6240438222885132 0.5842095613479614
vt 0.500881016254425 0.58882737159729
vt 0.6240438222885132 0.5953651666641235
vt 0.6240438222885132 0.6176763772964478
vt 0.49237850308418274 0.6129211187362671
vt 0.6240438222885132 0.6065207719802856
vt 0.6240438222885132 0.5953651666641235
vt 0.6240438222885132 0.6065207719802856
vn 0.26839855313301086 -0.9633079767227173 -0
vn 0.26839855313301086 -0.9633079767227173 -0
vn 0.26839855313301086 -0.9633079767227173 -0
vn 0.2683977484703064 -0.9633081555366516 -0
vn 0.2683977484703064 -0.9633081555366516 -0
vn 0.2683977484703064 -0.9633081555366516 -0
vn 0.1827775537967682 -0.9831543564796448 -0
vn 0.1827775537967682 -0.9831543564796448 -0
vn 0.1827775537967682 -0.9831543564796448 -0
vn 0 -0 -1
vn 0 -0 -1
vn 0 -0 -1
vn -0.0000000006137489960700293 -0 -1
vn -0.0000000006137489960700293 -0 -1
vn -0.0000000006137489960700293 -0 -1
vn -0.000000000025447303986236847 -0 -1
vn -0.000000000025447303986236847 -0 -1
vn -0.000000000025447303986236847 -0 -1
vn 0.00000001938180815841406 -0 -0.9999999403953552
vn 0.00000001938180815841406 -0 -0.9999999403953552
vn 0.00000001938180815841406 -0 -0.9999999403953552
vn 0 -0 -0.9999999403953552
vn 0 -0 -0.9999999403953552
vn 0 -0 -0.9999999403953552
vn 0 -0 -1
vn 0 -0 -1
vn 0 -0 -1
vn -0.00000007498176302078718 -0 -1
vn -0.00000007498176302078718 -0 -1
vn -0.00000007498176302078718 -0 -1
vn 0 -0 -1
vn 0 -0 -1
vn 0 -0 -1
vn 0 -0 -1
vn 0.00000003753699573394442 -0 -1
vn 0.00000003753699573394442 -0 -1
vn 0.00000003753699573394442 -0 -1
vn 0 -0 -0.9999999403953552
vn 0 -0 -0.9999999403953552
vn -0.000000000025447262352873423 -0 -1
vn -0.000000000025447262352873423 -0 -1
vn -0.000000000025447262352873423 -0 -1
vn 0 -0 -0.9999999403953552
vn 0 -0 -1
vn 0 -0 -1
vn 0 -0 -0.9999999403953552
vn 0 -0 -1
vn 0 -0 -1
vn 0 -0 -1
vn 0 -0 -1
vn 0 -0 -0.9999999403953552
f 3/3/3 2/2/2 1/1/1
f 6/6/6 5/5/5 4/4/4
f 9/9/9 8/8/8 7/7/7
f 12/12/12 11/11/11 10/10/10
f 15/15/15 14/14/14 13/13/13
f 18/18/18 17/17/17 16/16/16
f 21/21/21 20/20/20 19/19/19
f 24/24/24 23/23/23 22/22/22
f 27/27/27 26/26/26 25/25/25
f 30/30/30 29/29/29 28/28/28
f 33/33/33 32/32/32 31/31/31
f 11/11/11 34/34/34 27/27/27
f 31/31/31 32/32/32 11/11/11
f 37/37/37 36/36/36 35/35/35
f 39/39/39 38/38/38 23/23/23
f 42/42/42 41/41/41 40/40/40
f 43/43/43 39/39/39 24/24/24
f 45/45/45 26/26/26 44/44/44
f 39/39/39 46/46/46 38/38/38
f 48/48/48 47/47/47 32/32/32
f 32/32/32 49/49/49 34/34/34
f 50/50/50 44/44/44 26/26/26
f 39/39/39 51/51/51 46/46/46
f 47/47/47 49/49/49 32/32/32
