# VPXTOOL table OBJ file
# VPXTOOL OBJ file
# numVerts: 93 numFaces: 102
o BM_sw06
v 13.599963188171387 7.999998092651367 -52.39198684692383
v 16.799896240234375 7.999998092651367 -55.591983795166016
v 16.799896240234375 7.999998092651367 -52.39198684692383
v 13.599963188171387 7.999998092651367 -52.39198684692383
v -16.80006217956543 7.999998092651367 -55.591983795166016
v 16.799896240234375 7.999998092651367 -55.591983795166016
v 13.599963188171387 7.999998092651367 -52.39198684692383
v 16.799896240234375 7.999998092651367 -52.39198684692383
v 16.799951553344727 4.800009727478027 -47.59198760986328
v 13.599963188171387 7.999998092651367 -52.39198684692383
v -13.600018501281738 7.999942779541016 -52.39198684692383
v -16.80006217956543 7.999998092651367 -55.591983795166016
v 13.599963188171387 4.800009727478027 -52.39198684692383
v 13.599963188171387 7.999998092651367 -52.39198684692383
v 13.599963188171387 4.800009727478027 -47.59198760986328
v 13.599963188171387 4.800009727478027 -47.59198760986328
v 13.599963188171387 7.999998092651367 -52.39198684692383
v 16.799951553344727 4.800009727478027 -47.59198760986328
v -13.600018501281738 7.999942779541016 -52.39198684692383
v -16.80006217956543 7.999998092651367 -52.39198684692383
v -16.80006217956543 7.999998092651367 -55.591983795166016
v -13.60007381439209 4.800009727478027 -52.39198684692383
v 13.599963188171387 4.800009727478027 -52.39198684692383
v 13.599963188171387 4.800009727478027 -47.59198760986328
v -16.80006217956543 7.999998092651367 -52.39198684692383
v -13.600018501281738 7.999942779541016 -52.39198684692383
v -16.799951553344727 4.799954414367676 -47.59198760986328
v 16.799896240234375 7.999998092651367 -55.591983795166016
v -16.80006217956543 7.999998092651367 -55.591983795166016
v -16.800006866455078 -8.000053405761719 -55.591983795166016
v -13.60007381439209 4.800009727478027 -47.59198760986328
v -13.600018501281738 7.999942779541016 -52.39198684692383
v -13.60007381439209 4.800009727478027 -47.59198760986328
v -16.799951553344727 4.799954414367676 -47.59198760986328
v -16.800006866455078 -6.400031566619873 -50.791988372802734
v -16.80006217956543 7.999998092651367 -55.591983795166016
v -16.80006217956543 7.999998092651367 -52.39198684692383
v 16.800006866455078 -8.000053405761719 -55.591983795166016
v -16.800006866455078 -6.400031566619873 -50.791988372802734
v -16.80006217956543 7.999998092651367 -52.39198684692383
v -16.799951553344727 4.799954414367676 -47.59198760986328
v 16.799951553344727 4.800009727478027 -47.59198760986328
v 16.799951553344727 4.800009727478027 -4.391999244689941
v -16.800006866455078 -6.400031566619873 -50.791988372802734
v -16.800006866455078 -8.000053405761719 -55.591983795166016
v -16.80006217956543 7.999998092651367 -55.591983795166016
v 13.599963188171387 4.800009727478027 -47.59198760986328
v 16.799951553344727 4.800009727478027 -4.391999244689941
v -13.60007381439209 4.800009727478027 -47.59198760986328
v -16.799951553344727 4.799954414367676 -4.391999244689941
v -16.799951553344727 4.799954414367676 -47.59198760986328
v -13.60007381439209 4.800009727478027 -47.59198760986328
v -16.800006866455078 -6.400031566619873 -50.791988372802734
v -16.800006866455078 -8.000053405761719 -52.39198684692383
v -16.800006866455078 -8.000053405761719 -55.591983795166016
v -16.800006866455078 -6.400031566619873 -50.791988372802734
v -16.799951553344727 4.799954414367676 -47.59198760986328
v -16.799951553344727 4.799954414367676 -4.391999244689941
v 16.799951553344727 4.800009727478027 -4.391999244689941
v -16.799951553344727 4.799954414367676 -4.391999244689941
v -13.60007381439209 4.800009727478027 -47.59198760986328
v -16.800006866455078 -6.400031566619873 -50.791988372802734
v -16.799951553344727 4.799954414367676 -4.391999244689941
v -16.800006866455078 -1.6000217199325562 3.607999086380005
v 3.1998777389526367 3.9425201416015625 -4.391999244689941
v 3.1998777389526367 3.9425201416015625 50.66682434082031
v 0 4.799954414367676 -4.391999244689941
v 0 4.799954414367676 -4.391999244689941
v 0 4.799954414367676 50.66682434082031
v -3.2000434398651123 3.942575216293335 -4.391999244689941
v -3.2000434398651123 3.942575216293335 -4.391999244689941
v -3.2000434398651123 3.942575216293335 50.66682434082031
v -5.542652130126953 1.5999664068222046 -4.391999244689941
v -16.800006866455078 -1.6000217199325562 3.607999086380005
v -16.800006866455078 -6.400031566619873 52.26681900024414
v -16.800006866455078 -6.400031566619873 -50.791988372802734
v -16.800006866455078 -1.6000217199325562 3.607999086380005
v 16.800006866455078 -1.6000217199325562 3.607999086380005
v 16.800006866455078 -1.6000217199325562 52.26681900024414
v 0 4.799954414367676 50.66682434082031
v 0 4.799954414367676 50.66682434082031
v -3.2000434398651123 3.942575216293335 50.66682434082031
v -3.2000434398651123 3.942575216293335 -4.391999244689941
v -3.2000434398651123 3.942575216293335 50.66682434082031
v -5.542652130126953 1.5999664068222046 50.66682434082031
v -5.542652130126953 1.5999664068222046 -4.391999244689941
v -5.542652130126953 1.5999664068222046 -4.391999244689941
v -5.542652130126953 1.5999664068222046 50.66682434082031
v -6.400031566619873 -1.6000217199325562 50.66682434082031
v -16.800006866455078 -1.6000217199325562 52.26681900024414
v -16.800006866455078 -1.6000217199325562 3.607999086380005
v -16.800006866455078 -1.6000217199325562 52.26681900024414
v -16.800006866455078 -6.400031566619873 52.26681900024414
vt 0.03679261729121208 0.532231330871582
vt 0.037590812891721725 0.531558632850647
vt 0.03773052617907524 0.5319523811340332
vt 0.03679261729121208 0.532231330871582
vt 0.027655960991978645 0.5345093011856079
vt 0.037590812891721725 0.531558632850647
vt 0.03679261729121208 0.532231330871582
vt 0.03773052617907524 0.5319523811340332
vt 0.03624691814184189 0.532417893409729
vt 0.03679261729121208 0.532231330871582
vt 0.02875731699168682 0.5346209406852722
vt 0.027655960991978645 0.5345093011856079
vt 0.0350969061255455 0.5321071147918701
vt 0.03679261729121208 0.532231330871582
vt 0.03530916944146156 0.5326967835426331
vt 0.03530916944146156 0.5326967835426331
vt 0.03679261729121208 0.532231330871582
vt 0.03624691814184189 0.532417893409729
vt 0.02875731699168682 0.5346209406852722
vt 0.027804510667920113 0.5349043011665344
vt 0.027655960991978645 0.5345093011856079
vt 0.02705257572233677 0.534494936466217
vt 0.0350969061255455 0.5321071147918701
vt 0.03530916944146156 0.5326967835426331
vt 0.027804510667920113 0.5349043011665344
vt 0.02875731699168682 0.5346209406852722
vt 0.026322944089770317 0.5353693962097168
vt 0.037590812891721725 0.531558632850647
vt 0.027655960991978645 0.5345093011856079
vt 0.019133249297738075 0.5338793992996216
vt 0.027275560423731804 0.5350860357284546
vt 0.02875731699168682 0.5346209406852722
vt 0.027275560423731804 0.5350860357284546
vt 0.026322944089770317 0.5353693962097168
vt 0.020215271040797234 0.534534215927124
vt 0.027655960991978645 0.5345093011856079
vt 0.027804510667920113 0.5349043011665344
vt 0.029123712331056595 0.5309395790100098
vt 0.020215271040797234 0.534534215927124
vt 0.027804510667920113 0.5349043011665344
vt 0.026322944089770317 0.5353693962097168
vt 0.03624691814184189 0.532417893409729
vt 0.03812496364116669 0.537663996219635
vt 0.020215271040797234 0.534534215927124
vt 0.019133249297738075 0.5338793992996216
vt 0.027655960991978645 0.5345093011856079
vt 0.03530916944146156 0.5326967835426331
vt 0.03812496364116669 0.537663996219635
vt 0.027275560423731804 0.5350860357284546
vt 0.028318464756011963 0.5406306982040405
vt 0.026322944089770317 0.5353693962097168
vt 0.027275560423731804 0.5350860357284546
vt 0.020215271040797234 0.534534215927124
vt 0.01928805187344551 0.5342741012573242
vt 0.019133249297738075 0.5338793992996216
vt 0.020215271040797234 0.534534215927124
vt 0.026322944089770317 0.5353693962097168
vt 0.028318464756011963 0.5406306982040405
vt 0.03812496364116669 0.537663996219635
vt 0.028318464756011963 0.5406306982040405
vt 0.027275560423731804 0.5350860357284546
vt 0.020215271040797234 0.534534215927124
vt 0.028318464756011963 0.5406306982040405
vt 0.025318803265690804 0.5413395166397095
vt 0.03372582793235779 0.5388250350952148
vt 0.03612902760505676 0.5453663468360901
vt 0.03324282169342041 0.5391409397125244
vt 0.03324282169342041 0.5391409397125244
vt 0.03565438091754913 0.5456842184066772
vt 0.03185741603374481 0.539389967918396
vt 0.03185741603374481 0.539389967918396
vt 0.03428840637207031 0.5459346771240234
vt 0.02994050830602646 0.5395049452781677
vt 0.025318803265690804 0.5413395166397095
vt 0.025053545832633972 0.5469244718551636
vt 0.020215271040797234 0.534534215927124
vt 0.025318803265690804 0.5413395166397095
vt 0.03512546047568321 0.5383743643760681
vt 0.03722422569990158 0.5441349148750305
vt 0.03565438091754913 0.5456842184066772
vt 0.03565438091754913 0.5456842184066772
vt 0.03428840637207031 0.5459346771240234
vt 0.03185741603374481 0.539389967918396
vt 0.03428840637207031 0.5459346771240234
vt 0.032396864145994186 0.5460503101348877
vt 0.02994050830602646 0.5395049452781677
vt 0.02994050830602646 0.5395049452781677
vt 0.032396864145994186 0.5460503101348877
vt 0.030488474294543266 0.5459998846054077
vt 0.02754659205675125 0.5471155643463135
vt 0.025318803265690804 0.5413395166397095
vt 0.02754659205675125 0.5471155643463135
vt 0.025053545832633972 0.5469244718551636
vn 0 0.9999999403953552 -0
vn 0 0.9999999403953552 -0
vn 0 0.9999999403953552 -0
vn 0 1 -0.00000046456486302304256
vn 0 1 -0.00000046456486302304256
vn 0 1 -0.00000046456486302304256
vn 0 0.8320513367652893 0.5546987056732178
vn 0 0.8320513367652893 0.5546987056732178
vn 0 0.8320513367652893 0.5546987056732178
vn -0.0000020299685274949297 1 0.000019511711798259057
vn -0.0000020299685274949297 1 0.000019511711798259057
vn -0.0000020299685274949297 1 0.000019511711798259057
vn -1 -0 -0
vn -1 -0 -0
vn -1 -0 -0
vn 0 0.8320510983467102 0.5546988844871521
vn 0 0.8320510983467102 0.5546988844871521
vn 0 0.8320510983467102 0.5546988844871521
vn 0.000017254476915695705 1 -0
vn 0.000017254476915695705 1 -0
vn 0.000017254476915695705 1 -0
vn 0 1 -0
vn 0 1 -0
vn 0 1 -0
vn 0.00001441898348275572 0.832046627998352 0.5547055602073669
vn 0.00001441898348275572 0.832046627998352 0.5547055602073669
vn 0.00001441898348275572 0.832046627998352 0.5547055602073669
vn 0 -0 -1
vn 0 -0 -1
vn 0 -0 -1
vn 0 1 -0
vn -0.000014882478353683837 0.8320556879043579 0.5546920299530029
vn -0.000014882478353683837 0.8320556879043579 0.5546920299530029
vn -0.000014882478353683837 0.8320556879043579 0.5546920299530029
vn -0.9999999403953552 -0.0000037939307730994187 -0
vn -0.9999999403953552 -0.0000037939307730994187 -0
vn -0.9999999403953552 -0.0000037939307730994187 -0
vn 0 -0 -1
vn -1 -0.0000014633757245974266 0.000022086018361733295
vn -1 -0.0000014633757245974266 0.000022086018361733295
vn -1 -0.0000014633757245974266 0.000022086018361733295
vn 0 1 -0
vn 0 1 -0
vn -1 -0.0000034145364224968944 0.0000011503259429446189
vn -1 -0.0000034145364224968944 0.0000011503259429446189
vn -1 -0.0000034145364224968944 0.0000011503259429446189
vn 0 1 -0.000000005313635309533993
vn 0 1 -0.000000005313635309533993
vn 0 1 -0.000000005313635309533993
vn -0.000017255368220503442 1 -0
vn -0.000017255368220503442 1 -0
vn -0.000017255368220503442 1 -0
vn -1 -0.0000012194645933050197 -0
vn -1 -0.0000012194645933050197 -0
vn -1 -0.0000012194645933050197 -0
vn -1 0.0000049295476856059395 -0
vn -1 0.0000049295476856059395 -0
vn -1 0.0000049295476856059395 -0
vn -0.0000016433095879619941 1 0.0000011528106824698625
vn -0.0000016433095879619941 1 0.0000011528106824698625
vn -0.0000016433095879619941 1 0.0000011528106824698625
vn -1 0.000007753015779599082 -0.0000006856210461592127
vn -1 0.000007753015779599082 -0.0000006856210461592127
vn -1 0.000007753015779599082 -0.0000006856210461592127
vn 0.25882744789123535 0.9659236073493958 -0
vn 0.25882744789123535 0.9659236073493958 -0
vn 0.25882744789123535 0.9659236073493958 -0
vn -0.2587994337081909 0.9659311771392822 -0
vn -0.2587994337081909 0.9659311771392822 -0
vn -0.2587994337081909 0.9659311771392822 -0
vn -0.7071068286895752 0.7071067690849304 -0
vn -0.7071068286895752 0.7071067690849304 -0
vn -0.7071068286895752 0.7071067690849304 -0
vn -1 -0.00000040389417677033634 -0
vn -1 -0.00000040389417677033634 -0
vn -1 -0.00000040389417677033634 -0
vn 0 0.9999999403953552 -0
vn 0 0.9999999403953552 -0
vn 0 0.9999999403953552 -0
vn 0.25882744789123535 0.9659236073493958 -0
vn -0.25879940390586853 0.9659311771392822 -0
vn -0.25879940390586853 0.9659311771392822 -0
vn -0.25879940390586853 0.9659311771392822 -0
vn -0.7071067690849304 0.7071068286895752 -0
vn -0.7071067690849304 0.7071068286895752 -0
vn -0.7071067690849304 0.7071068286895752 -0
vn -0.9659299850463867 0.25880348682403564 -0
vn -0.9659299850463867 0.25880348682403564 -0
vn -0.9659299850463867 0.25880348682403564 -0
vn 0 0.9999999403953552 -0
vn -1 -0 -0
vn -1 -0 -0
vn -1 -0 -0
f 3/3/3 2/2/2 1/1/1
f 6/6/6 5/5/5 4/4/4
f 9/9/9 8/8/8 7/7/7
f 12/12/12 11/11/11 10/10/10
f 15/15/15 14/14/14 13/13/13
f 18/18/18 17/17/17 16/16/16
f 21/21/21 20/20/20 19/19/19
f 24/24/24 23/23/23 22/22/22
f 27/27/27 26/26/26 25/25/25
f 30/30/30 29/29/29 28/28/28
f 24/24/24 22/22/22 31/31/31
f 34/34/34 33/33/33 32/32/32
f 37/37/37 36/36/36 35/35/35
f 30/30/30 28/28/28 38/38/38
f 41/41/41 40/40/40 39/39/39
f 43/43/43 42/42/42 24/24/24
f 46/46/46 45/45/45 44/44/44
f 49/49/49 48/48/48 47/47/47
f 52/52/52 51/51/51 50/50/50
f 55/55/55 54/54/54 53/53/53
f 58/58/58 57/57/57 56/56/56
f 61/61/61 60/60/60 59/59/59
f 64/64/64 63/63/63 62/62/62
f 67/67/67 66/66/66 65/65/65
f 70/70/70 69/69/69 68/68/68
f 73/73/73 72/72/72 71/71/71
f 76/76/76 75/75/75 74/74/74
f 79/79/79 78/78/78 77/77/77
f 67/67/67 80/80/80 66/66/66
f 83/83/83 82/82/82 81/81/81
f 86/86/86 85/85/85 84/84/84
f 89/89/89 88/88/88 87/87/87
f 79/79/79 77/77/77 90/90/90
f 93/93/93 92/92/92 91/91/91
