# VPXTOOL table OBJ file
# VPXTOOL OBJ file
# numVerts: 12 numFaces: 42
o playfield_mesh
v 8.689062118530273 7.141194820404053 0.0003000000142492354
v 9.520000457763672 0 0.0003000000142492354
v 9.520000457763672 22.14999771118164 0.0003000000142492354
v 0 0 0.0003000000142492354
v 7.8956780433654785 13.329023361206055 0.0003000000142492354
v 7.920857906341553 7.569056987762451 0.0003000000142492354
v 8.524344444274902 11.99742603302002 0.0003000000142492354
v 8.09103012084961 6.971024036407471 0.0003000000142492354
v 8.518891334533691 7.739227771759033 0.0003000000142492354
v 0 22.14999771118164 0.0003000000142492354
v 8.524345397949219 13.329023361206055 0.0003000000142492354
v 7.8956780433654785 11.99742603302002 0.0003000000142492354
vt 0.6775979995727539 0.9127169847488403
vt 1 1
vt 0 1
vt 1 0
vt 0.39823800325393677 0.8962410092353821
vt 0.6582819819450378 0.832023024559021
vt 0.45835500955581665 0.9132339954376221
vt 0.685280978679657 0.8498979806900024
vt 0.6505990028381348 0.8948420286178589
vt 0 1
vt 0.39823800325393677 0.9208070039749146
vt 0.45835500955581665 0.8850799798965454
vn -0 -0 -1
vn -0 -0 -1
vn -0 -0 -1
vn -0 -0 -1
vn -0 -0 -1
vn -0 -0 -1
vn -0 -0 -1
vn -0 -0 -1
vn -0 -0 -1
vn -0 -0 -1
vn -0 -0 -1
vn -0 -0 -1
f 4/4/4 10/10/10 3/3/3
f 3/3/3 5/5/5 4/4/4
f 5/5/5 12/12/12 4/4/4
f 3/3/3 11/11/11 5/5/5
f 4/4/4 12/12/12 7/7/7
f 3/3/3 7/7/7 11/11/11
f 7/7/7 6/6/6 4/4/4
f 6/6/6 8/8/8 4/4/4
f 7/7/7 9/9/9 6/6/6
f 7/7/7 3/3/3 9/9/9
f 2/2/2 4/4/4 8/8/8
f 1/1/1 9/9/9 3/3/3
f 2/2/2 8/8/8 1/1/1
f 3/3/3 2/2/2 1/1/1
