# VPXTOOL table OBJ file
# VPXTOOL OBJ file
# numVerts: 20 numFaces: 42
o scoopeject
v 8.42165470123291 13.413151741027832 0.699999988079071
v 8.62567138671875 12.812488555908203 0.699999988079071
v 8.42165470123291 13.413151741027832 -0.17448100447654724
v 8.169204711914063 13.327093124389648 -0.49595800042152405
v 8.374887466430664 12.721070289611816 -0.4951710104942322
v 7.8197760581970215 13.207974433898926 -0.5653010010719299
v 8.42165470123291 13.413151741027832 -0.17448100447654724
v 8.62567138671875 12.812488555908203 -0.17448100447654724
v 8.40929889678955 13.408940315246582 -0.2607940137386322
v 8.613397598266602 12.808013916015625 -0.2607559859752655
v 8.373440742492676 13.396717071533203 -0.3435620069503784
v 8.577775955200195 12.795029640197754 -0.34341201186180115
v 8.317590713500977 13.377677917480469 -0.4146830141544342
v 8.522294044494629 12.77480411529541 -0.4143590033054352
v 8.247215270996094 13.353686332702637 -0.4671950042247772
v 8.452383995056152 12.749320030212402 -0.46665099263191223
v 8.169204711914063 13.327093124389648 -0.49595800042152405
v 8.62567138671875 12.812488555908203 -0.17448100447654724
v 8.018218040466309 12.591053009033203 -0.5653010010719299
v 8.374887466430664 12.721070289611816 -0.4951710104942322
vt 0.8973180055618286 0.6016499996185303
vt 0.8972010016441345 0.5730099678039551
vt 0.8973180055618286 0.6016499996185303
vt 0.8693010210990906 0.6016570329666138
vt 0.8691679835319519 0.5727649927139282
vt 0.8305230140686035 0.6016680002212524
vt 0.8973180055618286 0.6016499996185303
vt 0.8972010016441345 0.5730099678039551
vt 0.8968610167503357 0.6016489863395691
vt 0.8967429995536804 0.572996973991394
vt 0.8955339789390564 0.6016479730606079
vt 0.8954160213470459 0.5729609727859497
vt 0.8864219784736633 0.6016499996185303
vt 0.8862990140914917 0.5729060173034668
vt 0.8781260251998901 0.6016539931297302
vt 0.8779979944229126 0.5728399753570557
vt 0.8693010210990906 0.6016570329666138
vt 0.8972010016441345 0.5730099678039551
vt 0.8292989730834961 0.5724149942398071
vt 0.8691679835319519 0.5727649927139282
vn -0.9469000101089478 -0.3215999901294708 -0
vn -0.9469000101089478 -0.3215999901294708 -0
vn -0.9469000101089478 -0.3215999901294708 -0
vn -0.17520000040531158 -0.05820000171661377 0.9828000068664551
vn -0.1738000065088272 -0.05649999901652336 0.9832000136375427
vn -0.1745000034570694 -0.05730000138282776 0.9829999804496765
vn -0.9362000226974487 -0.3179999887943268 0.14949999749660492
vn -0.9362000226974487 -0.3179999887943268 0.14970000088214874
vn -0.9074000120162964 -0.30820000171661377 0.2856000065803528
vn -0.9071999788284302 -0.30799999833106995 0.2865999937057495
vn -0.801800012588501 -0.27219998836517334 0.5320000052452087
vn -0.8008999824523926 -0.271699994802475 0.5335999727249146
vn -0.6431000232696533 -0.21809999644756317 0.734000027179718
vn -0.6410999894142151 -0.21709999442100525 0.7361000180244446
vn -0.4334999918937683 -0.14650000631809235 0.88919997215271
vn -0.4302000105381012 -0.14509999752044678 0.890999972820282
vn -0.31209999322891235 -0.10509999841451645 0.9441999793052673
vn -0.9469000101089478 -0.3215999901294708 -0
vn -0.17309999465942383 -0.05570000037550926 0.983299970626831
vn -0.3098999857902527 -0.10400000214576721 0.9451000094413757
f 3/3/3 2/2/2 1/1/1
f 3/3/3 18/18/18 2/2/2
f 6/6/6 5/5/5 4/4/4
f 6/6/6 19/19/19 5/5/5
f 9/9/9 8/8/8 7/7/7
f 9/9/9 10/10/10 8/8/8
f 11/11/11 10/10/10 9/9/9
f 11/11/11 12/12/12 10/10/10
f 13/13/13 12/12/12 11/11/11
f 13/13/13 14/14/14 12/12/12
f 15/15/15 14/14/14 13/13/13
f 15/15/15 16/16/16 14/14/14
f 17/17/17 16/16/16 15/15/15
f 17/17/17 20/20/20 16/16/16
