# VPXTOOL table OBJ file
# VPXTOOL OBJ file
# numVerts: 38 numFaces: 42
o Primitive006
v 2.224104881286621 0.8952699899673462 -2.963912010192871
v 2.218332052230835 0.2606559991836548 -2.963874101638794
v 2.18622088432312 0.8955720067024231 -3.046679973602295
v 1.6012879610061646 0.9002349972724915 -3.268418073654175
v 1.9704509973526 0.8972910046577454 -3.199075937271118
v 1.9644900560379028 0.25734400749206543 -3.198288917541504
v 1.6012879610061646 0.9002349972724915 -3.268418073654175
v 1.9644900560379028 0.25734400749206543 -3.198288917541504
v 1.5848939418792725 0.2523899972438812 -3.268419027328491
v 2.18622088432312 0.8955720067024231 -3.046679973602295
v 2.180419921875 0.26016199588775635 -3.04653000831604
v 2.1272170543670654 0.8960430026054382 -3.1178009510040283
v 2.0528669357299805 0.8966349959373474 -3.1703128814697266
v 2.1272170543670654 0.8960430026054382 -3.1178009510040283
v 2.1213719844818115 0.25939100980758667 -3.1174769401550293
v 2.1213719844818115 0.25939100980758667 -3.1174769401550293
v 2.0469679832458496 0.258419007062912 -3.169769048690796
v 1.9704509973526 0.8972910046577454 -3.199075937271118
v 2.0469679832458496 0.258419007062912 -3.169769048690796
v 1.9644900560379028 0.25734400749206543 -3.198288917541504
v 1.9704509973526 0.8972910046577454 -3.199075937271118
v 2.0528669357299805 0.8966349959373474 -3.1703128814697266
v 2.2313969135284424 0.2608259916305542 0.5123900175094604
v 2.2313950061798096 0.2608259916305542 -2.877599000930786
v 2.2371599674224854 0.8951650261878967 0.5123909711837769
v 2.237159013748169 0.8951650261878967 -2.877599000930786
v 2.2313950061798096 0.2608259916305542 -2.877599000930786
v 2.224104881286621 0.8952699899673462 -2.963912010192871
v 2.218332052230835 0.2606559991836548 -2.963874101638794
v 2.180419921875 0.26016199588775635 -3.04653000831604
v 2.18622088432312 0.8955720067024231 -3.046679973602295
v 2.180419921875 0.26016199588775635 -3.04653000831604
v 2.1213719844818115 0.25939100980758667 -3.1174769401550293
v 2.1272170543670654 0.8960430026054382 -3.1178009510040283
v 2.237159013748169 0.8951650261878967 -2.877599000930786
v 2.2313950061798096 0.2608259916305542 -2.877599000930786
v 2.218332052230835 0.2606559991836548 -2.963874101638794
v 2.224104881286621 0.8952699899673462 -2.963912010192871
vt 0.8968610167503357 0.6016489863395691
vt 0.8967429995536804 0.572996973991394
vt 0.8955339789390564 0.6016479730606079
vt 0.8305230140686035 0.6016680002212524
vt 0.8693010210990906 0.6016570329666138
vt 0.8691679835319519 0.5727649927139282
vt 0.8305230140686035 0.6016680002212524
vt 0.8691679835319519 0.5727649927139282
vt 0.8292989730834961 0.5724149942398071
vt 0.8955339789390564 0.6016479730606079
vt 0.8954160213470459 0.5729609727859497
vt 0.8864219784736633 0.6016499996185303
vt 0.8781260251998901 0.6016539931297302
vt 0.8864219784736633 0.6016499996185303
vt 0.8862990140914917 0.5729060173034668
vt 0.8862990140914917 0.5729060173034668
vt 0.8779979944229126 0.5728399753570557
vt 0.8693010210990906 0.6016570329666138
vt 0.8779979944229126 0.5728399753570557
vt 0.8691679835319519 0.5727649927139282
vt 0.8693010210990906 0.6016570329666138
vt 0.8781260251998901 0.6016539931297302
vt 0.8972010016441345 0.5730099678039551
vt 0.8972010016441345 0.5730099678039551
vt 0.8973180055618286 0.6016499996185303
vt 0.8973180055618286 0.6016499996185303
vt 0.8972010016441345 0.5730099678039551
vt 0.8968610167503357 0.6016489863395691
vt 0.8967429995536804 0.572996973991394
vt 0.8954160213470459 0.5729609727859497
vt 0.8955339789390564 0.6016479730606079
vt 0.8954160213470459 0.5729609727859497
vt 0.8862990140914917 0.5729060173034668
vt 0.8864219784736633 0.6016499996185303
vt 0.8973180055618286 0.6016499996185303
vt 0.8972010016441345 0.5730099678039551
vt 0.8967429995536804 0.572996973991394
vt 0.8968610167503357 0.6016489863395691
vn -0.9584000110626221 0.008700000122189522 0.28540000319480896
vn -0.9581000208854675 0.008799999952316284 0.2863999903202057
vn -0.8773000240325928 0.1256999969482422 0.46320000290870667
vn -0.18459999561309814 0.002899999963119626 0.9828000068664551
vn -0.18459999561309814 0.002899999963119626 0.9828000068664551
vn -0.18459999561309814 0.002899999963119626 0.9828000068664551
vn -0.18170000612735748 0.004600000102072954 0.983299970626831
vn -0.18170000612735748 0.004600000102072954 0.983299970626831
vn -0.18170000612735748 0.004600000102072954 0.983299970626831
vn -0.8468000292778015 0.007799999788403511 0.5317999720573425
vn -0.84579998254776 0.00800000037997961 0.5335000157356262
vn -0.7264000177383423 0.12430000305175781 0.6758999824523926
vn -0.4578999876976013 0.004800000227987766 0.8889999985694885
vn -0.6794000267982483 0.006500000134110451 0.7337999939918518
vn -0.6769000291824341 0.006800000090152025 0.7361000180244446
vn -0.6765000224113464 0.006800000090152025 0.7364000082015991
vn -0.453900009393692 0.005100000184029341 0.890999972820282
vn -0.33340001106262207 0.0031999999191612005 0.942799985408783
vn -0.45399999618530273 0.005100000184029341 0.890999972820282
vn -0.32679998874664307 0.00419999985024333 0.9451000094413757
vn -0.3294999897480011 0.0038999998942017555 0.9441999793052673
vn -0.45719999074935913 0.004900000058114529 0.8894000053405762
vn -1 0.009100000374019146 -0
vn -1 0.009100000374019146 -0
vn -1 0.009100000374019146 -0
vn -0.9886999726295471 0.008999999612569809 0.14949999749660492
vn -0.9886999726295471 0.008999999612569809 0.14949999749660492
vn -0.9690999984741211 0.13459999859333038 0.20659999549388885
vn -0.9257000088691711 -0.1168999969959259 0.35989999771118164
vn -0.8454999923706055 0.008999999612569809 0.5339999794960022
vn -0.8468999862670898 0.007799999788403511 0.5317000150680542
vn -0.7979999780654907 -0.10999999940395355 0.5925999879837036
vn -0.6765000224113464 0.00839999970048666 0.7364000082015991
vn -0.6789000034332275 0.006500000134110451 0.7342000007629395
vn -1 0.009100000374019146 -0
vn -0.9886999726295471 0.008999999612569809 0.14970000088214874
vn -0.9580000042915344 0.009200000204145908 0.2865000069141388
vn -0.958299994468689 0.008700000122189522 0.2856999933719635
f 3/3/3 2/2/2 1/1/1
f 6/6/6 5/5/5 4/4/4
f 9/9/9 8/8/8 7/7/7
f 12/12/12 11/11/11 10/10/10
f 15/15/15 14/14/14 13/13/13
f 17/17/17 16/16/16 13/13/13
f 20/20/20 19/19/19 18/18/18
f 19/19/19 22/22/22 21/21/21
f 25/25/25 24/24/24 23/23/23
f 25/25/25 35/35/35 24/24/24
f 28/28/28 27/27/27 26/26/26
f 31/31/31 30/30/30 29/29/29
f 34/34/34 33/33/33 32/32/32
f 38/38/38 37/37/37 36/36/36
